M48
; DRILL file {KiCad 6.0.4-6f826c9f35~116~ubuntu20.04.1} date Sun May 15 22:55:21 2022
; FORMAT={-:-/ absolute / metric / decimal}
; #@! TF.CreationDate,2022-05-15T22:55:21+00:00
; #@! TF.GenerationSoftware,Kicad,Pcbnew,6.0.4-6f826c9f35~116~ubuntu20.04.1
; #@! TF.FileFunction,Plated,1,2,PTH
FMAT,2
METRIC
; #@! TA.AperFunction,Plated,PTH,ViaDrill
T1C0.400
; #@! TA.AperFunction,Plated,PTH,ComponentDrill
T2C0.889
; #@! TA.AperFunction,Plated,PTH,ComponentDrill
T3C1.400
; #@! TA.AperFunction,Plated,PTH,ComponentDrill
T4C1.500
; #@! TA.AperFunction,Plated,PTH,ComponentDrill
T5C1.700
; #@! TA.AperFunction,Plated,PTH,ComponentDrill
T6C3.000
%
G90
G05
T1
X136.0Y-102.0
X136.1Y-109.6
X136.1Y-117.3
X149.5Y-98.5
X149.5Y-113.8
X149.7Y-106.2
T2
X130.8Y-88.1
X136.83Y-84.96
X136.83Y-87.5
X136.83Y-90.04
X139.37Y-84.96
X139.37Y-87.5
X139.37Y-90.04
X154.5Y-88.2
X161.6Y-122.4
T3
X129.416Y-127.7
X130.892Y-92.665
X130.892Y-96.475
X130.892Y-100.285
X130.892Y-104.095
X130.892Y-107.905
X130.892Y-111.715
X130.892Y-115.525
X130.892Y-119.335
X133.226Y-127.7
X137.036Y-127.7
X140.846Y-127.7
X144.656Y-127.7
X148.466Y-127.7
X152.276Y-127.7
X154.6Y-92.665
X154.6Y-96.475
X154.6Y-100.285
X154.6Y-104.095
X154.6Y-107.905
X154.6Y-111.715
X154.6Y-115.525
X154.6Y-119.335
X156.086Y-127.7
T4
X145.7Y-87.8
T5
X142.444Y-86.282
X144.182Y-91.056
X147.218Y-84.544
X148.956Y-89.318
T6
X122.431Y-87.505
X122.431Y-128.145
X163.071Y-87.505
X163.071Y-128.145
T0
M30
