M48
; DRILL file {KiCad 6.0.4-6f826c9f35~116~ubuntu20.04.1} date Wed Apr  6 13:01:52 2022
; FORMAT={-:-/ absolute / metric / decimal}
; #@! TF.CreationDate,2022-04-06T13:01:52+00:00
; #@! TF.GenerationSoftware,Kicad,Pcbnew,6.0.4-6f826c9f35~116~ubuntu20.04.1
; #@! TF.FileFunction,Plated,1,2,PTH
FMAT,2
METRIC
; #@! TA.AperFunction,Plated,PTH,ViaDrill
T1C0.400
; #@! TA.AperFunction,Plated,PTH,ComponentDrill
T2C0.889
; #@! TA.AperFunction,Plated,PTH,ComponentDrill
T3C0.930
; #@! TA.AperFunction,Plated,PTH,ComponentDrill
T4C1.500
; #@! TA.AperFunction,Plated,PTH,ComponentDrill
T5C1.650
; #@! TA.AperFunction,Plated,PTH,ComponentDrill
T6C1.700
; #@! TA.AperFunction,Plated,PTH,ComponentDrill
T7C3.000
%
G90
G05
T1
X2.286Y30.226
X4.826Y30.226
X6.35Y23.622
X6.35Y21.844
X6.35Y20.32
X6.35Y18.796
X6.604Y30.226
X13.716Y9.398
X13.716Y7.874
X13.716Y6.35
X13.716Y4.318
X18.034Y28.194
X18.034Y26.924
X18.796Y29.21
X19.812Y29.972
X22.098Y4.826
X23.622Y4.826
X24.384Y14.986
X25.146Y4.826
X25.908Y23.114
X26.162Y14.986
X26.67Y4.826
X28.194Y4.826
X28.448Y22.225
X31.115Y21.336
X33.401Y20.193
X36.195Y21.082
X36.322Y9.906
X36.322Y8.89
X36.83Y32.766
X37.592Y9.906
X37.592Y8.89
X38.1Y32.766
X38.1Y25.908
X38.1Y21.971
X38.862Y9.906
X38.862Y8.89
X39.37Y32.766
X39.37Y24.892
X40.132Y9.906
X40.132Y8.89
X40.64Y32.766
X46.228Y23.368
X46.228Y21.844
X46.228Y20.32
X46.228Y18.542
X46.228Y17.272
T2
X12.954Y36.703
X12.954Y34.163
X15.494Y36.703
X15.494Y34.163
X18.034Y36.703
X18.034Y34.163
T3
X8.382Y23.241
X8.382Y21.211
X8.382Y19.181
X8.382Y17.151
X10.162Y24.261
X10.162Y22.231
X10.162Y20.201
X10.162Y18.171
X14.982Y27.561
X14.982Y25.271
X14.982Y16.131
X14.982Y13.841
X18.159Y14.982
X20.449Y14.982
X21.459Y10.162
X22.479Y8.382
X23.489Y10.162
X24.509Y8.382
X25.519Y10.162
X26.539Y8.382
X27.549Y10.162
X28.569Y8.382
X29.589Y14.982
X31.879Y14.982
X35.691Y27.307
X35.691Y25.017
X35.691Y15.877
X35.691Y13.587
X40.511Y22.977
X40.511Y20.947
X40.511Y18.917
X40.511Y16.887
X42.291Y23.997
X42.291Y21.967
X42.291Y19.937
X42.291Y17.907
T4
X27.432Y34.417
T5
X9.272Y28.831
X9.272Y12.571
X16.889Y9.272
X33.149Y9.272
X41.401Y28.577
X41.401Y12.317
T6
X24.892Y36.957
X24.892Y31.877
X29.972Y36.957
X29.972Y31.877
T7
X5.08Y35.56
X5.08Y5.08
X45.72Y35.56
X45.72Y5.08
T0
M30
