%TF.GenerationSoftware,KiCad,Pcbnew,6.0.4-6f826c9f35~116~ubuntu20.04.1*%
%TF.CreationDate,2022-05-15T22:55:21+00:00*%
%TF.ProjectId,VLFANT01B,564c4641-4e54-4303-9142-2e6b69636164,rev?*%
%TF.SameCoordinates,Original*%
%TF.FileFunction,Copper,L1,Top*%
%TF.FilePolarity,Positive*%
%FSLAX46Y46*%
G04 Gerber Fmt 4.6, Leading zero omitted, Abs format (unit mm)*
G04 Created by KiCad (PCBNEW 6.0.4-6f826c9f35~116~ubuntu20.04.1) date 2022-05-15 22:55:21*
%MOMM*%
%LPD*%
G01*
G04 APERTURE LIST*
%TA.AperFunction,ComponentPad*%
%ADD10C,2.500000*%
%TD*%
%TA.AperFunction,ComponentPad*%
%ADD11C,2.700000*%
%TD*%
%TA.AperFunction,ComponentPad*%
%ADD12R,1.524000X1.524000*%
%TD*%
%TA.AperFunction,ComponentPad*%
%ADD13C,6.000000*%
%TD*%
%TA.AperFunction,ViaPad*%
%ADD14C,0.800000*%
%TD*%
%TA.AperFunction,Conductor*%
%ADD15C,1.500000*%
%TD*%
%TA.AperFunction,Conductor*%
%ADD16C,0.200000*%
%TD*%
G04 APERTURE END LIST*
D10*
%TO.P,J7,1*%
%TO.N,/OUT1*%
X145700000Y-87800000D03*
D11*
%TO.P,J7,2*%
%TO.N,/OUT2*%
X148955550Y-89318088D03*
X142444450Y-86281912D03*
X144181912Y-91055550D03*
X147218088Y-84544450D03*
%TD*%
D12*
%TO.P,J8,1,2*%
%TO.N,/OUT1*%
X139370000Y-90040000D03*
%TO.P,J8,2,2*%
X136830000Y-90040000D03*
%TO.P,J8,3,4*%
%TO.N,/OUT2*%
X139370000Y-87500000D03*
%TO.P,J8,4,4*%
X136830000Y-87500000D03*
%TO.P,J8,5,6*%
%TO.N,GND*%
X139370000Y-84960000D03*
%TO.P,J8,6,6*%
X136830000Y-84960000D03*
%TD*%
D13*
%TO.P,M1,1*%
%TO.N,unconnected-(M1-Pad1)*%
X163071000Y-87505000D03*
%TD*%
%TO.P,M2,1*%
%TO.N,unconnected-(M2-Pad1)*%
X163071000Y-128145000D03*
%TD*%
%TO.P,M3,1*%
%TO.N,unconnected-(M3-Pad1)*%
X122431000Y-87505000D03*
%TD*%
%TO.P,M4,1*%
%TO.N,unconnected-(M4-Pad1)*%
X122431000Y-128145000D03*
%TD*%
D12*
%TO.P,J6,1,1*%
%TO.N,GND*%
X161600000Y-122400000D03*
%TD*%
%TO.P,J4,1,1*%
%TO.N,GND*%
X154500000Y-88200000D03*
%TD*%
D10*
%TO.P,J5,1*%
%TO.N,Net-(J1-Pad2)*%
X154600000Y-92665000D03*
%TO.P,J5,2*%
%TO.N,Net-(J1-Pad3)*%
X154600000Y-96475000D03*
%TO.P,J5,3*%
%TO.N,Net-(J1-Pad4)*%
X154600000Y-100285000D03*
%TO.P,J5,4*%
%TO.N,Net-(J1-Pad5)*%
X154600000Y-104095001D03*
%TO.P,J5,5*%
%TO.N,Net-(J1-Pad6)*%
X154600000Y-107904999D03*
%TO.P,J5,6*%
%TO.N,Net-(J1-Pad7)*%
X154600000Y-111715000D03*
%TO.P,J5,7*%
%TO.N,Net-(J1-Pad8)*%
X154600000Y-115525000D03*
%TO.P,J5,8*%
%TO.N,/OUT2*%
X154600000Y-119335000D03*
%TD*%
D12*
%TO.P,J2,1,1*%
%TO.N,GND*%
X130800000Y-88100000D03*
%TD*%
D10*
%TO.P,J1,1*%
%TO.N,/OUT1*%
X130892000Y-92665000D03*
%TO.P,J1,2*%
%TO.N,Net-(J1-Pad2)*%
X130892000Y-96475000D03*
%TO.P,J1,3*%
%TO.N,Net-(J1-Pad3)*%
X130892000Y-100285000D03*
%TO.P,J1,4*%
%TO.N,Net-(J1-Pad4)*%
X130892000Y-104095001D03*
%TO.P,J1,5*%
%TO.N,Net-(J1-Pad5)*%
X130892000Y-107904999D03*
%TO.P,J1,6*%
%TO.N,Net-(J1-Pad6)*%
X130892000Y-111715000D03*
%TO.P,J1,7*%
%TO.N,Net-(J1-Pad7)*%
X130892000Y-115525000D03*
%TO.P,J1,8*%
%TO.N,Net-(J1-Pad8)*%
X130892000Y-119335000D03*
%TD*%
%TO.P,J3,1*%
%TO.N,unconnected-(J3-Pad1)*%
X129416000Y-127700000D03*
%TO.P,J3,2*%
%TO.N,unconnected-(J3-Pad2)*%
X133226000Y-127700000D03*
%TO.P,J3,3*%
%TO.N,unconnected-(J3-Pad3)*%
X137036000Y-127700000D03*
%TO.P,J3,4*%
%TO.N,/OUT1*%
X140846001Y-127700000D03*
%TO.P,J3,5*%
%TO.N,/OUT2*%
X144655999Y-127700000D03*
%TO.P,J3,6*%
%TO.N,unconnected-(J3-Pad6)*%
X148466000Y-127700000D03*
%TO.P,J3,7*%
%TO.N,unconnected-(J3-Pad7)*%
X152276000Y-127700000D03*
%TO.P,J3,8*%
%TO.N,unconnected-(J3-Pad8)*%
X156086000Y-127700000D03*
%TD*%
D14*
%TO.N,GND*%
X149700000Y-106200000D03*
X136000000Y-102000000D03*
X149500000Y-98500000D03*
X136100000Y-109600000D03*
X149500000Y-113800000D03*
X136100000Y-117300000D03*
%TD*%
D15*
%TO.N,/OUT1*%
X140800000Y-127653999D02*
X140846001Y-127700000D01*
X130892000Y-92665000D02*
X134378341Y-92664494D01*
X138621853Y-94421853D02*
X139042641Y-94842641D01*
X140800000Y-99085281D02*
X140800000Y-127653999D01*
X140800013Y-99085281D02*
G75*
G03*
X139042641Y-94842641I-6000013J-19D01*
G01*
X134378341Y-92664487D02*
G75*
G02*
X138621853Y-94421853I859J-6000013D01*
G01*
D16*
%TO.N,GND*%
X136830000Y-84960000D02*
X139370000Y-84960000D01*
D15*
%TO.N,/OUT2*%
X142444450Y-86281912D02*
X147218088Y-84544450D01*
X142949139Y-87650861D02*
X142444450Y-86281912D01*
X142949139Y-87650861D02*
X136830000Y-87500000D01*
X148955550Y-89318088D02*
X144181912Y-91055550D01*
X147218088Y-84544450D02*
X148955550Y-89318088D01*
X144655999Y-127700000D02*
X144700000Y-92400000D01*
X144700000Y-92400000D02*
X142949139Y-87650861D01*
%TD*%
%TA.AperFunction,Conductor*%
%TO.N,GND*%
G36*
X145729881Y-83207002D02*
G01*
X145776374Y-83260658D01*
X145786478Y-83330932D01*
X145760710Y-83391006D01*
X145677033Y-83497150D01*
X145627604Y-83582249D01*
X145547075Y-83720888D01*
X145547072Y-83720894D01*
X145544841Y-83724735D01*
X145523390Y-83777697D01*
X145523377Y-83777728D01*
X145479265Y-83833357D01*
X145449688Y-83848827D01*
X144966698Y-84024621D01*
X143390886Y-84598170D01*
X143354715Y-84611335D01*
X143283861Y-84615838D01*
X143250051Y-84602867D01*
X143241664Y-84598170D01*
X143237782Y-84595996D01*
X142992320Y-84501034D01*
X142987995Y-84500031D01*
X142987990Y-84500030D01*
X142847244Y-84467407D01*
X142735926Y-84441605D01*
X142473717Y-84418895D01*
X142469282Y-84419139D01*
X142469278Y-84419139D01*
X142215366Y-84433112D01*
X142215359Y-84433113D01*
X142210923Y-84433357D01*
X142082819Y-84458839D01*
X141957161Y-84483833D01*
X141957156Y-84483834D01*
X141952789Y-84484703D01*
X141948586Y-84486179D01*
X141708673Y-84570430D01*
X141708670Y-84570431D01*
X141704465Y-84571908D01*
X141700512Y-84573961D01*
X141700506Y-84573964D01*
X141590539Y-84631088D01*
X141470906Y-84693233D01*
X141467291Y-84695816D01*
X141467285Y-84695820D01*
X141364035Y-84769604D01*
X141256772Y-84846256D01*
X141253545Y-84849334D01*
X141253543Y-84849336D01*
X141125761Y-84971234D01*
X141066335Y-85027923D01*
X140903395Y-85234612D01*
X140901158Y-85238464D01*
X140773437Y-85458350D01*
X140773434Y-85458356D01*
X140771203Y-85462197D01*
X140672397Y-85706137D01*
X140608948Y-85961566D01*
X140608494Y-85965997D01*
X140584225Y-86202858D01*
X140557384Y-86268585D01*
X140499268Y-86309367D01*
X140428331Y-86312255D01*
X140394312Y-86296072D01*
X140393760Y-86297079D01*
X140385892Y-86292771D01*
X140378705Y-86287385D01*
X140242316Y-86236255D01*
X140180134Y-86229500D01*
X138559866Y-86229500D01*
X138556469Y-86229869D01*
X138505534Y-86235402D01*
X138505532Y-86235402D01*
X138497684Y-86236255D01*
X138490291Y-86239027D01*
X138490289Y-86239027D01*
X138405502Y-86270812D01*
X138358167Y-86278792D01*
X137798837Y-86265002D01*
X137757717Y-86257023D01*
X137702316Y-86236255D01*
X137694468Y-86235402D01*
X137694466Y-86235402D01*
X137643531Y-86229869D01*
X137640134Y-86229500D01*
X136019866Y-86229500D01*
X135957684Y-86236255D01*
X135821295Y-86287385D01*
X135704739Y-86374739D01*
X135617385Y-86491295D01*
X135566255Y-86627684D01*
X135559500Y-86689866D01*
X135559500Y-88310134D01*
X135566255Y-88372316D01*
X135617385Y-88508705D01*
X135704739Y-88625261D01*
X135711919Y-88630642D01*
X135763332Y-88669174D01*
X135805847Y-88726033D01*
X135810873Y-88796852D01*
X135776813Y-88859145D01*
X135763333Y-88870825D01*
X135704739Y-88914739D01*
X135617385Y-89031295D01*
X135566255Y-89167684D01*
X135559500Y-89229866D01*
X135559500Y-90850134D01*
X135566255Y-90912316D01*
X135617385Y-91048705D01*
X135704739Y-91165261D01*
X135821295Y-91252615D01*
X135957684Y-91303745D01*
X136019866Y-91310500D01*
X137640134Y-91310500D01*
X137702316Y-91303745D01*
X137838705Y-91252615D01*
X137955261Y-91165261D01*
X137999174Y-91106668D01*
X138056033Y-91064153D01*
X138126852Y-91059127D01*
X138189145Y-91093187D01*
X138200825Y-91106667D01*
X138244739Y-91165261D01*
X138361295Y-91252615D01*
X138497684Y-91303745D01*
X138559866Y-91310500D01*
X140180134Y-91310500D01*
X140242316Y-91303745D01*
X140378705Y-91252615D01*
X140495261Y-91165261D01*
X140582615Y-91048705D01*
X140633745Y-90912316D01*
X140640500Y-90850134D01*
X140640500Y-89229866D01*
X140633745Y-89167684D01*
X140582615Y-89031295D01*
X140584153Y-89030719D01*
X140571178Y-88971415D01*
X140595911Y-88904865D01*
X140652696Y-88862251D01*
X140699973Y-88854293D01*
X141181092Y-88866154D01*
X141978380Y-88885811D01*
X142045985Y-88907485D01*
X142093494Y-88968185D01*
X142520077Y-90125276D01*
X142524873Y-90196109D01*
X142512502Y-90227806D01*
X142512862Y-90227982D01*
X142510899Y-90231988D01*
X142508665Y-90235835D01*
X142409859Y-90479775D01*
X142346410Y-90735204D01*
X142319584Y-90997024D01*
X142319759Y-91001476D01*
X142329102Y-91239260D01*
X142329917Y-91260012D01*
X142377202Y-91518921D01*
X142460496Y-91768584D01*
X142491490Y-91830613D01*
X142553504Y-91954721D01*
X142578137Y-92004020D01*
X142580666Y-92007679D01*
X142702098Y-92183377D01*
X142727777Y-92220532D01*
X142859879Y-92363438D01*
X142897696Y-92404348D01*
X142906432Y-92413799D01*
X143110535Y-92579965D01*
X143336016Y-92715715D01*
X143340106Y-92717447D01*
X143340114Y-92717451D01*
X143364076Y-92727597D01*
X143419006Y-92772577D01*
X143440946Y-92843780D01*
X143420089Y-109576598D01*
X143399099Y-126415670D01*
X143379012Y-126483766D01*
X143369973Y-126496082D01*
X143268002Y-126618689D01*
X143220362Y-126675970D01*
X143084770Y-126899419D01*
X142983696Y-127140455D01*
X142919358Y-127393783D01*
X142893172Y-127653839D01*
X142893396Y-127658505D01*
X142893396Y-127658511D01*
X142895541Y-127703160D01*
X142905712Y-127914908D01*
X142956703Y-128171256D01*
X143045025Y-128417252D01*
X143047241Y-128421376D01*
X143111752Y-128541437D01*
X143168736Y-128647491D01*
X143171531Y-128651234D01*
X143171533Y-128651237D01*
X143322329Y-128853177D01*
X143322334Y-128853183D01*
X143325121Y-128856915D01*
X143328430Y-128860195D01*
X143328435Y-128860201D01*
X143502118Y-129032374D01*
X143510742Y-129040923D01*
X143514504Y-129043681D01*
X143514507Y-129043684D01*
X143717749Y-129192707D01*
X143721523Y-129195474D01*
X143725666Y-129197654D01*
X143725668Y-129197655D01*
X143948683Y-129314989D01*
X143948688Y-129314991D01*
X143952833Y-129317172D01*
X144199589Y-129403344D01*
X144204182Y-129404216D01*
X144451784Y-129451224D01*
X144451787Y-129451224D01*
X144456373Y-129452095D01*
X144586958Y-129457226D01*
X144712874Y-129462174D01*
X144712880Y-129462174D01*
X144717542Y-129462357D01*
X144796976Y-129453657D01*
X144972706Y-129434412D01*
X144972711Y-129434411D01*
X144977359Y-129433902D01*
X145090115Y-129404216D01*
X145225593Y-129368548D01*
X145225595Y-129368547D01*
X145230116Y-129367357D01*
X145470261Y-129264182D01*
X145692518Y-129126646D01*
X145696081Y-129123629D01*
X145696086Y-129123626D01*
X145888438Y-128960787D01*
X145888439Y-128960786D01*
X145892004Y-128957768D01*
X145983728Y-128853177D01*
X146061256Y-128764774D01*
X146061260Y-128764769D01*
X146064338Y-128761259D01*
X146135891Y-128650018D01*
X146203204Y-128545367D01*
X146205732Y-128541437D01*
X146313082Y-128303129D01*
X146357123Y-128146974D01*
X146382759Y-128056076D01*
X146382760Y-128056073D01*
X146384029Y-128051572D01*
X146400831Y-127919496D01*
X146416615Y-127795421D01*
X146416615Y-127795417D01*
X146417013Y-127792291D01*
X146417932Y-127757222D01*
X146419347Y-127703160D01*
X146419430Y-127700000D01*
X146416000Y-127653839D01*
X146703173Y-127653839D01*
X146703397Y-127658505D01*
X146703397Y-127658511D01*
X146705542Y-127703160D01*
X146715713Y-127914908D01*
X146766704Y-128171256D01*
X146855026Y-128417252D01*
X146857242Y-128421376D01*
X146921753Y-128541437D01*
X146978737Y-128647491D01*
X146981532Y-128651234D01*
X146981534Y-128651237D01*
X147132330Y-128853177D01*
X147132335Y-128853183D01*
X147135122Y-128856915D01*
X147138431Y-128860195D01*
X147138436Y-128860201D01*
X147312119Y-129032374D01*
X147320743Y-129040923D01*
X147324505Y-129043681D01*
X147324508Y-129043684D01*
X147527750Y-129192707D01*
X147531524Y-129195474D01*
X147535667Y-129197654D01*
X147535669Y-129197655D01*
X147758684Y-129314989D01*
X147758689Y-129314991D01*
X147762834Y-129317172D01*
X148009590Y-129403344D01*
X148014183Y-129404216D01*
X148261785Y-129451224D01*
X148261788Y-129451224D01*
X148266374Y-129452095D01*
X148396959Y-129457226D01*
X148522875Y-129462174D01*
X148522881Y-129462174D01*
X148527543Y-129462357D01*
X148606977Y-129453657D01*
X148782707Y-129434412D01*
X148782712Y-129434411D01*
X148787360Y-129433902D01*
X148900116Y-129404216D01*
X149035594Y-129368548D01*
X149035596Y-129368547D01*
X149040117Y-129367357D01*
X149280262Y-129264182D01*
X149502519Y-129126646D01*
X149506082Y-129123629D01*
X149506087Y-129123626D01*
X149698439Y-128960787D01*
X149698440Y-128960786D01*
X149702005Y-128957768D01*
X149793729Y-128853177D01*
X149871257Y-128764774D01*
X149871261Y-128764769D01*
X149874339Y-128761259D01*
X149945892Y-128650018D01*
X150013205Y-128545367D01*
X150015733Y-128541437D01*
X150123083Y-128303129D01*
X150167124Y-128146974D01*
X150192760Y-128056076D01*
X150192761Y-128056073D01*
X150194030Y-128051572D01*
X150210832Y-127919496D01*
X150226616Y-127795421D01*
X150226616Y-127795417D01*
X150227014Y-127792291D01*
X150227933Y-127757222D01*
X150229348Y-127703160D01*
X150229431Y-127700000D01*
X150226001Y-127653839D01*
X150513173Y-127653839D01*
X150513397Y-127658505D01*
X150513397Y-127658511D01*
X150515542Y-127703160D01*
X150525713Y-127914908D01*
X150576704Y-128171256D01*
X150665026Y-128417252D01*
X150667242Y-128421376D01*
X150731753Y-128541437D01*
X150788737Y-128647491D01*
X150791532Y-128651234D01*
X150791534Y-128651237D01*
X150942330Y-128853177D01*
X150942335Y-128853183D01*
X150945122Y-128856915D01*
X150948431Y-128860195D01*
X150948436Y-128860201D01*
X151122119Y-129032374D01*
X151130743Y-129040923D01*
X151134505Y-129043681D01*
X151134508Y-129043684D01*
X151337750Y-129192707D01*
X151341524Y-129195474D01*
X151345667Y-129197654D01*
X151345669Y-129197655D01*
X151568684Y-129314989D01*
X151568689Y-129314991D01*
X151572834Y-129317172D01*
X151819590Y-129403344D01*
X151824183Y-129404216D01*
X152071785Y-129451224D01*
X152071788Y-129451224D01*
X152076374Y-129452095D01*
X152206959Y-129457226D01*
X152332875Y-129462174D01*
X152332881Y-129462174D01*
X152337543Y-129462357D01*
X152416977Y-129453657D01*
X152592707Y-129434412D01*
X152592712Y-129434411D01*
X152597360Y-129433902D01*
X152710116Y-129404216D01*
X152845594Y-129368548D01*
X152845596Y-129368547D01*
X152850117Y-129367357D01*
X153090262Y-129264182D01*
X153312519Y-129126646D01*
X153316082Y-129123629D01*
X153316087Y-129123626D01*
X153508439Y-128960787D01*
X153508440Y-128960786D01*
X153512005Y-128957768D01*
X153603729Y-128853177D01*
X153681257Y-128764774D01*
X153681261Y-128764769D01*
X153684339Y-128761259D01*
X153755892Y-128650018D01*
X153823205Y-128545367D01*
X153825733Y-128541437D01*
X153933083Y-128303129D01*
X153977124Y-128146974D01*
X154002760Y-128056076D01*
X154002761Y-128056073D01*
X154004030Y-128051572D01*
X154020832Y-127919496D01*
X154036616Y-127795421D01*
X154036616Y-127795417D01*
X154037014Y-127792291D01*
X154037933Y-127757222D01*
X154039348Y-127703160D01*
X154039431Y-127700000D01*
X154036001Y-127653839D01*
X154323173Y-127653839D01*
X154323397Y-127658505D01*
X154323397Y-127658511D01*
X154325542Y-127703160D01*
X154335713Y-127914908D01*
X154386704Y-128171256D01*
X154475026Y-128417252D01*
X154477242Y-128421376D01*
X154541753Y-128541437D01*
X154598737Y-128647491D01*
X154601532Y-128651234D01*
X154601534Y-128651237D01*
X154752330Y-128853177D01*
X154752335Y-128853183D01*
X154755122Y-128856915D01*
X154758431Y-128860195D01*
X154758436Y-128860201D01*
X154932119Y-129032374D01*
X154940743Y-129040923D01*
X154944505Y-129043681D01*
X154944508Y-129043684D01*
X155147750Y-129192707D01*
X155151524Y-129195474D01*
X155155667Y-129197654D01*
X155155669Y-129197655D01*
X155378684Y-129314989D01*
X155378689Y-129314991D01*
X155382834Y-129317172D01*
X155629590Y-129403344D01*
X155634183Y-129404216D01*
X155881785Y-129451224D01*
X155881788Y-129451224D01*
X155886374Y-129452095D01*
X156016959Y-129457226D01*
X156142875Y-129462174D01*
X156142881Y-129462174D01*
X156147543Y-129462357D01*
X156226977Y-129453657D01*
X156402707Y-129434412D01*
X156402712Y-129434411D01*
X156407360Y-129433902D01*
X156520116Y-129404216D01*
X156655594Y-129368548D01*
X156655596Y-129368547D01*
X156660117Y-129367357D01*
X156900262Y-129264182D01*
X157122519Y-129126646D01*
X157126082Y-129123629D01*
X157126087Y-129123626D01*
X157318439Y-128960787D01*
X157318440Y-128960786D01*
X157322005Y-128957768D01*
X157413729Y-128853177D01*
X157491257Y-128764774D01*
X157491261Y-128764769D01*
X157494339Y-128761259D01*
X157565892Y-128650018D01*
X157633205Y-128545367D01*
X157635733Y-128541437D01*
X157743083Y-128303129D01*
X157787124Y-128146974D01*
X157803453Y-128089077D01*
X159066065Y-128089077D01*
X159079722Y-128480157D01*
X159131477Y-128868038D01*
X159220834Y-129249017D01*
X159221823Y-129251923D01*
X159221825Y-129251929D01*
X159345950Y-129616543D01*
X159345955Y-129616555D01*
X159346943Y-129619458D01*
X159508598Y-129975826D01*
X159704258Y-130314717D01*
X159706047Y-130317216D01*
X159706049Y-130317219D01*
X159803831Y-130453799D01*
X159932053Y-130632899D01*
X160189810Y-130927333D01*
X160475069Y-131195208D01*
X160785107Y-131433969D01*
X160787710Y-131435596D01*
X160787715Y-131435599D01*
X160906687Y-131509941D01*
X161116964Y-131641337D01*
X161467472Y-131815331D01*
X161833287Y-131954290D01*
X162210915Y-132056890D01*
X162213958Y-132057405D01*
X162213964Y-132057406D01*
X162593713Y-132121636D01*
X162593720Y-132121637D01*
X162596754Y-132122150D01*
X162599825Y-132122365D01*
X162599827Y-132122365D01*
X162984053Y-132149233D01*
X162984061Y-132149233D01*
X162987119Y-132149447D01*
X163240704Y-132142363D01*
X163375211Y-132138606D01*
X163375214Y-132138606D01*
X163378285Y-132138520D01*
X163381338Y-132138134D01*
X163381342Y-132138134D01*
X163567145Y-132114662D01*
X163766517Y-132089475D01*
X163769521Y-132088793D01*
X163769524Y-132088792D01*
X164145115Y-132003460D01*
X164145121Y-132003458D01*
X164148111Y-132002779D01*
X164293875Y-131954290D01*
X164516500Y-131880233D01*
X164516506Y-131880231D01*
X164519424Y-131879260D01*
X164660551Y-131816426D01*
X164874111Y-131721343D01*
X164874117Y-131721340D01*
X164876911Y-131720096D01*
X164879580Y-131718580D01*
X165214492Y-131528324D01*
X165214498Y-131528320D01*
X165217160Y-131526808D01*
X165468874Y-131349243D01*
X165534401Y-131303019D01*
X165534404Y-131303017D01*
X165536924Y-131301239D01*
X165833150Y-131045544D01*
X165835271Y-131043317D01*
X165835277Y-131043311D01*
X166100894Y-130764385D01*
X166103011Y-130762162D01*
X166173522Y-130671913D01*
X166342021Y-130456244D01*
X166342023Y-130456241D01*
X166343931Y-130453799D01*
X166345587Y-130451189D01*
X166345593Y-130451181D01*
X166551957Y-130126003D01*
X166551959Y-130126000D01*
X166553610Y-130123398D01*
X166730046Y-129774112D01*
X166871557Y-129409277D01*
X166976790Y-129032374D01*
X167044742Y-128647000D01*
X167057580Y-128480157D01*
X167074613Y-128258789D01*
X167074613Y-128258778D01*
X167074763Y-128256835D01*
X167076325Y-128145000D01*
X167057209Y-127754149D01*
X167000044Y-127367028D01*
X166905376Y-126987334D01*
X166774107Y-126618689D01*
X166607492Y-126264614D01*
X166578167Y-126215420D01*
X166415901Y-125943218D01*
X166407120Y-125928487D01*
X166174905Y-125613517D01*
X165913061Y-125322711D01*
X165624090Y-125058844D01*
X165310749Y-124824435D01*
X165142611Y-124722607D01*
X164978658Y-124623313D01*
X164978649Y-124623308D01*
X164976030Y-124621722D01*
X164623126Y-124452638D01*
X164620237Y-124451586D01*
X164620231Y-124451584D01*
X164258306Y-124319855D01*
X164258303Y-124319854D01*
X164255407Y-124318800D01*
X163978326Y-124247658D01*
X163879366Y-124222249D01*
X163879363Y-124222248D01*
X163876382Y-124221483D01*
X163489670Y-124161617D01*
X163486613Y-124161446D01*
X163486612Y-124161446D01*
X163456120Y-124159741D01*
X163098962Y-124139773D01*
X163095883Y-124139902D01*
X163095880Y-124139902D01*
X162839770Y-124150636D01*
X162707987Y-124156159D01*
X162704943Y-124156587D01*
X162704941Y-124156587D01*
X162670368Y-124161446D01*
X162320477Y-124210620D01*
X161940131Y-124302636D01*
X161570579Y-124431327D01*
X161567781Y-124432620D01*
X161218146Y-124594174D01*
X161218136Y-124594179D01*
X161215349Y-124595467D01*
X161106829Y-124659135D01*
X160880486Y-124791929D01*
X160880481Y-124791932D01*
X160877831Y-124793487D01*
X160837433Y-124822838D01*
X160563730Y-125021694D01*
X160563721Y-125021701D01*
X160561248Y-125023498D01*
X160558958Y-125025531D01*
X160558952Y-125025536D01*
X160270924Y-125281260D01*
X160268621Y-125283305D01*
X160002743Y-125570427D01*
X160000888Y-125572871D01*
X159834470Y-125792119D01*
X159766152Y-125882124D01*
X159730634Y-125939858D01*
X159580904Y-126183241D01*
X159561107Y-126215420D01*
X159389564Y-126567135D01*
X159253162Y-126933910D01*
X159153201Y-127312246D01*
X159144328Y-127367028D01*
X159097119Y-127658511D01*
X159090637Y-127698531D01*
X159090443Y-127701611D01*
X159090443Y-127701613D01*
X159068717Y-128046934D01*
X159066065Y-128089077D01*
X157803453Y-128089077D01*
X157812760Y-128056076D01*
X157812761Y-128056073D01*
X157814030Y-128051572D01*
X157830832Y-127919496D01*
X157846616Y-127795421D01*
X157846616Y-127795417D01*
X157847014Y-127792291D01*
X157847933Y-127757222D01*
X157849348Y-127703160D01*
X157849431Y-127700000D01*
X157830061Y-127439348D01*
X157818725Y-127389248D01*
X157773408Y-127188980D01*
X157772377Y-127184423D01*
X157753603Y-127136146D01*
X157679340Y-126945176D01*
X157679339Y-126945173D01*
X157677647Y-126940823D01*
X157547951Y-126713902D01*
X157386138Y-126508643D01*
X157195763Y-126329557D01*
X156981009Y-126180576D01*
X156976816Y-126178508D01*
X156750781Y-126067040D01*
X156750778Y-126067039D01*
X156746593Y-126064975D01*
X156700449Y-126050204D01*
X156502123Y-125986720D01*
X156497665Y-125985293D01*
X156239693Y-125943279D01*
X156125942Y-125941790D01*
X155983022Y-125939919D01*
X155983019Y-125939919D01*
X155978345Y-125939858D01*
X155719362Y-125975104D01*
X155468433Y-126048243D01*
X155464180Y-126050203D01*
X155464179Y-126050204D01*
X155427659Y-126067040D01*
X155231072Y-126157668D01*
X155192067Y-126183241D01*
X155016404Y-126298410D01*
X155016399Y-126298414D01*
X155012491Y-126300976D01*
X154817494Y-126475018D01*
X154650363Y-126675970D01*
X154514771Y-126899419D01*
X154413697Y-127140455D01*
X154349359Y-127393783D01*
X154323173Y-127653839D01*
X154036001Y-127653839D01*
X154020061Y-127439348D01*
X154008725Y-127389248D01*
X153963408Y-127188980D01*
X153962377Y-127184423D01*
X153943603Y-127136146D01*
X153869340Y-126945176D01*
X153869339Y-126945173D01*
X153867647Y-126940823D01*
X153737951Y-126713902D01*
X153576138Y-126508643D01*
X153385763Y-126329557D01*
X153171009Y-126180576D01*
X153166816Y-126178508D01*
X152940781Y-126067040D01*
X152940778Y-126067039D01*
X152936593Y-126064975D01*
X152890449Y-126050204D01*
X152692123Y-125986720D01*
X152687665Y-125985293D01*
X152429693Y-125943279D01*
X152315942Y-125941790D01*
X152173022Y-125939919D01*
X152173019Y-125939919D01*
X152168345Y-125939858D01*
X151909362Y-125975104D01*
X151658433Y-126048243D01*
X151654180Y-126050203D01*
X151654179Y-126050204D01*
X151617659Y-126067040D01*
X151421072Y-126157668D01*
X151382067Y-126183241D01*
X151206404Y-126298410D01*
X151206399Y-126298414D01*
X151202491Y-126300976D01*
X151007494Y-126475018D01*
X150840363Y-126675970D01*
X150704771Y-126899419D01*
X150603697Y-127140455D01*
X150539359Y-127393783D01*
X150513173Y-127653839D01*
X150226001Y-127653839D01*
X150210061Y-127439348D01*
X150198725Y-127389248D01*
X150153408Y-127188980D01*
X150152377Y-127184423D01*
X150133603Y-127136146D01*
X150059340Y-126945176D01*
X150059339Y-126945173D01*
X150057647Y-126940823D01*
X149927951Y-126713902D01*
X149766138Y-126508643D01*
X149575763Y-126329557D01*
X149361009Y-126180576D01*
X149356816Y-126178508D01*
X149130781Y-126067040D01*
X149130778Y-126067039D01*
X149126593Y-126064975D01*
X149080449Y-126050204D01*
X148882123Y-125986720D01*
X148877665Y-125985293D01*
X148619693Y-125943279D01*
X148505942Y-125941790D01*
X148363022Y-125939919D01*
X148363019Y-125939919D01*
X148358345Y-125939858D01*
X148099362Y-125975104D01*
X147848433Y-126048243D01*
X147844180Y-126050203D01*
X147844179Y-126050204D01*
X147807659Y-126067040D01*
X147611072Y-126157668D01*
X147572067Y-126183241D01*
X147396404Y-126298410D01*
X147396399Y-126298414D01*
X147392491Y-126300976D01*
X147197494Y-126475018D01*
X147030363Y-126675970D01*
X146894771Y-126899419D01*
X146793697Y-127140455D01*
X146729359Y-127393783D01*
X146703173Y-127653839D01*
X146416000Y-127653839D01*
X146400060Y-127439348D01*
X146388724Y-127389248D01*
X146343407Y-127188980D01*
X146342376Y-127184423D01*
X146323602Y-127136146D01*
X146249339Y-126945176D01*
X146249338Y-126945173D01*
X146247646Y-126940823D01*
X146117950Y-126713902D01*
X145956137Y-126508643D01*
X145952734Y-126505441D01*
X145949573Y-126501992D01*
X145951200Y-126500501D01*
X145919858Y-126447061D01*
X145916100Y-126416363D01*
X145916817Y-125841006D01*
X145936904Y-125772910D01*
X145990618Y-125726484D01*
X146060904Y-125716468D01*
X146096065Y-125726967D01*
X146106774Y-125731961D01*
X146106780Y-125731963D01*
X146111757Y-125734284D01*
X146117065Y-125735706D01*
X146117067Y-125735707D01*
X146327598Y-125792119D01*
X146327600Y-125792119D01*
X146332913Y-125793543D01*
X146432480Y-125802254D01*
X146501149Y-125808262D01*
X146501156Y-125808262D01*
X146503873Y-125808500D01*
X146618127Y-125808500D01*
X146620844Y-125808262D01*
X146620851Y-125808262D01*
X146689520Y-125802254D01*
X146789087Y-125793543D01*
X146794400Y-125792119D01*
X146794402Y-125792119D01*
X147004933Y-125735707D01*
X147004935Y-125735706D01*
X147010243Y-125734284D01*
X147015225Y-125731961D01*
X147212762Y-125639849D01*
X147212767Y-125639846D01*
X147217749Y-125637523D01*
X147322611Y-125564098D01*
X147400789Y-125509357D01*
X147400792Y-125509355D01*
X147405300Y-125506198D01*
X147567198Y-125344300D01*
X147698523Y-125156749D01*
X147700846Y-125151767D01*
X147700849Y-125151762D01*
X147792961Y-124954225D01*
X147792961Y-124954224D01*
X147795284Y-124949243D01*
X147828727Y-124824435D01*
X147853119Y-124733402D01*
X147853119Y-124733400D01*
X147854543Y-124728087D01*
X147874498Y-124500000D01*
X152867502Y-124500000D01*
X152887457Y-124728087D01*
X152888881Y-124733400D01*
X152888881Y-124733402D01*
X152913274Y-124824435D01*
X152946716Y-124949243D01*
X152949039Y-124954224D01*
X152949039Y-124954225D01*
X153041151Y-125151762D01*
X153041154Y-125151767D01*
X153043477Y-125156749D01*
X153174802Y-125344300D01*
X153336700Y-125506198D01*
X153341208Y-125509355D01*
X153341211Y-125509357D01*
X153419389Y-125564098D01*
X153524251Y-125637523D01*
X153529233Y-125639846D01*
X153529238Y-125639849D01*
X153726775Y-125731961D01*
X153731757Y-125734284D01*
X153737065Y-125735706D01*
X153737067Y-125735707D01*
X153947598Y-125792119D01*
X153947600Y-125792119D01*
X153952913Y-125793543D01*
X154052480Y-125802254D01*
X154121149Y-125808262D01*
X154121156Y-125808262D01*
X154123873Y-125808500D01*
X154238127Y-125808500D01*
X154240844Y-125808262D01*
X154240851Y-125808262D01*
X154309520Y-125802254D01*
X154409087Y-125793543D01*
X154414400Y-125792119D01*
X154414402Y-125792119D01*
X154624933Y-125735707D01*
X154624935Y-125735706D01*
X154630243Y-125734284D01*
X154635225Y-125731961D01*
X154832762Y-125639849D01*
X154832767Y-125639846D01*
X154837749Y-125637523D01*
X154942611Y-125564098D01*
X155020789Y-125509357D01*
X155020792Y-125509355D01*
X155025300Y-125506198D01*
X155187198Y-125344300D01*
X155318523Y-125156749D01*
X155320846Y-125151767D01*
X155320849Y-125151762D01*
X155412961Y-124954225D01*
X155412961Y-124954224D01*
X155415284Y-124949243D01*
X155448727Y-124824435D01*
X155473119Y-124733402D01*
X155473119Y-124733400D01*
X155474543Y-124728087D01*
X155494498Y-124500000D01*
X155474543Y-124271913D01*
X155473119Y-124266598D01*
X155416707Y-124056067D01*
X155416706Y-124056065D01*
X155415284Y-124050757D01*
X155412961Y-124045775D01*
X155320849Y-123848238D01*
X155320846Y-123848233D01*
X155318523Y-123843251D01*
X155187198Y-123655700D01*
X155025300Y-123493802D01*
X155020792Y-123490645D01*
X155020789Y-123490643D01*
X154942611Y-123435902D01*
X154837749Y-123362477D01*
X154832767Y-123360154D01*
X154832762Y-123360151D01*
X154635225Y-123268039D01*
X154635224Y-123268039D01*
X154630243Y-123265716D01*
X154624935Y-123264294D01*
X154624933Y-123264293D01*
X154414402Y-123207881D01*
X154414400Y-123207881D01*
X154409087Y-123206457D01*
X154309520Y-123197746D01*
X154240851Y-123191738D01*
X154240844Y-123191738D01*
X154238127Y-123191500D01*
X154123873Y-123191500D01*
X154121156Y-123191738D01*
X154121149Y-123191738D01*
X154052480Y-123197746D01*
X153952913Y-123206457D01*
X153947600Y-123207881D01*
X153947598Y-123207881D01*
X153737067Y-123264293D01*
X153737065Y-123264294D01*
X153731757Y-123265716D01*
X153726776Y-123268039D01*
X153726775Y-123268039D01*
X153529238Y-123360151D01*
X153529233Y-123360154D01*
X153524251Y-123362477D01*
X153419389Y-123435902D01*
X153341211Y-123490643D01*
X153341208Y-123490645D01*
X153336700Y-123493802D01*
X153174802Y-123655700D01*
X153043477Y-123843251D01*
X153041154Y-123848233D01*
X153041151Y-123848238D01*
X152949039Y-124045775D01*
X152946716Y-124050757D01*
X152945294Y-124056065D01*
X152945293Y-124056067D01*
X152888881Y-124266598D01*
X152887457Y-124271913D01*
X152867502Y-124500000D01*
X147874498Y-124500000D01*
X147854543Y-124271913D01*
X147853119Y-124266598D01*
X147796707Y-124056067D01*
X147796706Y-124056065D01*
X147795284Y-124050757D01*
X147792961Y-124045775D01*
X147700849Y-123848238D01*
X147700846Y-123848233D01*
X147698523Y-123843251D01*
X147567198Y-123655700D01*
X147405300Y-123493802D01*
X147400792Y-123490645D01*
X147400789Y-123490643D01*
X147322611Y-123435902D01*
X147217749Y-123362477D01*
X147212767Y-123360154D01*
X147212762Y-123360151D01*
X147015225Y-123268039D01*
X147015224Y-123268039D01*
X147010243Y-123265716D01*
X147004935Y-123264294D01*
X147004933Y-123264293D01*
X146794402Y-123207881D01*
X146794400Y-123207881D01*
X146789087Y-123206457D01*
X146689520Y-123197746D01*
X146620851Y-123191738D01*
X146620844Y-123191738D01*
X146618127Y-123191500D01*
X146503873Y-123191500D01*
X146501156Y-123191738D01*
X146501149Y-123191738D01*
X146432480Y-123197746D01*
X146332913Y-123206457D01*
X146327600Y-123207881D01*
X146327598Y-123207881D01*
X146222335Y-123236087D01*
X146111757Y-123265716D01*
X146099415Y-123271471D01*
X146029225Y-123282134D01*
X145964411Y-123253156D01*
X145925553Y-123193738D01*
X145920163Y-123157121D01*
X145924985Y-119288839D01*
X152837173Y-119288839D01*
X152849713Y-119549908D01*
X152900704Y-119806256D01*
X152989026Y-120052252D01*
X152991242Y-120056376D01*
X153055753Y-120176437D01*
X153112737Y-120282491D01*
X153115532Y-120286234D01*
X153115534Y-120286237D01*
X153266330Y-120488177D01*
X153266335Y-120488183D01*
X153269122Y-120491915D01*
X153272431Y-120495195D01*
X153272436Y-120495201D01*
X153451426Y-120672635D01*
X153454743Y-120675923D01*
X153458505Y-120678681D01*
X153458508Y-120678684D01*
X153661750Y-120827707D01*
X153665524Y-120830474D01*
X153669667Y-120832654D01*
X153669669Y-120832655D01*
X153892684Y-120949989D01*
X153892689Y-120949991D01*
X153896834Y-120952172D01*
X154143590Y-121038344D01*
X154148183Y-121039216D01*
X154395785Y-121086224D01*
X154395788Y-121086224D01*
X154400374Y-121087095D01*
X154530958Y-121092226D01*
X154656875Y-121097174D01*
X154656881Y-121097174D01*
X154661543Y-121097357D01*
X154740977Y-121088657D01*
X154916707Y-121069412D01*
X154916712Y-121069411D01*
X154921360Y-121068902D01*
X155034116Y-121039216D01*
X155169594Y-121003548D01*
X155169596Y-121003547D01*
X155174117Y-121002357D01*
X155414262Y-120899182D01*
X155636519Y-120761646D01*
X155640082Y-120758629D01*
X155640087Y-120758626D01*
X155832439Y-120595787D01*
X155832440Y-120595786D01*
X155836005Y-120592768D01*
X155927729Y-120488177D01*
X156005257Y-120399774D01*
X156005261Y-120399769D01*
X156008339Y-120396259D01*
X156149733Y-120176437D01*
X156257083Y-119938129D01*
X156328030Y-119686572D01*
X156344832Y-119554496D01*
X156360616Y-119430421D01*
X156360616Y-119430417D01*
X156361014Y-119427291D01*
X156363431Y-119335000D01*
X156344061Y-119074348D01*
X156332725Y-119024248D01*
X156287408Y-118823980D01*
X156286377Y-118819423D01*
X156254908Y-118738500D01*
X156193340Y-118580176D01*
X156193339Y-118580173D01*
X156191647Y-118575823D01*
X156061951Y-118348902D01*
X155900138Y-118143643D01*
X155709763Y-117964557D01*
X155495009Y-117815576D01*
X155490816Y-117813508D01*
X155264781Y-117702040D01*
X155264778Y-117702039D01*
X155260593Y-117699975D01*
X155214449Y-117685204D01*
X155016123Y-117621720D01*
X155011665Y-117620293D01*
X154753693Y-117578279D01*
X154639942Y-117576790D01*
X154497022Y-117574919D01*
X154497019Y-117574919D01*
X154492345Y-117574858D01*
X154233362Y-117610104D01*
X153982433Y-117683243D01*
X153978180Y-117685203D01*
X153978179Y-117685204D01*
X153941659Y-117702040D01*
X153745072Y-117792668D01*
X153706067Y-117818241D01*
X153530404Y-117933410D01*
X153530399Y-117933414D01*
X153526491Y-117935976D01*
X153331494Y-118110018D01*
X153164363Y-118310970D01*
X153161934Y-118314973D01*
X153090738Y-118432301D01*
X153028771Y-118534419D01*
X152927697Y-118775455D01*
X152863359Y-119028783D01*
X152837173Y-119288839D01*
X145924985Y-119288839D01*
X145927302Y-117430000D01*
X156486502Y-117430000D01*
X156506457Y-117658087D01*
X156507881Y-117663400D01*
X156507881Y-117663402D01*
X156517300Y-117698552D01*
X156565716Y-117879243D01*
X156568039Y-117884224D01*
X156568039Y-117884225D01*
X156660151Y-118081762D01*
X156660154Y-118081767D01*
X156662477Y-118086749D01*
X156793802Y-118274300D01*
X156955700Y-118436198D01*
X156960208Y-118439355D01*
X156960211Y-118439357D01*
X157038389Y-118494098D01*
X157143251Y-118567523D01*
X157148233Y-118569846D01*
X157148238Y-118569849D01*
X157345775Y-118661961D01*
X157350757Y-118664284D01*
X157356065Y-118665706D01*
X157356067Y-118665707D01*
X157566598Y-118722119D01*
X157566600Y-118722119D01*
X157571913Y-118723543D01*
X157671480Y-118732254D01*
X157740149Y-118738262D01*
X157740156Y-118738262D01*
X157742873Y-118738500D01*
X157857127Y-118738500D01*
X157859844Y-118738262D01*
X157859851Y-118738262D01*
X157928520Y-118732254D01*
X158028087Y-118723543D01*
X158033400Y-118722119D01*
X158033402Y-118722119D01*
X158243933Y-118665707D01*
X158243935Y-118665706D01*
X158249243Y-118664284D01*
X158254225Y-118661961D01*
X158451762Y-118569849D01*
X158451767Y-118569846D01*
X158456749Y-118567523D01*
X158561611Y-118494098D01*
X158639789Y-118439357D01*
X158639792Y-118439355D01*
X158644300Y-118436198D01*
X158806198Y-118274300D01*
X158937523Y-118086749D01*
X158939846Y-118081767D01*
X158939849Y-118081762D01*
X159031961Y-117884225D01*
X159031961Y-117884224D01*
X159034284Y-117879243D01*
X159082701Y-117698552D01*
X159092119Y-117663402D01*
X159092119Y-117663400D01*
X159093543Y-117658087D01*
X159113498Y-117430000D01*
X159093543Y-117201913D01*
X159091302Y-117193548D01*
X159035707Y-116986067D01*
X159035706Y-116986065D01*
X159034284Y-116980757D01*
X159021856Y-116954104D01*
X158939849Y-116778238D01*
X158939846Y-116778233D01*
X158937523Y-116773251D01*
X158806198Y-116585700D01*
X158644300Y-116423802D01*
X158639792Y-116420645D01*
X158639789Y-116420643D01*
X158556289Y-116362176D01*
X158456749Y-116292477D01*
X158451767Y-116290154D01*
X158451762Y-116290151D01*
X158254225Y-116198039D01*
X158254224Y-116198039D01*
X158249243Y-116195716D01*
X158243935Y-116194294D01*
X158243933Y-116194293D01*
X158033402Y-116137881D01*
X158033400Y-116137881D01*
X158028087Y-116136457D01*
X157928520Y-116127746D01*
X157859851Y-116121738D01*
X157859844Y-116121738D01*
X157857127Y-116121500D01*
X157742873Y-116121500D01*
X157740156Y-116121738D01*
X157740149Y-116121738D01*
X157671480Y-116127746D01*
X157571913Y-116136457D01*
X157566600Y-116137881D01*
X157566598Y-116137881D01*
X157356067Y-116194293D01*
X157356065Y-116194294D01*
X157350757Y-116195716D01*
X157345776Y-116198039D01*
X157345775Y-116198039D01*
X157148238Y-116290151D01*
X157148233Y-116290154D01*
X157143251Y-116292477D01*
X157043711Y-116362176D01*
X156960211Y-116420643D01*
X156960208Y-116420645D01*
X156955700Y-116423802D01*
X156793802Y-116585700D01*
X156662477Y-116773251D01*
X156660154Y-116778233D01*
X156660151Y-116778238D01*
X156578144Y-116954104D01*
X156565716Y-116980757D01*
X156564294Y-116986065D01*
X156564293Y-116986067D01*
X156508698Y-117193548D01*
X156506457Y-117201913D01*
X156486502Y-117430000D01*
X145927302Y-117430000D01*
X145929734Y-115478839D01*
X152837173Y-115478839D01*
X152849713Y-115739908D01*
X152900704Y-115996256D01*
X152989026Y-116242252D01*
X152991242Y-116246376D01*
X153088670Y-116427699D01*
X153112737Y-116472491D01*
X153115532Y-116476234D01*
X153115534Y-116476237D01*
X153266330Y-116678177D01*
X153266335Y-116678183D01*
X153269122Y-116681915D01*
X153272431Y-116685195D01*
X153272436Y-116685201D01*
X153451426Y-116862635D01*
X153454743Y-116865923D01*
X153458505Y-116868681D01*
X153458508Y-116868684D01*
X153661750Y-117017707D01*
X153665524Y-117020474D01*
X153669667Y-117022654D01*
X153669669Y-117022655D01*
X153892684Y-117139989D01*
X153892689Y-117139991D01*
X153896834Y-117142172D01*
X154143590Y-117228344D01*
X154148183Y-117229216D01*
X154395785Y-117276224D01*
X154395788Y-117276224D01*
X154400374Y-117277095D01*
X154530958Y-117282226D01*
X154656875Y-117287174D01*
X154656881Y-117287174D01*
X154661543Y-117287357D01*
X154740977Y-117278657D01*
X154916707Y-117259412D01*
X154916712Y-117259411D01*
X154921360Y-117258902D01*
X155034116Y-117229216D01*
X155169594Y-117193548D01*
X155169596Y-117193547D01*
X155174117Y-117192357D01*
X155414262Y-117089182D01*
X155636519Y-116951646D01*
X155640082Y-116948629D01*
X155640087Y-116948626D01*
X155832439Y-116785787D01*
X155832440Y-116785786D01*
X155836005Y-116782768D01*
X155927729Y-116678177D01*
X156005257Y-116589774D01*
X156005261Y-116589769D01*
X156008339Y-116586259D01*
X156149733Y-116366437D01*
X156257083Y-116128129D01*
X156328030Y-115876572D01*
X156344832Y-115744496D01*
X156360616Y-115620421D01*
X156360616Y-115620417D01*
X156361014Y-115617291D01*
X156363431Y-115525000D01*
X156344061Y-115264348D01*
X156332725Y-115214248D01*
X156287408Y-115013980D01*
X156286377Y-115009423D01*
X156254908Y-114928500D01*
X156193340Y-114770176D01*
X156193339Y-114770173D01*
X156191647Y-114765823D01*
X156061951Y-114538902D01*
X155900138Y-114333643D01*
X155709763Y-114154557D01*
X155495009Y-114005576D01*
X155490816Y-114003508D01*
X155264781Y-113892040D01*
X155264778Y-113892039D01*
X155260593Y-113889975D01*
X155214449Y-113875204D01*
X155016123Y-113811720D01*
X155011665Y-113810293D01*
X154753693Y-113768279D01*
X154639942Y-113766790D01*
X154497022Y-113764919D01*
X154497019Y-113764919D01*
X154492345Y-113764858D01*
X154233362Y-113800104D01*
X153982433Y-113873243D01*
X153978180Y-113875203D01*
X153978179Y-113875204D01*
X153941659Y-113892040D01*
X153745072Y-113982668D01*
X153706067Y-114008241D01*
X153530404Y-114123410D01*
X153530399Y-114123414D01*
X153526491Y-114125976D01*
X153331494Y-114300018D01*
X153164363Y-114500970D01*
X153161934Y-114504973D01*
X153090738Y-114622301D01*
X153028771Y-114724419D01*
X152927697Y-114965455D01*
X152863359Y-115218783D01*
X152837173Y-115478839D01*
X145929734Y-115478839D01*
X145932051Y-113620000D01*
X150086502Y-113620000D01*
X150106457Y-113848087D01*
X150107881Y-113853400D01*
X150107881Y-113853402D01*
X150117300Y-113888552D01*
X150165716Y-114069243D01*
X150168039Y-114074224D01*
X150168039Y-114074225D01*
X150260151Y-114271762D01*
X150260154Y-114271767D01*
X150262477Y-114276749D01*
X150393802Y-114464300D01*
X150555700Y-114626198D01*
X150560208Y-114629355D01*
X150560211Y-114629357D01*
X150638389Y-114684098D01*
X150743251Y-114757523D01*
X150748233Y-114759846D01*
X150748238Y-114759849D01*
X150945775Y-114851961D01*
X150950757Y-114854284D01*
X150956065Y-114855706D01*
X150956067Y-114855707D01*
X151166598Y-114912119D01*
X151166600Y-114912119D01*
X151171913Y-114913543D01*
X151271480Y-114922254D01*
X151340149Y-114928262D01*
X151340156Y-114928262D01*
X151342873Y-114928500D01*
X151457127Y-114928500D01*
X151459844Y-114928262D01*
X151459851Y-114928262D01*
X151528520Y-114922254D01*
X151628087Y-114913543D01*
X151633400Y-114912119D01*
X151633402Y-114912119D01*
X151843933Y-114855707D01*
X151843935Y-114855706D01*
X151849243Y-114854284D01*
X151854225Y-114851961D01*
X152051762Y-114759849D01*
X152051767Y-114759846D01*
X152056749Y-114757523D01*
X152161611Y-114684098D01*
X152239789Y-114629357D01*
X152239792Y-114629355D01*
X152244300Y-114626198D01*
X152406198Y-114464300D01*
X152537523Y-114276749D01*
X152539846Y-114271767D01*
X152539849Y-114271762D01*
X152631961Y-114074225D01*
X152631961Y-114074224D01*
X152634284Y-114069243D01*
X152682701Y-113888552D01*
X152692119Y-113853402D01*
X152692119Y-113853400D01*
X152693543Y-113848087D01*
X152713498Y-113620000D01*
X152693543Y-113391913D01*
X152691302Y-113383548D01*
X152635707Y-113176067D01*
X152635706Y-113176065D01*
X152634284Y-113170757D01*
X152621856Y-113144104D01*
X152539849Y-112968238D01*
X152539846Y-112968233D01*
X152537523Y-112963251D01*
X152406198Y-112775700D01*
X152244300Y-112613802D01*
X152239792Y-112610645D01*
X152239789Y-112610643D01*
X152156289Y-112552176D01*
X152056749Y-112482477D01*
X152051767Y-112480154D01*
X152051762Y-112480151D01*
X151854225Y-112388039D01*
X151854224Y-112388039D01*
X151849243Y-112385716D01*
X151843935Y-112384294D01*
X151843933Y-112384293D01*
X151633402Y-112327881D01*
X151633400Y-112327881D01*
X151628087Y-112326457D01*
X151528520Y-112317746D01*
X151459851Y-112311738D01*
X151459844Y-112311738D01*
X151457127Y-112311500D01*
X151342873Y-112311500D01*
X151340156Y-112311738D01*
X151340149Y-112311738D01*
X151271480Y-112317746D01*
X151171913Y-112326457D01*
X151166600Y-112327881D01*
X151166598Y-112327881D01*
X150956067Y-112384293D01*
X150956065Y-112384294D01*
X150950757Y-112385716D01*
X150945776Y-112388039D01*
X150945775Y-112388039D01*
X150748238Y-112480151D01*
X150748233Y-112480154D01*
X150743251Y-112482477D01*
X150643711Y-112552176D01*
X150560211Y-112610643D01*
X150560208Y-112610645D01*
X150555700Y-112613802D01*
X150393802Y-112775700D01*
X150262477Y-112963251D01*
X150260154Y-112968233D01*
X150260151Y-112968238D01*
X150178144Y-113144104D01*
X150165716Y-113170757D01*
X150164294Y-113176065D01*
X150164293Y-113176067D01*
X150108698Y-113383548D01*
X150106457Y-113391913D01*
X150086502Y-113620000D01*
X145932051Y-113620000D01*
X145934483Y-111668839D01*
X152837173Y-111668839D01*
X152849713Y-111929908D01*
X152900704Y-112186256D01*
X152989026Y-112432252D01*
X152991242Y-112436376D01*
X153088670Y-112617699D01*
X153112737Y-112662491D01*
X153115532Y-112666234D01*
X153115534Y-112666237D01*
X153266330Y-112868177D01*
X153266335Y-112868183D01*
X153269122Y-112871915D01*
X153272431Y-112875195D01*
X153272436Y-112875201D01*
X153451426Y-113052635D01*
X153454743Y-113055923D01*
X153458505Y-113058681D01*
X153458508Y-113058684D01*
X153661750Y-113207707D01*
X153665524Y-113210474D01*
X153669667Y-113212654D01*
X153669669Y-113212655D01*
X153892684Y-113329989D01*
X153892689Y-113329991D01*
X153896834Y-113332172D01*
X154143590Y-113418344D01*
X154148183Y-113419216D01*
X154395785Y-113466224D01*
X154395788Y-113466224D01*
X154400374Y-113467095D01*
X154530959Y-113472226D01*
X154656875Y-113477174D01*
X154656881Y-113477174D01*
X154661543Y-113477357D01*
X154740977Y-113468657D01*
X154916707Y-113449412D01*
X154916712Y-113449411D01*
X154921360Y-113448902D01*
X155034116Y-113419216D01*
X155169594Y-113383548D01*
X155169596Y-113383547D01*
X155174117Y-113382357D01*
X155414262Y-113279182D01*
X155636519Y-113141646D01*
X155640082Y-113138629D01*
X155640087Y-113138626D01*
X155832439Y-112975787D01*
X155832440Y-112975786D01*
X155836005Y-112972768D01*
X155927729Y-112868177D01*
X156005257Y-112779774D01*
X156005261Y-112779769D01*
X156008339Y-112776259D01*
X156149733Y-112556437D01*
X156257083Y-112318129D01*
X156328030Y-112066572D01*
X156344832Y-111934496D01*
X156360616Y-111810421D01*
X156360616Y-111810417D01*
X156361014Y-111807291D01*
X156363431Y-111715000D01*
X156344061Y-111454348D01*
X156332725Y-111404248D01*
X156287408Y-111203980D01*
X156286377Y-111199423D01*
X156254908Y-111118500D01*
X156193340Y-110960176D01*
X156193339Y-110960173D01*
X156191647Y-110955823D01*
X156061951Y-110728902D01*
X155900138Y-110523643D01*
X155709763Y-110344557D01*
X155495009Y-110195576D01*
X155490816Y-110193508D01*
X155264781Y-110082040D01*
X155264778Y-110082039D01*
X155260593Y-110079975D01*
X155214449Y-110065204D01*
X155016123Y-110001720D01*
X155011665Y-110000293D01*
X154753693Y-109958279D01*
X154639942Y-109956790D01*
X154497022Y-109954919D01*
X154497019Y-109954919D01*
X154492345Y-109954858D01*
X154233362Y-109990104D01*
X153982433Y-110063243D01*
X153978180Y-110065203D01*
X153978179Y-110065204D01*
X153941659Y-110082040D01*
X153745072Y-110172668D01*
X153706067Y-110198241D01*
X153530404Y-110313410D01*
X153530399Y-110313414D01*
X153526491Y-110315976D01*
X153331494Y-110490018D01*
X153164363Y-110690970D01*
X153161934Y-110694973D01*
X153090738Y-110812301D01*
X153028771Y-110914419D01*
X152927697Y-111155455D01*
X152863359Y-111408783D01*
X152837173Y-111668839D01*
X145934483Y-111668839D01*
X145936800Y-109810000D01*
X156486502Y-109810000D01*
X156506457Y-110038087D01*
X156507881Y-110043400D01*
X156507881Y-110043402D01*
X156517300Y-110078552D01*
X156565716Y-110259243D01*
X156568039Y-110264224D01*
X156568039Y-110264225D01*
X156660151Y-110461762D01*
X156660154Y-110461767D01*
X156662477Y-110466749D01*
X156793802Y-110654300D01*
X156955700Y-110816198D01*
X156960208Y-110819355D01*
X156960211Y-110819357D01*
X157038389Y-110874098D01*
X157143251Y-110947523D01*
X157148233Y-110949846D01*
X157148238Y-110949849D01*
X157345775Y-111041961D01*
X157350757Y-111044284D01*
X157356065Y-111045706D01*
X157356067Y-111045707D01*
X157566598Y-111102119D01*
X157566600Y-111102119D01*
X157571913Y-111103543D01*
X157671480Y-111112254D01*
X157740149Y-111118262D01*
X157740156Y-111118262D01*
X157742873Y-111118500D01*
X157857127Y-111118500D01*
X157859844Y-111118262D01*
X157859851Y-111118262D01*
X157928520Y-111112254D01*
X158028087Y-111103543D01*
X158033400Y-111102119D01*
X158033402Y-111102119D01*
X158243933Y-111045707D01*
X158243935Y-111045706D01*
X158249243Y-111044284D01*
X158254225Y-111041961D01*
X158451762Y-110949849D01*
X158451767Y-110949846D01*
X158456749Y-110947523D01*
X158561611Y-110874098D01*
X158639789Y-110819357D01*
X158639792Y-110819355D01*
X158644300Y-110816198D01*
X158806198Y-110654300D01*
X158937523Y-110466749D01*
X158939846Y-110461767D01*
X158939849Y-110461762D01*
X159031961Y-110264225D01*
X159031961Y-110264224D01*
X159034284Y-110259243D01*
X159082701Y-110078552D01*
X159092119Y-110043402D01*
X159092119Y-110043400D01*
X159093543Y-110038087D01*
X159113498Y-109810000D01*
X159093543Y-109581913D01*
X159063830Y-109471024D01*
X159035707Y-109366067D01*
X159035706Y-109366065D01*
X159034284Y-109360757D01*
X159019301Y-109328625D01*
X158939849Y-109158238D01*
X158939846Y-109158233D01*
X158937523Y-109153251D01*
X158806198Y-108965700D01*
X158644300Y-108803802D01*
X158639792Y-108800645D01*
X158639789Y-108800643D01*
X158556288Y-108742175D01*
X158456749Y-108672477D01*
X158451767Y-108670154D01*
X158451762Y-108670151D01*
X158254225Y-108578039D01*
X158254224Y-108578039D01*
X158249243Y-108575716D01*
X158243935Y-108574294D01*
X158243933Y-108574293D01*
X158033402Y-108517881D01*
X158033400Y-108517881D01*
X158028087Y-108516457D01*
X157928520Y-108507746D01*
X157859851Y-108501738D01*
X157859844Y-108501738D01*
X157857127Y-108501500D01*
X157742873Y-108501500D01*
X157740156Y-108501738D01*
X157740149Y-108501738D01*
X157671480Y-108507746D01*
X157571913Y-108516457D01*
X157566600Y-108517881D01*
X157566598Y-108517881D01*
X157356067Y-108574293D01*
X157356065Y-108574294D01*
X157350757Y-108575716D01*
X157345776Y-108578039D01*
X157345775Y-108578039D01*
X157148238Y-108670151D01*
X157148233Y-108670154D01*
X157143251Y-108672477D01*
X157043712Y-108742175D01*
X156960211Y-108800643D01*
X156960208Y-108800645D01*
X156955700Y-108803802D01*
X156793802Y-108965700D01*
X156662477Y-109153251D01*
X156660154Y-109158233D01*
X156660151Y-109158238D01*
X156580699Y-109328625D01*
X156565716Y-109360757D01*
X156564294Y-109366065D01*
X156564293Y-109366067D01*
X156536170Y-109471024D01*
X156506457Y-109581913D01*
X156486502Y-109810000D01*
X145936800Y-109810000D01*
X145939232Y-107858838D01*
X152837173Y-107858838D01*
X152849713Y-108119907D01*
X152900704Y-108376255D01*
X152989026Y-108622251D01*
X152991242Y-108626375D01*
X153055753Y-108746436D01*
X153112737Y-108852490D01*
X153115532Y-108856233D01*
X153115534Y-108856236D01*
X153266330Y-109058176D01*
X153266335Y-109058182D01*
X153269122Y-109061914D01*
X153272431Y-109065194D01*
X153272436Y-109065200D01*
X153451426Y-109242634D01*
X153454743Y-109245922D01*
X153458505Y-109248680D01*
X153458508Y-109248683D01*
X153611358Y-109360757D01*
X153665524Y-109400473D01*
X153669667Y-109402653D01*
X153669669Y-109402654D01*
X153892684Y-109519988D01*
X153892689Y-109519990D01*
X153896834Y-109522171D01*
X154143590Y-109608343D01*
X154148183Y-109609215D01*
X154395785Y-109656223D01*
X154395788Y-109656223D01*
X154400374Y-109657094D01*
X154530958Y-109662225D01*
X154656875Y-109667173D01*
X154656881Y-109667173D01*
X154661543Y-109667356D01*
X154740977Y-109658656D01*
X154916707Y-109639411D01*
X154916712Y-109639410D01*
X154921360Y-109638901D01*
X155034116Y-109609215D01*
X155169594Y-109573547D01*
X155169596Y-109573546D01*
X155174117Y-109572356D01*
X155414262Y-109469181D01*
X155636519Y-109331645D01*
X155640082Y-109328628D01*
X155640087Y-109328625D01*
X155832439Y-109165786D01*
X155832440Y-109165785D01*
X155836005Y-109162767D01*
X155927729Y-109058176D01*
X156005257Y-108969773D01*
X156005261Y-108969768D01*
X156008339Y-108966258D01*
X156149733Y-108746436D01*
X156257083Y-108508128D01*
X156328030Y-108256571D01*
X156344832Y-108124495D01*
X156360616Y-108000420D01*
X156360616Y-108000416D01*
X156361014Y-107997290D01*
X156363431Y-107904999D01*
X156344061Y-107644347D01*
X156332725Y-107594247D01*
X156287408Y-107393979D01*
X156286377Y-107389422D01*
X156191647Y-107145822D01*
X156061951Y-106918901D01*
X155900138Y-106713642D01*
X155709763Y-106534556D01*
X155495009Y-106385575D01*
X155490816Y-106383507D01*
X155264781Y-106272039D01*
X155264778Y-106272038D01*
X155260593Y-106269974D01*
X155214449Y-106255203D01*
X155016123Y-106191719D01*
X155011665Y-106190292D01*
X154753693Y-106148278D01*
X154639942Y-106146789D01*
X154497022Y-106144918D01*
X154497019Y-106144918D01*
X154492345Y-106144857D01*
X154233362Y-106180103D01*
X153982433Y-106253242D01*
X153978180Y-106255202D01*
X153978179Y-106255203D01*
X153941659Y-106272039D01*
X153745072Y-106362667D01*
X153706067Y-106388240D01*
X153530404Y-106503409D01*
X153530399Y-106503413D01*
X153526491Y-106505975D01*
X153331494Y-106680017D01*
X153164363Y-106880969D01*
X153028771Y-107104418D01*
X152927697Y-107345454D01*
X152863359Y-107598782D01*
X152837173Y-107858838D01*
X145939232Y-107858838D01*
X145943981Y-104048840D01*
X152837173Y-104048840D01*
X152849713Y-104309909D01*
X152900704Y-104566257D01*
X152989026Y-104812253D01*
X152991242Y-104816377D01*
X153055753Y-104936438D01*
X153112737Y-105042492D01*
X153115532Y-105046235D01*
X153115534Y-105046238D01*
X153266330Y-105248178D01*
X153266335Y-105248184D01*
X153269122Y-105251916D01*
X153272431Y-105255196D01*
X153272436Y-105255202D01*
X153451426Y-105432636D01*
X153454743Y-105435924D01*
X153458505Y-105438682D01*
X153458508Y-105438685D01*
X153661750Y-105587708D01*
X153665524Y-105590475D01*
X153669667Y-105592655D01*
X153669669Y-105592656D01*
X153892684Y-105709990D01*
X153892689Y-105709992D01*
X153896834Y-105712173D01*
X154143590Y-105798345D01*
X154148183Y-105799217D01*
X154395785Y-105846225D01*
X154395788Y-105846225D01*
X154400374Y-105847096D01*
X154530959Y-105852227D01*
X154656875Y-105857175D01*
X154656881Y-105857175D01*
X154661543Y-105857358D01*
X154740977Y-105848658D01*
X154916707Y-105829413D01*
X154916712Y-105829412D01*
X154921360Y-105828903D01*
X155034116Y-105799217D01*
X155169594Y-105763549D01*
X155169596Y-105763548D01*
X155174117Y-105762358D01*
X155414262Y-105659183D01*
X155636519Y-105521647D01*
X155640082Y-105518630D01*
X155640087Y-105518627D01*
X155832439Y-105355788D01*
X155832440Y-105355787D01*
X155836005Y-105352769D01*
X155927729Y-105248178D01*
X156005257Y-105159775D01*
X156005261Y-105159770D01*
X156008339Y-105156260D01*
X156149733Y-104936438D01*
X156257083Y-104698130D01*
X156328030Y-104446573D01*
X156344832Y-104314497D01*
X156360616Y-104190422D01*
X156360616Y-104190418D01*
X156361014Y-104187292D01*
X156363431Y-104095001D01*
X156344061Y-103834349D01*
X156332725Y-103784249D01*
X156287408Y-103583981D01*
X156286377Y-103579424D01*
X156249091Y-103483543D01*
X156193340Y-103340177D01*
X156193339Y-103340174D01*
X156191647Y-103335824D01*
X156061951Y-103108903D01*
X155900138Y-102903644D01*
X155709763Y-102724558D01*
X155495009Y-102575577D01*
X155490816Y-102573509D01*
X155264781Y-102462041D01*
X155264778Y-102462040D01*
X155260593Y-102459976D01*
X155214449Y-102445205D01*
X155016123Y-102381721D01*
X155011665Y-102380294D01*
X154753693Y-102338280D01*
X154639942Y-102336791D01*
X154497022Y-102334920D01*
X154497019Y-102334920D01*
X154492345Y-102334859D01*
X154233362Y-102370105D01*
X153982433Y-102443244D01*
X153978180Y-102445204D01*
X153978179Y-102445205D01*
X153941659Y-102462041D01*
X153745072Y-102552669D01*
X153706067Y-102578242D01*
X153530404Y-102693411D01*
X153530399Y-102693415D01*
X153526491Y-102695977D01*
X153331494Y-102870019D01*
X153164363Y-103070971D01*
X153161934Y-103074974D01*
X153086457Y-103199357D01*
X153028771Y-103294420D01*
X152927697Y-103535456D01*
X152863359Y-103788784D01*
X152837173Y-104048840D01*
X145943981Y-104048840D01*
X145946298Y-102190000D01*
X156486502Y-102190000D01*
X156506457Y-102418087D01*
X156507881Y-102423400D01*
X156507881Y-102423402D01*
X156548657Y-102575577D01*
X156565716Y-102639243D01*
X156568039Y-102644224D01*
X156568039Y-102644225D01*
X156660151Y-102841762D01*
X156660154Y-102841767D01*
X156662477Y-102846749D01*
X156793802Y-103034300D01*
X156955700Y-103196198D01*
X156960208Y-103199355D01*
X156960211Y-103199357D01*
X157038389Y-103254098D01*
X157143251Y-103327523D01*
X157148233Y-103329846D01*
X157148238Y-103329849D01*
X157345775Y-103421961D01*
X157350757Y-103424284D01*
X157356065Y-103425706D01*
X157356067Y-103425707D01*
X157566598Y-103482119D01*
X157566600Y-103482119D01*
X157571913Y-103483543D01*
X157671480Y-103492254D01*
X157740149Y-103498262D01*
X157740156Y-103498262D01*
X157742873Y-103498500D01*
X157857127Y-103498500D01*
X157859844Y-103498262D01*
X157859851Y-103498262D01*
X157928520Y-103492254D01*
X158028087Y-103483543D01*
X158033400Y-103482119D01*
X158033402Y-103482119D01*
X158243933Y-103425707D01*
X158243935Y-103425706D01*
X158249243Y-103424284D01*
X158254225Y-103421961D01*
X158451762Y-103329849D01*
X158451767Y-103329846D01*
X158456749Y-103327523D01*
X158561611Y-103254098D01*
X158639789Y-103199357D01*
X158639792Y-103199355D01*
X158644300Y-103196198D01*
X158806198Y-103034300D01*
X158937523Y-102846749D01*
X158939846Y-102841767D01*
X158939849Y-102841762D01*
X159031961Y-102644225D01*
X159031961Y-102644224D01*
X159034284Y-102639243D01*
X159051344Y-102575577D01*
X159092119Y-102423402D01*
X159092119Y-102423400D01*
X159093543Y-102418087D01*
X159113498Y-102190000D01*
X159093543Y-101961913D01*
X159091302Y-101953548D01*
X159035707Y-101746067D01*
X159035706Y-101746065D01*
X159034284Y-101740757D01*
X159021856Y-101714104D01*
X158939849Y-101538238D01*
X158939846Y-101538233D01*
X158937523Y-101533251D01*
X158806198Y-101345700D01*
X158644300Y-101183802D01*
X158639792Y-101180645D01*
X158639789Y-101180643D01*
X158556289Y-101122176D01*
X158456749Y-101052477D01*
X158451767Y-101050154D01*
X158451762Y-101050151D01*
X158254225Y-100958039D01*
X158254224Y-100958039D01*
X158249243Y-100955716D01*
X158243935Y-100954294D01*
X158243933Y-100954293D01*
X158033402Y-100897881D01*
X158033400Y-100897881D01*
X158028087Y-100896457D01*
X157928520Y-100887746D01*
X157859851Y-100881738D01*
X157859844Y-100881738D01*
X157857127Y-100881500D01*
X157742873Y-100881500D01*
X157740156Y-100881738D01*
X157740149Y-100881738D01*
X157671480Y-100887746D01*
X157571913Y-100896457D01*
X157566600Y-100897881D01*
X157566598Y-100897881D01*
X157356067Y-100954293D01*
X157356065Y-100954294D01*
X157350757Y-100955716D01*
X157345776Y-100958039D01*
X157345775Y-100958039D01*
X157148238Y-101050151D01*
X157148233Y-101050154D01*
X157143251Y-101052477D01*
X157043711Y-101122176D01*
X156960211Y-101180643D01*
X156960208Y-101180645D01*
X156955700Y-101183802D01*
X156793802Y-101345700D01*
X156662477Y-101533251D01*
X156660154Y-101538233D01*
X156660151Y-101538238D01*
X156578144Y-101714104D01*
X156565716Y-101740757D01*
X156564294Y-101746065D01*
X156564293Y-101746067D01*
X156508698Y-101953548D01*
X156506457Y-101961913D01*
X156486502Y-102190000D01*
X145946298Y-102190000D01*
X145948730Y-100238839D01*
X152837173Y-100238839D01*
X152849713Y-100499908D01*
X152900704Y-100756256D01*
X152989026Y-101002252D01*
X152991242Y-101006376D01*
X153088670Y-101187699D01*
X153112737Y-101232491D01*
X153115532Y-101236234D01*
X153115534Y-101236237D01*
X153266330Y-101438177D01*
X153266335Y-101438183D01*
X153269122Y-101441915D01*
X153272431Y-101445195D01*
X153272436Y-101445201D01*
X153451426Y-101622635D01*
X153454743Y-101625923D01*
X153458505Y-101628681D01*
X153458508Y-101628684D01*
X153661750Y-101777707D01*
X153665524Y-101780474D01*
X153669667Y-101782654D01*
X153669669Y-101782655D01*
X153892684Y-101899989D01*
X153892689Y-101899991D01*
X153896834Y-101902172D01*
X154143590Y-101988344D01*
X154148183Y-101989216D01*
X154395785Y-102036224D01*
X154395788Y-102036224D01*
X154400374Y-102037095D01*
X154530958Y-102042226D01*
X154656875Y-102047174D01*
X154656881Y-102047174D01*
X154661543Y-102047357D01*
X154740977Y-102038657D01*
X154916707Y-102019412D01*
X154916712Y-102019411D01*
X154921360Y-102018902D01*
X155034116Y-101989216D01*
X155169594Y-101953548D01*
X155169596Y-101953547D01*
X155174117Y-101952357D01*
X155414262Y-101849182D01*
X155636519Y-101711646D01*
X155640082Y-101708629D01*
X155640087Y-101708626D01*
X155832439Y-101545787D01*
X155832440Y-101545786D01*
X155836005Y-101542768D01*
X155927729Y-101438177D01*
X156005257Y-101349774D01*
X156005261Y-101349769D01*
X156008339Y-101346259D01*
X156149733Y-101126437D01*
X156257083Y-100888129D01*
X156328030Y-100636572D01*
X156344832Y-100504496D01*
X156360616Y-100380421D01*
X156360616Y-100380417D01*
X156361014Y-100377291D01*
X156363431Y-100285000D01*
X156344061Y-100024348D01*
X156332725Y-99974248D01*
X156287408Y-99773980D01*
X156286377Y-99769423D01*
X156254908Y-99688500D01*
X156193340Y-99530176D01*
X156193339Y-99530173D01*
X156191647Y-99525823D01*
X156061951Y-99298902D01*
X155900138Y-99093643D01*
X155709763Y-98914557D01*
X155495009Y-98765576D01*
X155490816Y-98763508D01*
X155264781Y-98652040D01*
X155264778Y-98652039D01*
X155260593Y-98649975D01*
X155214449Y-98635204D01*
X155016123Y-98571720D01*
X155011665Y-98570293D01*
X154753693Y-98528279D01*
X154639942Y-98526790D01*
X154497022Y-98524919D01*
X154497019Y-98524919D01*
X154492345Y-98524858D01*
X154233362Y-98560104D01*
X153982433Y-98633243D01*
X153978180Y-98635203D01*
X153978179Y-98635204D01*
X153941659Y-98652040D01*
X153745072Y-98742668D01*
X153706067Y-98768241D01*
X153530404Y-98883410D01*
X153530399Y-98883414D01*
X153526491Y-98885976D01*
X153331494Y-99060018D01*
X153164363Y-99260970D01*
X153161934Y-99264973D01*
X153090738Y-99382301D01*
X153028771Y-99484419D01*
X152927697Y-99725455D01*
X152863359Y-99978783D01*
X152837173Y-100238839D01*
X145948730Y-100238839D01*
X145951047Y-98380000D01*
X150086502Y-98380000D01*
X150106457Y-98608087D01*
X150107881Y-98613400D01*
X150107881Y-98613402D01*
X150117300Y-98648552D01*
X150165716Y-98829243D01*
X150168039Y-98834224D01*
X150168039Y-98834225D01*
X150260151Y-99031762D01*
X150260154Y-99031767D01*
X150262477Y-99036749D01*
X150393802Y-99224300D01*
X150555700Y-99386198D01*
X150560208Y-99389355D01*
X150560211Y-99389357D01*
X150638389Y-99444098D01*
X150743251Y-99517523D01*
X150748233Y-99519846D01*
X150748238Y-99519849D01*
X150945775Y-99611961D01*
X150950757Y-99614284D01*
X150956065Y-99615706D01*
X150956067Y-99615707D01*
X151166598Y-99672119D01*
X151166600Y-99672119D01*
X151171913Y-99673543D01*
X151271480Y-99682254D01*
X151340149Y-99688262D01*
X151340156Y-99688262D01*
X151342873Y-99688500D01*
X151457127Y-99688500D01*
X151459844Y-99688262D01*
X151459851Y-99688262D01*
X151528520Y-99682254D01*
X151628087Y-99673543D01*
X151633400Y-99672119D01*
X151633402Y-99672119D01*
X151843933Y-99615707D01*
X151843935Y-99615706D01*
X151849243Y-99614284D01*
X151854225Y-99611961D01*
X152051762Y-99519849D01*
X152051767Y-99519846D01*
X152056749Y-99517523D01*
X152161611Y-99444098D01*
X152239789Y-99389357D01*
X152239792Y-99389355D01*
X152244300Y-99386198D01*
X152406198Y-99224300D01*
X152537523Y-99036749D01*
X152539846Y-99031767D01*
X152539849Y-99031762D01*
X152631961Y-98834225D01*
X152631961Y-98834224D01*
X152634284Y-98829243D01*
X152682701Y-98648552D01*
X152692119Y-98613402D01*
X152692119Y-98613400D01*
X152693543Y-98608087D01*
X152713498Y-98380000D01*
X152693543Y-98151913D01*
X152691302Y-98143548D01*
X152635707Y-97936067D01*
X152635706Y-97936065D01*
X152634284Y-97930757D01*
X152621856Y-97904104D01*
X152539849Y-97728238D01*
X152539846Y-97728233D01*
X152537523Y-97723251D01*
X152406198Y-97535700D01*
X152244300Y-97373802D01*
X152239792Y-97370645D01*
X152239789Y-97370643D01*
X152097181Y-97270788D01*
X152056749Y-97242477D01*
X152051767Y-97240154D01*
X152051762Y-97240151D01*
X151854225Y-97148039D01*
X151854224Y-97148039D01*
X151849243Y-97145716D01*
X151843935Y-97144294D01*
X151843933Y-97144293D01*
X151633402Y-97087881D01*
X151633400Y-97087881D01*
X151628087Y-97086457D01*
X151528520Y-97077746D01*
X151459851Y-97071738D01*
X151459844Y-97071738D01*
X151457127Y-97071500D01*
X151342873Y-97071500D01*
X151340156Y-97071738D01*
X151340149Y-97071738D01*
X151271480Y-97077746D01*
X151171913Y-97086457D01*
X151166600Y-97087881D01*
X151166598Y-97087881D01*
X150956067Y-97144293D01*
X150956065Y-97144294D01*
X150950757Y-97145716D01*
X150945776Y-97148039D01*
X150945775Y-97148039D01*
X150748238Y-97240151D01*
X150748233Y-97240154D01*
X150743251Y-97242477D01*
X150702819Y-97270788D01*
X150560211Y-97370643D01*
X150560208Y-97370645D01*
X150555700Y-97373802D01*
X150393802Y-97535700D01*
X150262477Y-97723251D01*
X150260154Y-97728233D01*
X150260151Y-97728238D01*
X150178144Y-97904104D01*
X150165716Y-97930757D01*
X150164294Y-97936065D01*
X150164293Y-97936067D01*
X150108698Y-98143548D01*
X150106457Y-98151913D01*
X150086502Y-98380000D01*
X145951047Y-98380000D01*
X145953479Y-96428839D01*
X152837173Y-96428839D01*
X152849713Y-96689908D01*
X152900704Y-96946256D01*
X152989026Y-97192252D01*
X152991242Y-97196376D01*
X153088670Y-97377699D01*
X153112737Y-97422491D01*
X153115532Y-97426234D01*
X153115534Y-97426237D01*
X153266330Y-97628177D01*
X153266335Y-97628183D01*
X153269122Y-97631915D01*
X153272431Y-97635195D01*
X153272436Y-97635201D01*
X153451426Y-97812635D01*
X153454743Y-97815923D01*
X153458505Y-97818681D01*
X153458508Y-97818684D01*
X153661750Y-97967707D01*
X153665524Y-97970474D01*
X153669667Y-97972654D01*
X153669669Y-97972655D01*
X153892684Y-98089989D01*
X153892689Y-98089991D01*
X153896834Y-98092172D01*
X154143590Y-98178344D01*
X154148183Y-98179216D01*
X154395785Y-98226224D01*
X154395788Y-98226224D01*
X154400374Y-98227095D01*
X154530959Y-98232226D01*
X154656875Y-98237174D01*
X154656881Y-98237174D01*
X154661543Y-98237357D01*
X154740977Y-98228657D01*
X154916707Y-98209412D01*
X154916712Y-98209411D01*
X154921360Y-98208902D01*
X155034116Y-98179216D01*
X155169594Y-98143548D01*
X155169596Y-98143547D01*
X155174117Y-98142357D01*
X155185774Y-98137349D01*
X155409972Y-98041025D01*
X155414262Y-98039182D01*
X155636519Y-97901646D01*
X155640082Y-97898629D01*
X155640087Y-97898626D01*
X155832439Y-97735787D01*
X155832440Y-97735786D01*
X155836005Y-97732768D01*
X155938903Y-97615436D01*
X156005257Y-97539774D01*
X156005261Y-97539769D01*
X156008339Y-97536259D01*
X156149733Y-97316437D01*
X156257083Y-97078129D01*
X156295567Y-96941676D01*
X156326760Y-96831076D01*
X156326761Y-96831073D01*
X156328030Y-96826572D01*
X156344832Y-96694496D01*
X156360616Y-96570421D01*
X156360616Y-96570417D01*
X156361014Y-96567291D01*
X156363431Y-96475000D01*
X156351021Y-96308006D01*
X156344407Y-96219000D01*
X156344406Y-96218996D01*
X156344061Y-96214348D01*
X156332725Y-96164248D01*
X156287408Y-95963980D01*
X156286377Y-95959423D01*
X156254908Y-95878500D01*
X156193340Y-95720176D01*
X156193339Y-95720173D01*
X156191647Y-95715823D01*
X156061951Y-95488902D01*
X155900138Y-95283643D01*
X155709763Y-95104557D01*
X155495009Y-94955576D01*
X155490816Y-94953508D01*
X155264781Y-94842040D01*
X155264778Y-94842039D01*
X155260593Y-94839975D01*
X155216017Y-94825706D01*
X155016123Y-94761720D01*
X155011665Y-94760293D01*
X154753693Y-94718279D01*
X154639942Y-94716790D01*
X154497022Y-94714919D01*
X154497019Y-94714919D01*
X154492345Y-94714858D01*
X154233362Y-94750104D01*
X153982433Y-94823243D01*
X153978180Y-94825203D01*
X153978179Y-94825204D01*
X153941659Y-94842040D01*
X153745072Y-94932668D01*
X153706067Y-94958241D01*
X153530404Y-95073410D01*
X153530399Y-95073414D01*
X153526491Y-95075976D01*
X153331494Y-95250018D01*
X153164363Y-95450970D01*
X153161934Y-95454973D01*
X153090738Y-95572301D01*
X153028771Y-95674419D01*
X152927697Y-95915455D01*
X152863359Y-96168783D01*
X152837173Y-96428839D01*
X145953479Y-96428839D01*
X145955796Y-94570000D01*
X156486502Y-94570000D01*
X156506457Y-94798087D01*
X156507881Y-94803400D01*
X156507881Y-94803402D01*
X156517300Y-94838552D01*
X156565716Y-95019243D01*
X156568039Y-95024224D01*
X156568039Y-95024225D01*
X156660151Y-95221762D01*
X156660154Y-95221767D01*
X156662477Y-95226749D01*
X156721426Y-95310937D01*
X156751925Y-95354493D01*
X156793802Y-95414300D01*
X156955700Y-95576198D01*
X156960208Y-95579355D01*
X156960211Y-95579357D01*
X157038389Y-95634098D01*
X157143251Y-95707523D01*
X157148233Y-95709846D01*
X157148238Y-95709849D01*
X157345775Y-95801961D01*
X157350757Y-95804284D01*
X157356065Y-95805706D01*
X157356067Y-95805707D01*
X157566598Y-95862119D01*
X157566600Y-95862119D01*
X157571913Y-95863543D01*
X157671480Y-95872254D01*
X157740149Y-95878262D01*
X157740156Y-95878262D01*
X157742873Y-95878500D01*
X157857127Y-95878500D01*
X157859844Y-95878262D01*
X157859851Y-95878262D01*
X157928520Y-95872254D01*
X158028087Y-95863543D01*
X158033400Y-95862119D01*
X158033402Y-95862119D01*
X158243933Y-95805707D01*
X158243935Y-95805706D01*
X158249243Y-95804284D01*
X158254225Y-95801961D01*
X158451762Y-95709849D01*
X158451767Y-95709846D01*
X158456749Y-95707523D01*
X158561611Y-95634098D01*
X158639789Y-95579357D01*
X158639792Y-95579355D01*
X158644300Y-95576198D01*
X158806198Y-95414300D01*
X158848076Y-95354493D01*
X158878574Y-95310937D01*
X158937523Y-95226749D01*
X158939846Y-95221767D01*
X158939849Y-95221762D01*
X159031961Y-95024225D01*
X159031961Y-95024224D01*
X159034284Y-95019243D01*
X159082701Y-94838552D01*
X159092119Y-94803402D01*
X159092119Y-94803400D01*
X159093543Y-94798087D01*
X159113498Y-94570000D01*
X159093543Y-94341913D01*
X159091302Y-94333548D01*
X159035707Y-94126067D01*
X159035706Y-94126065D01*
X159034284Y-94120757D01*
X159031958Y-94115769D01*
X158939849Y-93918238D01*
X158939846Y-93918233D01*
X158937523Y-93913251D01*
X158806198Y-93725700D01*
X158644300Y-93563802D01*
X158639792Y-93560645D01*
X158639789Y-93560643D01*
X158556289Y-93502176D01*
X158456749Y-93432477D01*
X158451767Y-93430154D01*
X158451762Y-93430151D01*
X158254225Y-93338039D01*
X158254224Y-93338039D01*
X158249243Y-93335716D01*
X158243935Y-93334294D01*
X158243933Y-93334293D01*
X158033402Y-93277881D01*
X158033400Y-93277881D01*
X158028087Y-93276457D01*
X157928520Y-93267746D01*
X157859851Y-93261738D01*
X157859844Y-93261738D01*
X157857127Y-93261500D01*
X157742873Y-93261500D01*
X157740156Y-93261738D01*
X157740149Y-93261738D01*
X157671480Y-93267746D01*
X157571913Y-93276457D01*
X157566600Y-93277881D01*
X157566598Y-93277881D01*
X157356067Y-93334293D01*
X157356065Y-93334294D01*
X157350757Y-93335716D01*
X157345776Y-93338039D01*
X157345775Y-93338039D01*
X157148238Y-93430151D01*
X157148233Y-93430154D01*
X157143251Y-93432477D01*
X157043711Y-93502176D01*
X156960211Y-93560643D01*
X156960208Y-93560645D01*
X156955700Y-93563802D01*
X156793802Y-93725700D01*
X156662477Y-93913251D01*
X156660154Y-93918233D01*
X156660151Y-93918238D01*
X156568042Y-94115769D01*
X156565716Y-94120757D01*
X156564294Y-94126065D01*
X156564293Y-94126067D01*
X156508698Y-94333548D01*
X156506457Y-94341913D01*
X156486502Y-94570000D01*
X145955796Y-94570000D01*
X145958228Y-92618839D01*
X152837173Y-92618839D01*
X152837397Y-92623505D01*
X152837397Y-92623511D01*
X152837569Y-92627089D01*
X152849713Y-92879908D01*
X152900704Y-93136256D01*
X152989026Y-93382252D01*
X152991242Y-93386376D01*
X153088670Y-93567699D01*
X153112737Y-93612491D01*
X153115532Y-93616234D01*
X153115534Y-93616237D01*
X153266330Y-93818177D01*
X153266335Y-93818183D01*
X153269122Y-93821915D01*
X153272431Y-93825195D01*
X153272436Y-93825201D01*
X153451426Y-94002635D01*
X153454743Y-94005923D01*
X153458505Y-94008681D01*
X153458508Y-94008684D01*
X153660303Y-94156646D01*
X153665524Y-94160474D01*
X153669667Y-94162654D01*
X153669669Y-94162655D01*
X153892684Y-94279989D01*
X153892689Y-94279991D01*
X153896834Y-94282172D01*
X154143590Y-94368344D01*
X154148183Y-94369216D01*
X154395785Y-94416224D01*
X154395788Y-94416224D01*
X154400374Y-94417095D01*
X154530958Y-94422226D01*
X154656875Y-94427174D01*
X154656881Y-94427174D01*
X154661543Y-94427357D01*
X154740977Y-94418657D01*
X154916707Y-94399412D01*
X154916712Y-94399411D01*
X154921360Y-94398902D01*
X155034116Y-94369216D01*
X155169594Y-94333548D01*
X155169596Y-94333547D01*
X155174117Y-94332357D01*
X155414262Y-94229182D01*
X155597537Y-94115769D01*
X155632547Y-94094104D01*
X155632548Y-94094104D01*
X155636519Y-94091646D01*
X155640082Y-94088629D01*
X155640087Y-94088626D01*
X155832439Y-93925787D01*
X155832440Y-93925786D01*
X155836005Y-93922768D01*
X155927729Y-93818177D01*
X156005257Y-93729774D01*
X156005261Y-93729769D01*
X156008339Y-93726259D01*
X156149733Y-93506437D01*
X156257083Y-93268129D01*
X156328030Y-93016572D01*
X156342510Y-92902747D01*
X156360616Y-92760421D01*
X156360616Y-92760417D01*
X156361014Y-92757291D01*
X156363431Y-92665000D01*
X156345248Y-92420317D01*
X156344407Y-92409000D01*
X156344406Y-92408996D01*
X156344061Y-92404348D01*
X156332725Y-92354248D01*
X156287408Y-92153980D01*
X156286377Y-92149423D01*
X156282867Y-92140396D01*
X156193340Y-91910176D01*
X156193339Y-91910173D01*
X156191647Y-91905823D01*
X156061951Y-91678902D01*
X155900138Y-91473643D01*
X155709763Y-91294557D01*
X155539479Y-91176426D01*
X155498851Y-91148241D01*
X155498848Y-91148239D01*
X155495009Y-91145576D01*
X155490816Y-91143508D01*
X155264781Y-91032040D01*
X155264778Y-91032039D01*
X155260593Y-91029975D01*
X155214449Y-91015204D01*
X155016123Y-90951720D01*
X155011665Y-90950293D01*
X154753693Y-90908279D01*
X154639942Y-90906790D01*
X154497022Y-90904919D01*
X154497019Y-90904919D01*
X154492345Y-90904858D01*
X154233362Y-90940104D01*
X153982433Y-91013243D01*
X153978180Y-91015203D01*
X153978179Y-91015204D01*
X153941659Y-91032040D01*
X153745072Y-91122668D01*
X153707668Y-91147191D01*
X153530404Y-91263410D01*
X153530399Y-91263414D01*
X153526491Y-91265976D01*
X153331494Y-91440018D01*
X153164363Y-91640970D01*
X153161934Y-91644973D01*
X153075555Y-91787322D01*
X153028771Y-91864419D01*
X152927697Y-92105455D01*
X152863359Y-92358783D01*
X152862891Y-92363434D01*
X152862890Y-92363438D01*
X152852245Y-92469159D01*
X152837173Y-92618839D01*
X145958228Y-92618839D01*
X145958471Y-92423816D01*
X145958524Y-92420317D01*
X145961150Y-92329843D01*
X145961313Y-92324239D01*
X145950934Y-92255098D01*
X145950023Y-92247439D01*
X145944387Y-92183377D01*
X145944386Y-92183373D01*
X145943895Y-92177789D01*
X145935649Y-92147499D01*
X145932622Y-92133113D01*
X145928649Y-92106648D01*
X145927963Y-92102076D01*
X145911328Y-92047450D01*
X145910696Y-92045735D01*
X145910688Y-92045712D01*
X145902090Y-92022390D01*
X145898735Y-92011902D01*
X145886359Y-91966441D01*
X145884885Y-91961026D01*
X145882476Y-91955960D01*
X145882473Y-91955951D01*
X145872829Y-91935668D01*
X145861643Y-91865558D01*
X145871384Y-91830613D01*
X145876401Y-91819266D01*
X145922241Y-91765052D01*
X145948544Y-91751817D01*
X148046544Y-90988207D01*
X148117398Y-90983704D01*
X148138769Y-90990582D01*
X148164168Y-91001337D01*
X148347909Y-91079142D01*
X148347914Y-91079144D01*
X148352012Y-91080879D01*
X148356310Y-91082018D01*
X148356314Y-91082020D01*
X148479212Y-91114605D01*
X148606412Y-91148332D01*
X148867779Y-91179267D01*
X149130897Y-91173066D01*
X149177789Y-91165261D01*
X149386126Y-91130584D01*
X149386130Y-91130583D01*
X149390516Y-91129853D01*
X149394757Y-91128512D01*
X149394760Y-91128511D01*
X149637211Y-91051834D01*
X149637213Y-91051833D01*
X149641457Y-91050491D01*
X149645468Y-91048565D01*
X149645473Y-91048563D01*
X149874693Y-90938493D01*
X149874694Y-90938492D01*
X149878712Y-90936563D01*
X150013176Y-90846717D01*
X150093839Y-90792820D01*
X150093843Y-90792817D01*
X150097547Y-90790342D01*
X150100864Y-90787371D01*
X150100868Y-90787368D01*
X150290279Y-90617717D01*
X150290280Y-90617716D01*
X150293597Y-90614745D01*
X150462948Y-90413277D01*
X150466513Y-90407562D01*
X150599870Y-90193731D01*
X150602224Y-90189957D01*
X150708643Y-89949240D01*
X150780084Y-89695931D01*
X150808281Y-89486003D01*
X150814693Y-89438264D01*
X150814694Y-89438256D01*
X150815120Y-89435082D01*
X150815221Y-89431871D01*
X150818696Y-89321310D01*
X150818696Y-89321305D01*
X150818797Y-89318088D01*
X150800209Y-89055554D01*
X150796797Y-89039703D01*
X150745751Y-88802611D01*
X150744814Y-88798259D01*
X150738329Y-88780679D01*
X150655260Y-88555512D01*
X150653719Y-88551335D01*
X150651605Y-88547417D01*
X150530854Y-88323626D01*
X150528741Y-88319710D01*
X150372374Y-88108006D01*
X150187737Y-87920446D01*
X150184197Y-87917745D01*
X150184191Y-87917739D01*
X149982056Y-87763474D01*
X149982052Y-87763471D01*
X149978515Y-87760772D01*
X149748882Y-87632172D01*
X149744738Y-87630569D01*
X149744732Y-87630566D01*
X149723467Y-87622339D01*
X149667153Y-87579105D01*
X149650530Y-87547922D01*
X149614553Y-87449077D01*
X159066065Y-87449077D01*
X159079722Y-87840157D01*
X159131477Y-88228038D01*
X159220834Y-88609017D01*
X159221823Y-88611923D01*
X159221825Y-88611929D01*
X159345950Y-88976543D01*
X159345955Y-88976555D01*
X159346943Y-88979458D01*
X159508598Y-89335826D01*
X159704258Y-89674717D01*
X159706047Y-89677216D01*
X159706049Y-89677219D01*
X159803831Y-89813799D01*
X159932053Y-89992899D01*
X159934080Y-89995214D01*
X159934082Y-89995217D01*
X160137698Y-90227806D01*
X160189810Y-90287333D01*
X160475069Y-90555208D01*
X160785107Y-90793969D01*
X160787710Y-90795596D01*
X160787715Y-90795599D01*
X160869521Y-90846717D01*
X161116964Y-91001337D01*
X161467472Y-91175331D01*
X161833287Y-91314290D01*
X162210915Y-91416890D01*
X162213958Y-91417405D01*
X162213964Y-91417406D01*
X162593713Y-91481636D01*
X162593720Y-91481637D01*
X162596754Y-91482150D01*
X162599825Y-91482365D01*
X162599827Y-91482365D01*
X162984053Y-91509233D01*
X162984061Y-91509233D01*
X162987119Y-91509447D01*
X163240704Y-91502363D01*
X163375211Y-91498606D01*
X163375214Y-91498606D01*
X163378285Y-91498520D01*
X163381338Y-91498134D01*
X163381342Y-91498134D01*
X163600538Y-91470443D01*
X163766517Y-91449475D01*
X163769521Y-91448793D01*
X163769524Y-91448792D01*
X164145115Y-91363460D01*
X164145121Y-91363458D01*
X164148111Y-91362779D01*
X164293875Y-91314290D01*
X164516500Y-91240233D01*
X164516506Y-91240231D01*
X164519424Y-91239260D01*
X164660551Y-91176426D01*
X164874111Y-91081343D01*
X164874117Y-91081340D01*
X164876911Y-91080096D01*
X164904976Y-91064153D01*
X165214492Y-90888324D01*
X165214498Y-90888320D01*
X165217160Y-90886808D01*
X165536924Y-90661239D01*
X165833150Y-90405544D01*
X165835271Y-90403317D01*
X165835277Y-90403311D01*
X166100894Y-90124385D01*
X166103011Y-90122162D01*
X166202192Y-89995217D01*
X166342021Y-89816244D01*
X166342023Y-89816241D01*
X166343931Y-89813799D01*
X166345587Y-89811189D01*
X166345593Y-89811181D01*
X166551957Y-89486003D01*
X166551959Y-89486000D01*
X166553610Y-89483398D01*
X166730046Y-89134112D01*
X166871557Y-88769277D01*
X166976790Y-88392374D01*
X167044742Y-88007000D01*
X167057580Y-87840157D01*
X167074613Y-87618789D01*
X167074613Y-87618778D01*
X167074763Y-87616835D01*
X167076325Y-87505000D01*
X167057209Y-87114149D01*
X167000044Y-86727028D01*
X166991631Y-86693283D01*
X166941269Y-86491295D01*
X166905376Y-86347334D01*
X166900532Y-86333729D01*
X166775139Y-85981588D01*
X166774107Y-85978689D01*
X166607492Y-85624614D01*
X166578167Y-85575420D01*
X166408700Y-85291138D01*
X166407120Y-85288487D01*
X166217594Y-85031419D01*
X166176727Y-84975988D01*
X166176725Y-84975985D01*
X166174905Y-84973517D01*
X165913061Y-84682711D01*
X165624090Y-84418844D01*
X165310749Y-84184435D01*
X165046865Y-84024621D01*
X164978658Y-83983313D01*
X164978649Y-83983308D01*
X164976030Y-83981722D01*
X164623126Y-83812638D01*
X164620237Y-83811586D01*
X164620231Y-83811584D01*
X164258306Y-83679855D01*
X164258303Y-83679854D01*
X164255407Y-83678800D01*
X163978326Y-83607658D01*
X163879366Y-83582249D01*
X163879363Y-83582248D01*
X163876382Y-83581483D01*
X163489670Y-83521617D01*
X163486613Y-83521446D01*
X163486612Y-83521446D01*
X163456120Y-83519741D01*
X163098962Y-83499773D01*
X163095883Y-83499902D01*
X163095880Y-83499902D01*
X162839770Y-83510636D01*
X162707987Y-83516159D01*
X162704943Y-83516587D01*
X162704941Y-83516587D01*
X162670368Y-83521446D01*
X162320477Y-83570620D01*
X161940131Y-83662636D01*
X161570579Y-83791327D01*
X161567781Y-83792620D01*
X161218146Y-83954174D01*
X161218136Y-83954179D01*
X161215349Y-83955467D01*
X161106829Y-84019135D01*
X160880486Y-84151929D01*
X160880481Y-84151932D01*
X160877831Y-84153487D01*
X160837433Y-84182838D01*
X160563730Y-84381694D01*
X160563721Y-84381701D01*
X160561248Y-84383498D01*
X160558958Y-84385531D01*
X160558952Y-84385536D01*
X160282381Y-84631088D01*
X160268621Y-84643305D01*
X160002743Y-84930427D01*
X160000888Y-84932871D01*
X159774508Y-85231116D01*
X159766152Y-85242124D01*
X159561107Y-85575420D01*
X159389564Y-85927135D01*
X159253162Y-86293910D01*
X159153201Y-86672246D01*
X159090637Y-87058531D01*
X159066065Y-87449077D01*
X149614553Y-87449077D01*
X148931643Y-85572796D01*
X148887553Y-85451661D01*
X148883050Y-85380807D01*
X148890713Y-85357619D01*
X148969383Y-85179669D01*
X148971181Y-85175602D01*
X149042622Y-84922293D01*
X149073041Y-84695820D01*
X149077231Y-84664626D01*
X149077232Y-84664618D01*
X149077658Y-84661444D01*
X149078612Y-84631088D01*
X149081234Y-84547672D01*
X149081234Y-84547667D01*
X149081335Y-84544450D01*
X149062747Y-84281916D01*
X149035487Y-84155298D01*
X149008289Y-84028973D01*
X149007352Y-84024621D01*
X148916257Y-83777697D01*
X148854720Y-83663649D01*
X148793392Y-83549988D01*
X148791279Y-83546072D01*
X148674421Y-83387859D01*
X148650038Y-83321181D01*
X148665575Y-83251905D01*
X148716098Y-83202027D01*
X148775772Y-83187000D01*
X167263000Y-83187000D01*
X167331121Y-83207002D01*
X167377614Y-83260658D01*
X167389000Y-83313000D01*
X167389000Y-132337000D01*
X167368998Y-132405121D01*
X167315342Y-132451614D01*
X167263000Y-132463000D01*
X118239000Y-132463000D01*
X118170879Y-132442998D01*
X118124386Y-132389342D01*
X118113000Y-132337000D01*
X118113000Y-128089077D01*
X118426065Y-128089077D01*
X118439722Y-128480157D01*
X118491477Y-128868038D01*
X118580834Y-129249017D01*
X118581823Y-129251923D01*
X118581825Y-129251929D01*
X118705950Y-129616543D01*
X118705955Y-129616555D01*
X118706943Y-129619458D01*
X118868598Y-129975826D01*
X119064258Y-130314717D01*
X119066047Y-130317216D01*
X119066049Y-130317219D01*
X119163831Y-130453799D01*
X119292053Y-130632899D01*
X119549810Y-130927333D01*
X119835069Y-131195208D01*
X120145107Y-131433969D01*
X120147710Y-131435596D01*
X120147715Y-131435599D01*
X120266687Y-131509941D01*
X120476964Y-131641337D01*
X120827472Y-131815331D01*
X121193287Y-131954290D01*
X121570915Y-132056890D01*
X121573958Y-132057405D01*
X121573964Y-132057406D01*
X121953713Y-132121636D01*
X121953720Y-132121637D01*
X121956754Y-132122150D01*
X121959825Y-132122365D01*
X121959827Y-132122365D01*
X122344053Y-132149233D01*
X122344061Y-132149233D01*
X122347119Y-132149447D01*
X122600704Y-132142363D01*
X122735211Y-132138606D01*
X122735214Y-132138606D01*
X122738285Y-132138520D01*
X122741338Y-132138134D01*
X122741342Y-132138134D01*
X122927145Y-132114662D01*
X123126517Y-132089475D01*
X123129521Y-132088793D01*
X123129524Y-132088792D01*
X123505115Y-132003460D01*
X123505121Y-132003458D01*
X123508111Y-132002779D01*
X123653875Y-131954290D01*
X123876500Y-131880233D01*
X123876506Y-131880231D01*
X123879424Y-131879260D01*
X124020551Y-131816426D01*
X124234111Y-131721343D01*
X124234117Y-131721340D01*
X124236911Y-131720096D01*
X124239580Y-131718580D01*
X124574492Y-131528324D01*
X124574498Y-131528320D01*
X124577160Y-131526808D01*
X124828874Y-131349243D01*
X124894401Y-131303019D01*
X124894404Y-131303017D01*
X124896924Y-131301239D01*
X125193150Y-131045544D01*
X125195271Y-131043317D01*
X125195277Y-131043311D01*
X125331750Y-130900000D01*
X133817502Y-130900000D01*
X133837457Y-131128087D01*
X133896716Y-131349243D01*
X133899039Y-131354224D01*
X133899039Y-131354225D01*
X133991151Y-131551762D01*
X133991154Y-131551767D01*
X133993477Y-131556749D01*
X133996634Y-131561257D01*
X134106793Y-131718580D01*
X134124802Y-131744300D01*
X134286700Y-131906198D01*
X134291208Y-131909355D01*
X134291211Y-131909357D01*
X134353814Y-131953192D01*
X134474251Y-132037523D01*
X134479233Y-132039846D01*
X134479238Y-132039849D01*
X134654633Y-132121636D01*
X134681757Y-132134284D01*
X134687065Y-132135706D01*
X134687067Y-132135707D01*
X134897598Y-132192119D01*
X134897600Y-132192119D01*
X134902913Y-132193543D01*
X135002480Y-132202254D01*
X135071149Y-132208262D01*
X135071156Y-132208262D01*
X135073873Y-132208500D01*
X135188127Y-132208500D01*
X135190844Y-132208262D01*
X135190851Y-132208262D01*
X135259520Y-132202254D01*
X135359087Y-132193543D01*
X135364400Y-132192119D01*
X135364402Y-132192119D01*
X135574933Y-132135707D01*
X135574935Y-132135706D01*
X135580243Y-132134284D01*
X135607367Y-132121636D01*
X135782762Y-132039849D01*
X135782767Y-132039846D01*
X135787749Y-132037523D01*
X135908186Y-131953192D01*
X135970789Y-131909357D01*
X135970792Y-131909355D01*
X135975300Y-131906198D01*
X136137198Y-131744300D01*
X136155208Y-131718580D01*
X136265366Y-131561257D01*
X136268523Y-131556749D01*
X136270846Y-131551767D01*
X136270849Y-131551762D01*
X136362961Y-131354225D01*
X136362961Y-131354224D01*
X136365284Y-131349243D01*
X136424543Y-131128087D01*
X136444498Y-130900000D01*
X149057502Y-130900000D01*
X149077457Y-131128087D01*
X149136716Y-131349243D01*
X149139039Y-131354224D01*
X149139039Y-131354225D01*
X149231151Y-131551762D01*
X149231154Y-131551767D01*
X149233477Y-131556749D01*
X149236634Y-131561257D01*
X149346793Y-131718580D01*
X149364802Y-131744300D01*
X149526700Y-131906198D01*
X149531208Y-131909355D01*
X149531211Y-131909357D01*
X149593814Y-131953192D01*
X149714251Y-132037523D01*
X149719233Y-132039846D01*
X149719238Y-132039849D01*
X149894633Y-132121636D01*
X149921757Y-132134284D01*
X149927065Y-132135706D01*
X149927067Y-132135707D01*
X150137598Y-132192119D01*
X150137600Y-132192119D01*
X150142913Y-132193543D01*
X150242480Y-132202254D01*
X150311149Y-132208262D01*
X150311156Y-132208262D01*
X150313873Y-132208500D01*
X150428127Y-132208500D01*
X150430844Y-132208262D01*
X150430851Y-132208262D01*
X150499520Y-132202254D01*
X150599087Y-132193543D01*
X150604400Y-132192119D01*
X150604402Y-132192119D01*
X150814933Y-132135707D01*
X150814935Y-132135706D01*
X150820243Y-132134284D01*
X150847367Y-132121636D01*
X151022762Y-132039849D01*
X151022767Y-132039846D01*
X151027749Y-132037523D01*
X151148186Y-131953192D01*
X151210789Y-131909357D01*
X151210792Y-131909355D01*
X151215300Y-131906198D01*
X151377198Y-131744300D01*
X151395208Y-131718580D01*
X151505366Y-131561257D01*
X151508523Y-131556749D01*
X151510846Y-131551767D01*
X151510849Y-131551762D01*
X151602961Y-131354225D01*
X151602961Y-131354224D01*
X151605284Y-131349243D01*
X151664543Y-131128087D01*
X151684498Y-130900000D01*
X151664543Y-130671913D01*
X151605284Y-130450757D01*
X151540605Y-130312051D01*
X151510849Y-130248238D01*
X151510846Y-130248233D01*
X151508523Y-130243251D01*
X151377198Y-130055700D01*
X151215300Y-129893802D01*
X151210792Y-129890645D01*
X151210789Y-129890643D01*
X151132611Y-129835902D01*
X151027749Y-129762477D01*
X151022767Y-129760154D01*
X151022762Y-129760151D01*
X150825225Y-129668039D01*
X150825224Y-129668039D01*
X150820243Y-129665716D01*
X150814935Y-129664294D01*
X150814933Y-129664293D01*
X150604402Y-129607881D01*
X150604400Y-129607881D01*
X150599087Y-129606457D01*
X150499520Y-129597746D01*
X150430851Y-129591738D01*
X150430844Y-129591738D01*
X150428127Y-129591500D01*
X150313873Y-129591500D01*
X150311156Y-129591738D01*
X150311149Y-129591738D01*
X150242480Y-129597746D01*
X150142913Y-129606457D01*
X150137600Y-129607881D01*
X150137598Y-129607881D01*
X149927067Y-129664293D01*
X149927065Y-129664294D01*
X149921757Y-129665716D01*
X149916776Y-129668039D01*
X149916775Y-129668039D01*
X149719238Y-129760151D01*
X149719233Y-129760154D01*
X149714251Y-129762477D01*
X149609389Y-129835902D01*
X149531211Y-129890643D01*
X149531208Y-129890645D01*
X149526700Y-129893802D01*
X149364802Y-130055700D01*
X149233477Y-130243251D01*
X149231154Y-130248233D01*
X149231151Y-130248238D01*
X149201395Y-130312051D01*
X149136716Y-130450757D01*
X149077457Y-130671913D01*
X149057502Y-130900000D01*
X136444498Y-130900000D01*
X136424543Y-130671913D01*
X136365284Y-130450757D01*
X136300605Y-130312051D01*
X136270849Y-130248238D01*
X136270846Y-130248233D01*
X136268523Y-130243251D01*
X136137198Y-130055700D01*
X135975300Y-129893802D01*
X135970792Y-129890645D01*
X135970789Y-129890643D01*
X135892611Y-129835902D01*
X135787749Y-129762477D01*
X135782767Y-129760154D01*
X135782762Y-129760151D01*
X135585225Y-129668039D01*
X135585224Y-129668039D01*
X135580243Y-129665716D01*
X135574935Y-129664294D01*
X135574933Y-129664293D01*
X135364402Y-129607881D01*
X135364400Y-129607881D01*
X135359087Y-129606457D01*
X135259520Y-129597746D01*
X135190851Y-129591738D01*
X135190844Y-129591738D01*
X135188127Y-129591500D01*
X135073873Y-129591500D01*
X135071156Y-129591738D01*
X135071149Y-129591738D01*
X135002480Y-129597746D01*
X134902913Y-129606457D01*
X134897600Y-129607881D01*
X134897598Y-129607881D01*
X134687067Y-129664293D01*
X134687065Y-129664294D01*
X134681757Y-129665716D01*
X134676776Y-129668039D01*
X134676775Y-129668039D01*
X134479238Y-129760151D01*
X134479233Y-129760154D01*
X134474251Y-129762477D01*
X134369389Y-129835902D01*
X134291211Y-129890643D01*
X134291208Y-129890645D01*
X134286700Y-129893802D01*
X134124802Y-130055700D01*
X133993477Y-130243251D01*
X133991154Y-130248233D01*
X133991151Y-130248238D01*
X133961395Y-130312051D01*
X133896716Y-130450757D01*
X133837457Y-130671913D01*
X133817502Y-130900000D01*
X125331750Y-130900000D01*
X125460894Y-130764385D01*
X125463011Y-130762162D01*
X125533522Y-130671913D01*
X125702021Y-130456244D01*
X125702023Y-130456241D01*
X125703931Y-130453799D01*
X125705587Y-130451189D01*
X125705593Y-130451181D01*
X125911957Y-130126003D01*
X125911959Y-130126000D01*
X125913610Y-130123398D01*
X126090046Y-129774112D01*
X126231557Y-129409277D01*
X126336790Y-129032374D01*
X126404742Y-128647000D01*
X126417580Y-128480157D01*
X126434613Y-128258789D01*
X126434613Y-128258778D01*
X126434763Y-128256835D01*
X126436325Y-128145000D01*
X126417209Y-127754149D01*
X126402397Y-127653839D01*
X127653173Y-127653839D01*
X127653397Y-127658505D01*
X127653397Y-127658511D01*
X127655542Y-127703160D01*
X127665713Y-127914908D01*
X127716704Y-128171256D01*
X127805026Y-128417252D01*
X127807242Y-128421376D01*
X127871753Y-128541437D01*
X127928737Y-128647491D01*
X127931532Y-128651234D01*
X127931534Y-128651237D01*
X128082330Y-128853177D01*
X128082335Y-128853183D01*
X128085122Y-128856915D01*
X128088431Y-128860195D01*
X128088436Y-128860201D01*
X128262119Y-129032374D01*
X128270743Y-129040923D01*
X128274505Y-129043681D01*
X128274508Y-129043684D01*
X128477750Y-129192707D01*
X128481524Y-129195474D01*
X128485667Y-129197654D01*
X128485669Y-129197655D01*
X128708684Y-129314989D01*
X128708689Y-129314991D01*
X128712834Y-129317172D01*
X128959590Y-129403344D01*
X128964183Y-129404216D01*
X129211785Y-129451224D01*
X129211788Y-129451224D01*
X129216374Y-129452095D01*
X129346959Y-129457226D01*
X129472875Y-129462174D01*
X129472881Y-129462174D01*
X129477543Y-129462357D01*
X129556977Y-129453657D01*
X129732707Y-129434412D01*
X129732712Y-129434411D01*
X129737360Y-129433902D01*
X129850116Y-129404216D01*
X129985594Y-129368548D01*
X129985596Y-129368547D01*
X129990117Y-129367357D01*
X130230262Y-129264182D01*
X130452519Y-129126646D01*
X130456082Y-129123629D01*
X130456087Y-129123626D01*
X130648439Y-128960787D01*
X130648440Y-128960786D01*
X130652005Y-128957768D01*
X130743729Y-128853177D01*
X130821257Y-128764774D01*
X130821261Y-128764769D01*
X130824339Y-128761259D01*
X130895892Y-128650018D01*
X130963205Y-128545367D01*
X130965733Y-128541437D01*
X131073083Y-128303129D01*
X131117124Y-128146974D01*
X131142760Y-128056076D01*
X131142761Y-128056073D01*
X131144030Y-128051572D01*
X131160832Y-127919496D01*
X131176616Y-127795421D01*
X131176616Y-127795417D01*
X131177014Y-127792291D01*
X131177933Y-127757222D01*
X131179348Y-127703160D01*
X131179431Y-127700000D01*
X131176001Y-127653839D01*
X131463173Y-127653839D01*
X131463397Y-127658505D01*
X131463397Y-127658511D01*
X131465542Y-127703160D01*
X131475713Y-127914908D01*
X131526704Y-128171256D01*
X131615026Y-128417252D01*
X131617242Y-128421376D01*
X131681753Y-128541437D01*
X131738737Y-128647491D01*
X131741532Y-128651234D01*
X131741534Y-128651237D01*
X131892330Y-128853177D01*
X131892335Y-128853183D01*
X131895122Y-128856915D01*
X131898431Y-128860195D01*
X131898436Y-128860201D01*
X132072119Y-129032374D01*
X132080743Y-129040923D01*
X132084505Y-129043681D01*
X132084508Y-129043684D01*
X132287750Y-129192707D01*
X132291524Y-129195474D01*
X132295667Y-129197654D01*
X132295669Y-129197655D01*
X132518684Y-129314989D01*
X132518689Y-129314991D01*
X132522834Y-129317172D01*
X132769590Y-129403344D01*
X132774183Y-129404216D01*
X133021785Y-129451224D01*
X133021788Y-129451224D01*
X133026374Y-129452095D01*
X133156959Y-129457226D01*
X133282875Y-129462174D01*
X133282881Y-129462174D01*
X133287543Y-129462357D01*
X133366977Y-129453657D01*
X133542707Y-129434412D01*
X133542712Y-129434411D01*
X133547360Y-129433902D01*
X133660116Y-129404216D01*
X133795594Y-129368548D01*
X133795596Y-129368547D01*
X133800117Y-129367357D01*
X134040262Y-129264182D01*
X134262519Y-129126646D01*
X134266082Y-129123629D01*
X134266087Y-129123626D01*
X134458439Y-128960787D01*
X134458440Y-128960786D01*
X134462005Y-128957768D01*
X134553729Y-128853177D01*
X134631257Y-128764774D01*
X134631261Y-128764769D01*
X134634339Y-128761259D01*
X134705892Y-128650018D01*
X134773205Y-128545367D01*
X134775733Y-128541437D01*
X134883083Y-128303129D01*
X134927124Y-128146974D01*
X134952760Y-128056076D01*
X134952761Y-128056073D01*
X134954030Y-128051572D01*
X134970832Y-127919496D01*
X134986616Y-127795421D01*
X134986616Y-127795417D01*
X134987014Y-127792291D01*
X134987933Y-127757222D01*
X134989348Y-127703160D01*
X134989431Y-127700000D01*
X134986001Y-127653839D01*
X135273173Y-127653839D01*
X135273397Y-127658505D01*
X135273397Y-127658511D01*
X135275542Y-127703160D01*
X135285713Y-127914908D01*
X135336704Y-128171256D01*
X135425026Y-128417252D01*
X135427242Y-128421376D01*
X135491753Y-128541437D01*
X135548737Y-128647491D01*
X135551532Y-128651234D01*
X135551534Y-128651237D01*
X135702330Y-128853177D01*
X135702335Y-128853183D01*
X135705122Y-128856915D01*
X135708431Y-128860195D01*
X135708436Y-128860201D01*
X135882119Y-129032374D01*
X135890743Y-129040923D01*
X135894505Y-129043681D01*
X135894508Y-129043684D01*
X136097750Y-129192707D01*
X136101524Y-129195474D01*
X136105667Y-129197654D01*
X136105669Y-129197655D01*
X136328684Y-129314989D01*
X136328689Y-129314991D01*
X136332834Y-129317172D01*
X136579590Y-129403344D01*
X136584183Y-129404216D01*
X136831785Y-129451224D01*
X136831788Y-129451224D01*
X136836374Y-129452095D01*
X136966959Y-129457226D01*
X137092875Y-129462174D01*
X137092881Y-129462174D01*
X137097543Y-129462357D01*
X137176977Y-129453657D01*
X137352707Y-129434412D01*
X137352712Y-129434411D01*
X137357360Y-129433902D01*
X137470116Y-129404216D01*
X137605594Y-129368548D01*
X137605596Y-129368547D01*
X137610117Y-129367357D01*
X137850262Y-129264182D01*
X138072519Y-129126646D01*
X138076082Y-129123629D01*
X138076087Y-129123626D01*
X138268439Y-128960787D01*
X138268440Y-128960786D01*
X138272005Y-128957768D01*
X138363729Y-128853177D01*
X138441257Y-128764774D01*
X138441261Y-128764769D01*
X138444339Y-128761259D01*
X138515892Y-128650018D01*
X138583205Y-128545367D01*
X138585733Y-128541437D01*
X138693083Y-128303129D01*
X138737124Y-128146974D01*
X138762760Y-128056076D01*
X138762761Y-128056073D01*
X138764030Y-128051572D01*
X138780832Y-127919496D01*
X138796616Y-127795421D01*
X138796616Y-127795417D01*
X138797014Y-127792291D01*
X138797933Y-127757222D01*
X138799348Y-127703160D01*
X138799431Y-127700000D01*
X138780061Y-127439348D01*
X138768725Y-127389248D01*
X138723408Y-127188980D01*
X138722377Y-127184423D01*
X138703603Y-127136146D01*
X138629340Y-126945176D01*
X138629339Y-126945173D01*
X138627647Y-126940823D01*
X138497951Y-126713902D01*
X138336138Y-126508643D01*
X138145763Y-126329557D01*
X137931009Y-126180576D01*
X137926816Y-126178508D01*
X137700781Y-126067040D01*
X137700778Y-126067039D01*
X137696593Y-126064975D01*
X137650449Y-126050204D01*
X137452123Y-125986720D01*
X137447665Y-125985293D01*
X137189693Y-125943279D01*
X137075942Y-125941790D01*
X136933022Y-125939919D01*
X136933019Y-125939919D01*
X136928345Y-125939858D01*
X136669362Y-125975104D01*
X136418433Y-126048243D01*
X136414180Y-126050203D01*
X136414179Y-126050204D01*
X136377659Y-126067040D01*
X136181072Y-126157668D01*
X136142067Y-126183241D01*
X135966404Y-126298410D01*
X135966399Y-126298414D01*
X135962491Y-126300976D01*
X135767494Y-126475018D01*
X135600363Y-126675970D01*
X135464771Y-126899419D01*
X135363697Y-127140455D01*
X135299359Y-127393783D01*
X135273173Y-127653839D01*
X134986001Y-127653839D01*
X134970061Y-127439348D01*
X134958725Y-127389248D01*
X134913408Y-127188980D01*
X134912377Y-127184423D01*
X134893603Y-127136146D01*
X134819340Y-126945176D01*
X134819339Y-126945173D01*
X134817647Y-126940823D01*
X134687951Y-126713902D01*
X134526138Y-126508643D01*
X134335763Y-126329557D01*
X134121009Y-126180576D01*
X134116816Y-126178508D01*
X133890781Y-126067040D01*
X133890778Y-126067039D01*
X133886593Y-126064975D01*
X133840449Y-126050204D01*
X133642123Y-125986720D01*
X133637665Y-125985293D01*
X133379693Y-125943279D01*
X133265942Y-125941790D01*
X133123022Y-125939919D01*
X133123019Y-125939919D01*
X133118345Y-125939858D01*
X132859362Y-125975104D01*
X132608433Y-126048243D01*
X132604180Y-126050203D01*
X132604179Y-126050204D01*
X132567659Y-126067040D01*
X132371072Y-126157668D01*
X132332067Y-126183241D01*
X132156404Y-126298410D01*
X132156399Y-126298414D01*
X132152491Y-126300976D01*
X131957494Y-126475018D01*
X131790363Y-126675970D01*
X131654771Y-126899419D01*
X131553697Y-127140455D01*
X131489359Y-127393783D01*
X131463173Y-127653839D01*
X131176001Y-127653839D01*
X131160061Y-127439348D01*
X131148725Y-127389248D01*
X131103408Y-127188980D01*
X131102377Y-127184423D01*
X131083603Y-127136146D01*
X131009340Y-126945176D01*
X131009339Y-126945173D01*
X131007647Y-126940823D01*
X130877951Y-126713902D01*
X130716138Y-126508643D01*
X130525763Y-126329557D01*
X130311009Y-126180576D01*
X130306816Y-126178508D01*
X130080781Y-126067040D01*
X130080778Y-126067039D01*
X130076593Y-126064975D01*
X130030449Y-126050204D01*
X129832123Y-125986720D01*
X129827665Y-125985293D01*
X129569693Y-125943279D01*
X129455942Y-125941790D01*
X129313022Y-125939919D01*
X129313019Y-125939919D01*
X129308345Y-125939858D01*
X129049362Y-125975104D01*
X128798433Y-126048243D01*
X128794180Y-126050203D01*
X128794179Y-126050204D01*
X128757659Y-126067040D01*
X128561072Y-126157668D01*
X128522067Y-126183241D01*
X128346404Y-126298410D01*
X128346399Y-126298414D01*
X128342491Y-126300976D01*
X128147494Y-126475018D01*
X127980363Y-126675970D01*
X127844771Y-126899419D01*
X127743697Y-127140455D01*
X127679359Y-127393783D01*
X127653173Y-127653839D01*
X126402397Y-127653839D01*
X126360044Y-127367028D01*
X126265376Y-126987334D01*
X126134107Y-126618689D01*
X125967492Y-126264614D01*
X125938167Y-126215420D01*
X125775901Y-125943218D01*
X125767120Y-125928487D01*
X125534905Y-125613517D01*
X125273061Y-125322711D01*
X124984090Y-125058844D01*
X124670749Y-124824435D01*
X124502611Y-124722607D01*
X124338658Y-124623313D01*
X124338649Y-124623308D01*
X124336030Y-124621722D01*
X124081978Y-124500000D01*
X130007502Y-124500000D01*
X130027457Y-124728087D01*
X130028881Y-124733400D01*
X130028881Y-124733402D01*
X130053274Y-124824435D01*
X130086716Y-124949243D01*
X130089039Y-124954224D01*
X130089039Y-124954225D01*
X130181151Y-125151762D01*
X130181154Y-125151767D01*
X130183477Y-125156749D01*
X130314802Y-125344300D01*
X130476700Y-125506198D01*
X130481208Y-125509355D01*
X130481211Y-125509357D01*
X130559389Y-125564098D01*
X130664251Y-125637523D01*
X130669233Y-125639846D01*
X130669238Y-125639849D01*
X130866775Y-125731961D01*
X130871757Y-125734284D01*
X130877065Y-125735706D01*
X130877067Y-125735707D01*
X131087598Y-125792119D01*
X131087600Y-125792119D01*
X131092913Y-125793543D01*
X131192480Y-125802254D01*
X131261149Y-125808262D01*
X131261156Y-125808262D01*
X131263873Y-125808500D01*
X131378127Y-125808500D01*
X131380844Y-125808262D01*
X131380851Y-125808262D01*
X131449520Y-125802254D01*
X131549087Y-125793543D01*
X131554400Y-125792119D01*
X131554402Y-125792119D01*
X131764933Y-125735707D01*
X131764935Y-125735706D01*
X131770243Y-125734284D01*
X131775225Y-125731961D01*
X131972762Y-125639849D01*
X131972767Y-125639846D01*
X131977749Y-125637523D01*
X132082611Y-125564098D01*
X132160789Y-125509357D01*
X132160792Y-125509355D01*
X132165300Y-125506198D01*
X132327198Y-125344300D01*
X132458523Y-125156749D01*
X132460846Y-125151767D01*
X132460849Y-125151762D01*
X132552961Y-124954225D01*
X132552961Y-124954224D01*
X132555284Y-124949243D01*
X132588727Y-124824435D01*
X132613119Y-124733402D01*
X132613119Y-124733400D01*
X132614543Y-124728087D01*
X132634498Y-124500000D01*
X132614543Y-124271913D01*
X132613119Y-124266598D01*
X132556707Y-124056067D01*
X132556706Y-124056065D01*
X132555284Y-124050757D01*
X132552961Y-124045775D01*
X132460849Y-123848238D01*
X132460846Y-123848233D01*
X132458523Y-123843251D01*
X132327198Y-123655700D01*
X132165300Y-123493802D01*
X132160792Y-123490645D01*
X132160789Y-123490643D01*
X132082611Y-123435902D01*
X131977749Y-123362477D01*
X131972767Y-123360154D01*
X131972762Y-123360151D01*
X131775225Y-123268039D01*
X131775224Y-123268039D01*
X131770243Y-123265716D01*
X131764935Y-123264294D01*
X131764933Y-123264293D01*
X131554402Y-123207881D01*
X131554400Y-123207881D01*
X131549087Y-123206457D01*
X131449520Y-123197746D01*
X131380851Y-123191738D01*
X131380844Y-123191738D01*
X131378127Y-123191500D01*
X131263873Y-123191500D01*
X131261156Y-123191738D01*
X131261149Y-123191738D01*
X131192480Y-123197746D01*
X131092913Y-123206457D01*
X131087600Y-123207881D01*
X131087598Y-123207881D01*
X130877067Y-123264293D01*
X130877065Y-123264294D01*
X130871757Y-123265716D01*
X130866776Y-123268039D01*
X130866775Y-123268039D01*
X130669238Y-123360151D01*
X130669233Y-123360154D01*
X130664251Y-123362477D01*
X130559389Y-123435902D01*
X130481211Y-123490643D01*
X130481208Y-123490645D01*
X130476700Y-123493802D01*
X130314802Y-123655700D01*
X130183477Y-123843251D01*
X130181154Y-123848233D01*
X130181151Y-123848238D01*
X130089039Y-124045775D01*
X130086716Y-124050757D01*
X130085294Y-124056065D01*
X130085293Y-124056067D01*
X130028881Y-124266598D01*
X130027457Y-124271913D01*
X130007502Y-124500000D01*
X124081978Y-124500000D01*
X123983126Y-124452638D01*
X123980237Y-124451586D01*
X123980231Y-124451584D01*
X123618306Y-124319855D01*
X123618303Y-124319854D01*
X123615407Y-124318800D01*
X123338326Y-124247658D01*
X123239366Y-124222249D01*
X123239363Y-124222248D01*
X123236382Y-124221483D01*
X122849670Y-124161617D01*
X122846613Y-124161446D01*
X122846612Y-124161446D01*
X122816120Y-124159741D01*
X122458962Y-124139773D01*
X122455883Y-124139902D01*
X122455880Y-124139902D01*
X122199770Y-124150636D01*
X122067987Y-124156159D01*
X122064943Y-124156587D01*
X122064941Y-124156587D01*
X122030368Y-124161446D01*
X121680477Y-124210620D01*
X121300131Y-124302636D01*
X120930579Y-124431327D01*
X120927781Y-124432620D01*
X120578146Y-124594174D01*
X120578136Y-124594179D01*
X120575349Y-124595467D01*
X120466829Y-124659135D01*
X120240486Y-124791929D01*
X120240481Y-124791932D01*
X120237831Y-124793487D01*
X120197433Y-124822838D01*
X119923730Y-125021694D01*
X119923721Y-125021701D01*
X119921248Y-125023498D01*
X119918958Y-125025531D01*
X119918952Y-125025536D01*
X119630924Y-125281260D01*
X119628621Y-125283305D01*
X119362743Y-125570427D01*
X119360888Y-125572871D01*
X119194470Y-125792119D01*
X119126152Y-125882124D01*
X119090634Y-125939858D01*
X118940904Y-126183241D01*
X118921107Y-126215420D01*
X118749564Y-126567135D01*
X118613162Y-126933910D01*
X118513201Y-127312246D01*
X118504328Y-127367028D01*
X118457119Y-127658511D01*
X118450637Y-127698531D01*
X118450443Y-127701611D01*
X118450443Y-127701613D01*
X118428717Y-128046934D01*
X118426065Y-128089077D01*
X118113000Y-128089077D01*
X118113000Y-119288839D01*
X129129173Y-119288839D01*
X129141713Y-119549908D01*
X129192704Y-119806256D01*
X129281026Y-120052252D01*
X129283242Y-120056376D01*
X129347753Y-120176437D01*
X129404737Y-120282491D01*
X129407532Y-120286234D01*
X129407534Y-120286237D01*
X129558330Y-120488177D01*
X129558335Y-120488183D01*
X129561122Y-120491915D01*
X129564431Y-120495195D01*
X129564436Y-120495201D01*
X129743426Y-120672635D01*
X129746743Y-120675923D01*
X129750505Y-120678681D01*
X129750508Y-120678684D01*
X129953750Y-120827707D01*
X129957524Y-120830474D01*
X129961667Y-120832654D01*
X129961669Y-120832655D01*
X130184684Y-120949989D01*
X130184689Y-120949991D01*
X130188834Y-120952172D01*
X130435590Y-121038344D01*
X130440183Y-121039216D01*
X130687785Y-121086224D01*
X130687788Y-121086224D01*
X130692374Y-121087095D01*
X130822958Y-121092226D01*
X130948875Y-121097174D01*
X130948881Y-121097174D01*
X130953543Y-121097357D01*
X131032977Y-121088657D01*
X131208707Y-121069412D01*
X131208712Y-121069411D01*
X131213360Y-121068902D01*
X131326116Y-121039216D01*
X131461594Y-121003548D01*
X131461596Y-121003547D01*
X131466117Y-121002357D01*
X131706262Y-120899182D01*
X131928519Y-120761646D01*
X131932082Y-120758629D01*
X131932087Y-120758626D01*
X132124439Y-120595787D01*
X132124440Y-120595786D01*
X132128005Y-120592768D01*
X132219729Y-120488177D01*
X132297257Y-120399774D01*
X132297261Y-120399769D01*
X132300339Y-120396259D01*
X132441733Y-120176437D01*
X132549083Y-119938129D01*
X132620030Y-119686572D01*
X132636832Y-119554496D01*
X132652616Y-119430421D01*
X132652616Y-119430417D01*
X132653014Y-119427291D01*
X132655431Y-119335000D01*
X132636061Y-119074348D01*
X132624725Y-119024248D01*
X132579408Y-118823980D01*
X132578377Y-118819423D01*
X132546908Y-118738500D01*
X132485340Y-118580176D01*
X132485339Y-118580173D01*
X132483647Y-118575823D01*
X132353951Y-118348902D01*
X132192138Y-118143643D01*
X132001763Y-117964557D01*
X131787009Y-117815576D01*
X131782816Y-117813508D01*
X131556781Y-117702040D01*
X131556778Y-117702039D01*
X131552593Y-117699975D01*
X131506449Y-117685204D01*
X131308123Y-117621720D01*
X131303665Y-117620293D01*
X131045693Y-117578279D01*
X130931942Y-117576790D01*
X130789022Y-117574919D01*
X130789019Y-117574919D01*
X130784345Y-117574858D01*
X130525362Y-117610104D01*
X130274433Y-117683243D01*
X130270180Y-117685203D01*
X130270179Y-117685204D01*
X130233659Y-117702040D01*
X130037072Y-117792668D01*
X129998067Y-117818241D01*
X129822404Y-117933410D01*
X129822399Y-117933414D01*
X129818491Y-117935976D01*
X129623494Y-118110018D01*
X129456363Y-118310970D01*
X129453934Y-118314973D01*
X129382738Y-118432301D01*
X129320771Y-118534419D01*
X129219697Y-118775455D01*
X129155359Y-119028783D01*
X129129173Y-119288839D01*
X118113000Y-119288839D01*
X118113000Y-117430000D01*
X132778502Y-117430000D01*
X132798457Y-117658087D01*
X132799881Y-117663400D01*
X132799881Y-117663402D01*
X132809300Y-117698552D01*
X132857716Y-117879243D01*
X132860039Y-117884224D01*
X132860039Y-117884225D01*
X132952151Y-118081762D01*
X132952154Y-118081767D01*
X132954477Y-118086749D01*
X133085802Y-118274300D01*
X133247700Y-118436198D01*
X133252208Y-118439355D01*
X133252211Y-118439357D01*
X133330389Y-118494098D01*
X133435251Y-118567523D01*
X133440233Y-118569846D01*
X133440238Y-118569849D01*
X133637775Y-118661961D01*
X133642757Y-118664284D01*
X133648065Y-118665706D01*
X133648067Y-118665707D01*
X133858598Y-118722119D01*
X133858600Y-118722119D01*
X133863913Y-118723543D01*
X133963480Y-118732254D01*
X134032149Y-118738262D01*
X134032156Y-118738262D01*
X134034873Y-118738500D01*
X134149127Y-118738500D01*
X134151844Y-118738262D01*
X134151851Y-118738262D01*
X134220520Y-118732254D01*
X134320087Y-118723543D01*
X134325400Y-118722119D01*
X134325402Y-118722119D01*
X134535933Y-118665707D01*
X134535935Y-118665706D01*
X134541243Y-118664284D01*
X134546225Y-118661961D01*
X134743762Y-118569849D01*
X134743767Y-118569846D01*
X134748749Y-118567523D01*
X134853611Y-118494098D01*
X134931789Y-118439357D01*
X134931792Y-118439355D01*
X134936300Y-118436198D01*
X135098198Y-118274300D01*
X135229523Y-118086749D01*
X135231846Y-118081767D01*
X135231849Y-118081762D01*
X135323961Y-117884225D01*
X135323961Y-117884224D01*
X135326284Y-117879243D01*
X135374701Y-117698552D01*
X135384119Y-117663402D01*
X135384119Y-117663400D01*
X135385543Y-117658087D01*
X135405498Y-117430000D01*
X135385543Y-117201913D01*
X135383302Y-117193548D01*
X135327707Y-116986067D01*
X135327706Y-116986065D01*
X135326284Y-116980757D01*
X135313856Y-116954104D01*
X135231849Y-116778238D01*
X135231846Y-116778233D01*
X135229523Y-116773251D01*
X135098198Y-116585700D01*
X134936300Y-116423802D01*
X134931792Y-116420645D01*
X134931789Y-116420643D01*
X134848289Y-116362176D01*
X134748749Y-116292477D01*
X134743767Y-116290154D01*
X134743762Y-116290151D01*
X134546225Y-116198039D01*
X134546224Y-116198039D01*
X134541243Y-116195716D01*
X134535935Y-116194294D01*
X134535933Y-116194293D01*
X134325402Y-116137881D01*
X134325400Y-116137881D01*
X134320087Y-116136457D01*
X134220520Y-116127746D01*
X134151851Y-116121738D01*
X134151844Y-116121738D01*
X134149127Y-116121500D01*
X134034873Y-116121500D01*
X134032156Y-116121738D01*
X134032149Y-116121738D01*
X133963480Y-116127746D01*
X133863913Y-116136457D01*
X133858600Y-116137881D01*
X133858598Y-116137881D01*
X133648067Y-116194293D01*
X133648065Y-116194294D01*
X133642757Y-116195716D01*
X133637776Y-116198039D01*
X133637775Y-116198039D01*
X133440238Y-116290151D01*
X133440233Y-116290154D01*
X133435251Y-116292477D01*
X133335711Y-116362176D01*
X133252211Y-116420643D01*
X133252208Y-116420645D01*
X133247700Y-116423802D01*
X133085802Y-116585700D01*
X132954477Y-116773251D01*
X132952154Y-116778233D01*
X132952151Y-116778238D01*
X132870144Y-116954104D01*
X132857716Y-116980757D01*
X132856294Y-116986065D01*
X132856293Y-116986067D01*
X132800698Y-117193548D01*
X132798457Y-117201913D01*
X132778502Y-117430000D01*
X118113000Y-117430000D01*
X118113000Y-115478839D01*
X129129173Y-115478839D01*
X129141713Y-115739908D01*
X129192704Y-115996256D01*
X129281026Y-116242252D01*
X129283242Y-116246376D01*
X129380670Y-116427699D01*
X129404737Y-116472491D01*
X129407532Y-116476234D01*
X129407534Y-116476237D01*
X129558330Y-116678177D01*
X129558335Y-116678183D01*
X129561122Y-116681915D01*
X129564431Y-116685195D01*
X129564436Y-116685201D01*
X129743426Y-116862635D01*
X129746743Y-116865923D01*
X129750505Y-116868681D01*
X129750508Y-116868684D01*
X129953750Y-117017707D01*
X129957524Y-117020474D01*
X129961667Y-117022654D01*
X129961669Y-117022655D01*
X130184684Y-117139989D01*
X130184689Y-117139991D01*
X130188834Y-117142172D01*
X130435590Y-117228344D01*
X130440183Y-117229216D01*
X130687785Y-117276224D01*
X130687788Y-117276224D01*
X130692374Y-117277095D01*
X130822958Y-117282226D01*
X130948875Y-117287174D01*
X130948881Y-117287174D01*
X130953543Y-117287357D01*
X131032977Y-117278657D01*
X131208707Y-117259412D01*
X131208712Y-117259411D01*
X131213360Y-117258902D01*
X131326116Y-117229216D01*
X131461594Y-117193548D01*
X131461596Y-117193547D01*
X131466117Y-117192357D01*
X131706262Y-117089182D01*
X131928519Y-116951646D01*
X131932082Y-116948629D01*
X131932087Y-116948626D01*
X132124439Y-116785787D01*
X132124440Y-116785786D01*
X132128005Y-116782768D01*
X132219729Y-116678177D01*
X132297257Y-116589774D01*
X132297261Y-116589769D01*
X132300339Y-116586259D01*
X132441733Y-116366437D01*
X132549083Y-116128129D01*
X132620030Y-115876572D01*
X132636832Y-115744496D01*
X132652616Y-115620421D01*
X132652616Y-115620417D01*
X132653014Y-115617291D01*
X132655431Y-115525000D01*
X132636061Y-115264348D01*
X132624725Y-115214248D01*
X132579408Y-115013980D01*
X132578377Y-115009423D01*
X132546908Y-114928500D01*
X132485340Y-114770176D01*
X132485339Y-114770173D01*
X132483647Y-114765823D01*
X132353951Y-114538902D01*
X132192138Y-114333643D01*
X132001763Y-114154557D01*
X131787009Y-114005576D01*
X131782816Y-114003508D01*
X131556781Y-113892040D01*
X131556778Y-113892039D01*
X131552593Y-113889975D01*
X131506449Y-113875204D01*
X131308123Y-113811720D01*
X131303665Y-113810293D01*
X131045693Y-113768279D01*
X130931942Y-113766790D01*
X130789022Y-113764919D01*
X130789019Y-113764919D01*
X130784345Y-113764858D01*
X130525362Y-113800104D01*
X130274433Y-113873243D01*
X130270180Y-113875203D01*
X130270179Y-113875204D01*
X130233659Y-113892040D01*
X130037072Y-113982668D01*
X129998067Y-114008241D01*
X129822404Y-114123410D01*
X129822399Y-114123414D01*
X129818491Y-114125976D01*
X129623494Y-114300018D01*
X129456363Y-114500970D01*
X129453934Y-114504973D01*
X129382738Y-114622301D01*
X129320771Y-114724419D01*
X129219697Y-114965455D01*
X129155359Y-115218783D01*
X129129173Y-115478839D01*
X118113000Y-115478839D01*
X118113000Y-113620000D01*
X126378502Y-113620000D01*
X126398457Y-113848087D01*
X126399881Y-113853400D01*
X126399881Y-113853402D01*
X126409300Y-113888552D01*
X126457716Y-114069243D01*
X126460039Y-114074224D01*
X126460039Y-114074225D01*
X126552151Y-114271762D01*
X126552154Y-114271767D01*
X126554477Y-114276749D01*
X126685802Y-114464300D01*
X126847700Y-114626198D01*
X126852208Y-114629355D01*
X126852211Y-114629357D01*
X126930389Y-114684098D01*
X127035251Y-114757523D01*
X127040233Y-114759846D01*
X127040238Y-114759849D01*
X127237775Y-114851961D01*
X127242757Y-114854284D01*
X127248065Y-114855706D01*
X127248067Y-114855707D01*
X127458598Y-114912119D01*
X127458600Y-114912119D01*
X127463913Y-114913543D01*
X127563480Y-114922254D01*
X127632149Y-114928262D01*
X127632156Y-114928262D01*
X127634873Y-114928500D01*
X127749127Y-114928500D01*
X127751844Y-114928262D01*
X127751851Y-114928262D01*
X127820520Y-114922254D01*
X127920087Y-114913543D01*
X127925400Y-114912119D01*
X127925402Y-114912119D01*
X128135933Y-114855707D01*
X128135935Y-114855706D01*
X128141243Y-114854284D01*
X128146225Y-114851961D01*
X128343762Y-114759849D01*
X128343767Y-114759846D01*
X128348749Y-114757523D01*
X128453611Y-114684098D01*
X128531789Y-114629357D01*
X128531792Y-114629355D01*
X128536300Y-114626198D01*
X128698198Y-114464300D01*
X128829523Y-114276749D01*
X128831846Y-114271767D01*
X128831849Y-114271762D01*
X128923961Y-114074225D01*
X128923961Y-114074224D01*
X128926284Y-114069243D01*
X128974701Y-113888552D01*
X128984119Y-113853402D01*
X128984119Y-113853400D01*
X128985543Y-113848087D01*
X129005498Y-113620000D01*
X128985543Y-113391913D01*
X128983302Y-113383548D01*
X128927707Y-113176067D01*
X128927706Y-113176065D01*
X128926284Y-113170757D01*
X128913856Y-113144104D01*
X128831849Y-112968238D01*
X128831846Y-112968233D01*
X128829523Y-112963251D01*
X128698198Y-112775700D01*
X128536300Y-112613802D01*
X128531792Y-112610645D01*
X128531789Y-112610643D01*
X128448289Y-112552176D01*
X128348749Y-112482477D01*
X128343767Y-112480154D01*
X128343762Y-112480151D01*
X128146225Y-112388039D01*
X128146224Y-112388039D01*
X128141243Y-112385716D01*
X128135935Y-112384294D01*
X128135933Y-112384293D01*
X127925402Y-112327881D01*
X127925400Y-112327881D01*
X127920087Y-112326457D01*
X127820520Y-112317746D01*
X127751851Y-112311738D01*
X127751844Y-112311738D01*
X127749127Y-112311500D01*
X127634873Y-112311500D01*
X127632156Y-112311738D01*
X127632149Y-112311738D01*
X127563480Y-112317746D01*
X127463913Y-112326457D01*
X127458600Y-112327881D01*
X127458598Y-112327881D01*
X127248067Y-112384293D01*
X127248065Y-112384294D01*
X127242757Y-112385716D01*
X127237776Y-112388039D01*
X127237775Y-112388039D01*
X127040238Y-112480151D01*
X127040233Y-112480154D01*
X127035251Y-112482477D01*
X126935711Y-112552176D01*
X126852211Y-112610643D01*
X126852208Y-112610645D01*
X126847700Y-112613802D01*
X126685802Y-112775700D01*
X126554477Y-112963251D01*
X126552154Y-112968233D01*
X126552151Y-112968238D01*
X126470144Y-113144104D01*
X126457716Y-113170757D01*
X126456294Y-113176065D01*
X126456293Y-113176067D01*
X126400698Y-113383548D01*
X126398457Y-113391913D01*
X126378502Y-113620000D01*
X118113000Y-113620000D01*
X118113000Y-111668839D01*
X129129173Y-111668839D01*
X129141713Y-111929908D01*
X129192704Y-112186256D01*
X129281026Y-112432252D01*
X129283242Y-112436376D01*
X129380670Y-112617699D01*
X129404737Y-112662491D01*
X129407532Y-112666234D01*
X129407534Y-112666237D01*
X129558330Y-112868177D01*
X129558335Y-112868183D01*
X129561122Y-112871915D01*
X129564431Y-112875195D01*
X129564436Y-112875201D01*
X129743426Y-113052635D01*
X129746743Y-113055923D01*
X129750505Y-113058681D01*
X129750508Y-113058684D01*
X129953750Y-113207707D01*
X129957524Y-113210474D01*
X129961667Y-113212654D01*
X129961669Y-113212655D01*
X130184684Y-113329989D01*
X130184689Y-113329991D01*
X130188834Y-113332172D01*
X130435590Y-113418344D01*
X130440183Y-113419216D01*
X130687785Y-113466224D01*
X130687788Y-113466224D01*
X130692374Y-113467095D01*
X130822959Y-113472226D01*
X130948875Y-113477174D01*
X130948881Y-113477174D01*
X130953543Y-113477357D01*
X131032977Y-113468657D01*
X131208707Y-113449412D01*
X131208712Y-113449411D01*
X131213360Y-113448902D01*
X131326116Y-113419216D01*
X131461594Y-113383548D01*
X131461596Y-113383547D01*
X131466117Y-113382357D01*
X131706262Y-113279182D01*
X131928519Y-113141646D01*
X131932082Y-113138629D01*
X131932087Y-113138626D01*
X132124439Y-112975787D01*
X132124440Y-112975786D01*
X132128005Y-112972768D01*
X132219729Y-112868177D01*
X132297257Y-112779774D01*
X132297261Y-112779769D01*
X132300339Y-112776259D01*
X132441733Y-112556437D01*
X132549083Y-112318129D01*
X132620030Y-112066572D01*
X132636832Y-111934496D01*
X132652616Y-111810421D01*
X132652616Y-111810417D01*
X132653014Y-111807291D01*
X132655431Y-111715000D01*
X132636061Y-111454348D01*
X132624725Y-111404248D01*
X132579408Y-111203980D01*
X132578377Y-111199423D01*
X132546908Y-111118500D01*
X132485340Y-110960176D01*
X132485339Y-110960173D01*
X132483647Y-110955823D01*
X132353951Y-110728902D01*
X132192138Y-110523643D01*
X132001763Y-110344557D01*
X131787009Y-110195576D01*
X131782816Y-110193508D01*
X131556781Y-110082040D01*
X131556778Y-110082039D01*
X131552593Y-110079975D01*
X131506449Y-110065204D01*
X131308123Y-110001720D01*
X131303665Y-110000293D01*
X131045693Y-109958279D01*
X130931942Y-109956790D01*
X130789022Y-109954919D01*
X130789019Y-109954919D01*
X130784345Y-109954858D01*
X130525362Y-109990104D01*
X130274433Y-110063243D01*
X130270180Y-110065203D01*
X130270179Y-110065204D01*
X130233659Y-110082040D01*
X130037072Y-110172668D01*
X129998067Y-110198241D01*
X129822404Y-110313410D01*
X129822399Y-110313414D01*
X129818491Y-110315976D01*
X129623494Y-110490018D01*
X129456363Y-110690970D01*
X129453934Y-110694973D01*
X129382738Y-110812301D01*
X129320771Y-110914419D01*
X129219697Y-111155455D01*
X129155359Y-111408783D01*
X129129173Y-111668839D01*
X118113000Y-111668839D01*
X118113000Y-109810000D01*
X132778502Y-109810000D01*
X132798457Y-110038087D01*
X132799881Y-110043400D01*
X132799881Y-110043402D01*
X132809300Y-110078552D01*
X132857716Y-110259243D01*
X132860039Y-110264224D01*
X132860039Y-110264225D01*
X132952151Y-110461762D01*
X132952154Y-110461767D01*
X132954477Y-110466749D01*
X133085802Y-110654300D01*
X133247700Y-110816198D01*
X133252208Y-110819355D01*
X133252211Y-110819357D01*
X133330389Y-110874098D01*
X133435251Y-110947523D01*
X133440233Y-110949846D01*
X133440238Y-110949849D01*
X133637775Y-111041961D01*
X133642757Y-111044284D01*
X133648065Y-111045706D01*
X133648067Y-111045707D01*
X133858598Y-111102119D01*
X133858600Y-111102119D01*
X133863913Y-111103543D01*
X133963480Y-111112254D01*
X134032149Y-111118262D01*
X134032156Y-111118262D01*
X134034873Y-111118500D01*
X134149127Y-111118500D01*
X134151844Y-111118262D01*
X134151851Y-111118262D01*
X134220520Y-111112254D01*
X134320087Y-111103543D01*
X134325400Y-111102119D01*
X134325402Y-111102119D01*
X134535933Y-111045707D01*
X134535935Y-111045706D01*
X134541243Y-111044284D01*
X134546225Y-111041961D01*
X134743762Y-110949849D01*
X134743767Y-110949846D01*
X134748749Y-110947523D01*
X134853611Y-110874098D01*
X134931789Y-110819357D01*
X134931792Y-110819355D01*
X134936300Y-110816198D01*
X135098198Y-110654300D01*
X135229523Y-110466749D01*
X135231846Y-110461767D01*
X135231849Y-110461762D01*
X135323961Y-110264225D01*
X135323961Y-110264224D01*
X135326284Y-110259243D01*
X135374701Y-110078552D01*
X135384119Y-110043402D01*
X135384119Y-110043400D01*
X135385543Y-110038087D01*
X135405498Y-109810000D01*
X135385543Y-109581913D01*
X135355830Y-109471024D01*
X135327707Y-109366067D01*
X135327706Y-109366065D01*
X135326284Y-109360757D01*
X135311301Y-109328625D01*
X135231849Y-109158238D01*
X135231846Y-109158233D01*
X135229523Y-109153251D01*
X135098198Y-108965700D01*
X134936300Y-108803802D01*
X134931792Y-108800645D01*
X134931789Y-108800643D01*
X134848288Y-108742175D01*
X134748749Y-108672477D01*
X134743767Y-108670154D01*
X134743762Y-108670151D01*
X134546225Y-108578039D01*
X134546224Y-108578039D01*
X134541243Y-108575716D01*
X134535935Y-108574294D01*
X134535933Y-108574293D01*
X134325402Y-108517881D01*
X134325400Y-108517881D01*
X134320087Y-108516457D01*
X134220520Y-108507746D01*
X134151851Y-108501738D01*
X134151844Y-108501738D01*
X134149127Y-108501500D01*
X134034873Y-108501500D01*
X134032156Y-108501738D01*
X134032149Y-108501738D01*
X133963480Y-108507746D01*
X133863913Y-108516457D01*
X133858600Y-108517881D01*
X133858598Y-108517881D01*
X133648067Y-108574293D01*
X133648065Y-108574294D01*
X133642757Y-108575716D01*
X133637776Y-108578039D01*
X133637775Y-108578039D01*
X133440238Y-108670151D01*
X133440233Y-108670154D01*
X133435251Y-108672477D01*
X133335712Y-108742175D01*
X133252211Y-108800643D01*
X133252208Y-108800645D01*
X133247700Y-108803802D01*
X133085802Y-108965700D01*
X132954477Y-109153251D01*
X132952154Y-109158233D01*
X132952151Y-109158238D01*
X132872699Y-109328625D01*
X132857716Y-109360757D01*
X132856294Y-109366065D01*
X132856293Y-109366067D01*
X132828170Y-109471024D01*
X132798457Y-109581913D01*
X132778502Y-109810000D01*
X118113000Y-109810000D01*
X118113000Y-107858838D01*
X129129173Y-107858838D01*
X129141713Y-108119907D01*
X129192704Y-108376255D01*
X129281026Y-108622251D01*
X129283242Y-108626375D01*
X129347753Y-108746436D01*
X129404737Y-108852490D01*
X129407532Y-108856233D01*
X129407534Y-108856236D01*
X129558330Y-109058176D01*
X129558335Y-109058182D01*
X129561122Y-109061914D01*
X129564431Y-109065194D01*
X129564436Y-109065200D01*
X129743426Y-109242634D01*
X129746743Y-109245922D01*
X129750505Y-109248680D01*
X129750508Y-109248683D01*
X129903358Y-109360757D01*
X129957524Y-109400473D01*
X129961667Y-109402653D01*
X129961669Y-109402654D01*
X130184684Y-109519988D01*
X130184689Y-109519990D01*
X130188834Y-109522171D01*
X130435590Y-109608343D01*
X130440183Y-109609215D01*
X130687785Y-109656223D01*
X130687788Y-109656223D01*
X130692374Y-109657094D01*
X130822958Y-109662225D01*
X130948875Y-109667173D01*
X130948881Y-109667173D01*
X130953543Y-109667356D01*
X131032977Y-109658656D01*
X131208707Y-109639411D01*
X131208712Y-109639410D01*
X131213360Y-109638901D01*
X131326116Y-109609215D01*
X131461594Y-109573547D01*
X131461596Y-109573546D01*
X131466117Y-109572356D01*
X131706262Y-109469181D01*
X131928519Y-109331645D01*
X131932082Y-109328628D01*
X131932087Y-109328625D01*
X132124439Y-109165786D01*
X132124440Y-109165785D01*
X132128005Y-109162767D01*
X132219729Y-109058176D01*
X132297257Y-108969773D01*
X132297261Y-108969768D01*
X132300339Y-108966258D01*
X132441733Y-108746436D01*
X132549083Y-108508128D01*
X132620030Y-108256571D01*
X132636832Y-108124495D01*
X132652616Y-108000420D01*
X132652616Y-108000416D01*
X132653014Y-107997290D01*
X132655431Y-107904999D01*
X132636061Y-107644347D01*
X132624725Y-107594247D01*
X132579408Y-107393979D01*
X132578377Y-107389422D01*
X132483647Y-107145822D01*
X132353951Y-106918901D01*
X132192138Y-106713642D01*
X132001763Y-106534556D01*
X131787009Y-106385575D01*
X131782816Y-106383507D01*
X131556781Y-106272039D01*
X131556778Y-106272038D01*
X131552593Y-106269974D01*
X131506449Y-106255203D01*
X131308123Y-106191719D01*
X131303665Y-106190292D01*
X131045693Y-106148278D01*
X130931942Y-106146789D01*
X130789022Y-106144918D01*
X130789019Y-106144918D01*
X130784345Y-106144857D01*
X130525362Y-106180103D01*
X130274433Y-106253242D01*
X130270180Y-106255202D01*
X130270179Y-106255203D01*
X130233659Y-106272039D01*
X130037072Y-106362667D01*
X129998067Y-106388240D01*
X129822404Y-106503409D01*
X129822399Y-106503413D01*
X129818491Y-106505975D01*
X129623494Y-106680017D01*
X129456363Y-106880969D01*
X129320771Y-107104418D01*
X129219697Y-107345454D01*
X129155359Y-107598782D01*
X129129173Y-107858838D01*
X118113000Y-107858838D01*
X118113000Y-104048840D01*
X129129173Y-104048840D01*
X129141713Y-104309909D01*
X129192704Y-104566257D01*
X129281026Y-104812253D01*
X129283242Y-104816377D01*
X129347753Y-104936438D01*
X129404737Y-105042492D01*
X129407532Y-105046235D01*
X129407534Y-105046238D01*
X129558330Y-105248178D01*
X129558335Y-105248184D01*
X129561122Y-105251916D01*
X129564431Y-105255196D01*
X129564436Y-105255202D01*
X129743426Y-105432636D01*
X129746743Y-105435924D01*
X129750505Y-105438682D01*
X129750508Y-105438685D01*
X129953750Y-105587708D01*
X129957524Y-105590475D01*
X129961667Y-105592655D01*
X129961669Y-105592656D01*
X130184684Y-105709990D01*
X130184689Y-105709992D01*
X130188834Y-105712173D01*
X130435590Y-105798345D01*
X130440183Y-105799217D01*
X130687785Y-105846225D01*
X130687788Y-105846225D01*
X130692374Y-105847096D01*
X130822959Y-105852227D01*
X130948875Y-105857175D01*
X130948881Y-105857175D01*
X130953543Y-105857358D01*
X131032977Y-105848658D01*
X131208707Y-105829413D01*
X131208712Y-105829412D01*
X131213360Y-105828903D01*
X131326116Y-105799217D01*
X131461594Y-105763549D01*
X131461596Y-105763548D01*
X131466117Y-105762358D01*
X131706262Y-105659183D01*
X131928519Y-105521647D01*
X131932082Y-105518630D01*
X131932087Y-105518627D01*
X132124439Y-105355788D01*
X132124440Y-105355787D01*
X132128005Y-105352769D01*
X132219729Y-105248178D01*
X132297257Y-105159775D01*
X132297261Y-105159770D01*
X132300339Y-105156260D01*
X132441733Y-104936438D01*
X132549083Y-104698130D01*
X132620030Y-104446573D01*
X132636832Y-104314497D01*
X132652616Y-104190422D01*
X132652616Y-104190418D01*
X132653014Y-104187292D01*
X132655431Y-104095001D01*
X132636061Y-103834349D01*
X132624725Y-103784249D01*
X132579408Y-103583981D01*
X132578377Y-103579424D01*
X132541091Y-103483543D01*
X132485340Y-103340177D01*
X132485339Y-103340174D01*
X132483647Y-103335824D01*
X132353951Y-103108903D01*
X132192138Y-102903644D01*
X132001763Y-102724558D01*
X131787009Y-102575577D01*
X131782816Y-102573509D01*
X131556781Y-102462041D01*
X131556778Y-102462040D01*
X131552593Y-102459976D01*
X131506449Y-102445205D01*
X131308123Y-102381721D01*
X131303665Y-102380294D01*
X131045693Y-102338280D01*
X130931942Y-102336791D01*
X130789022Y-102334920D01*
X130789019Y-102334920D01*
X130784345Y-102334859D01*
X130525362Y-102370105D01*
X130274433Y-102443244D01*
X130270180Y-102445204D01*
X130270179Y-102445205D01*
X130233659Y-102462041D01*
X130037072Y-102552669D01*
X129998067Y-102578242D01*
X129822404Y-102693411D01*
X129822399Y-102693415D01*
X129818491Y-102695977D01*
X129623494Y-102870019D01*
X129456363Y-103070971D01*
X129453934Y-103074974D01*
X129378457Y-103199357D01*
X129320771Y-103294420D01*
X129219697Y-103535456D01*
X129155359Y-103788784D01*
X129129173Y-104048840D01*
X118113000Y-104048840D01*
X118113000Y-102190000D01*
X132778502Y-102190000D01*
X132798457Y-102418087D01*
X132799881Y-102423400D01*
X132799881Y-102423402D01*
X132840657Y-102575577D01*
X132857716Y-102639243D01*
X132860039Y-102644224D01*
X132860039Y-102644225D01*
X132952151Y-102841762D01*
X132952154Y-102841767D01*
X132954477Y-102846749D01*
X133085802Y-103034300D01*
X133247700Y-103196198D01*
X133252208Y-103199355D01*
X133252211Y-103199357D01*
X133330389Y-103254098D01*
X133435251Y-103327523D01*
X133440233Y-103329846D01*
X133440238Y-103329849D01*
X133637775Y-103421961D01*
X133642757Y-103424284D01*
X133648065Y-103425706D01*
X133648067Y-103425707D01*
X133858598Y-103482119D01*
X133858600Y-103482119D01*
X133863913Y-103483543D01*
X133963480Y-103492254D01*
X134032149Y-103498262D01*
X134032156Y-103498262D01*
X134034873Y-103498500D01*
X134149127Y-103498500D01*
X134151844Y-103498262D01*
X134151851Y-103498262D01*
X134220520Y-103492254D01*
X134320087Y-103483543D01*
X134325400Y-103482119D01*
X134325402Y-103482119D01*
X134535933Y-103425707D01*
X134535935Y-103425706D01*
X134541243Y-103424284D01*
X134546225Y-103421961D01*
X134743762Y-103329849D01*
X134743767Y-103329846D01*
X134748749Y-103327523D01*
X134853611Y-103254098D01*
X134931789Y-103199357D01*
X134931792Y-103199355D01*
X134936300Y-103196198D01*
X135098198Y-103034300D01*
X135229523Y-102846749D01*
X135231846Y-102841767D01*
X135231849Y-102841762D01*
X135323961Y-102644225D01*
X135323961Y-102644224D01*
X135326284Y-102639243D01*
X135343344Y-102575577D01*
X135384119Y-102423402D01*
X135384119Y-102423400D01*
X135385543Y-102418087D01*
X135405498Y-102190000D01*
X135385543Y-101961913D01*
X135383302Y-101953548D01*
X135327707Y-101746067D01*
X135327706Y-101746065D01*
X135326284Y-101740757D01*
X135313856Y-101714104D01*
X135231849Y-101538238D01*
X135231846Y-101538233D01*
X135229523Y-101533251D01*
X135098198Y-101345700D01*
X134936300Y-101183802D01*
X134931792Y-101180645D01*
X134931789Y-101180643D01*
X134848289Y-101122176D01*
X134748749Y-101052477D01*
X134743767Y-101050154D01*
X134743762Y-101050151D01*
X134546225Y-100958039D01*
X134546224Y-100958039D01*
X134541243Y-100955716D01*
X134535935Y-100954294D01*
X134535933Y-100954293D01*
X134325402Y-100897881D01*
X134325400Y-100897881D01*
X134320087Y-100896457D01*
X134220520Y-100887746D01*
X134151851Y-100881738D01*
X134151844Y-100881738D01*
X134149127Y-100881500D01*
X134034873Y-100881500D01*
X134032156Y-100881738D01*
X134032149Y-100881738D01*
X133963480Y-100887746D01*
X133863913Y-100896457D01*
X133858600Y-100897881D01*
X133858598Y-100897881D01*
X133648067Y-100954293D01*
X133648065Y-100954294D01*
X133642757Y-100955716D01*
X133637776Y-100958039D01*
X133637775Y-100958039D01*
X133440238Y-101050151D01*
X133440233Y-101050154D01*
X133435251Y-101052477D01*
X133335711Y-101122176D01*
X133252211Y-101180643D01*
X133252208Y-101180645D01*
X133247700Y-101183802D01*
X133085802Y-101345700D01*
X132954477Y-101533251D01*
X132952154Y-101538233D01*
X132952151Y-101538238D01*
X132870144Y-101714104D01*
X132857716Y-101740757D01*
X132856294Y-101746065D01*
X132856293Y-101746067D01*
X132800698Y-101953548D01*
X132798457Y-101961913D01*
X132778502Y-102190000D01*
X118113000Y-102190000D01*
X118113000Y-100238839D01*
X129129173Y-100238839D01*
X129141713Y-100499908D01*
X129192704Y-100756256D01*
X129281026Y-101002252D01*
X129283242Y-101006376D01*
X129380670Y-101187699D01*
X129404737Y-101232491D01*
X129407532Y-101236234D01*
X129407534Y-101236237D01*
X129558330Y-101438177D01*
X129558335Y-101438183D01*
X129561122Y-101441915D01*
X129564431Y-101445195D01*
X129564436Y-101445201D01*
X129743426Y-101622635D01*
X129746743Y-101625923D01*
X129750505Y-101628681D01*
X129750508Y-101628684D01*
X129953750Y-101777707D01*
X129957524Y-101780474D01*
X129961667Y-101782654D01*
X129961669Y-101782655D01*
X130184684Y-101899989D01*
X130184689Y-101899991D01*
X130188834Y-101902172D01*
X130435590Y-101988344D01*
X130440183Y-101989216D01*
X130687785Y-102036224D01*
X130687788Y-102036224D01*
X130692374Y-102037095D01*
X130822958Y-102042226D01*
X130948875Y-102047174D01*
X130948881Y-102047174D01*
X130953543Y-102047357D01*
X131032977Y-102038657D01*
X131208707Y-102019412D01*
X131208712Y-102019411D01*
X131213360Y-102018902D01*
X131326116Y-101989216D01*
X131461594Y-101953548D01*
X131461596Y-101953547D01*
X131466117Y-101952357D01*
X131706262Y-101849182D01*
X131928519Y-101711646D01*
X131932082Y-101708629D01*
X131932087Y-101708626D01*
X132124439Y-101545787D01*
X132124440Y-101545786D01*
X132128005Y-101542768D01*
X132219729Y-101438177D01*
X132297257Y-101349774D01*
X132297261Y-101349769D01*
X132300339Y-101346259D01*
X132441733Y-101126437D01*
X132549083Y-100888129D01*
X132620030Y-100636572D01*
X132636832Y-100504496D01*
X132652616Y-100380421D01*
X132652616Y-100380417D01*
X132653014Y-100377291D01*
X132655431Y-100285000D01*
X132636061Y-100024348D01*
X132624725Y-99974248D01*
X132579408Y-99773980D01*
X132578377Y-99769423D01*
X132546908Y-99688500D01*
X132485340Y-99530176D01*
X132485339Y-99530173D01*
X132483647Y-99525823D01*
X132353951Y-99298902D01*
X132192138Y-99093643D01*
X132001763Y-98914557D01*
X131787009Y-98765576D01*
X131782816Y-98763508D01*
X131556781Y-98652040D01*
X131556778Y-98652039D01*
X131552593Y-98649975D01*
X131506449Y-98635204D01*
X131308123Y-98571720D01*
X131303665Y-98570293D01*
X131045693Y-98528279D01*
X130931942Y-98526790D01*
X130789022Y-98524919D01*
X130789019Y-98524919D01*
X130784345Y-98524858D01*
X130525362Y-98560104D01*
X130274433Y-98633243D01*
X130270180Y-98635203D01*
X130270179Y-98635204D01*
X130233659Y-98652040D01*
X130037072Y-98742668D01*
X129998067Y-98768241D01*
X129822404Y-98883410D01*
X129822399Y-98883414D01*
X129818491Y-98885976D01*
X129623494Y-99060018D01*
X129456363Y-99260970D01*
X129453934Y-99264973D01*
X129382738Y-99382301D01*
X129320771Y-99484419D01*
X129219697Y-99725455D01*
X129155359Y-99978783D01*
X129129173Y-100238839D01*
X118113000Y-100238839D01*
X118113000Y-98380000D01*
X126378502Y-98380000D01*
X126398457Y-98608087D01*
X126399881Y-98613400D01*
X126399881Y-98613402D01*
X126409300Y-98648552D01*
X126457716Y-98829243D01*
X126460039Y-98834224D01*
X126460039Y-98834225D01*
X126552151Y-99031762D01*
X126552154Y-99031767D01*
X126554477Y-99036749D01*
X126685802Y-99224300D01*
X126847700Y-99386198D01*
X126852208Y-99389355D01*
X126852211Y-99389357D01*
X126930389Y-99444098D01*
X127035251Y-99517523D01*
X127040233Y-99519846D01*
X127040238Y-99519849D01*
X127237775Y-99611961D01*
X127242757Y-99614284D01*
X127248065Y-99615706D01*
X127248067Y-99615707D01*
X127458598Y-99672119D01*
X127458600Y-99672119D01*
X127463913Y-99673543D01*
X127563480Y-99682254D01*
X127632149Y-99688262D01*
X127632156Y-99688262D01*
X127634873Y-99688500D01*
X127749127Y-99688500D01*
X127751844Y-99688262D01*
X127751851Y-99688262D01*
X127820520Y-99682254D01*
X127920087Y-99673543D01*
X127925400Y-99672119D01*
X127925402Y-99672119D01*
X128135933Y-99615707D01*
X128135935Y-99615706D01*
X128141243Y-99614284D01*
X128146225Y-99611961D01*
X128343762Y-99519849D01*
X128343767Y-99519846D01*
X128348749Y-99517523D01*
X128453611Y-99444098D01*
X128531789Y-99389357D01*
X128531792Y-99389355D01*
X128536300Y-99386198D01*
X128698198Y-99224300D01*
X128829523Y-99036749D01*
X128831846Y-99031767D01*
X128831849Y-99031762D01*
X128923961Y-98834225D01*
X128923961Y-98834224D01*
X128926284Y-98829243D01*
X128974701Y-98648552D01*
X128984119Y-98613402D01*
X128984119Y-98613400D01*
X128985543Y-98608087D01*
X129005498Y-98380000D01*
X128985543Y-98151913D01*
X128983302Y-98143548D01*
X128927707Y-97936067D01*
X128927706Y-97936065D01*
X128926284Y-97930757D01*
X128913856Y-97904104D01*
X128831849Y-97728238D01*
X128831846Y-97728233D01*
X128829523Y-97723251D01*
X128698198Y-97535700D01*
X128536300Y-97373802D01*
X128531792Y-97370645D01*
X128531789Y-97370643D01*
X128389181Y-97270788D01*
X128348749Y-97242477D01*
X128343767Y-97240154D01*
X128343762Y-97240151D01*
X128146225Y-97148039D01*
X128146224Y-97148039D01*
X128141243Y-97145716D01*
X128135935Y-97144294D01*
X128135933Y-97144293D01*
X127925402Y-97087881D01*
X127925400Y-97087881D01*
X127920087Y-97086457D01*
X127820520Y-97077746D01*
X127751851Y-97071738D01*
X127751844Y-97071738D01*
X127749127Y-97071500D01*
X127634873Y-97071500D01*
X127632156Y-97071738D01*
X127632149Y-97071738D01*
X127563480Y-97077746D01*
X127463913Y-97086457D01*
X127458600Y-97087881D01*
X127458598Y-97087881D01*
X127248067Y-97144293D01*
X127248065Y-97144294D01*
X127242757Y-97145716D01*
X127237776Y-97148039D01*
X127237775Y-97148039D01*
X127040238Y-97240151D01*
X127040233Y-97240154D01*
X127035251Y-97242477D01*
X126994819Y-97270788D01*
X126852211Y-97370643D01*
X126852208Y-97370645D01*
X126847700Y-97373802D01*
X126685802Y-97535700D01*
X126554477Y-97723251D01*
X126552154Y-97728233D01*
X126552151Y-97728238D01*
X126470144Y-97904104D01*
X126457716Y-97930757D01*
X126456294Y-97936065D01*
X126456293Y-97936067D01*
X126400698Y-98143548D01*
X126398457Y-98151913D01*
X126378502Y-98380000D01*
X118113000Y-98380000D01*
X118113000Y-96428839D01*
X129129173Y-96428839D01*
X129141713Y-96689908D01*
X129192704Y-96946256D01*
X129281026Y-97192252D01*
X129283242Y-97196376D01*
X129380670Y-97377699D01*
X129404737Y-97422491D01*
X129407532Y-97426234D01*
X129407534Y-97426237D01*
X129558330Y-97628177D01*
X129558335Y-97628183D01*
X129561122Y-97631915D01*
X129564431Y-97635195D01*
X129564436Y-97635201D01*
X129743426Y-97812635D01*
X129746743Y-97815923D01*
X129750505Y-97818681D01*
X129750508Y-97818684D01*
X129953750Y-97967707D01*
X129957524Y-97970474D01*
X129961667Y-97972654D01*
X129961669Y-97972655D01*
X130184684Y-98089989D01*
X130184689Y-98089991D01*
X130188834Y-98092172D01*
X130435590Y-98178344D01*
X130440183Y-98179216D01*
X130687785Y-98226224D01*
X130687788Y-98226224D01*
X130692374Y-98227095D01*
X130822959Y-98232226D01*
X130948875Y-98237174D01*
X130948881Y-98237174D01*
X130953543Y-98237357D01*
X131032977Y-98228657D01*
X131208707Y-98209412D01*
X131208712Y-98209411D01*
X131213360Y-98208902D01*
X131326116Y-98179216D01*
X131461594Y-98143548D01*
X131461596Y-98143547D01*
X131466117Y-98142357D01*
X131477774Y-98137349D01*
X131701972Y-98041025D01*
X131706262Y-98039182D01*
X131928519Y-97901646D01*
X131932082Y-97898629D01*
X131932087Y-97898626D01*
X132124439Y-97735787D01*
X132124440Y-97735786D01*
X132128005Y-97732768D01*
X132230903Y-97615436D01*
X132297257Y-97539774D01*
X132297261Y-97539769D01*
X132300339Y-97536259D01*
X132441733Y-97316437D01*
X132549083Y-97078129D01*
X132587567Y-96941676D01*
X132618760Y-96831076D01*
X132618761Y-96831073D01*
X132620030Y-96826572D01*
X132636832Y-96694496D01*
X132652616Y-96570421D01*
X132652616Y-96570417D01*
X132653014Y-96567291D01*
X132655431Y-96475000D01*
X132643021Y-96308006D01*
X132636407Y-96219000D01*
X132636406Y-96218996D01*
X132636061Y-96214348D01*
X132624725Y-96164248D01*
X132579408Y-95963980D01*
X132578377Y-95959423D01*
X132546908Y-95878500D01*
X132485340Y-95720176D01*
X132485339Y-95720173D01*
X132483647Y-95715823D01*
X132353951Y-95488902D01*
X132192138Y-95283643D01*
X132001763Y-95104557D01*
X131787009Y-94955576D01*
X131782816Y-94953508D01*
X131556781Y-94842040D01*
X131556778Y-94842039D01*
X131552593Y-94839975D01*
X131508017Y-94825706D01*
X131308123Y-94761720D01*
X131303665Y-94760293D01*
X131045693Y-94718279D01*
X130931942Y-94716790D01*
X130789022Y-94714919D01*
X130789019Y-94714919D01*
X130784345Y-94714858D01*
X130525362Y-94750104D01*
X130274433Y-94823243D01*
X130270180Y-94825203D01*
X130270179Y-94825204D01*
X130233659Y-94842040D01*
X130037072Y-94932668D01*
X129998067Y-94958241D01*
X129822404Y-95073410D01*
X129822399Y-95073414D01*
X129818491Y-95075976D01*
X129623494Y-95250018D01*
X129456363Y-95450970D01*
X129453934Y-95454973D01*
X129382738Y-95572301D01*
X129320771Y-95674419D01*
X129219697Y-95915455D01*
X129155359Y-96168783D01*
X129129173Y-96428839D01*
X118113000Y-96428839D01*
X118113000Y-92618839D01*
X129129173Y-92618839D01*
X129129397Y-92623505D01*
X129129397Y-92623511D01*
X129129569Y-92627089D01*
X129141713Y-92879908D01*
X129192704Y-93136256D01*
X129281026Y-93382252D01*
X129283242Y-93386376D01*
X129380670Y-93567699D01*
X129404737Y-93612491D01*
X129407532Y-93616234D01*
X129407534Y-93616237D01*
X129558330Y-93818177D01*
X129558335Y-93818183D01*
X129561122Y-93821915D01*
X129564431Y-93825195D01*
X129564436Y-93825201D01*
X129743426Y-94002635D01*
X129746743Y-94005923D01*
X129750505Y-94008681D01*
X129750508Y-94008684D01*
X129952303Y-94156646D01*
X129957524Y-94160474D01*
X129961667Y-94162654D01*
X129961669Y-94162655D01*
X130184684Y-94279989D01*
X130184689Y-94279991D01*
X130188834Y-94282172D01*
X130435590Y-94368344D01*
X130440183Y-94369216D01*
X130687785Y-94416224D01*
X130687788Y-94416224D01*
X130692374Y-94417095D01*
X130822958Y-94422226D01*
X130948875Y-94427174D01*
X130948881Y-94427174D01*
X130953543Y-94427357D01*
X131032977Y-94418657D01*
X131208707Y-94399412D01*
X131208712Y-94399411D01*
X131213360Y-94398902D01*
X131326116Y-94369216D01*
X131461594Y-94333548D01*
X131461596Y-94333547D01*
X131466117Y-94332357D01*
X131706262Y-94229182D01*
X131889537Y-94115769D01*
X131924547Y-94094104D01*
X131924548Y-94094104D01*
X131928519Y-94091646D01*
X131932082Y-94088629D01*
X131932087Y-94088626D01*
X132054353Y-93985120D01*
X132092120Y-93953147D01*
X132157036Y-93924399D01*
X132173509Y-93923314D01*
X132438527Y-93923276D01*
X132752025Y-93923231D01*
X132820149Y-93943223D01*
X132866649Y-93996872D01*
X132876763Y-94067145D01*
X132866238Y-94102480D01*
X132860041Y-94115769D01*
X132860039Y-94115775D01*
X132857716Y-94120757D01*
X132856294Y-94126065D01*
X132856293Y-94126067D01*
X132800698Y-94333548D01*
X132798457Y-94341913D01*
X132778502Y-94570000D01*
X132798457Y-94798087D01*
X132799881Y-94803400D01*
X132799881Y-94803402D01*
X132809300Y-94838552D01*
X132857716Y-95019243D01*
X132860039Y-95024224D01*
X132860039Y-95024225D01*
X132952151Y-95221762D01*
X132952154Y-95221767D01*
X132954477Y-95226749D01*
X133013426Y-95310937D01*
X133043925Y-95354493D01*
X133085802Y-95414300D01*
X133247700Y-95576198D01*
X133252208Y-95579355D01*
X133252211Y-95579357D01*
X133330389Y-95634098D01*
X133435251Y-95707523D01*
X133440233Y-95709846D01*
X133440238Y-95709849D01*
X133637775Y-95801961D01*
X133642757Y-95804284D01*
X133648065Y-95805706D01*
X133648067Y-95805707D01*
X133858598Y-95862119D01*
X133858600Y-95862119D01*
X133863913Y-95863543D01*
X133963480Y-95872254D01*
X134032149Y-95878262D01*
X134032156Y-95878262D01*
X134034873Y-95878500D01*
X134149127Y-95878500D01*
X134151844Y-95878262D01*
X134151851Y-95878262D01*
X134220520Y-95872254D01*
X134320087Y-95863543D01*
X134325400Y-95862119D01*
X134325402Y-95862119D01*
X134535933Y-95805707D01*
X134535935Y-95805706D01*
X134541243Y-95804284D01*
X134546225Y-95801961D01*
X134743762Y-95709849D01*
X134743767Y-95709846D01*
X134748749Y-95707523D01*
X134853611Y-95634098D01*
X134931789Y-95579357D01*
X134931792Y-95579355D01*
X134936300Y-95576198D01*
X135098198Y-95414300D01*
X135140076Y-95354493D01*
X135170574Y-95310937D01*
X135229523Y-95226749D01*
X135231846Y-95221767D01*
X135231849Y-95221762D01*
X135323961Y-95024225D01*
X135323961Y-95024224D01*
X135326284Y-95019243D01*
X135374701Y-94838552D01*
X135384119Y-94803402D01*
X135384119Y-94803400D01*
X135385543Y-94798087D01*
X135405498Y-94570000D01*
X135385543Y-94341913D01*
X135382983Y-94332357D01*
X135355337Y-94229182D01*
X135351224Y-94213834D01*
X135352914Y-94142858D01*
X135392708Y-94084062D01*
X135457972Y-94056114D01*
X135507120Y-94059950D01*
X135628265Y-94094104D01*
X135839258Y-94153589D01*
X135848669Y-94156646D01*
X136188749Y-94282077D01*
X136197879Y-94285858D01*
X136527079Y-94437595D01*
X136535864Y-94442070D01*
X136729394Y-94550439D01*
X136852146Y-94619176D01*
X136860583Y-94624346D01*
X136920264Y-94664220D01*
X137161214Y-94825204D01*
X137161965Y-94825706D01*
X137169965Y-94831518D01*
X137449989Y-95052261D01*
X137454638Y-95055926D01*
X137462156Y-95062348D01*
X137511287Y-95107763D01*
X137698231Y-95280570D01*
X137709224Y-95292103D01*
X137725028Y-95310937D01*
X137728560Y-95315146D01*
X137732767Y-95318676D01*
X137766601Y-95347066D01*
X137774706Y-95354493D01*
X138110006Y-95689794D01*
X138117431Y-95697898D01*
X138145812Y-95731721D01*
X138145817Y-95731726D01*
X138149348Y-95735934D01*
X138153556Y-95739465D01*
X138172389Y-95755268D01*
X138183922Y-95766260D01*
X138402106Y-96002291D01*
X138408531Y-96009814D01*
X138632891Y-96294412D01*
X138638706Y-96302416D01*
X138840040Y-96603735D01*
X138845209Y-96612171D01*
X139022290Y-96928371D01*
X139026777Y-96937176D01*
X139168978Y-97245634D01*
X139178501Y-97266291D01*
X139182287Y-97275431D01*
X139307721Y-97615436D01*
X139310778Y-97624845D01*
X139409147Y-97973633D01*
X139411457Y-97983253D01*
X139482158Y-98338690D01*
X139483704Y-98348450D01*
X139526301Y-98708355D01*
X139527077Y-98718218D01*
X139539697Y-99039386D01*
X139539314Y-99055316D01*
X139537172Y-99079797D01*
X139537172Y-99079801D01*
X139536693Y-99085281D01*
X139537172Y-99090756D01*
X139541021Y-99134752D01*
X139541500Y-99145733D01*
X139541500Y-123142038D01*
X139521498Y-123210159D01*
X139467842Y-123256652D01*
X139397568Y-123266756D01*
X139382889Y-123263745D01*
X139174402Y-123207881D01*
X139174400Y-123207881D01*
X139169087Y-123206457D01*
X139069520Y-123197746D01*
X139000851Y-123191738D01*
X139000844Y-123191738D01*
X138998127Y-123191500D01*
X138883873Y-123191500D01*
X138881156Y-123191738D01*
X138881149Y-123191738D01*
X138812480Y-123197746D01*
X138712913Y-123206457D01*
X138707600Y-123207881D01*
X138707598Y-123207881D01*
X138497067Y-123264293D01*
X138497065Y-123264294D01*
X138491757Y-123265716D01*
X138486776Y-123268039D01*
X138486775Y-123268039D01*
X138289238Y-123360151D01*
X138289233Y-123360154D01*
X138284251Y-123362477D01*
X138179389Y-123435902D01*
X138101211Y-123490643D01*
X138101208Y-123490645D01*
X138096700Y-123493802D01*
X137934802Y-123655700D01*
X137803477Y-123843251D01*
X137801154Y-123848233D01*
X137801151Y-123848238D01*
X137709039Y-124045775D01*
X137706716Y-124050757D01*
X137705294Y-124056065D01*
X137705293Y-124056067D01*
X137648881Y-124266598D01*
X137647457Y-124271913D01*
X137627502Y-124500000D01*
X137647457Y-124728087D01*
X137648881Y-124733400D01*
X137648881Y-124733402D01*
X137673274Y-124824435D01*
X137706716Y-124949243D01*
X137709039Y-124954224D01*
X137709039Y-124954225D01*
X137801151Y-125151762D01*
X137801154Y-125151767D01*
X137803477Y-125156749D01*
X137934802Y-125344300D01*
X138096700Y-125506198D01*
X138101208Y-125509355D01*
X138101211Y-125509357D01*
X138179389Y-125564098D01*
X138284251Y-125637523D01*
X138289233Y-125639846D01*
X138289238Y-125639849D01*
X138486775Y-125731961D01*
X138491757Y-125734284D01*
X138497065Y-125735706D01*
X138497067Y-125735707D01*
X138707598Y-125792119D01*
X138707600Y-125792119D01*
X138712913Y-125793543D01*
X138812480Y-125802254D01*
X138881149Y-125808262D01*
X138881156Y-125808262D01*
X138883873Y-125808500D01*
X138998127Y-125808500D01*
X139000844Y-125808262D01*
X139000851Y-125808262D01*
X139069520Y-125802254D01*
X139169087Y-125793543D01*
X139174400Y-125792119D01*
X139174402Y-125792119D01*
X139382889Y-125736255D01*
X139453865Y-125737945D01*
X139512661Y-125777739D01*
X139540609Y-125843003D01*
X139541500Y-125857962D01*
X139541500Y-126472747D01*
X139521498Y-126540868D01*
X139512374Y-126553317D01*
X139410364Y-126675970D01*
X139274772Y-126899419D01*
X139173698Y-127140455D01*
X139109360Y-127393783D01*
X139083174Y-127653839D01*
X139083398Y-127658505D01*
X139083398Y-127658511D01*
X139085543Y-127703160D01*
X139095714Y-127914908D01*
X139146705Y-128171256D01*
X139235027Y-128417252D01*
X139237243Y-128421376D01*
X139301754Y-128541437D01*
X139358738Y-128647491D01*
X139361533Y-128651234D01*
X139361535Y-128651237D01*
X139512331Y-128853177D01*
X139512336Y-128853183D01*
X139515123Y-128856915D01*
X139518432Y-128860195D01*
X139518437Y-128860201D01*
X139692120Y-129032374D01*
X139700744Y-129040923D01*
X139704506Y-129043681D01*
X139704509Y-129043684D01*
X139907751Y-129192707D01*
X139911525Y-129195474D01*
X139915668Y-129197654D01*
X139915670Y-129197655D01*
X140138685Y-129314989D01*
X140138690Y-129314991D01*
X140142835Y-129317172D01*
X140389591Y-129403344D01*
X140394184Y-129404216D01*
X140641786Y-129451224D01*
X140641789Y-129451224D01*
X140646375Y-129452095D01*
X140776960Y-129457226D01*
X140902876Y-129462174D01*
X140902882Y-129462174D01*
X140907544Y-129462357D01*
X140986978Y-129453657D01*
X141162708Y-129434412D01*
X141162713Y-129434411D01*
X141167361Y-129433902D01*
X141280117Y-129404216D01*
X141415595Y-129368548D01*
X141415597Y-129368547D01*
X141420118Y-129367357D01*
X141660263Y-129264182D01*
X141882520Y-129126646D01*
X141886083Y-129123629D01*
X141886088Y-129123626D01*
X142078440Y-128960787D01*
X142078441Y-128960786D01*
X142082006Y-128957768D01*
X142173730Y-128853177D01*
X142251258Y-128764774D01*
X142251262Y-128764769D01*
X142254340Y-128761259D01*
X142325893Y-128650018D01*
X142393206Y-128545367D01*
X142395734Y-128541437D01*
X142503084Y-128303129D01*
X142547125Y-128146974D01*
X142572761Y-128056076D01*
X142572762Y-128056073D01*
X142574031Y-128051572D01*
X142590833Y-127919496D01*
X142606617Y-127795421D01*
X142606617Y-127795417D01*
X142607015Y-127792291D01*
X142607934Y-127757222D01*
X142609349Y-127703160D01*
X142609432Y-127700000D01*
X142590062Y-127439348D01*
X142578726Y-127389248D01*
X142533409Y-127188980D01*
X142532378Y-127184423D01*
X142513604Y-127136146D01*
X142439341Y-126945176D01*
X142439340Y-126945173D01*
X142437648Y-126940823D01*
X142307952Y-126713902D01*
X142146139Y-126508643D01*
X142142737Y-126505443D01*
X142142731Y-126505436D01*
X142098168Y-126463516D01*
X142062255Y-126402272D01*
X142058500Y-126371741D01*
X142058500Y-99145733D01*
X142058979Y-99134752D01*
X142062828Y-99090756D01*
X142063307Y-99085281D01*
X142062828Y-99079801D01*
X142062139Y-99071922D01*
X142061727Y-99065069D01*
X142046906Y-98612337D01*
X142046906Y-98612329D01*
X142046839Y-98610298D01*
X142046082Y-98602607D01*
X142000461Y-98139420D01*
X142000461Y-98139419D01*
X142000257Y-98137349D01*
X141993054Y-98093717D01*
X141947189Y-97815923D01*
X141922843Y-97668459D01*
X141814928Y-97205637D01*
X141814334Y-97203678D01*
X141814330Y-97203664D01*
X141677572Y-96752835D01*
X141676974Y-96750863D01*
X141509571Y-96306086D01*
X141507909Y-96302416D01*
X141332579Y-95915455D01*
X141313438Y-95873210D01*
X141089412Y-95454088D01*
X140874054Y-95107763D01*
X140839541Y-95052261D01*
X140839537Y-95052255D01*
X140838455Y-95050515D01*
X140772333Y-94958241D01*
X140562829Y-94665879D01*
X140562826Y-94665876D01*
X140561640Y-94664220D01*
X140260153Y-94296857D01*
X139949104Y-93964754D01*
X139944554Y-93959621D01*
X139939475Y-93953568D01*
X139939474Y-93953567D01*
X139935934Y-93949348D01*
X139897897Y-93917431D01*
X139889792Y-93910005D01*
X139554489Y-93574701D01*
X139547064Y-93566598D01*
X139542067Y-93560643D01*
X139515146Y-93528560D01*
X139504851Y-93519922D01*
X139499725Y-93515376D01*
X139408730Y-93430151D01*
X139167571Y-93204283D01*
X139165995Y-93202990D01*
X139165984Y-93202980D01*
X138801721Y-92904049D01*
X138801714Y-92904044D01*
X138800134Y-92902747D01*
X138413759Y-92625893D01*
X138010102Y-92374906D01*
X137590890Y-92150862D01*
X137588997Y-92150004D01*
X137588990Y-92150001D01*
X137159805Y-91955575D01*
X137157920Y-91954721D01*
X136713048Y-91787322D01*
X136651257Y-91768584D01*
X136260140Y-91649979D01*
X136260132Y-91649977D01*
X136258177Y-91649384D01*
X136256177Y-91648918D01*
X136256170Y-91648916D01*
X135797272Y-91541966D01*
X135797261Y-91541964D01*
X135795258Y-91541497D01*
X135326273Y-91464122D01*
X134853231Y-91417592D01*
X134851167Y-91417525D01*
X134851156Y-91417524D01*
X134554897Y-91407867D01*
X134398369Y-91402765D01*
X134391531Y-91402355D01*
X134378158Y-91401187D01*
X134372681Y-91401667D01*
X134372679Y-91401667D01*
X134360152Y-91402765D01*
X134328690Y-91405522D01*
X134317718Y-91406003D01*
X132170533Y-91406314D01*
X132102411Y-91386322D01*
X132084184Y-91372089D01*
X132005179Y-91297769D01*
X132005168Y-91297760D01*
X132001763Y-91294557D01*
X131831479Y-91176426D01*
X131790851Y-91148241D01*
X131790848Y-91148239D01*
X131787009Y-91145576D01*
X131782816Y-91143508D01*
X131556781Y-91032040D01*
X131556778Y-91032039D01*
X131552593Y-91029975D01*
X131506449Y-91015204D01*
X131308123Y-90951720D01*
X131303665Y-90950293D01*
X131045693Y-90908279D01*
X130931942Y-90906790D01*
X130789022Y-90904919D01*
X130789019Y-90904919D01*
X130784345Y-90904858D01*
X130525362Y-90940104D01*
X130274433Y-91013243D01*
X130270180Y-91015203D01*
X130270179Y-91015204D01*
X130233659Y-91032040D01*
X130037072Y-91122668D01*
X129999668Y-91147191D01*
X129822404Y-91263410D01*
X129822399Y-91263414D01*
X129818491Y-91265976D01*
X129623494Y-91440018D01*
X129456363Y-91640970D01*
X129453934Y-91644973D01*
X129367555Y-91787322D01*
X129320771Y-91864419D01*
X129219697Y-92105455D01*
X129155359Y-92358783D01*
X129154891Y-92363434D01*
X129154890Y-92363438D01*
X129144245Y-92469159D01*
X129129173Y-92618839D01*
X118113000Y-92618839D01*
X118113000Y-87449077D01*
X118426065Y-87449077D01*
X118439722Y-87840157D01*
X118491477Y-88228038D01*
X118580834Y-88609017D01*
X118581823Y-88611923D01*
X118581825Y-88611929D01*
X118705950Y-88976543D01*
X118705955Y-88976555D01*
X118706943Y-88979458D01*
X118868598Y-89335826D01*
X119064258Y-89674717D01*
X119066047Y-89677216D01*
X119066049Y-89677219D01*
X119163831Y-89813799D01*
X119292053Y-89992899D01*
X119294080Y-89995214D01*
X119294082Y-89995217D01*
X119497698Y-90227806D01*
X119549810Y-90287333D01*
X119835069Y-90555208D01*
X120145107Y-90793969D01*
X120147710Y-90795596D01*
X120147715Y-90795599D01*
X120229521Y-90846717D01*
X120476964Y-91001337D01*
X120827472Y-91175331D01*
X121193287Y-91314290D01*
X121570915Y-91416890D01*
X121573958Y-91417405D01*
X121573964Y-91417406D01*
X121953713Y-91481636D01*
X121953720Y-91481637D01*
X121956754Y-91482150D01*
X121959825Y-91482365D01*
X121959827Y-91482365D01*
X122344053Y-91509233D01*
X122344061Y-91509233D01*
X122347119Y-91509447D01*
X122600704Y-91502363D01*
X122735211Y-91498606D01*
X122735214Y-91498606D01*
X122738285Y-91498520D01*
X122741338Y-91498134D01*
X122741342Y-91498134D01*
X122960538Y-91470443D01*
X123126517Y-91449475D01*
X123129521Y-91448793D01*
X123129524Y-91448792D01*
X123505115Y-91363460D01*
X123505121Y-91363458D01*
X123508111Y-91362779D01*
X123653875Y-91314290D01*
X123876500Y-91240233D01*
X123876506Y-91240231D01*
X123879424Y-91239260D01*
X124020551Y-91176426D01*
X124234111Y-91081343D01*
X124234117Y-91081340D01*
X124236911Y-91080096D01*
X124264976Y-91064153D01*
X124574492Y-90888324D01*
X124574498Y-90888320D01*
X124577160Y-90886808D01*
X124896924Y-90661239D01*
X125193150Y-90405544D01*
X125195271Y-90403317D01*
X125195277Y-90403311D01*
X125460894Y-90124385D01*
X125463011Y-90122162D01*
X125562192Y-89995217D01*
X125702021Y-89816244D01*
X125702023Y-89816241D01*
X125703931Y-89813799D01*
X125705587Y-89811189D01*
X125705593Y-89811181D01*
X125911957Y-89486003D01*
X125911959Y-89486000D01*
X125913610Y-89483398D01*
X126090046Y-89134112D01*
X126231557Y-88769277D01*
X126336790Y-88392374D01*
X126404742Y-88007000D01*
X126417580Y-87840157D01*
X126434613Y-87618789D01*
X126434613Y-87618778D01*
X126434763Y-87616835D01*
X126436325Y-87505000D01*
X126417209Y-87114149D01*
X126360044Y-86727028D01*
X126351631Y-86693283D01*
X126301269Y-86491295D01*
X126265376Y-86347334D01*
X126260532Y-86333729D01*
X126135139Y-85981588D01*
X126134107Y-85978689D01*
X125967492Y-85624614D01*
X125938167Y-85575420D01*
X125768700Y-85291138D01*
X125767120Y-85288487D01*
X125577594Y-85031419D01*
X125536727Y-84975988D01*
X125536725Y-84975985D01*
X125534905Y-84973517D01*
X125273061Y-84682711D01*
X124984090Y-84418844D01*
X124670749Y-84184435D01*
X124406865Y-84024621D01*
X124338658Y-83983313D01*
X124338649Y-83983308D01*
X124336030Y-83981722D01*
X123983126Y-83812638D01*
X123980237Y-83811586D01*
X123980231Y-83811584D01*
X123618306Y-83679855D01*
X123618303Y-83679854D01*
X123615407Y-83678800D01*
X123338326Y-83607658D01*
X123239366Y-83582249D01*
X123239363Y-83582248D01*
X123236382Y-83581483D01*
X122849670Y-83521617D01*
X122846613Y-83521446D01*
X122846612Y-83521446D01*
X122816120Y-83519741D01*
X122458962Y-83499773D01*
X122455883Y-83499902D01*
X122455880Y-83499902D01*
X122199770Y-83510636D01*
X122067987Y-83516159D01*
X122064943Y-83516587D01*
X122064941Y-83516587D01*
X122030368Y-83521446D01*
X121680477Y-83570620D01*
X121300131Y-83662636D01*
X120930579Y-83791327D01*
X120927781Y-83792620D01*
X120578146Y-83954174D01*
X120578136Y-83954179D01*
X120575349Y-83955467D01*
X120466829Y-84019135D01*
X120240486Y-84151929D01*
X120240481Y-84151932D01*
X120237831Y-84153487D01*
X120197433Y-84182838D01*
X119923730Y-84381694D01*
X119923721Y-84381701D01*
X119921248Y-84383498D01*
X119918958Y-84385531D01*
X119918952Y-84385536D01*
X119642381Y-84631088D01*
X119628621Y-84643305D01*
X119362743Y-84930427D01*
X119360888Y-84932871D01*
X119134508Y-85231116D01*
X119126152Y-85242124D01*
X118921107Y-85575420D01*
X118749564Y-85927135D01*
X118613162Y-86293910D01*
X118513201Y-86672246D01*
X118450637Y-87058531D01*
X118426065Y-87449077D01*
X118113000Y-87449077D01*
X118113000Y-83313000D01*
X118133002Y-83244879D01*
X118186658Y-83198386D01*
X118239000Y-83187000D01*
X145661760Y-83187000D01*
X145729881Y-83207002D01*
G37*
%TD.AperFunction*%
%TD*%
M02*
