%TF.GenerationSoftware,KiCad,Pcbnew,6.0.4-6f826c9f35~116~ubuntu20.04.1*%
%TF.CreationDate,2022-05-15T21:38:31+00:00*%
%TF.ProjectId,VLFANT01A,564c4641-4e54-4303-9141-2e6b69636164,rev?*%
%TF.SameCoordinates,Original*%
%TF.FileFunction,Copper,L2,Bot*%
%TF.FilePolarity,Positive*%
%FSLAX46Y46*%
G04 Gerber Fmt 4.6, Leading zero omitted, Abs format (unit mm)*
G04 Created by KiCad (PCBNEW 6.0.4-6f826c9f35~116~ubuntu20.04.1) date 2022-05-15 21:38:31*
%MOMM*%
%LPD*%
G01*
G04 APERTURE LIST*
%ADD10C,0.300000*%
%TA.AperFunction,NonConductor*%
%ADD11C,0.300000*%
%TD*%
%TA.AperFunction,ComponentPad*%
%ADD12C,2.500000*%
%TD*%
%TA.AperFunction,ComponentPad*%
%ADD13C,2.700000*%
%TD*%
%TA.AperFunction,ComponentPad*%
%ADD14R,1.524000X1.524000*%
%TD*%
%TA.AperFunction,ComponentPad*%
%ADD15C,6.000000*%
%TD*%
%TA.AperFunction,ViaPad*%
%ADD16C,0.800000*%
%TD*%
%TA.AperFunction,Conductor*%
%ADD17C,1.500000*%
%TD*%
%TA.AperFunction,Conductor*%
%ADD18C,2.000000*%
%TD*%
%TA.AperFunction,Conductor*%
%ADD19C,0.254000*%
%TD*%
G04 APERTURE END LIST*
D10*
D11*
X40541142Y38065142D02*
X40541142Y39265142D01*
X40141142Y38408000D01*
X39741142Y39265142D01*
X39741142Y38065142D01*
X38598285Y38065142D02*
X39169714Y38065142D01*
X39169714Y39265142D01*
X38255428Y38408000D02*
X37684000Y38408000D01*
X38369714Y38065142D02*
X37969714Y39265142D01*
X37569714Y38065142D01*
X36769714Y38693714D02*
X36598285Y38636571D01*
X36541142Y38579428D01*
X36484000Y38465142D01*
X36484000Y38293714D01*
X36541142Y38179428D01*
X36598285Y38122285D01*
X36712571Y38065142D01*
X37169714Y38065142D01*
X37169714Y39265142D01*
X36769714Y39265142D01*
X36655428Y39208000D01*
X36598285Y39150857D01*
X36541142Y39036571D01*
X36541142Y38922285D01*
X36598285Y38808000D01*
X36655428Y38750857D01*
X36769714Y38693714D01*
X37169714Y38693714D01*
X35969714Y38179428D02*
X35912571Y38122285D01*
X35969714Y38065142D01*
X36026857Y38122285D01*
X35969714Y38179428D01*
X35969714Y38065142D01*
X34712571Y38179428D02*
X34769714Y38122285D01*
X34941142Y38065142D01*
X35055428Y38065142D01*
X35226857Y38122285D01*
X35341142Y38236571D01*
X35398285Y38350857D01*
X35455428Y38579428D01*
X35455428Y38750857D01*
X35398285Y38979428D01*
X35341142Y39093714D01*
X35226857Y39208000D01*
X35055428Y39265142D01*
X34941142Y39265142D01*
X34769714Y39208000D01*
X34712571Y39150857D01*
X34312571Y39265142D02*
X33512571Y39265142D01*
X34312571Y38065142D01*
X33512571Y38065142D01*
D12*
%TO.P,J7,1*%
%TO.N,/OUT1*%
X18288000Y5588000D03*
D13*
%TO.P,J7,2*%
%TO.N,/OUT2*%
X20828000Y3048000D03*
X20828000Y8128000D03*
X15748000Y8128000D03*
X15748000Y3048000D03*
%TD*%
D14*
%TO.P,J9,1*%
%TO.N,/OUT1*%
X17272000Y35306000D03*
%TO.P,J9,2*%
X17272000Y37846000D03*
%TO.P,J9,3*%
%TO.N,/OUT2*%
X19812000Y35306000D03*
%TO.P,J9,4*%
X19812000Y37846000D03*
%TO.P,J9,5*%
%TO.N,GND*%
X22352000Y35306000D03*
%TO.P,J9,6*%
X22352000Y37846000D03*
%TD*%
D15*
%TO.P,M1,1*%
%TO.N,GND*%
X45720000Y35560000D03*
%TD*%
%TO.P,M2,1*%
%TO.N,GND*%
X45720000Y5080000D03*
%TD*%
%TO.P,M3,1*%
%TO.N,GND*%
X5080000Y35560000D03*
%TD*%
%TO.P,M4,1*%
%TO.N,GND*%
X5080000Y5080000D03*
%TD*%
%TO.P,M5,1*%
%TO.N,GND*%
X45720000Y25908000D03*
%TD*%
%TO.P,M6,1*%
%TO.N,GND*%
X45720000Y15748000D03*
%TD*%
%TO.P,M7,1*%
%TO.N,GND*%
X5080000Y25908000D03*
%TD*%
%TO.P,M8,1*%
%TO.N,GND*%
X5080000Y15748000D03*
%TD*%
%TO.P,M9,1*%
%TO.N,GND*%
X36068000Y3556000D03*
%TD*%
%TO.P,M10,1*%
%TO.N,GND*%
X26924000Y3556000D03*
%TD*%
D16*
%TO.N,/OUT1*%
X25400000Y8636000D03*
%TO.N,/OUT2*%
X31496000Y12700000D03*
X36068000Y12700000D03*
%TD*%
D17*
%TO.N,/OUT1*%
X25000001Y8236001D02*
X25400000Y8636000D01*
X18288000Y5588000D02*
X22173999Y5588000D01*
D18*
X17272000Y32544000D02*
X17272000Y35306000D01*
X18288000Y10463295D02*
X17272000Y11479295D01*
D17*
X24822000Y8236001D02*
X25000001Y8236001D01*
D18*
X17272000Y11479295D02*
X17272000Y32544000D01*
D17*
X18288000Y5588000D02*
X18288000Y10160000D01*
X22173999Y5588000D02*
X24822000Y8236001D01*
D18*
X18288000Y10160000D02*
X18288000Y10463295D01*
%TO.N,/OUT2*%
X20320000Y12700000D02*
X19812000Y13208000D01*
X31496000Y12700000D02*
X36068000Y12700000D01*
X20828000Y8128000D02*
X20828000Y12192000D01*
X19812000Y35306000D02*
X19812000Y13208000D01*
X20828000Y12192000D02*
X19812000Y13208000D01*
X31496000Y12700000D02*
X20320000Y12700000D01*
%TD*%
%TO.N,GND*%
D19*
X32706143Y36863000D02*
X41461858Y36863000D01*
X41461858Y39676000D01*
X49836000Y39676000D01*
X49836000Y964000D01*
X964000Y964000D01*
X964000Y7734891D01*
X13762657Y7734891D01*
X14064218Y7005057D01*
X14622120Y6446181D01*
X15351427Y6143346D01*
X16141109Y6142657D01*
X16546886Y6310320D01*
X16403328Y5964595D01*
X16402674Y5214695D01*
X16546924Y4865583D01*
X16144573Y5032654D01*
X15354891Y5033343D01*
X14625057Y4731782D01*
X14066181Y4173880D01*
X13763346Y3444573D01*
X13762657Y2654891D01*
X14064218Y1925057D01*
X14622120Y1366181D01*
X15351427Y1063346D01*
X16141109Y1062657D01*
X16870943Y1364218D01*
X17429819Y1922120D01*
X17732654Y2651427D01*
X17733343Y3441109D01*
X17565680Y3846886D01*
X17911405Y3703328D01*
X18661305Y3702674D01*
X19010417Y3846924D01*
X18843346Y3444573D01*
X18842657Y2654891D01*
X19144218Y1925057D01*
X19702120Y1366181D01*
X20431427Y1063346D01*
X21221109Y1062657D01*
X21950943Y1364218D01*
X22509819Y1922120D01*
X22812654Y2651427D01*
X22813343Y3441109D01*
X22511782Y4170943D01*
X22429122Y4253747D01*
X22704016Y4308427D01*
X23153342Y4608657D01*
X25493936Y6949251D01*
X25530018Y6956428D01*
X25979344Y7256658D01*
X26379343Y7656657D01*
X26679573Y8105984D01*
X26785000Y8636000D01*
X26679573Y9166016D01*
X26379343Y9615343D01*
X25930016Y9915573D01*
X25400000Y10021000D01*
X24869984Y9915573D01*
X24420657Y9615343D01*
X24328065Y9522751D01*
X24291983Y9515574D01*
X23980092Y9307175D01*
X23842657Y9215344D01*
X22813050Y8185737D01*
X22813343Y8521109D01*
X22511782Y9250943D01*
X22463000Y9299810D01*
X22463000Y11065000D01*
X36068000Y11065000D01*
X36693687Y11189457D01*
X37224120Y11543880D01*
X37578543Y12074313D01*
X37703000Y12700000D01*
X37578543Y13325687D01*
X37224120Y13856120D01*
X36693687Y14210543D01*
X36068000Y14335000D01*
X21447000Y14335000D01*
X21447000Y35306000D01*
X21322543Y35931687D01*
X21217511Y36088878D01*
X21177162Y36303317D01*
X21038090Y36519441D01*
X20956230Y36575374D01*
X21025441Y36619910D01*
X21170431Y36832110D01*
X21221440Y37084000D01*
X21221440Y38608000D01*
X21177162Y38843317D01*
X21038090Y39059441D01*
X20825890Y39204431D01*
X20574000Y39255440D01*
X19050000Y39255440D01*
X18814683Y39211162D01*
X18598559Y39072090D01*
X18542626Y38990230D01*
X18498090Y39059441D01*
X18285890Y39204431D01*
X18034000Y39255440D01*
X16510000Y39255440D01*
X16274683Y39211162D01*
X16058559Y39072090D01*
X15913569Y38859890D01*
X15862560Y38608000D01*
X15862560Y37084000D01*
X15906838Y36848683D01*
X16045910Y36632559D01*
X16127770Y36576626D01*
X16058559Y36532090D01*
X15913569Y36319890D01*
X15866918Y36089521D01*
X15761457Y35931687D01*
X15637000Y35306000D01*
X15637000Y11479300D01*
X15636999Y11479295D01*
X15761457Y10853607D01*
X16115880Y10323175D01*
X16455516Y9983539D01*
X16144573Y10112654D01*
X15354891Y10113343D01*
X14625057Y9811782D01*
X14066181Y9253880D01*
X13763346Y8524573D01*
X13762657Y7734891D01*
X964000Y7734891D01*
X964000Y39676000D01*
X32706143Y39676000D01*
X32706143Y36863000D01*
X32706143Y36863000D02*
X32706143Y39676000D01*
%TA.AperFunction,Conductor*%
G36*
X32706143Y36863000D02*
G01*
X41461858Y36863000D01*
X41461858Y39676000D01*
X49836000Y39676000D01*
X49836000Y964000D01*
X964000Y964000D01*
X964000Y7734891D01*
X13762657Y7734891D01*
X14064218Y7005057D01*
X14622120Y6446181D01*
X15351427Y6143346D01*
X16141109Y6142657D01*
X16546886Y6310320D01*
X16403328Y5964595D01*
X16402674Y5214695D01*
X16546924Y4865583D01*
X16144573Y5032654D01*
X15354891Y5033343D01*
X14625057Y4731782D01*
X14066181Y4173880D01*
X13763346Y3444573D01*
X13762657Y2654891D01*
X14064218Y1925057D01*
X14622120Y1366181D01*
X15351427Y1063346D01*
X16141109Y1062657D01*
X16870943Y1364218D01*
X17429819Y1922120D01*
X17732654Y2651427D01*
X17733343Y3441109D01*
X17565680Y3846886D01*
X17911405Y3703328D01*
X18661305Y3702674D01*
X19010417Y3846924D01*
X18843346Y3444573D01*
X18842657Y2654891D01*
X19144218Y1925057D01*
X19702120Y1366181D01*
X20431427Y1063346D01*
X21221109Y1062657D01*
X21950943Y1364218D01*
X22509819Y1922120D01*
X22812654Y2651427D01*
X22813343Y3441109D01*
X22511782Y4170943D01*
X22429122Y4253747D01*
X22704016Y4308427D01*
X23153342Y4608657D01*
X25493936Y6949251D01*
X25530018Y6956428D01*
X25979344Y7256658D01*
X26379343Y7656657D01*
X26679573Y8105984D01*
X26785000Y8636000D01*
X26679573Y9166016D01*
X26379343Y9615343D01*
X25930016Y9915573D01*
X25400000Y10021000D01*
X24869984Y9915573D01*
X24420657Y9615343D01*
X24328065Y9522751D01*
X24291983Y9515574D01*
X23980092Y9307175D01*
X23842657Y9215344D01*
X22813050Y8185737D01*
X22813343Y8521109D01*
X22511782Y9250943D01*
X22463000Y9299810D01*
X22463000Y11065000D01*
X36068000Y11065000D01*
X36693687Y11189457D01*
X37224120Y11543880D01*
X37578543Y12074313D01*
X37703000Y12700000D01*
X37578543Y13325687D01*
X37224120Y13856120D01*
X36693687Y14210543D01*
X36068000Y14335000D01*
X21447000Y14335000D01*
X21447000Y35306000D01*
X21322543Y35931687D01*
X21217511Y36088878D01*
X21177162Y36303317D01*
X21038090Y36519441D01*
X20956230Y36575374D01*
X21025441Y36619910D01*
X21170431Y36832110D01*
X21221440Y37084000D01*
X21221440Y38608000D01*
X21177162Y38843317D01*
X21038090Y39059441D01*
X20825890Y39204431D01*
X20574000Y39255440D01*
X19050000Y39255440D01*
X18814683Y39211162D01*
X18598559Y39072090D01*
X18542626Y38990230D01*
X18498090Y39059441D01*
X18285890Y39204431D01*
X18034000Y39255440D01*
X16510000Y39255440D01*
X16274683Y39211162D01*
X16058559Y39072090D01*
X15913569Y38859890D01*
X15862560Y38608000D01*
X15862560Y37084000D01*
X15906838Y36848683D01*
X16045910Y36632559D01*
X16127770Y36576626D01*
X16058559Y36532090D01*
X15913569Y36319890D01*
X15866918Y36089521D01*
X15761457Y35931687D01*
X15637000Y35306000D01*
X15637000Y11479300D01*
X15636999Y11479295D01*
X15761457Y10853607D01*
X16115880Y10323175D01*
X16455516Y9983539D01*
X16144573Y10112654D01*
X15354891Y10113343D01*
X14625057Y9811782D01*
X14066181Y9253880D01*
X13763346Y8524573D01*
X13762657Y7734891D01*
X964000Y7734891D01*
X964000Y39676000D01*
X32706143Y39676000D01*
X32706143Y36863000D01*
G37*
%TD.AperFunction*%
%TD*%
M02*
