M48
; DRILL file {KiCad 6.0.4-6f826c9f35~116~ubuntu20.04.1} date Sun May 15 21:38:31 2022
; FORMAT={-:-/ absolute / metric / decimal}
; #@! TF.CreationDate,2022-05-15T21:38:31+00:00
; #@! TF.GenerationSoftware,Kicad,Pcbnew,6.0.4-6f826c9f35~116~ubuntu20.04.1
; #@! TF.FileFunction,Plated,1,2,PTH
FMAT,2
METRIC
; #@! TA.AperFunction,Plated,PTH,ViaDrill
T1C0.400
; #@! TA.AperFunction,Plated,PTH,ComponentDrill
T2C0.889
; #@! TA.AperFunction,Plated,PTH,ComponentDrill
T3C1.500
; #@! TA.AperFunction,Plated,PTH,ComponentDrill
T4C1.700
; #@! TA.AperFunction,Plated,PTH,ComponentDrill
T5C3.000
%
G90
G05
T1
X25.4Y8.636
X31.496Y12.7
X36.068Y12.7
T2
X17.272Y37.846
X17.272Y35.306
X19.812Y37.846
X19.812Y35.306
X22.352Y37.846
X22.352Y35.306
T3
X18.288Y5.588
T4
X15.748Y8.128
X15.748Y3.048
X20.828Y8.128
X20.828Y3.048
T5
X5.08Y35.56
X5.08Y25.908
X5.08Y15.748
X5.08Y5.08
X26.924Y3.556
X36.068Y3.556
X45.72Y35.56
X45.72Y25.908
X45.72Y15.748
X45.72Y5.08
T0
M30
