  0
SECTION
  2
HEADER
  9
$ANGBASE
  50
0.0
  9
$ANGDIR
  70
1
  9
$MEASUREMENT
  70
0
  0
ENDSEC
  0
SECTION
  2
TABLES
  0
TABLE
  2
LTYPE
  70
4
  0
LTYPE
  5
40F
  2
CONTINUOUS
  70
0
  3
Solid line
  72
65
  73
0
  40
0.0
  0
LTYPE
  5
410
  2
DASHDOT
 70
0
  3
Dash Dot ____ _ ____ _
 72
65
 73
4
 40
2.0
 49
1.25
 49
-0.25
 49
0.25
 49
-0.25
  0
LTYPE
  5
411
  2
DASHED
 70
0
  3
Dashed __ __ __ __ __
 72
65
 73
2
 40
0.75
 49
0.5
 49
-0.25
  0
LTYPE
  5
43B
  2
DOTTED
 70
0
  3
Dotted .  .  .  .
 72
65
 73
2
 40
0.2
 49
0.0
 49
-0.2
  0
ENDTAB
  0
TABLE
  2
STYLE
  70
4
  0
STYLE
  2
KICAD
  70
0
  40
0
  41
1
  42
1
  50
0
  71
0
  3
isocp.shx
  0
STYLE
  2
KICADB
  70
0
  40
0
  41
1
  42
1
  50
0
  71
0
  3
isocp.shx
  0
STYLE
  2
KICADI
  70
0
  40
0
  41
1
  42
1
  50
15
  71
0
  3
isocp.shx
  0
STYLE
  2
KICADBI
  70
0
  40
0
  41
1
  42
1
  50
15
  71
0
  3
isocp.shx
  0
ENDTAB
  0
TABLE
  2
LAYER
  70
1
  0
LAYER
  2
BLACK
  70
0
  62
7
  6
CONTINUOUS
  0
ENDTAB
  0
ENDSEC
  0
SECTION
  2
ENTITIES
0
LINE
8
BLACK
6
CONTINUOUS
10
6.42877
20
-4.92729
11
6.44225
21
-4.92906
0
LINE
8
BLACK
6
CONTINUOUS
10
6.44225
20
-4.92906
11
6.45544
21
-4.93237
0
LINE
8
BLACK
6
CONTINUOUS
10
6.45544
20
-4.93237
11
6.46816
21
-4.93718
0
LINE
8
BLACK
6
CONTINUOUS
10
6.46816
20
-4.93718
11
6.48024
21
-4.94342
0
LINE
8
BLACK
6
CONTINUOUS
10
6.48024
20
-4.94342
11
6.49153
21
-4.951
0
LINE
8
BLACK
6
CONTINUOUS
10
6.49153
20
-4.951
11
6.50187
21
-4.95983
0
LINE
8
BLACK
6
CONTINUOUS
10
6.50187
20
-4.95983
11
6.51112
21
-4.96979
0
LINE
8
BLACK
6
CONTINUOUS
10
6.51112
20
-4.96979
11
6.51917
21
-4.98075
0
LINE
8
BLACK
6
CONTINUOUS
10
6.51917
20
-4.98075
11
6.52591
21
-4.99256
0
LINE
8
BLACK
6
CONTINUOUS
10
6.52591
20
-4.99256
11
6.53125
21
-5.00507
0
LINE
8
BLACK
6
CONTINUOUS
10
6.53125
20
-5.00507
11
6.53511
21
-5.01811
0
LINE
8
BLACK
6
CONTINUOUS
10
6.53511
20
-5.01811
11
6.53745
21
-5.0315
0
LINE
8
BLACK
6
CONTINUOUS
10
6.53745
20
-5.0315
11
6.53823
21
-5.04508
0
LINE
8
BLACK
6
CONTINUOUS
10
6.53823
20
-5.04508
11
6.538
21
-5.05249
0
LINE
8
BLACK
6
CONTINUOUS
10
6.538
20
-5.05249
11
6.53636
21
-5.06599
0
LINE
8
BLACK
6
CONTINUOUS
10
6.53636
20
-5.06599
11
6.53319
21
-5.07922
0
LINE
8
BLACK
6
CONTINUOUS
10
6.53319
20
-5.07922
11
6.52851
21
-5.09199
0
LINE
8
BLACK
6
CONTINUOUS
10
6.52851
20
-5.09199
11
6.5224
21
-5.10413
0
LINE
8
BLACK
6
CONTINUOUS
10
6.5224
20
-5.10413
11
6.51494
21
-5.1155
0
LINE
8
BLACK
6
CONTINUOUS
10
6.51494
20
-5.1155
11
6.50622
21
-5.12593
0
LINE
8
BLACK
6
CONTINUOUS
10
6.50622
20
-5.12593
11
6.49635
21
-5.13529
0
LINE
8
BLACK
6
CONTINUOUS
10
6.49635
20
-5.13529
11
6.48548
21
-5.14346
0
LINE
8
BLACK
6
CONTINUOUS
10
6.48548
20
-5.14346
11
6.47374
21
-5.15032
0
LINE
8
BLACK
6
CONTINUOUS
10
6.47374
20
-5.15032
11
6.46129
21
-5.15578
0
LINE
8
BLACK
6
CONTINUOUS
10
6.46129
20
-5.15578
11
6.44829
21
-5.15978
0
LINE
8
BLACK
6
CONTINUOUS
10
6.44829
20
-5.15978
11
6.43492
21
-5.16226
0
LINE
8
BLACK
6
CONTINUOUS
10
6.43492
20
-5.16226
11
6.42135
21
-5.16318
0
LINE
8
BLACK
6
CONTINUOUS
10
6.42135
20
-5.16318
11
6.40777
21
-5.16254
0
LINE
8
BLACK
6
CONTINUOUS
10
6.40777
20
-5.16254
11
6.39435
21
-5.16034
0
LINE
8
BLACK
6
CONTINUOUS
10
6.39435
20
-5.16034
11
6.38128
21
-5.15662
0
LINE
8
BLACK
6
CONTINUOUS
10
6.38128
20
-5.15662
11
6.36871
21
-5.15142
0
LINE
8
BLACK
6
CONTINUOUS
10
6.36871
20
-5.15142
11
6.35683
21
-5.1448
0
LINE
8
BLACK
6
CONTINUOUS
10
6.35683
20
-5.1448
11
6.34579
21
-5.13687
0
LINE
8
BLACK
6
CONTINUOUS
10
6.34579
20
-5.13687
11
6.33573
21
-5.12772
0
LINE
8
BLACK
6
CONTINUOUS
10
6.33573
20
-5.12772
11
6.32679
21
-5.11747
0
LINE
8
BLACK
6
CONTINUOUS
10
6.32679
20
-5.11747
11
6.31909
21
-5.10626
0
LINE
8
BLACK
6
CONTINUOUS
10
6.31909
20
-5.10626
11
6.31273
21
-5.09425
0
LINE
8
BLACK
6
CONTINUOUS
10
6.31273
20
-5.09425
11
6.30779
21
-5.08158
0
LINE
8
BLACK
6
CONTINUOUS
10
6.30779
20
-5.08158
11
6.30434
21
-5.06842
0
LINE
8
BLACK
6
CONTINUOUS
10
6.30434
20
-5.06842
11
6.30242
21
-5.05496
0
LINE
8
BLACK
6
CONTINUOUS
10
6.30242
20
-5.05496
11
6.30207
21
-5.04137
0
LINE
8
BLACK
6
CONTINUOUS
10
6.30207
20
-5.04137
11
6.30327
21
-5.02782
0
LINE
8
BLACK
6
CONTINUOUS
10
6.30327
20
-5.02782
11
6.30603
21
-5.01451
0
LINE
8
BLACK
6
CONTINUOUS
10
6.30603
20
-5.01451
11
6.3103
21
-5.0016
0
LINE
8
BLACK
6
CONTINUOUS
10
6.3103
20
-5.0016
11
6.31603
21
-4.98927
0
LINE
8
BLACK
6
CONTINUOUS
10
6.31603
20
-4.98927
11
6.32313
21
-4.97767
0
LINE
8
BLACK
6
CONTINUOUS
10
6.32313
20
-4.97767
11
6.33152
21
-4.96697
0
LINE
8
BLACK
6
CONTINUOUS
10
6.33152
20
-4.96697
11
6.34109
21
-4.95731
0
LINE
8
BLACK
6
CONTINUOUS
10
6.34109
20
-4.95731
11
6.3517
21
-4.9488
0
LINE
8
BLACK
6
CONTINUOUS
10
6.3517
20
-4.9488
11
6.36322
21
-4.94158
0
LINE
8
BLACK
6
CONTINUOUS
10
6.36322
20
-4.94158
11
6.37549
21
-4.93572
0
LINE
8
BLACK
6
CONTINUOUS
10
6.37549
20
-4.93572
11
6.38836
21
-4.93132
0
LINE
8
BLACK
6
CONTINUOUS
10
6.38836
20
-4.93132
11
6.40164
21
-4.92842
0
LINE
8
BLACK
6
CONTINUOUS
10
6.40164
20
-4.92842
11
6.41517
21
-4.92707
0
LINE
8
BLACK
6
CONTINUOUS
10
6.41517
20
-4.92707
11
6.42877
21
-4.92729
0
LINE
8
BLACK
6
CONTINUOUS
10
4.82877
20
-4.92729
11
4.84225
21
-4.92906
0
LINE
8
BLACK
6
CONTINUOUS
10
4.84225
20
-4.92906
11
4.85544
21
-4.93237
0
LINE
8
BLACK
6
CONTINUOUS
10
4.85544
20
-4.93237
11
4.86816
21
-4.93718
0
LINE
8
BLACK
6
CONTINUOUS
10
4.86816
20
-4.93718
11
4.88024
21
-4.94342
0
LINE
8
BLACK
6
CONTINUOUS
10
4.88024
20
-4.94342
11
4.89153
21
-4.951
0
LINE
8
BLACK
6
CONTINUOUS
10
4.89153
20
-4.951
11
4.90187
21
-4.95983
0
LINE
8
BLACK
6
CONTINUOUS
10
4.90187
20
-4.95983
11
4.91112
21
-4.96979
0
LINE
8
BLACK
6
CONTINUOUS
10
4.91112
20
-4.96979
11
4.91917
21
-4.98075
0
LINE
8
BLACK
6
CONTINUOUS
10
4.91917
20
-4.98075
11
4.92591
21
-4.99256
0
LINE
8
BLACK
6
CONTINUOUS
10
4.92591
20
-4.99256
11
4.93125
21
-5.00507
0
LINE
8
BLACK
6
CONTINUOUS
10
4.93125
20
-5.00507
11
4.93511
21
-5.01811
0
LINE
8
BLACK
6
CONTINUOUS
10
4.93511
20
-5.01811
11
4.93745
21
-5.0315
0
LINE
8
BLACK
6
CONTINUOUS
10
4.93745
20
-5.0315
11
4.93823
21
-5.04508
0
LINE
8
BLACK
6
CONTINUOUS
10
4.93823
20
-5.04508
11
4.938
21
-5.05249
0
LINE
8
BLACK
6
CONTINUOUS
10
4.938
20
-5.05249
11
4.93636
21
-5.06599
0
LINE
8
BLACK
6
CONTINUOUS
10
4.93636
20
-5.06599
11
4.93319
21
-5.07922
0
LINE
8
BLACK
6
CONTINUOUS
10
4.93319
20
-5.07922
11
4.92851
21
-5.09199
0
LINE
8
BLACK
6
CONTINUOUS
10
4.92851
20
-5.09199
11
4.9224
21
-5.10413
0
LINE
8
BLACK
6
CONTINUOUS
10
4.9224
20
-5.10413
11
4.91494
21
-5.1155
0
LINE
8
BLACK
6
CONTINUOUS
10
4.91494
20
-5.1155
11
4.90622
21
-5.12593
0
LINE
8
BLACK
6
CONTINUOUS
10
4.90622
20
-5.12593
11
4.89635
21
-5.13529
0
LINE
8
BLACK
6
CONTINUOUS
10
4.89635
20
-5.13529
11
4.88548
21
-5.14346
0
LINE
8
BLACK
6
CONTINUOUS
10
4.88548
20
-5.14346
11
4.87374
21
-5.15032
0
LINE
8
BLACK
6
CONTINUOUS
10
4.87374
20
-5.15032
11
4.86129
21
-5.15578
0
LINE
8
BLACK
6
CONTINUOUS
10
4.86129
20
-5.15578
11
4.84829
21
-5.15978
0
LINE
8
BLACK
6
CONTINUOUS
10
4.84829
20
-5.15978
11
4.83492
21
-5.16226
0
LINE
8
BLACK
6
CONTINUOUS
10
4.83492
20
-5.16226
11
4.82135
21
-5.16318
0
LINE
8
BLACK
6
CONTINUOUS
10
4.82135
20
-5.16318
11
4.80777
21
-5.16254
0
LINE
8
BLACK
6
CONTINUOUS
10
4.80777
20
-5.16254
11
4.79435
21
-5.16034
0
LINE
8
BLACK
6
CONTINUOUS
10
4.79435
20
-5.16034
11
4.78128
21
-5.15662
0
LINE
8
BLACK
6
CONTINUOUS
10
4.78128
20
-5.15662
11
4.76871
21
-5.15142
0
LINE
8
BLACK
6
CONTINUOUS
10
4.76871
20
-5.15142
11
4.75683
21
-5.1448
0
LINE
8
BLACK
6
CONTINUOUS
10
4.75683
20
-5.1448
11
4.74579
21
-5.13687
0
LINE
8
BLACK
6
CONTINUOUS
10
4.74579
20
-5.13687
11
4.73573
21
-5.12772
0
LINE
8
BLACK
6
CONTINUOUS
10
4.73573
20
-5.12772
11
4.72679
21
-5.11747
0
LINE
8
BLACK
6
CONTINUOUS
10
4.72679
20
-5.11747
11
4.71909
21
-5.10626
0
LINE
8
BLACK
6
CONTINUOUS
10
4.71909
20
-5.10626
11
4.71273
21
-5.09425
0
LINE
8
BLACK
6
CONTINUOUS
10
4.71273
20
-5.09425
11
4.70779
21
-5.08158
0
LINE
8
BLACK
6
CONTINUOUS
10
4.70779
20
-5.08158
11
4.70434
21
-5.06842
0
LINE
8
BLACK
6
CONTINUOUS
10
4.70434
20
-5.06842
11
4.70242
21
-5.05496
0
LINE
8
BLACK
6
CONTINUOUS
10
4.70242
20
-5.05496
11
4.70207
21
-5.04137
0
LINE
8
BLACK
6
CONTINUOUS
10
4.70207
20
-5.04137
11
4.70327
21
-5.02782
0
LINE
8
BLACK
6
CONTINUOUS
10
4.70327
20
-5.02782
11
4.70603
21
-5.01451
0
LINE
8
BLACK
6
CONTINUOUS
10
4.70603
20
-5.01451
11
4.7103
21
-5.0016
0
LINE
8
BLACK
6
CONTINUOUS
10
4.7103
20
-5.0016
11
4.71603
21
-4.98927
0
LINE
8
BLACK
6
CONTINUOUS
10
4.71603
20
-4.98927
11
4.72313
21
-4.97767
0
LINE
8
BLACK
6
CONTINUOUS
10
4.72313
20
-4.97767
11
4.73152
21
-4.96697
0
LINE
8
BLACK
6
CONTINUOUS
10
4.73152
20
-4.96697
11
4.74109
21
-4.95731
0
LINE
8
BLACK
6
CONTINUOUS
10
4.74109
20
-4.95731
11
4.7517
21
-4.9488
0
LINE
8
BLACK
6
CONTINUOUS
10
4.7517
20
-4.9488
11
4.76322
21
-4.94158
0
LINE
8
BLACK
6
CONTINUOUS
10
4.76322
20
-4.94158
11
4.77549
21
-4.93572
0
LINE
8
BLACK
6
CONTINUOUS
10
4.77549
20
-4.93572
11
4.78836
21
-4.93132
0
LINE
8
BLACK
6
CONTINUOUS
10
4.78836
20
-4.93132
11
4.80164
21
-4.92842
0
LINE
8
BLACK
6
CONTINUOUS
10
4.80164
20
-4.92842
11
4.81517
21
-4.92707
0
LINE
8
BLACK
6
CONTINUOUS
10
4.81517
20
-4.92707
11
4.82877
21
-4.92729
0
LINE
8
BLACK
6
CONTINUOUS
10
6.42877
20
-3.32729
11
6.44225
21
-3.32906
0
LINE
8
BLACK
6
CONTINUOUS
10
6.44225
20
-3.32906
11
6.45544
21
-3.33237
0
LINE
8
BLACK
6
CONTINUOUS
10
6.45544
20
-3.33237
11
6.46816
21
-3.33718
0
LINE
8
BLACK
6
CONTINUOUS
10
6.46816
20
-3.33718
11
6.48024
21
-3.34342
0
LINE
8
BLACK
6
CONTINUOUS
10
6.48024
20
-3.34342
11
6.49153
21
-3.351
0
LINE
8
BLACK
6
CONTINUOUS
10
6.49153
20
-3.351
11
6.50187
21
-3.35983
0
LINE
8
BLACK
6
CONTINUOUS
10
6.50187
20
-3.35983
11
6.51112
21
-3.36979
0
LINE
8
BLACK
6
CONTINUOUS
10
6.51112
20
-3.36979
11
6.51917
21
-3.38075
0
LINE
8
BLACK
6
CONTINUOUS
10
6.51917
20
-3.38075
11
6.52591
21
-3.39256
0
LINE
8
BLACK
6
CONTINUOUS
10
6.52591
20
-3.39256
11
6.53125
21
-3.40507
0
LINE
8
BLACK
6
CONTINUOUS
10
6.53125
20
-3.40507
11
6.53511
21
-3.41811
0
LINE
8
BLACK
6
CONTINUOUS
10
6.53511
20
-3.41811
11
6.53745
21
-3.4315
0
LINE
8
BLACK
6
CONTINUOUS
10
6.53745
20
-3.4315
11
6.53823
21
-3.44508
0
LINE
8
BLACK
6
CONTINUOUS
10
6.53823
20
-3.44508
11
6.538
21
-3.45249
0
LINE
8
BLACK
6
CONTINUOUS
10
6.538
20
-3.45249
11
6.53636
21
-3.46599
0
LINE
8
BLACK
6
CONTINUOUS
10
6.53636
20
-3.46599
11
6.53319
21
-3.47922
0
LINE
8
BLACK
6
CONTINUOUS
10
6.53319
20
-3.47922
11
6.52851
21
-3.49199
0
LINE
8
BLACK
6
CONTINUOUS
10
6.52851
20
-3.49199
11
6.5224
21
-3.50413
0
LINE
8
BLACK
6
CONTINUOUS
10
6.5224
20
-3.50413
11
6.51494
21
-3.5155
0
LINE
8
BLACK
6
CONTINUOUS
10
6.51494
20
-3.5155
11
6.50622
21
-3.52593
0
LINE
8
BLACK
6
CONTINUOUS
10
6.50622
20
-3.52593
11
6.49635
21
-3.53529
0
LINE
8
BLACK
6
CONTINUOUS
10
6.49635
20
-3.53529
11
6.48548
21
-3.54346
0
LINE
8
BLACK
6
CONTINUOUS
10
6.48548
20
-3.54346
11
6.47374
21
-3.55032
0
LINE
8
BLACK
6
CONTINUOUS
10
6.47374
20
-3.55032
11
6.46129
21
-3.55578
0
LINE
8
BLACK
6
CONTINUOUS
10
6.46129
20
-3.55578
11
6.44829
21
-3.55978
0
LINE
8
BLACK
6
CONTINUOUS
10
6.44829
20
-3.55978
11
6.43492
21
-3.56226
0
LINE
8
BLACK
6
CONTINUOUS
10
6.43492
20
-3.56226
11
6.42135
21
-3.56318
0
LINE
8
BLACK
6
CONTINUOUS
10
6.42135
20
-3.56318
11
6.40777
21
-3.56254
0
LINE
8
BLACK
6
CONTINUOUS
10
6.40777
20
-3.56254
11
6.39435
21
-3.56034
0
LINE
8
BLACK
6
CONTINUOUS
10
6.39435
20
-3.56034
11
6.38128
21
-3.55662
0
LINE
8
BLACK
6
CONTINUOUS
10
6.38128
20
-3.55662
11
6.36871
21
-3.55142
0
LINE
8
BLACK
6
CONTINUOUS
10
6.36871
20
-3.55142
11
6.35683
21
-3.5448
0
LINE
8
BLACK
6
CONTINUOUS
10
6.35683
20
-3.5448
11
6.34579
21
-3.53687
0
LINE
8
BLACK
6
CONTINUOUS
10
6.34579
20
-3.53687
11
6.33573
21
-3.52772
0
LINE
8
BLACK
6
CONTINUOUS
10
6.33573
20
-3.52772
11
6.32679
21
-3.51747
0
LINE
8
BLACK
6
CONTINUOUS
10
6.32679
20
-3.51747
11
6.31909
21
-3.50626
0
LINE
8
BLACK
6
CONTINUOUS
10
6.31909
20
-3.50626
11
6.31273
21
-3.49425
0
LINE
8
BLACK
6
CONTINUOUS
10
6.31273
20
-3.49425
11
6.30779
21
-3.48158
0
LINE
8
BLACK
6
CONTINUOUS
10
6.30779
20
-3.48158
11
6.30434
21
-3.46842
0
LINE
8
BLACK
6
CONTINUOUS
10
6.30434
20
-3.46842
11
6.30242
21
-3.45496
0
LINE
8
BLACK
6
CONTINUOUS
10
6.30242
20
-3.45496
11
6.30207
21
-3.44137
0
LINE
8
BLACK
6
CONTINUOUS
10
6.30207
20
-3.44137
11
6.30327
21
-3.42782
0
LINE
8
BLACK
6
CONTINUOUS
10
6.30327
20
-3.42782
11
6.30603
21
-3.41451
0
LINE
8
BLACK
6
CONTINUOUS
10
6.30603
20
-3.41451
11
6.3103
21
-3.4016
0
LINE
8
BLACK
6
CONTINUOUS
10
6.3103
20
-3.4016
11
6.31603
21
-3.38927
0
LINE
8
BLACK
6
CONTINUOUS
10
6.31603
20
-3.38927
11
6.32313
21
-3.37767
0
LINE
8
BLACK
6
CONTINUOUS
10
6.32313
20
-3.37767
11
6.33152
21
-3.36697
0
LINE
8
BLACK
6
CONTINUOUS
10
6.33152
20
-3.36697
11
6.34109
21
-3.35731
0
LINE
8
BLACK
6
CONTINUOUS
10
6.34109
20
-3.35731
11
6.3517
21
-3.3488
0
LINE
8
BLACK
6
CONTINUOUS
10
6.3517
20
-3.3488
11
6.36322
21
-3.34158
0
LINE
8
BLACK
6
CONTINUOUS
10
6.36322
20
-3.34158
11
6.37549
21
-3.33572
0
LINE
8
BLACK
6
CONTINUOUS
10
6.37549
20
-3.33572
11
6.38836
21
-3.33132
0
LINE
8
BLACK
6
CONTINUOUS
10
6.38836
20
-3.33132
11
6.40164
21
-3.32842
0
LINE
8
BLACK
6
CONTINUOUS
10
6.40164
20
-3.32842
11
6.41517
21
-3.32707
0
LINE
8
BLACK
6
CONTINUOUS
10
6.41517
20
-3.32707
11
6.42877
21
-3.32729
0
LINE
8
BLACK
6
CONTINUOUS
10
4.82877
20
-3.32729
11
4.84225
21
-3.32906
0
LINE
8
BLACK
6
CONTINUOUS
10
4.84225
20
-3.32906
11
4.85544
21
-3.33237
0
LINE
8
BLACK
6
CONTINUOUS
10
4.85544
20
-3.33237
11
4.86816
21
-3.33718
0
LINE
8
BLACK
6
CONTINUOUS
10
4.86816
20
-3.33718
11
4.88024
21
-3.34342
0
LINE
8
BLACK
6
CONTINUOUS
10
4.88024
20
-3.34342
11
4.89153
21
-3.351
0
LINE
8
BLACK
6
CONTINUOUS
10
4.89153
20
-3.351
11
4.90187
21
-3.35983
0
LINE
8
BLACK
6
CONTINUOUS
10
4.90187
20
-3.35983
11
4.91112
21
-3.36979
0
LINE
8
BLACK
6
CONTINUOUS
10
4.91112
20
-3.36979
11
4.91917
21
-3.38075
0
LINE
8
BLACK
6
CONTINUOUS
10
4.91917
20
-3.38075
11
4.92591
21
-3.39256
0
LINE
8
BLACK
6
CONTINUOUS
10
4.92591
20
-3.39256
11
4.93125
21
-3.40507
0
LINE
8
BLACK
6
CONTINUOUS
10
4.93125
20
-3.40507
11
4.93511
21
-3.41811
0
LINE
8
BLACK
6
CONTINUOUS
10
4.93511
20
-3.41811
11
4.93745
21
-3.4315
0
LINE
8
BLACK
6
CONTINUOUS
10
4.93745
20
-3.4315
11
4.93823
21
-3.44508
0
LINE
8
BLACK
6
CONTINUOUS
10
4.93823
20
-3.44508
11
4.938
21
-3.45249
0
LINE
8
BLACK
6
CONTINUOUS
10
4.938
20
-3.45249
11
4.93636
21
-3.46599
0
LINE
8
BLACK
6
CONTINUOUS
10
4.93636
20
-3.46599
11
4.93319
21
-3.47922
0
LINE
8
BLACK
6
CONTINUOUS
10
4.93319
20
-3.47922
11
4.92851
21
-3.49199
0
LINE
8
BLACK
6
CONTINUOUS
10
4.92851
20
-3.49199
11
4.9224
21
-3.50413
0
LINE
8
BLACK
6
CONTINUOUS
10
4.9224
20
-3.50413
11
4.91494
21
-3.5155
0
LINE
8
BLACK
6
CONTINUOUS
10
4.91494
20
-3.5155
11
4.90622
21
-3.52593
0
LINE
8
BLACK
6
CONTINUOUS
10
4.90622
20
-3.52593
11
4.89635
21
-3.53529
0
LINE
8
BLACK
6
CONTINUOUS
10
4.89635
20
-3.53529
11
4.88548
21
-3.54346
0
LINE
8
BLACK
6
CONTINUOUS
10
4.88548
20
-3.54346
11
4.87374
21
-3.55032
0
LINE
8
BLACK
6
CONTINUOUS
10
4.87374
20
-3.55032
11
4.86129
21
-3.55578
0
LINE
8
BLACK
6
CONTINUOUS
10
4.86129
20
-3.55578
11
4.84829
21
-3.55978
0
LINE
8
BLACK
6
CONTINUOUS
10
4.84829
20
-3.55978
11
4.83492
21
-3.56226
0
LINE
8
BLACK
6
CONTINUOUS
10
4.83492
20
-3.56226
11
4.82135
21
-3.56318
0
LINE
8
BLACK
6
CONTINUOUS
10
4.82135
20
-3.56318
11
4.80777
21
-3.56254
0
LINE
8
BLACK
6
CONTINUOUS
10
4.80777
20
-3.56254
11
4.79435
21
-3.56034
0
LINE
8
BLACK
6
CONTINUOUS
10
4.79435
20
-3.56034
11
4.78128
21
-3.55662
0
LINE
8
BLACK
6
CONTINUOUS
10
4.78128
20
-3.55662
11
4.76871
21
-3.55142
0
LINE
8
BLACK
6
CONTINUOUS
10
4.76871
20
-3.55142
11
4.75683
21
-3.5448
0
LINE
8
BLACK
6
CONTINUOUS
10
4.75683
20
-3.5448
11
4.74579
21
-3.53687
0
LINE
8
BLACK
6
CONTINUOUS
10
4.74579
20
-3.53687
11
4.73573
21
-3.52772
0
LINE
8
BLACK
6
CONTINUOUS
10
4.73573
20
-3.52772
11
4.72679
21
-3.51747
0
LINE
8
BLACK
6
CONTINUOUS
10
4.72679
20
-3.51747
11
4.71909
21
-3.50626
0
LINE
8
BLACK
6
CONTINUOUS
10
4.71909
20
-3.50626
11
4.71273
21
-3.49425
0
LINE
8
BLACK
6
CONTINUOUS
10
4.71273
20
-3.49425
11
4.70779
21
-3.48158
0
LINE
8
BLACK
6
CONTINUOUS
10
4.70779
20
-3.48158
11
4.70434
21
-3.46842
0
LINE
8
BLACK
6
CONTINUOUS
10
4.70434
20
-3.46842
11
4.70242
21
-3.45496
0
LINE
8
BLACK
6
CONTINUOUS
10
4.70242
20
-3.45496
11
4.70207
21
-3.44137
0
LINE
8
BLACK
6
CONTINUOUS
10
4.70207
20
-3.44137
11
4.70327
21
-3.42782
0
LINE
8
BLACK
6
CONTINUOUS
10
4.70327
20
-3.42782
11
4.70603
21
-3.41451
0
LINE
8
BLACK
6
CONTINUOUS
10
4.70603
20
-3.41451
11
4.7103
21
-3.4016
0
LINE
8
BLACK
6
CONTINUOUS
10
4.7103
20
-3.4016
11
4.71603
21
-3.38927
0
LINE
8
BLACK
6
CONTINUOUS
10
4.71603
20
-3.38927
11
4.72313
21
-3.37767
0
LINE
8
BLACK
6
CONTINUOUS
10
4.72313
20
-3.37767
11
4.73152
21
-3.36697
0
LINE
8
BLACK
6
CONTINUOUS
10
4.73152
20
-3.36697
11
4.74109
21
-3.35731
0
LINE
8
BLACK
6
CONTINUOUS
10
4.74109
20
-3.35731
11
4.7517
21
-3.3488
0
LINE
8
BLACK
6
CONTINUOUS
10
4.7517
20
-3.3488
11
4.76322
21
-3.34158
0
LINE
8
BLACK
6
CONTINUOUS
10
4.76322
20
-3.34158
11
4.77549
21
-3.33572
0
LINE
8
BLACK
6
CONTINUOUS
10
4.77549
20
-3.33572
11
4.78836
21
-3.33132
0
LINE
8
BLACK
6
CONTINUOUS
10
4.78836
20
-3.33132
11
4.80164
21
-3.32842
0
LINE
8
BLACK
6
CONTINUOUS
10
4.80164
20
-3.32842
11
4.81517
21
-3.32707
0
LINE
8
BLACK
6
CONTINUOUS
10
4.81517
20
-3.32707
11
4.82877
21
-3.32729
  0
ENDSEC
  0
EOF
