  0
SECTION
  2
HEADER
  9
$ANGBASE
  50
0.0
  9
$ANGDIR
  70
1
  9
$MEASUREMENT
  70
0
  0
ENDSEC
  0
SECTION
  2
TABLES
  0
TABLE
  2
LTYPE
  70
4
  0
LTYPE
  5
40F
  2
CONTINUOUS
  70
0
  3
Solid line
  72
65
  73
0
  40
0.0
  0
LTYPE
  5
410
  2
DASHDOT
 70
0
  3
Dash Dot ____ _ ____ _
 72
65
 73
4
 40
2.0
 49
1.25
 49
-0.25
 49
0.25
 49
-0.25
  0
LTYPE
  5
411
  2
DASHED
 70
0
  3
Dashed __ __ __ __ __
 72
65
 73
2
 40
0.75
 49
0.5
 49
-0.25
  0
LTYPE
  5
43B
  2
DOTTED
 70
0
  3
Dotted .  .  .  .
 72
65
 73
2
 40
0.2
 49
0.0
 49
-0.2
  0
ENDTAB
  0
TABLE
  2
STYLE
  70
4
  0
STYLE
  2
KICAD
  70
0
  40
0
  41
1
  42
1
  50
0
  71
0
  3
isocp.shx
  0
STYLE
  2
KICADB
  70
0
  40
0
  41
1
  42
1
  50
0
  71
0
  3
isocp.shx
  0
STYLE
  2
KICADI
  70
0
  40
0
  41
1
  42
1
  50
15
  71
0
  3
isocp.shx
  0
STYLE
  2
KICADBI
  70
0
  40
0
  41
1
  42
1
  50
15
  71
0
  3
isocp.shx
  0
ENDTAB
  0
TABLE
  2
LAYER
  70
1
  0
LAYER
  2
BLACK
  70
0
  62
7
  6
CONTINUOUS
  0
ENDTAB
  0
ENDSEC
  0
SECTION
  2
ENTITIES
0
LINE
8
BLACK
6
CONTINUOUS
10
0.0333333
20
0.667147
11
0.0344172
21
0.668769
0
LINE
8
BLACK
6
CONTINUOUS
10
0.0344172
20
0.668769
11
0.0360393
21
0.669853
0
LINE
8
BLACK
6
CONTINUOUS
10
0.0360393
20
0.669853
11
0.0379528
21
0.670233
0
LINE
8
BLACK
6
CONTINUOUS
10
0.0379528
20
0.670233
11
0.150709
21
0.670233
0
LINE
8
BLACK
6
CONTINUOUS
10
0.150709
20
0.670233
11
0.150709
21
0.686606
0
LINE
8
BLACK
6
CONTINUOUS
10
0.150709
20
0.686606
11
0.151089
21
0.688519
0
LINE
8
BLACK
6
CONTINUOUS
10
0.151089
20
0.688519
11
0.152173
21
0.690141
0
LINE
8
BLACK
6
CONTINUOUS
10
0.152173
20
0.690141
11
0.153795
21
0.691225
0
LINE
8
BLACK
6
CONTINUOUS
10
0.153795
20
0.691225
11
0.155709
21
0.691606
0
LINE
8
BLACK
6
CONTINUOUS
10
0.155709
20
0.691606
11
0.230709
21
0.691606
0
LINE
8
BLACK
6
CONTINUOUS
10
0.230709
20
0.691606
11
0.230709
21
0.923394
0
LINE
8
BLACK
6
CONTINUOUS
10
0.230709
20
0.923394
11
0.155709
21
0.923394
0
LINE
8
BLACK
6
CONTINUOUS
10
0.155709
20
0.923394
11
0.153795
21
0.923775
0
LINE
8
BLACK
6
CONTINUOUS
10
0.153795
20
0.923775
11
0.152173
21
0.924859
0
LINE
8
BLACK
6
CONTINUOUS
10
0.152173
20
0.924859
11
0.151089
21
0.926481
0
LINE
8
BLACK
6
CONTINUOUS
10
0.151089
20
0.926481
11
0.150709
21
0.928394
0
LINE
8
BLACK
6
CONTINUOUS
10
0.150709
20
0.928394
11
0.150709
21
0.944767
0
LINE
8
BLACK
6
CONTINUOUS
10
0.150709
20
0.944767
11
0.0379528
21
0.944767
0
LINE
8
BLACK
6
CONTINUOUS
10
0.0379528
20
0.944767
11
0.0360393
21
0.945147
0
LINE
8
BLACK
6
CONTINUOUS
10
0.0360393
20
0.945147
11
0.0344172
21
0.946231
0
LINE
8
BLACK
6
CONTINUOUS
10
0.0344172
20
0.946231
11
0.0333333
21
0.947853
0
LINE
8
BLACK
6
CONTINUOUS
10
0.0333333
20
0.947853
11
0.0329528
21
0.949767
0
LINE
8
BLACK
6
CONTINUOUS
10
0.0329528
20
0.949767
11
0.0329528
21
1.36671
0
LINE
8
BLACK
6
CONTINUOUS
10
0.0329528
20
1.36671
11
0.0333333
21
1.36862
0
LINE
8
BLACK
6
CONTINUOUS
10
0.0333333
20
1.36862
11
0.0344172
21
1.37024
0
LINE
8
BLACK
6
CONTINUOUS
10
0.0344172
20
1.37024
11
0.0360393
21
1.37133
0
LINE
8
BLACK
6
CONTINUOUS
10
0.0360393
20
1.37133
11
0.0379528
21
1.37171
0
LINE
8
BLACK
6
CONTINUOUS
10
0.0379528
20
1.37171
11
0.0398662
21
1.37133
0
LINE
8
BLACK
6
CONTINUOUS
10
0.0398662
20
1.37133
11
0.0414883
21
1.37024
0
LINE
8
BLACK
6
CONTINUOUS
10
0.0414883
20
1.37024
11
0.0425738
21
1.36862
0
LINE
8
BLACK
6
CONTINUOUS
10
0.0425738
20
1.36862
11
0.0664168
21
1.31091
0
LINE
8
BLACK
6
CONTINUOUS
10
0.0664168
20
1.31091
11
0.110678
21
1.26657
0
LINE
8
BLACK
6
CONTINUOUS
10
0.110678
20
1.26657
11
0.168538
21
1.24255
0
LINE
8
BLACK
6
CONTINUOUS
10
0.168538
20
1.24255
11
0.231187
21
1.24249
0
LINE
8
BLACK
6
CONTINUOUS
10
0.231187
20
1.24249
11
0.289089
21
1.26642
0
LINE
8
BLACK
6
CONTINUOUS
10
0.289089
20
1.26642
11
0.333427
21
1.31068
0
LINE
8
BLACK
6
CONTINUOUS
10
0.333427
20
1.31068
11
0.357453
21
1.36854
0
LINE
8
BLACK
6
CONTINUOUS
10
0.357453
20
1.36854
11
0.357508
21
1.43119
0
LINE
8
BLACK
6
CONTINUOUS
10
0.357508
20
1.43119
11
0.333583
21
1.48909
0
LINE
8
BLACK
6
CONTINUOUS
10
0.333583
20
1.48909
11
0.289322
21
1.53343
0
LINE
8
BLACK
6
CONTINUOUS
10
0.289322
20
1.53343
11
0.231519
21
1.55743
0
LINE
8
BLACK
6
CONTINUOUS
10
0.231519
20
1.55743
11
0.229897
21
1.55851
0
LINE
8
BLACK
6
CONTINUOUS
10
0.229897
20
1.55851
11
0.228815
21
1.56014
0
LINE
8
BLACK
6
CONTINUOUS
10
0.228815
20
1.56014
11
0.228436
21
1.56205
0
LINE
8
BLACK
6
CONTINUOUS
10
0.228436
20
1.56205
11
0.228818
21
1.56396
0
LINE
8
BLACK
6
CONTINUOUS
10
0.228818
20
1.56396
11
0.229904
21
1.56559
0
LINE
8
BLACK
6
CONTINUOUS
10
0.229904
20
1.56559
11
0.231527
21
1.56667
0
LINE
8
BLACK
6
CONTINUOUS
10
0.231527
20
1.56667
11
0.233436
21
1.56705
0
LINE
8
BLACK
6
CONTINUOUS
10
0.233436
20
1.56705
11
1.28174
21
1.56705
0
LINE
8
BLACK
6
CONTINUOUS
10
1.28174
20
1.56705
11
1.28365
21
1.56667
0
LINE
8
BLACK
6
CONTINUOUS
10
1.28365
20
1.56667
11
1.28527
21
1.56558
0
LINE
8
BLACK
6
CONTINUOUS
10
1.28527
20
1.56558
11
1.28636
21
1.56396
0
LINE
8
BLACK
6
CONTINUOUS
10
1.28636
20
1.56396
11
1.28674
21
1.56205
0
LINE
8
BLACK
6
CONTINUOUS
10
1.28674
20
1.56205
11
1.28674
21
1.45429
0
LINE
8
BLACK
6
CONTINUOUS
10
1.28674
20
1.45429
11
1.63326
21
1.45429
0
LINE
8
BLACK
6
CONTINUOUS
10
1.63326
20
1.45429
11
1.63326
21
1.56205
0
LINE
8
BLACK
6
CONTINUOUS
10
1.63326
20
1.56205
11
1.63364
21
1.56396
0
LINE
8
BLACK
6
CONTINUOUS
10
1.63364
20
1.56396
11
1.63473
21
1.56558
0
LINE
8
BLACK
6
CONTINUOUS
10
1.63473
20
1.56558
11
1.63635
21
1.56667
0
LINE
8
BLACK
6
CONTINUOUS
10
1.63635
20
1.56667
11
1.63826
21
1.56705
0
LINE
8
BLACK
6
CONTINUOUS
10
1.63826
20
1.56705
11
1.76671
21
1.56705
0
LINE
8
BLACK
6
CONTINUOUS
10
1.76671
20
1.56705
11
1.76862
21
1.56667
0
LINE
8
BLACK
6
CONTINUOUS
10
1.76862
20
1.56667
11
1.77024
21
1.56558
0
LINE
8
BLACK
6
CONTINUOUS
10
1.77024
20
1.56558
11
1.77133
21
1.56396
0
LINE
8
BLACK
6
CONTINUOUS
10
1.77133
20
1.56396
11
1.77171
21
1.56205
0
LINE
8
BLACK
6
CONTINUOUS
10
1.77171
20
1.56205
11
1.77133
21
1.56013
0
LINE
8
BLACK
6
CONTINUOUS
10
1.77133
20
1.56013
11
1.77024
21
1.55851
0
LINE
8
BLACK
6
CONTINUOUS
10
1.77024
20
1.55851
11
1.76862
21
1.55743
0
LINE
8
BLACK
6
CONTINUOUS
10
1.76862
20
1.55743
11
1.71091
21
1.53358
0
LINE
8
BLACK
6
CONTINUOUS
10
1.71091
20
1.53358
11
1.66657
21
1.48932
0
LINE
8
BLACK
6
CONTINUOUS
10
1.66657
20
1.48932
11
1.64255
21
1.43146
0
LINE
8
BLACK
6
CONTINUOUS
10
1.64255
20
1.43146
11
1.64249
21
1.36881
0
LINE
8
BLACK
6
CONTINUOUS
10
1.64249
20
1.36881
11
1.66642
21
1.31091
0
LINE
8
BLACK
6
CONTINUOUS
10
1.66642
20
1.31091
11
1.71068
21
1.26657
0
LINE
8
BLACK
6
CONTINUOUS
10
1.71068
20
1.26657
11
1.76854
21
1.24255
0
LINE
8
BLACK
6
CONTINUOUS
10
1.76854
20
1.24255
11
1.83119
21
1.24249
0
LINE
8
BLACK
6
CONTINUOUS
10
1.83119
20
1.24249
11
1.88909
21
1.26642
0
LINE
8
BLACK
6
CONTINUOUS
10
1.88909
20
1.26642
11
1.93343
21
1.31068
0
LINE
8
BLACK
6
CONTINUOUS
10
1.93343
20
1.31068
11
1.95743
21
1.36848
0
LINE
8
BLACK
6
CONTINUOUS
10
1.95743
20
1.36848
11
1.95851
21
1.3701
0
LINE
8
BLACK
6
CONTINUOUS
10
1.95851
20
1.3701
11
1.96014
21
1.37119
0
LINE
8
BLACK
6
CONTINUOUS
10
1.96014
20
1.37119
11
1.96205
21
1.37156
0
LINE
8
BLACK
6
CONTINUOUS
10
1.96205
20
1.37156
11
1.96396
21
1.37118
0
LINE
8
BLACK
6
CONTINUOUS
10
1.96396
20
1.37118
11
1.96559
21
1.3701
0
LINE
8
BLACK
6
CONTINUOUS
10
1.96559
20
1.3701
11
1.96667
21
1.36847
0
LINE
8
BLACK
6
CONTINUOUS
10
1.96667
20
1.36847
11
1.96705
21
1.36656
0
LINE
8
BLACK
6
CONTINUOUS
10
1.96705
20
1.36656
11
1.96705
21
1.02213
0
LINE
8
BLACK
6
CONTINUOUS
10
1.96705
20
1.02213
11
1.96667
21
1.02022
0
LINE
8
BLACK
6
CONTINUOUS
10
1.96667
20
1.02022
11
1.96558
21
1.0186
0
LINE
8
BLACK
6
CONTINUOUS
10
1.96558
20
1.0186
11
1.96396
21
1.01751
0
LINE
8
BLACK
6
CONTINUOUS
10
1.96396
20
1.01751
11
1.96205
21
1.01713
0
LINE
8
BLACK
6
CONTINUOUS
10
1.96205
20
1.01713
11
1.86803
21
1.01713
0
LINE
8
BLACK
6
CONTINUOUS
10
1.86803
20
1.01713
11
1.86803
21
0.582868
0
LINE
8
BLACK
6
CONTINUOUS
10
1.86803
20
0.582868
11
1.96205
21
0.582868
0
LINE
8
BLACK
6
CONTINUOUS
10
1.96205
20
0.582868
11
1.96396
21
0.582488
0
LINE
8
BLACK
6
CONTINUOUS
10
1.96396
20
0.582488
11
1.96558
21
0.581404
0
LINE
8
BLACK
6
CONTINUOUS
10
1.96558
20
0.581404
11
1.96667
21
0.579782
0
LINE
8
BLACK
6
CONTINUOUS
10
1.96667
20
0.579782
11
1.96705
21
0.577868
0
LINE
8
BLACK
6
CONTINUOUS
10
1.96705
20
0.577868
11
1.96705
21
0.233294
0
LINE
8
BLACK
6
CONTINUOUS
10
1.96705
20
0.233294
11
1.96667
21
0.23138
0
LINE
8
BLACK
6
CONTINUOUS
10
1.96667
20
0.23138
11
1.96558
21
0.229758
0
LINE
8
BLACK
6
CONTINUOUS
10
1.96558
20
0.229758
11
1.96396
21
0.228674
0
LINE
8
BLACK
6
CONTINUOUS
10
1.96396
20
0.228674
11
1.96205
21
0.228294
0
LINE
8
BLACK
6
CONTINUOUS
10
1.96205
20
0.228294
11
1.96013
21
0.228674
0
LINE
8
BLACK
6
CONTINUOUS
10
1.96013
20
0.228674
11
1.95851
21
0.229758
0
LINE
8
BLACK
6
CONTINUOUS
10
1.95851
20
0.229758
11
1.95743
21
0.231384
0
LINE
8
BLACK
6
CONTINUOUS
10
1.95743
20
0.231384
11
1.93358
21
0.289089
0
LINE
8
BLACK
6
CONTINUOUS
10
1.93358
20
0.289089
11
1.88932
21
0.333427
0
LINE
8
BLACK
6
CONTINUOUS
10
1.88932
20
0.333427
11
1.83146
21
0.357453
0
LINE
8
BLACK
6
CONTINUOUS
10
1.83146
20
0.357453
11
1.76881
21
0.357508
0
LINE
8
BLACK
6
CONTINUOUS
10
1.76881
20
0.357508
11
1.71091
21
0.333583
0
LINE
8
BLACK
6
CONTINUOUS
10
1.71091
20
0.333583
11
1.66657
21
0.289322
0
LINE
8
BLACK
6
CONTINUOUS
10
1.66657
20
0.289322
11
1.64255
21
0.231462
0
LINE
8
BLACK
6
CONTINUOUS
10
1.64255
20
0.231462
11
1.64249
21
0.168813
0
LINE
8
BLACK
6
CONTINUOUS
10
1.64249
20
0.168813
11
1.66642
21
0.110911
0
LINE
8
BLACK
6
CONTINUOUS
10
1.66642
20
0.110911
11
1.71068
21
0.0665725
0
LINE
8
BLACK
6
CONTINUOUS
10
1.71068
20
0.0665725
11
1.76848
21
0.0425705
0
LINE
8
BLACK
6
CONTINUOUS
10
1.76848
20
0.0425705
11
1.7701
21
0.0414852
0
LINE
8
BLACK
6
CONTINUOUS
10
1.7701
20
0.0414852
11
1.77119
21
0.0398621
0
LINE
8
BLACK
6
CONTINUOUS
10
1.77119
20
0.0398621
11
1.77156
21
0.0379484
0
LINE
8
BLACK
6
CONTINUOUS
10
1.77156
20
0.0379484
11
1.77118
21
0.0360353
0
LINE
8
BLACK
6
CONTINUOUS
10
1.77118
20
0.0360353
11
1.7701
21
0.0344141
0
LINE
8
BLACK
6
CONTINUOUS
10
1.7701
20
0.0344141
11
1.76847
21
0.0333317
0
LINE
8
BLACK
6
CONTINUOUS
10
1.76847
20
0.0333317
11
1.76656
21
0.0329528
0
LINE
8
BLACK
6
CONTINUOUS
10
1.76656
20
0.0329528
11
0.233294
21
0.0329528
0
LINE
8
BLACK
6
CONTINUOUS
10
0.233294
20
0.0329528
11
0.23138
21
0.0333333
0
LINE
8
BLACK
6
CONTINUOUS
10
0.23138
20
0.0333333
11
0.229758
21
0.0344172
0
LINE
8
BLACK
6
CONTINUOUS
10
0.229758
20
0.0344172
11
0.228674
21
0.0360393
0
LINE
8
BLACK
6
CONTINUOUS
10
0.228674
20
0.0360393
11
0.228294
21
0.0379528
0
LINE
8
BLACK
6
CONTINUOUS
10
0.228294
20
0.0379528
11
0.228674
21
0.0398662
0
LINE
8
BLACK
6
CONTINUOUS
10
0.228674
20
0.0398662
11
0.229758
21
0.0414883
0
LINE
8
BLACK
6
CONTINUOUS
10
0.229758
20
0.0414883
11
0.231384
21
0.0425738
0
LINE
8
BLACK
6
CONTINUOUS
10
0.231384
20
0.0425738
11
0.289089
21
0.0664168
0
LINE
8
BLACK
6
CONTINUOUS
10
0.289089
20
0.0664168
11
0.333427
21
0.110678
0
LINE
8
BLACK
6
CONTINUOUS
10
0.333427
20
0.110678
11
0.357453
21
0.168538
0
LINE
8
BLACK
6
CONTINUOUS
10
0.357453
20
0.168538
11
0.357491
21
0.212189
0
LINE
8
BLACK
6
CONTINUOUS
10
0.357491
20
0.212189
11
0.357508
21
0.231187
0
LINE
8
BLACK
6
CONTINUOUS
10
0.357508
20
0.231187
11
0.333583
21
0.289089
0
LINE
8
BLACK
6
CONTINUOUS
10
0.333583
20
0.289089
11
0.289322
21
0.333427
0
LINE
8
BLACK
6
CONTINUOUS
10
0.289322
20
0.333427
11
0.231462
21
0.357453
0
LINE
8
BLACK
6
CONTINUOUS
10
0.231462
20
0.357453
11
0.168813
21
0.357508
0
LINE
8
BLACK
6
CONTINUOUS
10
0.168813
20
0.357508
11
0.110911
21
0.333583
0
LINE
8
BLACK
6
CONTINUOUS
10
0.110911
20
0.333583
11
0.0665725
21
0.289322
0
LINE
8
BLACK
6
CONTINUOUS
10
0.0665725
20
0.289322
11
0.0425705
21
0.231519
0
LINE
8
BLACK
6
CONTINUOUS
10
0.0425705
20
0.231519
11
0.0414852
21
0.229897
0
LINE
8
BLACK
6
CONTINUOUS
10
0.0414852
20
0.229897
11
0.0398621
21
0.228815
0
LINE
8
BLACK
6
CONTINUOUS
10
0.0398621
20
0.228815
11
0.0379484
21
0.228436
0
LINE
8
BLACK
6
CONTINUOUS
10
0.0379484
20
0.228436
11
0.0360353
21
0.228818
0
LINE
8
BLACK
6
CONTINUOUS
10
0.0360353
20
0.228818
11
0.0344141
21
0.229904
0
LINE
8
BLACK
6
CONTINUOUS
10
0.0344141
20
0.229904
11
0.0333317
21
0.231527
0
LINE
8
BLACK
6
CONTINUOUS
10
0.0333317
20
0.231527
11
0.0329528
21
0.233436
0
LINE
8
BLACK
6
CONTINUOUS
10
0.0329528
20
0.233436
11
0.0329528
21
0.665233
0
LINE
8
BLACK
6
CONTINUOUS
10
0.0329528
20
0.665233
11
0.0333333
21
0.667147
0
LINE
8
BLACK
6
CONTINUOUS
10
1.13683
20
0.54788
11
1.15503
21
0.540324
0
LINE
8
BLACK
6
CONTINUOUS
10
1.15503
20
0.540324
11
1.17473
21
0.540306
0
LINE
8
BLACK
6
CONTINUOUS
10
1.17473
20
0.540306
11
1.19294
21
0.547831
0
LINE
8
BLACK
6
CONTINUOUS
10
1.19294
20
0.547831
11
1.20648
21
0.561346
0
LINE
8
BLACK
6
CONTINUOUS
10
1.20648
20
0.561346
11
1.2081
21
0.562429
0
LINE
8
BLACK
6
CONTINUOUS
10
1.2081
20
0.562429
11
1.21002
21
0.562808
0
LINE
8
BLACK
6
CONTINUOUS
10
1.21002
20
0.562808
11
1.21193
21
0.562425
0
LINE
8
BLACK
6
CONTINUOUS
10
1.21193
20
0.562425
11
1.21355
21
0.56134
0
LINE
8
BLACK
6
CONTINUOUS
10
1.21355
20
0.56134
11
1.22699
21
0.54788
0
LINE
8
BLACK
6
CONTINUOUS
10
1.22699
20
0.54788
11
1.24518
21
0.540324
0
LINE
8
BLACK
6
CONTINUOUS
10
1.24518
20
0.540324
11
1.26489
21
0.540306
0
LINE
8
BLACK
6
CONTINUOUS
10
1.26489
20
0.540306
11
1.2831
21
0.547831
0
LINE
8
BLACK
6
CONTINUOUS
10
1.2831
20
0.547831
11
1.29704
21
0.561751
0
LINE
8
BLACK
6
CONTINUOUS
10
1.29704
20
0.561751
11
1.3046
21
0.579948
0
LINE
8
BLACK
6
CONTINUOUS
10
1.3046
20
0.579948
11
1.30461
21
0.599651
0
LINE
8
BLACK
6
CONTINUOUS
10
1.30461
20
0.599651
11
1.29709
21
0.617861
0
LINE
8
BLACK
6
CONTINUOUS
10
1.29709
20
0.617861
11
1.28317
21
0.631805
0
LINE
8
BLACK
6
CONTINUOUS
10
1.28317
20
0.631805
11
1.26497
21
0.639361
0
LINE
8
BLACK
6
CONTINUOUS
10
1.26497
20
0.639361
11
1.24527
21
0.639379
0
LINE
8
BLACK
6
CONTINUOUS
10
1.24527
20
0.639379
11
1.22706
21
0.631854
0
LINE
8
BLACK
6
CONTINUOUS
10
1.22706
20
0.631854
11
1.21352
21
0.618339
0
LINE
8
BLACK
6
CONTINUOUS
10
1.21352
20
0.618339
11
1.2119
21
0.617256
0
LINE
8
BLACK
6
CONTINUOUS
10
1.2119
20
0.617256
11
1.20998
21
0.616877
0
LINE
8
BLACK
6
CONTINUOUS
10
1.20998
20
0.616877
11
1.20807
21
0.61726
0
LINE
8
BLACK
6
CONTINUOUS
10
1.20807
20
0.61726
11
1.20645
21
0.618345
0
LINE
8
BLACK
6
CONTINUOUS
10
1.20645
20
0.618345
11
1.19301
21
0.631805
0
LINE
8
BLACK
6
CONTINUOUS
10
1.19301
20
0.631805
11
1.17482
21
0.639361
0
LINE
8
BLACK
6
CONTINUOUS
10
1.17482
20
0.639361
11
1.15511
21
0.639379
0
LINE
8
BLACK
6
CONTINUOUS
10
1.15511
20
0.639379
11
1.1369
21
0.631854
0
LINE
8
BLACK
6
CONTINUOUS
10
1.1369
20
0.631854
11
1.12296
21
0.617934
0
LINE
8
BLACK
6
CONTINUOUS
10
1.12296
20
0.617934
11
1.1154
21
0.599737
0
LINE
8
BLACK
6
CONTINUOUS
10
1.1154
20
0.599737
11
1.11539
21
0.580034
0
LINE
8
BLACK
6
CONTINUOUS
10
1.11539
20
0.580034
11
1.12291
21
0.561824
0
LINE
8
BLACK
6
CONTINUOUS
10
1.12291
20
0.561824
11
1.13683
21
0.54788
0
LINE
8
BLACK
6
CONTINUOUS
10
1.26182
20
0.61859
11
1.26802
21
0.616382
0
LINE
8
BLACK
6
CONTINUOUS
10
1.26802
20
0.616382
11
1.27358
21
0.612854
0
LINE
8
BLACK
6
CONTINUOUS
10
1.27358
20
0.612854
11
1.27822
21
0.608184
0
LINE
8
BLACK
6
CONTINUOUS
10
1.27822
20
0.608184
11
1.28171
21
0.602601
0
LINE
8
BLACK
6
CONTINUOUS
10
1.28171
20
0.602601
11
1.28387
21
0.596384
0
LINE
8
BLACK
6
CONTINUOUS
10
1.28387
20
0.596384
11
1.28461
21
0.589843
0
LINE
8
BLACK
6
CONTINUOUS
10
1.28461
20
0.589843
11
1.28459
21
0.589018
0
LINE
8
BLACK
6
CONTINUOUS
10
1.28459
20
0.589018
11
1.28368
21
0.582499
0
LINE
8
BLACK
6
CONTINUOUS
10
1.28368
20
0.582499
11
1.28134
21
0.576346
0
LINE
8
BLACK
6
CONTINUOUS
10
1.28134
20
0.576346
11
1.2777
21
0.570863
0
LINE
8
BLACK
6
CONTINUOUS
10
1.2777
20
0.570863
11
1.27293
21
0.566323
0
LINE
8
BLACK
6
CONTINUOUS
10
1.27293
20
0.566323
11
1.26728
21
0.562952
0
LINE
8
BLACK
6
CONTINUOUS
10
1.26728
20
0.562952
11
1.26102
21
0.560918
0
LINE
8
BLACK
6
CONTINUOUS
10
1.26102
20
0.560918
11
1.25446
21
0.560321
0
LINE
8
BLACK
6
CONTINUOUS
10
1.25446
20
0.560321
11
1.24794
21
0.561192
0
LINE
8
BLACK
6
CONTINUOUS
10
1.24794
20
0.561192
11
1.24177
21
0.563487
0
LINE
8
BLACK
6
CONTINUOUS
10
1.24177
20
0.563487
11
1.23626
21
0.567091
0
LINE
8
BLACK
6
CONTINUOUS
10
1.23626
20
0.567091
11
1.23168
21
0.571826
0
LINE
8
BLACK
6
CONTINUOUS
10
1.23168
20
0.571826
11
1.22827
21
0.577457
0
LINE
8
BLACK
6
CONTINUOUS
10
1.22827
20
0.577457
11
1.2262
21
0.583703
0
LINE
8
BLACK
6
CONTINUOUS
10
1.2262
20
0.583703
11
1.22555
21
0.590255
0
LINE
8
BLACK
6
CONTINUOUS
10
1.22555
20
0.590255
11
1.22638
21
0.596786
0
LINE
8
BLACK
6
CONTINUOUS
10
1.22638
20
0.596786
11
1.22863
21
0.602971
0
LINE
8
BLACK
6
CONTINUOUS
10
1.22863
20
0.602971
11
1.2322
21
0.608505
0
LINE
8
BLACK
6
CONTINUOUS
10
1.2322
20
0.608505
11
1.2369
21
0.613111
0
LINE
8
BLACK
6
CONTINUOUS
10
1.2369
20
0.613111
11
1.24251
21
0.61656
0
LINE
8
BLACK
6
CONTINUOUS
10
1.24251
20
0.61656
11
1.24874
21
0.618681
0
LINE
8
BLACK
6
CONTINUOUS
10
1.24874
20
0.618681
11
1.25528
21
0.619369
0
LINE
8
BLACK
6
CONTINUOUS
10
1.25528
20
0.619369
11
1.26182
21
0.61859
0
LINE
8
BLACK
6
CONTINUOUS
10
1.17166
20
0.61859
11
1.17787
21
0.616382
0
LINE
8
BLACK
6
CONTINUOUS
10
1.17787
20
0.616382
11
1.18342
21
0.612854
0
LINE
8
BLACK
6
CONTINUOUS
10
1.18342
20
0.612854
11
1.18806
21
0.608184
0
LINE
8
BLACK
6
CONTINUOUS
10
1.18806
20
0.608184
11
1.19155
21
0.602601
0
LINE
8
BLACK
6
CONTINUOUS
10
1.19155
20
0.602601
11
1.19372
21
0.596384
0
LINE
8
BLACK
6
CONTINUOUS
10
1.19372
20
0.596384
11
1.19445
21
0.589843
0
LINE
8
BLACK
6
CONTINUOUS
10
1.19445
20
0.589843
11
1.19444
21
0.589018
0
LINE
8
BLACK
6
CONTINUOUS
10
1.19444
20
0.589018
11
1.19352
21
0.582499
0
LINE
8
BLACK
6
CONTINUOUS
10
1.19352
20
0.582499
11
1.19118
21
0.576346
0
LINE
8
BLACK
6
CONTINUOUS
10
1.19118
20
0.576346
11
1.18754
21
0.570863
0
LINE
8
BLACK
6
CONTINUOUS
10
1.18754
20
0.570863
11
1.18277
21
0.566323
0
LINE
8
BLACK
6
CONTINUOUS
10
1.18277
20
0.566323
11
1.17712
21
0.562952
0
LINE
8
BLACK
6
CONTINUOUS
10
1.17712
20
0.562952
11
1.17086
21
0.560918
0
LINE
8
BLACK
6
CONTINUOUS
10
1.17086
20
0.560918
11
1.1643
21
0.560321
0
LINE
8
BLACK
6
CONTINUOUS
10
1.1643
20
0.560321
11
1.15778
21
0.561192
0
LINE
8
BLACK
6
CONTINUOUS
10
1.15778
20
0.561192
11
1.15161
21
0.563487
0
LINE
8
BLACK
6
CONTINUOUS
10
1.15161
20
0.563487
11
1.1461
21
0.567091
0
LINE
8
BLACK
6
CONTINUOUS
10
1.1461
20
0.567091
11
1.14153
21
0.571826
0
LINE
8
BLACK
6
CONTINUOUS
10
1.14153
20
0.571826
11
1.13812
21
0.577457
0
LINE
8
BLACK
6
CONTINUOUS
10
1.13812
20
0.577457
11
1.13604
21
0.583703
0
LINE
8
BLACK
6
CONTINUOUS
10
1.13604
20
0.583703
11
1.1354
21
0.590255
0
LINE
8
BLACK
6
CONTINUOUS
10
1.1354
20
0.590255
11
1.13622
21
0.596786
0
LINE
8
BLACK
6
CONTINUOUS
10
1.13622
20
0.596786
11
1.13847
21
0.602971
0
LINE
8
BLACK
6
CONTINUOUS
10
1.13847
20
0.602971
11
1.14204
21
0.608505
0
LINE
8
BLACK
6
CONTINUOUS
10
1.14204
20
0.608505
11
1.14674
21
0.613111
0
LINE
8
BLACK
6
CONTINUOUS
10
1.14674
20
0.613111
11
1.15235
21
0.61656
0
LINE
8
BLACK
6
CONTINUOUS
10
1.15235
20
0.61656
11
1.15858
21
0.618681
0
LINE
8
BLACK
6
CONTINUOUS
10
1.15858
20
0.618681
11
1.16513
21
0.619369
0
LINE
8
BLACK
6
CONTINUOUS
10
1.16513
20
0.619369
11
1.17166
21
0.61859
0
LINE
8
BLACK
6
CONTINUOUS
10
1.80865
20
0.317793
11
1.82213
21
0.316018
0
LINE
8
BLACK
6
CONTINUOUS
10
1.82213
20
0.316018
11
1.83532
21
0.312706
0
LINE
8
BLACK
6
CONTINUOUS
10
1.83532
20
0.312706
11
1.84804
21
0.307899
0
LINE
8
BLACK
6
CONTINUOUS
10
1.84804
20
0.307899
11
1.86012
21
0.301662
0
LINE
8
BLACK
6
CONTINUOUS
10
1.86012
20
0.301662
11
1.87141
21
0.294078
0
LINE
8
BLACK
6
CONTINUOUS
10
1.87141
20
0.294078
11
1.88175
21
0.285247
0
LINE
8
BLACK
6
CONTINUOUS
10
1.88175
20
0.285247
11
1.89101
21
0.275286
0
LINE
8
BLACK
6
CONTINUOUS
10
1.89101
20
0.275286
11
1.89906
21
0.264327
0
LINE
8
BLACK
6
CONTINUOUS
10
1.89906
20
0.264327
11
1.90579
21
0.252516
0
LINE
8
BLACK
6
CONTINUOUS
10
1.90579
20
0.252516
11
1.91113
21
0.240008
0
LINE
8
BLACK
6
CONTINUOUS
10
1.91113
20
0.240008
11
1.91499
21
0.226971
0
LINE
8
BLACK
6
CONTINUOUS
10
1.91499
20
0.226971
11
1.91733
21
0.213575
0
LINE
8
BLACK
6
CONTINUOUS
10
1.91733
20
0.213575
11
1.91811
21
0.2
0
LINE
8
BLACK
6
CONTINUOUS
10
1.91811
20
0.2
11
1.91788
21
0.192584
0
LINE
8
BLACK
6
CONTINUOUS
10
1.91788
20
0.192584
11
1.91624
21
0.179084
0
LINE
8
BLACK
6
CONTINUOUS
10
1.91624
20
0.179084
11
1.91307
21
0.165862
0
LINE
8
BLACK
6
CONTINUOUS
10
1.91307
20
0.165862
11
1.9084
21
0.153093
0
LINE
8
BLACK
6
CONTINUOUS
10
1.9084
20
0.153093
11
1.90229
21
0.140945
0
LINE
8
BLACK
6
CONTINUOUS
10
1.90229
20
0.140945
11
1.89482
21
0.12958
0
LINE
8
BLACK
6
CONTINUOUS
10
1.89482
20
0.12958
11
1.8861
21
0.119148
0
LINE
8
BLACK
6
CONTINUOUS
10
1.8861
20
0.119148
11
1.87624
21
0.109788
0
LINE
8
BLACK
6
CONTINUOUS
10
1.87624
20
0.109788
11
1.86536
21
0.101623
0
LINE
8
BLACK
6
CONTINUOUS
10
1.86536
20
0.101623
11
1.85362
21
0.094763
0
LINE
8
BLACK
6
CONTINUOUS
10
1.85362
20
0.094763
11
1.84117
21
0.0892974
0
LINE
8
BLACK
6
CONTINUOUS
10
1.84117
20
0.0892974
11
1.82817
21
0.0852991
0
LINE
8
BLACK
6
CONTINUOUS
10
1.82817
20
0.0852991
11
1.8148
21
0.0828211
0
LINE
8
BLACK
6
CONTINUOUS
10
1.8148
20
0.0828211
11
1.80124
21
0.0818962
0
LINE
8
BLACK
6
CONTINUOUS
10
1.80124
20
0.0818962
11
1.78765
21
0.0825368
0
LINE
8
BLACK
6
CONTINUOUS
10
1.78765
20
0.0825368
11
1.77424
21
0.0847343
0
LINE
8
BLACK
6
CONTINUOUS
10
1.77424
20
0.0847343
11
1.76116
21
0.0884595
0
LINE
8
BLACK
6
CONTINUOUS
10
1.76116
20
0.0884595
11
1.74859
21
0.0936631
0
LINE
8
BLACK
6
CONTINUOUS
10
1.74859
20
0.0936631
11
1.73671
21
0.100276
0
LINE
8
BLACK
6
CONTINUOUS
10
1.73671
20
0.100276
11
1.72567
21
0.108211
0
LINE
8
BLACK
6
CONTINUOUS
10
1.72567
20
0.108211
11
1.71561
21
0.117363
0
LINE
8
BLACK
6
CONTINUOUS
10
1.71561
20
0.117363
11
1.70667
21
0.127609
0
LINE
8
BLACK
6
CONTINUOUS
10
1.70667
20
0.127609
11
1.69897
21
0.138816
0
LINE
8
BLACK
6
CONTINUOUS
10
1.69897
20
0.138816
11
1.69261
21
0.150833
0
LINE
8
BLACK
6
CONTINUOUS
10
1.69261
20
0.150833
11
1.68767
21
0.163502
0
LINE
8
BLACK
6
CONTINUOUS
10
1.68767
20
0.163502
11
1.68422
21
0.176655
0
LINE
8
BLACK
6
CONTINUOUS
10
1.68422
20
0.176655
11
1.6823
21
0.190117
0
LINE
8
BLACK
6
CONTINUOUS
10
1.6823
20
0.190117
11
1.68195
21
0.20371
0
LINE
8
BLACK
6
CONTINUOUS
10
1.68195
20
0.20371
11
1.68316
21
0.217254
0
LINE
8
BLACK
6
CONTINUOUS
10
1.68316
20
0.217254
11
1.68591
21
0.230569
0
LINE
8
BLACK
6
CONTINUOUS
10
1.68591
20
0.230569
11
1.69018
21
0.243479
0
LINE
8
BLACK
6
CONTINUOUS
10
1.69018
20
0.243479
11
1.69591
21
0.255813
0
LINE
8
BLACK
6
CONTINUOUS
10
1.69591
20
0.255813
11
1.70301
21
0.267407
0
LINE
8
BLACK
6
CONTINUOUS
10
1.70301
20
0.267407
11
1.7114
21
0.278108
0
LINE
8
BLACK
6
CONTINUOUS
10
1.7114
20
0.278108
11
1.72097
21
0.287773
0
LINE
8
BLACK
6
CONTINUOUS
10
1.72097
20
0.287773
11
1.73158
21
0.296275
0
LINE
8
BLACK
6
CONTINUOUS
10
1.73158
20
0.296275
11
1.7431
21
0.303501
0
LINE
8
BLACK
6
CONTINUOUS
10
1.7431
20
0.303501
11
1.75537
21
0.309355
0
LINE
8
BLACK
6
CONTINUOUS
10
1.75537
20
0.309355
11
1.76824
21
0.313759
0
LINE
8
BLACK
6
CONTINUOUS
10
1.76824
20
0.313759
11
1.78152
21
0.316656
0
LINE
8
BLACK
6
CONTINUOUS
10
1.78152
20
0.316656
11
1.79505
21
0.318007
0
LINE
8
BLACK
6
CONTINUOUS
10
1.79505
20
0.318007
11
1.80865
21
0.317793
0
LINE
8
BLACK
6
CONTINUOUS
10
0.20865
20
0.317793
11
0.222132
21
0.316018
0
LINE
8
BLACK
6
CONTINUOUS
10
0.222132
20
0.316018
11
0.23532
21
0.312706
0
LINE
8
BLACK
6
CONTINUOUS
10
0.23532
20
0.312706
11
0.24804
21
0.307899
0
LINE
8
BLACK
6
CONTINUOUS
10
0.24804
20
0.307899
11
0.260123
21
0.301662
0
LINE
8
BLACK
6
CONTINUOUS
10
0.260123
20
0.301662
11
0.271409
21
0.294078
0
LINE
8
BLACK
6
CONTINUOUS
10
0.271409
20
0.294078
11
0.281749
21
0.285247
0
LINE
8
BLACK
6
CONTINUOUS
10
0.281749
20
0.285247
11
0.291006
21
0.275286
0
LINE
8
BLACK
6
CONTINUOUS
10
0.291006
20
0.275286
11
0.299056
21
0.264327
0
LINE
8
BLACK
6
CONTINUOUS
10
0.299056
20
0.264327
11
0.305793
21
0.252516
0
LINE
8
BLACK
6
CONTINUOUS
10
0.305793
20
0.252516
11
0.311128
21
0.240008
0
LINE
8
BLACK
6
CONTINUOUS
10
0.311128
20
0.240008
11
0.31499
21
0.226971
0
LINE
8
BLACK
6
CONTINUOUS
10
0.31499
20
0.226971
11
0.317327
21
0.213575
0
LINE
8
BLACK
6
CONTINUOUS
10
0.317327
20
0.213575
11
0.31811
21
0.2
0
LINE
8
BLACK
6
CONTINUOUS
10
0.31811
20
0.2
11
0.317877
21
0.192584
0
LINE
8
BLACK
6
CONTINUOUS
10
0.317877
20
0.192584
11
0.316244
21
0.179084
0
LINE
8
BLACK
6
CONTINUOUS
10
0.316244
20
0.179084
11
0.313069
21
0.165862
0
LINE
8
BLACK
6
CONTINUOUS
10
0.313069
20
0.165862
11
0.308396
21
0.153093
0
LINE
8
BLACK
6
CONTINUOUS
10
0.308396
20
0.153093
11
0.302286
21
0.140945
0
LINE
8
BLACK
6
CONTINUOUS
10
0.302286
20
0.140945
11
0.294821
21
0.12958
0
LINE
8
BLACK
6
CONTINUOUS
10
0.294821
20
0.12958
11
0.286099
21
0.119148
0
LINE
8
BLACK
6
CONTINUOUS
10
0.286099
20
0.119148
11
0.276235
21
0.109788
0
LINE
8
BLACK
6
CONTINUOUS
10
0.276235
20
0.109788
11
0.265361
21
0.101623
0
LINE
8
BLACK
6
CONTINUOUS
10
0.265361
20
0.101623
11
0.253621
21
0.094763
0
LINE
8
BLACK
6
CONTINUOUS
10
0.253621
20
0.094763
11
0.24117
21
0.0892974
0
LINE
8
BLACK
6
CONTINUOUS
10
0.24117
20
0.0892974
11
0.228173
21
0.0852991
0
LINE
8
BLACK
6
CONTINUOUS
10
0.228173
20
0.0852991
11
0.214803
21
0.0828211
0
LINE
8
BLACK
6
CONTINUOUS
10
0.214803
20
0.0828211
11
0.201237
21
0.0818962
0
LINE
8
BLACK
6
CONTINUOUS
10
0.201237
20
0.0818962
11
0.187654
21
0.0825368
0
LINE
8
BLACK
6
CONTINUOUS
10
0.187654
20
0.0825368
11
0.174235
21
0.0847343
0
LINE
8
BLACK
6
CONTINUOUS
10
0.174235
20
0.0847343
11
0.161157
21
0.0884595
0
LINE
8
BLACK
6
CONTINUOUS
10
0.161157
20
0.0884595
11
0.148595
21
0.0936631
0
LINE
8
BLACK
6
CONTINUOUS
10
0.148595
20
0.0936631
11
0.136713
21
0.100276
0
LINE
8
BLACK
6
CONTINUOUS
10
0.136713
20
0.100276
11
0.125671
21
0.108211
0
LINE
8
BLACK
6
CONTINUOUS
10
0.125671
20
0.108211
11
0.115613
21
0.117363
0
LINE
8
BLACK
6
CONTINUOUS
10
0.115613
20
0.117363
11
0.106675
21
0.127609
0
LINE
8
BLACK
6
CONTINUOUS
10
0.106675
20
0.127609
11
0.0989727
21
0.138816
0
LINE
8
BLACK
6
CONTINUOUS
10
0.0989727
20
0.138816
11
0.0926099
21
0.150833
0
LINE
8
BLACK
6
CONTINUOUS
10
0.0926099
20
0.150833
11
0.0876705
21
0.163502
0
LINE
8
BLACK
6
CONTINUOUS
10
0.0876705
20
0.163502
11
0.0842199
21
0.176655
0
LINE
8
BLACK
6
CONTINUOUS
10
0.0842199
20
0.176655
11
0.082304
21
0.190117
0
LINE
8
BLACK
6
CONTINUOUS
10
0.082304
20
0.190117
11
0.081948
21
0.20371
0
LINE
8
BLACK
6
CONTINUOUS
10
0.081948
20
0.20371
11
0.0831568
21
0.217254
0
LINE
8
BLACK
6
CONTINUOUS
10
0.0831568
20
0.217254
11
0.0859143
21
0.230569
0
LINE
8
BLACK
6
CONTINUOUS
10
0.0859143
20
0.230569
11
0.0901839
21
0.243479
0
LINE
8
BLACK
6
CONTINUOUS
10
0.0901839
20
0.243479
11
0.0959091
21
0.255813
0
LINE
8
BLACK
6
CONTINUOUS
10
0.0959091
20
0.255813
11
0.103014
21
0.267407
0
LINE
8
BLACK
6
CONTINUOUS
10
0.103014
20
0.267407
11
0.111404
21
0.278108
0
LINE
8
BLACK
6
CONTINUOUS
10
0.111404
20
0.278108
11
0.120969
21
0.287773
0
LINE
8
BLACK
6
CONTINUOUS
10
0.120969
20
0.287773
11
0.131581
21
0.296275
0
LINE
8
BLACK
6
CONTINUOUS
10
0.131581
20
0.296275
11
0.1431
21
0.303501
0
LINE
8
BLACK
6
CONTINUOUS
10
0.1431
20
0.303501
11
0.155373
21
0.309355
0
LINE
8
BLACK
6
CONTINUOUS
10
0.155373
20
0.309355
11
0.168238
21
0.313759
0
LINE
8
BLACK
6
CONTINUOUS
10
0.168238
20
0.313759
11
0.181524
21
0.316656
0
LINE
8
BLACK
6
CONTINUOUS
10
0.181524
20
0.316656
11
0.195054
21
0.318007
0
LINE
8
BLACK
6
CONTINUOUS
10
0.195054
20
0.318007
11
0.20865
21
0.317793
0
LINE
8
BLACK
6
CONTINUOUS
10
1.94933
20
0.649884
11
1.95149
21
0.647722
0
LINE
8
BLACK
6
CONTINUOUS
10
1.95149
20
0.647722
11
1.95228
21
0.644769
0
LINE
8
BLACK
6
CONTINUOUS
10
1.95228
20
0.644769
11
1.95228
21
0.626772
0
LINE
8
BLACK
6
CONTINUOUS
10
1.95228
20
0.626772
11
1.95193
21
0.625461
0
LINE
8
BLACK
6
CONTINUOUS
10
1.95193
20
0.625461
11
1.95165
21
0.624131
0
LINE
8
BLACK
6
CONTINUOUS
10
1.95165
20
0.624131
11
1.9494
21
0.619631
0
LINE
8
BLACK
6
CONTINUOUS
10
1.9494
20
0.619631
11
1.94877
21
0.61892
0
LINE
8
BLACK
6
CONTINUOUS
10
1.94877
20
0.61892
11
1.9483
21
0.618096
0
LINE
8
BLACK
6
CONTINUOUS
10
1.9483
20
0.618096
11
1.94605
21
0.615847
0
LINE
8
BLACK
6
CONTINUOUS
10
1.94605
20
0.615847
11
1.94523
21
0.615371
0
LINE
8
BLACK
6
CONTINUOUS
10
1.94523
20
0.615371
11
1.94451
21
0.61474
0
LINE
8
BLACK
6
CONTINUOUS
10
1.94451
20
0.61474
11
1.94001
21
0.612491
0
LINE
8
BLACK
6
CONTINUOUS
10
1.94001
20
0.612491
11
1.93868
21
0.612219
0
LINE
8
BLACK
6
CONTINUOUS
10
1.93868
20
0.612219
11
1.93737
21
0.611867
0
LINE
8
BLACK
6
CONTINUOUS
10
1.93737
20
0.611867
11
1.93062
21
0.611867
0
LINE
8
BLACK
6
CONTINUOUS
10
1.93062
20
0.611867
11
1.92931
21
0.612219
0
LINE
8
BLACK
6
CONTINUOUS
10
1.92931
20
0.612219
11
1.92798
21
0.612491
0
LINE
8
BLACK
6
CONTINUOUS
10
1.92798
20
0.612491
11
1.92348
21
0.61474
0
LINE
8
BLACK
6
CONTINUOUS
10
1.92348
20
0.61474
11
1.92277
21
0.615371
0
LINE
8
BLACK
6
CONTINUOUS
10
1.92277
20
0.615371
11
1.92195
21
0.615847
0
LINE
8
BLACK
6
CONTINUOUS
10
1.92195
20
0.615847
11
1.92032
21
0.617478
0
LINE
8
BLACK
6
CONTINUOUS
10
1.92032
20
0.617478
11
1.91977
21
0.61699
0
LINE
8
BLACK
6
CONTINUOUS
10
1.91977
20
0.61699
11
1.91527
21
0.61474
0
LINE
8
BLACK
6
CONTINUOUS
10
1.91527
20
0.61474
11
1.91394
21
0.614468
0
LINE
8
BLACK
6
CONTINUOUS
10
1.91394
20
0.614468
11
1.91263
21
0.614117
0
LINE
8
BLACK
6
CONTINUOUS
10
1.91263
20
0.614117
11
1.90813
21
0.614117
0
LINE
8
BLACK
6
CONTINUOUS
10
1.90813
20
0.614117
11
1.90682
21
0.614468
0
LINE
8
BLACK
6
CONTINUOUS
10
1.90682
20
0.614468
11
1.90549
21
0.61474
0
LINE
8
BLACK
6
CONTINUOUS
10
1.90549
20
0.61474
11
1.90099
21
0.61699
0
LINE
8
BLACK
6
CONTINUOUS
10
1.90099
20
0.61699
11
1.90028
21
0.617621
0
LINE
8
BLACK
6
CONTINUOUS
10
1.90028
20
0.617621
11
1.89945
21
0.618096
0
LINE
8
BLACK
6
CONTINUOUS
10
1.89945
20
0.618096
11
1.8972
21
0.620346
0
LINE
8
BLACK
6
CONTINUOUS
10
1.8972
20
0.620346
11
1.89673
21
0.621169
0
LINE
8
BLACK
6
CONTINUOUS
10
1.89673
20
0.621169
11
1.8961
21
0.621881
0
LINE
8
BLACK
6
CONTINUOUS
10
1.8961
20
0.621881
11
1.89385
21
0.62638
0
LINE
8
BLACK
6
CONTINUOUS
10
1.89385
20
0.62638
11
1.89357
21
0.62771
0
LINE
8
BLACK
6
CONTINUOUS
10
1.89357
20
0.62771
11
1.89322
21
0.629021
0
LINE
8
BLACK
6
CONTINUOUS
10
1.89322
20
0.629021
11
1.89322
21
0.644769
0
LINE
8
BLACK
6
CONTINUOUS
10
1.89322
20
0.644769
11
1.89401
21
0.647722
0
LINE
8
BLACK
6
CONTINUOUS
10
1.89401
20
0.647722
11
1.89618
21
0.649884
0
LINE
8
BLACK
6
CONTINUOUS
10
1.89618
20
0.649884
11
1.89913
21
0.650675
0
LINE
8
BLACK
6
CONTINUOUS
10
1.89913
20
0.650675
11
1.94637
21
0.650675
0
LINE
8
BLACK
6
CONTINUOUS
10
1.94637
20
0.650675
11
1.94933
21
0.649884
0
LINE
8
BLACK
6
CONTINUOUS
10
1.92753
20
0.638864
11
1.92753
21
0.62998
0
LINE
8
BLACK
6
CONTINUOUS
10
1.92753
20
0.62998
11
1.92904
21
0.625462
0
LINE
8
BLACK
6
CONTINUOUS
10
1.92904
20
0.625462
11
1.92962
21
0.624876
0
LINE
8
BLACK
6
CONTINUOUS
10
1.92962
20
0.624876
11
1.93202
21
0.623678
0
LINE
8
BLACK
6
CONTINUOUS
10
1.93202
20
0.623678
11
1.93598
21
0.623678
0
LINE
8
BLACK
6
CONTINUOUS
10
1.93598
20
0.623678
11
1.93837
21
0.624876
0
LINE
8
BLACK
6
CONTINUOUS
10
1.93837
20
0.624876
11
1.93927
21
0.62577
0
LINE
8
BLACK
6
CONTINUOUS
10
1.93927
20
0.62577
11
1.94047
21
0.628166
0
LINE
8
BLACK
6
CONTINUOUS
10
1.94047
20
0.628166
11
1.94047
21
0.638864
0
LINE
8
BLACK
6
CONTINUOUS
10
1.94047
20
0.638864
11
1.92753
21
0.638864
0
LINE
8
BLACK
6
CONTINUOUS
10
1.90503
20
0.638864
11
1.90503
21
0.630415
0
LINE
8
BLACK
6
CONTINUOUS
10
1.90503
20
0.630415
11
1.90623
21
0.62802
0
LINE
8
BLACK
6
CONTINUOUS
10
1.90623
20
0.62802
11
1.90713
21
0.627126
0
LINE
8
BLACK
6
CONTINUOUS
10
1.90713
20
0.627126
11
1.90952
21
0.625928
0
LINE
8
BLACK
6
CONTINUOUS
10
1.90952
20
0.625928
11
1.91123
21
0.625928
0
LINE
8
BLACK
6
CONTINUOUS
10
1.91123
20
0.625928
11
1.91363
21
0.627126
0
LINE
8
BLACK
6
CONTINUOUS
10
1.91363
20
0.627126
11
1.91452
21
0.62802
0
LINE
8
BLACK
6
CONTINUOUS
10
1.91452
20
0.62802
11
1.91572
21
0.630415
0
LINE
8
BLACK
6
CONTINUOUS
10
1.91572
20
0.630415
11
1.91572
21
0.638864
0
LINE
8
BLACK
6
CONTINUOUS
10
1.91572
20
0.638864
11
1.90503
21
0.638864
0
LINE
8
BLACK
6
CONTINUOUS
10
1.94933
20
0.697128
11
1.95149
21
0.694966
0
LINE
8
BLACK
6
CONTINUOUS
10
1.95149
20
0.694966
11
1.95228
21
0.692013
0
LINE
8
BLACK
6
CONTINUOUS
10
1.95228
20
0.692013
11
1.95228
21
0.665017
0
LINE
8
BLACK
6
CONTINUOUS
10
1.95228
20
0.665017
11
1.95149
21
0.662064
0
LINE
8
BLACK
6
CONTINUOUS
10
1.95149
20
0.662064
11
1.94933
21
0.659903
0
LINE
8
BLACK
6
CONTINUOUS
10
1.94933
20
0.659903
11
1.94637
21
0.659111
0
LINE
8
BLACK
6
CONTINUOUS
10
1.94637
20
0.659111
11
1.94342
21
0.659903
0
LINE
8
BLACK
6
CONTINUOUS
10
1.94342
20
0.659903
11
1.94126
21
0.662064
0
LINE
8
BLACK
6
CONTINUOUS
10
1.94126
20
0.662064
11
1.94047
21
0.665017
0
LINE
8
BLACK
6
CONTINUOUS
10
1.94047
20
0.665017
11
1.94047
21
0.67261
0
LINE
8
BLACK
6
CONTINUOUS
10
1.94047
20
0.67261
11
1.89913
21
0.67261
0
LINE
8
BLACK
6
CONTINUOUS
10
1.89913
20
0.67261
11
1.89783
21
0.672958
0
LINE
8
BLACK
6
CONTINUOUS
10
1.89783
20
0.672958
11
1.89651
21
0.673221
0
LINE
8
BLACK
6
CONTINUOUS
10
1.89651
20
0.673221
11
1.89636
21
0.67335
0
LINE
8
BLACK
6
CONTINUOUS
10
1.89636
20
0.67335
11
1.89618
21
0.673401
0
LINE
8
BLACK
6
CONTINUOUS
10
1.89618
20
0.673401
11
1.89522
21
0.674352
0
LINE
8
BLACK
6
CONTINUOUS
10
1.89522
20
0.674352
11
1.89421
21
0.675239
0
LINE
8
BLACK
6
CONTINUOUS
10
1.89421
20
0.675239
11
1.89415
21
0.675424
0
LINE
8
BLACK
6
CONTINUOUS
10
1.89415
20
0.675424
11
1.89401
21
0.675562
0
LINE
8
BLACK
6
CONTINUOUS
10
1.89401
20
0.675562
11
1.89367
21
0.676861
0
LINE
8
BLACK
6
CONTINUOUS
10
1.89367
20
0.676861
11
1.89323
21
0.678135
0
LINE
8
BLACK
6
CONTINUOUS
10
1.89323
20
0.678135
11
1.89327
21
0.678327
0
LINE
8
BLACK
6
CONTINUOUS
10
1.89327
20
0.678327
11
1.89322
21
0.678515
0
LINE
8
BLACK
6
CONTINUOUS
10
1.89322
20
0.678515
11
1.89357
21
0.679814
0
LINE
8
BLACK
6
CONTINUOUS
10
1.89357
20
0.679814
11
1.89383
21
0.681133
0
LINE
8
BLACK
6
CONTINUOUS
10
1.89383
20
0.681133
11
1.89396
21
0.681279
0
LINE
8
BLACK
6
CONTINUOUS
10
1.89396
20
0.681279
11
1.89401
21
0.681468
0
LINE
8
BLACK
6
CONTINUOUS
10
1.89401
20
0.681468
11
1.89496
21
0.682419
0
LINE
8
BLACK
6
CONTINUOUS
10
1.89496
20
0.682419
11
1.89585
21
0.683429
0
LINE
8
BLACK
6
CONTINUOUS
10
1.89585
20
0.683429
11
1.90212
21
0.687604
0
LINE
8
BLACK
6
CONTINUOUS
10
1.90212
20
0.687604
11
1.90552
21
0.691012
0
LINE
8
BLACK
6
CONTINUOUS
10
1.90552
20
0.691012
11
1.90734
21
0.694655
0
LINE
8
BLACK
6
CONTINUOUS
10
1.90734
20
0.694655
11
1.90937
21
0.696942
0
LINE
8
BLACK
6
CONTINUOUS
10
1.90937
20
0.696942
11
1.91227
21
0.697908
0
LINE
8
BLACK
6
CONTINUOUS
10
1.91227
20
0.697908
11
1.91527
21
0.697296
0
LINE
8
BLACK
6
CONTINUOUS
10
1.91527
20
0.697296
11
1.91755
21
0.695267
0
LINE
8
BLACK
6
CONTINUOUS
10
1.91755
20
0.695267
11
1.91852
21
0.692367
0
LINE
8
BLACK
6
CONTINUOUS
10
1.91852
20
0.692367
11
1.91791
21
0.689372
0
LINE
8
BLACK
6
CONTINUOUS
10
1.91791
20
0.689372
11
1.91566
21
0.684873
0
LINE
8
BLACK
6
CONTINUOUS
10
1.91566
20
0.684873
11
1.91526
21
0.684421
0
LINE
8
BLACK
6
CONTINUOUS
10
1.91526
20
0.684421
11
1.94047
21
0.684421
0
LINE
8
BLACK
6
CONTINUOUS
10
1.94047
20
0.684421
11
1.94047
21
0.692013
0
LINE
8
BLACK
6
CONTINUOUS
10
1.94047
20
0.692013
11
1.94126
21
0.694966
0
LINE
8
BLACK
6
CONTINUOUS
10
1.94126
20
0.694966
11
1.94342
21
0.697128
0
LINE
8
BLACK
6
CONTINUOUS
10
1.94342
20
0.697128
11
1.94637
21
0.697919
0
LINE
8
BLACK
6
CONTINUOUS
10
1.94637
20
0.697919
11
1.94933
21
0.697128
0
LINE
8
BLACK
6
CONTINUOUS
10
0.0913281
20
0.742351
11
0.0920566
21
0.742363
0
LINE
8
BLACK
6
CONTINUOUS
10
0.0920566
20
0.742363
11
0.101055
21
0.740113
0
LINE
8
BLACK
6
CONTINUOUS
10
0.101055
20
0.740113
11
0.1011
21
0.740088
0
LINE
8
BLACK
6
CONTINUOUS
10
0.1011
20
0.740088
11
0.101152
21
0.740088
0
LINE
8
BLACK
6
CONTINUOUS
10
0.101152
20
0.740088
11
0.102434
21
0.739348
0
LINE
8
BLACK
6
CONTINUOUS
10
0.102434
20
0.739348
11
0.103728
21
0.73863
0
LINE
8
BLACK
6
CONTINUOUS
10
0.103728
20
0.73863
11
0.103755
21
0.738586
0
LINE
8
BLACK
6
CONTINUOUS
10
0.103755
20
0.738586
11
0.103799
21
0.73856
0
LINE
8
BLACK
6
CONTINUOUS
10
0.103799
20
0.73856
11
0.108298
21
0.734061
0
LINE
8
BLACK
6
CONTINUOUS
10
0.108298
20
0.734061
11
0.108774
21
0.733237
0
LINE
8
BLACK
6
CONTINUOUS
10
0.108774
20
0.733237
11
0.109405
21
0.732526
0
LINE
8
BLACK
6
CONTINUOUS
10
0.109405
20
0.732526
11
0.111654
21
0.728026
0
LINE
8
BLACK
6
CONTINUOUS
10
0.111654
20
0.728026
11
0.111926
21
0.726696
0
LINE
8
BLACK
6
CONTINUOUS
10
0.111926
20
0.726696
11
0.112278
21
0.725385
0
LINE
8
BLACK
6
CONTINUOUS
10
0.112278
20
0.725385
11
0.112278
21
0.716386
0
LINE
8
BLACK
6
CONTINUOUS
10
0.112278
20
0.716386
11
0.111926
21
0.715075
0
LINE
8
BLACK
6
CONTINUOUS
10
0.111926
20
0.715075
11
0.111654
21
0.713745
0
LINE
8
BLACK
6
CONTINUOUS
10
0.111654
20
0.713745
11
0.109405
21
0.709246
0
LINE
8
BLACK
6
CONTINUOUS
10
0.109405
20
0.709246
11
0.108774
21
0.708534
0
LINE
8
BLACK
6
CONTINUOUS
10
0.108774
20
0.708534
11
0.108298
21
0.707711
0
LINE
8
BLACK
6
CONTINUOUS
10
0.108298
20
0.707711
11
0.103799
21
0.703212
0
LINE
8
BLACK
6
CONTINUOUS
10
0.103799
20
0.703212
11
0.103755
21
0.703186
0
LINE
8
BLACK
6
CONTINUOUS
10
0.103755
20
0.703186
11
0.103728
21
0.703142
0
LINE
8
BLACK
6
CONTINUOUS
10
0.103728
20
0.703142
11
0.102434
21
0.702423
0
LINE
8
BLACK
6
CONTINUOUS
10
0.102434
20
0.702423
11
0.101152
21
0.701683
0
LINE
8
BLACK
6
CONTINUOUS
10
0.101152
20
0.701683
11
0.1011
21
0.701683
0
LINE
8
BLACK
6
CONTINUOUS
10
0.1011
20
0.701683
11
0.101055
21
0.701658
0
LINE
8
BLACK
6
CONTINUOUS
10
0.101055
20
0.701658
11
0.0920566
21
0.699409
0
LINE
8
BLACK
6
CONTINUOUS
10
0.0920566
20
0.699409
11
0.0913281
21
0.699421
0
LINE
8
BLACK
6
CONTINUOUS
10
0.0913281
20
0.699421
11
0.0906243
21
0.699232
0
LINE
8
BLACK
6
CONTINUOUS
10
0.0906243
20
0.699232
11
0.0748763
21
0.699232
0
LINE
8
BLACK
6
CONTINUOUS
10
0.0748763
20
0.699232
11
0.0741724
21
0.699421
0
LINE
8
BLACK
6
CONTINUOUS
10
0.0741724
20
0.699421
11
0.073444
21
0.699409
0
LINE
8
BLACK
6
CONTINUOUS
10
0.073444
20
0.699409
11
0.0644451
21
0.701658
0
LINE
8
BLACK
6
CONTINUOUS
10
0.0644451
20
0.701658
11
0.0644002
21
0.701683
0
LINE
8
BLACK
6
CONTINUOUS
10
0.0644002
20
0.701683
11
0.0643489
21
0.701683
0
LINE
8
BLACK
6
CONTINUOUS
10
0.0643489
20
0.701683
11
0.0630677
21
0.702423
0
LINE
8
BLACK
6
CONTINUOUS
10
0.0630677
20
0.702423
11
0.0617724
21
0.703142
0
LINE
8
BLACK
6
CONTINUOUS
10
0.0617724
20
0.703142
11
0.0617459
21
0.703186
0
LINE
8
BLACK
6
CONTINUOUS
10
0.0617459
20
0.703186
11
0.0617015
21
0.703212
0
LINE
8
BLACK
6
CONTINUOUS
10
0.0617015
20
0.703212
11
0.0572021
21
0.707711
0
LINE
8
BLACK
6
CONTINUOUS
10
0.0572021
20
0.707711
11
0.0567267
21
0.708535
0
LINE
8
BLACK
6
CONTINUOUS
10
0.0567267
20
0.708535
11
0.0560959
21
0.709246
0
LINE
8
BLACK
6
CONTINUOUS
10
0.0560959
20
0.709246
11
0.0538462
21
0.713745
0
LINE
8
BLACK
6
CONTINUOUS
10
0.0538462
20
0.713745
11
0.053574
21
0.715075
0
LINE
8
BLACK
6
CONTINUOUS
10
0.053574
20
0.715075
11
0.0532227
21
0.716386
0
LINE
8
BLACK
6
CONTINUOUS
10
0.0532227
20
0.716386
11
0.0532227
21
0.725385
0
LINE
8
BLACK
6
CONTINUOUS
10
0.0532227
20
0.725385
11
0.053574
21
0.726696
0
LINE
8
BLACK
6
CONTINUOUS
10
0.053574
20
0.726696
11
0.0538462
21
0.728026
0
LINE
8
BLACK
6
CONTINUOUS
10
0.0538462
20
0.728026
11
0.0560959
21
0.732526
0
LINE
8
BLACK
6
CONTINUOUS
10
0.0560959
20
0.732526
11
0.0567267
21
0.733237
0
LINE
8
BLACK
6
CONTINUOUS
10
0.0567267
20
0.733237
11
0.0572021
21
0.734061
0
LINE
8
BLACK
6
CONTINUOUS
10
0.0572021
20
0.734061
11
0.0617015
21
0.73856
0
LINE
8
BLACK
6
CONTINUOUS
10
0.0617015
20
0.73856
11
0.0617459
21
0.738586
0
LINE
8
BLACK
6
CONTINUOUS
10
0.0617459
20
0.738586
11
0.0617724
21
0.73863
0
LINE
8
BLACK
6
CONTINUOUS
10
0.0617724
20
0.73863
11
0.0630659
21
0.739348
0
LINE
8
BLACK
6
CONTINUOUS
10
0.0630659
20
0.739348
11
0.0643489
21
0.740088
0
LINE
8
BLACK
6
CONTINUOUS
10
0.0643489
20
0.740088
11
0.0644003
21
0.740088
0
LINE
8
BLACK
6
CONTINUOUS
10
0.0644003
20
0.740088
11
0.0644451
21
0.740113
0
LINE
8
BLACK
6
CONTINUOUS
10
0.0644451
20
0.740113
11
0.073444
21
0.742363
0
LINE
8
BLACK
6
CONTINUOUS
10
0.073444
20
0.742363
11
0.0741724
21
0.742351
0
LINE
8
BLACK
6
CONTINUOUS
10
0.0741724
20
0.742351
11
0.0748763
21
0.742539
0
LINE
8
BLACK
6
CONTINUOUS
10
0.0748763
20
0.742539
11
0.0906243
21
0.742539
0
LINE
8
BLACK
6
CONTINUOUS
10
0.0906243
20
0.742539
11
0.0913281
21
0.742351
0
LINE
8
BLACK
6
CONTINUOUS
10
0.0756032
20
0.730728
11
0.0688966
21
0.729052
0
LINE
8
BLACK
6
CONTINUOUS
10
0.0688966
20
0.729052
11
0.0662314
21
0.726386
0
LINE
8
BLACK
6
CONTINUOUS
10
0.0662314
20
0.726386
11
0.0650337
21
0.723991
0
LINE
8
BLACK
6
CONTINUOUS
10
0.0650337
20
0.723991
11
0.0650337
21
0.71778
0
LINE
8
BLACK
6
CONTINUOUS
10
0.0650337
20
0.71778
11
0.0662314
21
0.715385
0
LINE
8
BLACK
6
CONTINUOUS
10
0.0662314
20
0.715385
11
0.0688965
21
0.71272
0
LINE
8
BLACK
6
CONTINUOUS
10
0.0688965
20
0.71272
11
0.0756033
21
0.711043
0
LINE
8
BLACK
6
CONTINUOUS
10
0.0756033
20
0.711043
11
0.0898974
21
0.711043
0
LINE
8
BLACK
6
CONTINUOUS
10
0.0898974
20
0.711043
11
0.0966039
21
0.71272
0
LINE
8
BLACK
6
CONTINUOUS
10
0.0966039
20
0.71272
11
0.0992691
21
0.715385
0
LINE
8
BLACK
6
CONTINUOUS
10
0.0992691
20
0.715385
11
0.100467
21
0.71778
0
LINE
8
BLACK
6
CONTINUOUS
10
0.100467
20
0.71778
11
0.100467
21
0.723991
0
LINE
8
BLACK
6
CONTINUOUS
10
0.100467
20
0.723991
11
0.0992691
21
0.726386
0
LINE
8
BLACK
6
CONTINUOUS
10
0.0992691
20
0.726386
11
0.0966039
21
0.729052
0
LINE
8
BLACK
6
CONTINUOUS
10
0.0966039
20
0.729052
11
0.0898974
21
0.730728
0
LINE
8
BLACK
6
CONTINUOUS
10
0.0898974
20
0.730728
11
0.0756032
21
0.730728
0
LINE
8
BLACK
6
CONTINUOUS
10
1.92908
20
0.742725
11
1.92981
21
0.742737
0
LINE
8
BLACK
6
CONTINUOUS
10
1.92981
20
0.742737
11
1.93881
21
0.740487
0
LINE
8
BLACK
6
CONTINUOUS
10
1.93881
20
0.740487
11
1.93938
21
0.740171
0
LINE
8
BLACK
6
CONTINUOUS
10
1.93938
20
0.740171
11
1.94001
21
0.74004
0
LINE
8
BLACK
6
CONTINUOUS
10
1.94001
20
0.74004
11
1.94451
21
0.73779
0
LINE
8
BLACK
6
CONTINUOUS
10
1.94451
20
0.73779
11
1.94523
21
0.73716
0
LINE
8
BLACK
6
CONTINUOUS
10
1.94523
20
0.73716
11
1.94605
21
0.736684
0
LINE
8
BLACK
6
CONTINUOUS
10
1.94605
20
0.736684
11
1.9483
21
0.734435
0
LINE
8
BLACK
6
CONTINUOUS
10
1.9483
20
0.734435
11
1.94877
21
0.733611
0
LINE
8
BLACK
6
CONTINUOUS
10
1.94877
20
0.733611
11
1.9494
21
0.7329
0
LINE
8
BLACK
6
CONTINUOUS
10
1.9494
20
0.7329
11
1.95165
21
0.7284
0
LINE
8
BLACK
6
CONTINUOUS
10
1.95165
20
0.7284
11
1.95193
21
0.72707
0
LINE
8
BLACK
6
CONTINUOUS
10
1.95193
20
0.72707
11
1.95228
21
0.725759
0
LINE
8
BLACK
6
CONTINUOUS
10
1.95228
20
0.725759
11
1.95228
21
0.72126
0
LINE
8
BLACK
6
CONTINUOUS
10
1.95228
20
0.72126
11
1.95193
21
0.719949
0
LINE
8
BLACK
6
CONTINUOUS
10
1.95193
20
0.719949
11
1.95165
21
0.718619
0
LINE
8
BLACK
6
CONTINUOUS
10
1.95165
20
0.718619
11
1.9494
21
0.714119
0
LINE
8
BLACK
6
CONTINUOUS
10
1.9494
20
0.714119
11
1.94877
21
0.713408
0
LINE
8
BLACK
6
CONTINUOUS
10
1.94877
20
0.713408
11
1.9483
21
0.712585
0
LINE
8
BLACK
6
CONTINUOUS
10
1.9483
20
0.712585
11
1.94605
21
0.710335
0
LINE
8
BLACK
6
CONTINUOUS
10
1.94605
20
0.710335
11
1.94523
21
0.709859
0
LINE
8
BLACK
6
CONTINUOUS
10
1.94523
20
0.709859
11
1.94451
21
0.709229
0
LINE
8
BLACK
6
CONTINUOUS
10
1.94451
20
0.709229
11
1.94001
21
0.706979
0
LINE
8
BLACK
6
CONTINUOUS
10
1.94001
20
0.706979
11
1.93938
21
0.706848
0
LINE
8
BLACK
6
CONTINUOUS
10
1.93938
20
0.706848
11
1.93881
21
0.706532
0
LINE
8
BLACK
6
CONTINUOUS
10
1.93881
20
0.706532
11
1.92981
21
0.704282
0
LINE
8
BLACK
6
CONTINUOUS
10
1.92981
20
0.704282
11
1.92908
21
0.704294
0
LINE
8
BLACK
6
CONTINUOUS
10
1.92908
20
0.704294
11
1.92837
21
0.704106
0
LINE
8
BLACK
6
CONTINUOUS
10
1.92837
20
0.704106
11
1.91713
21
0.704106
0
LINE
8
BLACK
6
CONTINUOUS
10
1.91713
20
0.704106
11
1.91642
21
0.704294
0
LINE
8
BLACK
6
CONTINUOUS
10
1.91642
20
0.704294
11
1.91569
21
0.704282
0
LINE
8
BLACK
6
CONTINUOUS
10
1.91569
20
0.704282
11
1.90669
21
0.706532
0
LINE
8
BLACK
6
CONTINUOUS
10
1.90669
20
0.706532
11
1.90612
21
0.706848
0
LINE
8
BLACK
6
CONTINUOUS
10
1.90612
20
0.706848
11
1.90549
21
0.706979
0
LINE
8
BLACK
6
CONTINUOUS
10
1.90549
20
0.706979
11
1.90099
21
0.709229
0
LINE
8
BLACK
6
CONTINUOUS
10
1.90099
20
0.709229
11
1.90028
21
0.709859
0
LINE
8
BLACK
6
CONTINUOUS
10
1.90028
20
0.709859
11
1.89945
21
0.710335
0
LINE
8
BLACK
6
CONTINUOUS
10
1.89945
20
0.710335
11
1.8972
21
0.712585
0
LINE
8
BLACK
6
CONTINUOUS
10
1.8972
20
0.712585
11
1.89673
21
0.713408
0
LINE
8
BLACK
6
CONTINUOUS
10
1.89673
20
0.713408
11
1.8961
21
0.714119
0
LINE
8
BLACK
6
CONTINUOUS
10
1.8961
20
0.714119
11
1.89385
21
0.718619
0
LINE
8
BLACK
6
CONTINUOUS
10
1.89385
20
0.718619
11
1.89357
21
0.719949
0
LINE
8
BLACK
6
CONTINUOUS
10
1.89357
20
0.719949
11
1.89322
21
0.72126
0
LINE
8
BLACK
6
CONTINUOUS
10
1.89322
20
0.72126
11
1.89322
21
0.725759
0
LINE
8
BLACK
6
CONTINUOUS
10
1.89322
20
0.725759
11
1.89357
21
0.72707
0
LINE
8
BLACK
6
CONTINUOUS
10
1.89357
20
0.72707
11
1.89385
21
0.7284
0
LINE
8
BLACK
6
CONTINUOUS
10
1.89385
20
0.7284
11
1.8961
21
0.7329
0
LINE
8
BLACK
6
CONTINUOUS
10
1.8961
20
0.7329
11
1.89673
21
0.733611
0
LINE
8
BLACK
6
CONTINUOUS
10
1.89673
20
0.733611
11
1.8972
21
0.734434
0
LINE
8
BLACK
6
CONTINUOUS
10
1.8972
20
0.734434
11
1.89945
21
0.736684
0
LINE
8
BLACK
6
CONTINUOUS
10
1.89945
20
0.736684
11
1.90028
21
0.73716
0
LINE
8
BLACK
6
CONTINUOUS
10
1.90028
20
0.73716
11
1.90099
21
0.73779
0
LINE
8
BLACK
6
CONTINUOUS
10
1.90099
20
0.73779
11
1.90549
21
0.74004
0
LINE
8
BLACK
6
CONTINUOUS
10
1.90549
20
0.74004
11
1.90612
21
0.740171
0
LINE
8
BLACK
6
CONTINUOUS
10
1.90612
20
0.740171
11
1.90669
21
0.740487
0
LINE
8
BLACK
6
CONTINUOUS
10
1.90669
20
0.740487
11
1.91569
21
0.742737
0
LINE
8
BLACK
6
CONTINUOUS
10
1.91569
20
0.742737
11
1.91642
21
0.742725
0
LINE
8
BLACK
6
CONTINUOUS
10
1.91642
20
0.742725
11
1.91713
21
0.742913
0
LINE
8
BLACK
6
CONTINUOUS
10
1.91713
20
0.742913
11
1.92837
21
0.742913
0
LINE
8
BLACK
6
CONTINUOUS
10
1.92837
20
0.742913
11
1.92908
21
0.742725
0
LINE
8
BLACK
6
CONTINUOUS
10
1.91785
20
0.731102
11
1.91019
21
0.729186
0
LINE
8
BLACK
6
CONTINUOUS
10
1.91019
20
0.729186
11
1.90713
21
0.727655
0
LINE
8
BLACK
6
CONTINUOUS
10
1.90713
20
0.727655
11
1.90623
21
0.726761
0
LINE
8
BLACK
6
CONTINUOUS
10
1.90623
20
0.726761
11
1.90503
21
0.724365
0
LINE
8
BLACK
6
CONTINUOUS
10
1.90503
20
0.724365
11
1.90503
21
0.722654
0
LINE
8
BLACK
6
CONTINUOUS
10
1.90503
20
0.722654
11
1.90623
21
0.720259
0
LINE
8
BLACK
6
CONTINUOUS
10
1.90623
20
0.720259
11
1.90713
21
0.719364
0
LINE
8
BLACK
6
CONTINUOUS
10
1.90713
20
0.719364
11
1.91019
21
0.717833
0
LINE
8
BLACK
6
CONTINUOUS
10
1.91019
20
0.717833
11
1.91785
21
0.715917
0
LINE
8
BLACK
6
CONTINUOUS
10
1.91785
20
0.715917
11
1.92765
21
0.715917
0
LINE
8
BLACK
6
CONTINUOUS
10
1.92765
20
0.715917
11
1.93531
21
0.717833
0
LINE
8
BLACK
6
CONTINUOUS
10
1.93531
20
0.717833
11
1.93837
21
0.719364
0
LINE
8
BLACK
6
CONTINUOUS
10
1.93837
20
0.719364
11
1.93927
21
0.720259
0
LINE
8
BLACK
6
CONTINUOUS
10
1.93927
20
0.720259
11
1.94047
21
0.722654
0
LINE
8
BLACK
6
CONTINUOUS
10
1.94047
20
0.722654
11
1.94047
21
0.724365
0
LINE
8
BLACK
6
CONTINUOUS
10
1.94047
20
0.724365
11
1.93927
21
0.726761
0
LINE
8
BLACK
6
CONTINUOUS
10
1.93927
20
0.726761
11
1.93837
21
0.727655
0
LINE
8
BLACK
6
CONTINUOUS
10
1.93837
20
0.727655
11
1.93531
21
0.729186
0
LINE
8
BLACK
6
CONTINUOUS
10
1.93531
20
0.729186
11
1.92765
21
0.731102
0
LINE
8
BLACK
6
CONTINUOUS
10
1.92765
20
0.731102
11
1.91785
21
0.731102
0
LINE
8
BLACK
6
CONTINUOUS
10
0.142081
20
0.760871
11
0.144243
21
0.758709
0
LINE
8
BLACK
6
CONTINUOUS
10
0.144243
20
0.758709
11
0.145034
21
0.755756
0
LINE
8
BLACK
6
CONTINUOUS
10
0.145034
20
0.755756
11
0.145034
21
0.733216
0
LINE
8
BLACK
6
CONTINUOUS
10
0.145034
20
0.733216
11
0.184046
21
0.749936
0
LINE
8
BLACK
6
CONTINUOUS
10
0.184046
20
0.749936
11
0.187072
21
0.750372
0
LINE
8
BLACK
6
CONTINUOUS
10
0.187072
20
0.750372
11
0.18991
21
0.749237
0
LINE
8
BLACK
6
CONTINUOUS
10
0.18991
20
0.749237
11
0.1918
21
0.746834
0
LINE
8
BLACK
6
CONTINUOUS
10
0.1918
20
0.746834
11
0.192236
21
0.743809
0
LINE
8
BLACK
6
CONTINUOUS
10
0.192236
20
0.743809
11
0.191101
21
0.74097
0
LINE
8
BLACK
6
CONTINUOUS
10
0.191101
20
0.74097
11
0.188699
21
0.73908
0
LINE
8
BLACK
6
CONTINUOUS
10
0.188699
20
0.73908
11
0.141455
21
0.718832
0
LINE
8
BLACK
6
CONTINUOUS
10
0.141455
20
0.718832
11
0.140277
21
0.718663
0
LINE
8
BLACK
6
CONTINUOUS
10
0.140277
20
0.718663
11
0.139128
21
0.718355
0
LINE
8
BLACK
6
CONTINUOUS
10
0.139128
20
0.718355
11
0.138783
21
0.718447
0
LINE
8
BLACK
6
CONTINUOUS
10
0.138783
20
0.718447
11
0.138429
21
0.718396
0
LINE
8
BLACK
6
CONTINUOUS
10
0.138429
20
0.718396
11
0.137324
21
0.718838
0
LINE
8
BLACK
6
CONTINUOUS
10
0.137324
20
0.718838
11
0.136175
21
0.719146
0
LINE
8
BLACK
6
CONTINUOUS
10
0.136175
20
0.719146
11
0.135923
21
0.719399
0
LINE
8
BLACK
6
CONTINUOUS
10
0.135923
20
0.719399
11
0.135591
21
0.719532
0
LINE
8
BLACK
6
CONTINUOUS
10
0.135591
20
0.719532
11
0.134855
21
0.720467
0
LINE
8
BLACK
6
CONTINUOUS
10
0.134855
20
0.720467
11
0.134014
21
0.721308
0
LINE
8
BLACK
6
CONTINUOUS
10
0.134014
20
0.721308
11
0.133921
21
0.721653
0
LINE
8
BLACK
6
CONTINUOUS
10
0.133921
20
0.721653
11
0.1337
21
0.721934
0
LINE
8
BLACK
6
CONTINUOUS
10
0.1337
20
0.721934
11
0.133531
21
0.723112
0
LINE
8
BLACK
6
CONTINUOUS
10
0.133531
20
0.723112
11
0.133223
21
0.72426
0
LINE
8
BLACK
6
CONTINUOUS
10
0.133223
20
0.72426
11
0.133223
21
0.755756
0
LINE
8
BLACK
6
CONTINUOUS
10
0.133223
20
0.755756
11
0.134014
21
0.758709
0
LINE
8
BLACK
6
CONTINUOUS
10
0.134014
20
0.758709
11
0.136175
21
0.760871
0
LINE
8
BLACK
6
CONTINUOUS
10
0.136175
20
0.760871
11
0.139128
21
0.761662
0
LINE
8
BLACK
6
CONTINUOUS
10
0.139128
20
0.761662
11
0.142081
21
0.760871
0
LINE
8
BLACK
6
CONTINUOUS
10
1.90208
20
0.782617
11
1.90424
21
0.780456
0
LINE
8
BLACK
6
CONTINUOUS
10
1.90424
20
0.780456
11
1.90503
21
0.777503
0
LINE
8
BLACK
6
CONTINUOUS
10
1.90503
20
0.777503
11
1.90503
21
0.76991
0
LINE
8
BLACK
6
CONTINUOUS
10
1.90503
20
0.76991
11
1.94637
21
0.76991
0
LINE
8
BLACK
6
CONTINUOUS
10
1.94637
20
0.76991
11
1.94933
21
0.769119
0
LINE
8
BLACK
6
CONTINUOUS
10
1.94933
20
0.769119
11
1.95149
21
0.766957
0
LINE
8
BLACK
6
CONTINUOUS
10
1.95149
20
0.766957
11
1.95228
21
0.764004
0
LINE
8
BLACK
6
CONTINUOUS
10
1.95228
20
0.764004
11
1.95149
21
0.761052
0
LINE
8
BLACK
6
CONTINUOUS
10
1.95149
20
0.761052
11
1.94933
21
0.75889
0
LINE
8
BLACK
6
CONTINUOUS
10
1.94933
20
0.75889
11
1.94637
21
0.758099
0
LINE
8
BLACK
6
CONTINUOUS
10
1.94637
20
0.758099
11
1.90503
21
0.758099
0
LINE
8
BLACK
6
CONTINUOUS
10
1.90503
20
0.758099
11
1.90503
21
0.750506
0
LINE
8
BLACK
6
CONTINUOUS
10
1.90503
20
0.750506
11
1.90424
21
0.747553
0
LINE
8
BLACK
6
CONTINUOUS
10
1.90424
20
0.747553
11
1.90208
21
0.745392
0
LINE
8
BLACK
6
CONTINUOUS
10
1.90208
20
0.745392
11
1.89913
21
0.744601
0
LINE
8
BLACK
6
CONTINUOUS
10
1.89913
20
0.744601
11
1.89618
21
0.745392
0
LINE
8
BLACK
6
CONTINUOUS
10
1.89618
20
0.745392
11
1.89401
21
0.747553
0
LINE
8
BLACK
6
CONTINUOUS
10
1.89401
20
0.747553
11
1.89322
21
0.750506
0
LINE
8
BLACK
6
CONTINUOUS
10
1.89322
20
0.750506
11
1.89322
21
0.777503
0
LINE
8
BLACK
6
CONTINUOUS
10
1.89322
20
0.777503
11
1.89401
21
0.780456
0
LINE
8
BLACK
6
CONTINUOUS
10
1.89401
20
0.780456
11
1.89618
21
0.782617
0
LINE
8
BLACK
6
CONTINUOUS
10
1.89618
20
0.782617
11
1.89913
21
0.783408
0
LINE
8
BLACK
6
CONTINUOUS
10
1.89913
20
0.783408
11
1.90208
21
0.782617
0
LINE
8
BLACK
6
CONTINUOUS
10
0.0561755
20
0.751767
11
0.0540139
21
0.753929
0
LINE
8
BLACK
6
CONTINUOUS
10
0.0540139
20
0.753929
11
0.0532227
21
0.756881
0
LINE
8
BLACK
6
CONTINUOUS
10
0.0532227
20
0.756881
11
0.0540139
21
0.759834
0
LINE
8
BLACK
6
CONTINUOUS
10
0.0540139
20
0.759834
11
0.0561755
21
0.761996
0
LINE
8
BLACK
6
CONTINUOUS
10
0.0561755
20
0.761996
11
0.0591282
21
0.762787
0
LINE
8
BLACK
6
CONTINUOUS
10
0.0591282
20
0.762787
11
0.0757199
21
0.762787
0
LINE
8
BLACK
6
CONTINUOUS
10
0.0757199
20
0.762787
11
0.0757199
21
0.777972
0
LINE
8
BLACK
6
CONTINUOUS
10
0.0757199
20
0.777972
11
0.0591282
21
0.777972
0
LINE
8
BLACK
6
CONTINUOUS
10
0.0591282
20
0.777972
11
0.0561755
21
0.778764
0
LINE
8
BLACK
6
CONTINUOUS
10
0.0561755
20
0.778764
11
0.0540139
21
0.780925
0
LINE
8
BLACK
6
CONTINUOUS
10
0.0540139
20
0.780925
11
0.0532227
21
0.783878
0
LINE
8
BLACK
6
CONTINUOUS
10
0.0532227
20
0.783878
11
0.0540139
21
0.786831
0
LINE
8
BLACK
6
CONTINUOUS
10
0.0540139
20
0.786831
11
0.0561755
21
0.788992
0
LINE
8
BLACK
6
CONTINUOUS
10
0.0561755
20
0.788992
11
0.0591282
21
0.789783
0
LINE
8
BLACK
6
CONTINUOUS
10
0.0591282
20
0.789783
11
0.106372
21
0.789783
0
LINE
8
BLACK
6
CONTINUOUS
10
0.106372
20
0.789783
11
0.109325
21
0.788992
0
LINE
8
BLACK
6
CONTINUOUS
10
0.109325
20
0.788992
11
0.111487
21
0.786831
0
LINE
8
BLACK
6
CONTINUOUS
10
0.111487
20
0.786831
11
0.112278
21
0.783878
0
LINE
8
BLACK
6
CONTINUOUS
10
0.112278
20
0.783878
11
0.111487
21
0.780925
0
LINE
8
BLACK
6
CONTINUOUS
10
0.111487
20
0.780925
11
0.109325
21
0.778764
0
LINE
8
BLACK
6
CONTINUOUS
10
0.109325
20
0.778764
11
0.106372
21
0.777972
0
LINE
8
BLACK
6
CONTINUOUS
10
0.106372
20
0.777972
11
0.0875309
21
0.777972
0
LINE
8
BLACK
6
CONTINUOUS
10
0.0875309
20
0.777972
11
0.0875309
21
0.762787
0
LINE
8
BLACK
6
CONTINUOUS
10
0.0875309
20
0.762787
11
0.106372
21
0.762787
0
LINE
8
BLACK
6
CONTINUOUS
10
0.106372
20
0.762787
11
0.109325
21
0.761996
0
LINE
8
BLACK
6
CONTINUOUS
10
0.109325
20
0.761996
11
0.111487
21
0.759834
0
LINE
8
BLACK
6
CONTINUOUS
10
0.111487
20
0.759834
11
0.112278
21
0.756881
0
LINE
8
BLACK
6
CONTINUOUS
10
0.112278
20
0.756881
11
0.111487
21
0.753929
0
LINE
8
BLACK
6
CONTINUOUS
10
0.111487
20
0.753929
11
0.109325
21
0.751767
0
LINE
8
BLACK
6
CONTINUOUS
10
0.109325
20
0.751767
11
0.106372
21
0.750976
0
LINE
8
BLACK
6
CONTINUOUS
10
0.106372
20
0.750976
11
0.0591282
21
0.750976
0
LINE
8
BLACK
6
CONTINUOUS
10
0.0591282
20
0.750976
11
0.0561755
21
0.751767
0
LINE
8
BLACK
6
CONTINUOUS
10
0.189325
20
0.803615
11
0.191487
21
0.801454
0
LINE
8
BLACK
6
CONTINUOUS
10
0.191487
20
0.801454
11
0.192278
21
0.798501
0
LINE
8
BLACK
6
CONTINUOUS
10
0.192278
20
0.798501
11
0.192278
21
0.771504
0
LINE
8
BLACK
6
CONTINUOUS
10
0.192278
20
0.771504
11
0.191487
21
0.768552
0
LINE
8
BLACK
6
CONTINUOUS
10
0.191487
20
0.768552
11
0.189325
21
0.76639
0
LINE
8
BLACK
6
CONTINUOUS
10
0.189325
20
0.76639
11
0.186372
21
0.765599
0
LINE
8
BLACK
6
CONTINUOUS
10
0.186372
20
0.765599
11
0.18342
21
0.76639
0
LINE
8
BLACK
6
CONTINUOUS
10
0.18342
20
0.76639
11
0.181258
21
0.768552
0
LINE
8
BLACK
6
CONTINUOUS
10
0.181258
20
0.768552
11
0.180467
21
0.771504
0
LINE
8
BLACK
6
CONTINUOUS
10
0.180467
20
0.771504
11
0.180467
21
0.779097
0
LINE
8
BLACK
6
CONTINUOUS
10
0.180467
20
0.779097
11
0.139128
21
0.779097
0
LINE
8
BLACK
6
CONTINUOUS
10
0.139128
20
0.779097
11
0.137829
21
0.779445
0
LINE
8
BLACK
6
CONTINUOUS
10
0.137829
20
0.779445
11
0.136511
21
0.779709
0
LINE
8
BLACK
6
CONTINUOUS
10
0.136511
20
0.779709
11
0.136364
21
0.779838
0
LINE
8
BLACK
6
CONTINUOUS
10
0.136364
20
0.779838
11
0.136175
21
0.779888
0
LINE
8
BLACK
6
CONTINUOUS
10
0.136175
20
0.779888
11
0.135225
21
0.780839
0
LINE
8
BLACK
6
CONTINUOUS
10
0.135225
20
0.780839
11
0.134215
21
0.781727
0
LINE
8
BLACK
6
CONTINUOUS
10
0.134215
20
0.781727
11
0.134152
21
0.781912
0
LINE
8
BLACK
6
CONTINUOUS
10
0.134152
20
0.781912
11
0.134014
21
0.78205
0
LINE
8
BLACK
6
CONTINUOUS
10
0.134014
20
0.78205
11
0.133666
21
0.783349
0
LINE
8
BLACK
6
CONTINUOUS
10
0.133666
20
0.783349
11
0.133235
21
0.784623
0
LINE
8
BLACK
6
CONTINUOUS
10
0.133235
20
0.784623
11
0.133273
21
0.784814
0
LINE
8
BLACK
6
CONTINUOUS
10
0.133273
20
0.784814
11
0.133223
21
0.785003
0
LINE
8
BLACK
6
CONTINUOUS
10
0.133223
20
0.785003
11
0.133571
21
0.786302
0
LINE
8
BLACK
6
CONTINUOUS
10
0.133571
20
0.786302
11
0.133834
21
0.78762
0
LINE
8
BLACK
6
CONTINUOUS
10
0.133834
20
0.78762
11
0.133963
21
0.787767
0
LINE
8
BLACK
6
CONTINUOUS
10
0.133963
20
0.787767
11
0.134014
21
0.787956
0
LINE
8
BLACK
6
CONTINUOUS
10
0.134014
20
0.787956
11
0.134965
21
0.788906
0
LINE
8
BLACK
6
CONTINUOUS
10
0.134965
20
0.788906
11
0.135852
21
0.789916
0
LINE
8
BLACK
6
CONTINUOUS
10
0.135852
20
0.789916
11
0.142115
21
0.794092
0
LINE
8
BLACK
6
CONTINUOUS
10
0.142115
20
0.794092
11
0.145523
21
0.7975
0
LINE
8
BLACK
6
CONTINUOUS
10
0.145523
20
0.7975
11
0.147344
21
0.801142
0
LINE
8
BLACK
6
CONTINUOUS
10
0.147344
20
0.801142
11
0.149373
21
0.803429
0
LINE
8
BLACK
6
CONTINUOUS
10
0.149373
20
0.803429
11
0.152273
21
0.804396
0
LINE
8
BLACK
6
CONTINUOUS
10
0.152273
20
0.804396
11
0.155268
21
0.803783
0
LINE
8
BLACK
6
CONTINUOUS
10
0.155268
20
0.803783
11
0.157555
21
0.801755
0
LINE
8
BLACK
6
CONTINUOUS
10
0.157555
20
0.801755
11
0.158521
21
0.798855
0
LINE
8
BLACK
6
CONTINUOUS
10
0.158521
20
0.798855
11
0.157909
21
0.79586
0
LINE
8
BLACK
6
CONTINUOUS
10
0.157909
20
0.79586
11
0.155659
21
0.791361
0
LINE
8
BLACK
6
CONTINUOUS
10
0.155659
20
0.791361
11
0.155258
21
0.790908
0
LINE
8
BLACK
6
CONTINUOUS
10
0.155258
20
0.790908
11
0.180467
21
0.790908
0
LINE
8
BLACK
6
CONTINUOUS
10
0.180467
20
0.790908
11
0.180467
21
0.798501
0
LINE
8
BLACK
6
CONTINUOUS
10
0.180467
20
0.798501
11
0.181258
21
0.801454
0
LINE
8
BLACK
6
CONTINUOUS
10
0.181258
20
0.801454
11
0.18342
21
0.803615
0
LINE
8
BLACK
6
CONTINUOUS
10
0.18342
20
0.803615
11
0.186372
21
0.804407
0
LINE
8
BLACK
6
CONTINUOUS
10
0.186372
20
0.804407
11
0.189325
21
0.803615
0
LINE
8
BLACK
6
CONTINUOUS
10
1.94933
20
0.825362
11
1.95149
21
0.8232
0
LINE
8
BLACK
6
CONTINUOUS
10
1.95149
20
0.8232
11
1.95228
21
0.820247
0
LINE
8
BLACK
6
CONTINUOUS
10
1.95228
20
0.820247
11
1.95149
21
0.817295
0
LINE
8
BLACK
6
CONTINUOUS
10
1.95149
20
0.817295
11
1.94933
21
0.815133
0
LINE
8
BLACK
6
CONTINUOUS
10
1.94933
20
0.815133
11
1.94637
21
0.814342
0
LINE
8
BLACK
6
CONTINUOUS
10
1.94637
20
0.814342
11
1.92137
21
0.814342
0
LINE
8
BLACK
6
CONTINUOUS
10
1.92137
20
0.814342
11
1.9493
21
0.798378
0
LINE
8
BLACK
6
CONTINUOUS
10
1.9493
20
0.798378
11
1.94931
21
0.798369
0
LINE
8
BLACK
6
CONTINUOUS
10
1.94931
20
0.798369
11
1.94933
21
0.798365
0
LINE
8
BLACK
6
CONTINUOUS
10
1.94933
20
0.798365
11
1.9504
21
0.797293
0
LINE
8
BLACK
6
CONTINUOUS
10
1.9504
20
0.797293
11
1.95147
21
0.796226
0
LINE
8
BLACK
6
CONTINUOUS
10
1.95147
20
0.796226
11
1.95148
21
0.796213
0
LINE
8
BLACK
6
CONTINUOUS
10
1.95148
20
0.796213
11
1.95149
21
0.796204
0
LINE
8
BLACK
6
CONTINUOUS
10
1.95149
20
0.796204
11
1.95188
21
0.794739
0
LINE
8
BLACK
6
CONTINUOUS
10
1.95188
20
0.794739
11
1.95228
21
0.793277
0
LINE
8
BLACK
6
CONTINUOUS
10
1.95228
20
0.793277
11
1.95227
21
0.793264
0
LINE
8
BLACK
6
CONTINUOUS
10
1.95227
20
0.793264
11
1.95228
21
0.793251
0
LINE
8
BLACK
6
CONTINUOUS
10
1.95228
20
0.793251
11
1.95189
21
0.791786
0
LINE
8
BLACK
6
CONTINUOUS
10
1.95189
20
0.791786
11
1.9515
21
0.790321
0
LINE
8
BLACK
6
CONTINUOUS
10
1.9515
20
0.790321
11
1.95149
21
0.790311
0
LINE
8
BLACK
6
CONTINUOUS
10
1.95149
20
0.790311
11
1.95149
21
0.790298
0
LINE
8
BLACK
6
CONTINUOUS
10
1.95149
20
0.790298
11
1.95042
21
0.789226
0
LINE
8
BLACK
6
CONTINUOUS
10
1.95042
20
0.789226
11
1.94935
21
0.78815
0
LINE
8
BLACK
6
CONTINUOUS
10
1.94935
20
0.78815
11
1.94933
21
0.788146
0
LINE
8
BLACK
6
CONTINUOUS
10
1.94933
20
0.788146
11
1.94933
21
0.788136
0
LINE
8
BLACK
6
CONTINUOUS
10
1.94933
20
0.788136
11
1.94786
21
0.787745
0
LINE
8
BLACK
6
CONTINUOUS
10
1.94786
20
0.787745
11
1.9464
21
0.787345
0
LINE
8
BLACK
6
CONTINUOUS
10
1.9464
20
0.787345
11
1.94639
21
0.787349
0
LINE
8
BLACK
6
CONTINUOUS
10
1.94639
20
0.787349
11
1.94637
21
0.787345
0
LINE
8
BLACK
6
CONTINUOUS
10
1.94637
20
0.787345
11
1.89913
21
0.787345
0
LINE
8
BLACK
6
CONTINUOUS
10
1.89913
20
0.787345
11
1.89618
21
0.788136
0
LINE
8
BLACK
6
CONTINUOUS
10
1.89618
20
0.788136
11
1.89401
21
0.790298
0
LINE
8
BLACK
6
CONTINUOUS
10
1.89401
20
0.790298
11
1.89322
21
0.793251
0
LINE
8
BLACK
6
CONTINUOUS
10
1.89322
20
0.793251
11
1.89401
21
0.796204
0
LINE
8
BLACK
6
CONTINUOUS
10
1.89401
20
0.796204
11
1.89618
21
0.798365
0
LINE
8
BLACK
6
CONTINUOUS
10
1.89618
20
0.798365
11
1.89913
21
0.799156
0
LINE
8
BLACK
6
CONTINUOUS
10
1.89913
20
0.799156
11
1.92413
21
0.799156
0
LINE
8
BLACK
6
CONTINUOUS
10
1.92413
20
0.799156
11
1.8962
21
0.81512
0
LINE
8
BLACK
6
CONTINUOUS
10
1.8962
20
0.81512
11
1.89619
21
0.81513
0
LINE
8
BLACK
6
CONTINUOUS
10
1.89619
20
0.81513
11
1.89618
21
0.815133
0
LINE
8
BLACK
6
CONTINUOUS
10
1.89618
20
0.815133
11
1.8951
21
0.816205
0
LINE
8
BLACK
6
CONTINUOUS
10
1.8951
20
0.816205
11
1.89403
21
0.817272
0
LINE
8
BLACK
6
CONTINUOUS
10
1.89403
20
0.817272
11
1.89402
21
0.817285
0
LINE
8
BLACK
6
CONTINUOUS
10
1.89402
20
0.817285
11
1.89401
21
0.817295
0
LINE
8
BLACK
6
CONTINUOUS
10
1.89401
20
0.817295
11
1.89362
21
0.818755
0
LINE
8
BLACK
6
CONTINUOUS
10
1.89362
20
0.818755
11
1.89322
21
0.820221
0
LINE
8
BLACK
6
CONTINUOUS
10
1.89322
20
0.820221
11
1.89323
21
0.820234
0
LINE
8
BLACK
6
CONTINUOUS
10
1.89323
20
0.820234
11
1.89322
21
0.820247
0
LINE
8
BLACK
6
CONTINUOUS
10
1.89322
20
0.820247
11
1.89362
21
0.821712
0
LINE
8
BLACK
6
CONTINUOUS
10
1.89362
20
0.821712
11
1.894
21
0.823177
0
LINE
8
BLACK
6
CONTINUOUS
10
1.894
20
0.823177
11
1.89401
21
0.823187
0
LINE
8
BLACK
6
CONTINUOUS
10
1.89401
20
0.823187
11
1.89401
21
0.8232
0
LINE
8
BLACK
6
CONTINUOUS
10
1.89401
20
0.8232
11
1.89509
21
0.824272
0
LINE
8
BLACK
6
CONTINUOUS
10
1.89509
20
0.824272
11
1.89615
21
0.825349
0
LINE
8
BLACK
6
CONTINUOUS
10
1.89615
20
0.825349
11
1.89617
21
0.825352
0
LINE
8
BLACK
6
CONTINUOUS
10
1.89617
20
0.825352
11
1.89618
21
0.825362
0
LINE
8
BLACK
6
CONTINUOUS
10
1.89618
20
0.825362
11
1.89764
21
0.825753
0
LINE
8
BLACK
6
CONTINUOUS
10
1.89764
20
0.825753
11
1.8991
21
0.826153
0
LINE
8
BLACK
6
CONTINUOUS
10
1.8991
20
0.826153
11
1.89912
21
0.826149
0
LINE
8
BLACK
6
CONTINUOUS
10
1.89912
20
0.826149
11
1.89913
21
0.826153
0
LINE
8
BLACK
6
CONTINUOUS
10
1.89913
20
0.826153
11
1.94637
21
0.826153
0
LINE
8
BLACK
6
CONTINUOUS
10
1.94637
20
0.826153
11
1.94933
21
0.825362
0
LINE
8
BLACK
6
CONTINUOUS
10
0.0868287
20
0.839089
11
0.0875571
21
0.839101
0
LINE
8
BLACK
6
CONTINUOUS
10
0.0875571
20
0.839101
11
0.0965559
21
0.836851
0
LINE
8
BLACK
6
CONTINUOUS
10
0.0965559
20
0.836851
11
0.097126
21
0.836535
0
LINE
8
BLACK
6
CONTINUOUS
10
0.097126
20
0.836535
11
0.0977647
21
0.836404
0
LINE
8
BLACK
6
CONTINUOUS
10
0.0977647
20
0.836404
11
0.102264
21
0.834154
0
LINE
8
BLACK
6
CONTINUOUS
10
0.102264
20
0.834154
11
0.102976
21
0.833524
0
LINE
8
BLACK
6
CONTINUOUS
10
0.102976
20
0.833524
11
0.103799
21
0.833048
0
LINE
8
BLACK
6
CONTINUOUS
10
0.103799
20
0.833048
11
0.108298
21
0.828549
0
LINE
8
BLACK
6
CONTINUOUS
10
0.108298
20
0.828549
11
0.108977
21
0.827373
0
LINE
8
BLACK
6
CONTINUOUS
10
0.108977
20
0.827373
11
0.109725
21
0.82624
0
LINE
8
BLACK
6
CONTINUOUS
10
0.109725
20
0.82624
11
0.111975
21
0.819491
0
LINE
8
BLACK
6
CONTINUOUS
10
0.111975
20
0.819491
11
0.112032
21
0.818542
0
LINE
8
BLACK
6
CONTINUOUS
10
0.112032
20
0.818542
11
0.112278
21
0.817624
0
LINE
8
BLACK
6
CONTINUOUS
10
0.112278
20
0.817624
11
0.112278
21
0.813124
0
LINE
8
BLACK
6
CONTINUOUS
10
0.112278
20
0.813124
11
0.112032
21
0.812206
0
LINE
8
BLACK
6
CONTINUOUS
10
0.112032
20
0.812206
11
0.111975
21
0.811257
0
LINE
8
BLACK
6
CONTINUOUS
10
0.111975
20
0.811257
11
0.109725
21
0.804508
0
LINE
8
BLACK
6
CONTINUOUS
10
0.109725
20
0.804508
11
0.108977
21
0.803375
0
LINE
8
BLACK
6
CONTINUOUS
10
0.108977
20
0.803375
11
0.108298
21
0.802199
0
LINE
8
BLACK
6
CONTINUOUS
10
0.108298
20
0.802199
11
0.106049
21
0.79995
0
LINE
8
BLACK
6
CONTINUOUS
10
0.106049
20
0.79995
11
0.103401
21
0.798421
0
LINE
8
BLACK
6
CONTINUOUS
10
0.103401
20
0.798421
11
0.100344
21
0.798421
0
LINE
8
BLACK
6
CONTINUOUS
10
0.100344
20
0.798421
11
0.097697
21
0.79995
0
LINE
8
BLACK
6
CONTINUOUS
10
0.097697
20
0.79995
11
0.0961686
21
0.802597
0
LINE
8
BLACK
6
CONTINUOUS
10
0.0961686
20
0.802597
11
0.0961686
21
0.805654
0
LINE
8
BLACK
6
CONTINUOUS
10
0.0961686
20
0.805654
11
0.097697
21
0.808301
0
LINE
8
BLACK
6
CONTINUOUS
10
0.097697
20
0.808301
11
0.098961
21
0.809565
0
LINE
8
BLACK
6
CONTINUOUS
10
0.098961
20
0.809565
11
0.100467
21
0.814083
0
LINE
8
BLACK
6
CONTINUOUS
10
0.100467
20
0.814083
11
0.100467
21
0.816665
0
LINE
8
BLACK
6
CONTINUOUS
10
0.100467
20
0.816665
11
0.098961
21
0.821183
0
LINE
8
BLACK
6
CONTINUOUS
10
0.098961
20
0.821183
11
0.096125
21
0.824019
0
LINE
8
BLACK
6
CONTINUOUS
10
0.096125
20
0.824019
11
0.0930624
21
0.82555
0
LINE
8
BLACK
6
CONTINUOUS
10
0.0930624
20
0.82555
11
0.0853979
21
0.827466
0
LINE
8
BLACK
6
CONTINUOUS
10
0.0853979
20
0.827466
11
0.0801027
21
0.827466
0
LINE
8
BLACK
6
CONTINUOUS
10
0.0801027
20
0.827466
11
0.0724381
21
0.82555
0
LINE
8
BLACK
6
CONTINUOUS
10
0.0724381
20
0.82555
11
0.0693756
21
0.824019
0
LINE
8
BLACK
6
CONTINUOUS
10
0.0693756
20
0.824019
11
0.0665395
21
0.821183
0
LINE
8
BLACK
6
CONTINUOUS
10
0.0665395
20
0.821183
11
0.0650337
21
0.816665
0
LINE
8
BLACK
6
CONTINUOUS
10
0.0650337
20
0.816665
11
0.0650337
21
0.814083
0
LINE
8
BLACK
6
CONTINUOUS
10
0.0650337
20
0.814083
11
0.0665395
21
0.809565
0
LINE
8
BLACK
6
CONTINUOUS
10
0.0665395
20
0.809565
11
0.0678035
21
0.808301
0
LINE
8
BLACK
6
CONTINUOUS
10
0.0678035
20
0.808301
11
0.069332
21
0.805654
0
LINE
8
BLACK
6
CONTINUOUS
10
0.069332
20
0.805654
11
0.0693319
21
0.802597
0
LINE
8
BLACK
6
CONTINUOUS
10
0.0693319
20
0.802597
11
0.0678034
21
0.79995
0
LINE
8
BLACK
6
CONTINUOUS
10
0.0678034
20
0.79995
11
0.0651561
21
0.798421
0
LINE
8
BLACK
6
CONTINUOUS
10
0.0651561
20
0.798421
11
0.0620991
21
0.798421
0
LINE
8
BLACK
6
CONTINUOUS
10
0.0620991
20
0.798421
11
0.0594518
21
0.79995
0
LINE
8
BLACK
6
CONTINUOUS
10
0.0594518
20
0.79995
11
0.0572021
21
0.802199
0
LINE
8
BLACK
6
CONTINUOUS
10
0.0572021
20
0.802199
11
0.0565235
21
0.803375
0
LINE
8
BLACK
6
CONTINUOUS
10
0.0565235
20
0.803375
11
0.0557755
21
0.804508
0
LINE
8
BLACK
6
CONTINUOUS
10
0.0557755
20
0.804508
11
0.0535258
21
0.811257
0
LINE
8
BLACK
6
CONTINUOUS
10
0.0535258
20
0.811257
11
0.0534688
21
0.812206
0
LINE
8
BLACK
6
CONTINUOUS
10
0.0534688
20
0.812206
11
0.0532227
21
0.813124
0
LINE
8
BLACK
6
CONTINUOUS
10
0.0532227
20
0.813124
11
0.0532227
21
0.817624
0
LINE
8
BLACK
6
CONTINUOUS
10
0.0532227
20
0.817624
11
0.0534688
21
0.818542
0
LINE
8
BLACK
6
CONTINUOUS
10
0.0534688
20
0.818542
11
0.0535258
21
0.819491
0
LINE
8
BLACK
6
CONTINUOUS
10
0.0535258
20
0.819491
11
0.0557755
21
0.82624
0
LINE
8
BLACK
6
CONTINUOUS
10
0.0557755
20
0.82624
11
0.0565235
21
0.827373
0
LINE
8
BLACK
6
CONTINUOUS
10
0.0565235
20
0.827373
11
0.0572021
21
0.828549
0
LINE
8
BLACK
6
CONTINUOUS
10
0.0572021
20
0.828549
11
0.0617015
21
0.833048
0
LINE
8
BLACK
6
CONTINUOUS
10
0.0617015
20
0.833048
11
0.0625249
21
0.833524
0
LINE
8
BLACK
6
CONTINUOUS
10
0.0625249
20
0.833524
11
0.0632363
21
0.834154
0
LINE
8
BLACK
6
CONTINUOUS
10
0.0632363
20
0.834154
11
0.0677358
21
0.836404
0
LINE
8
BLACK
6
CONTINUOUS
10
0.0677358
20
0.836404
11
0.0683745
21
0.836535
0
LINE
8
BLACK
6
CONTINUOUS
10
0.0683745
20
0.836535
11
0.0689445
21
0.836851
0
LINE
8
BLACK
6
CONTINUOUS
10
0.0689445
20
0.836851
11
0.0779434
21
0.839101
0
LINE
8
BLACK
6
CONTINUOUS
10
0.0779434
20
0.839101
11
0.0786718
21
0.839089
0
LINE
8
BLACK
6
CONTINUOUS
10
0.0786718
20
0.839089
11
0.0793757
21
0.839277
0
LINE
8
BLACK
6
CONTINUOUS
10
0.0793757
20
0.839277
11
0.0861248
21
0.839277
0
LINE
8
BLACK
6
CONTINUOUS
10
0.0861248
20
0.839277
11
0.0868287
21
0.839089
0
LINE
8
BLACK
6
CONTINUOUS
10
0.169078
20
0.849212
11
0.169807
21
0.849225
0
LINE
8
BLACK
6
CONTINUOUS
10
0.169807
20
0.849225
11
0.178806
21
0.846975
0
LINE
8
BLACK
6
CONTINUOUS
10
0.178806
20
0.846975
11
0.179376
21
0.846659
0
LINE
8
BLACK
6
CONTINUOUS
10
0.179376
20
0.846659
11
0.180014
21
0.846528
0
LINE
8
BLACK
6
CONTINUOUS
10
0.180014
20
0.846528
11
0.184514
21
0.844278
0
LINE
8
BLACK
6
CONTINUOUS
10
0.184514
20
0.844278
11
0.185225
21
0.843647
0
LINE
8
BLACK
6
CONTINUOUS
10
0.185225
20
0.843647
11
0.186049
21
0.843172
0
LINE
8
BLACK
6
CONTINUOUS
10
0.186049
20
0.843172
11
0.188298
21
0.840922
0
LINE
8
BLACK
6
CONTINUOUS
10
0.188298
20
0.840922
11
0.188774
21
0.840099
0
LINE
8
BLACK
6
CONTINUOUS
10
0.188774
20
0.840099
11
0.189405
21
0.839387
0
LINE
8
BLACK
6
CONTINUOUS
10
0.189405
20
0.839387
11
0.191654
21
0.834888
0
LINE
8
BLACK
6
CONTINUOUS
10
0.191654
20
0.834888
11
0.191926
21
0.833558
0
LINE
8
BLACK
6
CONTINUOUS
10
0.191926
20
0.833558
11
0.192278
21
0.832247
0
LINE
8
BLACK
6
CONTINUOUS
10
0.192278
20
0.832247
11
0.192278
21
0.827747
0
LINE
8
BLACK
6
CONTINUOUS
10
0.192278
20
0.827747
11
0.191927
21
0.826436
0
LINE
8
BLACK
6
CONTINUOUS
10
0.191927
20
0.826436
11
0.191654
21
0.825106
0
LINE
8
BLACK
6
CONTINUOUS
10
0.191654
20
0.825106
11
0.189405
21
0.820607
0
LINE
8
BLACK
6
CONTINUOUS
10
0.189405
20
0.820607
11
0.188774
21
0.819896
0
LINE
8
BLACK
6
CONTINUOUS
10
0.188774
20
0.819896
11
0.188298
21
0.819072
0
LINE
8
BLACK
6
CONTINUOUS
10
0.188298
20
0.819072
11
0.186049
21
0.816822
0
LINE
8
BLACK
6
CONTINUOUS
10
0.186049
20
0.816822
11
0.185225
21
0.816347
0
LINE
8
BLACK
6
CONTINUOUS
10
0.185225
20
0.816347
11
0.184514
21
0.815716
0
LINE
8
BLACK
6
CONTINUOUS
10
0.184514
20
0.815716
11
0.180014
21
0.813467
0
LINE
8
BLACK
6
CONTINUOUS
10
0.180014
20
0.813467
11
0.179376
21
0.813336
0
LINE
8
BLACK
6
CONTINUOUS
10
0.179376
20
0.813336
11
0.178806
21
0.813019
0
LINE
8
BLACK
6
CONTINUOUS
10
0.178806
20
0.813019
11
0.169807
21
0.81077
0
LINE
8
BLACK
6
CONTINUOUS
10
0.169807
20
0.81077
11
0.169078
21
0.810782
0
LINE
8
BLACK
6
CONTINUOUS
10
0.169078
20
0.810782
11
0.168375
21
0.810593
0
LINE
8
BLACK
6
CONTINUOUS
10
0.168375
20
0.810593
11
0.157126
21
0.810593
0
LINE
8
BLACK
6
CONTINUOUS
10
0.157126
20
0.810593
11
0.156422
21
0.810782
0
LINE
8
BLACK
6
CONTINUOUS
10
0.156422
20
0.810782
11
0.155694
21
0.81077
0
LINE
8
BLACK
6
CONTINUOUS
10
0.155694
20
0.81077
11
0.146695
21
0.813019
0
LINE
8
BLACK
6
CONTINUOUS
10
0.146695
20
0.813019
11
0.146125
21
0.813336
0
LINE
8
BLACK
6
CONTINUOUS
10
0.146125
20
0.813336
11
0.145486
21
0.813467
0
LINE
8
BLACK
6
CONTINUOUS
10
0.145486
20
0.813467
11
0.140987
21
0.815716
0
LINE
8
BLACK
6
CONTINUOUS
10
0.140987
20
0.815716
11
0.140275
21
0.816347
0
LINE
8
BLACK
6
CONTINUOUS
10
0.140275
20
0.816347
11
0.139452
21
0.816823
0
LINE
8
BLACK
6
CONTINUOUS
10
0.139452
20
0.816823
11
0.137202
21
0.819072
0
LINE
8
BLACK
6
CONTINUOUS
10
0.137202
20
0.819072
11
0.136727
21
0.819896
0
LINE
8
BLACK
6
CONTINUOUS
10
0.136727
20
0.819896
11
0.136096
21
0.820607
0
LINE
8
BLACK
6
CONTINUOUS
10
0.136096
20
0.820607
11
0.133846
21
0.825106
0
LINE
8
BLACK
6
CONTINUOUS
10
0.133846
20
0.825106
11
0.133574
21
0.826436
0
LINE
8
BLACK
6
CONTINUOUS
10
0.133574
20
0.826436
11
0.133223
21
0.827747
0
LINE
8
BLACK
6
CONTINUOUS
10
0.133223
20
0.827747
11
0.133223
21
0.832247
0
LINE
8
BLACK
6
CONTINUOUS
10
0.133223
20
0.832247
11
0.133574
21
0.833558
0
LINE
8
BLACK
6
CONTINUOUS
10
0.133574
20
0.833558
11
0.133846
21
0.834888
0
LINE
8
BLACK
6
CONTINUOUS
10
0.133846
20
0.834888
11
0.136096
21
0.839387
0
LINE
8
BLACK
6
CONTINUOUS
10
0.136096
20
0.839387
11
0.136727
21
0.840099
0
LINE
8
BLACK
6
CONTINUOUS
10
0.136727
20
0.840099
11
0.137202
21
0.840922
0
LINE
8
BLACK
6
CONTINUOUS
10
0.137202
20
0.840922
11
0.139452
21
0.843172
0
LINE
8
BLACK
6
CONTINUOUS
10
0.139452
20
0.843172
11
0.140275
21
0.843647
0
LINE
8
BLACK
6
CONTINUOUS
10
0.140275
20
0.843647
11
0.140987
21
0.844278
0
LINE
8
BLACK
6
CONTINUOUS
10
0.140987
20
0.844278
11
0.145486
21
0.846528
0
LINE
8
BLACK
6
CONTINUOUS
10
0.145486
20
0.846528
11
0.146125
21
0.846659
0
LINE
8
BLACK
6
CONTINUOUS
10
0.146125
20
0.846659
11
0.146695
21
0.846975
0
LINE
8
BLACK
6
CONTINUOUS
10
0.146695
20
0.846975
11
0.155694
21
0.849225
0
LINE
8
BLACK
6
CONTINUOUS
10
0.155694
20
0.849225
11
0.156422
21
0.849212
0
LINE
8
BLACK
6
CONTINUOUS
10
0.156422
20
0.849212
11
0.157126
21
0.849401
0
LINE
8
BLACK
6
CONTINUOUS
10
0.157126
20
0.849401
11
0.168375
21
0.849401
0
LINE
8
BLACK
6
CONTINUOUS
10
0.168375
20
0.849401
11
0.169078
21
0.849212
0
LINE
8
BLACK
6
CONTINUOUS
10
0.157853
20
0.83759
11
0.150188
21
0.835674
0
LINE
8
BLACK
6
CONTINUOUS
10
0.150188
20
0.835674
11
0.147126
21
0.834143
0
LINE
8
BLACK
6
CONTINUOUS
10
0.147126
20
0.834143
11
0.146231
21
0.833248
0
LINE
8
BLACK
6
CONTINUOUS
10
0.146231
20
0.833248
11
0.145034
21
0.830853
0
LINE
8
BLACK
6
CONTINUOUS
10
0.145034
20
0.830853
11
0.145034
21
0.829142
0
LINE
8
BLACK
6
CONTINUOUS
10
0.145034
20
0.829142
11
0.146231
21
0.826746
0
LINE
8
BLACK
6
CONTINUOUS
10
0.146231
20
0.826746
11
0.147126
21
0.825852
0
LINE
8
BLACK
6
CONTINUOUS
10
0.147126
20
0.825852
11
0.150188
21
0.824321
0
LINE
8
BLACK
6
CONTINUOUS
10
0.150188
20
0.824321
11
0.157853
21
0.822404
0
LINE
8
BLACK
6
CONTINUOUS
10
0.157853
20
0.822404
11
0.167648
21
0.822404
0
LINE
8
BLACK
6
CONTINUOUS
10
0.167648
20
0.822404
11
0.175312
21
0.824321
0
LINE
8
BLACK
6
CONTINUOUS
10
0.175312
20
0.824321
11
0.178375
21
0.825852
0
LINE
8
BLACK
6
CONTINUOUS
10
0.178375
20
0.825852
11
0.179269
21
0.826746
0
LINE
8
BLACK
6
CONTINUOUS
10
0.179269
20
0.826746
11
0.180467
21
0.829142
0
LINE
8
BLACK
6
CONTINUOUS
10
0.180467
20
0.829142
11
0.180467
21
0.830853
0
LINE
8
BLACK
6
CONTINUOUS
10
0.180467
20
0.830853
11
0.179269
21
0.833248
0
LINE
8
BLACK
6
CONTINUOUS
10
0.179269
20
0.833248
11
0.178375
21
0.834143
0
LINE
8
BLACK
6
CONTINUOUS
10
0.178375
20
0.834143
11
0.175312
21
0.835674
0
LINE
8
BLACK
6
CONTINUOUS
10
0.175312
20
0.835674
11
0.167648
21
0.83759
0
LINE
8
BLACK
6
CONTINUOUS
10
0.167648
20
0.83759
11
0.157853
21
0.83759
0
LINE
8
BLACK
6
CONTINUOUS
10
1.95029
20
0.87191
11
1.95197
21
0.869359
0
LINE
8
BLACK
6
CONTINUOUS
10
1.95197
20
0.869359
11
1.95216
21
0.866308
0
LINE
8
BLACK
6
CONTINUOUS
10
1.95216
20
0.866308
11
1.95079
21
0.863573
0
LINE
8
BLACK
6
CONTINUOUS
10
1.95079
20
0.863573
11
1.94824
21
0.861889
0
LINE
8
BLACK
6
CONTINUOUS
10
1.94824
20
0.861889
11
1.93878
21
0.858736
0
LINE
8
BLACK
6
CONTINUOUS
10
1.93878
20
0.858736
11
1.93878
21
0.844751
0
LINE
8
BLACK
6
CONTINUOUS
10
1.93878
20
0.844751
11
1.94824
21
0.841598
0
LINE
8
BLACK
6
CONTINUOUS
10
1.94824
20
0.841598
11
1.95079
21
0.839914
0
LINE
8
BLACK
6
CONTINUOUS
10
1.95079
20
0.839914
11
1.95216
21
0.837179
0
LINE
8
BLACK
6
CONTINUOUS
10
1.95216
20
0.837179
11
1.95197
21
0.834128
0
LINE
8
BLACK
6
CONTINUOUS
10
1.95197
20
0.834128
11
1.95029
21
0.831577
0
LINE
8
BLACK
6
CONTINUOUS
10
1.95029
20
0.831577
11
1.94756
21
0.83021
0
LINE
8
BLACK
6
CONTINUOUS
10
1.94756
20
0.83021
11
1.9445
21
0.830393
0
LINE
8
BLACK
6
CONTINUOUS
10
1.9445
20
0.830393
11
1.89726
21
0.846141
0
LINE
8
BLACK
6
CONTINUOUS
10
1.89726
20
0.846141
11
1.89627
21
0.846795
0
LINE
8
BLACK
6
CONTINUOUS
10
1.89627
20
0.846795
11
1.89521
21
0.847325
0
LINE
8
BLACK
6
CONTINUOUS
10
1.89521
20
0.847325
11
1.89501
21
0.847626
0
LINE
8
BLACK
6
CONTINUOUS
10
1.89501
20
0.847626
11
1.89471
21
0.847825
0
LINE
8
BLACK
6
CONTINUOUS
10
1.89471
20
0.847825
11
1.89418
21
0.848886
0
LINE
8
BLACK
6
CONTINUOUS
10
1.89418
20
0.848886
11
1.89353
21
0.849876
0
LINE
8
BLACK
6
CONTINUOUS
10
1.89353
20
0.849876
11
1.8935
21
0.850236
0
LINE
8
BLACK
6
CONTINUOUS
10
1.8935
20
0.850236
11
1.89334
21
0.85056
0
LINE
8
BLACK
6
CONTINUOUS
10
1.89334
20
0.85056
11
1.89341
21
0.851744
0
LINE
8
BLACK
6
CONTINUOUS
10
1.89341
20
0.851744
11
1.89334
21
0.852927
0
LINE
8
BLACK
6
CONTINUOUS
10
1.89334
20
0.852927
11
1.8935
21
0.853251
0
LINE
8
BLACK
6
CONTINUOUS
10
1.8935
20
0.853251
11
1.89353
21
0.853611
0
LINE
8
BLACK
6
CONTINUOUS
10
1.89353
20
0.853611
11
1.89418
21
0.854601
0
LINE
8
BLACK
6
CONTINUOUS
10
1.89418
20
0.854601
11
1.89471
21
0.855662
0
LINE
8
BLACK
6
CONTINUOUS
10
1.89471
20
0.855662
11
1.89501
21
0.855861
0
LINE
8
BLACK
6
CONTINUOUS
10
1.89501
20
0.855861
11
1.89521
21
0.856162
0
LINE
8
BLACK
6
CONTINUOUS
10
1.89521
20
0.856162
11
1.89627
21
0.856692
0
LINE
8
BLACK
6
CONTINUOUS
10
1.89627
20
0.856692
11
1.89726
21
0.857346
0
LINE
8
BLACK
6
CONTINUOUS
10
1.89726
20
0.857346
11
1.9445
21
0.873094
0
LINE
8
BLACK
6
CONTINUOUS
10
1.9445
20
0.873094
11
1.94756
21
0.873277
0
LINE
8
BLACK
6
CONTINUOUS
10
1.94756
20
0.873277
11
1.95029
21
0.87191
0
LINE
8
BLACK
6
CONTINUOUS
10
1.9178
20
0.851744
11
1.92697
21
0.848688
0
LINE
8
BLACK
6
CONTINUOUS
10
1.92697
20
0.848688
11
1.92697
21
0.854799
0
LINE
8
BLACK
6
CONTINUOUS
10
1.92697
20
0.854799
11
1.9178
21
0.851744
0
LINE
8
BLACK
6
CONTINUOUS
10
0.11029
20
0.882785
11
0.111975
21
0.880234
0
LINE
8
BLACK
6
CONTINUOUS
10
0.111975
20
0.880234
11
0.112158
21
0.877182
0
LINE
8
BLACK
6
CONTINUOUS
10
0.112158
20
0.877182
11
0.110791
21
0.874448
0
LINE
8
BLACK
6
CONTINUOUS
10
0.110791
20
0.874448
11
0.10824
21
0.872764
0
LINE
8
BLACK
6
CONTINUOUS
10
0.10824
20
0.872764
11
0.0987795
21
0.86961
0
LINE
8
BLACK
6
CONTINUOUS
10
0.0987795
20
0.86961
11
0.0987795
21
0.855626
0
LINE
8
BLACK
6
CONTINUOUS
10
0.0987795
20
0.855626
11
0.10824
21
0.852473
0
LINE
8
BLACK
6
CONTINUOUS
10
0.10824
20
0.852473
11
0.110791
21
0.850788
0
LINE
8
BLACK
6
CONTINUOUS
10
0.110791
20
0.850788
11
0.112158
21
0.848054
0
LINE
8
BLACK
6
CONTINUOUS
10
0.112158
20
0.848054
11
0.111975
21
0.845003
0
LINE
8
BLACK
6
CONTINUOUS
10
0.111975
20
0.845003
11
0.11029
21
0.842452
0
LINE
8
BLACK
6
CONTINUOUS
10
0.11029
20
0.842452
11
0.107556
21
0.841084
0
LINE
8
BLACK
6
CONTINUOUS
10
0.107556
20
0.841084
11
0.104505
21
0.841268
0
LINE
8
BLACK
6
CONTINUOUS
10
0.104505
20
0.841268
11
0.0572607
21
0.857016
0
LINE
8
BLACK
6
CONTINUOUS
10
0.0572607
20
0.857016
11
0.056271
21
0.857669
0
LINE
8
BLACK
6
CONTINUOUS
10
0.056271
20
0.857669
11
0.0552101
21
0.8582
0
LINE
8
BLACK
6
CONTINUOUS
10
0.0552101
20
0.8582
11
0.0550111
21
0.858501
0
LINE
8
BLACK
6
CONTINUOUS
10
0.0550111
20
0.858501
11
0.0547097
21
0.8587
0
LINE
8
BLACK
6
CONTINUOUS
10
0.0547097
20
0.8587
11
0.0541793
21
0.859761
0
LINE
8
BLACK
6
CONTINUOUS
10
0.0541793
20
0.859761
11
0.0535258
21
0.860751
0
LINE
8
BLACK
6
CONTINUOUS
10
0.0535258
20
0.860751
11
0.0535041
21
0.861111
0
LINE
8
BLACK
6
CONTINUOUS
10
0.0535041
20
0.861111
11
0.0533426
21
0.861434
0
LINE
8
BLACK
6
CONTINUOUS
10
0.0533426
20
0.861434
11
0.0534137
21
0.862618
0
LINE
8
BLACK
6
CONTINUOUS
10
0.0534137
20
0.862618
11
0.0533426
21
0.863802
0
LINE
8
BLACK
6
CONTINUOUS
10
0.0533426
20
0.863802
11
0.0535041
21
0.864125
0
LINE
8
BLACK
6
CONTINUOUS
10
0.0535041
20
0.864125
11
0.0535258
21
0.864486
0
LINE
8
BLACK
6
CONTINUOUS
10
0.0535258
20
0.864486
11
0.0541793
21
0.865475
0
LINE
8
BLACK
6
CONTINUOUS
10
0.0541793
20
0.865475
11
0.0547097
21
0.866536
0
LINE
8
BLACK
6
CONTINUOUS
10
0.0547097
20
0.866536
11
0.0550111
21
0.866735
0
LINE
8
BLACK
6
CONTINUOUS
10
0.0550111
20
0.866735
11
0.0552101
21
0.867037
0
LINE
8
BLACK
6
CONTINUOUS
10
0.0552101
20
0.867037
11
0.056271
21
0.867567
0
LINE
8
BLACK
6
CONTINUOUS
10
0.056271
20
0.867567
11
0.0572607
21
0.868221
0
LINE
8
BLACK
6
CONTINUOUS
10
0.0572607
20
0.868221
11
0.104505
21
0.883969
0
LINE
8
BLACK
6
CONTINUOUS
10
0.104505
20
0.883969
11
0.107556
21
0.884152
0
LINE
8
BLACK
6
CONTINUOUS
10
0.107556
20
0.884152
11
0.11029
21
0.882785
0
LINE
8
BLACK
6
CONTINUOUS
10
0.0778031
20
0.862618
11
0.0869685
21
0.859563
0
LINE
8
BLACK
6
CONTINUOUS
10
0.0869685
20
0.859563
11
0.0869685
21
0.865673
0
LINE
8
BLACK
6
CONTINUOUS
10
0.0869685
20
0.865673
11
0.0778031
21
0.862618
0
LINE
8
BLACK
6
CONTINUOUS
10
0.187123
20
0.896444
11
0.187901
21
0.896444
0
LINE
8
BLACK
6
CONTINUOUS
10
0.187901
20
0.896444
11
0.188574
21
0.896055
0
LINE
8
BLACK
6
CONTINUOUS
10
0.188574
20
0.896055
11
0.189325
21
0.895854
0
LINE
8
BLACK
6
CONTINUOUS
10
0.189325
20
0.895854
11
0.189875
21
0.895304
0
LINE
8
BLACK
6
CONTINUOUS
10
0.189875
20
0.895304
11
0.190548
21
0.894915
0
LINE
8
BLACK
6
CONTINUOUS
10
0.190548
20
0.894915
11
0.190937
21
0.894242
0
LINE
8
BLACK
6
CONTINUOUS
10
0.190937
20
0.894242
11
0.191487
21
0.893692
0
LINE
8
BLACK
6
CONTINUOUS
10
0.191487
20
0.893692
11
0.191688
21
0.892941
0
LINE
8
BLACK
6
CONTINUOUS
10
0.191688
20
0.892941
11
0.192077
21
0.892268
0
LINE
8
BLACK
6
CONTINUOUS
10
0.192077
20
0.892268
11
0.192077
21
0.891491
0
LINE
8
BLACK
6
CONTINUOUS
10
0.192077
20
0.891491
11
0.192278
21
0.89074
0
LINE
8
BLACK
6
CONTINUOUS
10
0.192278
20
0.89074
11
0.192278
21
0.861493
0
LINE
8
BLACK
6
CONTINUOUS
10
0.192278
20
0.861493
11
0.191487
21
0.85854
0
LINE
8
BLACK
6
CONTINUOUS
10
0.191487
20
0.85854
11
0.189325
21
0.856379
0
LINE
8
BLACK
6
CONTINUOUS
10
0.189325
20
0.856379
11
0.186372
21
0.855588
0
LINE
8
BLACK
6
CONTINUOUS
10
0.186372
20
0.855588
11
0.18342
21
0.856379
0
LINE
8
BLACK
6
CONTINUOUS
10
0.18342
20
0.856379
11
0.181258
21
0.85854
0
LINE
8
BLACK
6
CONTINUOUS
10
0.181258
20
0.85854
11
0.180467
21
0.861493
0
LINE
8
BLACK
6
CONTINUOUS
10
0.180467
20
0.861493
11
0.180467
21
0.876482
0
LINE
8
BLACK
6
CONTINUOUS
10
0.180467
20
0.876482
11
0.163551
21
0.859567
0
LINE
8
BLACK
6
CONTINUOUS
10
0.163551
20
0.859567
11
0.162376
21
0.858888
0
LINE
8
BLACK
6
CONTINUOUS
10
0.162376
20
0.858888
11
0.161243
21
0.858141
0
LINE
8
BLACK
6
CONTINUOUS
10
0.161243
20
0.858141
11
0.154494
21
0.855891
0
LINE
8
BLACK
6
CONTINUOUS
10
0.154494
20
0.855891
11
0.153545
21
0.855834
0
LINE
8
BLACK
6
CONTINUOUS
10
0.153545
20
0.855834
11
0.152627
21
0.855588
0
LINE
8
BLACK
6
CONTINUOUS
10
0.152627
20
0.855588
11
0.148127
21
0.855588
0
LINE
8
BLACK
6
CONTINUOUS
10
0.148127
20
0.855588
11
0.146816
21
0.855939
0
LINE
8
BLACK
6
CONTINUOUS
10
0.146816
20
0.855939
11
0.145486
21
0.856211
0
LINE
8
BLACK
6
CONTINUOUS
10
0.145486
20
0.856211
11
0.140987
21
0.858461
0
LINE
8
BLACK
6
CONTINUOUS
10
0.140987
20
0.858461
11
0.140275
21
0.859092
0
LINE
8
BLACK
6
CONTINUOUS
10
0.140275
20
0.859092
11
0.139452
21
0.859567
0
LINE
8
BLACK
6
CONTINUOUS
10
0.139452
20
0.859567
11
0.137202
21
0.861817
0
LINE
8
BLACK
6
CONTINUOUS
10
0.137202
20
0.861817
11
0.136727
21
0.86264
0
LINE
8
BLACK
6
CONTINUOUS
10
0.136727
20
0.86264
11
0.136096
21
0.863352
0
LINE
8
BLACK
6
CONTINUOUS
10
0.136096
20
0.863352
11
0.133846
21
0.867851
0
LINE
8
BLACK
6
CONTINUOUS
10
0.133846
20
0.867851
11
0.133574
21
0.869181
0
LINE
8
BLACK
6
CONTINUOUS
10
0.133574
20
0.869181
11
0.133223
21
0.870492
0
LINE
8
BLACK
6
CONTINUOUS
10
0.133223
20
0.870492
11
0.133223
21
0.881741
0
LINE
8
BLACK
6
CONTINUOUS
10
0.133223
20
0.881741
11
0.133574
21
0.883052
0
LINE
8
BLACK
6
CONTINUOUS
10
0.133574
20
0.883052
11
0.133846
21
0.884382
0
LINE
8
BLACK
6
CONTINUOUS
10
0.133846
20
0.884382
11
0.136096
21
0.888881
0
LINE
8
BLACK
6
CONTINUOUS
10
0.136096
20
0.888881
11
0.136727
21
0.889593
0
LINE
8
BLACK
6
CONTINUOUS
10
0.136727
20
0.889593
11
0.137202
21
0.890416
0
LINE
8
BLACK
6
CONTINUOUS
10
0.137202
20
0.890416
11
0.139452
21
0.892666
0
LINE
8
BLACK
6
CONTINUOUS
10
0.139452
20
0.892666
11
0.142099
21
0.894194
0
LINE
8
BLACK
6
CONTINUOUS
10
0.142099
20
0.894194
11
0.145156
21
0.894194
0
LINE
8
BLACK
6
CONTINUOUS
10
0.145156
20
0.894194
11
0.147803
21
0.892666
0
LINE
8
BLACK
6
CONTINUOUS
10
0.147803
20
0.892666
11
0.149332
21
0.890018
0
LINE
8
BLACK
6
CONTINUOUS
10
0.149332
20
0.890018
11
0.149332
21
0.886961
0
LINE
8
BLACK
6
CONTINUOUS
10
0.149332
20
0.886961
11
0.147803
21
0.884314
0
LINE
8
BLACK
6
CONTINUOUS
10
0.147803
20
0.884314
11
0.146231
21
0.882742
0
LINE
8
BLACK
6
CONTINUOUS
10
0.146231
20
0.882742
11
0.145034
21
0.880347
0
LINE
8
BLACK
6
CONTINUOUS
10
0.145034
20
0.880347
11
0.145034
21
0.871886
0
LINE
8
BLACK
6
CONTINUOUS
10
0.145034
20
0.871886
11
0.146231
21
0.869491
0
LINE
8
BLACK
6
CONTINUOUS
10
0.146231
20
0.869491
11
0.147126
21
0.868596
0
LINE
8
BLACK
6
CONTINUOUS
10
0.147126
20
0.868596
11
0.149521
21
0.867399
0
LINE
8
BLACK
6
CONTINUOUS
10
0.149521
20
0.867399
11
0.151668
21
0.867399
0
LINE
8
BLACK
6
CONTINUOUS
10
0.151668
20
0.867399
11
0.156186
21
0.868905
0
LINE
8
BLACK
6
CONTINUOUS
10
0.156186
20
0.868905
11
0.182196
21
0.894915
0
LINE
8
BLACK
6
CONTINUOUS
10
0.182196
20
0.894915
11
0.18287
21
0.895304
0
LINE
8
BLACK
6
CONTINUOUS
10
0.18287
20
0.895304
11
0.18342
21
0.895854
0
LINE
8
BLACK
6
CONTINUOUS
10
0.18342
20
0.895854
11
0.184171
21
0.896055
0
LINE
8
BLACK
6
CONTINUOUS
10
0.184171
20
0.896055
11
0.184844
21
0.896444
0
LINE
8
BLACK
6
CONTINUOUS
10
0.184844
20
0.896444
11
0.185621
21
0.896444
0
LINE
8
BLACK
6
CONTINUOUS
10
0.185621
20
0.896444
11
0.186372
21
0.896645
0
LINE
8
BLACK
6
CONTINUOUS
10
0.186372
20
0.896645
11
0.187123
21
0.896444
0
LINE
8
BLACK
6
CONTINUOUS
10
1.94933
20
0.906352
11
1.95149
21
0.90419
0
LINE
8
BLACK
6
CONTINUOUS
10
1.95149
20
0.90419
11
1.95228
21
0.901237
0
LINE
8
BLACK
6
CONTINUOUS
10
1.95228
20
0.901237
11
1.95149
21
0.898285
0
LINE
8
BLACK
6
CONTINUOUS
10
1.95149
20
0.898285
11
1.94933
21
0.896123
0
LINE
8
BLACK
6
CONTINUOUS
10
1.94933
20
0.896123
11
1.94637
21
0.895332
0
LINE
8
BLACK
6
CONTINUOUS
10
1.94637
20
0.895332
11
1.92753
21
0.895332
0
LINE
8
BLACK
6
CONTINUOUS
10
1.92753
20
0.895332
11
1.92753
21
0.885489
0
LINE
8
BLACK
6
CONTINUOUS
10
1.92753
20
0.885489
11
1.92674
21
0.882537
0
LINE
8
BLACK
6
CONTINUOUS
10
1.92674
20
0.882537
11
1.92458
21
0.880375
0
LINE
8
BLACK
6
CONTINUOUS
10
1.92458
20
0.880375
11
1.92163
21
0.879584
0
LINE
8
BLACK
6
CONTINUOUS
10
1.92163
20
0.879584
11
1.91867
21
0.880375
0
LINE
8
BLACK
6
CONTINUOUS
10
1.91867
20
0.880375
11
1.91651
21
0.882537
0
LINE
8
BLACK
6
CONTINUOUS
10
1.91651
20
0.882537
11
1.91572
21
0.885489
0
LINE
8
BLACK
6
CONTINUOUS
10
1.91572
20
0.885489
11
1.91572
21
0.895332
0
LINE
8
BLACK
6
CONTINUOUS
10
1.91572
20
0.895332
11
1.90503
21
0.895332
0
LINE
8
BLACK
6
CONTINUOUS
10
1.90503
20
0.895332
11
1.90503
21
0.87874
0
LINE
8
BLACK
6
CONTINUOUS
10
1.90503
20
0.87874
11
1.90424
21
0.875787
0
LINE
8
BLACK
6
CONTINUOUS
10
1.90424
20
0.875787
11
1.90208
21
0.873626
0
LINE
8
BLACK
6
CONTINUOUS
10
1.90208
20
0.873626
11
1.89913
21
0.872835
0
LINE
8
BLACK
6
CONTINUOUS
10
1.89913
20
0.872835
11
1.89618
21
0.873626
0
LINE
8
BLACK
6
CONTINUOUS
10
1.89618
20
0.873626
11
1.89401
21
0.875787
0
LINE
8
BLACK
6
CONTINUOUS
10
1.89401
20
0.875787
11
1.89322
21
0.87874
0
LINE
8
BLACK
6
CONTINUOUS
10
1.89322
20
0.87874
11
1.89322
21
0.901237
0
LINE
8
BLACK
6
CONTINUOUS
10
1.89322
20
0.901237
11
1.89401
21
0.90419
0
LINE
8
BLACK
6
CONTINUOUS
10
1.89401
20
0.90419
11
1.89618
21
0.906352
0
LINE
8
BLACK
6
CONTINUOUS
10
1.89618
20
0.906352
11
1.89913
21
0.907143
0
LINE
8
BLACK
6
CONTINUOUS
10
1.89913
20
0.907143
11
1.94637
21
0.907143
0
LINE
8
BLACK
6
CONTINUOUS
10
1.94637
20
0.907143
11
1.94933
21
0.906352
0
LINE
8
BLACK
6
CONTINUOUS
10
0.109325
20
0.917226
11
0.111487
21
0.915065
0
LINE
8
BLACK
6
CONTINUOUS
10
0.111487
20
0.915065
11
0.112278
21
0.912112
0
LINE
8
BLACK
6
CONTINUOUS
10
0.112278
20
0.912112
11
0.112278
21
0.907612
0
LINE
8
BLACK
6
CONTINUOUS
10
0.112278
20
0.907612
11
0.112032
21
0.906694
0
LINE
8
BLACK
6
CONTINUOUS
10
0.112032
20
0.906694
11
0.111975
21
0.905745
0
LINE
8
BLACK
6
CONTINUOUS
10
0.111975
20
0.905745
11
0.109725
21
0.898996
0
LINE
8
BLACK
6
CONTINUOUS
10
0.109725
20
0.898996
11
0.108977
21
0.897863
0
LINE
8
BLACK
6
CONTINUOUS
10
0.108977
20
0.897863
11
0.108298
21
0.896687
0
LINE
8
BLACK
6
CONTINUOUS
10
0.108298
20
0.896687
11
0.103799
21
0.892188
0
LINE
8
BLACK
6
CONTINUOUS
10
0.103799
20
0.892188
11
0.102624
21
0.891509
0
LINE
8
BLACK
6
CONTINUOUS
10
0.102624
20
0.891509
11
0.101491
21
0.890761
0
LINE
8
BLACK
6
CONTINUOUS
10
0.101491
20
0.890761
11
0.0947415
21
0.888512
0
LINE
8
BLACK
6
CONTINUOUS
10
0.0947415
20
0.888512
11
0.0937924
21
0.888455
0
LINE
8
BLACK
6
CONTINUOUS
10
0.0937924
20
0.888455
11
0.092874
21
0.888209
0
LINE
8
BLACK
6
CONTINUOUS
10
0.092874
20
0.888209
11
0.0591282
21
0.888209
0
LINE
8
BLACK
6
CONTINUOUS
10
0.0591282
20
0.888209
11
0.0561755
21
0.889
0
LINE
8
BLACK
6
CONTINUOUS
10
0.0561755
20
0.889
11
0.0540139
21
0.891161
0
LINE
8
BLACK
6
CONTINUOUS
10
0.0540139
20
0.891161
11
0.0532227
21
0.894114
0
LINE
8
BLACK
6
CONTINUOUS
10
0.0532227
20
0.894114
11
0.0540139
21
0.897067
0
LINE
8
BLACK
6
CONTINUOUS
10
0.0540139
20
0.897067
11
0.0561755
21
0.899229
0
LINE
8
BLACK
6
CONTINUOUS
10
0.0561755
20
0.899229
11
0.0591282
21
0.90002
0
LINE
8
BLACK
6
CONTINUOUS
10
0.0591282
20
0.90002
11
0.0919156
21
0.90002
0
LINE
8
BLACK
6
CONTINUOUS
10
0.0919156
20
0.90002
11
0.0964331
21
0.901525
0
LINE
8
BLACK
6
CONTINUOUS
10
0.0964331
20
0.901525
11
0.098961
21
0.904053
0
LINE
8
BLACK
6
CONTINUOUS
10
0.098961
20
0.904053
11
0.100467
21
0.908571
0
LINE
8
BLACK
6
CONTINUOUS
10
0.100467
20
0.908571
11
0.100467
21
0.912112
0
LINE
8
BLACK
6
CONTINUOUS
10
0.100467
20
0.912112
11
0.101258
21
0.915065
0
LINE
8
BLACK
6
CONTINUOUS
10
0.101258
20
0.915065
11
0.10342
21
0.917226
0
LINE
8
BLACK
6
CONTINUOUS
10
0.10342
20
0.917226
11
0.106372
21
0.918017
0
LINE
8
BLACK
6
CONTINUOUS
10
0.106372
20
0.918017
11
0.109325
21
0.917226
0
LINE
8
BLACK
6
CONTINUOUS
10
1.94933
20
0.944597
11
1.95149
21
0.942435
0
LINE
8
BLACK
6
CONTINUOUS
10
1.95149
20
0.942435
11
1.95228
21
0.939483
0
LINE
8
BLACK
6
CONTINUOUS
10
1.95228
20
0.939483
11
1.95228
21
0.916985
0
LINE
8
BLACK
6
CONTINUOUS
10
1.95228
20
0.916985
11
1.95149
21
0.914033
0
LINE
8
BLACK
6
CONTINUOUS
10
1.95149
20
0.914033
11
1.94933
21
0.911871
0
LINE
8
BLACK
6
CONTINUOUS
10
1.94933
20
0.911871
11
1.94637
21
0.91108
0
LINE
8
BLACK
6
CONTINUOUS
10
1.94637
20
0.91108
11
1.94342
21
0.911871
0
LINE
8
BLACK
6
CONTINUOUS
10
1.94342
20
0.911871
11
1.94126
21
0.914033
0
LINE
8
BLACK
6
CONTINUOUS
10
1.94126
20
0.914033
11
1.94047
21
0.916985
0
LINE
8
BLACK
6
CONTINUOUS
10
1.94047
20
0.916985
11
1.94047
21
0.933577
0
LINE
8
BLACK
6
CONTINUOUS
10
1.94047
20
0.933577
11
1.89913
21
0.933577
0
LINE
8
BLACK
6
CONTINUOUS
10
1.89913
20
0.933577
11
1.89618
21
0.934368
0
LINE
8
BLACK
6
CONTINUOUS
10
1.89618
20
0.934368
11
1.89401
21
0.93653
0
LINE
8
BLACK
6
CONTINUOUS
10
1.89401
20
0.93653
11
1.89322
21
0.939483
0
LINE
8
BLACK
6
CONTINUOUS
10
1.89322
20
0.939483
11
1.89401
21
0.942435
0
LINE
8
BLACK
6
CONTINUOUS
10
1.89401
20
0.942435
11
1.89618
21
0.944597
0
LINE
8
BLACK
6
CONTINUOUS
10
1.89618
20
0.944597
11
1.89913
21
0.945388
0
LINE
8
BLACK
6
CONTINUOUS
10
1.89913
20
0.945388
11
1.94637
21
0.945388
0
LINE
8
BLACK
6
CONTINUOUS
10
1.94637
20
0.945388
11
1.94933
21
0.944597
0
LINE
8
BLACK
6
CONTINUOUS
10
1.901
20
0.992329
11
1.94824
21
0.976581
0
LINE
8
BLACK
6
CONTINUOUS
10
1.94824
20
0.976581
11
1.94923
21
0.975928
0
LINE
8
BLACK
6
CONTINUOUS
10
1.94923
20
0.975928
11
1.95029
21
0.975397
0
LINE
8
BLACK
6
CONTINUOUS
10
1.95029
20
0.975397
11
1.95049
21
0.975096
0
LINE
8
BLACK
6
CONTINUOUS
10
1.95049
20
0.975096
11
1.95079
21
0.974897
0
LINE
8
BLACK
6
CONTINUOUS
10
1.95079
20
0.974897
11
1.95132
21
0.973836
0
LINE
8
BLACK
6
CONTINUOUS
10
1.95132
20
0.973836
11
1.95197
21
0.972846
0
LINE
8
BLACK
6
CONTINUOUS
10
1.95197
20
0.972846
11
1.952
21
0.972486
0
LINE
8
BLACK
6
CONTINUOUS
10
1.952
20
0.972486
11
1.95216
21
0.972163
0
LINE
8
BLACK
6
CONTINUOUS
10
1.95216
20
0.972163
11
1.95209
21
0.970979
0
LINE
8
BLACK
6
CONTINUOUS
10
1.95209
20
0.970979
11
1.95216
21
0.969795
0
LINE
8
BLACK
6
CONTINUOUS
10
1.95216
20
0.969795
11
1.952
21
0.969472
0
LINE
8
BLACK
6
CONTINUOUS
10
1.952
20
0.969472
11
1.95197
21
0.969111
0
LINE
8
BLACK
6
CONTINUOUS
10
1.95197
20
0.969111
11
1.95132
21
0.968121
0
LINE
8
BLACK
6
CONTINUOUS
10
1.95132
20
0.968121
11
1.95079
21
0.96706
0
LINE
8
BLACK
6
CONTINUOUS
10
1.95079
20
0.96706
11
1.95049
21
0.966861
0
LINE
8
BLACK
6
CONTINUOUS
10
1.95049
20
0.966861
11
1.95029
21
0.96656
0
LINE
8
BLACK
6
CONTINUOUS
10
1.95029
20
0.96656
11
1.94923
21
0.96603
0
LINE
8
BLACK
6
CONTINUOUS
10
1.94923
20
0.96603
11
1.94824
21
0.965376
0
LINE
8
BLACK
6
CONTINUOUS
10
1.94824
20
0.965376
11
1.901
21
0.949628
0
LINE
8
BLACK
6
CONTINUOUS
10
1.901
20
0.949628
11
1.89794
21
0.949445
0
LINE
8
BLACK
6
CONTINUOUS
10
1.89794
20
0.949445
11
1.89521
21
0.950812
0
LINE
8
BLACK
6
CONTINUOUS
10
1.89521
20
0.950812
11
1.89353
21
0.953363
0
LINE
8
BLACK
6
CONTINUOUS
10
1.89353
20
0.953363
11
1.89334
21
0.956415
0
LINE
8
BLACK
6
CONTINUOUS
10
1.89334
20
0.956415
11
1.89471
21
0.959149
0
LINE
8
BLACK
6
CONTINUOUS
10
1.89471
20
0.959149
11
1.89726
21
0.960833
0
LINE
8
BLACK
6
CONTINUOUS
10
1.89726
20
0.960833
11
1.9277
21
0.970979
0
LINE
8
BLACK
6
CONTINUOUS
10
1.9277
20
0.970979
11
1.89726
21
0.981124
0
LINE
8
BLACK
6
CONTINUOUS
10
1.89726
20
0.981124
11
1.89471
21
0.982809
0
LINE
8
BLACK
6
CONTINUOUS
10
1.89471
20
0.982809
11
1.89334
21
0.985543
0
LINE
8
BLACK
6
CONTINUOUS
10
1.89334
20
0.985543
11
1.89353
21
0.988594
0
LINE
8
BLACK
6
CONTINUOUS
10
1.89353
20
0.988594
11
1.89521
21
0.991145
0
LINE
8
BLACK
6
CONTINUOUS
10
1.89521
20
0.991145
11
1.89794
21
0.992512
0
LINE
8
BLACK
6
CONTINUOUS
10
1.89794
20
0.992512
11
1.901
21
0.992329
0
LINE
8
BLACK
6
CONTINUOUS
10
0.20865
20
1.51779
11
0.222132
21
1.51602
0
LINE
8
BLACK
6
CONTINUOUS
10
0.222132
20
1.51602
11
0.23532
21
1.51271
0
LINE
8
BLACK
6
CONTINUOUS
10
0.23532
20
1.51271
11
0.24804
21
1.5079
0
LINE
8
BLACK
6
CONTINUOUS
10
0.24804
20
1.5079
11
0.260123
21
1.50166
0
LINE
8
BLACK
6
CONTINUOUS
10
0.260123
20
1.50166
11
0.271409
21
1.49408
0
LINE
8
BLACK
6
CONTINUOUS
10
0.271409
20
1.49408
11
0.281749
21
1.48525
0
LINE
8
BLACK
6
CONTINUOUS
10
0.281749
20
1.48525
11
0.291006
21
1.47529
0
LINE
8
BLACK
6
CONTINUOUS
10
0.291006
20
1.47529
11
0.299056
21
1.46433
0
LINE
8
BLACK
6
CONTINUOUS
10
0.299056
20
1.46433
11
0.305793
21
1.45252
0
LINE
8
BLACK
6
CONTINUOUS
10
0.305793
20
1.45252
11
0.311128
21
1.44001
0
LINE
8
BLACK
6
CONTINUOUS
10
0.311128
20
1.44001
11
0.31499
21
1.42697
0
LINE
8
BLACK
6
CONTINUOUS
10
0.31499
20
1.42697
11
0.317327
21
1.41358
0
LINE
8
BLACK
6
CONTINUOUS
10
0.317327
20
1.41358
11
0.31811
21
1.4
0
LINE
8
BLACK
6
CONTINUOUS
10
0.31811
20
1.4
11
0.317877
21
1.39258
0
LINE
8
BLACK
6
CONTINUOUS
10
0.317877
20
1.39258
11
0.316244
21
1.37908
0
LINE
8
BLACK
6
CONTINUOUS
10
0.316244
20
1.37908
11
0.313069
21
1.36586
0
LINE
8
BLACK
6
CONTINUOUS
10
0.313069
20
1.36586
11
0.308396
21
1.35309
0
LINE
8
BLACK
6
CONTINUOUS
10
0.308396
20
1.35309
11
0.302286
21
1.34094
0
LINE
8
BLACK
6
CONTINUOUS
10
0.302286
20
1.34094
11
0.294821
21
1.32958
0
LINE
8
BLACK
6
CONTINUOUS
10
0.294821
20
1.32958
11
0.286099
21
1.31915
0
LINE
8
BLACK
6
CONTINUOUS
10
0.286099
20
1.31915
11
0.276235
21
1.30979
0
LINE
8
BLACK
6
CONTINUOUS
10
0.276235
20
1.30979
11
0.265361
21
1.30162
0
LINE
8
BLACK
6
CONTINUOUS
10
0.265361
20
1.30162
11
0.253621
21
1.29476
0
LINE
8
BLACK
6
CONTINUOUS
10
0.253621
20
1.29476
11
0.24117
21
1.2893
0
LINE
8
BLACK
6
CONTINUOUS
10
0.24117
20
1.2893
11
0.228173
21
1.2853
0
LINE
8
BLACK
6
CONTINUOUS
10
0.228173
20
1.2853
11
0.214803
21
1.28282
0
LINE
8
BLACK
6
CONTINUOUS
10
0.214803
20
1.28282
11
0.201237
21
1.2819
0
LINE
8
BLACK
6
CONTINUOUS
10
0.201237
20
1.2819
11
0.187654
21
1.28254
0
LINE
8
BLACK
6
CONTINUOUS
10
0.187654
20
1.28254
11
0.174235
21
1.28473
0
LINE
8
BLACK
6
CONTINUOUS
10
0.174235
20
1.28473
11
0.161157
21
1.28846
0
LINE
8
BLACK
6
CONTINUOUS
10
0.161157
20
1.28846
11
0.148595
21
1.29366
0
LINE
8
BLACK
6
CONTINUOUS
10
0.148595
20
1.29366
11
0.136713
21
1.30028
0
LINE
8
BLACK
6
CONTINUOUS
10
0.136713
20
1.30028
11
0.125671
21
1.30821
0
LINE
8
BLACK
6
CONTINUOUS
10
0.125671
20
1.30821
11
0.115613
21
1.31736
0
LINE
8
BLACK
6
CONTINUOUS
10
0.115613
20
1.31736
11
0.106675
21
1.32761
0
LINE
8
BLACK
6
CONTINUOUS
10
0.106675
20
1.32761
11
0.0989727
21
1.33882
0
LINE
8
BLACK
6
CONTINUOUS
10
0.0989727
20
1.33882
11
0.0926099
21
1.35083
0
LINE
8
BLACK
6
CONTINUOUS
10
0.0926099
20
1.35083
11
0.0876705
21
1.3635
0
LINE
8
BLACK
6
CONTINUOUS
10
0.0876705
20
1.3635
11
0.0842199
21
1.37665
0
LINE
8
BLACK
6
CONTINUOUS
10
0.0842199
20
1.37665
11
0.082304
21
1.39012
0
LINE
8
BLACK
6
CONTINUOUS
10
0.082304
20
1.39012
11
0.081948
21
1.40371
0
LINE
8
BLACK
6
CONTINUOUS
10
0.081948
20
1.40371
11
0.0831568
21
1.41725
0
LINE
8
BLACK
6
CONTINUOUS
10
0.0831568
20
1.41725
11
0.0859143
21
1.43057
0
LINE
8
BLACK
6
CONTINUOUS
10
0.0859143
20
1.43057
11
0.0901839
21
1.44348
0
LINE
8
BLACK
6
CONTINUOUS
10
0.0901839
20
1.44348
11
0.0959091
21
1.45581
0
LINE
8
BLACK
6
CONTINUOUS
10
0.0959091
20
1.45581
11
0.103014
21
1.46741
0
LINE
8
BLACK
6
CONTINUOUS
10
0.103014
20
1.46741
11
0.111404
21
1.47811
0
LINE
8
BLACK
6
CONTINUOUS
10
0.111404
20
1.47811
11
0.120969
21
1.48777
0
LINE
8
BLACK
6
CONTINUOUS
10
0.120969
20
1.48777
11
0.131581
21
1.49627
0
LINE
8
BLACK
6
CONTINUOUS
10
0.131581
20
1.49627
11
0.1431
21
1.5035
0
LINE
8
BLACK
6
CONTINUOUS
10
0.1431
20
1.5035
11
0.155373
21
1.50935
0
LINE
8
BLACK
6
CONTINUOUS
10
0.155373
20
1.50935
11
0.168238
21
1.51376
0
LINE
8
BLACK
6
CONTINUOUS
10
0.168238
20
1.51376
11
0.181524
21
1.51666
0
LINE
8
BLACK
6
CONTINUOUS
10
0.181524
20
1.51666
11
0.195054
21
1.51801
0
LINE
8
BLACK
6
CONTINUOUS
10
0.195054
20
1.51801
11
0.20865
21
1.51779
0
LINE
8
BLACK
6
CONTINUOUS
10
1.80865
20
1.51779
11
1.82213
21
1.51602
0
LINE
8
BLACK
6
CONTINUOUS
10
1.82213
20
1.51602
11
1.83532
21
1.51271
0
LINE
8
BLACK
6
CONTINUOUS
10
1.83532
20
1.51271
11
1.84804
21
1.5079
0
LINE
8
BLACK
6
CONTINUOUS
10
1.84804
20
1.5079
11
1.86012
21
1.50166
0
LINE
8
BLACK
6
CONTINUOUS
10
1.86012
20
1.50166
11
1.87141
21
1.49408
0
LINE
8
BLACK
6
CONTINUOUS
10
1.87141
20
1.49408
11
1.88175
21
1.48525
0
LINE
8
BLACK
6
CONTINUOUS
10
1.88175
20
1.48525
11
1.89101
21
1.47529
0
LINE
8
BLACK
6
CONTINUOUS
10
1.89101
20
1.47529
11
1.89906
21
1.46433
0
LINE
8
BLACK
6
CONTINUOUS
10
1.89906
20
1.46433
11
1.90579
21
1.45252
0
LINE
8
BLACK
6
CONTINUOUS
10
1.90579
20
1.45252
11
1.91113
21
1.44001
0
LINE
8
BLACK
6
CONTINUOUS
10
1.91113
20
1.44001
11
1.91499
21
1.42697
0
LINE
8
BLACK
6
CONTINUOUS
10
1.91499
20
1.42697
11
1.91733
21
1.41358
0
LINE
8
BLACK
6
CONTINUOUS
10
1.91733
20
1.41358
11
1.91811
21
1.4
0
LINE
8
BLACK
6
CONTINUOUS
10
1.91811
20
1.4
11
1.91788
21
1.39258
0
LINE
8
BLACK
6
CONTINUOUS
10
1.91788
20
1.39258
11
1.91624
21
1.37908
0
LINE
8
BLACK
6
CONTINUOUS
10
1.91624
20
1.37908
11
1.91307
21
1.36586
0
LINE
8
BLACK
6
CONTINUOUS
10
1.91307
20
1.36586
11
1.9084
21
1.35309
0
LINE
8
BLACK
6
CONTINUOUS
10
1.9084
20
1.35309
11
1.90229
21
1.34094
0
LINE
8
BLACK
6
CONTINUOUS
10
1.90229
20
1.34094
11
1.89482
21
1.32958
0
LINE
8
BLACK
6
CONTINUOUS
10
1.89482
20
1.32958
11
1.8861
21
1.31915
0
LINE
8
BLACK
6
CONTINUOUS
10
1.8861
20
1.31915
11
1.87624
21
1.30979
0
LINE
8
BLACK
6
CONTINUOUS
10
1.87624
20
1.30979
11
1.86536
21
1.30162
0
LINE
8
BLACK
6
CONTINUOUS
10
1.86536
20
1.30162
11
1.85362
21
1.29476
0
LINE
8
BLACK
6
CONTINUOUS
10
1.85362
20
1.29476
11
1.84117
21
1.2893
0
LINE
8
BLACK
6
CONTINUOUS
10
1.84117
20
1.2893
11
1.82817
21
1.2853
0
LINE
8
BLACK
6
CONTINUOUS
10
1.82817
20
1.2853
11
1.8148
21
1.28282
0
LINE
8
BLACK
6
CONTINUOUS
10
1.8148
20
1.28282
11
1.80124
21
1.2819
0
LINE
8
BLACK
6
CONTINUOUS
10
1.80124
20
1.2819
11
1.78765
21
1.28254
0
LINE
8
BLACK
6
CONTINUOUS
10
1.78765
20
1.28254
11
1.77424
21
1.28473
0
LINE
8
BLACK
6
CONTINUOUS
10
1.77424
20
1.28473
11
1.76116
21
1.28846
0
LINE
8
BLACK
6
CONTINUOUS
10
1.76116
20
1.28846
11
1.74859
21
1.29366
0
LINE
8
BLACK
6
CONTINUOUS
10
1.74859
20
1.29366
11
1.73671
21
1.30028
0
LINE
8
BLACK
6
CONTINUOUS
10
1.73671
20
1.30028
11
1.72567
21
1.30821
0
LINE
8
BLACK
6
CONTINUOUS
10
1.72567
20
1.30821
11
1.71561
21
1.31736
0
LINE
8
BLACK
6
CONTINUOUS
10
1.71561
20
1.31736
11
1.70667
21
1.32761
0
LINE
8
BLACK
6
CONTINUOUS
10
1.70667
20
1.32761
11
1.69897
21
1.33882
0
LINE
8
BLACK
6
CONTINUOUS
10
1.69897
20
1.33882
11
1.69261
21
1.35083
0
LINE
8
BLACK
6
CONTINUOUS
10
1.69261
20
1.35083
11
1.68767
21
1.3635
0
LINE
8
BLACK
6
CONTINUOUS
10
1.68767
20
1.3635
11
1.68422
21
1.37665
0
LINE
8
BLACK
6
CONTINUOUS
10
1.68422
20
1.37665
11
1.6823
21
1.39012
0
LINE
8
BLACK
6
CONTINUOUS
10
1.6823
20
1.39012
11
1.68195
21
1.40371
0
LINE
8
BLACK
6
CONTINUOUS
10
1.68195
20
1.40371
11
1.68316
21
1.41725
0
LINE
8
BLACK
6
CONTINUOUS
10
1.68316
20
1.41725
11
1.68591
21
1.43057
0
LINE
8
BLACK
6
CONTINUOUS
10
1.68591
20
1.43057
11
1.69018
21
1.44348
0
LINE
8
BLACK
6
CONTINUOUS
10
1.69018
20
1.44348
11
1.69591
21
1.45581
0
LINE
8
BLACK
6
CONTINUOUS
10
1.69591
20
1.45581
11
1.70301
21
1.46741
0
LINE
8
BLACK
6
CONTINUOUS
10
1.70301
20
1.46741
11
1.7114
21
1.47811
0
LINE
8
BLACK
6
CONTINUOUS
10
1.7114
20
1.47811
11
1.72097
21
1.48777
0
LINE
8
BLACK
6
CONTINUOUS
10
1.72097
20
1.48777
11
1.73158
21
1.49627
0
LINE
8
BLACK
6
CONTINUOUS
10
1.73158
20
1.49627
11
1.7431
21
1.5035
0
LINE
8
BLACK
6
CONTINUOUS
10
1.7431
20
1.5035
11
1.75537
21
1.50935
0
LINE
8
BLACK
6
CONTINUOUS
10
1.75537
20
1.50935
11
1.76824
21
1.51376
0
LINE
8
BLACK
6
CONTINUOUS
10
1.76824
20
1.51376
11
1.78152
21
1.51666
0
LINE
8
BLACK
6
CONTINUOUS
10
1.78152
20
1.51666
11
1.79505
21
1.51801
0
LINE
8
BLACK
6
CONTINUOUS
10
1.79505
20
1.51801
11
1.80865
21
1.51779
0
LINE
8
BLACK
6
CONTINUOUS
10
1.35384
20
1.55099
11
1.356
21
1.54882
0
LINE
8
BLACK
6
CONTINUOUS
10
1.356
20
1.54882
11
1.35679
21
1.54587
0
LINE
8
BLACK
6
CONTINUOUS
10
1.35679
20
1.54587
11
1.356
21
1.54292
0
LINE
8
BLACK
6
CONTINUOUS
10
1.356
20
1.54292
11
1.35384
21
1.54076
0
LINE
8
BLACK
6
CONTINUOUS
10
1.35384
20
1.54076
11
1.35089
21
1.53997
0
LINE
8
BLACK
6
CONTINUOUS
10
1.35089
20
1.53997
11
1.33043
21
1.53997
0
LINE
8
BLACK
6
CONTINUOUS
10
1.33043
20
1.53997
11
1.3558
21
1.5019
0
LINE
8
BLACK
6
CONTINUOUS
10
1.3558
20
1.5019
11
1.35586
21
1.50172
0
LINE
8
BLACK
6
CONTINUOUS
10
1.35586
20
1.50172
11
1.356
21
1.50158
0
LINE
8
BLACK
6
CONTINUOUS
10
1.356
20
1.50158
11
1.35635
21
1.50028
0
LINE
8
BLACK
6
CONTINUOUS
10
1.35635
20
1.50028
11
1.35678
21
1.49901
0
LINE
8
BLACK
6
CONTINUOUS
10
1.35678
20
1.49901
11
1.35674
21
1.49882
0
LINE
8
BLACK
6
CONTINUOUS
10
1.35674
20
1.49882
11
1.35679
21
1.49863
0
LINE
8
BLACK
6
CONTINUOUS
10
1.35679
20
1.49863
11
1.35645
21
1.49733
0
LINE
8
BLACK
6
CONTINUOUS
10
1.35645
20
1.49733
11
1.35618
21
1.49601
0
LINE
8
BLACK
6
CONTINUOUS
10
1.35618
20
1.49601
11
1.35605
21
1.49586
0
LINE
8
BLACK
6
CONTINUOUS
10
1.35605
20
1.49586
11
1.356
21
1.49567
0
LINE
8
BLACK
6
CONTINUOUS
10
1.356
20
1.49567
11
1.35505
21
1.49472
0
LINE
8
BLACK
6
CONTINUOUS
10
1.35505
20
1.49472
11
1.35416
21
1.49371
0
LINE
8
BLACK
6
CONTINUOUS
10
1.35416
20
1.49371
11
1.35398
21
1.49365
0
LINE
8
BLACK
6
CONTINUOUS
10
1.35398
20
1.49365
11
1.35384
21
1.49351
0
LINE
8
BLACK
6
CONTINUOUS
10
1.35384
20
1.49351
11
1.35254
21
1.49317
0
LINE
8
BLACK
6
CONTINUOUS
10
1.35254
20
1.49317
11
1.35127
21
1.49273
0
LINE
8
BLACK
6
CONTINUOUS
10
1.35127
20
1.49273
11
1.35108
21
1.49277
0
LINE
8
BLACK
6
CONTINUOUS
10
1.35108
20
1.49277
11
1.35089
21
1.49272
0
LINE
8
BLACK
6
CONTINUOUS
10
1.35089
20
1.49272
11
1.31939
21
1.49272
0
LINE
8
BLACK
6
CONTINUOUS
10
1.31939
20
1.49272
11
1.31644
21
1.49351
0
LINE
8
BLACK
6
CONTINUOUS
10
1.31644
20
1.49351
11
1.31428
21
1.49567
0
LINE
8
BLACK
6
CONTINUOUS
10
1.31428
20
1.49567
11
1.31349
21
1.49863
0
LINE
8
BLACK
6
CONTINUOUS
10
1.31349
20
1.49863
11
1.31428
21
1.50158
0
LINE
8
BLACK
6
CONTINUOUS
10
1.31428
20
1.50158
11
1.31644
21
1.50374
0
LINE
8
BLACK
6
CONTINUOUS
10
1.31644
20
1.50374
11
1.31939
21
1.50453
0
LINE
8
BLACK
6
CONTINUOUS
10
1.31939
20
1.50453
11
1.33985
21
1.50453
0
LINE
8
BLACK
6
CONTINUOUS
10
1.33985
20
1.50453
11
1.31448
21
1.5426
0
LINE
8
BLACK
6
CONTINUOUS
10
1.31448
20
1.5426
11
1.31442
21
1.54278
0
LINE
8
BLACK
6
CONTINUOUS
10
1.31442
20
1.54278
11
1.31428
21
1.54292
0
LINE
8
BLACK
6
CONTINUOUS
10
1.31428
20
1.54292
11
1.31393
21
1.54422
0
LINE
8
BLACK
6
CONTINUOUS
10
1.31393
20
1.54422
11
1.3135
21
1.54549
0
LINE
8
BLACK
6
CONTINUOUS
10
1.3135
20
1.54549
11
1.31354
21
1.54568
0
LINE
8
BLACK
6
CONTINUOUS
10
1.31354
20
1.54568
11
1.31349
21
1.54587
0
LINE
8
BLACK
6
CONTINUOUS
10
1.31349
20
1.54587
11
1.31384
21
1.54717
0
LINE
8
BLACK
6
CONTINUOUS
10
1.31384
20
1.54717
11
1.3141
21
1.54849
0
LINE
8
BLACK
6
CONTINUOUS
10
1.3141
20
1.54849
11
1.31423
21
1.54864
0
LINE
8
BLACK
6
CONTINUOUS
10
1.31423
20
1.54864
11
1.31428
21
1.54882
0
LINE
8
BLACK
6
CONTINUOUS
10
1.31428
20
1.54882
11
1.31523
21
1.54978
0
LINE
8
BLACK
6
CONTINUOUS
10
1.31523
20
1.54978
11
1.31612
21
1.55079
0
LINE
8
BLACK
6
CONTINUOUS
10
1.31612
20
1.55079
11
1.3163
21
1.55085
0
LINE
8
BLACK
6
CONTINUOUS
10
1.3163
20
1.55085
11
1.31644
21
1.55099
0
LINE
8
BLACK
6
CONTINUOUS
10
1.31644
20
1.55099
11
1.31774
21
1.55133
0
LINE
8
BLACK
6
CONTINUOUS
10
1.31774
20
1.55133
11
1.31901
21
1.55177
0
LINE
8
BLACK
6
CONTINUOUS
10
1.31901
20
1.55177
11
1.3192
21
1.55173
0
LINE
8
BLACK
6
CONTINUOUS
10
1.3192
20
1.55173
11
1.31939
21
1.55178
0
LINE
8
BLACK
6
CONTINUOUS
10
1.31939
20
1.55178
11
1.35089
21
1.55178
0
LINE
8
BLACK
6
CONTINUOUS
10
1.35089
20
1.55178
11
1.35384
21
1.55099
0
LINE
8
BLACK
6
CONTINUOUS
10
1.38105
20
1.55153
11
1.382
21
1.55147
0
LINE
8
BLACK
6
CONTINUOUS
10
1.382
20
1.55147
11
1.38875
21
1.54922
0
LINE
8
BLACK
6
CONTINUOUS
10
1.38875
20
1.54922
11
1.38988
21
1.54848
0
LINE
8
BLACK
6
CONTINUOUS
10
1.38988
20
1.54848
11
1.39106
21
1.5478
0
LINE
8
BLACK
6
CONTINUOUS
10
1.39106
20
1.5478
11
1.39556
21
1.5433
0
LINE
8
BLACK
6
CONTINUOUS
10
1.39556
20
1.5433
11
1.39603
21
1.54248
0
LINE
8
BLACK
6
CONTINUOUS
10
1.39603
20
1.54248
11
1.39667
21
1.54176
0
LINE
8
BLACK
6
CONTINUOUS
10
1.39667
20
1.54176
11
1.39892
21
1.53726
0
LINE
8
BLACK
6
CONTINUOUS
10
1.39892
20
1.53726
11
1.39905
21
1.53663
0
LINE
8
BLACK
6
CONTINUOUS
10
1.39905
20
1.53663
11
1.39936
21
1.53606
0
LINE
8
BLACK
6
CONTINUOUS
10
1.39936
20
1.53606
11
1.40161
21
1.52706
0
LINE
8
BLACK
6
CONTINUOUS
10
1.40161
20
1.52706
11
1.4016
21
1.52633
0
LINE
8
BLACK
6
CONTINUOUS
10
1.4016
20
1.52633
11
1.40179
21
1.52562
0
LINE
8
BLACK
6
CONTINUOUS
10
1.40179
20
1.52562
11
1.40179
21
1.51888
0
LINE
8
BLACK
6
CONTINUOUS
10
1.40179
20
1.51888
11
1.4016
21
1.51817
0
LINE
8
BLACK
6
CONTINUOUS
10
1.4016
20
1.51817
11
1.40161
21
1.51744
0
LINE
8
BLACK
6
CONTINUOUS
10
1.40161
20
1.51744
11
1.39936
21
1.50844
0
LINE
8
BLACK
6
CONTINUOUS
10
1.39936
20
1.50844
11
1.39905
21
1.50787
0
LINE
8
BLACK
6
CONTINUOUS
10
1.39905
20
1.50787
11
1.39892
21
1.50724
0
LINE
8
BLACK
6
CONTINUOUS
10
1.39892
20
1.50724
11
1.39667
21
1.50274
0
LINE
8
BLACK
6
CONTINUOUS
10
1.39667
20
1.50274
11
1.39603
21
1.50202
0
LINE
8
BLACK
6
CONTINUOUS
10
1.39603
20
1.50202
11
1.39556
21
1.5012
0
LINE
8
BLACK
6
CONTINUOUS
10
1.39556
20
1.5012
11
1.39106
21
1.4967
0
LINE
8
BLACK
6
CONTINUOUS
10
1.39106
20
1.4967
11
1.38988
21
1.49602
0
LINE
8
BLACK
6
CONTINUOUS
10
1.38988
20
1.49602
11
1.38875
21
1.49527
0
LINE
8
BLACK
6
CONTINUOUS
10
1.38875
20
1.49527
11
1.382
21
1.49303
0
LINE
8
BLACK
6
CONTINUOUS
10
1.382
20
1.49303
11
1.38105
21
1.49297
0
LINE
8
BLACK
6
CONTINUOUS
10
1.38105
20
1.49297
11
1.38013
21
1.49272
0
LINE
8
BLACK
6
CONTINUOUS
10
1.38013
20
1.49272
11
1.37564
21
1.49272
0
LINE
8
BLACK
6
CONTINUOUS
10
1.37564
20
1.49272
11
1.37472
21
1.49297
0
LINE
8
BLACK
6
CONTINUOUS
10
1.37472
20
1.49297
11
1.37377
21
1.49303
0
LINE
8
BLACK
6
CONTINUOUS
10
1.37377
20
1.49303
11
1.36702
21
1.49527
0
LINE
8
BLACK
6
CONTINUOUS
10
1.36702
20
1.49527
11
1.36589
21
1.49602
0
LINE
8
BLACK
6
CONTINUOUS
10
1.36589
20
1.49602
11
1.36471
21
1.4967
0
LINE
8
BLACK
6
CONTINUOUS
10
1.36471
20
1.4967
11
1.36246
21
1.49895
0
LINE
8
BLACK
6
CONTINUOUS
10
1.36246
20
1.49895
11
1.36093
21
1.5016
0
LINE
8
BLACK
6
CONTINUOUS
10
1.36093
20
1.5016
11
1.36093
21
1.50466
0
LINE
8
BLACK
6
CONTINUOUS
10
1.36093
20
1.50466
11
1.36246
21
1.5073
0
LINE
8
BLACK
6
CONTINUOUS
10
1.36246
20
1.5073
11
1.36511
21
1.50883
0
LINE
8
BLACK
6
CONTINUOUS
10
1.36511
20
1.50883
11
1.36817
21
1.50883
0
LINE
8
BLACK
6
CONTINUOUS
10
1.36817
20
1.50883
11
1.37081
21
1.5073
0
LINE
8
BLACK
6
CONTINUOUS
10
1.37081
20
1.5073
11
1.37208
21
1.50604
0
LINE
8
BLACK
6
CONTINUOUS
10
1.37208
20
1.50604
11
1.37659
21
1.50453
0
LINE
8
BLACK
6
CONTINUOUS
10
1.37659
20
1.50453
11
1.37918
21
1.50453
0
LINE
8
BLACK
6
CONTINUOUS
10
1.37918
20
1.50453
11
1.38369
21
1.50604
0
LINE
8
BLACK
6
CONTINUOUS
10
1.38369
20
1.50604
11
1.38653
21
1.50887
0
LINE
8
BLACK
6
CONTINUOUS
10
1.38653
20
1.50887
11
1.38806
21
1.51194
0
LINE
8
BLACK
6
CONTINUOUS
10
1.38806
20
1.51194
11
1.38998
21
1.5196
0
LINE
8
BLACK
6
CONTINUOUS
10
1.38998
20
1.5196
11
1.38998
21
1.5249
0
LINE
8
BLACK
6
CONTINUOUS
10
1.38998
20
1.5249
11
1.38806
21
1.53256
0
LINE
8
BLACK
6
CONTINUOUS
10
1.38806
20
1.53256
11
1.38653
21
1.53562
0
LINE
8
BLACK
6
CONTINUOUS
10
1.38653
20
1.53562
11
1.38369
21
1.53846
0
LINE
8
BLACK
6
CONTINUOUS
10
1.38369
20
1.53846
11
1.37918
21
1.53997
0
LINE
8
BLACK
6
CONTINUOUS
10
1.37918
20
1.53997
11
1.37659
21
1.53997
0
LINE
8
BLACK
6
CONTINUOUS
10
1.37659
20
1.53997
11
1.37208
21
1.53846
0
LINE
8
BLACK
6
CONTINUOUS
10
1.37208
20
1.53846
11
1.37081
21
1.5372
0
LINE
8
BLACK
6
CONTINUOUS
10
1.37081
20
1.5372
11
1.36817
21
1.53567
0
LINE
8
BLACK
6
CONTINUOUS
10
1.36817
20
1.53567
11
1.36511
21
1.53567
0
LINE
8
BLACK
6
CONTINUOUS
10
1.36511
20
1.53567
11
1.36246
21
1.5372
0
LINE
8
BLACK
6
CONTINUOUS
10
1.36246
20
1.5372
11
1.36093
21
1.53984
0
LINE
8
BLACK
6
CONTINUOUS
10
1.36093
20
1.53984
11
1.36093
21
1.5429
0
LINE
8
BLACK
6
CONTINUOUS
10
1.36093
20
1.5429
11
1.36246
21
1.54555
0
LINE
8
BLACK
6
CONTINUOUS
10
1.36246
20
1.54555
11
1.36471
21
1.5478
0
LINE
8
BLACK
6
CONTINUOUS
10
1.36471
20
1.5478
11
1.36589
21
1.54848
0
LINE
8
BLACK
6
CONTINUOUS
10
1.36589
20
1.54848
11
1.36702
21
1.54922
0
LINE
8
BLACK
6
CONTINUOUS
10
1.36702
20
1.54922
11
1.37377
21
1.55147
0
LINE
8
BLACK
6
CONTINUOUS
10
1.37377
20
1.55147
11
1.37472
21
1.55153
0
LINE
8
BLACK
6
CONTINUOUS
10
1.37472
20
1.55153
11
1.37564
21
1.55178
0
LINE
8
BLACK
6
CONTINUOUS
10
1.37564
20
1.55178
11
1.38013
21
1.55178
0
LINE
8
BLACK
6
CONTINUOUS
10
1.38013
20
1.55178
11
1.38105
21
1.55153
0
LINE
8
BLACK
6
CONTINUOUS
10
1.41908
20
1.50824
11
1.41963
21
1.50769
0
LINE
8
BLACK
6
CONTINUOUS
10
1.41963
20
1.50769
11
1.42031
21
1.5073
0
LINE
8
BLACK
6
CONTINUOUS
10
1.42031
20
1.5073
11
1.42256
21
1.50505
0
LINE
8
BLACK
6
CONTINUOUS
10
1.42256
20
1.50505
11
1.42408
21
1.50241
0
LINE
8
BLACK
6
CONTINUOUS
10
1.42408
20
1.50241
11
1.42408
21
1.49935
0
LINE
8
BLACK
6
CONTINUOUS
10
1.42408
20
1.49935
11
1.42256
21
1.4967
0
LINE
8
BLACK
6
CONTINUOUS
10
1.42256
20
1.4967
11
1.42031
21
1.49445
0
LINE
8
BLACK
6
CONTINUOUS
10
1.42031
20
1.49445
11
1.41963
21
1.49406
0
LINE
8
BLACK
6
CONTINUOUS
10
1.41963
20
1.49406
11
1.41908
21
1.49351
0
LINE
8
BLACK
6
CONTINUOUS
10
1.41908
20
1.49351
11
1.41833
21
1.49331
0
LINE
8
BLACK
6
CONTINUOUS
10
1.41833
20
1.49331
11
1.41766
21
1.49292
0
LINE
8
BLACK
6
CONTINUOUS
10
1.41766
20
1.49292
11
1.41688
21
1.49292
0
LINE
8
BLACK
6
CONTINUOUS
10
1.41688
20
1.49292
11
1.41613
21
1.49272
0
LINE
8
BLACK
6
CONTINUOUS
10
1.41613
20
1.49272
11
1.41538
21
1.49292
0
LINE
8
BLACK
6
CONTINUOUS
10
1.41538
20
1.49292
11
1.4146
21
1.49292
0
LINE
8
BLACK
6
CONTINUOUS
10
1.4146
20
1.49292
11
1.41393
21
1.49331
0
LINE
8
BLACK
6
CONTINUOUS
10
1.41393
20
1.49331
11
1.41318
21
1.49351
0
LINE
8
BLACK
6
CONTINUOUS
10
1.41318
20
1.49351
11
1.41263
21
1.49406
0
LINE
8
BLACK
6
CONTINUOUS
10
1.41263
20
1.49406
11
1.41195
21
1.49445
0
LINE
8
BLACK
6
CONTINUOUS
10
1.41195
20
1.49445
11
1.4097
21
1.4967
0
LINE
8
BLACK
6
CONTINUOUS
10
1.4097
20
1.4967
11
1.40818
21
1.49935
0
LINE
8
BLACK
6
CONTINUOUS
10
1.40818
20
1.49935
11
1.40818
21
1.50241
0
LINE
8
BLACK
6
CONTINUOUS
10
1.40818
20
1.50241
11
1.4097
21
1.50505
0
LINE
8
BLACK
6
CONTINUOUS
10
1.4097
20
1.50505
11
1.41195
21
1.5073
0
LINE
8
BLACK
6
CONTINUOUS
10
1.41195
20
1.5073
11
1.41263
21
1.50769
0
LINE
8
BLACK
6
CONTINUOUS
10
1.41263
20
1.50769
11
1.41318
21
1.50824
0
LINE
8
BLACK
6
CONTINUOUS
10
1.41318
20
1.50824
11
1.41393
21
1.50844
0
LINE
8
BLACK
6
CONTINUOUS
10
1.41393
20
1.50844
11
1.4146
21
1.50883
0
LINE
8
BLACK
6
CONTINUOUS
10
1.4146
20
1.50883
11
1.41538
21
1.50883
0
LINE
8
BLACK
6
CONTINUOUS
10
1.41538
20
1.50883
11
1.41613
21
1.50903
0
LINE
8
BLACK
6
CONTINUOUS
10
1.41613
20
1.50903
11
1.41688
21
1.50883
0
LINE
8
BLACK
6
CONTINUOUS
10
1.41688
20
1.50883
11
1.41766
21
1.50883
0
LINE
8
BLACK
6
CONTINUOUS
10
1.41766
20
1.50883
11
1.41833
21
1.50844
0
LINE
8
BLACK
6
CONTINUOUS
10
1.41833
20
1.50844
11
1.41908
21
1.50824
0
LINE
8
BLACK
6
CONTINUOUS
10
1.44407
20
1.49307
11
1.44274
21
1.49335
0
LINE
8
BLACK
6
CONTINUOUS
10
1.44274
20
1.49335
11
1.43824
21
1.4956
0
LINE
8
BLACK
6
CONTINUOUS
10
1.43824
20
1.4956
11
1.43752
21
1.49623
0
LINE
8
BLACK
6
CONTINUOUS
10
1.43752
20
1.49623
11
1.4367
21
1.4967
0
LINE
8
BLACK
6
CONTINUOUS
10
1.4367
20
1.4967
11
1.43445
21
1.49895
0
LINE
8
BLACK
6
CONTINUOUS
10
1.43445
20
1.49895
11
1.43398
21
1.49977
0
LINE
8
BLACK
6
CONTINUOUS
10
1.43398
20
1.49977
11
1.43335
21
1.50049
0
LINE
8
BLACK
6
CONTINUOUS
10
1.43335
20
1.50049
11
1.4311
21
1.50499
0
LINE
8
BLACK
6
CONTINUOUS
10
1.4311
20
1.50499
11
1.43082
21
1.50632
0
LINE
8
BLACK
6
CONTINUOUS
10
1.43082
20
1.50632
11
1.43047
21
1.50763
0
LINE
8
BLACK
6
CONTINUOUS
10
1.43047
20
1.50763
11
1.43047
21
1.51438
0
LINE
8
BLACK
6
CONTINUOUS
10
1.43047
20
1.51438
11
1.43082
21
1.51569
0
LINE
8
BLACK
6
CONTINUOUS
10
1.43082
20
1.51569
11
1.4311
21
1.51702
0
LINE
8
BLACK
6
CONTINUOUS
10
1.4311
20
1.51702
11
1.43335
21
1.52152
0
LINE
8
BLACK
6
CONTINUOUS
10
1.43335
20
1.52152
11
1.43398
21
1.52223
0
LINE
8
BLACK
6
CONTINUOUS
10
1.43398
20
1.52223
11
1.43445
21
1.52305
0
LINE
8
BLACK
6
CONTINUOUS
10
1.43445
20
1.52305
11
1.43608
21
1.52468
0
LINE
8
BLACK
6
CONTINUOUS
10
1.43608
20
1.52468
11
1.4356
21
1.52523
0
LINE
8
BLACK
6
CONTINUOUS
10
1.4356
20
1.52523
11
1.43335
21
1.52973
0
LINE
8
BLACK
6
CONTINUOUS
10
1.43335
20
1.52973
11
1.43307
21
1.53106
0
LINE
8
BLACK
6
CONTINUOUS
10
1.43307
20
1.53106
11
1.43272
21
1.53237
0
LINE
8
BLACK
6
CONTINUOUS
10
1.43272
20
1.53237
11
1.43272
21
1.53687
0
LINE
8
BLACK
6
CONTINUOUS
10
1.43272
20
1.53687
11
1.43307
21
1.53818
0
LINE
8
BLACK
6
CONTINUOUS
10
1.43307
20
1.53818
11
1.43335
21
1.53951
0
LINE
8
BLACK
6
CONTINUOUS
10
1.43335
20
1.53951
11
1.4356
21
1.54401
0
LINE
8
BLACK
6
CONTINUOUS
10
1.4356
20
1.54401
11
1.43623
21
1.54472
0
LINE
8
BLACK
6
CONTINUOUS
10
1.43623
20
1.54472
11
1.4367
21
1.54555
0
LINE
8
BLACK
6
CONTINUOUS
10
1.4367
20
1.54555
11
1.43895
21
1.5478
0
LINE
8
BLACK
6
CONTINUOUS
10
1.43895
20
1.5478
11
1.43977
21
1.54827
0
LINE
8
BLACK
6
CONTINUOUS
10
1.43977
20
1.54827
11
1.44049
21
1.5489
0
LINE
8
BLACK
6
CONTINUOUS
10
1.44049
20
1.5489
11
1.44499
21
1.55115
0
LINE
8
BLACK
6
CONTINUOUS
10
1.44499
20
1.55115
11
1.44632
21
1.55143
0
LINE
8
BLACK
6
CONTINUOUS
10
1.44632
20
1.55143
11
1.44763
21
1.55178
0
LINE
8
BLACK
6
CONTINUOUS
10
1.44763
20
1.55178
11
1.46337
21
1.55178
0
LINE
8
BLACK
6
CONTINUOUS
10
1.46337
20
1.55178
11
1.46633
21
1.55099
0
LINE
8
BLACK
6
CONTINUOUS
10
1.46633
20
1.55099
11
1.46849
21
1.54882
0
LINE
8
BLACK
6
CONTINUOUS
10
1.46849
20
1.54882
11
1.46928
21
1.54587
0
LINE
8
BLACK
6
CONTINUOUS
10
1.46928
20
1.54587
11
1.46928
21
1.49863
0
LINE
8
BLACK
6
CONTINUOUS
10
1.46928
20
1.49863
11
1.46849
21
1.49567
0
LINE
8
BLACK
6
CONTINUOUS
10
1.46849
20
1.49567
11
1.46633
21
1.49351
0
LINE
8
BLACK
6
CONTINUOUS
10
1.46633
20
1.49351
11
1.46337
21
1.49272
0
LINE
8
BLACK
6
CONTINUOUS
10
1.46337
20
1.49272
11
1.44538
21
1.49272
0
LINE
8
BLACK
6
CONTINUOUS
10
1.44538
20
1.49272
11
1.44407
21
1.49307
0
LINE
8
BLACK
6
CONTINUOUS
10
1.44858
20
1.51747
11
1.44407
21
1.51596
0
LINE
8
BLACK
6
CONTINUOUS
10
1.44407
20
1.51596
11
1.44348
21
1.51538
0
LINE
8
BLACK
6
CONTINUOUS
10
1.44348
20
1.51538
11
1.44228
21
1.51298
0
LINE
8
BLACK
6
CONTINUOUS
10
1.44228
20
1.51298
11
1.44228
21
1.50902
0
LINE
8
BLACK
6
CONTINUOUS
10
1.44228
20
1.50902
11
1.44348
21
1.50663
0
LINE
8
BLACK
6
CONTINUOUS
10
1.44348
20
1.50663
11
1.44438
21
1.50573
0
LINE
8
BLACK
6
CONTINUOUS
10
1.44438
20
1.50573
11
1.44677
21
1.50453
0
LINE
8
BLACK
6
CONTINUOUS
10
1.44677
20
1.50453
11
1.45747
21
1.50453
0
LINE
8
BLACK
6
CONTINUOUS
10
1.45747
20
1.50453
11
1.45747
21
1.51747
0
LINE
8
BLACK
6
CONTINUOUS
10
1.45747
20
1.51747
11
1.44858
21
1.51747
0
LINE
8
BLACK
6
CONTINUOUS
10
1.44902
20
1.53997
11
1.44663
21
1.53877
0
LINE
8
BLACK
6
CONTINUOUS
10
1.44663
20
1.53877
11
1.44573
21
1.53787
0
LINE
8
BLACK
6
CONTINUOUS
10
1.44573
20
1.53787
11
1.44453
21
1.53548
0
LINE
8
BLACK
6
CONTINUOUS
10
1.44453
20
1.53548
11
1.44453
21
1.53377
0
LINE
8
BLACK
6
CONTINUOUS
10
1.44453
20
1.53377
11
1.44573
21
1.53137
0
LINE
8
BLACK
6
CONTINUOUS
10
1.44573
20
1.53137
11
1.44663
21
1.53048
0
LINE
8
BLACK
6
CONTINUOUS
10
1.44663
20
1.53048
11
1.44902
21
1.52928
0
LINE
8
BLACK
6
CONTINUOUS
10
1.44902
20
1.52928
11
1.45747
21
1.52928
0
LINE
8
BLACK
6
CONTINUOUS
10
1.45747
20
1.52928
11
1.45747
21
1.53997
0
LINE
8
BLACK
6
CONTINUOUS
10
1.45747
20
1.53997
11
1.44902
21
1.53997
0
LINE
8
BLACK
6
CONTINUOUS
10
1.51666
20
1.49351
11
1.51518
21
1.495
0
LINE
8
BLACK
6
CONTINUOUS
10
1.51518
20
1.495
11
1.51504
21
1.49471
0
LINE
8
BLACK
6
CONTINUOUS
10
1.51504
20
1.49471
11
1.51249
21
1.49303
0
LINE
8
BLACK
6
CONTINUOUS
10
1.51249
20
1.49303
11
1.50943
21
1.49284
0
LINE
8
BLACK
6
CONTINUOUS
10
1.50943
20
1.49284
11
1.5067
21
1.49421
0
LINE
8
BLACK
6
CONTINUOUS
10
1.5067
20
1.49421
11
1.50502
21
1.49676
0
LINE
8
BLACK
6
CONTINUOUS
10
1.50502
20
1.49676
11
1.50186
21
1.50622
0
LINE
8
BLACK
6
CONTINUOUS
10
1.50186
20
1.50622
11
1.48788
21
1.50622
0
LINE
8
BLACK
6
CONTINUOUS
10
1.48788
20
1.50622
11
1.48473
21
1.49676
0
LINE
8
BLACK
6
CONTINUOUS
10
1.48473
20
1.49676
11
1.48304
21
1.49421
0
LINE
8
BLACK
6
CONTINUOUS
10
1.48304
20
1.49421
11
1.48031
21
1.49284
0
LINE
8
BLACK
6
CONTINUOUS
10
1.48031
20
1.49284
11
1.47726
21
1.49303
0
LINE
8
BLACK
6
CONTINUOUS
10
1.47726
20
1.49303
11
1.4747
21
1.49471
0
LINE
8
BLACK
6
CONTINUOUS
10
1.4747
20
1.49471
11
1.47334
21
1.49744
0
LINE
8
BLACK
6
CONTINUOUS
10
1.47334
20
1.49744
11
1.47352
21
1.5005
0
LINE
8
BLACK
6
CONTINUOUS
10
1.47352
20
1.5005
11
1.48927
21
1.54774
0
LINE
8
BLACK
6
CONTINUOUS
10
1.48927
20
1.54774
11
1.48992
21
1.54873
0
LINE
8
BLACK
6
CONTINUOUS
10
1.48992
20
1.54873
11
1.49045
21
1.54979
0
LINE
8
BLACK
6
CONTINUOUS
10
1.49045
20
1.54979
11
1.49075
21
1.54999
0
LINE
8
BLACK
6
CONTINUOUS
10
1.49075
20
1.54999
11
1.49095
21
1.55029
0
LINE
8
BLACK
6
CONTINUOUS
10
1.49095
20
1.55029
11
1.49201
21
1.55082
0
LINE
8
BLACK
6
CONTINUOUS
10
1.49201
20
1.55082
11
1.493
21
1.55147
0
LINE
8
BLACK
6
CONTINUOUS
10
1.493
20
1.55147
11
1.49336
21
1.5515
0
LINE
8
BLACK
6
CONTINUOUS
10
1.49336
20
1.5515
11
1.49369
21
1.55166
0
LINE
8
BLACK
6
CONTINUOUS
10
1.49369
20
1.55166
11
1.49487
21
1.55159
0
LINE
8
BLACK
6
CONTINUOUS
10
1.49487
20
1.55159
11
1.49605
21
1.55166
0
LINE
8
BLACK
6
CONTINUOUS
10
1.49605
20
1.55166
11
1.49638
21
1.5515
0
LINE
8
BLACK
6
CONTINUOUS
10
1.49638
20
1.5515
11
1.49674
21
1.55147
0
LINE
8
BLACK
6
CONTINUOUS
10
1.49674
20
1.55147
11
1.49773
21
1.55082
0
LINE
8
BLACK
6
CONTINUOUS
10
1.49773
20
1.55082
11
1.49879
21
1.55029
0
LINE
8
BLACK
6
CONTINUOUS
10
1.49879
20
1.55029
11
1.49899
21
1.54999
0
LINE
8
BLACK
6
CONTINUOUS
10
1.49899
20
1.54999
11
1.49929
21
1.54979
0
LINE
8
BLACK
6
CONTINUOUS
10
1.49929
20
1.54979
11
1.49982
21
1.54873
0
LINE
8
BLACK
6
CONTINUOUS
10
1.49982
20
1.54873
11
1.50047
21
1.54774
0
LINE
8
BLACK
6
CONTINUOUS
10
1.50047
20
1.54774
11
1.51552
21
1.5026
0
LINE
8
BLACK
6
CONTINUOUS
10
1.51552
20
1.5026
11
1.51666
21
1.50374
0
LINE
8
BLACK
6
CONTINUOUS
10
1.51666
20
1.50374
11
1.51962
21
1.50453
0
LINE
8
BLACK
6
CONTINUOUS
10
1.51962
20
1.50453
11
1.53621
21
1.50453
0
LINE
8
BLACK
6
CONTINUOUS
10
1.53621
20
1.50453
11
1.53621
21
1.54587
0
LINE
8
BLACK
6
CONTINUOUS
10
1.53621
20
1.54587
11
1.537
21
1.54882
0
LINE
8
BLACK
6
CONTINUOUS
10
1.537
20
1.54882
11
1.53916
21
1.55099
0
LINE
8
BLACK
6
CONTINUOUS
10
1.53916
20
1.55099
11
1.54211
21
1.55178
0
LINE
8
BLACK
6
CONTINUOUS
10
1.54211
20
1.55178
11
1.54507
21
1.55099
0
LINE
8
BLACK
6
CONTINUOUS
10
1.54507
20
1.55099
11
1.54723
21
1.54882
0
LINE
8
BLACK
6
CONTINUOUS
10
1.54723
20
1.54882
11
1.54802
21
1.54587
0
LINE
8
BLACK
6
CONTINUOUS
10
1.54802
20
1.54587
11
1.54802
21
1.49863
0
LINE
8
BLACK
6
CONTINUOUS
10
1.54802
20
1.49863
11
1.54723
21
1.49567
0
LINE
8
BLACK
6
CONTINUOUS
10
1.54723
20
1.49567
11
1.54507
21
1.49351
0
LINE
8
BLACK
6
CONTINUOUS
10
1.54507
20
1.49351
11
1.54211
21
1.49272
0
LINE
8
BLACK
6
CONTINUOUS
10
1.54211
20
1.49272
11
1.51962
21
1.49272
0
LINE
8
BLACK
6
CONTINUOUS
10
1.51962
20
1.49272
11
1.51666
21
1.49351
0
LINE
8
BLACK
6
CONTINUOUS
10
1.49182
20
1.51803
11
1.49793
21
1.51803
0
LINE
8
BLACK
6
CONTINUOUS
10
1.49793
20
1.51803
11
1.49487
21
1.5272
0
LINE
8
BLACK
6
CONTINUOUS
10
1.49487
20
1.5272
11
1.49182
21
1.51803
0
LINE
8
BLACK
6
CONTINUOUS
10
1.59734
20
1.55145
11
1.59861
21
1.55122
0
LINE
8
BLACK
6
CONTINUOUS
10
1.59861
20
1.55122
11
1.59881
21
1.55105
0
LINE
8
BLACK
6
CONTINUOUS
10
1.59881
20
1.55105
11
1.59906
21
1.55099
0
LINE
8
BLACK
6
CONTINUOUS
10
1.59906
20
1.55099
11
1.59997
21
1.55008
0
LINE
8
BLACK
6
CONTINUOUS
10
1.59997
20
1.55008
11
1.60095
21
1.54926
0
LINE
8
BLACK
6
CONTINUOUS
10
1.60095
20
1.54926
11
1.60104
21
1.54901
0
LINE
8
BLACK
6
CONTINUOUS
10
1.60104
20
1.54901
11
1.60122
21
1.54882
0
LINE
8
BLACK
6
CONTINUOUS
10
1.60122
20
1.54882
11
1.60155
21
1.54759
0
LINE
8
BLACK
6
CONTINUOUS
10
1.60155
20
1.54759
11
1.60199
21
1.54638
0
LINE
8
BLACK
6
CONTINUOUS
10
1.60199
20
1.54638
11
1.60195
21
1.54613
0
LINE
8
BLACK
6
CONTINUOUS
10
1.60195
20
1.54613
11
1.60201
21
1.54587
0
LINE
8
BLACK
6
CONTINUOUS
10
1.60201
20
1.54587
11
1.60201
21
1.49863
0
LINE
8
BLACK
6
CONTINUOUS
10
1.60201
20
1.49863
11
1.60122
21
1.49567
0
LINE
8
BLACK
6
CONTINUOUS
10
1.60122
20
1.49567
11
1.59906
21
1.49351
0
LINE
8
BLACK
6
CONTINUOUS
10
1.59906
20
1.49351
11
1.59611
21
1.49272
0
LINE
8
BLACK
6
CONTINUOUS
10
1.59611
20
1.49272
11
1.59316
21
1.49351
0
LINE
8
BLACK
6
CONTINUOUS
10
1.59316
20
1.49351
11
1.59099
21
1.49567
0
LINE
8
BLACK
6
CONTINUOUS
10
1.59099
20
1.49567
11
1.5902
21
1.49863
0
LINE
8
BLACK
6
CONTINUOUS
10
1.5902
20
1.49863
11
1.5902
21
1.51925
0
LINE
8
BLACK
6
CONTINUOUS
10
1.5902
20
1.51925
11
1.58571
21
1.50963
0
LINE
8
BLACK
6
CONTINUOUS
10
1.58571
20
1.50963
11
1.58538
21
1.50923
0
LINE
8
BLACK
6
CONTINUOUS
10
1.58538
20
1.50923
11
1.5852
21
1.50874
0
LINE
8
BLACK
6
CONTINUOUS
10
1.5852
20
1.50874
11
1.58441
21
1.50808
0
LINE
8
BLACK
6
CONTINUOUS
10
1.58441
20
1.50808
11
1.58375
21
1.50729
0
LINE
8
BLACK
6
CONTINUOUS
10
1.58375
20
1.50729
11
1.58326
21
1.50711
0
LINE
8
BLACK
6
CONTINUOUS
10
1.58326
20
1.50711
11
1.58286
21
1.50677
0
LINE
8
BLACK
6
CONTINUOUS
10
1.58286
20
1.50677
11
1.58184
21
1.5066
0
LINE
8
BLACK
6
CONTINUOUS
10
1.58184
20
1.5066
11
1.58087
21
1.50624
0
LINE
8
BLACK
6
CONTINUOUS
10
1.58087
20
1.50624
11
1.58036
21
1.50633
0
LINE
8
BLACK
6
CONTINUOUS
10
1.58036
20
1.50633
11
1.57985
21
1.50624
0
LINE
8
BLACK
6
CONTINUOUS
10
1.57985
20
1.50624
11
1.57888
21
1.5066
0
LINE
8
BLACK
6
CONTINUOUS
10
1.57888
20
1.5066
11
1.57786
21
1.50677
0
LINE
8
BLACK
6
CONTINUOUS
10
1.57786
20
1.50677
11
1.57746
21
1.50711
0
LINE
8
BLACK
6
CONTINUOUS
10
1.57746
20
1.50711
11
1.57697
21
1.50729
0
LINE
8
BLACK
6
CONTINUOUS
10
1.57697
20
1.50729
11
1.57631
21
1.50808
0
LINE
8
BLACK
6
CONTINUOUS
10
1.57631
20
1.50808
11
1.57552
21
1.50874
0
LINE
8
BLACK
6
CONTINUOUS
10
1.57552
20
1.50874
11
1.57534
21
1.50923
0
LINE
8
BLACK
6
CONTINUOUS
10
1.57534
20
1.50923
11
1.57501
21
1.50963
0
LINE
8
BLACK
6
CONTINUOUS
10
1.57501
20
1.50963
11
1.57052
21
1.51925
0
LINE
8
BLACK
6
CONTINUOUS
10
1.57052
20
1.51925
11
1.57052
21
1.49863
0
LINE
8
BLACK
6
CONTINUOUS
10
1.57052
20
1.49863
11
1.56973
21
1.49567
0
LINE
8
BLACK
6
CONTINUOUS
10
1.56973
20
1.49567
11
1.56756
21
1.49351
0
LINE
8
BLACK
6
CONTINUOUS
10
1.56756
20
1.49351
11
1.56461
21
1.49272
0
LINE
8
BLACK
6
CONTINUOUS
10
1.56461
20
1.49272
11
1.56166
21
1.49351
0
LINE
8
BLACK
6
CONTINUOUS
10
1.56166
20
1.49351
11
1.5595
21
1.49567
0
LINE
8
BLACK
6
CONTINUOUS
10
1.5595
20
1.49567
11
1.55871
21
1.49863
0
LINE
8
BLACK
6
CONTINUOUS
10
1.55871
20
1.49863
11
1.55871
21
1.54587
0
LINE
8
BLACK
6
CONTINUOUS
10
1.55871
20
1.54587
11
1.55877
21
1.54613
0
LINE
8
BLACK
6
CONTINUOUS
10
1.55877
20
1.54613
11
1.55873
21
1.54638
0
LINE
8
BLACK
6
CONTINUOUS
10
1.55873
20
1.54638
11
1.55917
21
1.54759
0
LINE
8
BLACK
6
CONTINUOUS
10
1.55917
20
1.54759
11
1.5595
21
1.54882
0
LINE
8
BLACK
6
CONTINUOUS
10
1.5595
20
1.54882
11
1.55968
21
1.54901
0
LINE
8
BLACK
6
CONTINUOUS
10
1.55968
20
1.54901
11
1.55977
21
1.54926
0
LINE
8
BLACK
6
CONTINUOUS
10
1.55977
20
1.54926
11
1.56075
21
1.55008
0
LINE
8
BLACK
6
CONTINUOUS
10
1.56075
20
1.55008
11
1.56166
21
1.55099
0
LINE
8
BLACK
6
CONTINUOUS
10
1.56166
20
1.55099
11
1.56191
21
1.55105
0
LINE
8
BLACK
6
CONTINUOUS
10
1.56191
20
1.55105
11
1.56211
21
1.55122
0
LINE
8
BLACK
6
CONTINUOUS
10
1.56211
20
1.55122
11
1.56338
21
1.55145
0
LINE
8
BLACK
6
CONTINUOUS
10
1.56338
20
1.55145
11
1.56461
21
1.55178
0
LINE
8
BLACK
6
CONTINUOUS
10
1.56461
20
1.55178
11
1.56487
21
1.55171
0
LINE
8
BLACK
6
CONTINUOUS
10
1.56487
20
1.55171
11
1.56512
21
1.55175
0
LINE
8
BLACK
6
CONTINUOUS
10
1.56512
20
1.55175
11
1.56633
21
1.55132
0
LINE
8
BLACK
6
CONTINUOUS
10
1.56633
20
1.55132
11
1.56756
21
1.55099
0
LINE
8
BLACK
6
CONTINUOUS
10
1.56756
20
1.55099
11
1.56775
21
1.5508
0
LINE
8
BLACK
6
CONTINUOUS
10
1.56775
20
1.5508
11
1.568
21
1.55071
0
LINE
8
BLACK
6
CONTINUOUS
10
1.568
20
1.55071
11
1.56882
21
1.54973
0
LINE
8
BLACK
6
CONTINUOUS
10
1.56882
20
1.54973
11
1.56973
21
1.54882
0
LINE
8
BLACK
6
CONTINUOUS
10
1.56973
20
1.54882
11
1.56979
21
1.54857
0
LINE
8
BLACK
6
CONTINUOUS
10
1.56979
20
1.54857
11
1.56996
21
1.54837
0
LINE
8
BLACK
6
CONTINUOUS
10
1.56996
20
1.54837
11
1.58036
21
1.52609
0
LINE
8
BLACK
6
CONTINUOUS
10
1.58036
20
1.52609
11
1.59076
21
1.54837
0
LINE
8
BLACK
6
CONTINUOUS
10
1.59076
20
1.54837
11
1.59093
21
1.54857
0
LINE
8
BLACK
6
CONTINUOUS
10
1.59093
20
1.54857
11
1.59099
21
1.54882
0
LINE
8
BLACK
6
CONTINUOUS
10
1.59099
20
1.54882
11
1.5919
21
1.54973
0
LINE
8
BLACK
6
CONTINUOUS
10
1.5919
20
1.54973
11
1.59272
21
1.55071
0
LINE
8
BLACK
6
CONTINUOUS
10
1.59272
20
1.55071
11
1.59297
21
1.5508
0
LINE
8
BLACK
6
CONTINUOUS
10
1.59297
20
1.5508
11
1.59316
21
1.55099
0
LINE
8
BLACK
6
CONTINUOUS
10
1.59316
20
1.55099
11
1.59439
21
1.55132
0
LINE
8
BLACK
6
CONTINUOUS
10
1.59439
20
1.55132
11
1.59559
21
1.55175
0
LINE
8
BLACK
6
CONTINUOUS
10
1.59559
20
1.55175
11
1.59585
21
1.55171
0
LINE
8
BLACK
6
CONTINUOUS
10
1.59585
20
1.55171
11
1.59611
21
1.55178
0
LINE
8
BLACK
6
CONTINUOUS
10
1.59611
20
1.55178
11
1.59734
21
1.55145
0
CIRCLE
8
BLACK
10
1.11
20
0.19
40
0.00787402
0
CIRCLE
8
BLACK
10
1.05
20
0.19
40
0.00787402
0
CIRCLE
8
BLACK
10
0.99
20
0.19
40
0.00787402
0
CIRCLE
8
BLACK
10
0.93
20
0.19
40
0.00787402
0
CIRCLE
8
BLACK
10
0.87
20
0.19
40
0.00787402
0
CIRCLE
8
BLACK
10
1.82
20
0.8
40
0.00787402
0
CIRCLE
8
BLACK
10
1.82
20
0.68
40
0.00787402
0
CIRCLE
8
BLACK
10
1.82
20
0.73
40
0.00787402
0
CIRCLE
8
BLACK
10
1.82
20
0.86
40
0.00787402
0
CIRCLE
8
BLACK
10
1.82
20
0.92
40
0.00787402
0
CIRCLE
8
BLACK
10
0.25
20
0.74
40
0.00787402
0
CIRCLE
8
BLACK
10
0.25
20
0.8
40
0.00787402
0
CIRCLE
8
BLACK
10
0.25
20
0.93
40
0.00787402
0
CIRCLE
8
BLACK
10
0.25
20
0.86
40
0.00787402
0
CIRCLE
8
BLACK
10
1.6
20
1.29
40
0.00787402
0
CIRCLE
8
BLACK
10
1.55
20
1.29
40
0.00787402
0
CIRCLE
8
BLACK
10
1.5
20
1.29
40
0.00787402
0
CIRCLE
8
BLACK
10
1.45
20
1.29
40
0.00787402
0
CIRCLE
8
BLACK
10
1.58
20
0.35
40
0.00787402
0
CIRCLE
8
BLACK
10
1.53
20
0.35
40
0.00787402
0
CIRCLE
8
BLACK
10
1.48
20
0.35
40
0.00787402
0
CIRCLE
8
BLACK
10
1.43
20
0.35
40
0.00787402
0
CIRCLE
8
BLACK
10
1.58
20
0.39
40
0.00787402
0
CIRCLE
8
BLACK
10
1.53
20
0.39
40
0.00787402
0
CIRCLE
8
BLACK
10
1.48
20
0.39
40
0.00787402
0
CIRCLE
8
BLACK
10
1.43
20
0.39
40
0.00787402
0
CIRCLE
8
BLACK
10
0.54
20
0.17
40
0.00787402
0
CIRCLE
8
BLACK
10
0.54
20
0.25
40
0.00787402
0
CIRCLE
8
BLACK
10
0.54
20
0.31
40
0.00787402
0
CIRCLE
8
BLACK
10
0.54
20
0.37
40
0.00787402
0
CIRCLE
8
BLACK
10
0.09
20
1.19
40
0.00787402
0
CIRCLE
8
BLACK
10
0.19
20
1.19
40
0.00787402
0
CIRCLE
8
BLACK
10
0.26
20
1.19
40
0.00787402
0
CIRCLE
8
BLACK
10
1.03
20
0.59
40
0.00787402
0
CIRCLE
8
BLACK
10
0.96
20
0.59
40
0.00787402
0
CIRCLE
8
BLACK
10
1.5
20
1.02
40
0.00787402
0
CIRCLE
8
BLACK
10
1.55
20
0.98
40
0.00787402
0
CIRCLE
8
BLACK
10
0.71
20
1.06
40
0.00787402
0
CIRCLE
8
BLACK
10
0.71
20
1.11
40
0.00787402
0
CIRCLE
8
BLACK
10
0.74
20
1.15
40
0.00787402
0
CIRCLE
8
BLACK
10
0.78
20
1.18
40
0.00787402
0
CIRCLE
8
BLACK
10
1.425
20
0.83
40
0.00787402
0
CIRCLE
8
BLACK
10
1.225
20
0.84
40
0.00787402
0
CIRCLE
8
BLACK
10
1.02
20
0.91
40
0.00787402
0
CIRCLE
8
BLACK
10
1.5
20
0.865
40
0.00787402
0
CIRCLE
8
BLACK
10
1.315
20
0.795
40
0.00787402
0
CIRCLE
8
BLACK
10
1.12
20
0.875
40
0.00787402
  0
ENDSEC
  0
EOF
