  0
SECTION
  2
HEADER
  9
$ANGBASE
  50
0.0
  9
$ANGDIR
  70
1
  9
$MEASUREMENT
  70
0
  0
ENDSEC
  0
SECTION
  2
TABLES
  0
TABLE
  2
LTYPE
  70
4
  0
LTYPE
  5
40F
  2
CONTINUOUS
  70
0
  3
Solid line
  72
65
  73
0
  40
0.0
  0
LTYPE
  5
410
  2
DASHDOT
 70
0
  3
Dash Dot ____ _ ____ _
 72
65
 73
4
 40
2.0
 49
1.25
 49
-0.25
 49
0.25
 49
-0.25
  0
LTYPE
  5
411
  2
DASHED
 70
0
  3
Dashed __ __ __ __ __
 72
65
 73
2
 40
0.75
 49
0.5
 49
-0.25
  0
LTYPE
  5
43B
  2
DOTTED
 70
0
  3
Dotted .  .  .  .
 72
65
 73
2
 40
0.2
 49
0.0
 49
-0.2
  0
ENDTAB
  0
TABLE
  2
STYLE
  70
4
  0
STYLE
  2
KICAD
  70
0
  40
0
  41
1
  42
1
  50
0
  71
0
  3
isocp.shx
  0
STYLE
  2
KICADB
  70
0
  40
0
  41
1
  42
1
  50
0
  71
0
  3
isocp.shx
  0
STYLE
  2
KICADI
  70
0
  40
0
  41
1
  42
1
  50
15
  71
0
  3
isocp.shx
  0
STYLE
  2
KICADBI
  70
0
  40
0
  41
1
  42
1
  50
15
  71
0
  3
isocp.shx
  0
ENDTAB
  0
TABLE
  2
LAYER
  70
1
  0
LAYER
  2
BLACK
  70
0
  62
7
  6
CONTINUOUS
  0
ENDTAB
  0
ENDSEC
  0
SECTION
  2
ENTITIES
0
LINE
8
BLACK
6
CONTINUOUS
10
0.568583
20
1.28764
11
0.571596
21
1.28704
0
LINE
8
BLACK
6
CONTINUOUS
10
0.571596
20
1.28704
11
0.57415
21
1.28533
0
LINE
8
BLACK
6
CONTINUOUS
10
0.57415
20
1.28533
11
0.575857
21
1.28278
0
LINE
8
BLACK
6
CONTINUOUS
10
0.575857
20
1.28278
11
0.576457
21
1.27976
0
LINE
8
BLACK
6
CONTINUOUS
10
0.576457
20
1.27976
11
0.576457
21
1.19709
0
LINE
8
BLACK
6
CONTINUOUS
10
0.576457
20
1.19709
11
0.575857
21
1.19407
0
LINE
8
BLACK
6
CONTINUOUS
10
0.575857
20
1.19407
11
0.57415
21
1.19152
0
LINE
8
BLACK
6
CONTINUOUS
10
0.57415
20
1.19152
11
0.571596
21
1.18981
0
LINE
8
BLACK
6
CONTINUOUS
10
0.571596
20
1.18981
11
0.568583
21
1.18921
0
LINE
8
BLACK
6
CONTINUOUS
10
0.568583
20
1.18921
11
0.391417
21
1.18921
0
LINE
8
BLACK
6
CONTINUOUS
10
0.391417
20
1.18921
11
0.388404
21
1.18981
0
LINE
8
BLACK
6
CONTINUOUS
10
0.388404
20
1.18981
11
0.38585
21
1.19152
0
LINE
8
BLACK
6
CONTINUOUS
10
0.38585
20
1.19152
11
0.384143
21
1.19407
0
LINE
8
BLACK
6
CONTINUOUS
10
0.384143
20
1.19407
11
0.383543
21
1.19709
0
LINE
8
BLACK
6
CONTINUOUS
10
0.383543
20
1.19709
11
0.383543
21
1.27976
0
LINE
8
BLACK
6
CONTINUOUS
10
0.383543
20
1.27976
11
0.384143
21
1.28278
0
LINE
8
BLACK
6
CONTINUOUS
10
0.384143
20
1.28278
11
0.38585
21
1.28533
0
LINE
8
BLACK
6
CONTINUOUS
10
0.38585
20
1.28533
11
0.388404
21
1.28704
0
LINE
8
BLACK
6
CONTINUOUS
10
0.388404
20
1.28704
11
0.391417
21
1.28764
0
LINE
8
BLACK
6
CONTINUOUS
10
0.391417
20
1.28764
11
0.568583
21
1.28764
0
LINE
8
BLACK
6
CONTINUOUS
10
0.568583
20
1.18921
11
0.571596
21
1.18861
0
LINE
8
BLACK
6
CONTINUOUS
10
0.571596
20
1.18861
11
0.57415
21
1.18691
0
LINE
8
BLACK
6
CONTINUOUS
10
0.57415
20
1.18691
11
0.575857
21
1.18435
0
LINE
8
BLACK
6
CONTINUOUS
10
0.575857
20
1.18435
11
0.576457
21
1.18134
0
LINE
8
BLACK
6
CONTINUOUS
10
0.576457
20
1.18134
11
0.576457
21
1.09866
0
LINE
8
BLACK
6
CONTINUOUS
10
0.576457
20
1.09866
11
0.575857
21
1.09565
0
LINE
8
BLACK
6
CONTINUOUS
10
0.575857
20
1.09565
11
0.57415
21
1.09309
0
LINE
8
BLACK
6
CONTINUOUS
10
0.57415
20
1.09309
11
0.571596
21
1.09139
0
LINE
8
BLACK
6
CONTINUOUS
10
0.571596
20
1.09139
11
0.568583
21
1.09079
0
LINE
8
BLACK
6
CONTINUOUS
10
0.568583
20
1.09079
11
0.391417
21
1.09079
0
LINE
8
BLACK
6
CONTINUOUS
10
0.391417
20
1.09079
11
0.388404
21
1.09139
0
LINE
8
BLACK
6
CONTINUOUS
10
0.388404
20
1.09139
11
0.38585
21
1.09309
0
LINE
8
BLACK
6
CONTINUOUS
10
0.38585
20
1.09309
11
0.384143
21
1.09565
0
LINE
8
BLACK
6
CONTINUOUS
10
0.384143
20
1.09565
11
0.383543
21
1.09866
0
LINE
8
BLACK
6
CONTINUOUS
10
0.383543
20
1.09866
11
0.383543
21
1.18134
0
LINE
8
BLACK
6
CONTINUOUS
10
0.383543
20
1.18134
11
0.384143
21
1.18435
0
LINE
8
BLACK
6
CONTINUOUS
10
0.384143
20
1.18435
11
0.38585
21
1.18691
0
LINE
8
BLACK
6
CONTINUOUS
10
0.38585
20
1.18691
11
0.388404
21
1.18861
0
LINE
8
BLACK
6
CONTINUOUS
10
0.388404
20
1.18861
11
0.391417
21
1.18921
0
LINE
8
BLACK
6
CONTINUOUS
10
0.391417
20
1.18921
11
0.568583
21
1.18921
0
LINE
8
BLACK
6
CONTINUOUS
10
0.568583
20
1.09079
11
0.571596
21
1.09019
0
LINE
8
BLACK
6
CONTINUOUS
10
0.571596
20
1.09019
11
0.57415
21
1.08848
0
LINE
8
BLACK
6
CONTINUOUS
10
0.57415
20
1.08848
11
0.575857
21
1.08593
0
LINE
8
BLACK
6
CONTINUOUS
10
0.575857
20
1.08593
11
0.576457
21
1.08291
0
LINE
8
BLACK
6
CONTINUOUS
10
0.576457
20
1.08291
11
0.576457
21
1.00024
0
LINE
8
BLACK
6
CONTINUOUS
10
0.576457
20
1.00024
11
0.575857
21
0.997223
0
LINE
8
BLACK
6
CONTINUOUS
10
0.575857
20
0.997223
11
0.57415
21
0.994668
0
LINE
8
BLACK
6
CONTINUOUS
10
0.57415
20
0.994668
11
0.571596
21
0.992962
0
LINE
8
BLACK
6
CONTINUOUS
10
0.571596
20
0.992962
11
0.568583
21
0.992362
0
LINE
8
BLACK
6
CONTINUOUS
10
0.568583
20
0.992362
11
0.391417
21
0.992362
0
LINE
8
BLACK
6
CONTINUOUS
10
0.391417
20
0.992362
11
0.388404
21
0.992962
0
LINE
8
BLACK
6
CONTINUOUS
10
0.388404
20
0.992962
11
0.38585
21
0.994668
0
LINE
8
BLACK
6
CONTINUOUS
10
0.38585
20
0.994668
11
0.384143
21
0.997223
0
LINE
8
BLACK
6
CONTINUOUS
10
0.384143
20
0.997223
11
0.383543
21
1.00024
0
LINE
8
BLACK
6
CONTINUOUS
10
0.383543
20
1.00024
11
0.383543
21
1.08291
0
LINE
8
BLACK
6
CONTINUOUS
10
0.383543
20
1.08291
11
0.384143
21
1.08593
0
LINE
8
BLACK
6
CONTINUOUS
10
0.384143
20
1.08593
11
0.38585
21
1.08848
0
LINE
8
BLACK
6
CONTINUOUS
10
0.38585
20
1.08848
11
0.388404
21
1.09019
0
LINE
8
BLACK
6
CONTINUOUS
10
0.388404
20
1.09019
11
0.391417
21
1.09079
0
LINE
8
BLACK
6
CONTINUOUS
10
0.391417
20
1.09079
11
0.568583
21
1.09079
0
LINE
8
BLACK
6
CONTINUOUS
10
0.391417
20
0.672362
11
0.388404
21
0.672962
0
LINE
8
BLACK
6
CONTINUOUS
10
0.388404
20
0.672962
11
0.38585
21
0.674668
0
LINE
8
BLACK
6
CONTINUOUS
10
0.38585
20
0.674668
11
0.384143
21
0.677223
0
LINE
8
BLACK
6
CONTINUOUS
10
0.384143
20
0.677223
11
0.383543
21
0.680236
0
LINE
8
BLACK
6
CONTINUOUS
10
0.383543
20
0.680236
11
0.383543
21
0.762913
0
LINE
8
BLACK
6
CONTINUOUS
10
0.383543
20
0.762913
11
0.384143
21
0.765927
0
LINE
8
BLACK
6
CONTINUOUS
10
0.384143
20
0.765927
11
0.38585
21
0.768481
0
LINE
8
BLACK
6
CONTINUOUS
10
0.38585
20
0.768481
11
0.388404
21
0.770188
0
LINE
8
BLACK
6
CONTINUOUS
10
0.388404
20
0.770188
11
0.391417
21
0.770787
0
LINE
8
BLACK
6
CONTINUOUS
10
0.391417
20
0.770787
11
0.568583
21
0.770787
0
LINE
8
BLACK
6
CONTINUOUS
10
0.568583
20
0.770787
11
0.571596
21
0.770188
0
LINE
8
BLACK
6
CONTINUOUS
10
0.571596
20
0.770188
11
0.57415
21
0.768481
0
LINE
8
BLACK
6
CONTINUOUS
10
0.57415
20
0.768481
11
0.575857
21
0.765927
0
LINE
8
BLACK
6
CONTINUOUS
10
0.575857
20
0.765927
11
0.576457
21
0.762913
0
LINE
8
BLACK
6
CONTINUOUS
10
0.576457
20
0.762913
11
0.576457
21
0.680236
0
LINE
8
BLACK
6
CONTINUOUS
10
0.576457
20
0.680236
11
0.575857
21
0.677223
0
LINE
8
BLACK
6
CONTINUOUS
10
0.575857
20
0.677223
11
0.57415
21
0.674668
0
LINE
8
BLACK
6
CONTINUOUS
10
0.57415
20
0.674668
11
0.571596
21
0.672962
0
LINE
8
BLACK
6
CONTINUOUS
10
0.571596
20
0.672962
11
0.568583
21
0.672362
0
LINE
8
BLACK
6
CONTINUOUS
10
0.568583
20
0.672362
11
0.391417
21
0.672362
0
LINE
8
BLACK
6
CONTINUOUS
10
0.391417
20
0.770787
11
0.388404
21
0.771387
0
LINE
8
BLACK
6
CONTINUOUS
10
0.388404
20
0.771387
11
0.38585
21
0.773094
0
LINE
8
BLACK
6
CONTINUOUS
10
0.38585
20
0.773094
11
0.384143
21
0.775648
0
LINE
8
BLACK
6
CONTINUOUS
10
0.384143
20
0.775648
11
0.383543
21
0.778661
0
LINE
8
BLACK
6
CONTINUOUS
10
0.383543
20
0.778661
11
0.383543
21
0.861339
0
LINE
8
BLACK
6
CONTINUOUS
10
0.383543
20
0.861339
11
0.384143
21
0.864352
0
LINE
8
BLACK
6
CONTINUOUS
10
0.384143
20
0.864352
11
0.38585
21
0.866906
0
LINE
8
BLACK
6
CONTINUOUS
10
0.38585
20
0.866906
11
0.388404
21
0.868613
0
LINE
8
BLACK
6
CONTINUOUS
10
0.388404
20
0.868613
11
0.391417
21
0.869213
0
LINE
8
BLACK
6
CONTINUOUS
10
0.391417
20
0.869213
11
0.568583
21
0.869213
0
LINE
8
BLACK
6
CONTINUOUS
10
0.568583
20
0.869213
11
0.571596
21
0.868613
0
LINE
8
BLACK
6
CONTINUOUS
10
0.571596
20
0.868613
11
0.57415
21
0.866906
0
LINE
8
BLACK
6
CONTINUOUS
10
0.57415
20
0.866906
11
0.575857
21
0.864352
0
LINE
8
BLACK
6
CONTINUOUS
10
0.575857
20
0.864352
11
0.576457
21
0.861339
0
LINE
8
BLACK
6
CONTINUOUS
10
0.576457
20
0.861339
11
0.576457
21
0.778661
0
LINE
8
BLACK
6
CONTINUOUS
10
0.576457
20
0.778661
11
0.575857
21
0.775648
0
LINE
8
BLACK
6
CONTINUOUS
10
0.575857
20
0.775648
11
0.57415
21
0.773094
0
LINE
8
BLACK
6
CONTINUOUS
10
0.57415
20
0.773094
11
0.571596
21
0.771387
0
LINE
8
BLACK
6
CONTINUOUS
10
0.571596
20
0.771387
11
0.568583
21
0.770787
0
LINE
8
BLACK
6
CONTINUOUS
10
0.568583
20
0.770787
11
0.391417
21
0.770787
0
LINE
8
BLACK
6
CONTINUOUS
10
0.391417
20
0.869213
11
0.388404
21
0.869812
0
LINE
8
BLACK
6
CONTINUOUS
10
0.388404
20
0.869812
11
0.38585
21
0.871519
0
LINE
8
BLACK
6
CONTINUOUS
10
0.38585
20
0.871519
11
0.384143
21
0.874073
0
LINE
8
BLACK
6
CONTINUOUS
10
0.384143
20
0.874073
11
0.383543
21
0.877087
0
LINE
8
BLACK
6
CONTINUOUS
10
0.383543
20
0.877087
11
0.383543
21
0.959764
0
LINE
8
BLACK
6
CONTINUOUS
10
0.383543
20
0.959764
11
0.384143
21
0.962777
0
LINE
8
BLACK
6
CONTINUOUS
10
0.384143
20
0.962777
11
0.38585
21
0.965332
0
LINE
8
BLACK
6
CONTINUOUS
10
0.38585
20
0.965332
11
0.388404
21
0.967038
0
LINE
8
BLACK
6
CONTINUOUS
10
0.388404
20
0.967038
11
0.391417
21
0.967638
0
LINE
8
BLACK
6
CONTINUOUS
10
0.391417
20
0.967638
11
0.568583
21
0.967638
0
LINE
8
BLACK
6
CONTINUOUS
10
0.568583
20
0.967638
11
0.571596
21
0.967038
0
LINE
8
BLACK
6
CONTINUOUS
10
0.571596
20
0.967038
11
0.57415
21
0.965332
0
LINE
8
BLACK
6
CONTINUOUS
10
0.57415
20
0.965332
11
0.575857
21
0.962777
0
LINE
8
BLACK
6
CONTINUOUS
10
0.575857
20
0.962777
11
0.576457
21
0.959764
0
LINE
8
BLACK
6
CONTINUOUS
10
0.576457
20
0.959764
11
0.576457
21
0.877087
0
LINE
8
BLACK
6
CONTINUOUS
10
0.576457
20
0.877087
11
0.575857
21
0.874073
0
LINE
8
BLACK
6
CONTINUOUS
10
0.575857
20
0.874073
11
0.57415
21
0.871519
0
LINE
8
BLACK
6
CONTINUOUS
10
0.57415
20
0.871519
11
0.571596
21
0.869812
0
LINE
8
BLACK
6
CONTINUOUS
10
0.571596
20
0.869812
11
0.568583
21
0.869213
0
LINE
8
BLACK
6
CONTINUOUS
10
0.568583
20
0.869213
11
0.391417
21
0.869213
0
LINE
8
BLACK
6
CONTINUOUS
10
0.391417
20
0.352362
11
0.388404
21
0.352962
0
LINE
8
BLACK
6
CONTINUOUS
10
0.388404
20
0.352962
11
0.38585
21
0.354668
0
LINE
8
BLACK
6
CONTINUOUS
10
0.38585
20
0.354668
11
0.384143
21
0.357223
0
LINE
8
BLACK
6
CONTINUOUS
10
0.384143
20
0.357223
11
0.383543
21
0.360236
0
LINE
8
BLACK
6
CONTINUOUS
10
0.383543
20
0.360236
11
0.383543
21
0.442913
0
LINE
8
BLACK
6
CONTINUOUS
10
0.383543
20
0.442913
11
0.384143
21
0.445927
0
LINE
8
BLACK
6
CONTINUOUS
10
0.384143
20
0.445927
11
0.38585
21
0.448481
0
LINE
8
BLACK
6
CONTINUOUS
10
0.38585
20
0.448481
11
0.388404
21
0.450188
0
LINE
8
BLACK
6
CONTINUOUS
10
0.388404
20
0.450188
11
0.391417
21
0.450787
0
LINE
8
BLACK
6
CONTINUOUS
10
0.391417
20
0.450787
11
0.568583
21
0.450787
0
LINE
8
BLACK
6
CONTINUOUS
10
0.568583
20
0.450787
11
0.571596
21
0.450188
0
LINE
8
BLACK
6
CONTINUOUS
10
0.571596
20
0.450188
11
0.57415
21
0.448481
0
LINE
8
BLACK
6
CONTINUOUS
10
0.57415
20
0.448481
11
0.575857
21
0.445927
0
LINE
8
BLACK
6
CONTINUOUS
10
0.575857
20
0.445927
11
0.576457
21
0.442913
0
LINE
8
BLACK
6
CONTINUOUS
10
0.576457
20
0.442913
11
0.576457
21
0.360236
0
LINE
8
BLACK
6
CONTINUOUS
10
0.576457
20
0.360236
11
0.575857
21
0.357223
0
LINE
8
BLACK
6
CONTINUOUS
10
0.575857
20
0.357223
11
0.57415
21
0.354668
0
LINE
8
BLACK
6
CONTINUOUS
10
0.57415
20
0.354668
11
0.571596
21
0.352962
0
LINE
8
BLACK
6
CONTINUOUS
10
0.571596
20
0.352962
11
0.568583
21
0.352362
0
LINE
8
BLACK
6
CONTINUOUS
10
0.568583
20
0.352362
11
0.391417
21
0.352362
0
LINE
8
BLACK
6
CONTINUOUS
10
0.391417
20
0.450787
11
0.388404
21
0.451387
0
LINE
8
BLACK
6
CONTINUOUS
10
0.388404
20
0.451387
11
0.38585
21
0.453094
0
LINE
8
BLACK
6
CONTINUOUS
10
0.38585
20
0.453094
11
0.384143
21
0.455648
0
LINE
8
BLACK
6
CONTINUOUS
10
0.384143
20
0.455648
11
0.383543
21
0.458661
0
LINE
8
BLACK
6
CONTINUOUS
10
0.383543
20
0.458661
11
0.383543
21
0.541339
0
LINE
8
BLACK
6
CONTINUOUS
10
0.383543
20
0.541339
11
0.384143
21
0.544352
0
LINE
8
BLACK
6
CONTINUOUS
10
0.384143
20
0.544352
11
0.38585
21
0.546906
0
LINE
8
BLACK
6
CONTINUOUS
10
0.38585
20
0.546906
11
0.388404
21
0.548613
0
LINE
8
BLACK
6
CONTINUOUS
10
0.388404
20
0.548613
11
0.391417
21
0.549213
0
LINE
8
BLACK
6
CONTINUOUS
10
0.391417
20
0.549213
11
0.568583
21
0.549213
0
LINE
8
BLACK
6
CONTINUOUS
10
0.568583
20
0.549213
11
0.571596
21
0.548613
0
LINE
8
BLACK
6
CONTINUOUS
10
0.571596
20
0.548613
11
0.57415
21
0.546906
0
LINE
8
BLACK
6
CONTINUOUS
10
0.57415
20
0.546906
11
0.575857
21
0.544352
0
LINE
8
BLACK
6
CONTINUOUS
10
0.575857
20
0.544352
11
0.576457
21
0.541339
0
LINE
8
BLACK
6
CONTINUOUS
10
0.576457
20
0.541339
11
0.576457
21
0.458661
0
LINE
8
BLACK
6
CONTINUOUS
10
0.576457
20
0.458661
11
0.575857
21
0.455648
0
LINE
8
BLACK
6
CONTINUOUS
10
0.575857
20
0.455648
11
0.57415
21
0.453094
0
LINE
8
BLACK
6
CONTINUOUS
10
0.57415
20
0.453094
11
0.571596
21
0.451387
0
LINE
8
BLACK
6
CONTINUOUS
10
0.571596
20
0.451387
11
0.568583
21
0.450787
0
LINE
8
BLACK
6
CONTINUOUS
10
0.568583
20
0.450787
11
0.391417
21
0.450787
0
LINE
8
BLACK
6
CONTINUOUS
10
0.391417
20
0.549213
11
0.388404
21
0.549812
0
LINE
8
BLACK
6
CONTINUOUS
10
0.388404
20
0.549812
11
0.38585
21
0.551519
0
LINE
8
BLACK
6
CONTINUOUS
10
0.38585
20
0.551519
11
0.384143
21
0.554073
0
LINE
8
BLACK
6
CONTINUOUS
10
0.384143
20
0.554073
11
0.383543
21
0.557087
0
LINE
8
BLACK
6
CONTINUOUS
10
0.383543
20
0.557087
11
0.383543
21
0.639764
0
LINE
8
BLACK
6
CONTINUOUS
10
0.383543
20
0.639764
11
0.384143
21
0.642777
0
LINE
8
BLACK
6
CONTINUOUS
10
0.384143
20
0.642777
11
0.38585
21
0.645332
0
LINE
8
BLACK
6
CONTINUOUS
10
0.38585
20
0.645332
11
0.388404
21
0.647038
0
LINE
8
BLACK
6
CONTINUOUS
10
0.388404
20
0.647038
11
0.391417
21
0.647638
0
LINE
8
BLACK
6
CONTINUOUS
10
0.391417
20
0.647638
11
0.568583
21
0.647638
0
LINE
8
BLACK
6
CONTINUOUS
10
0.568583
20
0.647638
11
0.571596
21
0.647038
0
LINE
8
BLACK
6
CONTINUOUS
10
0.571596
20
0.647038
11
0.57415
21
0.645332
0
LINE
8
BLACK
6
CONTINUOUS
10
0.57415
20
0.645332
11
0.575857
21
0.642777
0
LINE
8
BLACK
6
CONTINUOUS
10
0.575857
20
0.642777
11
0.576457
21
0.639764
0
LINE
8
BLACK
6
CONTINUOUS
10
0.576457
20
0.639764
11
0.576457
21
0.557087
0
LINE
8
BLACK
6
CONTINUOUS
10
0.576457
20
0.557087
11
0.575857
21
0.554073
0
LINE
8
BLACK
6
CONTINUOUS
10
0.575857
20
0.554073
11
0.57415
21
0.551519
0
LINE
8
BLACK
6
CONTINUOUS
10
0.57415
20
0.551519
11
0.571596
21
0.549812
0
LINE
8
BLACK
6
CONTINUOUS
10
0.571596
20
0.549812
11
0.568583
21
0.549213
0
LINE
8
BLACK
6
CONTINUOUS
10
0.568583
20
0.549213
11
0.391417
21
0.549213
0
LINE
8
BLACK
6
CONTINUOUS
10
1.60858
20
1.28764
11
1.6116
21
1.28704
0
LINE
8
BLACK
6
CONTINUOUS
10
1.6116
20
1.28704
11
1.61415
21
1.28533
0
LINE
8
BLACK
6
CONTINUOUS
10
1.61415
20
1.28533
11
1.61586
21
1.28278
0
LINE
8
BLACK
6
CONTINUOUS
10
1.61586
20
1.28278
11
1.61646
21
1.27976
0
LINE
8
BLACK
6
CONTINUOUS
10
1.61646
20
1.27976
11
1.61646
21
1.19709
0
LINE
8
BLACK
6
CONTINUOUS
10
1.61646
20
1.19709
11
1.61586
21
1.19407
0
LINE
8
BLACK
6
CONTINUOUS
10
1.61586
20
1.19407
11
1.61415
21
1.19152
0
LINE
8
BLACK
6
CONTINUOUS
10
1.61415
20
1.19152
11
1.6116
21
1.18981
0
LINE
8
BLACK
6
CONTINUOUS
10
1.6116
20
1.18981
11
1.60858
21
1.18921
0
LINE
8
BLACK
6
CONTINUOUS
10
1.60858
20
1.18921
11
1.43142
21
1.18921
0
LINE
8
BLACK
6
CONTINUOUS
10
1.43142
20
1.18921
11
1.4284
21
1.18981
0
LINE
8
BLACK
6
CONTINUOUS
10
1.4284
20
1.18981
11
1.42585
21
1.19152
0
LINE
8
BLACK
6
CONTINUOUS
10
1.42585
20
1.19152
11
1.42414
21
1.19407
0
LINE
8
BLACK
6
CONTINUOUS
10
1.42414
20
1.19407
11
1.42354
21
1.19709
0
LINE
8
BLACK
6
CONTINUOUS
10
1.42354
20
1.19709
11
1.42354
21
1.27976
0
LINE
8
BLACK
6
CONTINUOUS
10
1.42354
20
1.27976
11
1.42414
21
1.28278
0
LINE
8
BLACK
6
CONTINUOUS
10
1.42414
20
1.28278
11
1.42585
21
1.28533
0
LINE
8
BLACK
6
CONTINUOUS
10
1.42585
20
1.28533
11
1.4284
21
1.28704
0
LINE
8
BLACK
6
CONTINUOUS
10
1.4284
20
1.28704
11
1.43142
21
1.28764
0
LINE
8
BLACK
6
CONTINUOUS
10
1.43142
20
1.28764
11
1.60858
21
1.28764
0
LINE
8
BLACK
6
CONTINUOUS
10
1.60858
20
1.18921
11
1.6116
21
1.18861
0
LINE
8
BLACK
6
CONTINUOUS
10
1.6116
20
1.18861
11
1.61415
21
1.18691
0
LINE
8
BLACK
6
CONTINUOUS
10
1.61415
20
1.18691
11
1.61586
21
1.18435
0
LINE
8
BLACK
6
CONTINUOUS
10
1.61586
20
1.18435
11
1.61646
21
1.18134
0
LINE
8
BLACK
6
CONTINUOUS
10
1.61646
20
1.18134
11
1.61646
21
1.09866
0
LINE
8
BLACK
6
CONTINUOUS
10
1.61646
20
1.09866
11
1.61586
21
1.09565
0
LINE
8
BLACK
6
CONTINUOUS
10
1.61586
20
1.09565
11
1.61415
21
1.09309
0
LINE
8
BLACK
6
CONTINUOUS
10
1.61415
20
1.09309
11
1.6116
21
1.09139
0
LINE
8
BLACK
6
CONTINUOUS
10
1.6116
20
1.09139
11
1.60858
21
1.09079
0
LINE
8
BLACK
6
CONTINUOUS
10
1.60858
20
1.09079
11
1.43142
21
1.09079
0
LINE
8
BLACK
6
CONTINUOUS
10
1.43142
20
1.09079
11
1.4284
21
1.09139
0
LINE
8
BLACK
6
CONTINUOUS
10
1.4284
20
1.09139
11
1.42585
21
1.09309
0
LINE
8
BLACK
6
CONTINUOUS
10
1.42585
20
1.09309
11
1.42414
21
1.09565
0
LINE
8
BLACK
6
CONTINUOUS
10
1.42414
20
1.09565
11
1.42354
21
1.09866
0
LINE
8
BLACK
6
CONTINUOUS
10
1.42354
20
1.09866
11
1.42354
21
1.18134
0
LINE
8
BLACK
6
CONTINUOUS
10
1.42354
20
1.18134
11
1.42414
21
1.18435
0
LINE
8
BLACK
6
CONTINUOUS
10
1.42414
20
1.18435
11
1.42585
21
1.18691
0
LINE
8
BLACK
6
CONTINUOUS
10
1.42585
20
1.18691
11
1.4284
21
1.18861
0
LINE
8
BLACK
6
CONTINUOUS
10
1.4284
20
1.18861
11
1.43142
21
1.18921
0
LINE
8
BLACK
6
CONTINUOUS
10
1.43142
20
1.18921
11
1.60858
21
1.18921
0
LINE
8
BLACK
6
CONTINUOUS
10
1.60858
20
1.09079
11
1.6116
21
1.09019
0
LINE
8
BLACK
6
CONTINUOUS
10
1.6116
20
1.09019
11
1.61415
21
1.08848
0
LINE
8
BLACK
6
CONTINUOUS
10
1.61415
20
1.08848
11
1.61586
21
1.08593
0
LINE
8
BLACK
6
CONTINUOUS
10
1.61586
20
1.08593
11
1.61646
21
1.08291
0
LINE
8
BLACK
6
CONTINUOUS
10
1.61646
20
1.08291
11
1.61646
21
1.00024
0
LINE
8
BLACK
6
CONTINUOUS
10
1.61646
20
1.00024
11
1.61586
21
0.997223
0
LINE
8
BLACK
6
CONTINUOUS
10
1.61586
20
0.997223
11
1.61415
21
0.994668
0
LINE
8
BLACK
6
CONTINUOUS
10
1.61415
20
0.994668
11
1.6116
21
0.992962
0
LINE
8
BLACK
6
CONTINUOUS
10
1.6116
20
0.992962
11
1.60858
21
0.992362
0
LINE
8
BLACK
6
CONTINUOUS
10
1.60858
20
0.992362
11
1.43142
21
0.992362
0
LINE
8
BLACK
6
CONTINUOUS
10
1.43142
20
0.992362
11
1.4284
21
0.992962
0
LINE
8
BLACK
6
CONTINUOUS
10
1.4284
20
0.992962
11
1.42585
21
0.994668
0
LINE
8
BLACK
6
CONTINUOUS
10
1.42585
20
0.994668
11
1.42414
21
0.997223
0
LINE
8
BLACK
6
CONTINUOUS
10
1.42414
20
0.997223
11
1.42354
21
1.00024
0
LINE
8
BLACK
6
CONTINUOUS
10
1.42354
20
1.00024
11
1.42354
21
1.08291
0
LINE
8
BLACK
6
CONTINUOUS
10
1.42354
20
1.08291
11
1.42414
21
1.08593
0
LINE
8
BLACK
6
CONTINUOUS
10
1.42414
20
1.08593
11
1.42585
21
1.08848
0
LINE
8
BLACK
6
CONTINUOUS
10
1.42585
20
1.08848
11
1.4284
21
1.09019
0
LINE
8
BLACK
6
CONTINUOUS
10
1.4284
20
1.09019
11
1.43142
21
1.09079
0
LINE
8
BLACK
6
CONTINUOUS
10
1.43142
20
1.09079
11
1.60858
21
1.09079
0
LINE
8
BLACK
6
CONTINUOUS
10
1.60858
20
0.967638
11
1.6116
21
0.967038
0
LINE
8
BLACK
6
CONTINUOUS
10
1.6116
20
0.967038
11
1.61415
21
0.965332
0
LINE
8
BLACK
6
CONTINUOUS
10
1.61415
20
0.965332
11
1.61586
21
0.962777
0
LINE
8
BLACK
6
CONTINUOUS
10
1.61586
20
0.962777
11
1.61646
21
0.959764
0
LINE
8
BLACK
6
CONTINUOUS
10
1.61646
20
0.959764
11
1.61646
21
0.877087
0
LINE
8
BLACK
6
CONTINUOUS
10
1.61646
20
0.877087
11
1.61586
21
0.874073
0
LINE
8
BLACK
6
CONTINUOUS
10
1.61586
20
0.874073
11
1.61415
21
0.871519
0
LINE
8
BLACK
6
CONTINUOUS
10
1.61415
20
0.871519
11
1.6116
21
0.869812
0
LINE
8
BLACK
6
CONTINUOUS
10
1.6116
20
0.869812
11
1.60858
21
0.869213
0
LINE
8
BLACK
6
CONTINUOUS
10
1.60858
20
0.869213
11
1.43142
21
0.869213
0
LINE
8
BLACK
6
CONTINUOUS
10
1.43142
20
0.869213
11
1.4284
21
0.869812
0
LINE
8
BLACK
6
CONTINUOUS
10
1.4284
20
0.869812
11
1.42585
21
0.871519
0
LINE
8
BLACK
6
CONTINUOUS
10
1.42585
20
0.871519
11
1.42414
21
0.874073
0
LINE
8
BLACK
6
CONTINUOUS
10
1.42414
20
0.874073
11
1.42354
21
0.877087
0
LINE
8
BLACK
6
CONTINUOUS
10
1.42354
20
0.877087
11
1.42354
21
0.959764
0
LINE
8
BLACK
6
CONTINUOUS
10
1.42354
20
0.959764
11
1.42414
21
0.962777
0
LINE
8
BLACK
6
CONTINUOUS
10
1.42414
20
0.962777
11
1.42585
21
0.965332
0
LINE
8
BLACK
6
CONTINUOUS
10
1.42585
20
0.965332
11
1.4284
21
0.967038
0
LINE
8
BLACK
6
CONTINUOUS
10
1.4284
20
0.967038
11
1.43142
21
0.967638
0
LINE
8
BLACK
6
CONTINUOUS
10
1.43142
20
0.967638
11
1.60858
21
0.967638
0
LINE
8
BLACK
6
CONTINUOUS
10
1.60858
20
0.869213
11
1.6116
21
0.868613
0
LINE
8
BLACK
6
CONTINUOUS
10
1.6116
20
0.868613
11
1.61415
21
0.866906
0
LINE
8
BLACK
6
CONTINUOUS
10
1.61415
20
0.866906
11
1.61586
21
0.864352
0
LINE
8
BLACK
6
CONTINUOUS
10
1.61586
20
0.864352
11
1.61646
21
0.861339
0
LINE
8
BLACK
6
CONTINUOUS
10
1.61646
20
0.861339
11
1.61646
21
0.778661
0
LINE
8
BLACK
6
CONTINUOUS
10
1.61646
20
0.778661
11
1.61586
21
0.775648
0
LINE
8
BLACK
6
CONTINUOUS
10
1.61586
20
0.775648
11
1.61415
21
0.773094
0
LINE
8
BLACK
6
CONTINUOUS
10
1.61415
20
0.773094
11
1.6116
21
0.771387
0
LINE
8
BLACK
6
CONTINUOUS
10
1.6116
20
0.771387
11
1.60858
21
0.770787
0
LINE
8
BLACK
6
CONTINUOUS
10
1.60858
20
0.770787
11
1.43142
21
0.770787
0
LINE
8
BLACK
6
CONTINUOUS
10
1.43142
20
0.770787
11
1.4284
21
0.771387
0
LINE
8
BLACK
6
CONTINUOUS
10
1.4284
20
0.771387
11
1.42585
21
0.773094
0
LINE
8
BLACK
6
CONTINUOUS
10
1.42585
20
0.773094
11
1.42414
21
0.775648
0
LINE
8
BLACK
6
CONTINUOUS
10
1.42414
20
0.775648
11
1.42354
21
0.778661
0
LINE
8
BLACK
6
CONTINUOUS
10
1.42354
20
0.778661
11
1.42354
21
0.861339
0
LINE
8
BLACK
6
CONTINUOUS
10
1.42354
20
0.861339
11
1.42414
21
0.864352
0
LINE
8
BLACK
6
CONTINUOUS
10
1.42414
20
0.864352
11
1.42585
21
0.866906
0
LINE
8
BLACK
6
CONTINUOUS
10
1.42585
20
0.866906
11
1.4284
21
0.868613
0
LINE
8
BLACK
6
CONTINUOUS
10
1.4284
20
0.868613
11
1.43142
21
0.869213
0
LINE
8
BLACK
6
CONTINUOUS
10
1.43142
20
0.869213
11
1.60858
21
0.869213
0
LINE
8
BLACK
6
CONTINUOUS
10
1.60858
20
0.770787
11
1.6116
21
0.770188
0
LINE
8
BLACK
6
CONTINUOUS
10
1.6116
20
0.770188
11
1.61415
21
0.768481
0
LINE
8
BLACK
6
CONTINUOUS
10
1.61415
20
0.768481
11
1.61586
21
0.765927
0
LINE
8
BLACK
6
CONTINUOUS
10
1.61586
20
0.765927
11
1.61646
21
0.762913
0
LINE
8
BLACK
6
CONTINUOUS
10
1.61646
20
0.762913
11
1.61646
21
0.680236
0
LINE
8
BLACK
6
CONTINUOUS
10
1.61646
20
0.680236
11
1.61586
21
0.677223
0
LINE
8
BLACK
6
CONTINUOUS
10
1.61586
20
0.677223
11
1.61415
21
0.674668
0
LINE
8
BLACK
6
CONTINUOUS
10
1.61415
20
0.674668
11
1.6116
21
0.672962
0
LINE
8
BLACK
6
CONTINUOUS
10
1.6116
20
0.672962
11
1.60858
21
0.672362
0
LINE
8
BLACK
6
CONTINUOUS
10
1.60858
20
0.672362
11
1.43142
21
0.672362
0
LINE
8
BLACK
6
CONTINUOUS
10
1.43142
20
0.672362
11
1.4284
21
0.672962
0
LINE
8
BLACK
6
CONTINUOUS
10
1.4284
20
0.672962
11
1.42585
21
0.674668
0
LINE
8
BLACK
6
CONTINUOUS
10
1.42585
20
0.674668
11
1.42414
21
0.677223
0
LINE
8
BLACK
6
CONTINUOUS
10
1.42414
20
0.677223
11
1.42354
21
0.680236
0
LINE
8
BLACK
6
CONTINUOUS
10
1.42354
20
0.680236
11
1.42354
21
0.762913
0
LINE
8
BLACK
6
CONTINUOUS
10
1.42354
20
0.762913
11
1.42414
21
0.765927
0
LINE
8
BLACK
6
CONTINUOUS
10
1.42414
20
0.765927
11
1.42585
21
0.768481
0
LINE
8
BLACK
6
CONTINUOUS
10
1.42585
20
0.768481
11
1.4284
21
0.770188
0
LINE
8
BLACK
6
CONTINUOUS
10
1.4284
20
0.770188
11
1.43142
21
0.770787
0
LINE
8
BLACK
6
CONTINUOUS
10
1.43142
20
0.770787
11
1.60858
21
0.770787
0
LINE
8
BLACK
6
CONTINUOUS
10
1.60858
20
0.647638
11
1.6116
21
0.647038
0
LINE
8
BLACK
6
CONTINUOUS
10
1.6116
20
0.647038
11
1.61415
21
0.645332
0
LINE
8
BLACK
6
CONTINUOUS
10
1.61415
20
0.645332
11
1.61586
21
0.642777
0
LINE
8
BLACK
6
CONTINUOUS
10
1.61586
20
0.642777
11
1.61646
21
0.639764
0
LINE
8
BLACK
6
CONTINUOUS
10
1.61646
20
0.639764
11
1.61646
21
0.557087
0
LINE
8
BLACK
6
CONTINUOUS
10
1.61646
20
0.557087
11
1.61586
21
0.554073
0
LINE
8
BLACK
6
CONTINUOUS
10
1.61586
20
0.554073
11
1.61415
21
0.551519
0
LINE
8
BLACK
6
CONTINUOUS
10
1.61415
20
0.551519
11
1.6116
21
0.549812
0
LINE
8
BLACK
6
CONTINUOUS
10
1.6116
20
0.549812
11
1.60858
21
0.549213
0
LINE
8
BLACK
6
CONTINUOUS
10
1.60858
20
0.549213
11
1.43142
21
0.549213
0
LINE
8
BLACK
6
CONTINUOUS
10
1.43142
20
0.549213
11
1.4284
21
0.549812
0
LINE
8
BLACK
6
CONTINUOUS
10
1.4284
20
0.549812
11
1.42585
21
0.551519
0
LINE
8
BLACK
6
CONTINUOUS
10
1.42585
20
0.551519
11
1.42414
21
0.554073
0
LINE
8
BLACK
6
CONTINUOUS
10
1.42414
20
0.554073
11
1.42354
21
0.557087
0
LINE
8
BLACK
6
CONTINUOUS
10
1.42354
20
0.557087
11
1.42354
21
0.639764
0
LINE
8
BLACK
6
CONTINUOUS
10
1.42354
20
0.639764
11
1.42414
21
0.642777
0
LINE
8
BLACK
6
CONTINUOUS
10
1.42414
20
0.642777
11
1.42585
21
0.645332
0
LINE
8
BLACK
6
CONTINUOUS
10
1.42585
20
0.645332
11
1.4284
21
0.647038
0
LINE
8
BLACK
6
CONTINUOUS
10
1.4284
20
0.647038
11
1.43142
21
0.647638
0
LINE
8
BLACK
6
CONTINUOUS
10
1.43142
20
0.647638
11
1.60858
21
0.647638
0
LINE
8
BLACK
6
CONTINUOUS
10
1.60858
20
0.549213
11
1.6116
21
0.548613
0
LINE
8
BLACK
6
CONTINUOUS
10
1.6116
20
0.548613
11
1.61415
21
0.546906
0
LINE
8
BLACK
6
CONTINUOUS
10
1.61415
20
0.546906
11
1.61586
21
0.544352
0
LINE
8
BLACK
6
CONTINUOUS
10
1.61586
20
0.544352
11
1.61646
21
0.541339
0
LINE
8
BLACK
6
CONTINUOUS
10
1.61646
20
0.541339
11
1.61646
21
0.458661
0
LINE
8
BLACK
6
CONTINUOUS
10
1.61646
20
0.458661
11
1.61586
21
0.455648
0
LINE
8
BLACK
6
CONTINUOUS
10
1.61586
20
0.455648
11
1.61415
21
0.453094
0
LINE
8
BLACK
6
CONTINUOUS
10
1.61415
20
0.453094
11
1.6116
21
0.451387
0
LINE
8
BLACK
6
CONTINUOUS
10
1.6116
20
0.451387
11
1.60858
21
0.450787
0
LINE
8
BLACK
6
CONTINUOUS
10
1.60858
20
0.450787
11
1.43142
21
0.450787
0
LINE
8
BLACK
6
CONTINUOUS
10
1.43142
20
0.450787
11
1.4284
21
0.451387
0
LINE
8
BLACK
6
CONTINUOUS
10
1.4284
20
0.451387
11
1.42585
21
0.453094
0
LINE
8
BLACK
6
CONTINUOUS
10
1.42585
20
0.453094
11
1.42414
21
0.455648
0
LINE
8
BLACK
6
CONTINUOUS
10
1.42414
20
0.455648
11
1.42354
21
0.458661
0
LINE
8
BLACK
6
CONTINUOUS
10
1.42354
20
0.458661
11
1.42354
21
0.541339
0
LINE
8
BLACK
6
CONTINUOUS
10
1.42354
20
0.541339
11
1.42414
21
0.544352
0
LINE
8
BLACK
6
CONTINUOUS
10
1.42414
20
0.544352
11
1.42585
21
0.546906
0
LINE
8
BLACK
6
CONTINUOUS
10
1.42585
20
0.546906
11
1.4284
21
0.548613
0
LINE
8
BLACK
6
CONTINUOUS
10
1.4284
20
0.548613
11
1.43142
21
0.549213
0
LINE
8
BLACK
6
CONTINUOUS
10
1.43142
20
0.549213
11
1.60858
21
0.549213
0
LINE
8
BLACK
6
CONTINUOUS
10
1.60858
20
0.450787
11
1.6116
21
0.450188
0
LINE
8
BLACK
6
CONTINUOUS
10
1.6116
20
0.450188
11
1.61415
21
0.448481
0
LINE
8
BLACK
6
CONTINUOUS
10
1.61415
20
0.448481
11
1.61586
21
0.445927
0
LINE
8
BLACK
6
CONTINUOUS
10
1.61586
20
0.445927
11
1.61646
21
0.442913
0
LINE
8
BLACK
6
CONTINUOUS
10
1.61646
20
0.442913
11
1.61646
21
0.360236
0
LINE
8
BLACK
6
CONTINUOUS
10
1.61646
20
0.360236
11
1.61586
21
0.357223
0
LINE
8
BLACK
6
CONTINUOUS
10
1.61586
20
0.357223
11
1.61415
21
0.354668
0
LINE
8
BLACK
6
CONTINUOUS
10
1.61415
20
0.354668
11
1.6116
21
0.352962
0
LINE
8
BLACK
6
CONTINUOUS
10
1.6116
20
0.352962
11
1.60858
21
0.352362
0
LINE
8
BLACK
6
CONTINUOUS
10
1.60858
20
0.352362
11
1.43142
21
0.352362
0
LINE
8
BLACK
6
CONTINUOUS
10
1.43142
20
0.352362
11
1.4284
21
0.352962
0
LINE
8
BLACK
6
CONTINUOUS
10
1.4284
20
0.352962
11
1.42585
21
0.354668
0
LINE
8
BLACK
6
CONTINUOUS
10
1.42585
20
0.354668
11
1.42414
21
0.357223
0
LINE
8
BLACK
6
CONTINUOUS
10
1.42414
20
0.357223
11
1.42354
21
0.360236
0
LINE
8
BLACK
6
CONTINUOUS
10
1.42354
20
0.360236
11
1.42354
21
0.442913
0
LINE
8
BLACK
6
CONTINUOUS
10
1.42354
20
0.442913
11
1.42414
21
0.445927
0
LINE
8
BLACK
6
CONTINUOUS
10
1.42414
20
0.445927
11
1.42585
21
0.448481
0
LINE
8
BLACK
6
CONTINUOUS
10
1.42585
20
0.448481
11
1.4284
21
0.450188
0
LINE
8
BLACK
6
CONTINUOUS
10
1.4284
20
0.450188
11
1.43142
21
0.450787
0
LINE
8
BLACK
6
CONTINUOUS
10
1.43142
20
0.450787
11
1.60858
21
0.450787
0
CIRCLE
8
BLACK
10
0.72
20
0.22
40
0.0570866
0
CIRCLE
8
BLACK
10
0.82
20
0.12
40
0.0610236
0
CIRCLE
8
BLACK
10
0.82
20
0.32
40
0.0610236
0
CIRCLE
8
BLACK
10
0.62
20
0.32
40
0.0610236
0
CIRCLE
8
BLACK
10
0.62
20
0.12
40
0.0610236
0
LINE
8
BLACK
6
CONTINUOUS
10
1.09236
20
0.468583
11
1.09296
21
0.471596
0
LINE
8
BLACK
6
CONTINUOUS
10
1.09296
20
0.471596
11
1.09467
21
0.47415
0
LINE
8
BLACK
6
CONTINUOUS
10
1.09467
20
0.47415
11
1.09722
21
0.475857
0
LINE
8
BLACK
6
CONTINUOUS
10
1.09722
20
0.475857
11
1.10024
21
0.476457
0
LINE
8
BLACK
6
CONTINUOUS
10
1.10024
20
0.476457
11
1.18291
21
0.476457
0
LINE
8
BLACK
6
CONTINUOUS
10
1.18291
20
0.476457
11
1.18593
21
0.475857
0
LINE
8
BLACK
6
CONTINUOUS
10
1.18593
20
0.475857
11
1.18848
21
0.47415
0
LINE
8
BLACK
6
CONTINUOUS
10
1.18848
20
0.47415
11
1.19019
21
0.471596
0
LINE
8
BLACK
6
CONTINUOUS
10
1.19019
20
0.471596
11
1.19079
21
0.468583
0
LINE
8
BLACK
6
CONTINUOUS
10
1.19079
20
0.468583
11
1.19079
21
0.291417
0
LINE
8
BLACK
6
CONTINUOUS
10
1.19079
20
0.291417
11
1.19019
21
0.288404
0
LINE
8
BLACK
6
CONTINUOUS
10
1.19019
20
0.288404
11
1.18848
21
0.28585
0
LINE
8
BLACK
6
CONTINUOUS
10
1.18848
20
0.28585
11
1.18593
21
0.284143
0
LINE
8
BLACK
6
CONTINUOUS
10
1.18593
20
0.284143
11
1.18291
21
0.283543
0
LINE
8
BLACK
6
CONTINUOUS
10
1.18291
20
0.283543
11
1.10024
21
0.283543
0
LINE
8
BLACK
6
CONTINUOUS
10
1.10024
20
0.283543
11
1.09722
21
0.284143
0
LINE
8
BLACK
6
CONTINUOUS
10
1.09722
20
0.284143
11
1.09467
21
0.28585
0
LINE
8
BLACK
6
CONTINUOUS
10
1.09467
20
0.28585
11
1.09296
21
0.288404
0
LINE
8
BLACK
6
CONTINUOUS
10
1.09296
20
0.288404
11
1.09236
21
0.291417
0
LINE
8
BLACK
6
CONTINUOUS
10
1.09236
20
0.291417
11
1.09236
21
0.468583
0
LINE
8
BLACK
6
CONTINUOUS
10
1.19079
20
0.468583
11
1.19139
21
0.471596
0
LINE
8
BLACK
6
CONTINUOUS
10
1.19139
20
0.471596
11
1.19309
21
0.47415
0
LINE
8
BLACK
6
CONTINUOUS
10
1.19309
20
0.47415
11
1.19565
21
0.475857
0
LINE
8
BLACK
6
CONTINUOUS
10
1.19565
20
0.475857
11
1.19866
21
0.476457
0
LINE
8
BLACK
6
CONTINUOUS
10
1.19866
20
0.476457
11
1.28134
21
0.476457
0
LINE
8
BLACK
6
CONTINUOUS
10
1.28134
20
0.476457
11
1.28435
21
0.475857
0
LINE
8
BLACK
6
CONTINUOUS
10
1.28435
20
0.475857
11
1.28691
21
0.47415
0
LINE
8
BLACK
6
CONTINUOUS
10
1.28691
20
0.47415
11
1.28861
21
0.471596
0
LINE
8
BLACK
6
CONTINUOUS
10
1.28861
20
0.471596
11
1.28921
21
0.468583
0
LINE
8
BLACK
6
CONTINUOUS
10
1.28921
20
0.468583
11
1.28921
21
0.291417
0
LINE
8
BLACK
6
CONTINUOUS
10
1.28921
20
0.291417
11
1.28861
21
0.288404
0
LINE
8
BLACK
6
CONTINUOUS
10
1.28861
20
0.288404
11
1.28691
21
0.28585
0
LINE
8
BLACK
6
CONTINUOUS
10
1.28691
20
0.28585
11
1.28435
21
0.284143
0
LINE
8
BLACK
6
CONTINUOUS
10
1.28435
20
0.284143
11
1.28134
21
0.283543
0
LINE
8
BLACK
6
CONTINUOUS
10
1.28134
20
0.283543
11
1.19866
21
0.283543
0
LINE
8
BLACK
6
CONTINUOUS
10
1.19866
20
0.283543
11
1.19565
21
0.284143
0
LINE
8
BLACK
6
CONTINUOUS
10
1.19565
20
0.284143
11
1.19309
21
0.28585
0
LINE
8
BLACK
6
CONTINUOUS
10
1.19309
20
0.28585
11
1.19139
21
0.288404
0
LINE
8
BLACK
6
CONTINUOUS
10
1.19139
20
0.288404
11
1.19079
21
0.291417
0
LINE
8
BLACK
6
CONTINUOUS
10
1.19079
20
0.291417
11
1.19079
21
0.468583
0
LINE
8
BLACK
6
CONTINUOUS
10
1.28921
20
0.468583
11
1.28981
21
0.471596
0
LINE
8
BLACK
6
CONTINUOUS
10
1.28981
20
0.471596
11
1.29152
21
0.47415
0
LINE
8
BLACK
6
CONTINUOUS
10
1.29152
20
0.47415
11
1.29407
21
0.475857
0
LINE
8
BLACK
6
CONTINUOUS
10
1.29407
20
0.475857
11
1.29709
21
0.476457
0
LINE
8
BLACK
6
CONTINUOUS
10
1.29709
20
0.476457
11
1.37976
21
0.476457
0
LINE
8
BLACK
6
CONTINUOUS
10
1.37976
20
0.476457
11
1.38278
21
0.475857
0
LINE
8
BLACK
6
CONTINUOUS
10
1.38278
20
0.475857
11
1.38533
21
0.47415
0
LINE
8
BLACK
6
CONTINUOUS
10
1.38533
20
0.47415
11
1.38704
21
0.471596
0
LINE
8
BLACK
6
CONTINUOUS
10
1.38704
20
0.471596
11
1.38764
21
0.468583
0
LINE
8
BLACK
6
CONTINUOUS
10
1.38764
20
0.468583
11
1.38764
21
0.291417
0
LINE
8
BLACK
6
CONTINUOUS
10
1.38764
20
0.291417
11
1.38704
21
0.288404
0
LINE
8
BLACK
6
CONTINUOUS
10
1.38704
20
0.288404
11
1.38533
21
0.28585
0
LINE
8
BLACK
6
CONTINUOUS
10
1.38533
20
0.28585
11
1.38278
21
0.284143
0
LINE
8
BLACK
6
CONTINUOUS
10
1.38278
20
0.284143
11
1.37976
21
0.283543
0
LINE
8
BLACK
6
CONTINUOUS
10
1.37976
20
0.283543
11
1.29709
21
0.283543
0
LINE
8
BLACK
6
CONTINUOUS
10
1.29709
20
0.283543
11
1.29407
21
0.284143
0
LINE
8
BLACK
6
CONTINUOUS
10
1.29407
20
0.284143
11
1.29152
21
0.28585
0
LINE
8
BLACK
6
CONTINUOUS
10
1.29152
20
0.28585
11
1.28981
21
0.288404
0
LINE
8
BLACK
6
CONTINUOUS
10
1.28981
20
0.288404
11
1.28921
21
0.291417
0
LINE
8
BLACK
6
CONTINUOUS
10
1.28921
20
0.291417
11
1.28921
21
0.468583
0
LINE
8
BLACK
6
CONTINUOUS
10
0.65
20
1.35213
11
0.646987
21
1.35273
0
LINE
8
BLACK
6
CONTINUOUS
10
0.646987
20
1.35273
11
0.644432
21
1.35443
0
LINE
8
BLACK
6
CONTINUOUS
10
0.644432
20
1.35443
11
0.642725
21
1.35699
0
LINE
8
BLACK
6
CONTINUOUS
10
0.642725
20
1.35699
11
0.642126
21
1.36
0
LINE
8
BLACK
6
CONTINUOUS
10
0.642126
20
1.36
11
0.642126
21
1.42
0
LINE
8
BLACK
6
CONTINUOUS
10
0.642126
20
1.42
11
0.642725
21
1.42301
0
LINE
8
BLACK
6
CONTINUOUS
10
0.642725
20
1.42301
11
0.644432
21
1.42557
0
LINE
8
BLACK
6
CONTINUOUS
10
0.644432
20
1.42557
11
0.646987
21
1.42727
0
LINE
8
BLACK
6
CONTINUOUS
10
0.646987
20
1.42727
11
0.65
21
1.42787
0
LINE
8
BLACK
6
CONTINUOUS
10
0.65
20
1.42787
11
0.71
21
1.42787
0
LINE
8
BLACK
6
CONTINUOUS
10
0.71
20
1.42787
11
0.713013
21
1.42727
0
LINE
8
BLACK
6
CONTINUOUS
10
0.713013
20
1.42727
11
0.715568
21
1.42557
0
LINE
8
BLACK
6
CONTINUOUS
10
0.715568
20
1.42557
11
0.717275
21
1.42301
0
LINE
8
BLACK
6
CONTINUOUS
10
0.717275
20
1.42301
11
0.717874
21
1.42
0
LINE
8
BLACK
6
CONTINUOUS
10
0.717874
20
1.42
11
0.717874
21
1.36
0
LINE
8
BLACK
6
CONTINUOUS
10
0.717874
20
1.36
11
0.717275
21
1.35699
0
LINE
8
BLACK
6
CONTINUOUS
10
0.717275
20
1.35699
11
0.715568
21
1.35443
0
LINE
8
BLACK
6
CONTINUOUS
10
0.715568
20
1.35443
11
0.713013
21
1.35273
0
LINE
8
BLACK
6
CONTINUOUS
10
0.713013
20
1.35273
11
0.71
21
1.35213
0
LINE
8
BLACK
6
CONTINUOUS
10
0.71
20
1.35213
11
0.65
21
1.35213
0
LINE
8
BLACK
6
CONTINUOUS
10
0.65
20
1.45213
11
0.646987
21
1.45273
0
LINE
8
BLACK
6
CONTINUOUS
10
0.646987
20
1.45273
11
0.644432
21
1.45443
0
LINE
8
BLACK
6
CONTINUOUS
10
0.644432
20
1.45443
11
0.642725
21
1.45699
0
LINE
8
BLACK
6
CONTINUOUS
10
0.642725
20
1.45699
11
0.642126
21
1.46
0
LINE
8
BLACK
6
CONTINUOUS
10
0.642126
20
1.46
11
0.642126
21
1.52
0
LINE
8
BLACK
6
CONTINUOUS
10
0.642126
20
1.52
11
0.642725
21
1.52301
0
LINE
8
BLACK
6
CONTINUOUS
10
0.642725
20
1.52301
11
0.644432
21
1.52557
0
LINE
8
BLACK
6
CONTINUOUS
10
0.644432
20
1.52557
11
0.646987
21
1.52727
0
LINE
8
BLACK
6
CONTINUOUS
10
0.646987
20
1.52727
11
0.65
21
1.52787
0
LINE
8
BLACK
6
CONTINUOUS
10
0.65
20
1.52787
11
0.71
21
1.52787
0
LINE
8
BLACK
6
CONTINUOUS
10
0.71
20
1.52787
11
0.713013
21
1.52727
0
LINE
8
BLACK
6
CONTINUOUS
10
0.713013
20
1.52727
11
0.715568
21
1.52557
0
LINE
8
BLACK
6
CONTINUOUS
10
0.715568
20
1.52557
11
0.717275
21
1.52301
0
LINE
8
BLACK
6
CONTINUOUS
10
0.717275
20
1.52301
11
0.717874
21
1.52
0
LINE
8
BLACK
6
CONTINUOUS
10
0.717874
20
1.52
11
0.717874
21
1.46
0
LINE
8
BLACK
6
CONTINUOUS
10
0.717874
20
1.46
11
0.717275
21
1.45699
0
LINE
8
BLACK
6
CONTINUOUS
10
0.717275
20
1.45699
11
0.715568
21
1.45443
0
LINE
8
BLACK
6
CONTINUOUS
10
0.715568
20
1.45443
11
0.713013
21
1.45273
0
LINE
8
BLACK
6
CONTINUOUS
10
0.713013
20
1.45273
11
0.71
21
1.45213
0
LINE
8
BLACK
6
CONTINUOUS
10
0.71
20
1.45213
11
0.65
21
1.45213
0
LINE
8
BLACK
6
CONTINUOUS
10
0.75
20
1.35213
11
0.746987
21
1.35273
0
LINE
8
BLACK
6
CONTINUOUS
10
0.746987
20
1.35273
11
0.744432
21
1.35443
0
LINE
8
BLACK
6
CONTINUOUS
10
0.744432
20
1.35443
11
0.742725
21
1.35699
0
LINE
8
BLACK
6
CONTINUOUS
10
0.742725
20
1.35699
11
0.742126
21
1.36
0
LINE
8
BLACK
6
CONTINUOUS
10
0.742126
20
1.36
11
0.742126
21
1.42
0
LINE
8
BLACK
6
CONTINUOUS
10
0.742126
20
1.42
11
0.742725
21
1.42301
0
LINE
8
BLACK
6
CONTINUOUS
10
0.742725
20
1.42301
11
0.744432
21
1.42557
0
LINE
8
BLACK
6
CONTINUOUS
10
0.744432
20
1.42557
11
0.746987
21
1.42727
0
LINE
8
BLACK
6
CONTINUOUS
10
0.746987
20
1.42727
11
0.75
21
1.42787
0
LINE
8
BLACK
6
CONTINUOUS
10
0.75
20
1.42787
11
0.81
21
1.42787
0
LINE
8
BLACK
6
CONTINUOUS
10
0.81
20
1.42787
11
0.813013
21
1.42727
0
LINE
8
BLACK
6
CONTINUOUS
10
0.813013
20
1.42727
11
0.815568
21
1.42557
0
LINE
8
BLACK
6
CONTINUOUS
10
0.815568
20
1.42557
11
0.817275
21
1.42301
0
LINE
8
BLACK
6
CONTINUOUS
10
0.817275
20
1.42301
11
0.817874
21
1.42
0
LINE
8
BLACK
6
CONTINUOUS
10
0.817874
20
1.42
11
0.817874
21
1.36
0
LINE
8
BLACK
6
CONTINUOUS
10
0.817874
20
1.36
11
0.817275
21
1.35699
0
LINE
8
BLACK
6
CONTINUOUS
10
0.817275
20
1.35699
11
0.815568
21
1.35443
0
LINE
8
BLACK
6
CONTINUOUS
10
0.815568
20
1.35443
11
0.813013
21
1.35273
0
LINE
8
BLACK
6
CONTINUOUS
10
0.813013
20
1.35273
11
0.81
21
1.35213
0
LINE
8
BLACK
6
CONTINUOUS
10
0.81
20
1.35213
11
0.75
21
1.35213
0
LINE
8
BLACK
6
CONTINUOUS
10
0.75
20
1.45213
11
0.746987
21
1.45273
0
LINE
8
BLACK
6
CONTINUOUS
10
0.746987
20
1.45273
11
0.744432
21
1.45443
0
LINE
8
BLACK
6
CONTINUOUS
10
0.744432
20
1.45443
11
0.742725
21
1.45699
0
LINE
8
BLACK
6
CONTINUOUS
10
0.742725
20
1.45699
11
0.742126
21
1.46
0
LINE
8
BLACK
6
CONTINUOUS
10
0.742126
20
1.46
11
0.742126
21
1.52
0
LINE
8
BLACK
6
CONTINUOUS
10
0.742126
20
1.52
11
0.742725
21
1.52301
0
LINE
8
BLACK
6
CONTINUOUS
10
0.742725
20
1.52301
11
0.744432
21
1.52557
0
LINE
8
BLACK
6
CONTINUOUS
10
0.744432
20
1.52557
11
0.746987
21
1.52727
0
LINE
8
BLACK
6
CONTINUOUS
10
0.746987
20
1.52727
11
0.75
21
1.52787
0
LINE
8
BLACK
6
CONTINUOUS
10
0.75
20
1.52787
11
0.81
21
1.52787
0
LINE
8
BLACK
6
CONTINUOUS
10
0.81
20
1.52787
11
0.813013
21
1.52727
0
LINE
8
BLACK
6
CONTINUOUS
10
0.813013
20
1.52727
11
0.815568
21
1.52557
0
LINE
8
BLACK
6
CONTINUOUS
10
0.815568
20
1.52557
11
0.817275
21
1.52301
0
LINE
8
BLACK
6
CONTINUOUS
10
0.817275
20
1.52301
11
0.817874
21
1.52
0
LINE
8
BLACK
6
CONTINUOUS
10
0.817874
20
1.52
11
0.817874
21
1.46
0
LINE
8
BLACK
6
CONTINUOUS
10
0.817874
20
1.46
11
0.817275
21
1.45699
0
LINE
8
BLACK
6
CONTINUOUS
10
0.817275
20
1.45699
11
0.815568
21
1.45443
0
LINE
8
BLACK
6
CONTINUOUS
10
0.815568
20
1.45443
11
0.813013
21
1.45273
0
LINE
8
BLACK
6
CONTINUOUS
10
0.813013
20
1.45273
11
0.81
21
1.45213
0
LINE
8
BLACK
6
CONTINUOUS
10
0.81
20
1.45213
11
0.75
21
1.45213
0
LINE
8
BLACK
6
CONTINUOUS
10
0.85
20
1.35213
11
0.846987
21
1.35273
0
LINE
8
BLACK
6
CONTINUOUS
10
0.846987
20
1.35273
11
0.844432
21
1.35443
0
LINE
8
BLACK
6
CONTINUOUS
10
0.844432
20
1.35443
11
0.842725
21
1.35699
0
LINE
8
BLACK
6
CONTINUOUS
10
0.842725
20
1.35699
11
0.842126
21
1.36
0
LINE
8
BLACK
6
CONTINUOUS
10
0.842126
20
1.36
11
0.842126
21
1.42
0
LINE
8
BLACK
6
CONTINUOUS
10
0.842126
20
1.42
11
0.842725
21
1.42301
0
LINE
8
BLACK
6
CONTINUOUS
10
0.842725
20
1.42301
11
0.844432
21
1.42557
0
LINE
8
BLACK
6
CONTINUOUS
10
0.844432
20
1.42557
11
0.846987
21
1.42727
0
LINE
8
BLACK
6
CONTINUOUS
10
0.846987
20
1.42727
11
0.85
21
1.42787
0
LINE
8
BLACK
6
CONTINUOUS
10
0.85
20
1.42787
11
0.91
21
1.42787
0
LINE
8
BLACK
6
CONTINUOUS
10
0.91
20
1.42787
11
0.913013
21
1.42727
0
LINE
8
BLACK
6
CONTINUOUS
10
0.913013
20
1.42727
11
0.915568
21
1.42557
0
LINE
8
BLACK
6
CONTINUOUS
10
0.915568
20
1.42557
11
0.917275
21
1.42301
0
LINE
8
BLACK
6
CONTINUOUS
10
0.917275
20
1.42301
11
0.917874
21
1.42
0
LINE
8
BLACK
6
CONTINUOUS
10
0.917874
20
1.42
11
0.917874
21
1.36
0
LINE
8
BLACK
6
CONTINUOUS
10
0.917874
20
1.36
11
0.917275
21
1.35699
0
LINE
8
BLACK
6
CONTINUOUS
10
0.917275
20
1.35699
11
0.915568
21
1.35443
0
LINE
8
BLACK
6
CONTINUOUS
10
0.915568
20
1.35443
11
0.913013
21
1.35273
0
LINE
8
BLACK
6
CONTINUOUS
10
0.913013
20
1.35273
11
0.91
21
1.35213
0
LINE
8
BLACK
6
CONTINUOUS
10
0.91
20
1.35213
11
0.85
21
1.35213
0
LINE
8
BLACK
6
CONTINUOUS
10
0.85
20
1.45213
11
0.846987
21
1.45273
0
LINE
8
BLACK
6
CONTINUOUS
10
0.846987
20
1.45273
11
0.844432
21
1.45443
0
LINE
8
BLACK
6
CONTINUOUS
10
0.844432
20
1.45443
11
0.842725
21
1.45699
0
LINE
8
BLACK
6
CONTINUOUS
10
0.842725
20
1.45699
11
0.842126
21
1.46
0
LINE
8
BLACK
6
CONTINUOUS
10
0.842126
20
1.46
11
0.842126
21
1.52
0
LINE
8
BLACK
6
CONTINUOUS
10
0.842126
20
1.52
11
0.842725
21
1.52301
0
LINE
8
BLACK
6
CONTINUOUS
10
0.842725
20
1.52301
11
0.844432
21
1.52557
0
LINE
8
BLACK
6
CONTINUOUS
10
0.844432
20
1.52557
11
0.846987
21
1.52727
0
LINE
8
BLACK
6
CONTINUOUS
10
0.846987
20
1.52727
11
0.85
21
1.52787
0
LINE
8
BLACK
6
CONTINUOUS
10
0.85
20
1.52787
11
0.91
21
1.52787
0
LINE
8
BLACK
6
CONTINUOUS
10
0.91
20
1.52787
11
0.913013
21
1.52727
0
LINE
8
BLACK
6
CONTINUOUS
10
0.913013
20
1.52727
11
0.915568
21
1.52557
0
LINE
8
BLACK
6
CONTINUOUS
10
0.915568
20
1.52557
11
0.917275
21
1.52301
0
LINE
8
BLACK
6
CONTINUOUS
10
0.917275
20
1.52301
11
0.917874
21
1.52
0
LINE
8
BLACK
6
CONTINUOUS
10
0.917874
20
1.52
11
0.917874
21
1.46
0
LINE
8
BLACK
6
CONTINUOUS
10
0.917874
20
1.46
11
0.917275
21
1.45699
0
LINE
8
BLACK
6
CONTINUOUS
10
0.917275
20
1.45699
11
0.915568
21
1.45443
0
LINE
8
BLACK
6
CONTINUOUS
10
0.915568
20
1.45443
11
0.913013
21
1.45273
0
LINE
8
BLACK
6
CONTINUOUS
10
0.913013
20
1.45273
11
0.91
21
1.45213
0
LINE
8
BLACK
6
CONTINUOUS
10
0.91
20
1.45213
11
0.85
21
1.45213
0
CIRCLE
8
BLACK
10
1.8
20
1.4
40
0.125984
0
CIRCLE
8
BLACK
10
1.8
20
0.2
40
0.125984
0
CIRCLE
8
BLACK
10
0.2
20
1.4
40
0.125984
0
CIRCLE
8
BLACK
10
0.2
20
0.2
40
0.125984
0
CIRCLE
8
BLACK
10
1.8
20
1.02
40
0.125984
0
CIRCLE
8
BLACK
10
1.8
20
0.62
40
0.125984
0
CIRCLE
8
BLACK
10
0.2
20
1.02
40
0.125984
0
CIRCLE
8
BLACK
10
0.2
20
0.62
40
0.125984
0
CIRCLE
8
BLACK
10
1.42
20
0.14
40
0.125984
0
CIRCLE
8
BLACK
10
1.06
20
0.14
40
0.125984
0
LINE
8
BLACK
6
CONTINUOUS
10
0.576532
20
0.371363
11
0.577276
21
0.369073
0
LINE
8
BLACK
6
CONTINUOUS
10
0.577276
20
0.369073
11
0.579203
21
0.367673
0
LINE
8
BLACK
6
CONTINUOUS
10
0.579203
20
0.367673
11
0.58159
21
0.367673
0
LINE
8
BLACK
6
CONTINUOUS
10
0.58159
20
0.367673
11
0.582858
21
0.368383
0
LINE
8
BLACK
6
CONTINUOUS
10
0.582858
20
0.368383
11
0.582937
21
0.368382
0
LINE
8
BLACK
6
CONTINUOUS
10
0.582937
20
0.368382
11
0.582975
21
0.368313
0
LINE
8
BLACK
6
CONTINUOUS
10
0.582975
20
0.368313
11
0.582947
21
0.368254
0
LINE
8
BLACK
6
CONTINUOUS
10
0.582947
20
0.368254
11
0.576906
21
0.363094
0
LINE
8
BLACK
6
CONTINUOUS
10
0.576906
20
0.363094
11
0.576517
21
0.362639
0
LINE
8
BLACK
6
CONTINUOUS
10
0.576517
20
0.362639
11
0.576442
21
0.362613
0
LINE
8
BLACK
6
CONTINUOUS
10
0.576442
20
0.362613
11
0.576382
21
0.362664
0
LINE
8
BLACK
6
CONTINUOUS
10
0.576382
20
0.362664
11
0.576378
21
0.36269
0
LINE
8
BLACK
6
CONTINUOUS
10
0.576378
20
0.36269
11
0.576378
21
0.371338
0
LINE
8
BLACK
6
CONTINUOUS
10
0.576378
20
0.371338
11
0.576417
21
0.371407
0
LINE
8
BLACK
6
CONTINUOUS
10
0.576417
20
0.371407
11
0.576496
21
0.371407
0
LINE
8
BLACK
6
CONTINUOUS
10
0.576496
20
0.371407
11
0.576532
21
0.371363
  0
ENDSEC
  0
EOF
