  0
SECTION
  2
HEADER
  9
$ANGBASE
  50
0.0
  9
$ANGDIR
  70
1
  9
$MEASUREMENT
  70
0
  0
ENDSEC
  0
SECTION
  2
TABLES
  0
TABLE
  2
LTYPE
  70
4
  0
LTYPE
  5
40F
  2
CONTINUOUS
  70
0
  3
Solid line
  72
65
  73
0
  40
0.0
  0
LTYPE
  5
410
  2
DASHDOT
 70
0
  3
Dash Dot ____ _ ____ _
 72
65
 73
4
 40
2.0
 49
1.25
 49
-0.25
 49
0.25
 49
-0.25
  0
LTYPE
  5
411
  2
DASHED
 70
0
  3
Dashed __ __ __ __ __
 72
65
 73
2
 40
0.75
 49
0.5
 49
-0.25
  0
LTYPE
  5
43B
  2
DOTTED
 70
0
  3
Dotted .  .  .  .
 72
65
 73
2
 40
0.2
 49
0.0
 49
-0.2
  0
ENDTAB
  0
TABLE
  2
STYLE
  70
4
  0
STYLE
  2
KICAD
  70
0
  40
0
  41
1
  42
1
  50
0
  71
0
  3
isocp.shx
  0
STYLE
  2
KICADB
  70
0
  40
0
  41
1
  42
1
  50
0
  71
0
  3
isocp.shx
  0
STYLE
  2
KICADI
  70
0
  40
0
  41
1
  42
1
  50
15
  71
0
  3
isocp.shx
  0
STYLE
  2
KICADBI
  70
0
  40
0
  41
1
  42
1
  50
15
  71
0
  3
isocp.shx
  0
ENDTAB
  0
TABLE
  2
LAYER
  70
1
  0
LAYER
  2
BLACK
  70
0
  62
7
  6
CONTINUOUS
  0
ENDTAB
  0
ENDSEC
  0
SECTION
  2
ENTITIES
0
LINE
8
BLACK
6
CONTINUOUS
10
6.25063
20
-4.86555
11
6.25126
21
-4.86555
0
LINE
8
BLACK
6
CONTINUOUS
10
6.25126
20
-4.86555
11
6.25176
21
-4.86591
0
LINE
8
BLACK
6
CONTINUOUS
10
6.25176
20
-4.86591
11
6.25235
21
-4.86611
0
LINE
8
BLACK
6
CONTINUOUS
10
6.25235
20
-4.86611
11
6.25272
21
-4.86661
0
LINE
8
BLACK
6
CONTINUOUS
10
6.25272
20
-4.86661
11
6.25322
21
-4.86698
0
LINE
8
BLACK
6
CONTINUOUS
10
6.25322
20
-4.86698
11
6.25342
21
-4.86757
0
LINE
8
BLACK
6
CONTINUOUS
10
6.25342
20
-4.86757
11
6.25378
21
-4.86807
0
LINE
8
BLACK
6
CONTINUOUS
10
6.25378
20
-4.86807
11
6.25378
21
-4.8687
0
LINE
8
BLACK
6
CONTINUOUS
10
6.25378
20
-4.8687
11
6.25398
21
-4.86929
0
LINE
8
BLACK
6
CONTINUOUS
10
6.25398
20
-4.86929
11
6.25398
21
-5.18583
0
LINE
8
BLACK
6
CONTINUOUS
10
6.25398
20
-5.18583
11
6.25378
21
-5.18642
0
LINE
8
BLACK
6
CONTINUOUS
10
6.25378
20
-5.18642
11
6.25378
21
-5.18704
0
LINE
8
BLACK
6
CONTINUOUS
10
6.25378
20
-5.18704
11
6.25342
21
-5.18755
0
LINE
8
BLACK
6
CONTINUOUS
10
6.25342
20
-5.18755
11
6.25322
21
-5.18814
0
LINE
8
BLACK
6
CONTINUOUS
10
6.25322
20
-5.18814
11
6.25272
21
-5.18851
0
LINE
8
BLACK
6
CONTINUOUS
10
6.25272
20
-5.18851
11
6.25235
21
-5.18901
0
LINE
8
BLACK
6
CONTINUOUS
10
6.25235
20
-5.18901
11
6.25176
21
-5.1892
0
LINE
8
BLACK
6
CONTINUOUS
10
6.25176
20
-5.1892
11
6.25126
21
-5.18957
0
LINE
8
BLACK
6
CONTINUOUS
10
6.25126
20
-5.18957
11
6.25063
21
-5.18957
0
LINE
8
BLACK
6
CONTINUOUS
10
6.25063
20
-5.18957
11
6.25004
21
-5.18976
0
LINE
8
BLACK
6
CONTINUOUS
10
6.25004
20
-5.18976
11
4.9902
21
-5.18976
0
LINE
8
BLACK
6
CONTINUOUS
10
4.9902
20
-5.18976
11
4.9896
21
-5.18957
0
LINE
8
BLACK
6
CONTINUOUS
10
4.9896
20
-5.18957
11
4.98898
21
-5.18957
0
LINE
8
BLACK
6
CONTINUOUS
10
4.98898
20
-5.18957
11
4.98848
21
-5.1892
0
LINE
8
BLACK
6
CONTINUOUS
10
4.98848
20
-5.1892
11
4.98788
21
-5.18901
0
LINE
8
BLACK
6
CONTINUOUS
10
4.98788
20
-5.18901
11
4.98752
21
-5.18851
0
LINE
8
BLACK
6
CONTINUOUS
10
4.98752
20
-5.18851
11
4.98701
21
-5.18814
0
LINE
8
BLACK
6
CONTINUOUS
10
4.98701
20
-5.18814
11
4.98682
21
-5.18755
0
LINE
8
BLACK
6
CONTINUOUS
10
4.98682
20
-5.18755
11
4.98645
21
-5.18704
0
LINE
8
BLACK
6
CONTINUOUS
10
4.98645
20
-5.18704
11
4.98645
21
-5.18642
0
LINE
8
BLACK
6
CONTINUOUS
10
4.98645
20
-5.18642
11
4.98626
21
-5.18583
0
LINE
8
BLACK
6
CONTINUOUS
10
4.98626
20
-5.18583
11
4.98626
21
-4.86929
0
LINE
8
BLACK
6
CONTINUOUS
10
4.98626
20
-4.86929
11
4.98645
21
-4.8687
0
LINE
8
BLACK
6
CONTINUOUS
10
4.98645
20
-4.8687
11
4.98645
21
-4.86807
0
LINE
8
BLACK
6
CONTINUOUS
10
4.98645
20
-4.86807
11
4.98682
21
-4.86757
0
LINE
8
BLACK
6
CONTINUOUS
10
4.98682
20
-4.86757
11
4.98701
21
-4.86698
0
LINE
8
BLACK
6
CONTINUOUS
10
4.98701
20
-4.86698
11
4.98752
21
-4.86661
0
LINE
8
BLACK
6
CONTINUOUS
10
4.98752
20
-4.86661
11
4.98788
21
-4.86611
0
LINE
8
BLACK
6
CONTINUOUS
10
4.98788
20
-4.86611
11
4.98848
21
-4.86591
0
LINE
8
BLACK
6
CONTINUOUS
10
4.98848
20
-4.86591
11
4.98898
21
-4.86555
0
LINE
8
BLACK
6
CONTINUOUS
10
4.98898
20
-4.86555
11
4.9896
21
-4.86555
0
LINE
8
BLACK
6
CONTINUOUS
10
4.9896
20
-4.86555
11
4.9902
21
-4.86535
0
LINE
8
BLACK
6
CONTINUOUS
10
4.9902
20
-4.86535
11
6.25004
21
-4.86535
0
LINE
8
BLACK
6
CONTINUOUS
10
6.25004
20
-4.86535
11
6.25063
21
-4.86555
0
LINE
8
BLACK
6
CONTINUOUS
10
6.00139
20
-4.87323
11
6.00159
21
-4.87337
0
LINE
8
BLACK
6
CONTINUOUS
10
6.00159
20
-4.87337
11
6.0024
21
-4.87379
0
LINE
8
BLACK
6
CONTINUOUS
10
6.0024
20
-4.87379
11
6.00727
21
-4.87866
0
LINE
8
BLACK
6
CONTINUOUS
10
6.00727
20
-4.87866
11
6.00768
21
-4.87947
0
LINE
8
BLACK
6
CONTINUOUS
10
6.00768
20
-4.87947
11
6.00822
21
-4.8802
0
LINE
8
BLACK
6
CONTINUOUS
10
6.00822
20
-4.8802
11
6.01066
21
-4.88751
0
LINE
8
BLACK
6
CONTINUOUS
10
6.01066
20
-4.88751
11
6.01067
21
-4.88815
0
LINE
8
BLACK
6
CONTINUOUS
10
6.01067
20
-4.88815
11
6.01086
21
-4.88876
0
LINE
8
BLACK
6
CONTINUOUS
10
6.01086
20
-4.88876
11
6.01086
21
-4.89363
0
LINE
8
BLACK
6
CONTINUOUS
10
6.01086
20
-4.89363
11
6.01011
21
-4.89594
0
LINE
8
BLACK
6
CONTINUOUS
10
6.01011
20
-4.89594
11
6.00814
21
-4.89737
0
LINE
8
BLACK
6
CONTINUOUS
10
6.00814
20
-4.89737
11
6.00571
21
-4.89737
0
LINE
8
BLACK
6
CONTINUOUS
10
6.00571
20
-4.89737
11
6.00374
21
-4.89594
0
LINE
8
BLACK
6
CONTINUOUS
10
6.00374
20
-4.89594
11
6.00299
21
-4.89363
0
LINE
8
BLACK
6
CONTINUOUS
10
6.00299
20
-4.89363
11
6.00299
21
-4.88939
0
LINE
8
BLACK
6
CONTINUOUS
10
6.00299
20
-4.88939
11
6.00105
21
-4.88357
0
LINE
8
BLACK
6
CONTINUOUS
10
6.00105
20
-4.88357
11
5.99749
21
-4.88001
0
LINE
8
BLACK
6
CONTINUOUS
10
5.99749
20
-4.88001
11
5.99166
21
-4.87807
0
LINE
8
BLACK
6
CONTINUOUS
10
5.99166
20
-4.87807
11
5.95574
21
-4.87807
0
LINE
8
BLACK
6
CONTINUOUS
10
5.95574
20
-4.87807
11
5.95343
21
-4.87732
0
LINE
8
BLACK
6
CONTINUOUS
10
5.95343
20
-4.87732
11
5.952
21
-4.87535
0
LINE
8
BLACK
6
CONTINUOUS
10
5.952
20
-4.87535
11
5.952
21
-4.87323
0
LINE
8
BLACK
6
CONTINUOUS
10
5.952
20
-4.87323
11
5.06801
21
-4.87323
0
LINE
8
BLACK
6
CONTINUOUS
10
5.06801
20
-4.87323
11
5.0682
21
-4.87337
0
LINE
8
BLACK
6
CONTINUOUS
10
5.0682
20
-4.87337
11
5.06901
21
-4.87379
0
LINE
8
BLACK
6
CONTINUOUS
10
5.06901
20
-4.87379
11
5.07389
21
-4.87866
0
LINE
8
BLACK
6
CONTINUOUS
10
5.07389
20
-4.87866
11
5.0743
21
-4.87947
0
LINE
8
BLACK
6
CONTINUOUS
10
5.0743
20
-4.87947
11
5.07484
21
-4.8802
0
LINE
8
BLACK
6
CONTINUOUS
10
5.07484
20
-4.8802
11
5.07727
21
-4.88751
0
LINE
8
BLACK
6
CONTINUOUS
10
5.07727
20
-4.88751
11
5.07728
21
-4.88815
0
LINE
8
BLACK
6
CONTINUOUS
10
5.07728
20
-4.88815
11
5.07748
21
-4.88876
0
LINE
8
BLACK
6
CONTINUOUS
10
5.07748
20
-4.88876
11
5.07748
21
-4.89363
0
LINE
8
BLACK
6
CONTINUOUS
10
5.07748
20
-4.89363
11
5.07672
21
-4.89594
0
LINE
8
BLACK
6
CONTINUOUS
10
5.07672
20
-4.89594
11
5.07476
21
-4.89737
0
LINE
8
BLACK
6
CONTINUOUS
10
5.07476
20
-4.89737
11
5.07232
21
-4.89737
0
LINE
8
BLACK
6
CONTINUOUS
10
5.07232
20
-4.89737
11
5.07035
21
-4.89594
0
LINE
8
BLACK
6
CONTINUOUS
10
5.07035
20
-4.89594
11
5.0696
21
-4.89363
0
LINE
8
BLACK
6
CONTINUOUS
10
5.0696
20
-4.89363
11
5.0696
21
-4.88939
0
LINE
8
BLACK
6
CONTINUOUS
10
5.0696
20
-4.88939
11
5.06766
21
-4.88357
0
LINE
8
BLACK
6
CONTINUOUS
10
5.06766
20
-4.88357
11
5.0641
21
-4.88001
0
LINE
8
BLACK
6
CONTINUOUS
10
5.0641
20
-4.88001
11
5.05828
21
-4.87807
0
LINE
8
BLACK
6
CONTINUOUS
10
5.05828
20
-4.87807
11
5.02236
21
-4.87807
0
LINE
8
BLACK
6
CONTINUOUS
10
5.02236
20
-4.87807
11
5.02004
21
-4.87732
0
LINE
8
BLACK
6
CONTINUOUS
10
5.02004
20
-4.87732
11
5.01861
21
-4.87535
0
LINE
8
BLACK
6
CONTINUOUS
10
5.01861
20
-4.87535
11
5.01861
21
-4.87323
0
LINE
8
BLACK
6
CONTINUOUS
10
5.01861
20
-4.87323
11
4.99413
21
-4.87323
0
LINE
8
BLACK
6
CONTINUOUS
10
4.99413
20
-4.87323
11
4.99413
21
-5.18189
0
LINE
8
BLACK
6
CONTINUOUS
10
4.99413
20
-5.18189
11
6.2461
21
-5.18189
0
LINE
8
BLACK
6
CONTINUOUS
10
6.2461
20
-5.18189
11
6.2461
21
-4.87323
0
LINE
8
BLACK
6
CONTINUOUS
10
6.2461
20
-4.87323
11
6.00139
21
-4.87323
0
LINE
8
BLACK
6
CONTINUOUS
10
6.33884
20
-5.09868
11
6.33963
21
-5.09875
0
LINE
8
BLACK
6
CONTINUOUS
10
6.33963
20
-5.09875
11
6.33997
21
-5.09905
0
LINE
8
BLACK
6
CONTINUOUS
10
6.33997
20
-5.09905
11
6.3404
21
-5.09919
0
LINE
8
BLACK
6
CONTINUOUS
10
6.3404
20
-5.09919
11
6.34087
21
-5.09983
0
LINE
8
BLACK
6
CONTINUOUS
10
6.34087
20
-5.09983
11
6.34146
21
-5.10036
0
LINE
8
BLACK
6
CONTINUOUS
10
6.34146
20
-5.10036
11
6.34156
21
-5.10079
0
LINE
8
BLACK
6
CONTINUOUS
10
6.34156
20
-5.10079
11
6.34183
21
-5.10116
0
LINE
8
BLACK
6
CONTINUOUS
10
6.34183
20
-5.10116
11
6.34183
21
-5.10195
0
LINE
8
BLACK
6
CONTINUOUS
10
6.34183
20
-5.10195
11
6.342
21
-5.10273
0
LINE
8
BLACK
6
CONTINUOUS
10
6.342
20
-5.10273
11
6.34183
21
-5.10314
0
LINE
8
BLACK
6
CONTINUOUS
10
6.34183
20
-5.10314
11
6.34183
21
-5.10359
0
LINE
8
BLACK
6
CONTINUOUS
10
6.34183
20
-5.10359
11
6.34136
21
-5.10423
0
LINE
8
BLACK
6
CONTINUOUS
10
6.34136
20
-5.10423
11
6.34105
21
-5.10497
0
LINE
8
BLACK
6
CONTINUOUS
10
6.34105
20
-5.10497
11
6.32942
21
-5.11825
0
LINE
8
BLACK
6
CONTINUOUS
10
6.32942
20
-5.11825
11
6.33009
21
-5.11835
0
LINE
8
BLACK
6
CONTINUOUS
10
6.33009
20
-5.11835
11
6.33497
21
-5.12079
0
LINE
8
BLACK
6
CONTINUOUS
10
6.33497
20
-5.12079
11
6.33542
21
-5.12123
0
LINE
8
BLACK
6
CONTINUOUS
10
6.33542
20
-5.12123
11
6.33599
21
-5.12152
0
LINE
8
BLACK
6
CONTINUOUS
10
6.33599
20
-5.12152
11
6.33843
21
-5.12396
0
LINE
8
BLACK
6
CONTINUOUS
10
6.33843
20
-5.12396
11
6.33872
21
-5.12453
0
LINE
8
BLACK
6
CONTINUOUS
10
6.33872
20
-5.12453
11
6.33917
21
-5.12498
0
LINE
8
BLACK
6
CONTINUOUS
10
6.33917
20
-5.12498
11
6.3416
21
-5.12986
0
LINE
8
BLACK
6
CONTINUOUS
10
6.3416
20
-5.12986
11
6.34174
21
-5.13076
0
LINE
8
BLACK
6
CONTINUOUS
10
6.34174
20
-5.13076
11
6.34202
21
-5.13162
0
LINE
8
BLACK
6
CONTINUOUS
10
6.34202
20
-5.13162
11
6.34202
21
-5.14381
0
LINE
8
BLACK
6
CONTINUOUS
10
6.34202
20
-5.14381
11
6.34174
21
-5.14467
0
LINE
8
BLACK
6
CONTINUOUS
10
6.34174
20
-5.14467
11
6.3416
21
-5.14557
0
LINE
8
BLACK
6
CONTINUOUS
10
6.3416
20
-5.14557
11
6.33917
21
-5.15044
0
LINE
8
BLACK
6
CONTINUOUS
10
6.33917
20
-5.15044
11
6.33872
21
-5.1509
0
LINE
8
BLACK
6
CONTINUOUS
10
6.33872
20
-5.1509
11
6.33843
21
-5.15146
0
LINE
8
BLACK
6
CONTINUOUS
10
6.33843
20
-5.15146
11
6.33599
21
-5.1539
0
LINE
8
BLACK
6
CONTINUOUS
10
6.33599
20
-5.1539
11
6.33542
21
-5.15419
0
LINE
8
BLACK
6
CONTINUOUS
10
6.33542
20
-5.15419
11
6.33497
21
-5.15464
0
LINE
8
BLACK
6
CONTINUOUS
10
6.33497
20
-5.15464
11
6.33009
21
-5.15708
0
LINE
8
BLACK
6
CONTINUOUS
10
6.33009
20
-5.15708
11
6.3292
21
-5.15721
0
LINE
8
BLACK
6
CONTINUOUS
10
6.3292
20
-5.15721
11
6.32833
21
-5.15749
0
LINE
8
BLACK
6
CONTINUOUS
10
6.32833
20
-5.15749
11
6.31371
21
-5.15749
0
LINE
8
BLACK
6
CONTINUOUS
10
6.31371
20
-5.15749
11
6.31285
21
-5.15721
0
LINE
8
BLACK
6
CONTINUOUS
10
6.31285
20
-5.15721
11
6.31195
21
-5.15708
0
LINE
8
BLACK
6
CONTINUOUS
10
6.31195
20
-5.15708
11
6.30708
21
-5.15464
0
LINE
8
BLACK
6
CONTINUOUS
10
6.30708
20
-5.15464
11
6.30662
21
-5.15419
0
LINE
8
BLACK
6
CONTINUOUS
10
6.30662
20
-5.15419
11
6.30605
21
-5.1539
0
LINE
8
BLACK
6
CONTINUOUS
10
6.30605
20
-5.1539
11
6.30362
21
-5.15146
0
LINE
8
BLACK
6
CONTINUOUS
10
6.30362
20
-5.15146
11
6.30251
21
-5.1493
0
LINE
8
BLACK
6
CONTINUOUS
10
6.30251
20
-5.1493
11
6.30289
21
-5.14689
0
LINE
8
BLACK
6
CONTINUOUS
10
6.30289
20
-5.14689
11
6.30461
21
-5.14517
0
LINE
8
BLACK
6
CONTINUOUS
10
6.30461
20
-5.14517
11
6.30702
21
-5.14479
0
LINE
8
BLACK
6
CONTINUOUS
10
6.30702
20
-5.14479
11
6.30918
21
-5.1459
0
LINE
8
BLACK
6
CONTINUOUS
10
6.30918
20
-5.1459
11
6.31117
21
-5.14788
0
LINE
8
BLACK
6
CONTINUOUS
10
6.31117
20
-5.14788
11
6.31464
21
-5.14962
0
LINE
8
BLACK
6
CONTINUOUS
10
6.31464
20
-5.14962
11
6.3274
21
-5.14962
0
LINE
8
BLACK
6
CONTINUOUS
10
6.3274
20
-5.14962
11
6.33088
21
-5.14788
0
LINE
8
BLACK
6
CONTINUOUS
10
6.33088
20
-5.14788
11
6.33241
21
-5.14635
0
LINE
8
BLACK
6
CONTINUOUS
10
6.33241
20
-5.14635
11
6.33415
21
-5.14288
0
LINE
8
BLACK
6
CONTINUOUS
10
6.33415
20
-5.14288
11
6.33415
21
-5.13255
0
LINE
8
BLACK
6
CONTINUOUS
10
6.33415
20
-5.13255
11
6.33241
21
-5.12908
0
LINE
8
BLACK
6
CONTINUOUS
10
6.33241
20
-5.12908
11
6.33088
21
-5.12754
0
LINE
8
BLACK
6
CONTINUOUS
10
6.33088
20
-5.12754
11
6.3274
21
-5.12581
0
LINE
8
BLACK
6
CONTINUOUS
10
6.3274
20
-5.12581
11
6.32102
21
-5.12581
0
LINE
8
BLACK
6
CONTINUOUS
10
6.32102
20
-5.12581
11
6.32027
21
-5.12556
0
LINE
8
BLACK
6
CONTINUOUS
10
6.32027
20
-5.12556
11
6.31947
21
-5.12549
0
LINE
8
BLACK
6
CONTINUOUS
10
6.31947
20
-5.12549
11
6.31913
21
-5.12519
0
LINE
8
BLACK
6
CONTINUOUS
10
6.31913
20
-5.12519
11
6.31871
21
-5.12506
0
LINE
8
BLACK
6
CONTINUOUS
10
6.31871
20
-5.12506
11
6.31824
21
-5.12441
0
LINE
8
BLACK
6
CONTINUOUS
10
6.31824
20
-5.12441
11
6.31764
21
-5.12389
0
LINE
8
BLACK
6
CONTINUOUS
10
6.31764
20
-5.12389
11
6.31754
21
-5.12345
0
LINE
8
BLACK
6
CONTINUOUS
10
6.31754
20
-5.12345
11
6.31728
21
-5.12309
0
LINE
8
BLACK
6
CONTINUOUS
10
6.31728
20
-5.12309
11
6.31728
21
-5.12229
0
LINE
8
BLACK
6
CONTINUOUS
10
6.31728
20
-5.12229
11
6.3171
21
-5.12152
0
LINE
8
BLACK
6
CONTINUOUS
10
6.3171
20
-5.12152
11
6.31728
21
-5.1211
0
LINE
8
BLACK
6
CONTINUOUS
10
6.31728
20
-5.1211
11
6.31728
21
-5.12065
0
LINE
8
BLACK
6
CONTINUOUS
10
6.31728
20
-5.12065
11
6.31775
21
-5.12001
0
LINE
8
BLACK
6
CONTINUOUS
10
6.31775
20
-5.12001
11
6.31806
21
-5.11928
0
LINE
8
BLACK
6
CONTINUOUS
10
6.31806
20
-5.11928
11
6.32941
21
-5.10631
0
LINE
8
BLACK
6
CONTINUOUS
10
6.32941
20
-5.10631
11
6.3064
21
-5.10631
0
LINE
8
BLACK
6
CONTINUOUS
10
6.3064
20
-5.10631
11
6.30409
21
-5.10556
0
LINE
8
BLACK
6
CONTINUOUS
10
6.30409
20
-5.10556
11
6.30265
21
-5.10359
0
LINE
8
BLACK
6
CONTINUOUS
10
6.30265
20
-5.10359
11
6.30265
21
-5.10116
0
LINE
8
BLACK
6
CONTINUOUS
10
6.30265
20
-5.10116
11
6.30409
21
-5.09919
0
LINE
8
BLACK
6
CONTINUOUS
10
6.30409
20
-5.09919
11
6.3064
21
-5.09844
0
LINE
8
BLACK
6
CONTINUOUS
10
6.3064
20
-5.09844
11
6.33808
21
-5.09844
0
LINE
8
BLACK
6
CONTINUOUS
10
6.33808
20
-5.09844
11
6.33884
21
-5.09868
0
LINE
8
BLACK
6
CONTINUOUS
10
6.29009
20
-5.10006
11
6.29084
21
-5.10237
0
LINE
8
BLACK
6
CONTINUOUS
10
6.29084
20
-5.10237
11
6.29084
21
-5.13893
0
LINE
8
BLACK
6
CONTINUOUS
10
6.29084
20
-5.13893
11
6.29064
21
-5.13954
0
LINE
8
BLACK
6
CONTINUOUS
10
6.29064
20
-5.13954
11
6.29064
21
-5.14018
0
LINE
8
BLACK
6
CONTINUOUS
10
6.29064
20
-5.14018
11
6.2882
21
-5.14749
0
LINE
8
BLACK
6
CONTINUOUS
10
6.2882
20
-5.14749
11
6.28766
21
-5.14822
0
LINE
8
BLACK
6
CONTINUOUS
10
6.28766
20
-5.14822
11
6.28725
21
-5.14903
0
LINE
8
BLACK
6
CONTINUOUS
10
6.28725
20
-5.14903
11
6.28237
21
-5.1539
0
LINE
8
BLACK
6
CONTINUOUS
10
6.28237
20
-5.1539
11
6.28157
21
-5.15431
0
LINE
8
BLACK
6
CONTINUOUS
10
6.28157
20
-5.15431
11
6.28084
21
-5.15485
0
LINE
8
BLACK
6
CONTINUOUS
10
6.28084
20
-5.15485
11
6.27352
21
-5.15729
0
LINE
8
BLACK
6
CONTINUOUS
10
6.27352
20
-5.15729
11
6.27289
21
-5.15729
0
LINE
8
BLACK
6
CONTINUOUS
10
6.27289
20
-5.15729
11
6.27228
21
-5.15749
0
LINE
8
BLACK
6
CONTINUOUS
10
6.27228
20
-5.15749
11
6.2674
21
-5.15749
0
LINE
8
BLACK
6
CONTINUOUS
10
6.2674
20
-5.15749
11
6.26509
21
-5.15674
0
LINE
8
BLACK
6
CONTINUOUS
10
6.26509
20
-5.15674
11
6.26366
21
-5.15477
0
LINE
8
BLACK
6
CONTINUOUS
10
6.26366
20
-5.15477
11
6.26366
21
-5.15234
0
LINE
8
BLACK
6
CONTINUOUS
10
6.26366
20
-5.15234
11
6.26509
21
-5.15037
0
LINE
8
BLACK
6
CONTINUOUS
10
6.26509
20
-5.15037
11
6.2674
21
-5.14962
0
LINE
8
BLACK
6
CONTINUOUS
10
6.2674
20
-5.14962
11
6.27164
21
-5.14962
0
LINE
8
BLACK
6
CONTINUOUS
10
6.27164
20
-5.14962
11
6.27746
21
-5.14768
0
LINE
8
BLACK
6
CONTINUOUS
10
6.27746
20
-5.14768
11
6.28102
21
-5.14412
0
LINE
8
BLACK
6
CONTINUOUS
10
6.28102
20
-5.14412
11
6.28296
21
-5.13829
0
LINE
8
BLACK
6
CONTINUOUS
10
6.28296
20
-5.13829
11
6.28296
21
-5.10237
0
LINE
8
BLACK
6
CONTINUOUS
10
6.28296
20
-5.10237
11
6.28372
21
-5.10006
0
LINE
8
BLACK
6
CONTINUOUS
10
6.28372
20
-5.10006
11
6.28569
21
-5.09863
0
LINE
8
BLACK
6
CONTINUOUS
10
6.28569
20
-5.09863
11
6.28812
21
-5.09863
0
LINE
8
BLACK
6
CONTINUOUS
10
6.28812
20
-5.09863
11
6.29009
21
-5.10006
0
LINE
8
BLACK
6
CONTINUOUS
10
6.31447
20
-4.772
11
6.31516
21
-4.7739
0
LINE
8
BLACK
6
CONTINUOUS
10
6.31516
20
-4.7739
11
6.31516
21
-4.8639
0
LINE
8
BLACK
6
CONTINUOUS
10
6.31516
20
-4.8639
11
6.31498
21
-4.86491
0
LINE
8
BLACK
6
CONTINUOUS
10
6.31498
20
-4.86491
11
6.31368
21
-4.86645
0
LINE
8
BLACK
6
CONTINUOUS
10
6.31368
20
-4.86645
11
6.31169
21
-4.86681
0
LINE
8
BLACK
6
CONTINUOUS
10
6.31169
20
-4.86681
11
6.30994
21
-4.8658
0
LINE
8
BLACK
6
CONTINUOUS
10
6.30994
20
-4.8658
11
6.30925
21
-4.8639
0
LINE
8
BLACK
6
CONTINUOUS
10
6.30925
20
-4.8639
11
6.30925
21
-4.7739
0
LINE
8
BLACK
6
CONTINUOUS
10
6.30925
20
-4.7739
11
6.30943
21
-4.77289
0
LINE
8
BLACK
6
CONTINUOUS
10
6.30943
20
-4.77289
11
6.31073
21
-4.77134
0
LINE
8
BLACK
6
CONTINUOUS
10
6.31073
20
-4.77134
11
6.31272
21
-4.77099
0
LINE
8
BLACK
6
CONTINUOUS
10
6.31272
20
-4.77099
11
6.31447
21
-4.772
0
LINE
8
BLACK
6
CONTINUOUS
10
5.99804
20
-4.8193
11
5.99894
21
-4.81943
0
LINE
8
BLACK
6
CONTINUOUS
10
5.99894
20
-4.81943
11
6.00381
21
-4.82187
0
LINE
8
BLACK
6
CONTINUOUS
10
6.00381
20
-4.82187
11
6.00427
21
-4.82232
0
LINE
8
BLACK
6
CONTINUOUS
10
6.00427
20
-4.82232
11
6.00483
21
-4.8226
0
LINE
8
BLACK
6
CONTINUOUS
10
6.00483
20
-4.8226
11
6.00727
21
-4.82504
0
LINE
8
BLACK
6
CONTINUOUS
10
6.00727
20
-4.82504
11
6.00756
21
-4.82561
0
LINE
8
BLACK
6
CONTINUOUS
10
6.00756
20
-4.82561
11
6.00801
21
-4.82607
0
LINE
8
BLACK
6
CONTINUOUS
10
6.00801
20
-4.82607
11
6.01045
21
-4.83094
0
LINE
8
BLACK
6
CONTINUOUS
10
6.01045
20
-4.83094
11
6.01058
21
-4.83184
0
LINE
8
BLACK
6
CONTINUOUS
10
6.01058
20
-4.83184
11
6.01086
21
-4.8327
0
LINE
8
BLACK
6
CONTINUOUS
10
6.01086
20
-4.8327
11
6.01086
21
-4.84489
0
LINE
8
BLACK
6
CONTINUOUS
10
6.01086
20
-4.84489
11
6.01058
21
-4.84575
0
LINE
8
BLACK
6
CONTINUOUS
10
6.01058
20
-4.84575
11
6.01045
21
-4.84665
0
LINE
8
BLACK
6
CONTINUOUS
10
6.01045
20
-4.84665
11
6.00801
21
-4.85152
0
LINE
8
BLACK
6
CONTINUOUS
10
6.00801
20
-4.85152
11
6.00756
21
-4.85198
0
LINE
8
BLACK
6
CONTINUOUS
10
6.00756
20
-4.85198
11
6.00727
21
-4.85254
0
LINE
8
BLACK
6
CONTINUOUS
10
6.00727
20
-4.85254
11
6.00483
21
-4.85498
0
LINE
8
BLACK
6
CONTINUOUS
10
6.00483
20
-4.85498
11
6.00267
21
-4.85609
0
LINE
8
BLACK
6
CONTINUOUS
10
6.00267
20
-4.85609
11
6.00026
21
-4.85571
0
LINE
8
BLACK
6
CONTINUOUS
10
6.00026
20
-4.85571
11
5.99854
21
-4.85399
0
LINE
8
BLACK
6
CONTINUOUS
10
5.99854
20
-4.85399
11
5.99816
21
-4.85158
0
LINE
8
BLACK
6
CONTINUOUS
10
5.99816
20
-4.85158
11
5.99927
21
-4.84941
0
LINE
8
BLACK
6
CONTINUOUS
10
5.99927
20
-4.84941
11
6.00125
21
-4.84743
0
LINE
8
BLACK
6
CONTINUOUS
10
6.00125
20
-4.84743
11
6.00299
21
-4.84396
0
LINE
8
BLACK
6
CONTINUOUS
10
6.00299
20
-4.84396
11
6.00299
21
-4.83363
0
LINE
8
BLACK
6
CONTINUOUS
10
6.00299
20
-4.83363
11
6.00125
21
-4.83016
0
LINE
8
BLACK
6
CONTINUOUS
10
6.00125
20
-4.83016
11
5.99972
21
-4.82862
0
LINE
8
BLACK
6
CONTINUOUS
10
5.99972
20
-4.82862
11
5.99625
21
-4.82689
0
LINE
8
BLACK
6
CONTINUOUS
10
5.99625
20
-4.82689
11
5.98592
21
-4.82689
0
LINE
8
BLACK
6
CONTINUOUS
10
5.98592
20
-4.82689
11
5.98245
21
-4.82862
0
LINE
8
BLACK
6
CONTINUOUS
10
5.98245
20
-4.82862
11
5.98091
21
-4.83016
0
LINE
8
BLACK
6
CONTINUOUS
10
5.98091
20
-4.83016
11
5.97918
21
-4.83363
0
LINE
8
BLACK
6
CONTINUOUS
10
5.97918
20
-4.83363
11
5.97918
21
-4.84396
0
LINE
8
BLACK
6
CONTINUOUS
10
5.97918
20
-4.84396
11
5.98091
21
-4.84743
0
LINE
8
BLACK
6
CONTINUOUS
10
5.98091
20
-4.84743
11
5.9829
21
-4.84941
0
LINE
8
BLACK
6
CONTINUOUS
10
5.9829
20
-4.84941
11
5.9834
21
-4.8504
0
LINE
8
BLACK
6
CONTINUOUS
10
5.9834
20
-4.8504
11
5.98396
21
-4.85136
0
LINE
8
BLACK
6
CONTINUOUS
10
5.98396
20
-4.85136
11
5.98395
21
-4.85148
0
LINE
8
BLACK
6
CONTINUOUS
10
5.98395
20
-4.85148
11
5.984
21
-4.85158
0
LINE
8
BLACK
6
CONTINUOUS
10
5.984
20
-4.85158
11
5.98383
21
-4.85268
0
LINE
8
BLACK
6
CONTINUOUS
10
5.98383
20
-4.85268
11
5.98372
21
-4.85378
0
LINE
8
BLACK
6
CONTINUOUS
10
5.98372
20
-4.85378
11
5.98364
21
-4.85387
0
LINE
8
BLACK
6
CONTINUOUS
10
5.98364
20
-4.85387
11
5.98362
21
-4.85399
0
LINE
8
BLACK
6
CONTINUOUS
10
5.98362
20
-4.85399
11
5.98284
21
-4.85477
0
LINE
8
BLACK
6
CONTINUOUS
10
5.98284
20
-4.85477
11
5.9821
21
-4.8556
0
LINE
8
BLACK
6
CONTINUOUS
10
5.9821
20
-4.8556
11
5.98199
21
-4.85562
0
LINE
8
BLACK
6
CONTINUOUS
10
5.98199
20
-4.85562
11
5.9819
21
-4.85571
0
LINE
8
BLACK
6
CONTINUOUS
10
5.9819
20
-4.85571
11
5.98081
21
-4.85588
0
LINE
8
BLACK
6
CONTINUOUS
10
5.98081
20
-4.85588
11
5.97972
21
-4.85612
0
LINE
8
BLACK
6
CONTINUOUS
10
5.97972
20
-4.85612
11
5.95535
21
-4.85368
0
LINE
8
BLACK
6
CONTINUOUS
10
5.95535
20
-4.85368
11
5.95496
21
-4.85351
0
LINE
8
BLACK
6
CONTINUOUS
10
5.95496
20
-4.85351
11
5.95453
21
-4.85351
0
LINE
8
BLACK
6
CONTINUOUS
10
5.95453
20
-4.85351
11
5.95387
21
-4.85303
0
LINE
8
BLACK
6
CONTINUOUS
10
5.95387
20
-4.85303
11
5.95312
21
-4.8527
0
LINE
8
BLACK
6
CONTINUOUS
10
5.95312
20
-4.8527
11
5.95291
21
-4.85233
0
LINE
8
BLACK
6
CONTINUOUS
10
5.95291
20
-4.85233
11
5.95256
21
-4.85207
0
LINE
8
BLACK
6
CONTINUOUS
10
5.95256
20
-4.85207
11
5.95231
21
-4.8513
0
LINE
8
BLACK
6
CONTINUOUS
10
5.95231
20
-4.8513
11
5.9519
21
-4.8506
0
LINE
8
BLACK
6
CONTINUOUS
10
5.9519
20
-4.8506
11
5.95194
21
-4.85017
0
LINE
8
BLACK
6
CONTINUOUS
10
5.95194
20
-4.85017
11
5.95181
21
-4.84976
0
LINE
8
BLACK
6
CONTINUOUS
10
5.95181
20
-4.84976
11
5.95181
21
-4.82539
0
LINE
8
BLACK
6
CONTINUOUS
10
5.95181
20
-4.82539
11
5.95256
21
-4.82307
0
LINE
8
BLACK
6
CONTINUOUS
10
5.95256
20
-4.82307
11
5.95453
21
-4.82164
0
LINE
8
BLACK
6
CONTINUOUS
10
5.95453
20
-4.82164
11
5.95696
21
-4.82164
0
LINE
8
BLACK
6
CONTINUOUS
10
5.95696
20
-4.82164
11
5.95893
21
-4.82307
0
LINE
8
BLACK
6
CONTINUOUS
10
5.95893
20
-4.82307
11
5.95968
21
-4.82539
0
LINE
8
BLACK
6
CONTINUOUS
10
5.95968
20
-4.82539
11
5.95968
21
-4.8462
0
LINE
8
BLACK
6
CONTINUOUS
10
5.95968
20
-4.8462
11
5.97212
21
-4.84744
0
LINE
8
BLACK
6
CONTINUOUS
10
5.97212
20
-4.84744
11
5.97172
21
-4.84665
0
LINE
8
BLACK
6
CONTINUOUS
10
5.97172
20
-4.84665
11
5.97159
21
-4.84575
0
LINE
8
BLACK
6
CONTINUOUS
10
5.97159
20
-4.84575
11
5.9713
21
-4.84489
0
LINE
8
BLACK
6
CONTINUOUS
10
5.9713
20
-4.84489
11
5.9713
21
-4.8327
0
LINE
8
BLACK
6
CONTINUOUS
10
5.9713
20
-4.8327
11
5.97159
21
-4.83184
0
LINE
8
BLACK
6
CONTINUOUS
10
5.97159
20
-4.83184
11
5.97172
21
-4.83094
0
LINE
8
BLACK
6
CONTINUOUS
10
5.97172
20
-4.83094
11
5.97416
21
-4.82607
0
LINE
8
BLACK
6
CONTINUOUS
10
5.97416
20
-4.82607
11
5.97461
21
-4.82561
0
LINE
8
BLACK
6
CONTINUOUS
10
5.97461
20
-4.82561
11
5.9749
21
-4.82504
0
LINE
8
BLACK
6
CONTINUOUS
10
5.9749
20
-4.82504
11
5.97733
21
-4.82261
0
LINE
8
BLACK
6
CONTINUOUS
10
5.97733
20
-4.82261
11
5.9779
21
-4.82232
0
LINE
8
BLACK
6
CONTINUOUS
10
5.9779
20
-4.82232
11
5.97836
21
-4.82187
0
LINE
8
BLACK
6
CONTINUOUS
10
5.97836
20
-4.82187
11
5.98323
21
-4.81943
0
LINE
8
BLACK
6
CONTINUOUS
10
5.98323
20
-4.81943
11
5.98413
21
-4.8193
0
LINE
8
BLACK
6
CONTINUOUS
10
5.98413
20
-4.8193
11
5.98499
21
-4.81901
0
LINE
8
BLACK
6
CONTINUOUS
10
5.98499
20
-4.81901
11
5.99718
21
-4.81901
0
LINE
8
BLACK
6
CONTINUOUS
10
5.99718
20
-4.81901
11
5.99804
21
-4.8193
0
LINE
8
BLACK
6
CONTINUOUS
10
5.07672
20
-4.82064
11
5.07748
21
-4.82295
0
LINE
8
BLACK
6
CONTINUOUS
10
5.07748
20
-4.82295
11
5.07748
21
-4.8522
0
LINE
8
BLACK
6
CONTINUOUS
10
5.07748
20
-4.8522
11
5.07672
21
-4.85451
0
LINE
8
BLACK
6
CONTINUOUS
10
5.07672
20
-4.85451
11
5.07476
21
-4.85594
0
LINE
8
BLACK
6
CONTINUOUS
10
5.07476
20
-4.85594
11
5.07232
21
-4.85594
0
LINE
8
BLACK
6
CONTINUOUS
10
5.07232
20
-4.85594
11
5.07035
21
-4.85451
0
LINE
8
BLACK
6
CONTINUOUS
10
5.07035
20
-4.85451
11
5.0696
21
-4.8522
0
LINE
8
BLACK
6
CONTINUOUS
10
5.0696
20
-4.8522
11
5.0696
21
-4.84151
0
LINE
8
BLACK
6
CONTINUOUS
10
5.0696
20
-4.84151
11
5.0343
21
-4.84151
0
LINE
8
BLACK
6
CONTINUOUS
10
5.0343
20
-4.84151
11
5.03733
21
-4.84454
0
LINE
8
BLACK
6
CONTINUOUS
10
5.03733
20
-4.84454
11
5.03762
21
-4.84511
0
LINE
8
BLACK
6
CONTINUOUS
10
5.03762
20
-4.84511
11
5.03807
21
-4.84556
0
LINE
8
BLACK
6
CONTINUOUS
10
5.03807
20
-4.84556
11
5.0405
21
-4.85044
0
LINE
8
BLACK
6
CONTINUOUS
10
5.0405
20
-4.85044
11
5.04087
21
-4.85284
0
LINE
8
BLACK
6
CONTINUOUS
10
5.04087
20
-4.85284
11
5.03974
21
-4.855
0
LINE
8
BLACK
6
CONTINUOUS
10
5.03974
20
-4.855
11
5.03757
21
-4.85609
0
LINE
8
BLACK
6
CONTINUOUS
10
5.03757
20
-4.85609
11
5.03517
21
-4.85569
0
LINE
8
BLACK
6
CONTINUOUS
10
5.03517
20
-4.85569
11
5.03346
21
-4.85396
0
LINE
8
BLACK
6
CONTINUOUS
10
5.03346
20
-4.85396
11
5.03131
21
-4.84966
0
LINE
8
BLACK
6
CONTINUOUS
10
5.03131
20
-4.84966
11
5.02716
21
-4.84551
0
LINE
8
BLACK
6
CONTINUOUS
10
5.02716
20
-4.84551
11
5.02017
21
-4.84085
0
LINE
8
BLACK
6
CONTINUOUS
10
5.02017
20
-4.84085
11
5.02012
21
-4.84079
0
LINE
8
BLACK
6
CONTINUOUS
10
5.02012
20
-4.84079
11
5.02004
21
-4.84076
0
LINE
8
BLACK
6
CONTINUOUS
10
5.02004
20
-4.84076
11
5.01937
21
-4.83984
0
LINE
8
BLACK
6
CONTINUOUS
10
5.01937
20
-4.83984
11
5.01867
21
-4.83894
0
LINE
8
BLACK
6
CONTINUOUS
10
5.01867
20
-4.83894
11
5.01866
21
-4.83886
0
LINE
8
BLACK
6
CONTINUOUS
10
5.01866
20
-4.83886
11
5.01861
21
-4.83879
0
LINE
8
BLACK
6
CONTINUOUS
10
5.01861
20
-4.83879
11
5.01861
21
-4.83765
0
LINE
8
BLACK
6
CONTINUOUS
10
5.01861
20
-4.83765
11
5.01857
21
-4.83651
0
LINE
8
BLACK
6
CONTINUOUS
10
5.01857
20
-4.83651
11
5.01861
21
-4.83644
0
LINE
8
BLACK
6
CONTINUOUS
10
5.01861
20
-4.83644
11
5.01861
21
-4.83636
0
LINE
8
BLACK
6
CONTINUOUS
10
5.01861
20
-4.83636
11
5.01928
21
-4.83543
0
LINE
8
BLACK
6
CONTINUOUS
10
5.01928
20
-4.83543
11
5.01992
21
-4.83449
0
LINE
8
BLACK
6
CONTINUOUS
10
5.01992
20
-4.83449
11
5.02
21
-4.83446
0
LINE
8
BLACK
6
CONTINUOUS
10
5.02
20
-4.83446
11
5.02004
21
-4.83439
0
LINE
8
BLACK
6
CONTINUOUS
10
5.02004
20
-4.83439
11
5.02113
21
-4.83404
0
LINE
8
BLACK
6
CONTINUOUS
10
5.02113
20
-4.83404
11
5.0222
21
-4.83364
0
LINE
8
BLACK
6
CONTINUOUS
10
5.0222
20
-4.83364
11
5.02228
21
-4.83366
0
LINE
8
BLACK
6
CONTINUOUS
10
5.02228
20
-4.83366
11
5.02236
21
-4.83364
0
LINE
8
BLACK
6
CONTINUOUS
10
5.02236
20
-4.83364
11
5.0696
21
-4.83364
0
LINE
8
BLACK
6
CONTINUOUS
10
5.0696
20
-4.83364
11
5.0696
21
-4.82295
0
LINE
8
BLACK
6
CONTINUOUS
10
5.0696
20
-4.82295
11
5.07035
21
-4.82064
0
LINE
8
BLACK
6
CONTINUOUS
10
5.07035
20
-4.82064
11
5.07232
21
-4.81921
0
LINE
8
BLACK
6
CONTINUOUS
10
5.07232
20
-4.81921
11
5.07476
21
-4.81921
0
LINE
8
BLACK
6
CONTINUOUS
10
5.07476
20
-4.81921
11
5.07672
21
-4.82064
0
LINE
8
BLACK
6
CONTINUOUS
10
5.53739
20
-3.292
11
5.53752
21
-3.29197
0
LINE
8
BLACK
6
CONTINUOUS
10
5.53752
20
-3.29197
11
5.53763
21
-3.29204
0
LINE
8
BLACK
6
CONTINUOUS
10
5.53763
20
-3.29204
11
5.53802
21
-3.29211
0
LINE
8
BLACK
6
CONTINUOUS
10
5.53802
20
-3.29211
11
5.53861
21
-3.2926
0
LINE
8
BLACK
6
CONTINUOUS
10
5.53861
20
-3.2926
11
5.53927
21
-3.29298
0
LINE
8
BLACK
6
CONTINUOUS
10
5.53927
20
-3.29298
11
5.53936
21
-3.29323
0
LINE
8
BLACK
6
CONTINUOUS
10
5.53936
20
-3.29323
11
5.53957
21
-3.29341
0
LINE
8
BLACK
6
CONTINUOUS
10
5.53957
20
-3.29341
11
5.5397
21
-3.29416
0
LINE
8
BLACK
6
CONTINUOUS
10
5.5397
20
-3.29416
11
5.53996
21
-3.29488
0
LINE
8
BLACK
6
CONTINUOUS
10
5.53996
20
-3.29488
11
5.53996
21
-3.59488
0
LINE
8
BLACK
6
CONTINUOUS
10
5.53996
20
-3.59488
11
5.53989
21
-3.59527
0
LINE
8
BLACK
6
CONTINUOUS
10
5.53989
20
-3.59527
11
5.53992
21
-3.59539
0
LINE
8
BLACK
6
CONTINUOUS
10
5.53992
20
-3.59539
11
5.53985
21
-3.59551
0
LINE
8
BLACK
6
CONTINUOUS
10
5.53985
20
-3.59551
11
5.53978
21
-3.59589
0
LINE
8
BLACK
6
CONTINUOUS
10
5.53978
20
-3.59589
11
5.53929
21
-3.59648
0
LINE
8
BLACK
6
CONTINUOUS
10
5.53929
20
-3.59648
11
5.53891
21
-3.59714
0
LINE
8
BLACK
6
CONTINUOUS
10
5.53891
20
-3.59714
11
5.53866
21
-3.59723
0
LINE
8
BLACK
6
CONTINUOUS
10
5.53866
20
-3.59723
11
5.53848
21
-3.59744
0
LINE
8
BLACK
6
CONTINUOUS
10
5.53848
20
-3.59744
11
5.53773
21
-3.59757
0
LINE
8
BLACK
6
CONTINUOUS
10
5.53773
20
-3.59757
11
5.53701
21
-3.59783
0
LINE
8
BLACK
6
CONTINUOUS
10
5.53701
20
-3.59783
11
5.33701
21
-3.59783
0
LINE
8
BLACK
6
CONTINUOUS
10
5.33701
20
-3.59783
11
5.33662
21
-3.59777
0
LINE
8
BLACK
6
CONTINUOUS
10
5.33662
20
-3.59777
11
5.33652
21
-3.59778
0
LINE
8
BLACK
6
CONTINUOUS
10
5.33652
20
-3.59778
11
5.33415
21
-3.60492
0
LINE
8
BLACK
6
CONTINUOUS
10
5.33415
20
-3.60492
11
5.3334
21
-3.60605
0
LINE
8
BLACK
6
CONTINUOUS
10
5.3334
20
-3.60605
11
5.33272
21
-3.60722
0
LINE
8
BLACK
6
CONTINUOUS
10
5.33272
20
-3.60722
11
5.31543
21
-3.62451
0
LINE
8
BLACK
6
CONTINUOUS
10
5.31543
20
-3.62451
11
5.31543
21
-3.63089
0
LINE
8
BLACK
6
CONTINUOUS
10
5.31543
20
-3.63089
11
5.33136
21
-3.63089
0
LINE
8
BLACK
6
CONTINUOUS
10
5.33136
20
-3.63089
11
5.33431
21
-3.63168
0
LINE
8
BLACK
6
CONTINUOUS
10
5.33431
20
-3.63168
11
5.33647
21
-3.63384
0
LINE
8
BLACK
6
CONTINUOUS
10
5.33647
20
-3.63384
11
5.33726
21
-3.63679
0
LINE
8
BLACK
6
CONTINUOUS
10
5.33726
20
-3.63679
11
5.33647
21
-3.63975
0
LINE
8
BLACK
6
CONTINUOUS
10
5.33647
20
-3.63975
11
5.33431
21
-3.64191
0
LINE
8
BLACK
6
CONTINUOUS
10
5.33431
20
-3.64191
11
5.33136
21
-3.6427
0
LINE
8
BLACK
6
CONTINUOUS
10
5.33136
20
-3.6427
11
5.31543
21
-3.6427
0
LINE
8
BLACK
6
CONTINUOUS
10
5.31543
20
-3.6427
11
5.31543
21
-4.80315
0
LINE
8
BLACK
6
CONTINUOUS
10
5.31543
20
-4.80315
11
5.31524
21
-4.80374
0
LINE
8
BLACK
6
CONTINUOUS
10
5.31524
20
-4.80374
11
5.31524
21
-4.80437
0
LINE
8
BLACK
6
CONTINUOUS
10
5.31524
20
-4.80437
11
5.31487
21
-4.80487
0
LINE
8
BLACK
6
CONTINUOUS
10
5.31487
20
-4.80487
11
5.31468
21
-4.80546
0
LINE
8
BLACK
6
CONTINUOUS
10
5.31468
20
-4.80546
11
5.31418
21
-4.80583
0
LINE
8
BLACK
6
CONTINUOUS
10
5.31418
20
-4.80583
11
5.31381
21
-4.80633
0
LINE
8
BLACK
6
CONTINUOUS
10
5.31381
20
-4.80633
11
5.31322
21
-4.80653
0
LINE
8
BLACK
6
CONTINUOUS
10
5.31322
20
-4.80653
11
5.31271
21
-4.80689
0
LINE
8
BLACK
6
CONTINUOUS
10
5.31271
20
-4.80689
11
5.31209
21
-4.80689
0
LINE
8
BLACK
6
CONTINUOUS
10
5.31209
20
-4.80689
11
5.3115
21
-4.80709
0
LINE
8
BLACK
6
CONTINUOUS
10
5.3115
20
-4.80709
11
4.99496
21
-4.80709
0
LINE
8
BLACK
6
CONTINUOUS
10
4.99496
20
-4.80709
11
4.99437
21
-4.80689
0
LINE
8
BLACK
6
CONTINUOUS
10
4.99437
20
-4.80689
11
4.99374
21
-4.80689
0
LINE
8
BLACK
6
CONTINUOUS
10
4.99374
20
-4.80689
11
4.99324
21
-4.80653
0
LINE
8
BLACK
6
CONTINUOUS
10
4.99324
20
-4.80653
11
4.99265
21
-4.80633
0
LINE
8
BLACK
6
CONTINUOUS
10
4.99265
20
-4.80633
11
4.99228
21
-4.80583
0
LINE
8
BLACK
6
CONTINUOUS
10
4.99228
20
-4.80583
11
4.99178
21
-4.80546
0
LINE
8
BLACK
6
CONTINUOUS
10
4.99178
20
-4.80546
11
4.99158
21
-4.80487
0
LINE
8
BLACK
6
CONTINUOUS
10
4.99158
20
-4.80487
11
4.99122
21
-4.80437
0
LINE
8
BLACK
6
CONTINUOUS
10
4.99122
20
-4.80437
11
4.99122
21
-4.80374
0
LINE
8
BLACK
6
CONTINUOUS
10
4.99122
20
-4.80374
11
4.99102
21
-4.80315
0
LINE
8
BLACK
6
CONTINUOUS
10
4.99102
20
-4.80315
11
4.99102
21
-3.54331
0
LINE
8
BLACK
6
CONTINUOUS
10
4.99102
20
-3.54331
11
4.99122
21
-3.54271
0
LINE
8
BLACK
6
CONTINUOUS
10
4.99122
20
-3.54271
11
4.99122
21
-3.54209
0
LINE
8
BLACK
6
CONTINUOUS
10
4.99122
20
-3.54209
11
4.99158
21
-3.54159
0
LINE
8
BLACK
6
CONTINUOUS
10
4.99158
20
-3.54159
11
4.99178
21
-3.54099
0
LINE
8
BLACK
6
CONTINUOUS
10
4.99178
20
-3.54099
11
4.99228
21
-3.54063
0
LINE
8
BLACK
6
CONTINUOUS
10
4.99228
20
-3.54063
11
4.99265
21
-3.54012
0
LINE
8
BLACK
6
CONTINUOUS
10
4.99265
20
-3.54012
11
4.99324
21
-3.53993
0
LINE
8
BLACK
6
CONTINUOUS
10
4.99324
20
-3.53993
11
4.99374
21
-3.53956
0
LINE
8
BLACK
6
CONTINUOUS
10
4.99374
20
-3.53956
11
4.99437
21
-3.53956
0
LINE
8
BLACK
6
CONTINUOUS
10
4.99437
20
-3.53956
11
4.99496
21
-3.53937
0
LINE
8
BLACK
6
CONTINUOUS
10
4.99496
20
-3.53937
11
5.3115
21
-3.53937
0
LINE
8
BLACK
6
CONTINUOUS
10
5.3115
20
-3.53937
11
5.31209
21
-3.53956
0
LINE
8
BLACK
6
CONTINUOUS
10
5.31209
20
-3.53956
11
5.31271
21
-3.53956
0
LINE
8
BLACK
6
CONTINUOUS
10
5.31271
20
-3.53956
11
5.31322
21
-3.53993
0
LINE
8
BLACK
6
CONTINUOUS
10
5.31322
20
-3.53993
11
5.31381
21
-3.54012
0
LINE
8
BLACK
6
CONTINUOUS
10
5.31381
20
-3.54012
11
5.31418
21
-3.54063
0
LINE
8
BLACK
6
CONTINUOUS
10
5.31418
20
-3.54063
11
5.31468
21
-3.54099
0
LINE
8
BLACK
6
CONTINUOUS
10
5.31468
20
-3.54099
11
5.31487
21
-3.54159
0
LINE
8
BLACK
6
CONTINUOUS
10
5.31487
20
-3.54159
11
5.31524
21
-3.54209
0
LINE
8
BLACK
6
CONTINUOUS
10
5.31524
20
-3.54209
11
5.31524
21
-3.54271
0
LINE
8
BLACK
6
CONTINUOUS
10
5.31524
20
-3.54271
11
5.31543
21
-3.54331
0
LINE
8
BLACK
6
CONTINUOUS
10
5.31543
20
-3.54331
11
5.31543
21
-3.57183
0
LINE
8
BLACK
6
CONTINUOUS
10
5.31543
20
-3.57183
11
5.32011
21
-3.57183
0
LINE
8
BLACK
6
CONTINUOUS
10
5.32011
20
-3.57183
11
5.32142
21
-3.57218
0
LINE
8
BLACK
6
CONTINUOUS
10
5.32142
20
-3.57218
11
5.32275
21
-3.57246
0
LINE
8
BLACK
6
CONTINUOUS
10
5.32275
20
-3.57246
11
5.32837
21
-3.57527
0
LINE
8
BLACK
6
CONTINUOUS
10
5.32837
20
-3.57527
11
5.32908
21
-3.5759
0
LINE
8
BLACK
6
CONTINUOUS
10
5.32908
20
-3.5759
11
5.32991
21
-3.57638
0
LINE
8
BLACK
6
CONTINUOUS
10
5.32991
20
-3.57638
11
5.33272
21
-3.57919
0
LINE
8
BLACK
6
CONTINUOUS
10
5.33272
20
-3.57919
11
5.33319
21
-3.58001
0
LINE
8
BLACK
6
CONTINUOUS
10
5.33319
20
-3.58001
11
5.33383
21
-3.58072
0
LINE
8
BLACK
6
CONTINUOUS
10
5.33383
20
-3.58072
11
5.33406
21
-3.58118
0
LINE
8
BLACK
6
CONTINUOUS
10
5.33406
20
-3.58118
11
5.33406
21
-3.29488
0
LINE
8
BLACK
6
CONTINUOUS
10
5.33406
20
-3.29488
11
5.33412
21
-3.2945
0
LINE
8
BLACK
6
CONTINUOUS
10
5.33412
20
-3.2945
11
5.3341
21
-3.29437
0
LINE
8
BLACK
6
CONTINUOUS
10
5.3341
20
-3.29437
11
5.33417
21
-3.29426
0
LINE
8
BLACK
6
CONTINUOUS
10
5.33417
20
-3.29426
11
5.33423
21
-3.29387
0
LINE
8
BLACK
6
CONTINUOUS
10
5.33423
20
-3.29387
11
5.33473
21
-3.29328
0
LINE
8
BLACK
6
CONTINUOUS
10
5.33473
20
-3.29328
11
5.33511
21
-3.29262
0
LINE
8
BLACK
6
CONTINUOUS
10
5.33511
20
-3.29262
11
5.33536
21
-3.29253
0
LINE
8
BLACK
6
CONTINUOUS
10
5.33536
20
-3.29253
11
5.33553
21
-3.29232
0
LINE
8
BLACK
6
CONTINUOUS
10
5.33553
20
-3.29232
11
5.33629
21
-3.29219
0
LINE
8
BLACK
6
CONTINUOUS
10
5.33629
20
-3.29219
11
5.33701
21
-3.29193
0
LINE
8
BLACK
6
CONTINUOUS
10
5.33701
20
-3.29193
11
5.53701
21
-3.29193
0
LINE
8
BLACK
6
CONTINUOUS
10
5.53701
20
-3.29193
11
5.53739
21
-3.292
0
LINE
8
BLACK
6
CONTINUOUS
10
4.9989
20
-3.54724
11
4.9989
21
-4.79921
0
LINE
8
BLACK
6
CONTINUOUS
10
4.9989
20
-4.79921
11
5.30756
21
-4.79921
0
LINE
8
BLACK
6
CONTINUOUS
10
5.30756
20
-4.79921
11
5.30756
21
-3.6427
0
LINE
8
BLACK
6
CONTINUOUS
10
5.30756
20
-3.6427
11
5.2948
21
-3.6427
0
LINE
8
BLACK
6
CONTINUOUS
10
5.2948
20
-3.6427
11
5.29405
21
-3.6425
0
LINE
8
BLACK
6
CONTINUOUS
10
5.29405
20
-3.6425
11
5.29327
21
-3.6425
0
LINE
8
BLACK
6
CONTINUOUS
10
5.29327
20
-3.6425
11
5.2926
21
-3.64211
0
LINE
8
BLACK
6
CONTINUOUS
10
5.2926
20
-3.64211
11
5.29184
21
-3.64191
0
LINE
8
BLACK
6
CONTINUOUS
10
5.29184
20
-3.64191
11
5.29129
21
-3.64136
0
LINE
8
BLACK
6
CONTINUOUS
10
5.29129
20
-3.64136
11
5.29062
21
-3.64097
0
LINE
8
BLACK
6
CONTINUOUS
10
5.29062
20
-3.64097
11
5.29023
21
-3.6403
0
LINE
8
BLACK
6
CONTINUOUS
10
5.29023
20
-3.6403
11
5.28968
21
-3.63975
0
LINE
8
BLACK
6
CONTINUOUS
10
5.28968
20
-3.63975
11
5.28948
21
-3.639
0
LINE
8
BLACK
6
CONTINUOUS
10
5.28948
20
-3.639
11
5.28909
21
-3.63832
0
LINE
8
BLACK
6
CONTINUOUS
10
5.28909
20
-3.63832
11
5.28909
21
-3.63755
0
LINE
8
BLACK
6
CONTINUOUS
10
5.28909
20
-3.63755
11
5.28889
21
-3.63679
0
LINE
8
BLACK
6
CONTINUOUS
10
5.28889
20
-3.63679
11
5.28909
21
-3.63604
0
LINE
8
BLACK
6
CONTINUOUS
10
5.28909
20
-3.63604
11
5.28909
21
-3.63527
0
LINE
8
BLACK
6
CONTINUOUS
10
5.28909
20
-3.63527
11
5.28948
21
-3.63459
0
LINE
8
BLACK
6
CONTINUOUS
10
5.28948
20
-3.63459
11
5.28968
21
-3.63384
0
LINE
8
BLACK
6
CONTINUOUS
10
5.28968
20
-3.63384
11
5.29023
21
-3.63329
0
LINE
8
BLACK
6
CONTINUOUS
10
5.29023
20
-3.63329
11
5.29062
21
-3.63262
0
LINE
8
BLACK
6
CONTINUOUS
10
5.29062
20
-3.63262
11
5.30756
21
-3.61568
0
LINE
8
BLACK
6
CONTINUOUS
10
5.30756
20
-3.61568
11
5.30756
21
-3.58364
0
LINE
8
BLACK
6
CONTINUOUS
10
5.30756
20
-3.58364
11
5.30744
21
-3.58364
0
LINE
8
BLACK
6
CONTINUOUS
10
5.30744
20
-3.58364
11
5.30392
21
-3.5854
0
LINE
8
BLACK
6
CONTINUOUS
10
5.30392
20
-3.5854
11
5.30179
21
-3.58754
0
LINE
8
BLACK
6
CONTINUOUS
10
5.30179
20
-3.58754
11
5.29914
21
-3.58907
0
LINE
8
BLACK
6
CONTINUOUS
10
5.29914
20
-3.58907
11
5.29608
21
-3.58907
0
LINE
8
BLACK
6
CONTINUOUS
10
5.29608
20
-3.58907
11
5.29343
21
-3.58754
0
LINE
8
BLACK
6
CONTINUOUS
10
5.29343
20
-3.58754
11
5.29191
21
-3.58489
0
LINE
8
BLACK
6
CONTINUOUS
10
5.29191
20
-3.58489
11
5.29191
21
-3.58183
0
LINE
8
BLACK
6
CONTINUOUS
10
5.29191
20
-3.58183
11
5.29343
21
-3.57919
0
LINE
8
BLACK
6
CONTINUOUS
10
5.29343
20
-3.57919
11
5.29625
21
-3.57638
0
LINE
8
BLACK
6
CONTINUOUS
10
5.29625
20
-3.57638
11
5.29707
21
-3.5759
0
LINE
8
BLACK
6
CONTINUOUS
10
5.29707
20
-3.5759
11
5.29778
21
-3.57527
0
LINE
8
BLACK
6
CONTINUOUS
10
5.29778
20
-3.57527
11
5.30341
21
-3.57246
0
LINE
8
BLACK
6
CONTINUOUS
10
5.30341
20
-3.57246
11
5.30474
21
-3.57218
0
LINE
8
BLACK
6
CONTINUOUS
10
5.30474
20
-3.57218
11
5.30605
21
-3.57183
0
LINE
8
BLACK
6
CONTINUOUS
10
5.30605
20
-3.57183
11
5.30756
21
-3.57183
0
LINE
8
BLACK
6
CONTINUOUS
10
5.30756
20
-3.57183
11
5.30756
21
-3.54724
0
LINE
8
BLACK
6
CONTINUOUS
10
5.30756
20
-3.54724
11
4.9989
21
-3.54724
0
LINE
8
BLACK
6
CONTINUOUS
10
5.31543
20
-3.58364
11
5.31543
21
-3.60781
0
LINE
8
BLACK
6
CONTINUOUS
10
5.31543
20
-3.60781
11
5.32338
21
-3.59986
0
LINE
8
BLACK
6
CONTINUOUS
10
5.32338
20
-3.59986
11
5.32545
21
-3.59365
0
LINE
8
BLACK
6
CONTINUOUS
10
5.32545
20
-3.59365
11
5.32545
21
-3.59038
0
LINE
8
BLACK
6
CONTINUOUS
10
5.32545
20
-3.59038
11
5.32369
21
-3.58686
0
LINE
8
BLACK
6
CONTINUOUS
10
5.32369
20
-3.58686
11
5.32223
21
-3.5854
0
LINE
8
BLACK
6
CONTINUOUS
10
5.32223
20
-3.5854
11
5.31871
21
-3.58364
0
LINE
8
BLACK
6
CONTINUOUS
10
5.31871
20
-3.58364
11
5.31543
21
-3.58364
0
LINE
8
BLACK
6
CONTINUOUS
10
5.33996
20
-3.29783
11
5.33996
21
-3.59193
0
LINE
8
BLACK
6
CONTINUOUS
10
5.33996
20
-3.59193
11
5.53406
21
-3.59193
0
LINE
8
BLACK
6
CONTINUOUS
10
5.53406
20
-3.59193
11
5.53406
21
-3.29783
0
LINE
8
BLACK
6
CONTINUOUS
10
5.53406
20
-3.29783
11
5.33996
21
-3.29783
0
LINE
8
BLACK
6
CONTINUOUS
10
5.1555
20
-3.57218
11
5.15683
21
-3.57246
0
LINE
8
BLACK
6
CONTINUOUS
10
5.15683
20
-3.57246
11
5.16246
21
-3.57527
0
LINE
8
BLACK
6
CONTINUOUS
10
5.16246
20
-3.57527
11
5.16317
21
-3.5759
0
LINE
8
BLACK
6
CONTINUOUS
10
5.16317
20
-3.5759
11
5.16399
21
-3.57638
0
LINE
8
BLACK
6
CONTINUOUS
10
5.16399
20
-3.57638
11
5.16961
21
-3.582
0
LINE
8
BLACK
6
CONTINUOUS
10
5.16961
20
-3.582
11
5.16964
21
-3.58204
0
LINE
8
BLACK
6
CONTINUOUS
10
5.16964
20
-3.58204
11
5.16968
21
-3.58207
0
LINE
8
BLACK
6
CONTINUOUS
10
5.16968
20
-3.58207
11
5.1704
21
-3.58336
0
LINE
8
BLACK
6
CONTINUOUS
10
5.1704
20
-3.58336
11
5.17114
21
-3.58465
0
LINE
8
BLACK
6
CONTINUOUS
10
5.17114
20
-3.58465
11
5.17114
21
-3.5847
0
LINE
8
BLACK
6
CONTINUOUS
10
5.17114
20
-3.5847
11
5.17117
21
-3.58474
0
LINE
8
BLACK
6
CONTINUOUS
10
5.17117
20
-3.58474
11
5.17398
21
-3.59599
0
LINE
8
BLACK
6
CONTINUOUS
10
5.17398
20
-3.59599
11
5.17397
21
-3.59672
0
LINE
8
BLACK
6
CONTINUOUS
10
5.17397
20
-3.59672
11
5.17416
21
-3.59742
0
LINE
8
BLACK
6
CONTINUOUS
10
5.17416
20
-3.59742
11
5.17416
21
-3.61711
0
LINE
8
BLACK
6
CONTINUOUS
10
5.17416
20
-3.61711
11
5.17397
21
-3.61781
0
LINE
8
BLACK
6
CONTINUOUS
10
5.17397
20
-3.61781
11
5.17398
21
-3.61854
0
LINE
8
BLACK
6
CONTINUOUS
10
5.17398
20
-3.61854
11
5.17117
21
-3.62979
0
LINE
8
BLACK
6
CONTINUOUS
10
5.17117
20
-3.62979
11
5.17114
21
-3.62983
0
LINE
8
BLACK
6
CONTINUOUS
10
5.17114
20
-3.62983
11
5.17114
21
-3.62989
0
LINE
8
BLACK
6
CONTINUOUS
10
5.17114
20
-3.62989
11
5.1704
21
-3.63117
0
LINE
8
BLACK
6
CONTINUOUS
10
5.1704
20
-3.63117
11
5.16968
21
-3.63246
0
LINE
8
BLACK
6
CONTINUOUS
10
5.16968
20
-3.63246
11
5.16964
21
-3.63249
0
LINE
8
BLACK
6
CONTINUOUS
10
5.16964
20
-3.63249
11
5.16961
21
-3.63253
0
LINE
8
BLACK
6
CONTINUOUS
10
5.16961
20
-3.63253
11
5.16399
21
-3.63816
0
LINE
8
BLACK
6
CONTINUOUS
10
5.16399
20
-3.63816
11
5.16317
21
-3.63863
0
LINE
8
BLACK
6
CONTINUOUS
10
5.16317
20
-3.63863
11
5.16246
21
-3.63926
0
LINE
8
BLACK
6
CONTINUOUS
10
5.16246
20
-3.63926
11
5.15683
21
-3.64208
0
LINE
8
BLACK
6
CONTINUOUS
10
5.15683
20
-3.64208
11
5.1555
21
-3.64235
0
LINE
8
BLACK
6
CONTINUOUS
10
5.1555
20
-3.64235
11
5.15419
21
-3.6427
0
LINE
8
BLACK
6
CONTINUOUS
10
5.15419
20
-3.6427
11
5.14294
21
-3.6427
0
LINE
8
BLACK
6
CONTINUOUS
10
5.14294
20
-3.6427
11
5.14163
21
-3.64235
0
LINE
8
BLACK
6
CONTINUOUS
10
5.14163
20
-3.64235
11
5.1403
21
-3.64208
0
LINE
8
BLACK
6
CONTINUOUS
10
5.1403
20
-3.64208
11
5.13468
21
-3.63926
0
LINE
8
BLACK
6
CONTINUOUS
10
5.13468
20
-3.63926
11
5.13396
21
-3.63863
0
LINE
8
BLACK
6
CONTINUOUS
10
5.13396
20
-3.63863
11
5.13314
21
-3.63816
0
LINE
8
BLACK
6
CONTINUOUS
10
5.13314
20
-3.63816
11
5.12752
21
-3.63253
0
LINE
8
BLACK
6
CONTINUOUS
10
5.12752
20
-3.63253
11
5.12749
21
-3.63249
0
LINE
8
BLACK
6
CONTINUOUS
10
5.12749
20
-3.63249
11
5.12745
21
-3.63246
0
LINE
8
BLACK
6
CONTINUOUS
10
5.12745
20
-3.63246
11
5.12673
21
-3.63117
0
LINE
8
BLACK
6
CONTINUOUS
10
5.12673
20
-3.63117
11
5.12599
21
-3.62989
0
LINE
8
BLACK
6
CONTINUOUS
10
5.12599
20
-3.62989
11
5.12599
21
-3.62983
0
LINE
8
BLACK
6
CONTINUOUS
10
5.12599
20
-3.62983
11
5.12596
21
-3.62979
0
LINE
8
BLACK
6
CONTINUOUS
10
5.12596
20
-3.62979
11
5.12315
21
-3.61854
0
LINE
8
BLACK
6
CONTINUOUS
10
5.12315
20
-3.61854
11
5.12316
21
-3.61781
0
LINE
8
BLACK
6
CONTINUOUS
10
5.12316
20
-3.61781
11
5.12298
21
-3.61711
0
LINE
8
BLACK
6
CONTINUOUS
10
5.12298
20
-3.61711
11
5.12298
21
-3.59742
0
LINE
8
BLACK
6
CONTINUOUS
10
5.12298
20
-3.59742
11
5.12316
21
-3.59672
0
LINE
8
BLACK
6
CONTINUOUS
10
5.12316
20
-3.59672
11
5.12315
21
-3.59599
0
LINE
8
BLACK
6
CONTINUOUS
10
5.12315
20
-3.59599
11
5.12596
21
-3.58474
0
LINE
8
BLACK
6
CONTINUOUS
10
5.12596
20
-3.58474
11
5.12599
21
-3.5847
0
LINE
8
BLACK
6
CONTINUOUS
10
5.12599
20
-3.5847
11
5.12599
21
-3.58465
0
LINE
8
BLACK
6
CONTINUOUS
10
5.12599
20
-3.58465
11
5.12673
21
-3.58336
0
LINE
8
BLACK
6
CONTINUOUS
10
5.12673
20
-3.58336
11
5.12745
21
-3.58207
0
LINE
8
BLACK
6
CONTINUOUS
10
5.12745
20
-3.58207
11
5.12749
21
-3.58204
0
LINE
8
BLACK
6
CONTINUOUS
10
5.12749
20
-3.58204
11
5.12752
21
-3.582
0
LINE
8
BLACK
6
CONTINUOUS
10
5.12752
20
-3.582
11
5.13314
21
-3.57638
0
LINE
8
BLACK
6
CONTINUOUS
10
5.13314
20
-3.57638
11
5.13396
21
-3.5759
0
LINE
8
BLACK
6
CONTINUOUS
10
5.13396
20
-3.5759
11
5.13468
21
-3.57527
0
LINE
8
BLACK
6
CONTINUOUS
10
5.13468
20
-3.57527
11
5.1403
21
-3.57246
0
LINE
8
BLACK
6
CONTINUOUS
10
5.1403
20
-3.57246
11
5.14163
21
-3.57218
0
LINE
8
BLACK
6
CONTINUOUS
10
5.14163
20
-3.57218
11
5.14294
21
-3.57183
0
LINE
8
BLACK
6
CONTINUOUS
10
5.14294
20
-3.57183
11
5.15419
21
-3.57183
0
LINE
8
BLACK
6
CONTINUOUS
10
5.15419
20
-3.57183
11
5.1555
21
-3.57218
0
LINE
8
BLACK
6
CONTINUOUS
10
5.14434
20
-3.58364
11
5.14082
21
-3.5854
0
LINE
8
BLACK
6
CONTINUOUS
10
5.14082
20
-3.5854
11
5.13703
21
-3.58919
0
LINE
8
BLACK
6
CONTINUOUS
10
5.13703
20
-3.58919
11
5.13479
21
-3.59815
0
LINE
8
BLACK
6
CONTINUOUS
10
5.13479
20
-3.59815
11
5.13479
21
-3.61638
0
LINE
8
BLACK
6
CONTINUOUS
10
5.13479
20
-3.61638
11
5.13703
21
-3.62534
0
LINE
8
BLACK
6
CONTINUOUS
10
5.13703
20
-3.62534
11
5.14082
21
-3.62913
0
LINE
8
BLACK
6
CONTINUOUS
10
5.14082
20
-3.62913
11
5.14434
21
-3.63089
0
LINE
8
BLACK
6
CONTINUOUS
10
5.14434
20
-3.63089
11
5.1528
21
-3.63089
0
LINE
8
BLACK
6
CONTINUOUS
10
5.1528
20
-3.63089
11
5.15632
21
-3.62913
0
LINE
8
BLACK
6
CONTINUOUS
10
5.15632
20
-3.62913
11
5.16011
21
-3.62534
0
LINE
8
BLACK
6
CONTINUOUS
10
5.16011
20
-3.62534
11
5.16235
21
-3.61638
0
LINE
8
BLACK
6
CONTINUOUS
10
5.16235
20
-3.61638
11
5.16235
21
-3.59815
0
LINE
8
BLACK
6
CONTINUOUS
10
5.16235
20
-3.59815
11
5.16011
21
-3.58919
0
LINE
8
BLACK
6
CONTINUOUS
10
5.16011
20
-3.58919
11
5.15632
21
-3.5854
0
LINE
8
BLACK
6
CONTINUOUS
10
5.15632
20
-3.5854
11
5.1528
21
-3.58364
0
LINE
8
BLACK
6
CONTINUOUS
10
5.1528
20
-3.58364
11
5.14434
21
-3.58364
0
LINE
8
BLACK
6
CONTINUOUS
10
5.23026
20
-3.57262
11
5.23242
21
-3.57479
0
LINE
8
BLACK
6
CONTINUOUS
10
5.23242
20
-3.57479
11
5.23321
21
-3.57774
0
LINE
8
BLACK
6
CONTINUOUS
10
5.23321
20
-3.57774
11
5.23321
21
-3.62555
0
LINE
8
BLACK
6
CONTINUOUS
10
5.23321
20
-3.62555
11
5.23286
21
-3.62686
0
LINE
8
BLACK
6
CONTINUOUS
10
5.23286
20
-3.62686
11
5.23259
21
-3.62819
0
LINE
8
BLACK
6
CONTINUOUS
10
5.23259
20
-3.62819
11
5.22978
21
-3.63381
0
LINE
8
BLACK
6
CONTINUOUS
10
5.22978
20
-3.63381
11
5.22915
21
-3.63452
0
LINE
8
BLACK
6
CONTINUOUS
10
5.22915
20
-3.63452
11
5.22867
21
-3.63535
0
LINE
8
BLACK
6
CONTINUOUS
10
5.22867
20
-3.63535
11
5.22586
21
-3.63816
0
LINE
8
BLACK
6
CONTINUOUS
10
5.22586
20
-3.63816
11
5.22503
21
-3.63863
0
LINE
8
BLACK
6
CONTINUOUS
10
5.22503
20
-3.63863
11
5.22432
21
-3.63926
0
LINE
8
BLACK
6
CONTINUOUS
10
5.22432
20
-3.63926
11
5.2187
21
-3.64208
0
LINE
8
BLACK
6
CONTINUOUS
10
5.2187
20
-3.64208
11
5.21737
21
-3.64235
0
LINE
8
BLACK
6
CONTINUOUS
10
5.21737
20
-3.64235
11
5.21606
21
-3.6427
0
LINE
8
BLACK
6
CONTINUOUS
10
5.21606
20
-3.6427
11
5.20481
21
-3.6427
0
LINE
8
BLACK
6
CONTINUOUS
10
5.20481
20
-3.6427
11
5.2035
21
-3.64235
0
LINE
8
BLACK
6
CONTINUOUS
10
5.2035
20
-3.64235
11
5.20217
21
-3.64208
0
LINE
8
BLACK
6
CONTINUOUS
10
5.20217
20
-3.64208
11
5.19654
21
-3.63926
0
LINE
8
BLACK
6
CONTINUOUS
10
5.19654
20
-3.63926
11
5.19583
21
-3.63863
0
LINE
8
BLACK
6
CONTINUOUS
10
5.19583
20
-3.63863
11
5.19501
21
-3.63816
0
LINE
8
BLACK
6
CONTINUOUS
10
5.19501
20
-3.63816
11
5.1922
21
-3.63535
0
LINE
8
BLACK
6
CONTINUOUS
10
5.1922
20
-3.63535
11
5.19172
21
-3.63452
0
LINE
8
BLACK
6
CONTINUOUS
10
5.19172
20
-3.63452
11
5.19109
21
-3.63381
0
LINE
8
BLACK
6
CONTINUOUS
10
5.19109
20
-3.63381
11
5.18828
21
-3.62819
0
LINE
8
BLACK
6
CONTINUOUS
10
5.18828
20
-3.62819
11
5.18801
21
-3.62686
0
LINE
8
BLACK
6
CONTINUOUS
10
5.18801
20
-3.62686
11
5.18765
21
-3.62555
0
LINE
8
BLACK
6
CONTINUOUS
10
5.18765
20
-3.62555
11
5.18765
21
-3.57774
0
LINE
8
BLACK
6
CONTINUOUS
10
5.18765
20
-3.57774
11
5.18845
21
-3.57479
0
LINE
8
BLACK
6
CONTINUOUS
10
5.18845
20
-3.57479
11
5.19061
21
-3.57262
0
LINE
8
BLACK
6
CONTINUOUS
10
5.19061
20
-3.57262
11
5.19356
21
-3.57183
0
LINE
8
BLACK
6
CONTINUOUS
10
5.19356
20
-3.57183
11
5.19651
21
-3.57262
0
LINE
8
BLACK
6
CONTINUOUS
10
5.19651
20
-3.57262
11
5.19867
21
-3.57479
0
LINE
8
BLACK
6
CONTINUOUS
10
5.19867
20
-3.57479
11
5.19947
21
-3.57774
0
LINE
8
BLACK
6
CONTINUOUS
10
5.19947
20
-3.57774
11
5.19947
21
-3.62415
0
LINE
8
BLACK
6
CONTINUOUS
10
5.19947
20
-3.62415
11
5.20123
21
-3.62767
0
LINE
8
BLACK
6
CONTINUOUS
10
5.20123
20
-3.62767
11
5.20268
21
-3.62913
0
LINE
8
BLACK
6
CONTINUOUS
10
5.20268
20
-3.62913
11
5.2062
21
-3.63089
0
LINE
8
BLACK
6
CONTINUOUS
10
5.2062
20
-3.63089
11
5.21466
21
-3.63089
0
LINE
8
BLACK
6
CONTINUOUS
10
5.21466
20
-3.63089
11
5.21818
21
-3.62913
0
LINE
8
BLACK
6
CONTINUOUS
10
5.21818
20
-3.62913
11
5.21964
21
-3.62767
0
LINE
8
BLACK
6
CONTINUOUS
10
5.21964
20
-3.62767
11
5.2214
21
-3.62415
0
LINE
8
BLACK
6
CONTINUOUS
10
5.2214
20
-3.62415
11
5.2214
21
-3.57774
0
LINE
8
BLACK
6
CONTINUOUS
10
5.2214
20
-3.57774
11
5.22219
21
-3.57479
0
LINE
8
BLACK
6
CONTINUOUS
10
5.22219
20
-3.57479
11
5.22435
21
-3.57262
0
LINE
8
BLACK
6
CONTINUOUS
10
5.22435
20
-3.57262
11
5.22731
21
-3.57183
0
LINE
8
BLACK
6
CONTINUOUS
10
5.22731
20
-3.57183
11
5.23026
21
-3.57262
0
LINE
8
BLACK
6
CONTINUOUS
10
5.28369
20
-3.57262
11
5.28585
21
-3.57479
0
LINE
8
BLACK
6
CONTINUOUS
10
5.28585
20
-3.57479
11
5.28664
21
-3.57774
0
LINE
8
BLACK
6
CONTINUOUS
10
5.28664
20
-3.57774
11
5.28585
21
-3.58069
0
LINE
8
BLACK
6
CONTINUOUS
10
5.28585
20
-3.58069
11
5.28369
21
-3.58285
0
LINE
8
BLACK
6
CONTINUOUS
10
5.28369
20
-3.58285
11
5.28074
21
-3.58364
0
LINE
8
BLACK
6
CONTINUOUS
10
5.28074
20
-3.58364
11
5.26977
21
-3.58364
0
LINE
8
BLACK
6
CONTINUOUS
10
5.26977
20
-3.58364
11
5.26977
21
-3.63679
0
LINE
8
BLACK
6
CONTINUOUS
10
5.26977
20
-3.63679
11
5.26898
21
-3.63975
0
LINE
8
BLACK
6
CONTINUOUS
10
5.26898
20
-3.63975
11
5.26682
21
-3.64191
0
LINE
8
BLACK
6
CONTINUOUS
10
5.26682
20
-3.64191
11
5.26386
21
-3.6427
0
LINE
8
BLACK
6
CONTINUOUS
10
5.26386
20
-3.6427
11
5.26091
21
-3.64191
0
LINE
8
BLACK
6
CONTINUOUS
10
5.26091
20
-3.64191
11
5.25875
21
-3.63975
0
LINE
8
BLACK
6
CONTINUOUS
10
5.25875
20
-3.63975
11
5.25796
21
-3.63679
0
LINE
8
BLACK
6
CONTINUOUS
10
5.25796
20
-3.63679
11
5.25796
21
-3.58364
0
LINE
8
BLACK
6
CONTINUOUS
10
5.25796
20
-3.58364
11
5.24699
21
-3.58364
0
LINE
8
BLACK
6
CONTINUOUS
10
5.24699
20
-3.58364
11
5.24404
21
-3.58285
0
LINE
8
BLACK
6
CONTINUOUS
10
5.24404
20
-3.58285
11
5.24188
21
-3.58069
0
LINE
8
BLACK
6
CONTINUOUS
10
5.24188
20
-3.58069
11
5.24109
21
-3.57774
0
LINE
8
BLACK
6
CONTINUOUS
10
5.24109
20
-3.57774
11
5.24188
21
-3.57479
0
LINE
8
BLACK
6
CONTINUOUS
10
5.24188
20
-3.57479
11
5.24404
21
-3.57262
0
LINE
8
BLACK
6
CONTINUOUS
10
5.24404
20
-3.57262
11
5.24699
21
-3.57183
0
LINE
8
BLACK
6
CONTINUOUS
10
5.24699
20
-3.57183
11
5.28074
21
-3.57183
0
LINE
8
BLACK
6
CONTINUOUS
10
5.28074
20
-3.57183
11
5.28369
21
-3.57262
0
LINE
8
BLACK
6
CONTINUOUS
10
5.46196
20
-3.48656
11
5.46274
21
-3.48656
0
LINE
8
BLACK
6
CONTINUOUS
10
5.46274
20
-3.48656
11
5.46341
21
-3.48695
0
LINE
8
BLACK
6
CONTINUOUS
10
5.46341
20
-3.48695
11
5.46416
21
-3.48715
0
LINE
8
BLACK
6
CONTINUOUS
10
5.46416
20
-3.48715
11
5.46471
21
-3.4877
0
LINE
8
BLACK
6
CONTINUOUS
10
5.46471
20
-3.4877
11
5.46539
21
-3.48809
0
LINE
8
BLACK
6
CONTINUOUS
10
5.46539
20
-3.48809
11
5.4682
21
-3.4909
0
LINE
8
BLACK
6
CONTINUOUS
10
5.4682
20
-3.4909
11
5.46888
21
-3.49207
0
LINE
8
BLACK
6
CONTINUOUS
10
5.46888
20
-3.49207
11
5.46962
21
-3.49321
0
LINE
8
BLACK
6
CONTINUOUS
10
5.46962
20
-3.49321
11
5.47244
21
-3.50164
0
LINE
8
BLACK
6
CONTINUOUS
10
5.47244
20
-3.50164
11
5.47249
21
-3.50259
0
LINE
8
BLACK
6
CONTINUOUS
10
5.47249
20
-3.50259
11
5.47274
21
-3.50351
0
LINE
8
BLACK
6
CONTINUOUS
10
5.47274
20
-3.50351
11
5.47274
21
-3.50913
0
LINE
8
BLACK
6
CONTINUOUS
10
5.47274
20
-3.50913
11
5.47249
21
-3.51005
0
LINE
8
BLACK
6
CONTINUOUS
10
5.47249
20
-3.51005
11
5.47244
21
-3.511
0
LINE
8
BLACK
6
CONTINUOUS
10
5.47244
20
-3.511
11
5.47114
21
-3.51488
0
LINE
8
BLACK
6
CONTINUOUS
10
5.47114
20
-3.51488
11
5.51701
21
-3.51488
0
LINE
8
BLACK
6
CONTINUOUS
10
5.51701
20
-3.51488
11
5.51701
21
-3.57488
0
LINE
8
BLACK
6
CONTINUOUS
10
5.51701
20
-3.57488
11
5.45701
21
-3.57488
0
LINE
8
BLACK
6
CONTINUOUS
10
5.45701
20
-3.57488
11
5.45701
21
-3.53049
0
LINE
8
BLACK
6
CONTINUOUS
10
5.45701
20
-3.53049
11
5.45541
21
-3.53129
0
LINE
8
BLACK
6
CONTINUOUS
10
5.45541
20
-3.53129
11
5.45477
21
-3.53142
0
LINE
8
BLACK
6
CONTINUOUS
10
5.45477
20
-3.53142
11
5.45421
21
-3.53174
0
LINE
8
BLACK
6
CONTINUOUS
10
5.45421
20
-3.53174
11
5.44296
21
-3.53455
0
LINE
8
BLACK
6
CONTINUOUS
10
5.44296
20
-3.53455
11
5.44223
21
-3.53454
0
LINE
8
BLACK
6
CONTINUOUS
10
5.44223
20
-3.53454
11
5.44152
21
-3.53472
0
LINE
8
BLACK
6
CONTINUOUS
10
5.44152
20
-3.53472
11
5.43309
21
-3.53472
0
LINE
8
BLACK
6
CONTINUOUS
10
5.43309
20
-3.53472
11
5.43238
21
-3.53454
0
LINE
8
BLACK
6
CONTINUOUS
10
5.43238
20
-3.53454
11
5.43166
21
-3.53455
0
LINE
8
BLACK
6
CONTINUOUS
10
5.43166
20
-3.53455
11
5.42041
21
-3.53174
0
LINE
8
BLACK
6
CONTINUOUS
10
5.42041
20
-3.53174
11
5.41984
21
-3.53142
0
LINE
8
BLACK
6
CONTINUOUS
10
5.41984
20
-3.53142
11
5.4192
21
-3.53129
0
LINE
8
BLACK
6
CONTINUOUS
10
5.4192
20
-3.53129
11
5.41701
21
-3.53019
0
LINE
8
BLACK
6
CONTINUOUS
10
5.41701
20
-3.53019
11
5.41701
21
-3.57488
0
LINE
8
BLACK
6
CONTINUOUS
10
5.41701
20
-3.57488
11
5.35701
21
-3.57488
0
LINE
8
BLACK
6
CONTINUOUS
10
5.35701
20
-3.57488
11
5.35701
21
-3.51488
0
LINE
8
BLACK
6
CONTINUOUS
10
5.35701
20
-3.51488
11
5.40347
21
-3.51488
0
LINE
8
BLACK
6
CONTINUOUS
10
5.40347
20
-3.51488
11
5.40218
21
-3.511
0
LINE
8
BLACK
6
CONTINUOUS
10
5.40218
20
-3.511
11
5.40212
21
-3.51005
0
LINE
8
BLACK
6
CONTINUOUS
10
5.40212
20
-3.51005
11
5.40187
21
-3.50913
0
LINE
8
BLACK
6
CONTINUOUS
10
5.40187
20
-3.50913
11
5.40187
21
-3.5007
0
LINE
8
BLACK
6
CONTINUOUS
10
5.40187
20
-3.5007
11
5.40222
21
-3.49939
0
LINE
8
BLACK
6
CONTINUOUS
10
5.40222
20
-3.49939
11
5.4025
21
-3.49806
0
LINE
8
BLACK
6
CONTINUOUS
10
5.4025
20
-3.49806
11
5.40531
21
-3.49243
0
LINE
8
BLACK
6
CONTINUOUS
10
5.40531
20
-3.49243
11
5.40734
21
-3.49014
0
LINE
8
BLACK
6
CONTINUOUS
10
5.40734
20
-3.49014
11
5.41024
21
-3.48918
0
LINE
8
BLACK
6
CONTINUOUS
10
5.41024
20
-3.48918
11
5.41323
21
-3.48979
0
LINE
8
BLACK
6
CONTINUOUS
10
5.41323
20
-3.48979
11
5.41552
21
-3.49182
0
LINE
8
BLACK
6
CONTINUOUS
10
5.41552
20
-3.49182
11
5.41649
21
-3.49472
0
LINE
8
BLACK
6
CONTINUOUS
10
5.41649
20
-3.49472
11
5.41587
21
-3.49771
0
LINE
8
BLACK
6
CONTINUOUS
10
5.41587
20
-3.49771
11
5.41368
21
-3.50209
0
LINE
8
BLACK
6
CONTINUOUS
10
5.41368
20
-3.50209
11
5.41368
21
-3.50818
0
LINE
8
BLACK
6
CONTINUOUS
10
5.41368
20
-3.50818
11
5.41575
21
-3.51438
0
LINE
8
BLACK
6
CONTINUOUS
10
5.41575
20
-3.51438
11
5.41625
21
-3.51488
0
LINE
8
BLACK
6
CONTINUOUS
10
5.41625
20
-3.51488
11
5.41701
21
-3.51488
0
LINE
8
BLACK
6
CONTINUOUS
10
5.41701
20
-3.51488
11
5.41701
21
-3.51564
0
LINE
8
BLACK
6
CONTINUOUS
10
5.41701
20
-3.51564
11
5.41971
21
-3.51834
0
LINE
8
BLACK
6
CONTINUOUS
10
5.41971
20
-3.51834
11
5.4239
21
-3.52043
0
LINE
8
BLACK
6
CONTINUOUS
10
5.4239
20
-3.52043
11
5.43381
21
-3.52291
0
LINE
8
BLACK
6
CONTINUOUS
10
5.43381
20
-3.52291
11
5.4408
21
-3.52291
0
LINE
8
BLACK
6
CONTINUOUS
10
5.4408
20
-3.52291
11
5.45071
21
-3.52043
0
LINE
8
BLACK
6
CONTINUOUS
10
5.45071
20
-3.52043
11
5.4549
21
-3.51834
0
LINE
8
BLACK
6
CONTINUOUS
10
5.4549
20
-3.51834
11
5.45701
21
-3.51623
0
LINE
8
BLACK
6
CONTINUOUS
10
5.45701
20
-3.51623
11
5.45701
21
-3.51488
0
LINE
8
BLACK
6
CONTINUOUS
10
5.45701
20
-3.51488
11
5.45836
21
-3.51488
0
LINE
8
BLACK
6
CONTINUOUS
10
5.45836
20
-3.51488
11
5.45886
21
-3.51438
0
LINE
8
BLACK
6
CONTINUOUS
10
5.45886
20
-3.51438
11
5.46093
21
-3.50818
0
LINE
8
BLACK
6
CONTINUOUS
10
5.46093
20
-3.50818
11
5.46093
21
-3.50447
0
LINE
8
BLACK
6
CONTINUOUS
10
5.46093
20
-3.50447
11
5.45886
21
-3.49826
0
LINE
8
BLACK
6
CONTINUOUS
10
5.45886
20
-3.49826
11
5.45876
21
-3.49817
0
LINE
8
BLACK
6
CONTINUOUS
10
5.45876
20
-3.49817
11
5.44743
21
-3.49817
0
LINE
8
BLACK
6
CONTINUOUS
10
5.44743
20
-3.49817
11
5.44743
21
-3.50351
0
LINE
8
BLACK
6
CONTINUOUS
10
5.44743
20
-3.50351
11
5.44664
21
-3.50646
0
LINE
8
BLACK
6
CONTINUOUS
10
5.44664
20
-3.50646
11
5.44448
21
-3.50862
0
LINE
8
BLACK
6
CONTINUOUS
10
5.44448
20
-3.50862
11
5.44152
21
-3.50942
0
LINE
8
BLACK
6
CONTINUOUS
10
5.44152
20
-3.50942
11
5.43857
21
-3.50862
0
LINE
8
BLACK
6
CONTINUOUS
10
5.43857
20
-3.50862
11
5.43641
21
-3.50646
0
LINE
8
BLACK
6
CONTINUOUS
10
5.43641
20
-3.50646
11
5.43562
21
-3.50351
0
LINE
8
BLACK
6
CONTINUOUS
10
5.43562
20
-3.50351
11
5.43562
21
-3.49226
0
LINE
8
BLACK
6
CONTINUOUS
10
5.43562
20
-3.49226
11
5.43641
21
-3.48931
0
LINE
8
BLACK
6
CONTINUOUS
10
5.43641
20
-3.48931
11
5.43857
21
-3.48715
0
LINE
8
BLACK
6
CONTINUOUS
10
5.43857
20
-3.48715
11
5.44152
21
-3.48636
0
LINE
8
BLACK
6
CONTINUOUS
10
5.44152
20
-3.48636
11
5.46121
21
-3.48636
0
LINE
8
BLACK
6
CONTINUOUS
10
5.46121
20
-3.48636
11
5.46196
21
-3.48656
0
LINE
8
BLACK
6
CONTINUOUS
10
5.41701
20
-3.4273
11
5.45701
21
-3.4273
0
LINE
8
BLACK
6
CONTINUOUS
10
5.45701
20
-3.4273
11
5.45701
21
-3.41488
0
LINE
8
BLACK
6
CONTINUOUS
10
5.45701
20
-3.41488
11
5.51701
21
-3.41488
0
LINE
8
BLACK
6
CONTINUOUS
10
5.51701
20
-3.41488
11
5.51701
21
-3.47488
0
LINE
8
BLACK
6
CONTINUOUS
10
5.51701
20
-3.47488
11
5.45701
21
-3.47488
0
LINE
8
BLACK
6
CONTINUOUS
10
5.45701
20
-3.47488
11
5.45701
21
-3.47286
0
LINE
8
BLACK
6
CONTINUOUS
10
5.45701
20
-3.47286
11
5.41701
21
-3.47286
0
LINE
8
BLACK
6
CONTINUOUS
10
5.41701
20
-3.47286
11
5.41701
21
-3.47488
0
LINE
8
BLACK
6
CONTINUOUS
10
5.41701
20
-3.47488
11
5.35701
21
-3.47488
0
LINE
8
BLACK
6
CONTINUOUS
10
5.35701
20
-3.47488
11
5.35701
21
-3.41488
0
LINE
8
BLACK
6
CONTINUOUS
10
5.35701
20
-3.41488
11
5.41701
21
-3.41488
0
LINE
8
BLACK
6
CONTINUOUS
10
5.41701
20
-3.41488
11
5.41701
21
-3.4273
0
LINE
8
BLACK
6
CONTINUOUS
10
5.43002
20
-3.46105
11
5.45701
21
-3.46105
0
LINE
8
BLACK
6
CONTINUOUS
10
5.45701
20
-3.46105
11
5.45701
21
-3.44562
0
LINE
8
BLACK
6
CONTINUOUS
10
5.45701
20
-3.44562
11
5.43002
21
-3.46105
0
LINE
8
BLACK
6
CONTINUOUS
10
5.41701
20
-3.43911
11
5.41701
21
-3.45488
0
LINE
8
BLACK
6
CONTINUOUS
10
5.41701
20
-3.45488
11
5.4446
21
-3.43911
0
LINE
8
BLACK
6
CONTINUOUS
10
5.4446
20
-3.43911
11
5.41701
21
-3.43911
0
LINE
8
BLACK
6
CONTINUOUS
10
5.40483
20
-3.4102
11
5.40266
21
-3.40804
0
LINE
8
BLACK
6
CONTINUOUS
10
5.40266
20
-3.40804
11
5.40187
21
-3.40508
0
LINE
8
BLACK
6
CONTINUOUS
10
5.40187
20
-3.40508
11
5.40187
21
-3.39102
0
LINE
8
BLACK
6
CONTINUOUS
10
5.40187
20
-3.39102
11
5.40212
21
-3.39011
0
LINE
8
BLACK
6
CONTINUOUS
10
5.40212
20
-3.39011
11
5.40218
21
-3.38916
0
LINE
8
BLACK
6
CONTINUOUS
10
5.40218
20
-3.38916
11
5.40499
21
-3.38072
0
LINE
8
BLACK
6
CONTINUOUS
10
5.40499
20
-3.38072
11
5.40574
21
-3.37959
0
LINE
8
BLACK
6
CONTINUOUS
10
5.40574
20
-3.37959
11
5.40641
21
-3.37841
0
LINE
8
BLACK
6
CONTINUOUS
10
5.40641
20
-3.37841
11
5.40994
21
-3.37488
0
LINE
8
BLACK
6
CONTINUOUS
10
5.40994
20
-3.37488
11
5.35701
21
-3.37488
0
LINE
8
BLACK
6
CONTINUOUS
10
5.35701
20
-3.37488
11
5.35701
21
-3.31488
0
LINE
8
BLACK
6
CONTINUOUS
10
5.35701
20
-3.31488
11
5.41701
21
-3.31488
0
LINE
8
BLACK
6
CONTINUOUS
10
5.41701
20
-3.31488
11
5.41701
21
-3.36996
0
LINE
8
BLACK
6
CONTINUOUS
10
5.41701
20
-3.36996
11
5.4192
21
-3.36887
0
LINE
8
BLACK
6
CONTINUOUS
10
5.4192
20
-3.36887
11
5.41984
21
-3.36874
0
LINE
8
BLACK
6
CONTINUOUS
10
5.41984
20
-3.36874
11
5.42041
21
-3.36842
0
LINE
8
BLACK
6
CONTINUOUS
10
5.42041
20
-3.36842
11
5.43166
21
-3.36561
0
LINE
8
BLACK
6
CONTINUOUS
10
5.43166
20
-3.36561
11
5.43238
21
-3.36562
0
LINE
8
BLACK
6
CONTINUOUS
10
5.43238
20
-3.36562
11
5.43309
21
-3.36543
0
LINE
8
BLACK
6
CONTINUOUS
10
5.43309
20
-3.36543
11
5.44152
21
-3.36543
0
LINE
8
BLACK
6
CONTINUOUS
10
5.44152
20
-3.36543
11
5.44223
21
-3.36562
0
LINE
8
BLACK
6
CONTINUOUS
10
5.44223
20
-3.36562
11
5.44296
21
-3.36561
0
LINE
8
BLACK
6
CONTINUOUS
10
5.44296
20
-3.36561
11
5.45421
21
-3.36842
0
LINE
8
BLACK
6
CONTINUOUS
10
5.45421
20
-3.36842
11
5.45477
21
-3.36874
0
LINE
8
BLACK
6
CONTINUOUS
10
5.45477
20
-3.36874
11
5.45541
21
-3.36887
0
LINE
8
BLACK
6
CONTINUOUS
10
5.45541
20
-3.36887
11
5.45701
21
-3.36967
0
LINE
8
BLACK
6
CONTINUOUS
10
5.45701
20
-3.36967
11
5.45701
21
-3.31488
0
LINE
8
BLACK
6
CONTINUOUS
10
5.45701
20
-3.31488
11
5.51701
21
-3.31488
0
LINE
8
BLACK
6
CONTINUOUS
10
5.51701
20
-3.31488
11
5.51701
21
-3.37488
0
LINE
8
BLACK
6
CONTINUOUS
10
5.51701
20
-3.37488
11
5.46467
21
-3.37488
0
LINE
8
BLACK
6
CONTINUOUS
10
5.46467
20
-3.37488
11
5.4682
21
-3.37841
0
LINE
8
BLACK
6
CONTINUOUS
10
5.4682
20
-3.37841
11
5.46888
21
-3.37959
0
LINE
8
BLACK
6
CONTINUOUS
10
5.46888
20
-3.37959
11
5.46962
21
-3.38072
0
LINE
8
BLACK
6
CONTINUOUS
10
5.46962
20
-3.38072
11
5.47244
21
-3.38916
0
LINE
8
BLACK
6
CONTINUOUS
10
5.47244
20
-3.38916
11
5.47249
21
-3.39011
0
LINE
8
BLACK
6
CONTINUOUS
10
5.47249
20
-3.39011
11
5.47274
21
-3.39102
0
LINE
8
BLACK
6
CONTINUOUS
10
5.47274
20
-3.39102
11
5.47274
21
-3.40508
0
LINE
8
BLACK
6
CONTINUOUS
10
5.47274
20
-3.40508
11
5.47195
21
-3.40804
0
LINE
8
BLACK
6
CONTINUOUS
10
5.47195
20
-3.40804
11
5.46979
21
-3.4102
0
LINE
8
BLACK
6
CONTINUOUS
10
5.46979
20
-3.4102
11
5.46683
21
-3.41099
0
LINE
8
BLACK
6
CONTINUOUS
10
5.46683
20
-3.41099
11
5.40778
21
-3.41099
0
LINE
8
BLACK
6
CONTINUOUS
10
5.40778
20
-3.41099
11
5.40483
21
-3.4102
0
LINE
8
BLACK
6
CONTINUOUS
10
5.43381
20
-3.37724
11
5.4239
21
-3.37972
0
LINE
8
BLACK
6
CONTINUOUS
10
5.4239
20
-3.37972
11
5.41971
21
-3.38182
0
LINE
8
BLACK
6
CONTINUOUS
10
5.41971
20
-3.38182
11
5.41575
21
-3.38578
0
LINE
8
BLACK
6
CONTINUOUS
10
5.41575
20
-3.38578
11
5.41368
21
-3.39198
0
LINE
8
BLACK
6
CONTINUOUS
10
5.41368
20
-3.39198
11
5.41368
21
-3.39918
0
LINE
8
BLACK
6
CONTINUOUS
10
5.41368
20
-3.39918
11
5.46093
21
-3.39918
0
LINE
8
BLACK
6
CONTINUOUS
10
5.46093
20
-3.39918
11
5.46093
21
-3.39198
0
LINE
8
BLACK
6
CONTINUOUS
10
5.46093
20
-3.39198
11
5.45886
21
-3.38578
0
LINE
8
BLACK
6
CONTINUOUS
10
5.45886
20
-3.38578
11
5.4549
21
-3.38182
0
LINE
8
BLACK
6
CONTINUOUS
10
5.4549
20
-3.38182
11
5.45071
21
-3.37972
0
LINE
8
BLACK
6
CONTINUOUS
10
5.45071
20
-3.37972
11
5.4408
21
-3.37724
0
LINE
8
BLACK
6
CONTINUOUS
10
5.4408
20
-3.37724
11
5.43381
21
-3.37724
0
LINE
8
BLACK
6
CONTINUOUS
10
6.24547
20
-3.53956
11
6.2461
21
-3.53956
0
LINE
8
BLACK
6
CONTINUOUS
10
6.2461
20
-3.53956
11
6.2466
21
-3.53993
0
LINE
8
BLACK
6
CONTINUOUS
10
6.2466
20
-3.53993
11
6.2472
21
-3.54012
0
LINE
8
BLACK
6
CONTINUOUS
10
6.2472
20
-3.54012
11
6.24756
21
-3.54063
0
LINE
8
BLACK
6
CONTINUOUS
10
6.24756
20
-3.54063
11
6.24807
21
-3.54099
0
LINE
8
BLACK
6
CONTINUOUS
10
6.24807
20
-3.54099
11
6.24826
21
-3.54159
0
LINE
8
BLACK
6
CONTINUOUS
10
6.24826
20
-3.54159
11
6.24863
21
-3.54209
0
LINE
8
BLACK
6
CONTINUOUS
10
6.24863
20
-3.54209
11
6.24863
21
-3.54271
0
LINE
8
BLACK
6
CONTINUOUS
10
6.24863
20
-3.54271
11
6.24882
21
-3.54331
0
LINE
8
BLACK
6
CONTINUOUS
10
6.24882
20
-3.54331
11
6.24882
21
-4.80315
0
LINE
8
BLACK
6
CONTINUOUS
10
6.24882
20
-4.80315
11
6.24863
21
-4.80374
0
LINE
8
BLACK
6
CONTINUOUS
10
6.24863
20
-4.80374
11
6.24863
21
-4.80437
0
LINE
8
BLACK
6
CONTINUOUS
10
6.24863
20
-4.80437
11
6.24826
21
-4.80487
0
LINE
8
BLACK
6
CONTINUOUS
10
6.24826
20
-4.80487
11
6.24807
21
-4.80546
0
LINE
8
BLACK
6
CONTINUOUS
10
6.24807
20
-4.80546
11
6.24756
21
-4.80583
0
LINE
8
BLACK
6
CONTINUOUS
10
6.24756
20
-4.80583
11
6.2472
21
-4.80633
0
LINE
8
BLACK
6
CONTINUOUS
10
6.2472
20
-4.80633
11
6.2466
21
-4.80653
0
LINE
8
BLACK
6
CONTINUOUS
10
6.2466
20
-4.80653
11
6.2461
21
-4.80689
0
LINE
8
BLACK
6
CONTINUOUS
10
6.2461
20
-4.80689
11
6.24547
21
-4.80689
0
LINE
8
BLACK
6
CONTINUOUS
10
6.24547
20
-4.80689
11
6.24488
21
-4.80709
0
LINE
8
BLACK
6
CONTINUOUS
10
6.24488
20
-4.80709
11
5.92835
21
-4.80709
0
LINE
8
BLACK
6
CONTINUOUS
10
5.92835
20
-4.80709
11
5.92775
21
-4.80689
0
LINE
8
BLACK
6
CONTINUOUS
10
5.92775
20
-4.80689
11
5.92713
21
-4.80689
0
LINE
8
BLACK
6
CONTINUOUS
10
5.92713
20
-4.80689
11
5.92663
21
-4.80653
0
LINE
8
BLACK
6
CONTINUOUS
10
5.92663
20
-4.80653
11
5.92603
21
-4.80633
0
LINE
8
BLACK
6
CONTINUOUS
10
5.92603
20
-4.80633
11
5.92567
21
-4.80583
0
LINE
8
BLACK
6
CONTINUOUS
10
5.92567
20
-4.80583
11
5.92516
21
-4.80546
0
LINE
8
BLACK
6
CONTINUOUS
10
5.92516
20
-4.80546
11
5.92497
21
-4.80487
0
LINE
8
BLACK
6
CONTINUOUS
10
5.92497
20
-4.80487
11
5.9246
21
-4.80437
0
LINE
8
BLACK
6
CONTINUOUS
10
5.9246
20
-4.80437
11
5.9246
21
-4.80374
0
LINE
8
BLACK
6
CONTINUOUS
10
5.9246
20
-4.80374
11
5.92441
21
-4.80315
0
LINE
8
BLACK
6
CONTINUOUS
10
5.92441
20
-4.80315
11
5.92441
21
-3.54331
0
LINE
8
BLACK
6
CONTINUOUS
10
5.92441
20
-3.54331
11
5.9246
21
-3.54271
0
LINE
8
BLACK
6
CONTINUOUS
10
5.9246
20
-3.54271
11
5.9246
21
-3.54209
0
LINE
8
BLACK
6
CONTINUOUS
10
5.9246
20
-3.54209
11
5.92497
21
-3.54159
0
LINE
8
BLACK
6
CONTINUOUS
10
5.92497
20
-3.54159
11
5.92516
21
-3.54099
0
LINE
8
BLACK
6
CONTINUOUS
10
5.92516
20
-3.54099
11
5.92567
21
-3.54063
0
LINE
8
BLACK
6
CONTINUOUS
10
5.92567
20
-3.54063
11
5.92603
21
-3.54012
0
LINE
8
BLACK
6
CONTINUOUS
10
5.92603
20
-3.54012
11
5.92663
21
-3.53993
0
LINE
8
BLACK
6
CONTINUOUS
10
5.92663
20
-3.53993
11
5.92713
21
-3.53956
0
LINE
8
BLACK
6
CONTINUOUS
10
5.92713
20
-3.53956
11
5.92775
21
-3.53956
0
LINE
8
BLACK
6
CONTINUOUS
10
5.92775
20
-3.53956
11
5.92835
21
-3.53937
0
LINE
8
BLACK
6
CONTINUOUS
10
5.92835
20
-3.53937
11
6.24488
21
-3.53937
0
LINE
8
BLACK
6
CONTINUOUS
10
6.24488
20
-3.53937
11
6.24547
21
-3.53956
0
LINE
8
BLACK
6
CONTINUOUS
10
5.93228
20
-3.54724
11
5.93228
21
-4.79921
0
LINE
8
BLACK
6
CONTINUOUS
10
5.93228
20
-4.79921
11
6.24094
21
-4.79921
0
LINE
8
BLACK
6
CONTINUOUS
10
6.24094
20
-4.79921
11
6.24094
21
-3.54724
0
LINE
8
BLACK
6
CONTINUOUS
10
6.24094
20
-3.54724
11
5.93228
21
-3.54724
0
LINE
8
BLACK
6
CONTINUOUS
10
6.40821
20
-4.76612
11
6.40976
21
-4.76742
0
LINE
8
BLACK
6
CONTINUOUS
10
6.40976
20
-4.76742
11
6.41011
21
-4.76941
0
LINE
8
BLACK
6
CONTINUOUS
10
6.41011
20
-4.76941
11
6.4091
21
-4.77116
0
LINE
8
BLACK
6
CONTINUOUS
10
6.4091
20
-4.77116
11
6.4072
21
-4.77185
0
LINE
8
BLACK
6
CONTINUOUS
10
6.4072
20
-4.77185
11
6.3172
21
-4.77185
0
LINE
8
BLACK
6
CONTINUOUS
10
6.3172
20
-4.77185
11
6.31619
21
-4.77167
0
LINE
8
BLACK
6
CONTINUOUS
10
6.31619
20
-4.77167
11
6.31465
21
-4.77037
0
LINE
8
BLACK
6
CONTINUOUS
10
6.31465
20
-4.77037
11
6.3143
21
-4.76838
0
LINE
8
BLACK
6
CONTINUOUS
10
6.3143
20
-4.76838
11
6.31531
21
-4.76664
0
LINE
8
BLACK
6
CONTINUOUS
10
6.31531
20
-4.76664
11
6.3172
21
-4.76594
0
LINE
8
BLACK
6
CONTINUOUS
10
6.3172
20
-4.76594
11
6.4072
21
-4.76594
0
LINE
8
BLACK
6
CONTINUOUS
10
6.4072
20
-4.76594
11
6.40821
21
-4.76612
0
LINE
8
BLACK
6
CONTINUOUS
10
5.71985
20
-3.80718
11
5.72118
21
-3.80746
0
LINE
8
BLACK
6
CONTINUOUS
10
5.72118
20
-3.80746
11
5.72681
21
-3.81027
0
LINE
8
BLACK
6
CONTINUOUS
10
5.72681
20
-3.81027
11
5.72752
21
-3.8109
0
LINE
8
BLACK
6
CONTINUOUS
10
5.72752
20
-3.8109
11
5.72834
21
-3.81138
0
LINE
8
BLACK
6
CONTINUOUS
10
5.72834
20
-3.81138
11
5.73116
21
-3.81419
0
LINE
8
BLACK
6
CONTINUOUS
10
5.73116
20
-3.81419
11
5.73163
21
-3.81501
0
LINE
8
BLACK
6
CONTINUOUS
10
5.73163
20
-3.81501
11
5.73226
21
-3.81572
0
LINE
8
BLACK
6
CONTINUOUS
10
5.73226
20
-3.81572
11
5.73507
21
-3.82135
0
LINE
8
BLACK
6
CONTINUOUS
10
5.73507
20
-3.82135
11
5.7352
21
-3.82199
0
LINE
8
BLACK
6
CONTINUOUS
10
5.7352
20
-3.82199
11
5.73552
21
-3.82256
0
LINE
8
BLACK
6
CONTINUOUS
10
5.73552
20
-3.82256
11
5.73833
21
-3.8338
0
LINE
8
BLACK
6
CONTINUOUS
10
5.73833
20
-3.8338
11
5.73832
21
-3.83453
0
LINE
8
BLACK
6
CONTINUOUS
10
5.73832
20
-3.83453
11
5.73851
21
-3.83524
0
LINE
8
BLACK
6
CONTINUOUS
10
5.73851
20
-3.83524
11
5.73851
21
-3.8493
0
LINE
8
BLACK
6
CONTINUOUS
10
5.73851
20
-3.8493
11
5.73832
21
-3.85
0
LINE
8
BLACK
6
CONTINUOUS
10
5.73832
20
-3.85
11
5.73833
21
-3.85073
0
LINE
8
BLACK
6
CONTINUOUS
10
5.73833
20
-3.85073
11
5.73552
21
-3.86198
0
LINE
8
BLACK
6
CONTINUOUS
10
5.73552
20
-3.86198
11
5.7352
21
-3.86255
0
LINE
8
BLACK
6
CONTINUOUS
10
5.7352
20
-3.86255
11
5.73507
21
-3.86319
0
LINE
8
BLACK
6
CONTINUOUS
10
5.73507
20
-3.86319
11
5.73226
21
-3.86881
0
LINE
8
BLACK
6
CONTINUOUS
10
5.73226
20
-3.86881
11
5.73163
21
-3.86952
0
LINE
8
BLACK
6
CONTINUOUS
10
5.73163
20
-3.86952
11
5.73116
21
-3.87035
0
LINE
8
BLACK
6
CONTINUOUS
10
5.73116
20
-3.87035
11
5.72834
21
-3.87316
0
LINE
8
BLACK
6
CONTINUOUS
10
5.72834
20
-3.87316
11
5.72752
21
-3.87363
0
LINE
8
BLACK
6
CONTINUOUS
10
5.72752
20
-3.87363
11
5.72681
21
-3.87426
0
LINE
8
BLACK
6
CONTINUOUS
10
5.72681
20
-3.87426
11
5.72118
21
-3.87708
0
LINE
8
BLACK
6
CONTINUOUS
10
5.72118
20
-3.87708
11
5.71985
21
-3.87735
0
LINE
8
BLACK
6
CONTINUOUS
10
5.71985
20
-3.87735
11
5.71854
21
-3.8777
0
LINE
8
BLACK
6
CONTINUOUS
10
5.71854
20
-3.8777
11
5.71292
21
-3.8777
0
LINE
8
BLACK
6
CONTINUOUS
10
5.71292
20
-3.8777
11
5.71161
21
-3.87735
0
LINE
8
BLACK
6
CONTINUOUS
10
5.71161
20
-3.87735
11
5.71028
21
-3.87708
0
LINE
8
BLACK
6
CONTINUOUS
10
5.71028
20
-3.87708
11
5.70465
21
-3.87426
0
LINE
8
BLACK
6
CONTINUOUS
10
5.70465
20
-3.87426
11
5.70394
21
-3.87363
0
LINE
8
BLACK
6
CONTINUOUS
10
5.70394
20
-3.87363
11
5.70312
21
-3.87316
0
LINE
8
BLACK
6
CONTINUOUS
10
5.70312
20
-3.87316
11
5.70031
21
-3.87035
0
LINE
8
BLACK
6
CONTINUOUS
10
5.70031
20
-3.87035
11
5.69983
21
-3.86952
0
LINE
8
BLACK
6
CONTINUOUS
10
5.69983
20
-3.86952
11
5.6992
21
-3.86881
0
LINE
8
BLACK
6
CONTINUOUS
10
5.6992
20
-3.86881
11
5.69639
21
-3.86319
0
LINE
8
BLACK
6
CONTINUOUS
10
5.69639
20
-3.86319
11
5.69626
21
-3.86255
0
LINE
8
BLACK
6
CONTINUOUS
10
5.69626
20
-3.86255
11
5.69594
21
-3.86198
0
LINE
8
BLACK
6
CONTINUOUS
10
5.69594
20
-3.86198
11
5.69313
21
-3.85073
0
LINE
8
BLACK
6
CONTINUOUS
10
5.69313
20
-3.85073
11
5.69314
21
-3.85
0
LINE
8
BLACK
6
CONTINUOUS
10
5.69314
20
-3.85
11
5.69295
21
-3.8493
0
LINE
8
BLACK
6
CONTINUOUS
10
5.69295
20
-3.8493
11
5.69295
21
-3.83524
0
LINE
8
BLACK
6
CONTINUOUS
10
5.69295
20
-3.83524
11
5.69314
21
-3.83453
0
LINE
8
BLACK
6
CONTINUOUS
10
5.69314
20
-3.83453
11
5.69313
21
-3.8338
0
LINE
8
BLACK
6
CONTINUOUS
10
5.69313
20
-3.8338
11
5.69594
21
-3.82256
0
LINE
8
BLACK
6
CONTINUOUS
10
5.69594
20
-3.82256
11
5.69626
21
-3.82199
0
LINE
8
BLACK
6
CONTINUOUS
10
5.69626
20
-3.82199
11
5.69639
21
-3.82135
0
LINE
8
BLACK
6
CONTINUOUS
10
5.69639
20
-3.82135
11
5.6992
21
-3.81572
0
LINE
8
BLACK
6
CONTINUOUS
10
5.6992
20
-3.81572
11
5.69983
21
-3.81501
0
LINE
8
BLACK
6
CONTINUOUS
10
5.69983
20
-3.81501
11
5.70031
21
-3.81419
0
LINE
8
BLACK
6
CONTINUOUS
10
5.70031
20
-3.81419
11
5.70312
21
-3.81138
0
LINE
8
BLACK
6
CONTINUOUS
10
5.70312
20
-3.81138
11
5.70394
21
-3.8109
0
LINE
8
BLACK
6
CONTINUOUS
10
5.70394
20
-3.8109
11
5.70465
21
-3.81027
0
LINE
8
BLACK
6
CONTINUOUS
10
5.70465
20
-3.81027
11
5.71028
21
-3.80746
0
LINE
8
BLACK
6
CONTINUOUS
10
5.71028
20
-3.80746
11
5.71161
21
-3.80718
0
LINE
8
BLACK
6
CONTINUOUS
10
5.71161
20
-3.80718
11
5.71292
21
-3.80683
0
LINE
8
BLACK
6
CONTINUOUS
10
5.71292
20
-3.80683
11
5.71854
21
-3.80683
0
LINE
8
BLACK
6
CONTINUOUS
10
5.71854
20
-3.80683
11
5.71985
21
-3.80718
0
LINE
8
BLACK
6
CONTINUOUS
10
5.71431
20
-3.81864
11
5.71079
21
-3.8204
0
LINE
8
BLACK
6
CONTINUOUS
10
5.71079
20
-3.8204
11
5.70934
21
-3.82186
0
LINE
8
BLACK
6
CONTINUOUS
10
5.70934
20
-3.82186
11
5.70724
21
-3.82605
0
LINE
8
BLACK
6
CONTINUOUS
10
5.70724
20
-3.82605
11
5.70476
21
-3.83596
0
LINE
8
BLACK
6
CONTINUOUS
10
5.70476
20
-3.83596
11
5.70476
21
-3.84857
0
LINE
8
BLACK
6
CONTINUOUS
10
5.70476
20
-3.84857
11
5.70724
21
-3.85848
0
LINE
8
BLACK
6
CONTINUOUS
10
5.70724
20
-3.85848
11
5.70934
21
-3.86267
0
LINE
8
BLACK
6
CONTINUOUS
10
5.70934
20
-3.86267
11
5.71079
21
-3.86413
0
LINE
8
BLACK
6
CONTINUOUS
10
5.71079
20
-3.86413
11
5.71431
21
-3.86589
0
LINE
8
BLACK
6
CONTINUOUS
10
5.71431
20
-3.86589
11
5.71715
21
-3.86589
0
LINE
8
BLACK
6
CONTINUOUS
10
5.71715
20
-3.86589
11
5.72067
21
-3.86413
0
LINE
8
BLACK
6
CONTINUOUS
10
5.72067
20
-3.86413
11
5.72213
21
-3.86267
0
LINE
8
BLACK
6
CONTINUOUS
10
5.72213
20
-3.86267
11
5.72422
21
-3.85848
0
LINE
8
BLACK
6
CONTINUOUS
10
5.72422
20
-3.85848
11
5.7267
21
-3.84857
0
LINE
8
BLACK
6
CONTINUOUS
10
5.7267
20
-3.84857
11
5.7267
21
-3.83596
0
LINE
8
BLACK
6
CONTINUOUS
10
5.7267
20
-3.83596
11
5.72422
21
-3.82605
0
LINE
8
BLACK
6
CONTINUOUS
10
5.72422
20
-3.82605
11
5.72213
21
-3.82186
0
LINE
8
BLACK
6
CONTINUOUS
10
5.72213
20
-3.82186
11
5.72067
21
-3.8204
0
LINE
8
BLACK
6
CONTINUOUS
10
5.72067
20
-3.8204
11
5.71715
21
-3.81864
0
LINE
8
BLACK
6
CONTINUOUS
10
5.71715
20
-3.81864
11
5.71431
21
-3.81864
0
LINE
8
BLACK
6
CONTINUOUS
10
5.44872
20
-3.80762
11
5.45088
21
-3.80979
0
LINE
8
BLACK
6
CONTINUOUS
10
5.45088
20
-3.80979
11
5.45167
21
-3.81274
0
LINE
8
BLACK
6
CONTINUOUS
10
5.45167
20
-3.81274
11
5.45167
21
-3.86589
0
LINE
8
BLACK
6
CONTINUOUS
10
5.45167
20
-3.86589
11
5.47389
21
-3.86589
0
LINE
8
BLACK
6
CONTINUOUS
10
5.47389
20
-3.86589
11
5.47684
21
-3.86668
0
LINE
8
BLACK
6
CONTINUOUS
10
5.47684
20
-3.86668
11
5.479
21
-3.86884
0
LINE
8
BLACK
6
CONTINUOUS
10
5.479
20
-3.86884
11
5.47979
21
-3.87179
0
LINE
8
BLACK
6
CONTINUOUS
10
5.47979
20
-3.87179
11
5.479
21
-3.87475
0
LINE
8
BLACK
6
CONTINUOUS
10
5.479
20
-3.87475
11
5.47684
21
-3.87691
0
LINE
8
BLACK
6
CONTINUOUS
10
5.47684
20
-3.87691
11
5.47389
21
-3.8777
0
LINE
8
BLACK
6
CONTINUOUS
10
5.47389
20
-3.8777
11
5.44576
21
-3.8777
0
LINE
8
BLACK
6
CONTINUOUS
10
5.44576
20
-3.8777
11
5.44281
21
-3.87691
0
LINE
8
BLACK
6
CONTINUOUS
10
5.44281
20
-3.87691
11
5.44065
21
-3.87475
0
LINE
8
BLACK
6
CONTINUOUS
10
5.44065
20
-3.87475
11
5.43986
21
-3.87179
0
LINE
8
BLACK
6
CONTINUOUS
10
5.43986
20
-3.87179
11
5.43986
21
-3.81274
0
LINE
8
BLACK
6
CONTINUOUS
10
5.43986
20
-3.81274
11
5.44065
21
-3.80979
0
LINE
8
BLACK
6
CONTINUOUS
10
5.44065
20
-3.80979
11
5.44281
21
-3.80762
0
LINE
8
BLACK
6
CONTINUOUS
10
5.44281
20
-3.80762
11
5.44576
21
-3.80683
0
LINE
8
BLACK
6
CONTINUOUS
10
5.44576
20
-3.80683
11
5.44872
21
-3.80762
0
LINE
8
BLACK
6
CONTINUOUS
10
5.63151
20
-3.80762
11
5.63367
21
-3.80979
0
LINE
8
BLACK
6
CONTINUOUS
10
5.63367
20
-3.80979
11
5.63446
21
-3.81274
0
LINE
8
BLACK
6
CONTINUOUS
10
5.63446
20
-3.81274
11
5.63446
21
-3.87179
0
LINE
8
BLACK
6
CONTINUOUS
10
5.63446
20
-3.87179
11
5.63446
21
-3.87181
0
LINE
8
BLACK
6
CONTINUOUS
10
5.63446
20
-3.87181
11
5.63446
21
-3.87182
0
LINE
8
BLACK
6
CONTINUOUS
10
5.63446
20
-3.87182
11
5.63406
21
-3.87329
0
LINE
8
BLACK
6
CONTINUOUS
10
5.63406
20
-3.87329
11
5.63367
21
-3.87475
0
LINE
8
BLACK
6
CONTINUOUS
10
5.63367
20
-3.87475
11
5.63366
21
-3.87476
0
LINE
8
BLACK
6
CONTINUOUS
10
5.63366
20
-3.87476
11
5.63366
21
-3.87477
0
LINE
8
BLACK
6
CONTINUOUS
10
5.63366
20
-3.87477
11
5.63258
21
-3.87584
0
LINE
8
BLACK
6
CONTINUOUS
10
5.63258
20
-3.87584
11
5.63151
21
-3.87691
0
LINE
8
BLACK
6
CONTINUOUS
10
5.63151
20
-3.87691
11
5.63149
21
-3.87691
0
LINE
8
BLACK
6
CONTINUOUS
10
5.63149
20
-3.87691
11
5.63148
21
-3.87692
0
LINE
8
BLACK
6
CONTINUOUS
10
5.63148
20
-3.87692
11
5.63002
21
-3.87731
0
LINE
8
BLACK
6
CONTINUOUS
10
5.63002
20
-3.87731
11
5.62855
21
-3.8777
0
LINE
8
BLACK
6
CONTINUOUS
10
5.62855
20
-3.8777
11
5.62854
21
-3.8777
0
LINE
8
BLACK
6
CONTINUOUS
10
5.62854
20
-3.8777
11
5.62853
21
-3.8777
0
LINE
8
BLACK
6
CONTINUOUS
10
5.62853
20
-3.8777
11
5.62706
21
-3.8773
0
LINE
8
BLACK
6
CONTINUOUS
10
5.62706
20
-3.8773
11
5.6256
21
-3.87691
0
LINE
8
BLACK
6
CONTINUOUS
10
5.6256
20
-3.87691
11
5.62559
21
-3.8769
0
LINE
8
BLACK
6
CONTINUOUS
10
5.62559
20
-3.8769
11
5.62558
21
-3.8769
0
LINE
8
BLACK
6
CONTINUOUS
10
5.62558
20
-3.8769
11
5.62451
21
-3.87582
0
LINE
8
BLACK
6
CONTINUOUS
10
5.62451
20
-3.87582
11
5.62344
21
-3.87475
0
LINE
8
BLACK
6
CONTINUOUS
10
5.62344
20
-3.87475
11
5.62344
21
-3.87473
0
LINE
8
BLACK
6
CONTINUOUS
10
5.62344
20
-3.87473
11
5.62343
21
-3.87472
0
LINE
8
BLACK
6
CONTINUOUS
10
5.62343
20
-3.87472
11
5.60071
21
-3.83498
0
LINE
8
BLACK
6
CONTINUOUS
10
5.60071
20
-3.83498
11
5.60071
21
-3.87179
0
LINE
8
BLACK
6
CONTINUOUS
10
5.60071
20
-3.87179
11
5.59992
21
-3.87475
0
LINE
8
BLACK
6
CONTINUOUS
10
5.59992
20
-3.87475
11
5.59776
21
-3.87691
0
LINE
8
BLACK
6
CONTINUOUS
10
5.59776
20
-3.87691
11
5.59481
21
-3.8777
0
LINE
8
BLACK
6
CONTINUOUS
10
5.59481
20
-3.8777
11
5.59186
21
-3.87691
0
LINE
8
BLACK
6
CONTINUOUS
10
5.59186
20
-3.87691
11
5.58969
21
-3.87475
0
LINE
8
BLACK
6
CONTINUOUS
10
5.58969
20
-3.87475
11
5.5889
21
-3.87179
0
LINE
8
BLACK
6
CONTINUOUS
10
5.5889
20
-3.87179
11
5.5889
21
-3.81274
0
LINE
8
BLACK
6
CONTINUOUS
10
5.5889
20
-3.81274
11
5.58891
21
-3.81273
0
LINE
8
BLACK
6
CONTINUOUS
10
5.58891
20
-3.81273
11
5.5889
21
-3.81271
0
LINE
8
BLACK
6
CONTINUOUS
10
5.5889
20
-3.81271
11
5.5893
21
-3.81125
0
LINE
8
BLACK
6
CONTINUOUS
10
5.5893
20
-3.81125
11
5.58969
21
-3.80979
0
LINE
8
BLACK
6
CONTINUOUS
10
5.58969
20
-3.80979
11
5.5897
21
-3.80978
0
LINE
8
BLACK
6
CONTINUOUS
10
5.5897
20
-3.80978
11
5.58971
21
-3.80976
0
LINE
8
BLACK
6
CONTINUOUS
10
5.58971
20
-3.80976
11
5.59078
21
-3.8087
0
LINE
8
BLACK
6
CONTINUOUS
10
5.59078
20
-3.8087
11
5.59186
21
-3.80762
0
LINE
8
BLACK
6
CONTINUOUS
10
5.59186
20
-3.80762
11
5.59187
21
-3.80762
0
LINE
8
BLACK
6
CONTINUOUS
10
5.59187
20
-3.80762
11
5.59188
21
-3.80761
0
LINE
8
BLACK
6
CONTINUOUS
10
5.59188
20
-3.80761
11
5.59334
21
-3.80723
0
LINE
8
BLACK
6
CONTINUOUS
10
5.59334
20
-3.80723
11
5.59481
21
-3.80683
0
LINE
8
BLACK
6
CONTINUOUS
10
5.59481
20
-3.80683
11
5.59482
21
-3.80684
0
LINE
8
BLACK
6
CONTINUOUS
10
5.59482
20
-3.80684
11
5.59484
21
-3.80683
0
LINE
8
BLACK
6
CONTINUOUS
10
5.59484
20
-3.80683
11
5.5963
21
-3.80723
0
LINE
8
BLACK
6
CONTINUOUS
10
5.5963
20
-3.80723
11
5.59776
21
-3.80762
0
LINE
8
BLACK
6
CONTINUOUS
10
5.59776
20
-3.80762
11
5.59777
21
-3.80763
0
LINE
8
BLACK
6
CONTINUOUS
10
5.59777
20
-3.80763
11
5.59778
21
-3.80764
0
LINE
8
BLACK
6
CONTINUOUS
10
5.59778
20
-3.80764
11
5.59885
21
-3.80871
0
LINE
8
BLACK
6
CONTINUOUS
10
5.59885
20
-3.80871
11
5.59992
21
-3.80979
0
LINE
8
BLACK
6
CONTINUOUS
10
5.59992
20
-3.80979
11
5.59993
21
-3.8098
0
LINE
8
BLACK
6
CONTINUOUS
10
5.59993
20
-3.8098
11
5.59994
21
-3.80981
0
LINE
8
BLACK
6
CONTINUOUS
10
5.59994
20
-3.80981
11
5.62265
21
-3.84956
0
LINE
8
BLACK
6
CONTINUOUS
10
5.62265
20
-3.84956
11
5.62265
21
-3.81274
0
LINE
8
BLACK
6
CONTINUOUS
10
5.62265
20
-3.81274
11
5.62344
21
-3.80979
0
LINE
8
BLACK
6
CONTINUOUS
10
5.62344
20
-3.80979
11
5.6256
21
-3.80762
0
LINE
8
BLACK
6
CONTINUOUS
10
5.6256
20
-3.80762
11
5.62855
21
-3.80683
0
LINE
8
BLACK
6
CONTINUOUS
10
5.62855
20
-3.80683
11
5.63151
21
-3.80762
0
LINE
8
BLACK
6
CONTINUOUS
10
5.52465
20
-3.80762
11
5.52681
21
-3.80979
0
LINE
8
BLACK
6
CONTINUOUS
10
5.52681
20
-3.80979
11
5.5276
21
-3.81274
0
LINE
8
BLACK
6
CONTINUOUS
10
5.5276
20
-3.81274
11
5.52681
21
-3.81569
0
LINE
8
BLACK
6
CONTINUOUS
10
5.52681
20
-3.81569
11
5.52465
21
-3.81785
0
LINE
8
BLACK
6
CONTINUOUS
10
5.52465
20
-3.81785
11
5.52169
21
-3.81864
0
LINE
8
BLACK
6
CONTINUOUS
10
5.52169
20
-3.81864
11
5.49948
21
-3.81864
0
LINE
8
BLACK
6
CONTINUOUS
10
5.49948
20
-3.81864
11
5.49948
21
-3.83495
0
LINE
8
BLACK
6
CONTINUOUS
10
5.49948
20
-3.83495
11
5.51326
21
-3.83495
0
LINE
8
BLACK
6
CONTINUOUS
10
5.51326
20
-3.83495
11
5.51621
21
-3.83575
0
LINE
8
BLACK
6
CONTINUOUS
10
5.51621
20
-3.83575
11
5.51837
21
-3.83791
0
LINE
8
BLACK
6
CONTINUOUS
10
5.51837
20
-3.83791
11
5.51916
21
-3.84086
0
LINE
8
BLACK
6
CONTINUOUS
10
5.51916
20
-3.84086
11
5.51837
21
-3.84381
0
LINE
8
BLACK
6
CONTINUOUS
10
5.51837
20
-3.84381
11
5.51621
21
-3.84597
0
LINE
8
BLACK
6
CONTINUOUS
10
5.51621
20
-3.84597
11
5.51326
21
-3.84677
0
LINE
8
BLACK
6
CONTINUOUS
10
5.51326
20
-3.84677
11
5.49948
21
-3.84677
0
LINE
8
BLACK
6
CONTINUOUS
10
5.49948
20
-3.84677
11
5.49948
21
-3.87179
0
LINE
8
BLACK
6
CONTINUOUS
10
5.49948
20
-3.87179
11
5.49869
21
-3.87475
0
LINE
8
BLACK
6
CONTINUOUS
10
5.49869
20
-3.87475
11
5.49652
21
-3.87691
0
LINE
8
BLACK
6
CONTINUOUS
10
5.49652
20
-3.87691
11
5.49357
21
-3.8777
0
LINE
8
BLACK
6
CONTINUOUS
10
5.49357
20
-3.8777
11
5.49062
21
-3.87691
0
LINE
8
BLACK
6
CONTINUOUS
10
5.49062
20
-3.87691
11
5.48846
21
-3.87475
0
LINE
8
BLACK
6
CONTINUOUS
10
5.48846
20
-3.87475
11
5.48767
21
-3.87179
0
LINE
8
BLACK
6
CONTINUOUS
10
5.48767
20
-3.87179
11
5.48767
21
-3.81274
0
LINE
8
BLACK
6
CONTINUOUS
10
5.48767
20
-3.81274
11
5.48846
21
-3.80979
0
LINE
8
BLACK
6
CONTINUOUS
10
5.48846
20
-3.80979
11
5.49062
21
-3.80762
0
LINE
8
BLACK
6
CONTINUOUS
10
5.49062
20
-3.80762
11
5.49357
21
-3.80683
0
LINE
8
BLACK
6
CONTINUOUS
10
5.49357
20
-3.80683
11
5.52169
21
-3.80683
0
LINE
8
BLACK
6
CONTINUOUS
10
5.52169
20
-3.80683
11
5.52465
21
-3.80762
0
LINE
8
BLACK
6
CONTINUOUS
10
5.68494
20
-3.80762
11
5.6871
21
-3.80979
0
LINE
8
BLACK
6
CONTINUOUS
10
5.6871
20
-3.80979
11
5.68789
21
-3.81274
0
LINE
8
BLACK
6
CONTINUOUS
10
5.68789
20
-3.81274
11
5.6871
21
-3.81569
0
LINE
8
BLACK
6
CONTINUOUS
10
5.6871
20
-3.81569
11
5.68494
21
-3.81785
0
LINE
8
BLACK
6
CONTINUOUS
10
5.68494
20
-3.81785
11
5.68199
21
-3.81864
0
LINE
8
BLACK
6
CONTINUOUS
10
5.68199
20
-3.81864
11
5.67102
21
-3.81864
0
LINE
8
BLACK
6
CONTINUOUS
10
5.67102
20
-3.81864
11
5.67102
21
-3.87179
0
LINE
8
BLACK
6
CONTINUOUS
10
5.67102
20
-3.87179
11
5.67023
21
-3.87475
0
LINE
8
BLACK
6
CONTINUOUS
10
5.67023
20
-3.87475
11
5.66807
21
-3.87691
0
LINE
8
BLACK
6
CONTINUOUS
10
5.66807
20
-3.87691
11
5.66511
21
-3.8777
0
LINE
8
BLACK
6
CONTINUOUS
10
5.66511
20
-3.8777
11
5.66216
21
-3.87691
0
LINE
8
BLACK
6
CONTINUOUS
10
5.66216
20
-3.87691
11
5.66
21
-3.87475
0
LINE
8
BLACK
6
CONTINUOUS
10
5.66
20
-3.87475
11
5.65921
21
-3.87179
0
LINE
8
BLACK
6
CONTINUOUS
10
5.65921
20
-3.87179
11
5.65921
21
-3.81864
0
LINE
8
BLACK
6
CONTINUOUS
10
5.65921
20
-3.81864
11
5.64824
21
-3.81864
0
LINE
8
BLACK
6
CONTINUOUS
10
5.64824
20
-3.81864
11
5.64529
21
-3.81785
0
LINE
8
BLACK
6
CONTINUOUS
10
5.64529
20
-3.81785
11
5.64313
21
-3.81569
0
LINE
8
BLACK
6
CONTINUOUS
10
5.64313
20
-3.81569
11
5.64233
21
-3.81274
0
LINE
8
BLACK
6
CONTINUOUS
10
5.64233
20
-3.81274
11
5.64313
21
-3.80979
0
LINE
8
BLACK
6
CONTINUOUS
10
5.64313
20
-3.80979
11
5.64529
21
-3.80762
0
LINE
8
BLACK
6
CONTINUOUS
10
5.64529
20
-3.80762
11
5.64824
21
-3.80683
0
LINE
8
BLACK
6
CONTINUOUS
10
5.64824
20
-3.80683
11
5.68199
21
-3.80683
0
LINE
8
BLACK
6
CONTINUOUS
10
5.68199
20
-3.80683
11
5.68494
21
-3.80762
0
LINE
8
BLACK
6
CONTINUOUS
10
5.83515
20
-3.80718
11
5.83648
21
-3.80746
0
LINE
8
BLACK
6
CONTINUOUS
10
5.83648
20
-3.80746
11
5.84211
21
-3.81027
0
LINE
8
BLACK
6
CONTINUOUS
10
5.84211
20
-3.81027
11
5.84282
21
-3.8109
0
LINE
8
BLACK
6
CONTINUOUS
10
5.84282
20
-3.8109
11
5.84364
21
-3.81138
0
LINE
8
BLACK
6
CONTINUOUS
10
5.84364
20
-3.81138
11
5.84645
21
-3.81419
0
LINE
8
BLACK
6
CONTINUOUS
10
5.84645
20
-3.81419
11
5.84693
21
-3.81501
0
LINE
8
BLACK
6
CONTINUOUS
10
5.84693
20
-3.81501
11
5.84756
21
-3.81572
0
LINE
8
BLACK
6
CONTINUOUS
10
5.84756
20
-3.81572
11
5.85037
21
-3.82135
0
LINE
8
BLACK
6
CONTINUOUS
10
5.85037
20
-3.82135
11
5.85064
21
-3.82268
0
LINE
8
BLACK
6
CONTINUOUS
10
5.85064
20
-3.82268
11
5.851
21
-3.82399
0
LINE
8
BLACK
6
CONTINUOUS
10
5.851
20
-3.82399
11
5.851
21
-3.82961
0
LINE
8
BLACK
6
CONTINUOUS
10
5.851
20
-3.82961
11
5.85064
21
-3.83092
0
LINE
8
BLACK
6
CONTINUOUS
10
5.85064
20
-3.83092
11
5.85037
21
-3.83225
0
LINE
8
BLACK
6
CONTINUOUS
10
5.85037
20
-3.83225
11
5.84756
21
-3.83788
0
LINE
8
BLACK
6
CONTINUOUS
10
5.84756
20
-3.83788
11
5.84693
21
-3.83859
0
LINE
8
BLACK
6
CONTINUOUS
10
5.84693
20
-3.83859
11
5.84645
21
-3.83941
0
LINE
8
BLACK
6
CONTINUOUS
10
5.84645
20
-3.83941
11
5.8464
21
-3.83947
0
LINE
8
BLACK
6
CONTINUOUS
10
5.8464
20
-3.83947
11
5.84645
21
-3.8395
0
LINE
8
BLACK
6
CONTINUOUS
10
5.84645
20
-3.8395
11
5.84927
21
-3.84231
0
LINE
8
BLACK
6
CONTINUOUS
10
5.84927
20
-3.84231
11
5.84974
21
-3.84313
0
LINE
8
BLACK
6
CONTINUOUS
10
5.84974
20
-3.84313
11
5.85037
21
-3.84384
0
LINE
8
BLACK
6
CONTINUOUS
10
5.85037
20
-3.84384
11
5.85318
21
-3.84947
0
LINE
8
BLACK
6
CONTINUOUS
10
5.85318
20
-3.84947
11
5.85346
21
-3.8508
0
LINE
8
BLACK
6
CONTINUOUS
10
5.85346
20
-3.8508
11
5.85381
21
-3.85211
0
LINE
8
BLACK
6
CONTINUOUS
10
5.85381
20
-3.85211
11
5.85381
21
-3.86055
0
LINE
8
BLACK
6
CONTINUOUS
10
5.85381
20
-3.86055
11
5.85346
21
-3.86186
0
LINE
8
BLACK
6
CONTINUOUS
10
5.85346
20
-3.86186
11
5.85318
21
-3.86319
0
LINE
8
BLACK
6
CONTINUOUS
10
5.85318
20
-3.86319
11
5.85037
21
-3.86881
0
LINE
8
BLACK
6
CONTINUOUS
10
5.85037
20
-3.86881
11
5.84974
21
-3.86952
0
LINE
8
BLACK
6
CONTINUOUS
10
5.84974
20
-3.86952
11
5.84927
21
-3.87035
0
LINE
8
BLACK
6
CONTINUOUS
10
5.84927
20
-3.87035
11
5.84645
21
-3.87316
0
LINE
8
BLACK
6
CONTINUOUS
10
5.84645
20
-3.87316
11
5.84563
21
-3.87363
0
LINE
8
BLACK
6
CONTINUOUS
10
5.84563
20
-3.87363
11
5.84492
21
-3.87426
0
LINE
8
BLACK
6
CONTINUOUS
10
5.84492
20
-3.87426
11
5.83929
21
-3.87708
0
LINE
8
BLACK
6
CONTINUOUS
10
5.83929
20
-3.87708
11
5.83796
21
-3.87735
0
LINE
8
BLACK
6
CONTINUOUS
10
5.83796
20
-3.87735
11
5.83665
21
-3.8777
0
LINE
8
BLACK
6
CONTINUOUS
10
5.83665
20
-3.8777
11
5.81416
21
-3.8777
0
LINE
8
BLACK
6
CONTINUOUS
10
5.81416
20
-3.8777
11
5.8112
21
-3.87691
0
LINE
8
BLACK
6
CONTINUOUS
10
5.8112
20
-3.87691
11
5.80904
21
-3.87475
0
LINE
8
BLACK
6
CONTINUOUS
10
5.80904
20
-3.87475
11
5.80825
21
-3.87179
0
LINE
8
BLACK
6
CONTINUOUS
10
5.80825
20
-3.87179
11
5.80825
21
-3.81274
0
LINE
8
BLACK
6
CONTINUOUS
10
5.80825
20
-3.81274
11
5.80904
21
-3.80979
0
LINE
8
BLACK
6
CONTINUOUS
10
5.80904
20
-3.80979
11
5.8112
21
-3.80762
0
LINE
8
BLACK
6
CONTINUOUS
10
5.8112
20
-3.80762
11
5.81416
21
-3.80683
0
LINE
8
BLACK
6
CONTINUOUS
10
5.81416
20
-3.80683
11
5.83384
21
-3.80683
0
LINE
8
BLACK
6
CONTINUOUS
10
5.83384
20
-3.80683
11
5.83515
21
-3.80718
0
LINE
8
BLACK
6
CONTINUOUS
10
5.82006
20
-3.84677
11
5.82006
21
-3.86589
0
LINE
8
BLACK
6
CONTINUOUS
10
5.82006
20
-3.86589
11
5.83526
21
-3.86589
0
LINE
8
BLACK
6
CONTINUOUS
10
5.83526
20
-3.86589
11
5.83878
21
-3.86413
0
LINE
8
BLACK
6
CONTINUOUS
10
5.83878
20
-3.86413
11
5.84024
21
-3.86267
0
LINE
8
BLACK
6
CONTINUOUS
10
5.84024
20
-3.86267
11
5.842
21
-3.85915
0
LINE
8
BLACK
6
CONTINUOUS
10
5.842
20
-3.85915
11
5.842
21
-3.8535
0
LINE
8
BLACK
6
CONTINUOUS
10
5.842
20
-3.8535
11
5.84024
21
-3.84998
0
LINE
8
BLACK
6
CONTINUOUS
10
5.84024
20
-3.84998
11
5.83909
21
-3.84883
0
LINE
8
BLACK
6
CONTINUOUS
10
5.83909
20
-3.84883
11
5.83288
21
-3.84677
0
LINE
8
BLACK
6
CONTINUOUS
10
5.83288
20
-3.84677
11
5.82006
21
-3.84677
0
LINE
8
BLACK
6
CONTINUOUS
10
5.82006
20
-3.81864
11
5.82006
21
-3.83495
0
LINE
8
BLACK
6
CONTINUOUS
10
5.82006
20
-3.83495
11
5.83245
21
-3.83495
0
LINE
8
BLACK
6
CONTINUOUS
10
5.83245
20
-3.83495
11
5.83597
21
-3.83319
0
LINE
8
BLACK
6
CONTINUOUS
10
5.83597
20
-3.83319
11
5.83742
21
-3.83174
0
LINE
8
BLACK
6
CONTINUOUS
10
5.83742
20
-3.83174
11
5.83918
21
-3.82822
0
LINE
8
BLACK
6
CONTINUOUS
10
5.83918
20
-3.82822
11
5.83918
21
-3.82538
0
LINE
8
BLACK
6
CONTINUOUS
10
5.83918
20
-3.82538
11
5.83742
21
-3.82186
0
LINE
8
BLACK
6
CONTINUOUS
10
5.83742
20
-3.82186
11
5.83597
21
-3.8204
0
LINE
8
BLACK
6
CONTINUOUS
10
5.83597
20
-3.8204
11
5.83245
21
-3.81864
0
LINE
8
BLACK
6
CONTINUOUS
10
5.83245
20
-3.81864
11
5.82006
21
-3.81864
0
LINE
8
BLACK
6
CONTINUOUS
10
5.75215
20
-3.87691
11
5.74999
21
-3.87475
0
LINE
8
BLACK
6
CONTINUOUS
10
5.74999
20
-3.87475
11
5.7492
21
-3.87179
0
LINE
8
BLACK
6
CONTINUOUS
10
5.7492
20
-3.87179
11
5.74999
21
-3.86884
0
LINE
8
BLACK
6
CONTINUOUS
10
5.74999
20
-3.86884
11
5.75215
21
-3.86668
0
LINE
8
BLACK
6
CONTINUOUS
10
5.75215
20
-3.86668
11
5.7551
21
-3.86589
0
LINE
8
BLACK
6
CONTINUOUS
10
5.7551
20
-3.86589
11
5.76607
21
-3.86589
0
LINE
8
BLACK
6
CONTINUOUS
10
5.76607
20
-3.86589
11
5.76607
21
-3.82981
0
LINE
8
BLACK
6
CONTINUOUS
10
5.76607
20
-3.82981
11
5.7649
21
-3.83098
0
LINE
8
BLACK
6
CONTINUOUS
10
5.7649
20
-3.83098
11
5.76408
21
-3.83145
0
LINE
8
BLACK
6
CONTINUOUS
10
5.76408
20
-3.83145
11
5.76337
21
-3.83208
0
LINE
8
BLACK
6
CONTINUOUS
10
5.76337
20
-3.83208
11
5.75774
21
-3.83489
0
LINE
8
BLACK
6
CONTINUOUS
10
5.75774
20
-3.83489
11
5.75475
21
-3.83551
0
LINE
8
BLACK
6
CONTINUOUS
10
5.75475
20
-3.83551
11
5.75185
21
-3.83454
0
LINE
8
BLACK
6
CONTINUOUS
10
5.75185
20
-3.83454
11
5.74982
21
-3.83225
0
LINE
8
BLACK
6
CONTINUOUS
10
5.74982
20
-3.83225
11
5.74921
21
-3.82926
0
LINE
8
BLACK
6
CONTINUOUS
10
5.74921
20
-3.82926
11
5.75017
21
-3.82636
0
LINE
8
BLACK
6
CONTINUOUS
10
5.75017
20
-3.82636
11
5.75246
21
-3.82433
0
LINE
8
BLACK
6
CONTINUOUS
10
5.75246
20
-3.82433
11
5.75723
21
-3.82195
0
LINE
8
BLACK
6
CONTINUOUS
10
5.75723
20
-3.82195
11
5.76176
21
-3.81741
0
LINE
8
BLACK
6
CONTINUOUS
10
5.76176
20
-3.81741
11
5.76706
21
-3.80946
0
LINE
8
BLACK
6
CONTINUOUS
10
5.76706
20
-3.80946
11
5.76807
21
-3.80858
0
LINE
8
BLACK
6
CONTINUOUS
10
5.76807
20
-3.80858
11
5.76902
21
-3.80762
0
LINE
8
BLACK
6
CONTINUOUS
10
5.76902
20
-3.80762
11
5.76921
21
-3.80757
0
LINE
8
BLACK
6
CONTINUOUS
10
5.76921
20
-3.80757
11
5.76936
21
-3.80745
0
LINE
8
BLACK
6
CONTINUOUS
10
5.76936
20
-3.80745
11
5.77068
21
-3.80718
0
LINE
8
BLACK
6
CONTINUOUS
10
5.77068
20
-3.80718
11
5.77197
21
-3.80683
0
LINE
8
BLACK
6
CONTINUOUS
10
5.77197
20
-3.80683
11
5.77216
21
-3.80688
0
LINE
8
BLACK
6
CONTINUOUS
10
5.77216
20
-3.80688
11
5.77235
21
-3.80685
0
LINE
8
BLACK
6
CONTINUOUS
10
5.77235
20
-3.80685
11
5.77363
21
-3.80728
0
LINE
8
BLACK
6
CONTINUOUS
10
5.77363
20
-3.80728
11
5.77493
21
-3.80762
0
LINE
8
BLACK
6
CONTINUOUS
10
5.77493
20
-3.80762
11
5.77506
21
-3.80776
0
LINE
8
BLACK
6
CONTINUOUS
10
5.77506
20
-3.80776
11
5.77525
21
-3.80783
0
LINE
8
BLACK
6
CONTINUOUS
10
5.77525
20
-3.80783
11
5.77614
21
-3.80884
0
LINE
8
BLACK
6
CONTINUOUS
10
5.77614
20
-3.80884
11
5.77709
21
-3.80979
0
LINE
8
BLACK
6
CONTINUOUS
10
5.77709
20
-3.80979
11
5.77714
21
-3.80997
0
LINE
8
BLACK
6
CONTINUOUS
10
5.77714
20
-3.80997
11
5.77727
21
-3.81012
0
LINE
8
BLACK
6
CONTINUOUS
10
5.77727
20
-3.81012
11
5.77753
21
-3.81144
0
LINE
8
BLACK
6
CONTINUOUS
10
5.77753
20
-3.81144
11
5.77788
21
-3.81274
0
LINE
8
BLACK
6
CONTINUOUS
10
5.77788
20
-3.81274
11
5.77788
21
-3.86589
0
LINE
8
BLACK
6
CONTINUOUS
10
5.77788
20
-3.86589
11
5.78885
21
-3.86589
0
LINE
8
BLACK
6
CONTINUOUS
10
5.78885
20
-3.86589
11
5.7918
21
-3.86668
0
LINE
8
BLACK
6
CONTINUOUS
10
5.7918
20
-3.86668
11
5.79396
21
-3.86884
0
LINE
8
BLACK
6
CONTINUOUS
10
5.79396
20
-3.86884
11
5.79475
21
-3.87179
0
LINE
8
BLACK
6
CONTINUOUS
10
5.79475
20
-3.87179
11
5.79396
21
-3.87475
0
LINE
8
BLACK
6
CONTINUOUS
10
5.79396
20
-3.87475
11
5.7918
21
-3.87691
0
LINE
8
BLACK
6
CONTINUOUS
10
5.7918
20
-3.87691
11
5.78885
21
-3.8777
0
LINE
8
BLACK
6
CONTINUOUS
10
5.78885
20
-3.8777
11
5.7551
21
-3.8777
0
LINE
8
BLACK
6
CONTINUOUS
10
5.7551
20
-3.8777
11
5.75215
21
-3.87691
0
LINE
8
BLACK
6
CONTINUOUS
10
5.55695
20
-3.80711
11
5.55731
21
-3.80714
0
LINE
8
BLACK
6
CONTINUOUS
10
5.55731
20
-3.80714
11
5.5583
21
-3.80779
0
LINE
8
BLACK
6
CONTINUOUS
10
5.5583
20
-3.80779
11
5.55936
21
-3.80832
0
LINE
8
BLACK
6
CONTINUOUS
10
5.55936
20
-3.80832
11
5.55956
21
-3.80862
0
LINE
8
BLACK
6
CONTINUOUS
10
5.55956
20
-3.80862
11
5.55986
21
-3.80882
0
LINE
8
BLACK
6
CONTINUOUS
10
5.55986
20
-3.80882
11
5.56039
21
-3.80988
0
LINE
8
BLACK
6
CONTINUOUS
10
5.56039
20
-3.80988
11
5.56104
21
-3.81087
0
LINE
8
BLACK
6
CONTINUOUS
10
5.56104
20
-3.81087
11
5.58073
21
-3.86993
0
LINE
8
BLACK
6
CONTINUOUS
10
5.58073
20
-3.86993
11
5.58091
21
-3.87298
0
LINE
8
BLACK
6
CONTINUOUS
10
5.58091
20
-3.87298
11
5.57954
21
-3.87571
0
LINE
8
BLACK
6
CONTINUOUS
10
5.57954
20
-3.87571
11
5.57699
21
-3.8774
0
LINE
8
BLACK
6
CONTINUOUS
10
5.57699
20
-3.8774
11
5.57394
21
-3.87758
0
LINE
8
BLACK
6
CONTINUOUS
10
5.57394
20
-3.87758
11
5.57121
21
-3.87621
0
LINE
8
BLACK
6
CONTINUOUS
10
5.57121
20
-3.87621
11
5.56952
21
-3.87366
0
LINE
8
BLACK
6
CONTINUOUS
10
5.56952
20
-3.87366
11
5.56524
21
-3.86083
0
LINE
8
BLACK
6
CONTINUOUS
10
5.56524
20
-3.86083
11
5.54563
21
-3.86083
0
LINE
8
BLACK
6
CONTINUOUS
10
5.54563
20
-3.86083
11
5.54136
21
-3.87366
0
LINE
8
BLACK
6
CONTINUOUS
10
5.54136
20
-3.87366
11
5.53967
21
-3.87621
0
LINE
8
BLACK
6
CONTINUOUS
10
5.53967
20
-3.87621
11
5.53694
21
-3.87758
0
LINE
8
BLACK
6
CONTINUOUS
10
5.53694
20
-3.87758
11
5.53389
21
-3.8774
0
LINE
8
BLACK
6
CONTINUOUS
10
5.53389
20
-3.8774
11
5.53134
21
-3.87571
0
LINE
8
BLACK
6
CONTINUOUS
10
5.53134
20
-3.87571
11
5.52997
21
-3.87298
0
LINE
8
BLACK
6
CONTINUOUS
10
5.52997
20
-3.87298
11
5.53015
21
-3.86993
0
LINE
8
BLACK
6
CONTINUOUS
10
5.53015
20
-3.86993
11
5.54984
21
-3.81087
0
LINE
8
BLACK
6
CONTINUOUS
10
5.54984
20
-3.81087
11
5.55049
21
-3.80988
0
LINE
8
BLACK
6
CONTINUOUS
10
5.55049
20
-3.80988
11
5.55102
21
-3.80882
0
LINE
8
BLACK
6
CONTINUOUS
10
5.55102
20
-3.80882
11
5.55132
21
-3.80862
0
LINE
8
BLACK
6
CONTINUOUS
10
5.55132
20
-3.80862
11
5.55152
21
-3.80832
0
LINE
8
BLACK
6
CONTINUOUS
10
5.55152
20
-3.80832
11
5.55258
21
-3.80779
0
LINE
8
BLACK
6
CONTINUOUS
10
5.55258
20
-3.80779
11
5.55357
21
-3.80714
0
LINE
8
BLACK
6
CONTINUOUS
10
5.55357
20
-3.80714
11
5.55393
21
-3.80711
0
LINE
8
BLACK
6
CONTINUOUS
10
5.55393
20
-3.80711
11
5.55425
21
-3.80695
0
LINE
8
BLACK
6
CONTINUOUS
10
5.55425
20
-3.80695
11
5.55544
21
-3.80702
0
LINE
8
BLACK
6
CONTINUOUS
10
5.55544
20
-3.80702
11
5.55662
21
-3.80695
0
LINE
8
BLACK
6
CONTINUOUS
10
5.55662
20
-3.80695
11
5.55695
21
-3.80711
0
LINE
8
BLACK
6
CONTINUOUS
10
5.54957
20
-3.84902
11
5.56131
21
-3.84902
0
LINE
8
BLACK
6
CONTINUOUS
10
5.56131
20
-3.84902
11
5.55544
21
-3.83141
0
LINE
8
BLACK
6
CONTINUOUS
10
5.55544
20
-3.83141
11
5.54957
21
-3.84902
0
LINE
8
BLACK
6
CONTINUOUS
10
5.42795
20
-3.80714
11
5.4305
21
-3.80882
0
LINE
8
BLACK
6
CONTINUOUS
10
5.4305
20
-3.80882
11
5.43187
21
-3.81156
0
LINE
8
BLACK
6
CONTINUOUS
10
5.43187
20
-3.81156
11
5.43168
21
-3.81461
0
LINE
8
BLACK
6
CONTINUOUS
10
5.43168
20
-3.81461
11
5.412
21
-3.87366
0
LINE
8
BLACK
6
CONTINUOUS
10
5.412
20
-3.87366
11
5.41134
21
-3.87465
0
LINE
8
BLACK
6
CONTINUOUS
10
5.41134
20
-3.87465
11
5.41081
21
-3.87571
0
LINE
8
BLACK
6
CONTINUOUS
10
5.41081
20
-3.87571
11
5.41051
21
-3.87591
0
LINE
8
BLACK
6
CONTINUOUS
10
5.41051
20
-3.87591
11
5.41031
21
-3.87621
0
LINE
8
BLACK
6
CONTINUOUS
10
5.41031
20
-3.87621
11
5.40925
21
-3.87674
0
LINE
8
BLACK
6
CONTINUOUS
10
5.40925
20
-3.87674
11
5.40826
21
-3.8774
0
LINE
8
BLACK
6
CONTINUOUS
10
5.40826
20
-3.8774
11
5.4079
21
-3.87742
0
LINE
8
BLACK
6
CONTINUOUS
10
5.4079
20
-3.87742
11
5.40758
21
-3.87758
0
LINE
8
BLACK
6
CONTINUOUS
10
5.40758
20
-3.87758
11
5.40639
21
-3.87751
0
LINE
8
BLACK
6
CONTINUOUS
10
5.40639
20
-3.87751
11
5.40521
21
-3.87758
0
LINE
8
BLACK
6
CONTINUOUS
10
5.40521
20
-3.87758
11
5.40489
21
-3.87742
0
LINE
8
BLACK
6
CONTINUOUS
10
5.40489
20
-3.87742
11
5.40453
21
-3.8774
0
LINE
8
BLACK
6
CONTINUOUS
10
5.40453
20
-3.8774
11
5.40354
21
-3.87674
0
LINE
8
BLACK
6
CONTINUOUS
10
5.40354
20
-3.87674
11
5.40248
21
-3.87621
0
LINE
8
BLACK
6
CONTINUOUS
10
5.40248
20
-3.87621
11
5.40228
21
-3.87591
0
LINE
8
BLACK
6
CONTINUOUS
10
5.40228
20
-3.87591
11
5.40198
21
-3.87571
0
LINE
8
BLACK
6
CONTINUOUS
10
5.40198
20
-3.87571
11
5.40145
21
-3.87465
0
LINE
8
BLACK
6
CONTINUOUS
10
5.40145
20
-3.87465
11
5.40079
21
-3.87366
0
LINE
8
BLACK
6
CONTINUOUS
10
5.40079
20
-3.87366
11
5.38111
21
-3.81461
0
LINE
8
BLACK
6
CONTINUOUS
10
5.38111
20
-3.81461
11
5.38092
21
-3.81156
0
LINE
8
BLACK
6
CONTINUOUS
10
5.38092
20
-3.81156
11
5.38229
21
-3.80882
0
LINE
8
BLACK
6
CONTINUOUS
10
5.38229
20
-3.80882
11
5.38484
21
-3.80714
0
LINE
8
BLACK
6
CONTINUOUS
10
5.38484
20
-3.80714
11
5.38789
21
-3.80695
0
LINE
8
BLACK
6
CONTINUOUS
10
5.38789
20
-3.80695
11
5.39063
21
-3.80832
0
LINE
8
BLACK
6
CONTINUOUS
10
5.39063
20
-3.80832
11
5.39231
21
-3.81087
0
LINE
8
BLACK
6
CONTINUOUS
10
5.39231
20
-3.81087
11
5.40639
21
-3.85312
0
LINE
8
BLACK
6
CONTINUOUS
10
5.40639
20
-3.85312
11
5.42048
21
-3.81087
0
LINE
8
BLACK
6
CONTINUOUS
10
5.42048
20
-3.81087
11
5.42216
21
-3.80832
0
LINE
8
BLACK
6
CONTINUOUS
10
5.42216
20
-3.80832
11
5.4249
21
-3.80695
0
LINE
8
BLACK
6
CONTINUOUS
10
5.4249
20
-3.80695
11
5.42795
21
-3.80714
0
LINE
8
BLACK
6
CONTINUOUS
10
5.48559
20
-3.72216
11
5.48685
21
-3.72239
0
LINE
8
BLACK
6
CONTINUOUS
10
5.48685
20
-3.72239
11
5.48705
21
-3.72256
0
LINE
8
BLACK
6
CONTINUOUS
10
5.48705
20
-3.72256
11
5.48731
21
-3.72262
0
LINE
8
BLACK
6
CONTINUOUS
10
5.48731
20
-3.72262
11
5.48821
21
-3.72353
0
LINE
8
BLACK
6
CONTINUOUS
10
5.48821
20
-3.72353
11
5.48919
21
-3.72435
0
LINE
8
BLACK
6
CONTINUOUS
10
5.48919
20
-3.72435
11
5.48928
21
-3.7246
0
LINE
8
BLACK
6
CONTINUOUS
10
5.48928
20
-3.7246
11
5.48947
21
-3.72479
0
LINE
8
BLACK
6
CONTINUOUS
10
5.48947
20
-3.72479
11
5.4898
21
-3.72602
0
LINE
8
BLACK
6
CONTINUOUS
10
5.4898
20
-3.72602
11
5.49024
21
-3.72723
0
LINE
8
BLACK
6
CONTINUOUS
10
5.49024
20
-3.72723
11
5.49019
21
-3.72748
0
LINE
8
BLACK
6
CONTINUOUS
10
5.49019
20
-3.72748
11
5.49026
21
-3.72774
0
LINE
8
BLACK
6
CONTINUOUS
10
5.49026
20
-3.72774
11
5.49026
21
-3.78679
0
LINE
8
BLACK
6
CONTINUOUS
10
5.49026
20
-3.78679
11
5.48947
21
-3.78975
0
LINE
8
BLACK
6
CONTINUOUS
10
5.48947
20
-3.78975
11
5.48731
21
-3.79191
0
LINE
8
BLACK
6
CONTINUOUS
10
5.48731
20
-3.79191
11
5.48435
21
-3.7927
0
LINE
8
BLACK
6
CONTINUOUS
10
5.48435
20
-3.7927
11
5.4814
21
-3.79191
0
LINE
8
BLACK
6
CONTINUOUS
10
5.4814
20
-3.79191
11
5.47924
21
-3.78975
0
LINE
8
BLACK
6
CONTINUOUS
10
5.47924
20
-3.78975
11
5.47845
21
-3.78679
0
LINE
8
BLACK
6
CONTINUOUS
10
5.47845
20
-3.78679
11
5.47845
21
-3.75436
0
LINE
8
BLACK
6
CONTINUOUS
10
5.47845
20
-3.75436
11
5.47002
21
-3.77242
0
LINE
8
BLACK
6
CONTINUOUS
10
5.47002
20
-3.77242
11
5.46968
21
-3.77282
0
LINE
8
BLACK
6
CONTINUOUS
10
5.46968
20
-3.77282
11
5.46951
21
-3.77331
0
LINE
8
BLACK
6
CONTINUOUS
10
5.46951
20
-3.77331
11
5.46872
21
-3.77397
0
LINE
8
BLACK
6
CONTINUOUS
10
5.46872
20
-3.77397
11
5.46805
21
-3.77476
0
LINE
8
BLACK
6
CONTINUOUS
10
5.46805
20
-3.77476
11
5.46756
21
-3.77494
0
LINE
8
BLACK
6
CONTINUOUS
10
5.46756
20
-3.77494
11
5.46717
21
-3.77527
0
LINE
8
BLACK
6
CONTINUOUS
10
5.46717
20
-3.77527
11
5.46615
21
-3.77545
0
LINE
8
BLACK
6
CONTINUOUS
10
5.46615
20
-3.77545
11
5.46518
21
-3.7758
0
LINE
8
BLACK
6
CONTINUOUS
10
5.46518
20
-3.7758
11
5.46467
21
-3.77571
0
LINE
8
BLACK
6
CONTINUOUS
10
5.46467
20
-3.77571
11
5.46416
21
-3.7758
0
LINE
8
BLACK
6
CONTINUOUS
10
5.46416
20
-3.7758
11
5.46319
21
-3.77545
0
LINE
8
BLACK
6
CONTINUOUS
10
5.46319
20
-3.77545
11
5.46217
21
-3.77527
0
LINE
8
BLACK
6
CONTINUOUS
10
5.46217
20
-3.77527
11
5.46177
21
-3.77494
0
LINE
8
BLACK
6
CONTINUOUS
10
5.46177
20
-3.77494
11
5.46128
21
-3.77476
0
LINE
8
BLACK
6
CONTINUOUS
10
5.46128
20
-3.77476
11
5.46062
21
-3.77397
0
LINE
8
BLACK
6
CONTINUOUS
10
5.46062
20
-3.77397
11
5.45983
21
-3.77331
0
LINE
8
BLACK
6
CONTINUOUS
10
5.45983
20
-3.77331
11
5.45965
21
-3.77282
0
LINE
8
BLACK
6
CONTINUOUS
10
5.45965
20
-3.77282
11
5.45932
21
-3.77242
0
LINE
8
BLACK
6
CONTINUOUS
10
5.45932
20
-3.77242
11
5.45089
21
-3.75436
0
LINE
8
BLACK
6
CONTINUOUS
10
5.45089
20
-3.75436
11
5.45089
21
-3.78679
0
LINE
8
BLACK
6
CONTINUOUS
10
5.45089
20
-3.78679
11
5.4501
21
-3.78975
0
LINE
8
BLACK
6
CONTINUOUS
10
5.4501
20
-3.78975
11
5.44794
21
-3.79191
0
LINE
8
BLACK
6
CONTINUOUS
10
5.44794
20
-3.79191
11
5.44498
21
-3.7927
0
LINE
8
BLACK
6
CONTINUOUS
10
5.44498
20
-3.7927
11
5.44203
21
-3.79191
0
LINE
8
BLACK
6
CONTINUOUS
10
5.44203
20
-3.79191
11
5.43987
21
-3.78975
0
LINE
8
BLACK
6
CONTINUOUS
10
5.43987
20
-3.78975
11
5.43908
21
-3.78679
0
LINE
8
BLACK
6
CONTINUOUS
10
5.43908
20
-3.78679
11
5.43908
21
-3.72774
0
LINE
8
BLACK
6
CONTINUOUS
10
5.43908
20
-3.72774
11
5.43915
21
-3.72748
0
LINE
8
BLACK
6
CONTINUOUS
10
5.43915
20
-3.72748
11
5.4391
21
-3.72723
0
LINE
8
BLACK
6
CONTINUOUS
10
5.4391
20
-3.72723
11
5.43954
21
-3.72602
0
LINE
8
BLACK
6
CONTINUOUS
10
5.43954
20
-3.72602
11
5.43987
21
-3.72479
0
LINE
8
BLACK
6
CONTINUOUS
10
5.43987
20
-3.72479
11
5.44005
21
-3.7246
0
LINE
8
BLACK
6
CONTINUOUS
10
5.44005
20
-3.7246
11
5.44014
21
-3.72435
0
LINE
8
BLACK
6
CONTINUOUS
10
5.44014
20
-3.72435
11
5.44112
21
-3.72353
0
LINE
8
BLACK
6
CONTINUOUS
10
5.44112
20
-3.72353
11
5.44203
21
-3.72262
0
LINE
8
BLACK
6
CONTINUOUS
10
5.44203
20
-3.72262
11
5.44228
21
-3.72256
0
LINE
8
BLACK
6
CONTINUOUS
10
5.44228
20
-3.72256
11
5.44249
21
-3.72239
0
LINE
8
BLACK
6
CONTINUOUS
10
5.44249
20
-3.72239
11
5.44375
21
-3.72216
0
LINE
8
BLACK
6
CONTINUOUS
10
5.44375
20
-3.72216
11
5.44498
21
-3.72183
0
LINE
8
BLACK
6
CONTINUOUS
10
5.44498
20
-3.72183
11
5.44524
21
-3.7219
0
LINE
8
BLACK
6
CONTINUOUS
10
5.44524
20
-3.7219
11
5.4455
21
-3.72186
0
LINE
8
BLACK
6
CONTINUOUS
10
5.4455
20
-3.72186
11
5.4467
21
-3.72229
0
LINE
8
BLACK
6
CONTINUOUS
10
5.4467
20
-3.72229
11
5.44794
21
-3.72262
0
LINE
8
BLACK
6
CONTINUOUS
10
5.44794
20
-3.72262
11
5.44812
21
-3.72281
0
LINE
8
BLACK
6
CONTINUOUS
10
5.44812
20
-3.72281
11
5.44837
21
-3.7229
0
LINE
8
BLACK
6
CONTINUOUS
10
5.44837
20
-3.7229
11
5.44919
21
-3.72388
0
LINE
8
BLACK
6
CONTINUOUS
10
5.44919
20
-3.72388
11
5.4501
21
-3.72479
0
LINE
8
BLACK
6
CONTINUOUS
10
5.4501
20
-3.72479
11
5.45017
21
-3.72504
0
LINE
8
BLACK
6
CONTINUOUS
10
5.45017
20
-3.72504
11
5.45033
21
-3.72524
0
LINE
8
BLACK
6
CONTINUOUS
10
5.45033
20
-3.72524
11
5.46467
21
-3.75596
0
LINE
8
BLACK
6
CONTINUOUS
10
5.46467
20
-3.75596
11
5.479
21
-3.72524
0
LINE
8
BLACK
6
CONTINUOUS
10
5.479
20
-3.72524
11
5.47917
21
-3.72504
0
LINE
8
BLACK
6
CONTINUOUS
10
5.47917
20
-3.72504
11
5.47924
21
-3.72479
0
LINE
8
BLACK
6
CONTINUOUS
10
5.47924
20
-3.72479
11
5.48014
21
-3.72388
0
LINE
8
BLACK
6
CONTINUOUS
10
5.48014
20
-3.72388
11
5.48097
21
-3.7229
0
LINE
8
BLACK
6
CONTINUOUS
10
5.48097
20
-3.7229
11
5.48121
21
-3.72281
0
LINE
8
BLACK
6
CONTINUOUS
10
5.48121
20
-3.72281
11
5.4814
21
-3.72262
0
LINE
8
BLACK
6
CONTINUOUS
10
5.4814
20
-3.72262
11
5.48264
21
-3.72229
0
LINE
8
BLACK
6
CONTINUOUS
10
5.48264
20
-3.72229
11
5.48384
21
-3.72186
0
LINE
8
BLACK
6
CONTINUOUS
10
5.48384
20
-3.72186
11
5.4841
21
-3.7219
0
LINE
8
BLACK
6
CONTINUOUS
10
5.4841
20
-3.7219
11
5.48435
21
-3.72183
0
LINE
8
BLACK
6
CONTINUOUS
10
5.48435
20
-3.72183
11
5.48559
21
-3.72216
0
LINE
8
BLACK
6
CONTINUOUS
10
5.51543
20
-3.72262
11
5.51759
21
-3.72479
0
LINE
8
BLACK
6
CONTINUOUS
10
5.51759
20
-3.72479
11
5.51838
21
-3.72774
0
LINE
8
BLACK
6
CONTINUOUS
10
5.51838
20
-3.72774
11
5.51838
21
-3.78089
0
LINE
8
BLACK
6
CONTINUOUS
10
5.51838
20
-3.78089
11
5.5406
21
-3.78089
0
LINE
8
BLACK
6
CONTINUOUS
10
5.5406
20
-3.78089
11
5.54355
21
-3.78168
0
LINE
8
BLACK
6
CONTINUOUS
10
5.54355
20
-3.78168
11
5.54571
21
-3.78384
0
LINE
8
BLACK
6
CONTINUOUS
10
5.54571
20
-3.78384
11
5.5462
21
-3.78566
0
LINE
8
BLACK
6
CONTINUOUS
10
5.5462
20
-3.78566
11
5.54624
21
-3.78493
0
LINE
8
BLACK
6
CONTINUOUS
10
5.54624
20
-3.78493
11
5.56593
21
-3.72587
0
LINE
8
BLACK
6
CONTINUOUS
10
5.56593
20
-3.72587
11
5.56658
21
-3.72488
0
LINE
8
BLACK
6
CONTINUOUS
10
5.56658
20
-3.72488
11
5.56711
21
-3.72382
0
LINE
8
BLACK
6
CONTINUOUS
10
5.56711
20
-3.72382
11
5.56741
21
-3.72362
0
LINE
8
BLACK
6
CONTINUOUS
10
5.56741
20
-3.72362
11
5.56761
21
-3.72332
0
LINE
8
BLACK
6
CONTINUOUS
10
5.56761
20
-3.72332
11
5.56867
21
-3.72279
0
LINE
8
BLACK
6
CONTINUOUS
10
5.56867
20
-3.72279
11
5.56966
21
-3.72214
0
LINE
8
BLACK
6
CONTINUOUS
10
5.56966
20
-3.72214
11
5.57002
21
-3.72211
0
LINE
8
BLACK
6
CONTINUOUS
10
5.57002
20
-3.72211
11
5.57035
21
-3.72195
0
LINE
8
BLACK
6
CONTINUOUS
10
5.57035
20
-3.72195
11
5.57153
21
-3.72202
0
LINE
8
BLACK
6
CONTINUOUS
10
5.57153
20
-3.72202
11
5.57271
21
-3.72195
0
LINE
8
BLACK
6
CONTINUOUS
10
5.57271
20
-3.72195
11
5.57304
21
-3.72211
0
LINE
8
BLACK
6
CONTINUOUS
10
5.57304
20
-3.72211
11
5.5734
21
-3.72214
0
LINE
8
BLACK
6
CONTINUOUS
10
5.5734
20
-3.72214
11
5.57439
21
-3.72279
0
LINE
8
BLACK
6
CONTINUOUS
10
5.57439
20
-3.72279
11
5.57545
21
-3.72332
0
LINE
8
BLACK
6
CONTINUOUS
10
5.57545
20
-3.72332
11
5.57565
21
-3.72362
0
LINE
8
BLACK
6
CONTINUOUS
10
5.57565
20
-3.72362
11
5.57595
21
-3.72382
0
LINE
8
BLACK
6
CONTINUOUS
10
5.57595
20
-3.72382
11
5.57648
21
-3.72488
0
LINE
8
BLACK
6
CONTINUOUS
10
5.57648
20
-3.72488
11
5.57713
21
-3.72587
0
LINE
8
BLACK
6
CONTINUOUS
10
5.57713
20
-3.72587
11
5.59682
21
-3.78493
0
LINE
8
BLACK
6
CONTINUOUS
10
5.59682
20
-3.78493
11
5.597
21
-3.78798
0
LINE
8
BLACK
6
CONTINUOUS
10
5.597
20
-3.78798
11
5.59563
21
-3.79071
0
LINE
8
BLACK
6
CONTINUOUS
10
5.59563
20
-3.79071
11
5.59308
21
-3.7924
0
LINE
8
BLACK
6
CONTINUOUS
10
5.59308
20
-3.7924
11
5.59003
21
-3.79258
0
LINE
8
BLACK
6
CONTINUOUS
10
5.59003
20
-3.79258
11
5.5873
21
-3.79121
0
LINE
8
BLACK
6
CONTINUOUS
10
5.5873
20
-3.79121
11
5.58561
21
-3.78866
0
LINE
8
BLACK
6
CONTINUOUS
10
5.58561
20
-3.78866
11
5.58133
21
-3.77583
0
LINE
8
BLACK
6
CONTINUOUS
10
5.58133
20
-3.77583
11
5.56173
21
-3.77583
0
LINE
8
BLACK
6
CONTINUOUS
10
5.56173
20
-3.77583
11
5.55745
21
-3.78866
0
LINE
8
BLACK
6
CONTINUOUS
10
5.55745
20
-3.78866
11
5.55576
21
-3.79121
0
LINE
8
BLACK
6
CONTINUOUS
10
5.55576
20
-3.79121
11
5.55303
21
-3.79258
0
LINE
8
BLACK
6
CONTINUOUS
10
5.55303
20
-3.79258
11
5.54998
21
-3.7924
0
LINE
8
BLACK
6
CONTINUOUS
10
5.54998
20
-3.7924
11
5.54743
21
-3.79071
0
LINE
8
BLACK
6
CONTINUOUS
10
5.54743
20
-3.79071
11
5.54614
21
-3.78814
0
LINE
8
BLACK
6
CONTINUOUS
10
5.54614
20
-3.78814
11
5.54571
21
-3.78975
0
LINE
8
BLACK
6
CONTINUOUS
10
5.54571
20
-3.78975
11
5.54355
21
-3.79191
0
LINE
8
BLACK
6
CONTINUOUS
10
5.54355
20
-3.79191
11
5.5406
21
-3.7927
0
LINE
8
BLACK
6
CONTINUOUS
10
5.5406
20
-3.7927
11
5.51247
21
-3.7927
0
LINE
8
BLACK
6
CONTINUOUS
10
5.51247
20
-3.7927
11
5.50952
21
-3.79191
0
LINE
8
BLACK
6
CONTINUOUS
10
5.50952
20
-3.79191
11
5.50736
21
-3.78975
0
LINE
8
BLACK
6
CONTINUOUS
10
5.50736
20
-3.78975
11
5.50657
21
-3.78679
0
LINE
8
BLACK
6
CONTINUOUS
10
5.50657
20
-3.78679
11
5.50657
21
-3.72774
0
LINE
8
BLACK
6
CONTINUOUS
10
5.50657
20
-3.72774
11
5.50736
21
-3.72479
0
LINE
8
BLACK
6
CONTINUOUS
10
5.50736
20
-3.72479
11
5.50952
21
-3.72262
0
LINE
8
BLACK
6
CONTINUOUS
10
5.50952
20
-3.72262
11
5.51247
21
-3.72183
0
LINE
8
BLACK
6
CONTINUOUS
10
5.51247
20
-3.72183
11
5.51543
21
-3.72262
0
LINE
8
BLACK
6
CONTINUOUS
10
5.56566
20
-3.76402
11
5.5774
21
-3.76402
0
LINE
8
BLACK
6
CONTINUOUS
10
5.5774
20
-3.76402
11
5.57153
21
-3.74641
0
LINE
8
BLACK
6
CONTINUOUS
10
5.57153
20
-3.74641
11
5.56566
21
-3.76402
0
LINE
8
BLACK
6
CONTINUOUS
10
5.6319
20
-3.72218
11
5.63323
21
-3.72246
0
LINE
8
BLACK
6
CONTINUOUS
10
5.63323
20
-3.72246
11
5.63885
21
-3.72527
0
LINE
8
BLACK
6
CONTINUOUS
10
5.63885
20
-3.72527
11
5.63956
21
-3.7259
0
LINE
8
BLACK
6
CONTINUOUS
10
5.63956
20
-3.7259
11
5.64039
21
-3.72638
0
LINE
8
BLACK
6
CONTINUOUS
10
5.64039
20
-3.72638
11
5.6432
21
-3.72919
0
LINE
8
BLACK
6
CONTINUOUS
10
5.6432
20
-3.72919
11
5.64367
21
-3.73001
0
LINE
8
BLACK
6
CONTINUOUS
10
5.64367
20
-3.73001
11
5.6443
21
-3.73072
0
LINE
8
BLACK
6
CONTINUOUS
10
5.6443
20
-3.73072
11
5.64712
21
-3.73635
0
LINE
8
BLACK
6
CONTINUOUS
10
5.64712
20
-3.73635
11
5.64739
21
-3.73768
0
LINE
8
BLACK
6
CONTINUOUS
10
5.64739
20
-3.73768
11
5.64774
21
-3.73899
0
LINE
8
BLACK
6
CONTINUOUS
10
5.64774
20
-3.73899
11
5.64774
21
-3.74461
0
LINE
8
BLACK
6
CONTINUOUS
10
5.64774
20
-3.74461
11
5.64739
21
-3.74592
0
LINE
8
BLACK
6
CONTINUOUS
10
5.64739
20
-3.74592
11
5.64712
21
-3.74725
0
LINE
8
BLACK
6
CONTINUOUS
10
5.64712
20
-3.74725
11
5.6443
21
-3.75288
0
LINE
8
BLACK
6
CONTINUOUS
10
5.6443
20
-3.75288
11
5.64367
21
-3.75359
0
LINE
8
BLACK
6
CONTINUOUS
10
5.64367
20
-3.75359
11
5.6432
21
-3.75441
0
LINE
8
BLACK
6
CONTINUOUS
10
5.6432
20
-3.75441
11
5.64314
21
-3.75447
0
LINE
8
BLACK
6
CONTINUOUS
10
5.64314
20
-3.75447
11
5.6432
21
-3.7545
0
LINE
8
BLACK
6
CONTINUOUS
10
5.6432
20
-3.7545
11
5.64601
21
-3.75731
0
LINE
8
BLACK
6
CONTINUOUS
10
5.64601
20
-3.75731
11
5.64648
21
-3.75813
0
LINE
8
BLACK
6
CONTINUOUS
10
5.64648
20
-3.75813
11
5.64712
21
-3.75884
0
LINE
8
BLACK
6
CONTINUOUS
10
5.64712
20
-3.75884
11
5.64993
21
-3.76447
0
LINE
8
BLACK
6
CONTINUOUS
10
5.64993
20
-3.76447
11
5.6502
21
-3.7658
0
LINE
8
BLACK
6
CONTINUOUS
10
5.6502
20
-3.7658
11
5.65055
21
-3.76711
0
LINE
8
BLACK
6
CONTINUOUS
10
5.65055
20
-3.76711
11
5.65055
21
-3.77555
0
LINE
8
BLACK
6
CONTINUOUS
10
5.65055
20
-3.77555
11
5.6502
21
-3.77686
0
LINE
8
BLACK
6
CONTINUOUS
10
5.6502
20
-3.77686
11
5.64993
21
-3.77819
0
LINE
8
BLACK
6
CONTINUOUS
10
5.64993
20
-3.77819
11
5.64712
21
-3.78381
0
LINE
8
BLACK
6
CONTINUOUS
10
5.64712
20
-3.78381
11
5.64648
21
-3.78452
0
LINE
8
BLACK
6
CONTINUOUS
10
5.64648
20
-3.78452
11
5.64601
21
-3.78535
0
LINE
8
BLACK
6
CONTINUOUS
10
5.64601
20
-3.78535
11
5.6432
21
-3.78816
0
LINE
8
BLACK
6
CONTINUOUS
10
5.6432
20
-3.78816
11
5.64237
21
-3.78863
0
LINE
8
BLACK
6
CONTINUOUS
10
5.64237
20
-3.78863
11
5.64166
21
-3.78926
0
LINE
8
BLACK
6
CONTINUOUS
10
5.64166
20
-3.78926
11
5.63604
21
-3.79208
0
LINE
8
BLACK
6
CONTINUOUS
10
5.63604
20
-3.79208
11
5.63471
21
-3.79235
0
LINE
8
BLACK
6
CONTINUOUS
10
5.63471
20
-3.79235
11
5.6334
21
-3.7927
0
LINE
8
BLACK
6
CONTINUOUS
10
5.6334
20
-3.7927
11
5.6109
21
-3.7927
0
LINE
8
BLACK
6
CONTINUOUS
10
5.6109
20
-3.7927
11
5.60795
21
-3.79191
0
LINE
8
BLACK
6
CONTINUOUS
10
5.60795
20
-3.79191
11
5.60579
21
-3.78975
0
LINE
8
BLACK
6
CONTINUOUS
10
5.60579
20
-3.78975
11
5.60499
21
-3.78679
0
LINE
8
BLACK
6
CONTINUOUS
10
5.60499
20
-3.78679
11
5.60499
21
-3.72774
0
LINE
8
BLACK
6
CONTINUOUS
10
5.60499
20
-3.72774
11
5.60579
21
-3.72479
0
LINE
8
BLACK
6
CONTINUOUS
10
5.60579
20
-3.72479
11
5.60795
21
-3.72262
0
LINE
8
BLACK
6
CONTINUOUS
10
5.60795
20
-3.72262
11
5.6109
21
-3.72183
0
LINE
8
BLACK
6
CONTINUOUS
10
5.6109
20
-3.72183
11
5.63058
21
-3.72183
0
LINE
8
BLACK
6
CONTINUOUS
10
5.63058
20
-3.72183
11
5.6319
21
-3.72218
0
LINE
8
BLACK
6
CONTINUOUS
10
5.61681
20
-3.76177
11
5.61681
21
-3.78089
0
LINE
8
BLACK
6
CONTINUOUS
10
5.61681
20
-3.78089
11
5.632
21
-3.78089
0
LINE
8
BLACK
6
CONTINUOUS
10
5.632
20
-3.78089
11
5.63552
21
-3.77913
0
LINE
8
BLACK
6
CONTINUOUS
10
5.63552
20
-3.77913
11
5.63698
21
-3.77767
0
LINE
8
BLACK
6
CONTINUOUS
10
5.63698
20
-3.77767
11
5.63874
21
-3.77415
0
LINE
8
BLACK
6
CONTINUOUS
10
5.63874
20
-3.77415
11
5.63874
21
-3.7685
0
LINE
8
BLACK
6
CONTINUOUS
10
5.63874
20
-3.7685
11
5.63698
21
-3.76498
0
LINE
8
BLACK
6
CONTINUOUS
10
5.63698
20
-3.76498
11
5.63583
21
-3.76383
0
LINE
8
BLACK
6
CONTINUOUS
10
5.63583
20
-3.76383
11
5.62963
21
-3.76177
0
LINE
8
BLACK
6
CONTINUOUS
10
5.62963
20
-3.76177
11
5.61681
21
-3.76177
0
LINE
8
BLACK
6
CONTINUOUS
10
5.61681
20
-3.73364
11
5.61681
21
-3.74995
0
LINE
8
BLACK
6
CONTINUOUS
10
5.61681
20
-3.74995
11
5.62919
21
-3.74995
0
LINE
8
BLACK
6
CONTINUOUS
10
5.62919
20
-3.74995
11
5.63271
21
-3.74819
0
LINE
8
BLACK
6
CONTINUOUS
10
5.63271
20
-3.74819
11
5.63417
21
-3.74674
0
LINE
8
BLACK
6
CONTINUOUS
10
5.63417
20
-3.74674
11
5.63593
21
-3.74322
0
LINE
8
BLACK
6
CONTINUOUS
10
5.63593
20
-3.74322
11
5.63593
21
-3.74038
0
LINE
8
BLACK
6
CONTINUOUS
10
5.63593
20
-3.74038
11
5.63417
21
-3.73686
0
LINE
8
BLACK
6
CONTINUOUS
10
5.63417
20
-3.73686
11
5.63271
21
-3.7354
0
LINE
8
BLACK
6
CONTINUOUS
10
5.63271
20
-3.7354
11
5.62919
21
-3.73364
0
LINE
8
BLACK
6
CONTINUOUS
10
5.62919
20
-3.73364
11
5.61681
21
-3.73364
0
LINE
8
BLACK
6
CONTINUOUS
10
5.67216
20
-3.77585
11
5.67291
21
-3.77606
0
LINE
8
BLACK
6
CONTINUOUS
10
5.67291
20
-3.77606
11
5.67346
21
-3.77661
0
LINE
8
BLACK
6
CONTINUOUS
10
5.67346
20
-3.77661
11
5.67413
21
-3.77699
0
LINE
8
BLACK
6
CONTINUOUS
10
5.67413
20
-3.77699
11
5.67694
21
-3.77981
0
LINE
8
BLACK
6
CONTINUOUS
10
5.67694
20
-3.77981
11
5.67699
21
-3.77989
0
LINE
8
BLACK
6
CONTINUOUS
10
5.67699
20
-3.77989
11
5.67847
21
-3.78245
0
LINE
8
BLACK
6
CONTINUOUS
10
5.67847
20
-3.78245
11
5.67847
21
-3.78551
0
LINE
8
BLACK
6
CONTINUOUS
10
5.67847
20
-3.78551
11
5.67793
21
-3.78644
0
LINE
8
BLACK
6
CONTINUOUS
10
5.67793
20
-3.78644
11
5.67694
21
-3.78816
0
LINE
8
BLACK
6
CONTINUOUS
10
5.67694
20
-3.78816
11
5.67413
21
-3.79097
0
LINE
8
BLACK
6
CONTINUOUS
10
5.67413
20
-3.79097
11
5.67413
21
-3.79097
0
LINE
8
BLACK
6
CONTINUOUS
10
5.67413
20
-3.79097
11
5.67371
21
-3.79121
0
LINE
8
BLACK
6
CONTINUOUS
10
5.67371
20
-3.79121
11
5.67346
21
-3.79136
0
LINE
8
BLACK
6
CONTINUOUS
10
5.67346
20
-3.79136
11
5.67291
21
-3.79191
0
LINE
8
BLACK
6
CONTINUOUS
10
5.67291
20
-3.79191
11
5.67216
21
-3.79211
0
LINE
8
BLACK
6
CONTINUOUS
10
5.67216
20
-3.79211
11
5.67148
21
-3.7925
0
LINE
8
BLACK
6
CONTINUOUS
10
5.67148
20
-3.7925
11
5.67071
21
-3.7925
0
LINE
8
BLACK
6
CONTINUOUS
10
5.67071
20
-3.7925
11
5.66995
21
-3.7927
0
LINE
8
BLACK
6
CONTINUOUS
10
5.66995
20
-3.7927
11
5.6692
21
-3.7925
0
LINE
8
BLACK
6
CONTINUOUS
10
5.6692
20
-3.7925
11
5.66843
21
-3.7925
0
LINE
8
BLACK
6
CONTINUOUS
10
5.66843
20
-3.7925
11
5.66775
21
-3.79211
0
LINE
8
BLACK
6
CONTINUOUS
10
5.66775
20
-3.79211
11
5.667
21
-3.79191
0
LINE
8
BLACK
6
CONTINUOUS
10
5.667
20
-3.79191
11
5.66645
21
-3.79136
0
LINE
8
BLACK
6
CONTINUOUS
10
5.66645
20
-3.79136
11
5.6662
21
-3.79121
0
LINE
8
BLACK
6
CONTINUOUS
10
5.6662
20
-3.79121
11
5.66578
21
-3.79097
0
LINE
8
BLACK
6
CONTINUOUS
10
5.66578
20
-3.79097
11
5.66297
21
-3.78816
0
LINE
8
BLACK
6
CONTINUOUS
10
5.66297
20
-3.78816
11
5.66243
21
-3.78724
0
LINE
8
BLACK
6
CONTINUOUS
10
5.66243
20
-3.78724
11
5.66198
21
-3.78644
0
LINE
8
BLACK
6
CONTINUOUS
10
5.66198
20
-3.78644
11
5.66144
21
-3.78551
0
LINE
8
BLACK
6
CONTINUOUS
10
5.66144
20
-3.78551
11
5.66144
21
-3.78245
0
LINE
8
BLACK
6
CONTINUOUS
10
5.66144
20
-3.78245
11
5.66292
21
-3.77989
0
LINE
8
BLACK
6
CONTINUOUS
10
5.66292
20
-3.77989
11
5.66297
21
-3.77981
0
LINE
8
BLACK
6
CONTINUOUS
10
5.66297
20
-3.77981
11
5.66297
21
-3.77981
0
LINE
8
BLACK
6
CONTINUOUS
10
5.66297
20
-3.77981
11
5.66297
21
-3.77981
0
LINE
8
BLACK
6
CONTINUOUS
10
5.66297
20
-3.77981
11
5.66578
21
-3.77699
0
LINE
8
BLACK
6
CONTINUOUS
10
5.66578
20
-3.77699
11
5.66645
21
-3.77661
0
LINE
8
BLACK
6
CONTINUOUS
10
5.66645
20
-3.77661
11
5.667
21
-3.77606
0
LINE
8
BLACK
6
CONTINUOUS
10
5.667
20
-3.77606
11
5.66775
21
-3.77585
0
LINE
8
BLACK
6
CONTINUOUS
10
5.66775
20
-3.77585
11
5.66843
21
-3.77547
0
LINE
8
BLACK
6
CONTINUOUS
10
5.66843
20
-3.77547
11
5.6692
21
-3.77547
0
LINE
8
BLACK
6
CONTINUOUS
10
5.6692
20
-3.77547
11
5.66995
21
-3.77526
0
LINE
8
BLACK
6
CONTINUOUS
10
5.66995
20
-3.77526
11
5.67071
21
-3.77547
0
LINE
8
BLACK
6
CONTINUOUS
10
5.67071
20
-3.77547
11
5.67148
21
-3.77547
0
LINE
8
BLACK
6
CONTINUOUS
10
5.67148
20
-3.77547
11
5.67216
21
-3.77585
0
LINE
8
BLACK
6
CONTINUOUS
10
5.72149
20
-3.72208
11
5.72244
21
-3.72214
0
LINE
8
BLACK
6
CONTINUOUS
10
5.72244
20
-3.72214
11
5.73088
21
-3.72495
0
LINE
8
BLACK
6
CONTINUOUS
10
5.73088
20
-3.72495
11
5.73201
21
-3.7257
0
LINE
8
BLACK
6
CONTINUOUS
10
5.73201
20
-3.7257
11
5.73319
21
-3.72638
0
LINE
8
BLACK
6
CONTINUOUS
10
5.73319
20
-3.72638
11
5.736
21
-3.72919
0
LINE
8
BLACK
6
CONTINUOUS
10
5.736
20
-3.72919
11
5.73753
21
-3.73183
0
LINE
8
BLACK
6
CONTINUOUS
10
5.73753
20
-3.73183
11
5.73753
21
-3.73489
0
LINE
8
BLACK
6
CONTINUOUS
10
5.73753
20
-3.73489
11
5.736
21
-3.73754
0
LINE
8
BLACK
6
CONTINUOUS
10
5.736
20
-3.73754
11
5.73335
21
-3.73907
0
LINE
8
BLACK
6
CONTINUOUS
10
5.73335
20
-3.73907
11
5.73029
21
-3.73907
0
LINE
8
BLACK
6
CONTINUOUS
10
5.73029
20
-3.73907
11
5.72765
21
-3.73754
0
LINE
8
BLACK
6
CONTINUOUS
10
5.72765
20
-3.73754
11
5.72582
21
-3.73571
0
LINE
8
BLACK
6
CONTINUOUS
10
5.72582
20
-3.73571
11
5.71962
21
-3.73364
0
LINE
8
BLACK
6
CONTINUOUS
10
5.71962
20
-3.73364
11
5.71591
21
-3.73364
0
LINE
8
BLACK
6
CONTINUOUS
10
5.71591
20
-3.73364
11
5.7097
21
-3.73571
0
LINE
8
BLACK
6
CONTINUOUS
10
5.7097
20
-3.73571
11
5.70574
21
-3.73967
0
LINE
8
BLACK
6
CONTINUOUS
10
5.70574
20
-3.73967
11
5.70365
21
-3.74386
0
LINE
8
BLACK
6
CONTINUOUS
10
5.70365
20
-3.74386
11
5.70117
21
-3.75378
0
LINE
8
BLACK
6
CONTINUOUS
10
5.70117
20
-3.75378
11
5.70117
21
-3.76076
0
LINE
8
BLACK
6
CONTINUOUS
10
5.70117
20
-3.76076
11
5.70365
21
-3.77067
0
LINE
8
BLACK
6
CONTINUOUS
10
5.70365
20
-3.77067
11
5.70574
21
-3.77486
0
LINE
8
BLACK
6
CONTINUOUS
10
5.70574
20
-3.77486
11
5.7097
21
-3.77882
0
LINE
8
BLACK
6
CONTINUOUS
10
5.7097
20
-3.77882
11
5.71591
21
-3.78089
0
LINE
8
BLACK
6
CONTINUOUS
10
5.71591
20
-3.78089
11
5.71962
21
-3.78089
0
LINE
8
BLACK
6
CONTINUOUS
10
5.71962
20
-3.78089
11
5.72582
21
-3.77882
0
LINE
8
BLACK
6
CONTINUOUS
10
5.72582
20
-3.77882
11
5.72765
21
-3.77699
0
LINE
8
BLACK
6
CONTINUOUS
10
5.72765
20
-3.77699
11
5.73029
21
-3.77547
0
LINE
8
BLACK
6
CONTINUOUS
10
5.73029
20
-3.77547
11
5.73335
21
-3.77547
0
LINE
8
BLACK
6
CONTINUOUS
10
5.73335
20
-3.77547
11
5.736
21
-3.77699
0
LINE
8
BLACK
6
CONTINUOUS
10
5.736
20
-3.77699
11
5.73753
21
-3.77964
0
LINE
8
BLACK
6
CONTINUOUS
10
5.73753
20
-3.77964
11
5.73753
21
-3.7827
0
LINE
8
BLACK
6
CONTINUOUS
10
5.73753
20
-3.7827
11
5.736
21
-3.78535
0
LINE
8
BLACK
6
CONTINUOUS
10
5.736
20
-3.78535
11
5.73319
21
-3.78816
0
LINE
8
BLACK
6
CONTINUOUS
10
5.73319
20
-3.78816
11
5.73201
21
-3.78884
0
LINE
8
BLACK
6
CONTINUOUS
10
5.73201
20
-3.78884
11
5.73088
21
-3.78958
0
LINE
8
BLACK
6
CONTINUOUS
10
5.73088
20
-3.78958
11
5.72244
21
-3.7924
0
LINE
8
BLACK
6
CONTINUOUS
10
5.72244
20
-3.7924
11
5.72149
21
-3.79245
0
LINE
8
BLACK
6
CONTINUOUS
10
5.72149
20
-3.79245
11
5.72057
21
-3.7927
0
LINE
8
BLACK
6
CONTINUOUS
10
5.72057
20
-3.7927
11
5.71495
21
-3.7927
0
LINE
8
BLACK
6
CONTINUOUS
10
5.71495
20
-3.7927
11
5.71403
21
-3.79245
0
LINE
8
BLACK
6
CONTINUOUS
10
5.71403
20
-3.79245
11
5.71308
21
-3.7924
0
LINE
8
BLACK
6
CONTINUOUS
10
5.71308
20
-3.7924
11
5.70465
21
-3.78958
0
LINE
8
BLACK
6
CONTINUOUS
10
5.70465
20
-3.78958
11
5.70351
21
-3.78884
0
LINE
8
BLACK
6
CONTINUOUS
10
5.70351
20
-3.78884
11
5.70234
21
-3.78816
0
LINE
8
BLACK
6
CONTINUOUS
10
5.70234
20
-3.78816
11
5.69671
21
-3.78253
0
LINE
8
BLACK
6
CONTINUOUS
10
5.69671
20
-3.78253
11
5.69624
21
-3.78171
0
LINE
8
BLACK
6
CONTINUOUS
10
5.69624
20
-3.78171
11
5.69561
21
-3.781
0
LINE
8
BLACK
6
CONTINUOUS
10
5.69561
20
-3.781
11
5.69279
21
-3.77537
0
LINE
8
BLACK
6
CONTINUOUS
10
5.69279
20
-3.77537
11
5.69266
21
-3.77474
0
LINE
8
BLACK
6
CONTINUOUS
10
5.69266
20
-3.77474
11
5.69235
21
-3.77417
0
LINE
8
BLACK
6
CONTINUOUS
10
5.69235
20
-3.77417
11
5.68954
21
-3.76292
0
LINE
8
BLACK
6
CONTINUOUS
10
5.68954
20
-3.76292
11
5.68955
21
-3.76219
0
LINE
8
BLACK
6
CONTINUOUS
10
5.68955
20
-3.76219
11
5.68936
21
-3.76148
0
LINE
8
BLACK
6
CONTINUOUS
10
5.68936
20
-3.76148
11
5.68936
21
-3.75305
0
LINE
8
BLACK
6
CONTINUOUS
10
5.68936
20
-3.75305
11
5.68955
21
-3.75234
0
LINE
8
BLACK
6
CONTINUOUS
10
5.68955
20
-3.75234
11
5.68954
21
-3.75162
0
LINE
8
BLACK
6
CONTINUOUS
10
5.68954
20
-3.75162
11
5.69235
21
-3.74037
0
LINE
8
BLACK
6
CONTINUOUS
10
5.69235
20
-3.74037
11
5.69266
21
-3.7398
0
LINE
8
BLACK
6
CONTINUOUS
10
5.69266
20
-3.7398
11
5.69279
21
-3.73916
0
LINE
8
BLACK
6
CONTINUOUS
10
5.69279
20
-3.73916
11
5.69561
21
-3.73353
0
LINE
8
BLACK
6
CONTINUOUS
10
5.69561
20
-3.73353
11
5.69624
21
-3.73282
0
LINE
8
BLACK
6
CONTINUOUS
10
5.69624
20
-3.73282
11
5.69671
21
-3.732
0
LINE
8
BLACK
6
CONTINUOUS
10
5.69671
20
-3.732
11
5.70234
21
-3.72638
0
LINE
8
BLACK
6
CONTINUOUS
10
5.70234
20
-3.72638
11
5.70351
21
-3.7257
0
LINE
8
BLACK
6
CONTINUOUS
10
5.70351
20
-3.7257
11
5.70465
21
-3.72495
0
LINE
8
BLACK
6
CONTINUOUS
10
5.70465
20
-3.72495
11
5.71308
21
-3.72214
0
LINE
8
BLACK
6
CONTINUOUS
10
5.71308
20
-3.72214
11
5.71403
21
-3.72208
0
LINE
8
BLACK
6
CONTINUOUS
10
5.71403
20
-3.72208
11
5.71495
21
-3.72183
0
LINE
8
BLACK
6
CONTINUOUS
10
5.71495
20
-3.72183
11
5.72057
21
-3.72183
0
LINE
8
BLACK
6
CONTINUOUS
10
5.72057
20
-3.72183
11
5.72149
21
-3.72208
0
LINE
8
BLACK
6
CONTINUOUS
10
5.79107
20
-3.72188
11
5.79126
21
-3.72185
0
LINE
8
BLACK
6
CONTINUOUS
10
5.79126
20
-3.72185
11
5.79253
21
-3.72228
0
LINE
8
BLACK
6
CONTINUOUS
10
5.79253
20
-3.72228
11
5.79383
21
-3.72262
0
LINE
8
BLACK
6
CONTINUOUS
10
5.79383
20
-3.72262
11
5.79397
21
-3.72276
0
LINE
8
BLACK
6
CONTINUOUS
10
5.79397
20
-3.72276
11
5.79415
21
-3.72283
0
LINE
8
BLACK
6
CONTINUOUS
10
5.79415
20
-3.72283
11
5.79504
21
-3.72384
0
LINE
8
BLACK
6
CONTINUOUS
10
5.79504
20
-3.72384
11
5.79599
21
-3.72479
0
LINE
8
BLACK
6
CONTINUOUS
10
5.79599
20
-3.72479
11
5.79604
21
-3.72497
0
LINE
8
BLACK
6
CONTINUOUS
10
5.79604
20
-3.72497
11
5.79617
21
-3.72512
0
LINE
8
BLACK
6
CONTINUOUS
10
5.79617
20
-3.72512
11
5.79643
21
-3.72644
0
LINE
8
BLACK
6
CONTINUOUS
10
5.79643
20
-3.72644
11
5.79678
21
-3.72774
0
LINE
8
BLACK
6
CONTINUOUS
10
5.79678
20
-3.72774
11
5.79673
21
-3.72793
0
LINE
8
BLACK
6
CONTINUOUS
10
5.79673
20
-3.72793
11
5.79677
21
-3.72812
0
LINE
8
BLACK
6
CONTINUOUS
10
5.79677
20
-3.72812
11
5.79634
21
-3.72939
0
LINE
8
BLACK
6
CONTINUOUS
10
5.79634
20
-3.72939
11
5.79599
21
-3.73069
0
LINE
8
BLACK
6
CONTINUOUS
10
5.79599
20
-3.73069
11
5.79585
21
-3.73083
0
LINE
8
BLACK
6
CONTINUOUS
10
5.79585
20
-3.73083
11
5.79579
21
-3.73101
0
LINE
8
BLACK
6
CONTINUOUS
10
5.79579
20
-3.73101
11
5.76254
21
-3.78089
0
LINE
8
BLACK
6
CONTINUOUS
10
5.76254
20
-3.78089
11
5.79088
21
-3.78089
0
LINE
8
BLACK
6
CONTINUOUS
10
5.79088
20
-3.78089
11
5.79383
21
-3.78168
0
LINE
8
BLACK
6
CONTINUOUS
10
5.79383
20
-3.78168
11
5.79599
21
-3.78384
0
LINE
8
BLACK
6
CONTINUOUS
10
5.79599
20
-3.78384
11
5.79678
21
-3.78679
0
LINE
8
BLACK
6
CONTINUOUS
10
5.79678
20
-3.78679
11
5.79599
21
-3.78975
0
LINE
8
BLACK
6
CONTINUOUS
10
5.79599
20
-3.78975
11
5.79383
21
-3.79191
0
LINE
8
BLACK
6
CONTINUOUS
10
5.79383
20
-3.79191
11
5.79088
21
-3.7927
0
LINE
8
BLACK
6
CONTINUOUS
10
5.79088
20
-3.7927
11
5.75151
21
-3.7927
0
LINE
8
BLACK
6
CONTINUOUS
10
5.75151
20
-3.7927
11
5.75132
21
-3.79265
0
LINE
8
BLACK
6
CONTINUOUS
10
5.75132
20
-3.79265
11
5.75113
21
-3.79269
0
LINE
8
BLACK
6
CONTINUOUS
10
5.75113
20
-3.79269
11
5.74985
21
-3.79226
0
LINE
8
BLACK
6
CONTINUOUS
10
5.74985
20
-3.79226
11
5.74855
21
-3.79191
0
LINE
8
BLACK
6
CONTINUOUS
10
5.74855
20
-3.79191
11
5.74842
21
-3.79177
0
LINE
8
BLACK
6
CONTINUOUS
10
5.74842
20
-3.79177
11
5.74823
21
-3.79171
0
LINE
8
BLACK
6
CONTINUOUS
10
5.74823
20
-3.79171
11
5.74734
21
-3.7907
0
LINE
8
BLACK
6
CONTINUOUS
10
5.74734
20
-3.7907
11
5.74639
21
-3.78975
0
LINE
8
BLACK
6
CONTINUOUS
10
5.74639
20
-3.78975
11
5.74634
21
-3.78956
0
LINE
8
BLACK
6
CONTINUOUS
10
5.74634
20
-3.78956
11
5.74621
21
-3.78941
0
LINE
8
BLACK
6
CONTINUOUS
10
5.74621
20
-3.78941
11
5.74595
21
-3.78809
0
LINE
8
BLACK
6
CONTINUOUS
10
5.74595
20
-3.78809
11
5.7456
21
-3.78679
0
LINE
8
BLACK
6
CONTINUOUS
10
5.7456
20
-3.78679
11
5.74565
21
-3.78661
0
LINE
8
BLACK
6
CONTINUOUS
10
5.74565
20
-3.78661
11
5.74561
21
-3.78641
0
LINE
8
BLACK
6
CONTINUOUS
10
5.74561
20
-3.78641
11
5.74604
21
-3.78514
0
LINE
8
BLACK
6
CONTINUOUS
10
5.74604
20
-3.78514
11
5.74639
21
-3.78384
0
LINE
8
BLACK
6
CONTINUOUS
10
5.74639
20
-3.78384
11
5.74653
21
-3.7837
0
LINE
8
BLACK
6
CONTINUOUS
10
5.74653
20
-3.7837
11
5.74659
21
-3.78352
0
LINE
8
BLACK
6
CONTINUOUS
10
5.74659
20
-3.78352
11
5.77984
21
-3.73364
0
LINE
8
BLACK
6
CONTINUOUS
10
5.77984
20
-3.73364
11
5.75151
21
-3.73364
0
LINE
8
BLACK
6
CONTINUOUS
10
5.75151
20
-3.73364
11
5.74855
21
-3.73285
0
LINE
8
BLACK
6
CONTINUOUS
10
5.74855
20
-3.73285
11
5.74639
21
-3.73069
0
LINE
8
BLACK
6
CONTINUOUS
10
5.74639
20
-3.73069
11
5.7456
21
-3.72774
0
LINE
8
BLACK
6
CONTINUOUS
10
5.7456
20
-3.72774
11
5.74639
21
-3.72479
0
LINE
8
BLACK
6
CONTINUOUS
10
5.74639
20
-3.72479
11
5.74855
21
-3.72262
0
LINE
8
BLACK
6
CONTINUOUS
10
5.74855
20
-3.72262
11
5.75151
21
-3.72183
0
LINE
8
BLACK
6
CONTINUOUS
10
5.75151
20
-3.72183
11
5.79088
21
-3.72183
0
LINE
8
BLACK
6
CONTINUOUS
10
5.79088
20
-3.72183
11
5.79107
21
-3.72188
0
LINE
8
BLACK
6
CONTINUOUS
10
5.77013
20
-3.61543
11
5.77143
21
-3.61698
0
LINE
8
BLACK
6
CONTINUOUS
10
5.77143
20
-3.61698
11
5.78586
21
-3.65661
0
LINE
8
BLACK
6
CONTINUOUS
10
5.78586
20
-3.65661
11
5.78601
21
-3.65748
0
LINE
8
BLACK
6
CONTINUOUS
10
5.78601
20
-3.65748
11
5.78604
21
-3.65754
0
LINE
8
BLACK
6
CONTINUOUS
10
5.78604
20
-3.65754
11
5.78628
21
-3.66643
0
LINE
8
BLACK
6
CONTINUOUS
10
5.78628
20
-3.66643
11
5.78613
21
-3.66745
0
LINE
8
BLACK
6
CONTINUOUS
10
5.78613
20
-3.66745
11
5.78602
21
-3.66759
0
LINE
8
BLACK
6
CONTINUOUS
10
5.78602
20
-3.66759
11
5.786
21
-3.66776
0
LINE
8
BLACK
6
CONTINUOUS
10
5.786
20
-3.66776
11
5.78264
21
-3.67497
0
LINE
8
BLACK
6
CONTINUOUS
10
5.78264
20
-3.67497
11
5.78205
21
-3.67581
0
LINE
8
BLACK
6
CONTINUOUS
10
5.78205
20
-3.67581
11
5.78189
21
-3.67589
0
LINE
8
BLACK
6
CONTINUOUS
10
5.78189
20
-3.67589
11
5.7818
21
-3.67604
0
LINE
8
BLACK
6
CONTINUOUS
10
5.7818
20
-3.67604
11
5.77484
21
-3.68156
0
LINE
8
BLACK
6
CONTINUOUS
10
5.77484
20
-3.68156
11
5.77406
21
-3.68198
0
LINE
8
BLACK
6
CONTINUOUS
10
5.77406
20
-3.68198
11
5.77401
21
-3.68203
0
LINE
8
BLACK
6
CONTINUOUS
10
5.77401
20
-3.68203
11
5.76872
21
-3.68395
0
LINE
8
BLACK
6
CONTINUOUS
10
5.76872
20
-3.68395
11
5.76771
21
-3.68413
0
LINE
8
BLACK
6
CONTINUOUS
10
5.76771
20
-3.68413
11
5.76582
21
-3.68344
0
LINE
8
BLACK
6
CONTINUOUS
10
5.76582
20
-3.68344
11
5.76481
21
-3.68169
0
LINE
8
BLACK
6
CONTINUOUS
10
5.76481
20
-3.68169
11
5.76516
21
-3.6797
0
LINE
8
BLACK
6
CONTINUOUS
10
5.76516
20
-3.6797
11
5.7667
21
-3.6784
0
LINE
8
BLACK
6
CONTINUOUS
10
5.7667
20
-3.6784
11
5.77154
21
-3.67664
0
LINE
8
BLACK
6
CONTINUOUS
10
5.77154
20
-3.67664
11
5.77758
21
-3.67184
0
LINE
8
BLACK
6
CONTINUOUS
10
5.77758
20
-3.67184
11
5.78036
21
-3.6659
0
LINE
8
BLACK
6
CONTINUOUS
10
5.78036
20
-3.6659
11
5.78015
21
-3.65818
0
LINE
8
BLACK
6
CONTINUOUS
10
5.78015
20
-3.65818
11
5.76588
21
-3.619
0
LINE
8
BLACK
6
CONTINUOUS
10
5.76588
20
-3.619
11
5.7657
21
-3.61799
0
LINE
8
BLACK
6
CONTINUOUS
10
5.7657
20
-3.61799
11
5.7664
21
-3.61609
0
LINE
8
BLACK
6
CONTINUOUS
10
5.7664
20
-3.61609
11
5.76814
21
-3.61508
0
LINE
8
BLACK
6
CONTINUOUS
10
5.76814
20
-3.61508
11
5.77013
21
-3.61543
0
LINE
8
BLACK
6
CONTINUOUS
10
5.82712
20
-3.59399
11
5.82747
21
-3.59395
0
LINE
8
BLACK
6
CONTINUOUS
10
5.82747
20
-3.59395
11
5.82804
21
-3.59433
0
LINE
8
BLACK
6
CONTINUOUS
10
5.82804
20
-3.59433
11
5.82869
21
-3.59456
0
LINE
8
BLACK
6
CONTINUOUS
10
5.82869
20
-3.59456
11
5.82887
21
-3.59487
0
LINE
8
BLACK
6
CONTINUOUS
10
5.82887
20
-3.59487
11
5.82916
21
-3.59506
0
LINE
8
BLACK
6
CONTINUOUS
10
5.82916
20
-3.59506
11
5.82936
21
-3.59572
0
LINE
8
BLACK
6
CONTINUOUS
10
5.82936
20
-3.59572
11
5.8297
21
-3.59631
0
LINE
8
BLACK
6
CONTINUOUS
10
5.8297
20
-3.59631
11
5.82964
21
-3.59666
0
LINE
8
BLACK
6
CONTINUOUS
10
5.82964
20
-3.59666
11
5.82974
21
-3.59699
0
LINE
8
BLACK
6
CONTINUOUS
10
5.82974
20
-3.59699
11
5.82616
21
-3.66114
0
LINE
8
BLACK
6
CONTINUOUS
10
5.82616
20
-3.66114
11
5.82592
21
-3.66214
0
LINE
8
BLACK
6
CONTINUOUS
10
5.82592
20
-3.66214
11
5.82454
21
-3.66361
0
LINE
8
BLACK
6
CONTINUOUS
10
5.82454
20
-3.66361
11
5.82253
21
-3.66385
0
LINE
8
BLACK
6
CONTINUOUS
10
5.82253
20
-3.66385
11
5.82084
21
-3.66275
0
LINE
8
BLACK
6
CONTINUOUS
10
5.82084
20
-3.66275
11
5.82026
21
-3.66081
0
LINE
8
BLACK
6
CONTINUOUS
10
5.82026
20
-3.66081
11
5.8236
21
-3.60113
0
LINE
8
BLACK
6
CONTINUOUS
10
5.8236
20
-3.60113
11
5.79081
21
-3.61307
0
LINE
8
BLACK
6
CONTINUOUS
10
5.79081
20
-3.61307
11
5.7898
21
-3.61324
0
LINE
8
BLACK
6
CONTINUOUS
10
5.7898
20
-3.61324
11
5.7879
21
-3.61255
0
LINE
8
BLACK
6
CONTINUOUS
10
5.7879
20
-3.61255
11
5.78689
21
-3.6108
0
LINE
8
BLACK
6
CONTINUOUS
10
5.78689
20
-3.6108
11
5.78724
21
-3.60882
0
LINE
8
BLACK
6
CONTINUOUS
10
5.78724
20
-3.60882
11
5.78879
21
-3.60752
0
LINE
8
BLACK
6
CONTINUOUS
10
5.78879
20
-3.60752
11
5.82578
21
-3.59405
0
LINE
8
BLACK
6
CONTINUOUS
10
5.82578
20
-3.59405
11
5.82679
21
-3.59387
0
LINE
8
BLACK
6
CONTINUOUS
10
5.82679
20
-3.59387
11
5.82712
21
-3.59399
0
LINE
8
BLACK
6
CONTINUOUS
10
5.8193
20
-3.27739
11
5.82005
21
-3.27752
0
LINE
8
BLACK
6
CONTINUOUS
10
5.82005
20
-3.27752
11
5.82022
21
-3.27773
0
LINE
8
BLACK
6
CONTINUOUS
10
5.82022
20
-3.27773
11
5.82047
21
-3.27782
0
LINE
8
BLACK
6
CONTINUOUS
10
5.82047
20
-3.27782
11
5.82086
21
-3.27848
0
LINE
8
BLACK
6
CONTINUOUS
10
5.82086
20
-3.27848
11
5.82135
21
-3.27907
0
LINE
8
BLACK
6
CONTINUOUS
10
5.82135
20
-3.27907
11
5.91561
21
-3.53804
0
LINE
8
BLACK
6
CONTINUOUS
10
5.91561
20
-3.53804
11
5.91568
21
-3.53842
0
LINE
8
BLACK
6
CONTINUOUS
10
5.91568
20
-3.53842
11
5.91574
21
-3.53854
0
LINE
8
BLACK
6
CONTINUOUS
10
5.91574
20
-3.53854
11
5.91572
21
-3.53867
0
LINE
8
BLACK
6
CONTINUOUS
10
5.91572
20
-3.53867
11
5.91579
21
-3.53905
0
LINE
8
BLACK
6
CONTINUOUS
10
5.91579
20
-3.53905
11
5.91552
21
-3.53977
0
LINE
8
BLACK
6
CONTINUOUS
10
5.91552
20
-3.53977
11
5.91539
21
-3.54053
0
LINE
8
BLACK
6
CONTINUOUS
10
5.91539
20
-3.54053
11
5.91519
21
-3.5407
0
LINE
8
BLACK
6
CONTINUOUS
10
5.91519
20
-3.5407
11
5.9151
21
-3.54095
0
LINE
8
BLACK
6
CONTINUOUS
10
5.9151
20
-3.54095
11
5.91443
21
-3.54133
0
LINE
8
BLACK
6
CONTINUOUS
10
5.91443
20
-3.54133
11
5.91384
21
-3.54182
0
LINE
8
BLACK
6
CONTINUOUS
10
5.91384
20
-3.54182
11
5.65487
21
-3.63608
0
LINE
8
BLACK
6
CONTINUOUS
10
5.65487
20
-3.63608
11
5.65449
21
-3.63615
0
LINE
8
BLACK
6
CONTINUOUS
10
5.65449
20
-3.63615
11
5.65438
21
-3.63621
0
LINE
8
BLACK
6
CONTINUOUS
10
5.65438
20
-3.63621
11
5.65425
21
-3.63619
0
LINE
8
BLACK
6
CONTINUOUS
10
5.65425
20
-3.63619
11
5.65386
21
-3.63626
0
LINE
8
BLACK
6
CONTINUOUS
10
5.65386
20
-3.63626
11
5.65314
21
-3.636
0
LINE
8
BLACK
6
CONTINUOUS
10
5.65314
20
-3.636
11
5.65239
21
-3.63586
0
LINE
8
BLACK
6
CONTINUOUS
10
5.65239
20
-3.63586
11
5.65222
21
-3.63566
0
LINE
8
BLACK
6
CONTINUOUS
10
5.65222
20
-3.63566
11
5.65197
21
-3.63557
0
LINE
8
BLACK
6
CONTINUOUS
10
5.65197
20
-3.63557
11
5.65158
21
-3.6349
0
LINE
8
BLACK
6
CONTINUOUS
10
5.65158
20
-3.6349
11
5.65109
21
-3.63432
0
LINE
8
BLACK
6
CONTINUOUS
10
5.65109
20
-3.63432
11
5.55683
21
-3.37535
0
LINE
8
BLACK
6
CONTINUOUS
10
5.55683
20
-3.37535
11
5.55676
21
-3.37496
0
LINE
8
BLACK
6
CONTINUOUS
10
5.55676
20
-3.37496
11
5.5567
21
-3.37485
0
LINE
8
BLACK
6
CONTINUOUS
10
5.5567
20
-3.37485
11
5.55672
21
-3.37472
0
LINE
8
BLACK
6
CONTINUOUS
10
5.55672
20
-3.37472
11
5.55665
21
-3.37434
0
LINE
8
BLACK
6
CONTINUOUS
10
5.55665
20
-3.37434
11
5.55692
21
-3.37362
0
LINE
8
BLACK
6
CONTINUOUS
10
5.55692
20
-3.37362
11
5.55705
21
-3.37286
0
LINE
8
BLACK
6
CONTINUOUS
10
5.55705
20
-3.37286
11
5.55725
21
-3.37269
0
LINE
8
BLACK
6
CONTINUOUS
10
5.55725
20
-3.37269
11
5.55734
21
-3.37244
0
LINE
8
BLACK
6
CONTINUOUS
10
5.55734
20
-3.37244
11
5.55801
21
-3.37205
0
LINE
8
BLACK
6
CONTINUOUS
10
5.55801
20
-3.37205
11
5.5586
21
-3.37156
0
LINE
8
BLACK
6
CONTINUOUS
10
5.5586
20
-3.37156
11
5.81757
21
-3.2773
0
LINE
8
BLACK
6
CONTINUOUS
10
5.81757
20
-3.2773
11
5.81795
21
-3.27724
0
LINE
8
BLACK
6
CONTINUOUS
10
5.81795
20
-3.27724
11
5.81806
21
-3.27717
0
LINE
8
BLACK
6
CONTINUOUS
10
5.81806
20
-3.27717
11
5.81819
21
-3.27719
0
LINE
8
BLACK
6
CONTINUOUS
10
5.81819
20
-3.27719
11
5.81858
21
-3.27713
0
LINE
8
BLACK
6
CONTINUOUS
10
5.81858
20
-3.27713
11
5.8193
21
-3.27739
0
LINE
8
BLACK
6
CONTINUOUS
10
5.63785
20
-3.58069
11
5.65563
21
-3.62952
0
LINE
8
BLACK
6
CONTINUOUS
10
5.65563
20
-3.62952
11
5.70446
21
-3.61175
0
LINE
8
BLACK
6
CONTINUOUS
10
5.70446
20
-3.61175
11
5.70042
21
-3.60065
0
LINE
8
BLACK
6
CONTINUOUS
10
5.70042
20
-3.60065
11
5.66546
21
-3.61337
0
LINE
8
BLACK
6
CONTINUOUS
10
5.66546
20
-3.61337
11
5.66508
21
-3.61344
0
LINE
8
BLACK
6
CONTINUOUS
10
5.66508
20
-3.61344
11
5.66497
21
-3.61351
0
LINE
8
BLACK
6
CONTINUOUS
10
5.66497
20
-3.61351
11
5.66484
21
-3.61348
0
LINE
8
BLACK
6
CONTINUOUS
10
5.66484
20
-3.61348
11
5.66445
21
-3.61355
0
LINE
8
BLACK
6
CONTINUOUS
10
5.66445
20
-3.61355
11
5.66373
21
-3.61329
0
LINE
8
BLACK
6
CONTINUOUS
10
5.66373
20
-3.61329
11
5.66298
21
-3.61316
0
LINE
8
BLACK
6
CONTINUOUS
10
5.66298
20
-3.61316
11
5.66281
21
-3.61295
0
LINE
8
BLACK
6
CONTINUOUS
10
5.66281
20
-3.61295
11
5.66255
21
-3.61286
0
LINE
8
BLACK
6
CONTINUOUS
10
5.66255
20
-3.61286
11
5.66217
21
-3.6122
0
LINE
8
BLACK
6
CONTINUOUS
10
5.66217
20
-3.6122
11
5.66168
21
-3.61161
0
LINE
8
BLACK
6
CONTINUOUS
10
5.66168
20
-3.61161
11
5.64895
21
-3.57665
0
LINE
8
BLACK
6
CONTINUOUS
10
5.64895
20
-3.57665
11
5.63785
21
-3.58069
0
LINE
8
BLACK
6
CONTINUOUS
10
5.61777
20
-3.35631
11
5.63656
21
-3.40792
0
LINE
8
BLACK
6
CONTINUOUS
10
5.63656
20
-3.40792
11
5.63663
21
-3.4083
0
LINE
8
BLACK
6
CONTINUOUS
10
5.63663
20
-3.4083
11
5.63669
21
-3.40841
0
LINE
8
BLACK
6
CONTINUOUS
10
5.63669
20
-3.40841
11
5.63667
21
-3.40854
0
LINE
8
BLACK
6
CONTINUOUS
10
5.63667
20
-3.40854
11
5.63674
21
-3.40893
0
LINE
8
BLACK
6
CONTINUOUS
10
5.63674
20
-3.40893
11
5.63647
21
-3.40965
0
LINE
8
BLACK
6
CONTINUOUS
10
5.63647
20
-3.40965
11
5.63634
21
-3.4104
0
LINE
8
BLACK
6
CONTINUOUS
10
5.63634
20
-3.4104
11
5.63614
21
-3.41057
0
LINE
8
BLACK
6
CONTINUOUS
10
5.63614
20
-3.41057
11
5.63605
21
-3.41082
0
LINE
8
BLACK
6
CONTINUOUS
10
5.63605
20
-3.41082
11
5.63538
21
-3.41121
0
LINE
8
BLACK
6
CONTINUOUS
10
5.63538
20
-3.41121
11
5.63479
21
-3.4117
0
LINE
8
BLACK
6
CONTINUOUS
10
5.63479
20
-3.4117
11
5.58319
21
-3.43049
0
LINE
8
BLACK
6
CONTINUOUS
10
5.58319
20
-3.43049
11
5.63583
21
-3.57514
0
LINE
8
BLACK
6
CONTINUOUS
10
5.63583
20
-3.57514
11
5.68744
21
-3.55635
0
LINE
8
BLACK
6
CONTINUOUS
10
5.68744
20
-3.55635
11
5.68783
21
-3.55629
0
LINE
8
BLACK
6
CONTINUOUS
10
5.68783
20
-3.55629
11
5.68794
21
-3.55622
0
LINE
8
BLACK
6
CONTINUOUS
10
5.68794
20
-3.55622
11
5.68807
21
-3.55624
0
LINE
8
BLACK
6
CONTINUOUS
10
5.68807
20
-3.55624
11
5.68845
21
-3.55618
0
LINE
8
BLACK
6
CONTINUOUS
10
5.68845
20
-3.55618
11
5.68917
21
-3.55644
0
LINE
8
BLACK
6
CONTINUOUS
10
5.68917
20
-3.55644
11
5.68993
21
-3.55657
0
LINE
8
BLACK
6
CONTINUOUS
10
5.68993
20
-3.55657
11
5.6901
21
-3.55678
0
LINE
8
BLACK
6
CONTINUOUS
10
5.6901
20
-3.55678
11
5.69035
21
-3.55687
0
LINE
8
BLACK
6
CONTINUOUS
10
5.69035
20
-3.55687
11
5.69074
21
-3.55753
0
LINE
8
BLACK
6
CONTINUOUS
10
5.69074
20
-3.55753
11
5.69123
21
-3.55812
0
LINE
8
BLACK
6
CONTINUOUS
10
5.69123
20
-3.55812
11
5.71001
21
-3.60973
0
LINE
8
BLACK
6
CONTINUOUS
10
5.71001
20
-3.60973
11
5.85467
21
-3.55708
0
LINE
8
BLACK
6
CONTINUOUS
10
5.85467
20
-3.55708
11
5.83588
21
-3.50547
0
LINE
8
BLACK
6
CONTINUOUS
10
5.83588
20
-3.50547
11
5.83581
21
-3.50509
0
LINE
8
BLACK
6
CONTINUOUS
10
5.83581
20
-3.50509
11
5.83575
21
-3.50497
0
LINE
8
BLACK
6
CONTINUOUS
10
5.83575
20
-3.50497
11
5.83577
21
-3.50484
0
LINE
8
BLACK
6
CONTINUOUS
10
5.83577
20
-3.50484
11
5.8357
21
-3.50446
0
LINE
8
BLACK
6
CONTINUOUS
10
5.8357
20
-3.50446
11
5.83597
21
-3.50374
0
LINE
8
BLACK
6
CONTINUOUS
10
5.83597
20
-3.50374
11
5.8361
21
-3.50298
0
LINE
8
BLACK
6
CONTINUOUS
10
5.8361
20
-3.50298
11
5.8363
21
-3.50281
0
LINE
8
BLACK
6
CONTINUOUS
10
5.8363
20
-3.50281
11
5.83639
21
-3.50256
0
LINE
8
BLACK
6
CONTINUOUS
10
5.83639
20
-3.50256
11
5.83706
21
-3.50218
0
LINE
8
BLACK
6
CONTINUOUS
10
5.83706
20
-3.50218
11
5.83765
21
-3.50168
0
LINE
8
BLACK
6
CONTINUOUS
10
5.83765
20
-3.50168
11
5.88926
21
-3.4829
0
LINE
8
BLACK
6
CONTINUOUS
10
5.88926
20
-3.4829
11
5.83661
21
-3.33825
0
LINE
8
BLACK
6
CONTINUOUS
10
5.83661
20
-3.33825
11
5.785
21
-3.35703
0
LINE
8
BLACK
6
CONTINUOUS
10
5.785
20
-3.35703
11
5.78461
21
-3.3571
0
LINE
8
BLACK
6
CONTINUOUS
10
5.78461
20
-3.3571
11
5.7845
21
-3.35716
0
LINE
8
BLACK
6
CONTINUOUS
10
5.7845
20
-3.35716
11
5.78437
21
-3.35714
0
LINE
8
BLACK
6
CONTINUOUS
10
5.78437
20
-3.35714
11
5.78399
21
-3.35721
0
LINE
8
BLACK
6
CONTINUOUS
10
5.78399
20
-3.35721
11
5.78327
21
-3.35695
0
LINE
8
BLACK
6
CONTINUOUS
10
5.78327
20
-3.35695
11
5.78251
21
-3.35681
0
LINE
8
BLACK
6
CONTINUOUS
10
5.78251
20
-3.35681
11
5.78234
21
-3.35661
0
LINE
8
BLACK
6
CONTINUOUS
10
5.78234
20
-3.35661
11
5.78209
21
-3.35652
0
LINE
8
BLACK
6
CONTINUOUS
10
5.78209
20
-3.35652
11
5.78171
21
-3.35585
0
LINE
8
BLACK
6
CONTINUOUS
10
5.78171
20
-3.35585
11
5.78121
21
-3.35527
0
LINE
8
BLACK
6
CONTINUOUS
10
5.78121
20
-3.35527
11
5.76243
21
-3.30366
0
LINE
8
BLACK
6
CONTINUOUS
10
5.76243
20
-3.30366
11
5.61777
21
-3.35631
0
LINE
8
BLACK
6
CONTINUOUS
10
5.6545
20
-3.57463
11
5.66622
21
-3.60681
0
LINE
8
BLACK
6
CONTINUOUS
10
5.66622
20
-3.60681
11
5.6984
21
-3.5951
0
LINE
8
BLACK
6
CONTINUOUS
10
5.6984
20
-3.5951
11
5.68669
21
-3.56291
0
LINE
8
BLACK
6
CONTINUOUS
10
5.68669
20
-3.56291
11
5.6545
21
-3.57463
0
LINE
8
BLACK
6
CONTINUOUS
10
5.88018
20
-3.49249
11
5.8929
21
-3.52745
0
LINE
8
BLACK
6
CONTINUOUS
10
5.8929
20
-3.52745
11
5.89297
21
-3.52783
0
LINE
8
BLACK
6
CONTINUOUS
10
5.89297
20
-3.52783
11
5.89303
21
-3.52795
0
LINE
8
BLACK
6
CONTINUOUS
10
5.89303
20
-3.52795
11
5.89301
21
-3.52808
0
LINE
8
BLACK
6
CONTINUOUS
10
5.89301
20
-3.52808
11
5.89308
21
-3.52846
0
LINE
8
BLACK
6
CONTINUOUS
10
5.89308
20
-3.52846
11
5.89282
21
-3.52918
0
LINE
8
BLACK
6
CONTINUOUS
10
5.89282
20
-3.52918
11
5.89268
21
-3.52994
0
LINE
8
BLACK
6
CONTINUOUS
10
5.89268
20
-3.52994
11
5.89248
21
-3.53011
0
LINE
8
BLACK
6
CONTINUOUS
10
5.89248
20
-3.53011
11
5.89239
21
-3.53036
0
LINE
8
BLACK
6
CONTINUOUS
10
5.89239
20
-3.53036
11
5.89172
21
-3.53074
0
LINE
8
BLACK
6
CONTINUOUS
10
5.89172
20
-3.53074
11
5.89114
21
-3.53124
0
LINE
8
BLACK
6
CONTINUOUS
10
5.89114
20
-3.53124
11
5.85618
21
-3.54396
0
LINE
8
BLACK
6
CONTINUOUS
10
5.85618
20
-3.54396
11
5.86022
21
-3.55506
0
LINE
8
BLACK
6
CONTINUOUS
10
5.86022
20
-3.55506
11
5.90905
21
-3.53728
0
LINE
8
BLACK
6
CONTINUOUS
10
5.90905
20
-3.53728
11
5.89128
21
-3.48845
0
LINE
8
BLACK
6
CONTINUOUS
10
5.89128
20
-3.48845
11
5.88018
21
-3.49249
0
LINE
8
BLACK
6
CONTINUOUS
10
5.84244
20
-3.50622
11
5.85416
21
-3.53841
0
LINE
8
BLACK
6
CONTINUOUS
10
5.85416
20
-3.53841
11
5.88634
21
-3.5267
0
LINE
8
BLACK
6
CONTINUOUS
10
5.88634
20
-3.5267
11
5.87463
21
-3.49451
0
LINE
8
BLACK
6
CONTINUOUS
10
5.87463
20
-3.49451
11
5.84244
21
-3.50622
0
LINE
8
BLACK
6
CONTINUOUS
10
5.56339
20
-3.3761
11
5.58117
21
-3.42494
0
LINE
8
BLACK
6
CONTINUOUS
10
5.58117
20
-3.42494
11
5.59226
21
-3.4209
0
LINE
8
BLACK
6
CONTINUOUS
10
5.59226
20
-3.4209
11
5.57954
21
-3.38594
0
LINE
8
BLACK
6
CONTINUOUS
10
5.57954
20
-3.38594
11
5.57947
21
-3.38555
0
LINE
8
BLACK
6
CONTINUOUS
10
5.57947
20
-3.38555
11
5.57941
21
-3.38544
0
LINE
8
BLACK
6
CONTINUOUS
10
5.57941
20
-3.38544
11
5.57943
21
-3.38531
0
LINE
8
BLACK
6
CONTINUOUS
10
5.57943
20
-3.38531
11
5.57936
21
-3.38493
0
LINE
8
BLACK
6
CONTINUOUS
10
5.57936
20
-3.38493
11
5.57962
21
-3.3842
0
LINE
8
BLACK
6
CONTINUOUS
10
5.57962
20
-3.3842
11
5.57976
21
-3.38345
0
LINE
8
BLACK
6
CONTINUOUS
10
5.57976
20
-3.38345
11
5.57996
21
-3.38328
0
LINE
8
BLACK
6
CONTINUOUS
10
5.57996
20
-3.38328
11
5.58005
21
-3.38303
0
LINE
8
BLACK
6
CONTINUOUS
10
5.58005
20
-3.38303
11
5.58072
21
-3.38264
0
LINE
8
BLACK
6
CONTINUOUS
10
5.58072
20
-3.38264
11
5.5813
21
-3.38215
0
LINE
8
BLACK
6
CONTINUOUS
10
5.5813
20
-3.38215
11
5.61627
21
-3.36943
0
LINE
8
BLACK
6
CONTINUOUS
10
5.61627
20
-3.36943
11
5.61223
21
-3.35833
0
LINE
8
BLACK
6
CONTINUOUS
10
5.61223
20
-3.35833
11
5.56339
21
-3.3761
0
LINE
8
BLACK
6
CONTINUOUS
10
5.5861
20
-3.38669
11
5.59781
21
-3.41888
0
LINE
8
BLACK
6
CONTINUOUS
10
5.59781
20
-3.41888
11
5.63
21
-3.40716
0
LINE
8
BLACK
6
CONTINUOUS
10
5.63
20
-3.40716
11
5.61828
21
-3.37498
0
LINE
8
BLACK
6
CONTINUOUS
10
5.61828
20
-3.37498
11
5.5861
21
-3.38669
0
LINE
8
BLACK
6
CONTINUOUS
10
5.77404
20
-3.31829
11
5.78575
21
-3.35047
0
LINE
8
BLACK
6
CONTINUOUS
10
5.78575
20
-3.35047
11
5.81794
21
-3.33876
0
LINE
8
BLACK
6
CONTINUOUS
10
5.81794
20
-3.33876
11
5.80622
21
-3.30657
0
LINE
8
BLACK
6
CONTINUOUS
10
5.80622
20
-3.30657
11
5.77404
21
-3.31829
0
LINE
8
BLACK
6
CONTINUOUS
10
5.76798
20
-3.30164
11
5.77202
21
-3.31274
0
LINE
8
BLACK
6
CONTINUOUS
10
5.77202
20
-3.31274
11
5.80698
21
-3.30001
0
LINE
8
BLACK
6
CONTINUOUS
10
5.80698
20
-3.30001
11
5.80736
21
-3.29994
0
LINE
8
BLACK
6
CONTINUOUS
10
5.80736
20
-3.29994
11
5.80748
21
-3.29988
0
LINE
8
BLACK
6
CONTINUOUS
10
5.80748
20
-3.29988
11
5.8076
21
-3.2999
0
LINE
8
BLACK
6
CONTINUOUS
10
5.8076
20
-3.2999
11
5.80799
21
-3.29983
0
LINE
8
BLACK
6
CONTINUOUS
10
5.80799
20
-3.29983
11
5.80871
21
-3.3001
0
LINE
8
BLACK
6
CONTINUOUS
10
5.80871
20
-3.3001
11
5.80946
21
-3.30023
0
LINE
8
BLACK
6
CONTINUOUS
10
5.80946
20
-3.30023
11
5.80964
21
-3.30043
0
LINE
8
BLACK
6
CONTINUOUS
10
5.80964
20
-3.30043
11
5.80989
21
-3.30052
0
LINE
8
BLACK
6
CONTINUOUS
10
5.80989
20
-3.30052
11
5.81027
21
-3.30119
0
LINE
8
BLACK
6
CONTINUOUS
10
5.81027
20
-3.30119
11
5.81076
21
-3.30178
0
LINE
8
BLACK
6
CONTINUOUS
10
5.81076
20
-3.30178
11
5.82349
21
-3.33674
0
LINE
8
BLACK
6
CONTINUOUS
10
5.82349
20
-3.33674
11
5.83459
21
-3.3327
0
LINE
8
BLACK
6
CONTINUOUS
10
5.83459
20
-3.3327
11
5.81681
21
-3.28386
0
LINE
8
BLACK
6
CONTINUOUS
10
5.81681
20
-3.28386
11
5.76798
21
-3.30164
0
LINE
8
BLACK
6
CONTINUOUS
10
5.65112
20
-3.43389
11
5.65482
21
-3.42298
0
LINE
8
BLACK
6
CONTINUOUS
10
5.65482
20
-3.42298
11
5.65992
21
-3.41264
0
LINE
8
BLACK
6
CONTINUOUS
10
5.65992
20
-3.41264
11
5.66632
21
-3.40306
0
LINE
8
BLACK
6
CONTINUOUS
10
5.66632
20
-3.40306
11
5.67392
21
-3.3944
0
LINE
8
BLACK
6
CONTINUOUS
10
5.67392
20
-3.3944
11
5.68259
21
-3.3868
0
LINE
8
BLACK
6
CONTINUOUS
10
5.68259
20
-3.3868
11
5.69217
21
-3.38039
0
LINE
8
BLACK
6
CONTINUOUS
10
5.69217
20
-3.38039
11
5.70251
21
-3.3753
0
LINE
8
BLACK
6
CONTINUOUS
10
5.70251
20
-3.3753
11
5.71342
21
-3.37159
0
LINE
8
BLACK
6
CONTINUOUS
10
5.71342
20
-3.37159
11
5.72472
21
-3.36934
0
LINE
8
BLACK
6
CONTINUOUS
10
5.72472
20
-3.36934
11
5.73622
21
-3.36859
0
LINE
8
BLACK
6
CONTINUOUS
10
5.73622
20
-3.36859
11
5.74772
21
-3.36934
0
LINE
8
BLACK
6
CONTINUOUS
10
5.74772
20
-3.36934
11
5.75902
21
-3.37159
0
LINE
8
BLACK
6
CONTINUOUS
10
5.75902
20
-3.37159
11
5.76994
21
-3.3753
0
LINE
8
BLACK
6
CONTINUOUS
10
5.76994
20
-3.3753
11
5.78027
21
-3.38039
0
LINE
8
BLACK
6
CONTINUOUS
10
5.78027
20
-3.38039
11
5.78985
21
-3.3868
0
LINE
8
BLACK
6
CONTINUOUS
10
5.78985
20
-3.3868
11
5.79852
21
-3.3944
0
LINE
8
BLACK
6
CONTINUOUS
10
5.79852
20
-3.3944
11
5.80612
21
-3.40306
0
LINE
8
BLACK
6
CONTINUOUS
10
5.80612
20
-3.40306
11
5.81252
21
-3.41264
0
LINE
8
BLACK
6
CONTINUOUS
10
5.81252
20
-3.41264
11
5.81762
21
-3.42298
0
LINE
8
BLACK
6
CONTINUOUS
10
5.81762
20
-3.42298
11
5.82132
21
-3.43389
0
LINE
8
BLACK
6
CONTINUOUS
10
5.82132
20
-3.43389
11
5.82357
21
-3.44519
0
LINE
8
BLACK
6
CONTINUOUS
10
5.82357
20
-3.44519
11
5.82432
21
-3.45669
0
LINE
8
BLACK
6
CONTINUOUS
10
5.82432
20
-3.45669
11
5.82357
21
-3.46819
0
LINE
8
BLACK
6
CONTINUOUS
10
5.82357
20
-3.46819
11
5.82132
21
-3.4795
0
LINE
8
BLACK
6
CONTINUOUS
10
5.82132
20
-3.4795
11
5.81762
21
-3.49041
0
LINE
8
BLACK
6
CONTINUOUS
10
5.81762
20
-3.49041
11
5.81252
21
-3.50074
0
LINE
8
BLACK
6
CONTINUOUS
10
5.81252
20
-3.50074
11
5.80612
21
-3.51033
0
LINE
8
BLACK
6
CONTINUOUS
10
5.80612
20
-3.51033
11
5.79852
21
-3.51899
0
LINE
8
BLACK
6
CONTINUOUS
10
5.79852
20
-3.51899
11
5.78985
21
-3.52659
0
LINE
8
BLACK
6
CONTINUOUS
10
5.78985
20
-3.52659
11
5.78027
21
-3.53299
0
LINE
8
BLACK
6
CONTINUOUS
10
5.78027
20
-3.53299
11
5.76994
21
-3.53809
0
LINE
8
BLACK
6
CONTINUOUS
10
5.76994
20
-3.53809
11
5.75902
21
-3.54179
0
LINE
8
BLACK
6
CONTINUOUS
10
5.75902
20
-3.54179
11
5.74772
21
-3.54404
0
LINE
8
BLACK
6
CONTINUOUS
10
5.74772
20
-3.54404
11
5.73622
21
-3.5448
0
LINE
8
BLACK
6
CONTINUOUS
10
5.73622
20
-3.5448
11
5.72472
21
-3.54404
0
LINE
8
BLACK
6
CONTINUOUS
10
5.72472
20
-3.54404
11
5.71342
21
-3.54179
0
LINE
8
BLACK
6
CONTINUOUS
10
5.71342
20
-3.54179
11
5.70251
21
-3.53809
0
LINE
8
BLACK
6
CONTINUOUS
10
5.70251
20
-3.53809
11
5.69217
21
-3.53299
0
LINE
8
BLACK
6
CONTINUOUS
10
5.69217
20
-3.53299
11
5.68259
21
-3.52659
0
LINE
8
BLACK
6
CONTINUOUS
10
5.68259
20
-3.52659
11
5.67392
21
-3.51899
0
LINE
8
BLACK
6
CONTINUOUS
10
5.67392
20
-3.51899
11
5.66632
21
-3.51033
0
LINE
8
BLACK
6
CONTINUOUS
10
5.66632
20
-3.51033
11
5.65992
21
-3.50074
0
LINE
8
BLACK
6
CONTINUOUS
10
5.65992
20
-3.50074
11
5.65482
21
-3.49041
0
LINE
8
BLACK
6
CONTINUOUS
10
5.65482
20
-3.49041
11
5.65112
21
-3.4795
0
LINE
8
BLACK
6
CONTINUOUS
10
5.65112
20
-3.4795
11
5.64887
21
-3.46819
0
LINE
8
BLACK
6
CONTINUOUS
10
5.64887
20
-3.46819
11
5.64812
21
-3.45669
0
LINE
8
BLACK
6
CONTINUOUS
10
5.64812
20
-3.45669
11
5.64817
21
-3.45583
0
LINE
8
BLACK
6
CONTINUOUS
10
5.64817
20
-3.45583
11
5.64887
21
-3.44519
0
LINE
8
BLACK
6
CONTINUOUS
10
5.64887
20
-3.44519
11
5.65112
21
-3.43389
0
LINE
8
BLACK
6
CONTINUOUS
10
5.65664
20
-3.47802
11
5.66027
21
-3.48862
0
LINE
8
BLACK
6
CONTINUOUS
10
5.66027
20
-3.48862
11
5.6653
21
-3.49863
0
LINE
8
BLACK
6
CONTINUOUS
10
5.6653
20
-3.49863
11
5.67165
21
-3.50787
0
LINE
8
BLACK
6
CONTINUOUS
10
5.67165
20
-3.50787
11
5.6792
21
-3.51616
0
LINE
8
BLACK
6
CONTINUOUS
10
5.6792
20
-3.51616
11
5.68779
21
-3.52335
0
LINE
8
BLACK
6
CONTINUOUS
10
5.68779
20
-3.52335
11
5.69729
21
-3.5293
0
LINE
8
BLACK
6
CONTINUOUS
10
5.69729
20
-3.5293
11
5.7075
21
-3.53391
0
LINE
8
BLACK
6
CONTINUOUS
10
5.7075
20
-3.53391
11
5.71825
21
-3.5371
0
LINE
8
BLACK
6
CONTINUOUS
10
5.71825
20
-3.5371
11
5.72933
21
-3.53879
0
LINE
8
BLACK
6
CONTINUOUS
10
5.72933
20
-3.53879
11
5.74053
21
-3.53897
0
LINE
8
BLACK
6
CONTINUOUS
10
5.74053
20
-3.53897
11
5.75166
21
-3.53762
0
LINE
8
BLACK
6
CONTINUOUS
10
5.75166
20
-3.53762
11
5.7625
21
-3.53478
0
LINE
8
BLACK
6
CONTINUOUS
10
5.7625
20
-3.53478
11
5.77285
21
-3.53049
0
LINE
8
BLACK
6
CONTINUOUS
10
5.77285
20
-3.53049
11
5.78253
21
-3.52484
0
LINE
8
BLACK
6
CONTINUOUS
10
5.78253
20
-3.52484
11
5.79135
21
-3.51792
0
LINE
8
BLACK
6
CONTINUOUS
10
5.79135
20
-3.51792
11
5.79915
21
-3.50987
0
LINE
8
BLACK
6
CONTINUOUS
10
5.79915
20
-3.50987
11
5.80578
21
-3.50084
0
LINE
8
BLACK
6
CONTINUOUS
10
5.80578
20
-3.50084
11
5.81113
21
-3.49099
0
LINE
8
BLACK
6
CONTINUOUS
10
5.81113
20
-3.49099
11
5.81509
21
-3.48051
0
LINE
8
BLACK
6
CONTINUOUS
10
5.81509
20
-3.48051
11
5.8176
21
-3.46958
0
LINE
8
BLACK
6
CONTINUOUS
10
5.8176
20
-3.46958
11
5.81859
21
-3.45842
0
LINE
8
BLACK
6
CONTINUOUS
10
5.81859
20
-3.45842
11
5.81861
21
-3.45669
0
LINE
8
BLACK
6
CONTINUOUS
10
5.81861
20
-3.45669
11
5.81785
21
-3.44551
0
LINE
8
BLACK
6
CONTINUOUS
10
5.81785
20
-3.44551
11
5.81557
21
-3.43454
0
LINE
8
BLACK
6
CONTINUOUS
10
5.81557
20
-3.43454
11
5.81183
21
-3.42397
0
LINE
8
BLACK
6
CONTINUOUS
10
5.81183
20
-3.42397
11
5.80669
21
-3.41401
0
LINE
8
BLACK
6
CONTINUOUS
10
5.80669
20
-3.41401
11
5.80025
21
-3.40484
0
LINE
8
BLACK
6
CONTINUOUS
10
5.80025
20
-3.40484
11
5.79262
21
-3.39663
0
LINE
8
BLACK
6
CONTINUOUS
10
5.79262
20
-3.39663
11
5.78395
21
-3.38954
0
LINE
8
BLACK
6
CONTINUOUS
10
5.78395
20
-3.38954
11
5.77439
21
-3.38368
0
LINE
8
BLACK
6
CONTINUOUS
10
5.77439
20
-3.38368
11
5.76413
21
-3.37917
0
LINE
8
BLACK
6
CONTINUOUS
10
5.76413
20
-3.37917
11
5.75335
21
-3.3761
0
LINE
8
BLACK
6
CONTINUOUS
10
5.75335
20
-3.3761
11
5.74225
21
-3.37453
0
LINE
8
BLACK
6
CONTINUOUS
10
5.74225
20
-3.37453
11
5.73105
21
-3.37447
0
LINE
8
BLACK
6
CONTINUOUS
10
5.73105
20
-3.37447
11
5.71994
21
-3.37593
0
LINE
8
BLACK
6
CONTINUOUS
10
5.71994
20
-3.37593
11
5.70913
21
-3.37889
0
LINE
8
BLACK
6
CONTINUOUS
10
5.70913
20
-3.37889
11
5.69882
21
-3.38328
0
LINE
8
BLACK
6
CONTINUOUS
10
5.69882
20
-3.38328
11
5.6892
21
-3.38904
0
LINE
8
BLACK
6
CONTINUOUS
10
5.6892
20
-3.38904
11
5.68045
21
-3.39605
0
LINE
8
BLACK
6
CONTINUOUS
10
5.68045
20
-3.39605
11
5.67274
21
-3.40418
0
LINE
8
BLACK
6
CONTINUOUS
10
5.67274
20
-3.40418
11
5.6662
21
-3.41328
0
LINE
8
BLACK
6
CONTINUOUS
10
5.6662
20
-3.41328
11
5.66095
21
-3.42318
0
LINE
8
BLACK
6
CONTINUOUS
10
5.66095
20
-3.42318
11
5.6571
21
-3.43371
0
LINE
8
BLACK
6
CONTINUOUS
10
5.6571
20
-3.43371
11
5.65472
21
-3.44466
0
LINE
8
BLACK
6
CONTINUOUS
10
5.65472
20
-3.44466
11
5.65384
21
-3.45583
0
LINE
8
BLACK
6
CONTINUOUS
10
5.65384
20
-3.45583
11
5.65448
21
-3.46702
0
LINE
8
BLACK
6
CONTINUOUS
10
5.65448
20
-3.46702
11
5.65664
21
-3.47802
0
LINE
8
BLACK
6
CONTINUOUS
10
6.03494
20
-3.42554
11
6.03563
21
-3.42744
0
LINE
8
BLACK
6
CONTINUOUS
10
6.03563
20
-3.42744
11
6.03563
21
-3.51744
0
LINE
8
BLACK
6
CONTINUOUS
10
6.03563
20
-3.51744
11
6.03545
21
-3.51845
0
LINE
8
BLACK
6
CONTINUOUS
10
6.03545
20
-3.51845
11
6.03415
21
-3.52
0
LINE
8
BLACK
6
CONTINUOUS
10
6.03415
20
-3.52
11
6.03216
21
-3.52035
0
LINE
8
BLACK
6
CONTINUOUS
10
6.03216
20
-3.52035
11
6.03042
21
-3.51934
0
LINE
8
BLACK
6
CONTINUOUS
10
6.03042
20
-3.51934
11
6.02972
21
-3.51744
0
LINE
8
BLACK
6
CONTINUOUS
10
6.02972
20
-3.51744
11
6.02972
21
-3.42744
0
LINE
8
BLACK
6
CONTINUOUS
10
6.02972
20
-3.42744
11
6.0299
21
-3.42643
0
LINE
8
BLACK
6
CONTINUOUS
10
6.0299
20
-3.42643
11
6.0312
21
-3.42488
0
LINE
8
BLACK
6
CONTINUOUS
10
6.0312
20
-3.42488
11
6.03319
21
-3.42453
0
LINE
8
BLACK
6
CONTINUOUS
10
6.03319
20
-3.42453
11
6.03494
21
-3.42554
0
LINE
8
BLACK
6
CONTINUOUS
10
5.10187
20
-3.42161
11
5.10256
21
-3.4235
0
LINE
8
BLACK
6
CONTINUOUS
10
5.10256
20
-3.4235
11
5.10256
21
-3.5135
0
LINE
8
BLACK
6
CONTINUOUS
10
5.10256
20
-3.5135
11
5.10238
21
-3.51451
0
LINE
8
BLACK
6
CONTINUOUS
10
5.10238
20
-3.51451
11
5.10108
21
-3.51606
0
LINE
8
BLACK
6
CONTINUOUS
10
5.10108
20
-3.51606
11
5.09909
21
-3.51641
0
LINE
8
BLACK
6
CONTINUOUS
10
5.09909
20
-3.51641
11
5.09734
21
-3.5154
0
LINE
8
BLACK
6
CONTINUOUS
10
5.09734
20
-3.5154
11
5.09665
21
-3.5135
0
LINE
8
BLACK
6
CONTINUOUS
10
5.09665
20
-3.5135
11
5.09665
21
-3.4235
0
LINE
8
BLACK
6
CONTINUOUS
10
5.09665
20
-3.4235
11
5.09683
21
-3.42249
0
LINE
8
BLACK
6
CONTINUOUS
10
5.09683
20
-3.42249
11
5.09813
21
-3.42095
0
LINE
8
BLACK
6
CONTINUOUS
10
5.09813
20
-3.42095
11
5.10012
21
-3.4206
0
LINE
8
BLACK
6
CONTINUOUS
10
5.10012
20
-3.4206
11
5.10187
21
-3.42161
0
LINE
8
BLACK
6
CONTINUOUS
10
6.00919
20
-3.36368
11
6.01052
21
-3.36395
0
LINE
8
BLACK
6
CONTINUOUS
10
6.01052
20
-3.36395
11
6.01614
21
-3.36677
0
LINE
8
BLACK
6
CONTINUOUS
10
6.01614
20
-3.36677
11
6.01685
21
-3.3674
0
LINE
8
BLACK
6
CONTINUOUS
10
6.01685
20
-3.3674
11
6.01767
21
-3.36787
0
LINE
8
BLACK
6
CONTINUOUS
10
6.01767
20
-3.36787
11
6.02049
21
-3.37068
0
LINE
8
BLACK
6
CONTINUOUS
10
6.02049
20
-3.37068
11
6.02096
21
-3.37151
0
LINE
8
BLACK
6
CONTINUOUS
10
6.02096
20
-3.37151
11
6.02159
21
-3.37222
0
LINE
8
BLACK
6
CONTINUOUS
10
6.02159
20
-3.37222
11
6.0244
21
-3.37784
0
LINE
8
BLACK
6
CONTINUOUS
10
6.0244
20
-3.37784
11
6.02468
21
-3.37917
0
LINE
8
BLACK
6
CONTINUOUS
10
6.02468
20
-3.37917
11
6.02503
21
-3.38048
0
LINE
8
BLACK
6
CONTINUOUS
10
6.02503
20
-3.38048
11
6.02503
21
-3.38611
0
LINE
8
BLACK
6
CONTINUOUS
10
6.02503
20
-3.38611
11
6.02478
21
-3.38703
0
LINE
8
BLACK
6
CONTINUOUS
10
6.02478
20
-3.38703
11
6.02473
21
-3.38798
0
LINE
8
BLACK
6
CONTINUOUS
10
6.02473
20
-3.38798
11
6.02191
21
-3.39641
0
LINE
8
BLACK
6
CONTINUOUS
10
6.02191
20
-3.39641
11
6.02116
21
-3.39754
0
LINE
8
BLACK
6
CONTINUOUS
10
6.02116
20
-3.39754
11
6.02049
21
-3.39872
0
LINE
8
BLACK
6
CONTINUOUS
10
6.02049
20
-3.39872
11
5.99682
21
-3.42238
0
LINE
8
BLACK
6
CONTINUOUS
10
5.99682
20
-3.42238
11
6.01912
21
-3.42238
0
LINE
8
BLACK
6
CONTINUOUS
10
6.01912
20
-3.42238
11
6.02208
21
-3.42318
0
LINE
8
BLACK
6
CONTINUOUS
10
6.02208
20
-3.42318
11
6.02424
21
-3.42534
0
LINE
8
BLACK
6
CONTINUOUS
10
6.02424
20
-3.42534
11
6.02503
21
-3.42829
0
LINE
8
BLACK
6
CONTINUOUS
10
6.02503
20
-3.42829
11
6.02424
21
-3.43124
0
LINE
8
BLACK
6
CONTINUOUS
10
6.02424
20
-3.43124
11
6.02208
21
-3.4334
0
LINE
8
BLACK
6
CONTINUOUS
10
6.02208
20
-3.4334
11
6.01912
21
-3.4342
0
LINE
8
BLACK
6
CONTINUOUS
10
6.01912
20
-3.4342
11
5.98256
21
-3.4342
0
LINE
8
BLACK
6
CONTINUOUS
10
5.98256
20
-3.4342
11
5.98181
21
-3.43399
0
LINE
8
BLACK
6
CONTINUOUS
10
5.98181
20
-3.43399
11
5.98104
21
-3.43399
0
LINE
8
BLACK
6
CONTINUOUS
10
5.98104
20
-3.43399
11
5.98036
21
-3.43361
0
LINE
8
BLACK
6
CONTINUOUS
10
5.98036
20
-3.43361
11
5.97961
21
-3.4334
0
LINE
8
BLACK
6
CONTINUOUS
10
5.97961
20
-3.4334
11
5.97906
21
-3.43285
0
LINE
8
BLACK
6
CONTINUOUS
10
5.97906
20
-3.43285
11
5.97839
21
-3.43247
0
LINE
8
BLACK
6
CONTINUOUS
10
5.97839
20
-3.43247
11
5.978
21
-3.43179
0
LINE
8
BLACK
6
CONTINUOUS
10
5.978
20
-3.43179
11
5.97745
21
-3.43124
0
LINE
8
BLACK
6
CONTINUOUS
10
5.97745
20
-3.43124
11
5.97725
21
-3.43049
0
LINE
8
BLACK
6
CONTINUOUS
10
5.97725
20
-3.43049
11
5.97686
21
-3.42982
0
LINE
8
BLACK
6
CONTINUOUS
10
5.97686
20
-3.42982
11
5.97686
21
-3.42904
0
LINE
8
BLACK
6
CONTINUOUS
10
5.97686
20
-3.42904
11
5.97666
21
-3.42829
0
LINE
8
BLACK
6
CONTINUOUS
10
5.97666
20
-3.42829
11
5.97686
21
-3.42754
0
LINE
8
BLACK
6
CONTINUOUS
10
5.97686
20
-3.42754
11
5.97686
21
-3.42676
0
LINE
8
BLACK
6
CONTINUOUS
10
5.97686
20
-3.42676
11
5.97725
21
-3.42609
0
LINE
8
BLACK
6
CONTINUOUS
10
5.97725
20
-3.42609
11
5.97745
21
-3.42534
0
LINE
8
BLACK
6
CONTINUOUS
10
5.97745
20
-3.42534
11
5.978
21
-3.42479
0
LINE
8
BLACK
6
CONTINUOUS
10
5.978
20
-3.42479
11
5.97839
21
-3.42411
0
LINE
8
BLACK
6
CONTINUOUS
10
5.97839
20
-3.42411
11
6.01115
21
-3.39135
0
LINE
8
BLACK
6
CONTINUOUS
10
6.01115
20
-3.39135
11
6.01322
21
-3.38515
0
LINE
8
BLACK
6
CONTINUOUS
10
6.01322
20
-3.38515
11
6.01322
21
-3.38188
0
LINE
8
BLACK
6
CONTINUOUS
10
6.01322
20
-3.38188
11
6.01146
21
-3.37836
0
LINE
8
BLACK
6
CONTINUOUS
10
6.01146
20
-3.37836
11
6.01
21
-3.3769
0
LINE
8
BLACK
6
CONTINUOUS
10
6.01
20
-3.3769
11
6.00648
21
-3.37514
0
LINE
8
BLACK
6
CONTINUOUS
10
6.00648
20
-3.37514
11
5.99521
21
-3.37514
0
LINE
8
BLACK
6
CONTINUOUS
10
5.99521
20
-3.37514
11
5.99169
21
-3.3769
0
LINE
8
BLACK
6
CONTINUOUS
10
5.99169
20
-3.3769
11
5.98955
21
-3.37904
0
LINE
8
BLACK
6
CONTINUOUS
10
5.98955
20
-3.37904
11
5.98691
21
-3.38056
0
LINE
8
BLACK
6
CONTINUOUS
10
5.98691
20
-3.38056
11
5.98385
21
-3.38056
0
LINE
8
BLACK
6
CONTINUOUS
10
5.98385
20
-3.38056
11
5.9812
21
-3.37904
0
LINE
8
BLACK
6
CONTINUOUS
10
5.9812
20
-3.37904
11
5.97967
21
-3.37639
0
LINE
8
BLACK
6
CONTINUOUS
10
5.97967
20
-3.37639
11
5.97967
21
-3.37333
0
LINE
8
BLACK
6
CONTINUOUS
10
5.97967
20
-3.37333
11
5.9812
21
-3.37068
0
LINE
8
BLACK
6
CONTINUOUS
10
5.9812
20
-3.37068
11
5.98401
21
-3.36787
0
LINE
8
BLACK
6
CONTINUOUS
10
5.98401
20
-3.36787
11
5.98484
21
-3.3674
0
LINE
8
BLACK
6
CONTINUOUS
10
5.98484
20
-3.3674
11
5.98555
21
-3.36677
0
LINE
8
BLACK
6
CONTINUOUS
10
5.98555
20
-3.36677
11
5.99117
21
-3.36395
0
LINE
8
BLACK
6
CONTINUOUS
10
5.99117
20
-3.36395
11
5.9925
21
-3.36368
0
LINE
8
BLACK
6
CONTINUOUS
10
5.9925
20
-3.36368
11
5.99381
21
-3.36333
0
LINE
8
BLACK
6
CONTINUOUS
10
5.99381
20
-3.36333
11
6.00787
21
-3.36333
0
LINE
8
BLACK
6
CONTINUOUS
10
6.00787
20
-3.36333
11
6.00919
21
-3.36368
0
LINE
8
BLACK
6
CONTINUOUS
10
6.17791
20
-3.36368
11
6.17924
21
-3.36395
0
LINE
8
BLACK
6
CONTINUOUS
10
6.17924
20
-3.36395
11
6.18487
21
-3.36677
0
LINE
8
BLACK
6
CONTINUOUS
10
6.18487
20
-3.36677
11
6.18558
21
-3.3674
0
LINE
8
BLACK
6
CONTINUOUS
10
6.18558
20
-3.3674
11
6.1864
21
-3.36787
0
LINE
8
BLACK
6
CONTINUOUS
10
6.1864
20
-3.36787
11
6.18922
21
-3.37068
0
LINE
8
BLACK
6
CONTINUOUS
10
6.18922
20
-3.37068
11
6.18969
21
-3.37151
0
LINE
8
BLACK
6
CONTINUOUS
10
6.18969
20
-3.37151
11
6.19032
21
-3.37222
0
LINE
8
BLACK
6
CONTINUOUS
10
6.19032
20
-3.37222
11
6.19313
21
-3.37784
0
LINE
8
BLACK
6
CONTINUOUS
10
6.19313
20
-3.37784
11
6.19341
21
-3.37917
0
LINE
8
BLACK
6
CONTINUOUS
10
6.19341
20
-3.37917
11
6.19376
21
-3.38048
0
LINE
8
BLACK
6
CONTINUOUS
10
6.19376
20
-3.38048
11
6.19376
21
-3.38611
0
LINE
8
BLACK
6
CONTINUOUS
10
6.19376
20
-3.38611
11
6.19351
21
-3.38703
0
LINE
8
BLACK
6
CONTINUOUS
10
6.19351
20
-3.38703
11
6.19345
21
-3.38798
0
LINE
8
BLACK
6
CONTINUOUS
10
6.19345
20
-3.38798
11
6.19064
21
-3.39641
0
LINE
8
BLACK
6
CONTINUOUS
10
6.19064
20
-3.39641
11
6.18989
21
-3.39754
0
LINE
8
BLACK
6
CONTINUOUS
10
6.18989
20
-3.39754
11
6.18922
21
-3.39872
0
LINE
8
BLACK
6
CONTINUOUS
10
6.18922
20
-3.39872
11
6.16555
21
-3.42238
0
LINE
8
BLACK
6
CONTINUOUS
10
6.16555
20
-3.42238
11
6.18785
21
-3.42238
0
LINE
8
BLACK
6
CONTINUOUS
10
6.18785
20
-3.42238
11
6.1908
21
-3.42318
0
LINE
8
BLACK
6
CONTINUOUS
10
6.1908
20
-3.42318
11
6.19297
21
-3.42534
0
LINE
8
BLACK
6
CONTINUOUS
10
6.19297
20
-3.42534
11
6.19376
21
-3.42829
0
LINE
8
BLACK
6
CONTINUOUS
10
6.19376
20
-3.42829
11
6.19297
21
-3.43124
0
LINE
8
BLACK
6
CONTINUOUS
10
6.19297
20
-3.43124
11
6.1908
21
-3.4334
0
LINE
8
BLACK
6
CONTINUOUS
10
6.1908
20
-3.4334
11
6.18785
21
-3.4342
0
LINE
8
BLACK
6
CONTINUOUS
10
6.18785
20
-3.4342
11
6.15129
21
-3.4342
0
LINE
8
BLACK
6
CONTINUOUS
10
6.15129
20
-3.4342
11
6.15054
21
-3.43399
0
LINE
8
BLACK
6
CONTINUOUS
10
6.15054
20
-3.43399
11
6.14977
21
-3.43399
0
LINE
8
BLACK
6
CONTINUOUS
10
6.14977
20
-3.43399
11
6.14909
21
-3.43361
0
LINE
8
BLACK
6
CONTINUOUS
10
6.14909
20
-3.43361
11
6.14834
21
-3.4334
0
LINE
8
BLACK
6
CONTINUOUS
10
6.14834
20
-3.4334
11
6.14779
21
-3.43285
0
LINE
8
BLACK
6
CONTINUOUS
10
6.14779
20
-3.43285
11
6.14712
21
-3.43247
0
LINE
8
BLACK
6
CONTINUOUS
10
6.14712
20
-3.43247
11
6.14673
21
-3.43179
0
LINE
8
BLACK
6
CONTINUOUS
10
6.14673
20
-3.43179
11
6.14618
21
-3.43124
0
LINE
8
BLACK
6
CONTINUOUS
10
6.14618
20
-3.43124
11
6.14598
21
-3.43049
0
LINE
8
BLACK
6
CONTINUOUS
10
6.14598
20
-3.43049
11
6.14559
21
-3.42982
0
LINE
8
BLACK
6
CONTINUOUS
10
6.14559
20
-3.42982
11
6.14559
21
-3.42904
0
LINE
8
BLACK
6
CONTINUOUS
10
6.14559
20
-3.42904
11
6.14539
21
-3.42829
0
LINE
8
BLACK
6
CONTINUOUS
10
6.14539
20
-3.42829
11
6.14559
21
-3.42754
0
LINE
8
BLACK
6
CONTINUOUS
10
6.14559
20
-3.42754
11
6.14559
21
-3.42676
0
LINE
8
BLACK
6
CONTINUOUS
10
6.14559
20
-3.42676
11
6.14598
21
-3.42609
0
LINE
8
BLACK
6
CONTINUOUS
10
6.14598
20
-3.42609
11
6.14618
21
-3.42534
0
LINE
8
BLACK
6
CONTINUOUS
10
6.14618
20
-3.42534
11
6.14673
21
-3.42479
0
LINE
8
BLACK
6
CONTINUOUS
10
6.14673
20
-3.42479
11
6.14712
21
-3.42411
0
LINE
8
BLACK
6
CONTINUOUS
10
6.14712
20
-3.42411
11
6.17988
21
-3.39135
0
LINE
8
BLACK
6
CONTINUOUS
10
6.17988
20
-3.39135
11
6.18195
21
-3.38515
0
LINE
8
BLACK
6
CONTINUOUS
10
6.18195
20
-3.38515
11
6.18195
21
-3.38188
0
LINE
8
BLACK
6
CONTINUOUS
10
6.18195
20
-3.38188
11
6.18019
21
-3.37836
0
LINE
8
BLACK
6
CONTINUOUS
10
6.18019
20
-3.37836
11
6.17873
21
-3.3769
0
LINE
8
BLACK
6
CONTINUOUS
10
6.17873
20
-3.3769
11
6.17521
21
-3.37514
0
LINE
8
BLACK
6
CONTINUOUS
10
6.17521
20
-3.37514
11
6.16394
21
-3.37514
0
LINE
8
BLACK
6
CONTINUOUS
10
6.16394
20
-3.37514
11
6.16042
21
-3.3769
0
LINE
8
BLACK
6
CONTINUOUS
10
6.16042
20
-3.3769
11
6.15828
21
-3.37904
0
LINE
8
BLACK
6
CONTINUOUS
10
6.15828
20
-3.37904
11
6.15563
21
-3.38056
0
LINE
8
BLACK
6
CONTINUOUS
10
6.15563
20
-3.38056
11
6.15258
21
-3.38056
0
LINE
8
BLACK
6
CONTINUOUS
10
6.15258
20
-3.38056
11
6.14993
21
-3.37904
0
LINE
8
BLACK
6
CONTINUOUS
10
6.14993
20
-3.37904
11
6.1484
21
-3.37639
0
LINE
8
BLACK
6
CONTINUOUS
10
6.1484
20
-3.37639
11
6.1484
21
-3.37333
0
LINE
8
BLACK
6
CONTINUOUS
10
6.1484
20
-3.37333
11
6.14993
21
-3.37068
0
LINE
8
BLACK
6
CONTINUOUS
10
6.14993
20
-3.37068
11
6.15274
21
-3.36787
0
LINE
8
BLACK
6
CONTINUOUS
10
6.15274
20
-3.36787
11
6.15357
21
-3.3674
0
LINE
8
BLACK
6
CONTINUOUS
10
6.15357
20
-3.3674
11
6.15428
21
-3.36677
0
LINE
8
BLACK
6
CONTINUOUS
10
6.15428
20
-3.36677
11
6.1599
21
-3.36395
0
LINE
8
BLACK
6
CONTINUOUS
10
6.1599
20
-3.36395
11
6.16123
21
-3.36368
0
LINE
8
BLACK
6
CONTINUOUS
10
6.16123
20
-3.36368
11
6.16254
21
-3.36333
0
LINE
8
BLACK
6
CONTINUOUS
10
6.16254
20
-3.36333
11
6.1766
21
-3.36333
0
LINE
8
BLACK
6
CONTINUOUS
10
6.1766
20
-3.36333
11
6.17791
21
-3.36368
0
LINE
8
BLACK
6
CONTINUOUS
10
6.06262
20
-3.36368
11
6.06395
21
-3.36395
0
LINE
8
BLACK
6
CONTINUOUS
10
6.06395
20
-3.36395
11
6.06957
21
-3.36677
0
LINE
8
BLACK
6
CONTINUOUS
10
6.06957
20
-3.36677
11
6.07028
21
-3.3674
0
LINE
8
BLACK
6
CONTINUOUS
10
6.07028
20
-3.3674
11
6.0711
21
-3.36787
0
LINE
8
BLACK
6
CONTINUOUS
10
6.0711
20
-3.36787
11
6.07392
21
-3.37068
0
LINE
8
BLACK
6
CONTINUOUS
10
6.07392
20
-3.37068
11
6.07439
21
-3.37151
0
LINE
8
BLACK
6
CONTINUOUS
10
6.07439
20
-3.37151
11
6.07502
21
-3.37222
0
LINE
8
BLACK
6
CONTINUOUS
10
6.07502
20
-3.37222
11
6.07784
21
-3.37784
0
LINE
8
BLACK
6
CONTINUOUS
10
6.07784
20
-3.37784
11
6.07797
21
-3.37848
0
LINE
8
BLACK
6
CONTINUOUS
10
6.07797
20
-3.37848
11
6.07828
21
-3.37905
0
LINE
8
BLACK
6
CONTINUOUS
10
6.07828
20
-3.37905
11
6.08109
21
-3.3903
0
LINE
8
BLACK
6
CONTINUOUS
10
6.08109
20
-3.3903
11
6.08108
21
-3.39103
0
LINE
8
BLACK
6
CONTINUOUS
10
6.08108
20
-3.39103
11
6.08127
21
-3.39173
0
LINE
8
BLACK
6
CONTINUOUS
10
6.08127
20
-3.39173
11
6.08127
21
-3.40579
0
LINE
8
BLACK
6
CONTINUOUS
10
6.08127
20
-3.40579
11
6.08108
21
-3.4065
0
LINE
8
BLACK
6
CONTINUOUS
10
6.08108
20
-3.4065
11
6.08109
21
-3.40723
0
LINE
8
BLACK
6
CONTINUOUS
10
6.08109
20
-3.40723
11
6.07828
21
-3.41847
0
LINE
8
BLACK
6
CONTINUOUS
10
6.07828
20
-3.41847
11
6.07797
21
-3.41904
0
LINE
8
BLACK
6
CONTINUOUS
10
6.07797
20
-3.41904
11
6.07788
21
-3.41949
0
LINE
8
BLACK
6
CONTINUOUS
10
6.07788
20
-3.41949
11
6.0955
21
-3.41949
0
LINE
8
BLACK
6
CONTINUOUS
10
6.0955
20
-3.41949
11
6.12363
21
-3.39135
0
LINE
8
BLACK
6
CONTINUOUS
10
6.12363
20
-3.39135
11
6.1257
21
-3.38515
0
LINE
8
BLACK
6
CONTINUOUS
10
6.1257
20
-3.38515
11
6.1257
21
-3.38188
0
LINE
8
BLACK
6
CONTINUOUS
10
6.1257
20
-3.38188
11
6.12394
21
-3.37836
0
LINE
8
BLACK
6
CONTINUOUS
10
6.12394
20
-3.37836
11
6.12249
21
-3.3769
0
LINE
8
BLACK
6
CONTINUOUS
10
6.12249
20
-3.3769
11
6.11897
21
-3.37514
0
LINE
8
BLACK
6
CONTINUOUS
10
6.11897
20
-3.37514
11
6.10769
21
-3.37514
0
LINE
8
BLACK
6
CONTINUOUS
10
6.10769
20
-3.37514
11
6.10417
21
-3.3769
0
LINE
8
BLACK
6
CONTINUOUS
10
6.10417
20
-3.3769
11
6.10204
21
-3.37904
0
LINE
8
BLACK
6
CONTINUOUS
10
6.10204
20
-3.37904
11
6.09939
21
-3.38056
0
LINE
8
BLACK
6
CONTINUOUS
10
6.09939
20
-3.38056
11
6.09633
21
-3.38056
0
LINE
8
BLACK
6
CONTINUOUS
10
6.09633
20
-3.38056
11
6.09369
21
-3.37904
0
LINE
8
BLACK
6
CONTINUOUS
10
6.09369
20
-3.37904
11
6.09216
21
-3.37639
0
LINE
8
BLACK
6
CONTINUOUS
10
6.09216
20
-3.37639
11
6.09216
21
-3.37333
0
LINE
8
BLACK
6
CONTINUOUS
10
6.09216
20
-3.37333
11
6.09369
21
-3.37068
0
LINE
8
BLACK
6
CONTINUOUS
10
6.09369
20
-3.37068
11
6.0965
21
-3.36787
0
LINE
8
BLACK
6
CONTINUOUS
10
6.0965
20
-3.36787
11
6.09732
21
-3.3674
0
LINE
8
BLACK
6
CONTINUOUS
10
6.09732
20
-3.3674
11
6.09803
21
-3.36677
0
LINE
8
BLACK
6
CONTINUOUS
10
6.09803
20
-3.36677
11
6.10366
21
-3.36395
0
LINE
8
BLACK
6
CONTINUOUS
10
6.10366
20
-3.36395
11
6.10499
21
-3.36368
0
LINE
8
BLACK
6
CONTINUOUS
10
6.10499
20
-3.36368
11
6.1063
21
-3.36333
0
LINE
8
BLACK
6
CONTINUOUS
10
6.1063
20
-3.36333
11
6.12036
21
-3.36333
0
LINE
8
BLACK
6
CONTINUOUS
10
6.12036
20
-3.36333
11
6.12167
21
-3.36368
0
LINE
8
BLACK
6
CONTINUOUS
10
6.12167
20
-3.36368
11
6.123
21
-3.36395
0
LINE
8
BLACK
6
CONTINUOUS
10
6.123
20
-3.36395
11
6.12863
21
-3.36677
0
LINE
8
BLACK
6
CONTINUOUS
10
6.12863
20
-3.36677
11
6.12934
21
-3.3674
0
LINE
8
BLACK
6
CONTINUOUS
10
6.12934
20
-3.3674
11
6.13016
21
-3.36787
0
LINE
8
BLACK
6
CONTINUOUS
10
6.13016
20
-3.36787
11
6.13297
21
-3.37068
0
LINE
8
BLACK
6
CONTINUOUS
10
6.13297
20
-3.37068
11
6.13345
21
-3.37151
0
LINE
8
BLACK
6
CONTINUOUS
10
6.13345
20
-3.37151
11
6.13408
21
-3.37222
0
LINE
8
BLACK
6
CONTINUOUS
10
6.13408
20
-3.37222
11
6.13689
21
-3.37784
0
LINE
8
BLACK
6
CONTINUOUS
10
6.13689
20
-3.37784
11
6.13716
21
-3.37917
0
LINE
8
BLACK
6
CONTINUOUS
10
6.13716
20
-3.37917
11
6.13751
21
-3.38048
0
LINE
8
BLACK
6
CONTINUOUS
10
6.13751
20
-3.38048
11
6.13751
21
-3.38611
0
LINE
8
BLACK
6
CONTINUOUS
10
6.13751
20
-3.38611
11
6.13727
21
-3.38703
0
LINE
8
BLACK
6
CONTINUOUS
10
6.13727
20
-3.38703
11
6.13721
21
-3.38798
0
LINE
8
BLACK
6
CONTINUOUS
10
6.13721
20
-3.38798
11
6.1344
21
-3.39641
0
LINE
8
BLACK
6
CONTINUOUS
10
6.1344
20
-3.39641
11
6.13365
21
-3.39754
0
LINE
8
BLACK
6
CONTINUOUS
10
6.13365
20
-3.39754
11
6.13297
21
-3.39872
0
LINE
8
BLACK
6
CONTINUOUS
10
6.13297
20
-3.39872
11
6.1122
21
-3.41949
0
LINE
8
BLACK
6
CONTINUOUS
10
6.1122
20
-3.41949
11
6.12768
21
-3.41949
0
LINE
8
BLACK
6
CONTINUOUS
10
6.12768
20
-3.41949
11
6.12869
21
-3.41967
0
LINE
8
BLACK
6
CONTINUOUS
10
6.12869
20
-3.41967
11
6.13023
21
-3.42096
0
LINE
8
BLACK
6
CONTINUOUS
10
6.13023
20
-3.42096
11
6.13048
21
-3.42238
0
LINE
8
BLACK
6
CONTINUOUS
10
6.13048
20
-3.42238
11
6.13161
21
-3.42238
0
LINE
8
BLACK
6
CONTINUOUS
10
6.13161
20
-3.42238
11
6.13456
21
-3.42318
0
LINE
8
BLACK
6
CONTINUOUS
10
6.13456
20
-3.42318
11
6.13672
21
-3.42534
0
LINE
8
BLACK
6
CONTINUOUS
10
6.13672
20
-3.42534
11
6.13751
21
-3.42829
0
LINE
8
BLACK
6
CONTINUOUS
10
6.13751
20
-3.42829
11
6.13672
21
-3.43124
0
LINE
8
BLACK
6
CONTINUOUS
10
6.13672
20
-3.43124
11
6.13456
21
-3.4334
0
LINE
8
BLACK
6
CONTINUOUS
10
6.13456
20
-3.4334
11
6.13161
21
-3.4342
0
LINE
8
BLACK
6
CONTINUOUS
10
6.13161
20
-3.4342
11
6.09505
21
-3.4342
0
LINE
8
BLACK
6
CONTINUOUS
10
6.09505
20
-3.4342
11
6.0943
21
-3.43399
0
LINE
8
BLACK
6
CONTINUOUS
10
6.0943
20
-3.43399
11
6.09352
21
-3.43399
0
LINE
8
BLACK
6
CONTINUOUS
10
6.09352
20
-3.43399
11
6.09285
21
-3.43361
0
LINE
8
BLACK
6
CONTINUOUS
10
6.09285
20
-3.43361
11
6.0921
21
-3.4334
0
LINE
8
BLACK
6
CONTINUOUS
10
6.0921
20
-3.4334
11
6.09155
21
-3.43285
0
LINE
8
BLACK
6
CONTINUOUS
10
6.09155
20
-3.43285
11
6.09087
21
-3.43247
0
LINE
8
BLACK
6
CONTINUOUS
10
6.09087
20
-3.43247
11
6.09049
21
-3.43179
0
LINE
8
BLACK
6
CONTINUOUS
10
6.09049
20
-3.43179
11
6.08994
21
-3.43124
0
LINE
8
BLACK
6
CONTINUOUS
10
6.08994
20
-3.43124
11
6.08974
21
-3.43049
0
LINE
8
BLACK
6
CONTINUOUS
10
6.08974
20
-3.43049
11
6.08935
21
-3.42982
0
LINE
8
BLACK
6
CONTINUOUS
10
6.08935
20
-3.42982
11
6.08935
21
-3.42904
0
LINE
8
BLACK
6
CONTINUOUS
10
6.08935
20
-3.42904
11
6.08915
21
-3.42829
0
LINE
8
BLACK
6
CONTINUOUS
10
6.08915
20
-3.42829
11
6.08935
21
-3.42754
0
LINE
8
BLACK
6
CONTINUOUS
10
6.08935
20
-3.42754
11
6.08935
21
-3.42676
0
LINE
8
BLACK
6
CONTINUOUS
10
6.08935
20
-3.42676
11
6.08974
21
-3.42609
0
LINE
8
BLACK
6
CONTINUOUS
10
6.08974
20
-3.42609
11
6.08992
21
-3.42539
0
LINE
8
BLACK
6
CONTINUOUS
10
6.08992
20
-3.42539
11
6.07495
21
-3.42539
0
LINE
8
BLACK
6
CONTINUOUS
10
6.07495
20
-3.42539
11
6.07439
21
-3.42602
0
LINE
8
BLACK
6
CONTINUOUS
10
6.07439
20
-3.42602
11
6.07392
21
-3.42684
0
LINE
8
BLACK
6
CONTINUOUS
10
6.07392
20
-3.42684
11
6.0711
21
-3.42965
0
LINE
8
BLACK
6
CONTINUOUS
10
6.0711
20
-3.42965
11
6.07028
21
-3.43013
0
LINE
8
BLACK
6
CONTINUOUS
10
6.07028
20
-3.43013
11
6.06957
21
-3.43076
0
LINE
8
BLACK
6
CONTINUOUS
10
6.06957
20
-3.43076
11
6.06395
21
-3.43357
0
LINE
8
BLACK
6
CONTINUOUS
10
6.06395
20
-3.43357
11
6.06262
21
-3.43384
0
LINE
8
BLACK
6
CONTINUOUS
10
6.06262
20
-3.43384
11
6.0613
21
-3.4342
0
LINE
8
BLACK
6
CONTINUOUS
10
6.0613
20
-3.4342
11
6.05568
21
-3.4342
0
LINE
8
BLACK
6
CONTINUOUS
10
6.05568
20
-3.4342
11
6.05437
21
-3.43384
0
LINE
8
BLACK
6
CONTINUOUS
10
6.05437
20
-3.43384
11
6.05304
21
-3.43357
0
LINE
8
BLACK
6
CONTINUOUS
10
6.05304
20
-3.43357
11
6.04742
21
-3.43076
0
LINE
8
BLACK
6
CONTINUOUS
10
6.04742
20
-3.43076
11
6.0467
21
-3.43013
0
LINE
8
BLACK
6
CONTINUOUS
10
6.0467
20
-3.43013
11
6.04588
21
-3.42965
0
LINE
8
BLACK
6
CONTINUOUS
10
6.04588
20
-3.42965
11
6.04307
21
-3.42684
0
LINE
8
BLACK
6
CONTINUOUS
10
6.04307
20
-3.42684
11
6.04259
21
-3.42602
0
LINE
8
BLACK
6
CONTINUOUS
10
6.04259
20
-3.42602
11
6.04204
21
-3.42539
0
LINE
8
BLACK
6
CONTINUOUS
10
6.04204
20
-3.42539
11
6.03768
21
-3.42539
0
LINE
8
BLACK
6
CONTINUOUS
10
6.03768
20
-3.42539
11
6.03667
21
-3.42522
0
LINE
8
BLACK
6
CONTINUOUS
10
6.03667
20
-3.42522
11
6.03512
21
-3.42392
0
LINE
8
BLACK
6
CONTINUOUS
10
6.03512
20
-3.42392
11
6.03477
21
-3.42193
0
LINE
8
BLACK
6
CONTINUOUS
10
6.03477
20
-3.42193
11
6.03578
21
-3.42018
0
LINE
8
BLACK
6
CONTINUOUS
10
6.03578
20
-3.42018
11
6.03768
21
-3.41949
0
LINE
8
BLACK
6
CONTINUOUS
10
6.03768
20
-3.41949
11
6.03911
21
-3.41949
0
LINE
8
BLACK
6
CONTINUOUS
10
6.03911
20
-3.41949
11
6.03902
21
-3.41904
0
LINE
8
BLACK
6
CONTINUOUS
10
6.03902
20
-3.41904
11
6.0387
21
-3.41847
0
LINE
8
BLACK
6
CONTINUOUS
10
6.0387
20
-3.41847
11
6.03589
21
-3.40723
0
LINE
8
BLACK
6
CONTINUOUS
10
6.03589
20
-3.40723
11
6.0359
21
-3.4065
0
LINE
8
BLACK
6
CONTINUOUS
10
6.0359
20
-3.4065
11
6.03571
21
-3.40579
0
LINE
8
BLACK
6
CONTINUOUS
10
6.03571
20
-3.40579
11
6.03571
21
-3.39173
0
LINE
8
BLACK
6
CONTINUOUS
10
6.03571
20
-3.39173
11
6.0359
21
-3.39103
0
LINE
8
BLACK
6
CONTINUOUS
10
6.0359
20
-3.39103
11
6.03589
21
-3.3903
0
LINE
8
BLACK
6
CONTINUOUS
10
6.03589
20
-3.3903
11
6.0387
21
-3.37905
0
LINE
8
BLACK
6
CONTINUOUS
10
6.0387
20
-3.37905
11
6.03902
21
-3.37848
0
LINE
8
BLACK
6
CONTINUOUS
10
6.03902
20
-3.37848
11
6.03915
21
-3.37784
0
LINE
8
BLACK
6
CONTINUOUS
10
6.03915
20
-3.37784
11
6.04196
21
-3.37222
0
LINE
8
BLACK
6
CONTINUOUS
10
6.04196
20
-3.37222
11
6.04259
21
-3.37151
0
LINE
8
BLACK
6
CONTINUOUS
10
6.04259
20
-3.37151
11
6.04307
21
-3.37068
0
LINE
8
BLACK
6
CONTINUOUS
10
6.04307
20
-3.37068
11
6.04588
21
-3.36787
0
LINE
8
BLACK
6
CONTINUOUS
10
6.04588
20
-3.36787
11
6.0467
21
-3.3674
0
LINE
8
BLACK
6
CONTINUOUS
10
6.0467
20
-3.3674
11
6.04742
21
-3.36677
0
LINE
8
BLACK
6
CONTINUOUS
10
6.04742
20
-3.36677
11
6.05304
21
-3.36395
0
LINE
8
BLACK
6
CONTINUOUS
10
6.05304
20
-3.36395
11
6.05437
21
-3.36368
0
LINE
8
BLACK
6
CONTINUOUS
10
6.05437
20
-3.36368
11
6.05568
21
-3.36333
0
LINE
8
BLACK
6
CONTINUOUS
10
6.05568
20
-3.36333
11
6.0613
21
-3.36333
0
LINE
8
BLACK
6
CONTINUOUS
10
6.0613
20
-3.36333
11
6.06262
21
-3.36368
0
LINE
8
BLACK
6
CONTINUOUS
10
6.05707
20
-3.37514
11
6.05355
21
-3.3769
0
LINE
8
BLACK
6
CONTINUOUS
10
6.05355
20
-3.3769
11
6.0521
21
-3.37836
0
LINE
8
BLACK
6
CONTINUOUS
10
6.0521
20
-3.37836
11
6.05
21
-3.38254
0
LINE
8
BLACK
6
CONTINUOUS
10
6.05
20
-3.38254
11
6.04753
21
-3.39246
0
LINE
8
BLACK
6
CONTINUOUS
10
6.04753
20
-3.39246
11
6.04753
21
-3.40507
0
LINE
8
BLACK
6
CONTINUOUS
10
6.04753
20
-3.40507
11
6.05
21
-3.41498
0
LINE
8
BLACK
6
CONTINUOUS
10
6.05
20
-3.41498
11
6.0521
21
-3.41917
0
LINE
8
BLACK
6
CONTINUOUS
10
6.0521
20
-3.41917
11
6.05242
21
-3.41949
0
LINE
8
BLACK
6
CONTINUOUS
10
6.05242
20
-3.41949
11
6.06457
21
-3.41949
0
LINE
8
BLACK
6
CONTINUOUS
10
6.06457
20
-3.41949
11
6.06489
21
-3.41917
0
LINE
8
BLACK
6
CONTINUOUS
10
6.06489
20
-3.41917
11
6.06698
21
-3.41498
0
LINE
8
BLACK
6
CONTINUOUS
10
6.06698
20
-3.41498
11
6.06946
21
-3.40507
0
LINE
8
BLACK
6
CONTINUOUS
10
6.06946
20
-3.40507
11
6.06946
21
-3.39246
0
LINE
8
BLACK
6
CONTINUOUS
10
6.06946
20
-3.39246
11
6.06698
21
-3.38254
0
LINE
8
BLACK
6
CONTINUOUS
10
6.06698
20
-3.38254
11
6.06489
21
-3.37836
0
LINE
8
BLACK
6
CONTINUOUS
10
6.06489
20
-3.37836
11
6.06343
21
-3.3769
0
LINE
8
BLACK
6
CONTINUOUS
10
6.06343
20
-3.3769
11
6.05991
21
-3.37514
0
LINE
8
BLACK
6
CONTINUOUS
10
6.05991
20
-3.37514
11
6.05707
21
-3.37514
0
LINE
8
BLACK
6
CONTINUOUS
10
5.19562
20
-3.41573
11
5.19716
21
-3.41703
0
LINE
8
BLACK
6
CONTINUOUS
10
5.19716
20
-3.41703
11
5.19751
21
-3.41902
0
LINE
8
BLACK
6
CONTINUOUS
10
5.19751
20
-3.41902
11
5.1965
21
-3.42077
0
LINE
8
BLACK
6
CONTINUOUS
10
5.1965
20
-3.42077
11
5.19461
21
-3.42146
0
LINE
8
BLACK
6
CONTINUOUS
10
5.19461
20
-3.42146
11
5.10461
21
-3.42146
0
LINE
8
BLACK
6
CONTINUOUS
10
5.10461
20
-3.42146
11
5.1036
21
-3.42128
0
LINE
8
BLACK
6
CONTINUOUS
10
5.1036
20
-3.42128
11
5.10205
21
-3.41998
0
LINE
8
BLACK
6
CONTINUOUS
10
5.10205
20
-3.41998
11
5.1017
21
-3.41799
0
LINE
8
BLACK
6
CONTINUOUS
10
5.1017
20
-3.41799
11
5.10271
21
-3.41624
0
LINE
8
BLACK
6
CONTINUOUS
10
5.10271
20
-3.41624
11
5.10461
21
-3.41555
0
LINE
8
BLACK
6
CONTINUOUS
10
5.10461
20
-3.41555
11
5.19461
21
-3.41555
0
LINE
8
BLACK
6
CONTINUOUS
10
5.19461
20
-3.41555
11
5.19562
21
-3.41573
  0
ENDSEC
  0
EOF
