  0
SECTION
  2
HEADER
  9
$ANGBASE
  50
0.0
  9
$ANGDIR
  70
1
  9
$MEASUREMENT
  70
0
  0
ENDSEC
  0
SECTION
  2
TABLES
  0
TABLE
  2
LTYPE
  70
4
  0
LTYPE
  5
40F
  2
CONTINUOUS
  70
0
  3
Solid line
  72
65
  73
0
  40
0.0
  0
LTYPE
  5
410
  2
DASHDOT
 70
0
  3
Dash Dot ____ _ ____ _
 72
65
 73
4
 40
2.0
 49
1.25
 49
-0.25
 49
0.25
 49
-0.25
  0
LTYPE
  5
411
  2
DASHED
 70
0
  3
Dashed __ __ __ __ __
 72
65
 73
2
 40
0.75
 49
0.5
 49
-0.25
  0
LTYPE
  5
43B
  2
DOTTED
 70
0
  3
Dotted .  .  .  .
 72
65
 73
2
 40
0.2
 49
0.0
 49
-0.2
  0
ENDTAB
  0
TABLE
  2
STYLE
  70
4
  0
STYLE
  2
KICAD
  70
0
  40
0
  41
1
  42
1
  50
0
  71
0
  3
isocp.shx
  0
STYLE
  2
KICADB
  70
0
  40
0
  41
1
  42
1
  50
0
  71
0
  3
isocp.shx
  0
STYLE
  2
KICADI
  70
0
  40
0
  41
1
  42
1
  50
15
  71
0
  3
isocp.shx
  0
STYLE
  2
KICADBI
  70
0
  40
0
  41
1
  42
1
  50
15
  71
0
  3
isocp.shx
  0
ENDTAB
  0
TABLE
  2
LAYER
  70
1
  0
LAYER
  2
BLACK
  70
0
  62
7
  6
CONTINUOUS
  0
ENDTAB
  0
ENDSEC
  0
SECTION
  2
ENTITIES
0
LINE
8
BLACK
6
CONTINUOUS
10
0.0333333
20
1.36862
11
0.0344172
21
1.37024
0
LINE
8
BLACK
6
CONTINUOUS
10
0.0344172
20
1.37024
11
0.0360393
21
1.37133
0
LINE
8
BLACK
6
CONTINUOUS
10
0.0360393
20
1.37133
11
0.0379528
21
1.37171
0
LINE
8
BLACK
6
CONTINUOUS
10
0.0379528
20
1.37171
11
0.0398662
21
1.37133
0
LINE
8
BLACK
6
CONTINUOUS
10
0.0398662
20
1.37133
11
0.0414883
21
1.37024
0
LINE
8
BLACK
6
CONTINUOUS
10
0.0414883
20
1.37024
11
0.0425738
21
1.36862
0
LINE
8
BLACK
6
CONTINUOUS
10
0.0425738
20
1.36862
11
0.0664168
21
1.31091
0
LINE
8
BLACK
6
CONTINUOUS
10
0.0664168
20
1.31091
11
0.110678
21
1.26657
0
LINE
8
BLACK
6
CONTINUOUS
10
0.110678
20
1.26657
11
0.168538
21
1.24255
0
LINE
8
BLACK
6
CONTINUOUS
10
0.168538
20
1.24255
11
0.231187
21
1.24249
0
LINE
8
BLACK
6
CONTINUOUS
10
0.231187
20
1.24249
11
0.289089
21
1.26642
0
LINE
8
BLACK
6
CONTINUOUS
10
0.289089
20
1.26642
11
0.333427
21
1.31068
0
LINE
8
BLACK
6
CONTINUOUS
10
0.333427
20
1.31068
11
0.357453
21
1.36854
0
LINE
8
BLACK
6
CONTINUOUS
10
0.357453
20
1.36854
11
0.357508
21
1.43119
0
LINE
8
BLACK
6
CONTINUOUS
10
0.357508
20
1.43119
11
0.340194
21
1.47309
0
LINE
8
BLACK
6
CONTINUOUS
10
0.340194
20
1.47309
11
0.333583
21
1.48909
0
LINE
8
BLACK
6
CONTINUOUS
10
0.333583
20
1.48909
11
0.289322
21
1.53343
0
LINE
8
BLACK
6
CONTINUOUS
10
0.289322
20
1.53343
11
0.231519
21
1.55743
0
LINE
8
BLACK
6
CONTINUOUS
10
0.231519
20
1.55743
11
0.229897
21
1.55851
0
LINE
8
BLACK
6
CONTINUOUS
10
0.229897
20
1.55851
11
0.228815
21
1.56014
0
LINE
8
BLACK
6
CONTINUOUS
10
0.228815
20
1.56014
11
0.228436
21
1.56205
0
LINE
8
BLACK
6
CONTINUOUS
10
0.228436
20
1.56205
11
0.228818
21
1.56396
0
LINE
8
BLACK
6
CONTINUOUS
10
0.228818
20
1.56396
11
0.229904
21
1.56559
0
LINE
8
BLACK
6
CONTINUOUS
10
0.229904
20
1.56559
11
0.231527
21
1.56667
0
LINE
8
BLACK
6
CONTINUOUS
10
0.231527
20
1.56667
11
0.233436
21
1.56705
0
LINE
8
BLACK
6
CONTINUOUS
10
0.233436
20
1.56705
11
1.76671
21
1.56705
0
LINE
8
BLACK
6
CONTINUOUS
10
1.76671
20
1.56705
11
1.76862
21
1.56667
0
LINE
8
BLACK
6
CONTINUOUS
10
1.76862
20
1.56667
11
1.77024
21
1.56558
0
LINE
8
BLACK
6
CONTINUOUS
10
1.77024
20
1.56558
11
1.77133
21
1.56396
0
LINE
8
BLACK
6
CONTINUOUS
10
1.77133
20
1.56396
11
1.77171
21
1.56205
0
LINE
8
BLACK
6
CONTINUOUS
10
1.77171
20
1.56205
11
1.77133
21
1.56013
0
LINE
8
BLACK
6
CONTINUOUS
10
1.77133
20
1.56013
11
1.77024
21
1.55851
0
LINE
8
BLACK
6
CONTINUOUS
10
1.77024
20
1.55851
11
1.76862
21
1.55743
0
LINE
8
BLACK
6
CONTINUOUS
10
1.76862
20
1.55743
11
1.71091
21
1.53358
0
LINE
8
BLACK
6
CONTINUOUS
10
1.71091
20
1.53358
11
1.66657
21
1.48932
0
LINE
8
BLACK
6
CONTINUOUS
10
1.66657
20
1.48932
11
1.64255
21
1.43146
0
LINE
8
BLACK
6
CONTINUOUS
10
1.64255
20
1.43146
11
1.64249
21
1.36881
0
LINE
8
BLACK
6
CONTINUOUS
10
1.64249
20
1.36881
11
1.66642
21
1.31091
0
LINE
8
BLACK
6
CONTINUOUS
10
1.66642
20
1.31091
11
1.71068
21
1.26657
0
LINE
8
BLACK
6
CONTINUOUS
10
1.71068
20
1.26657
11
1.76854
21
1.24255
0
LINE
8
BLACK
6
CONTINUOUS
10
1.76854
20
1.24255
11
1.83119
21
1.24249
0
LINE
8
BLACK
6
CONTINUOUS
10
1.83119
20
1.24249
11
1.88909
21
1.26642
0
LINE
8
BLACK
6
CONTINUOUS
10
1.88909
20
1.26642
11
1.93343
21
1.31068
0
LINE
8
BLACK
6
CONTINUOUS
10
1.93343
20
1.31068
11
1.95743
21
1.36848
0
LINE
8
BLACK
6
CONTINUOUS
10
1.95743
20
1.36848
11
1.95851
21
1.3701
0
LINE
8
BLACK
6
CONTINUOUS
10
1.95851
20
1.3701
11
1.96014
21
1.37119
0
LINE
8
BLACK
6
CONTINUOUS
10
1.96014
20
1.37119
11
1.96205
21
1.37156
0
LINE
8
BLACK
6
CONTINUOUS
10
1.96205
20
1.37156
11
1.96396
21
1.37118
0
LINE
8
BLACK
6
CONTINUOUS
10
1.96396
20
1.37118
11
1.96559
21
1.3701
0
LINE
8
BLACK
6
CONTINUOUS
10
1.96559
20
1.3701
11
1.96667
21
1.36847
0
LINE
8
BLACK
6
CONTINUOUS
10
1.96667
20
1.36847
11
1.96705
21
1.36656
0
LINE
8
BLACK
6
CONTINUOUS
10
1.96705
20
1.36656
11
1.96705
21
0.233294
0
LINE
8
BLACK
6
CONTINUOUS
10
1.96705
20
0.233294
11
1.96667
21
0.23138
0
LINE
8
BLACK
6
CONTINUOUS
10
1.96667
20
0.23138
11
1.96558
21
0.229758
0
LINE
8
BLACK
6
CONTINUOUS
10
1.96558
20
0.229758
11
1.96396
21
0.228674
0
LINE
8
BLACK
6
CONTINUOUS
10
1.96396
20
0.228674
11
1.96205
21
0.228294
0
LINE
8
BLACK
6
CONTINUOUS
10
1.96205
20
0.228294
11
1.96013
21
0.228674
0
LINE
8
BLACK
6
CONTINUOUS
10
1.96013
20
0.228674
11
1.95851
21
0.229758
0
LINE
8
BLACK
6
CONTINUOUS
10
1.95851
20
0.229758
11
1.95743
21
0.231384
0
LINE
8
BLACK
6
CONTINUOUS
10
1.95743
20
0.231384
11
1.93358
21
0.289089
0
LINE
8
BLACK
6
CONTINUOUS
10
1.93358
20
0.289089
11
1.88932
21
0.333427
0
LINE
8
BLACK
6
CONTINUOUS
10
1.88932
20
0.333427
11
1.83146
21
0.357453
0
LINE
8
BLACK
6
CONTINUOUS
10
1.83146
20
0.357453
11
1.76881
21
0.357508
0
LINE
8
BLACK
6
CONTINUOUS
10
1.76881
20
0.357508
11
1.71091
21
0.333583
0
LINE
8
BLACK
6
CONTINUOUS
10
1.71091
20
0.333583
11
1.66657
21
0.289322
0
LINE
8
BLACK
6
CONTINUOUS
10
1.66657
20
0.289322
11
1.64255
21
0.231462
0
LINE
8
BLACK
6
CONTINUOUS
10
1.64255
20
0.231462
11
1.64249
21
0.168813
0
LINE
8
BLACK
6
CONTINUOUS
10
1.64249
20
0.168813
11
1.66642
21
0.110911
0
LINE
8
BLACK
6
CONTINUOUS
10
1.66642
20
0.110911
11
1.71068
21
0.0665725
0
LINE
8
BLACK
6
CONTINUOUS
10
1.71068
20
0.0665725
11
1.76848
21
0.0425705
0
LINE
8
BLACK
6
CONTINUOUS
10
1.76848
20
0.0425705
11
1.7701
21
0.0414852
0
LINE
8
BLACK
6
CONTINUOUS
10
1.7701
20
0.0414852
11
1.77119
21
0.0398621
0
LINE
8
BLACK
6
CONTINUOUS
10
1.77119
20
0.0398621
11
1.77156
21
0.0379484
0
LINE
8
BLACK
6
CONTINUOUS
10
1.77156
20
0.0379484
11
1.77118
21
0.0360353
0
LINE
8
BLACK
6
CONTINUOUS
10
1.77118
20
0.0360353
11
1.7701
21
0.0344141
0
LINE
8
BLACK
6
CONTINUOUS
10
1.7701
20
0.0344141
11
1.76847
21
0.0333317
0
LINE
8
BLACK
6
CONTINUOUS
10
1.76847
20
0.0333317
11
1.76656
21
0.0329528
0
LINE
8
BLACK
6
CONTINUOUS
10
1.76656
20
0.0329528
11
0.233294
21
0.0329528
0
LINE
8
BLACK
6
CONTINUOUS
10
0.233294
20
0.0329528
11
0.23138
21
0.0333333
0
LINE
8
BLACK
6
CONTINUOUS
10
0.23138
20
0.0333333
11
0.229758
21
0.0344172
0
LINE
8
BLACK
6
CONTINUOUS
10
0.229758
20
0.0344172
11
0.228674
21
0.0360393
0
LINE
8
BLACK
6
CONTINUOUS
10
0.228674
20
0.0360393
11
0.228294
21
0.0379528
0
LINE
8
BLACK
6
CONTINUOUS
10
0.228294
20
0.0379528
11
0.228674
21
0.0398662
0
LINE
8
BLACK
6
CONTINUOUS
10
0.228674
20
0.0398662
11
0.229758
21
0.0414883
0
LINE
8
BLACK
6
CONTINUOUS
10
0.229758
20
0.0414883
11
0.231384
21
0.0425738
0
LINE
8
BLACK
6
CONTINUOUS
10
0.231384
20
0.0425738
11
0.289089
21
0.0664168
0
LINE
8
BLACK
6
CONTINUOUS
10
0.289089
20
0.0664168
11
0.333427
21
0.110678
0
LINE
8
BLACK
6
CONTINUOUS
10
0.333427
20
0.110678
11
0.357453
21
0.168538
0
LINE
8
BLACK
6
CONTINUOUS
10
0.357453
20
0.168538
11
0.357508
21
0.231187
0
LINE
8
BLACK
6
CONTINUOUS
10
0.357508
20
0.231187
11
0.333583
21
0.289089
0
LINE
8
BLACK
6
CONTINUOUS
10
0.333583
20
0.289089
11
0.289322
21
0.333427
0
LINE
8
BLACK
6
CONTINUOUS
10
0.289322
20
0.333427
11
0.231462
21
0.357453
0
LINE
8
BLACK
6
CONTINUOUS
10
0.231462
20
0.357453
11
0.168813
21
0.357508
0
LINE
8
BLACK
6
CONTINUOUS
10
0.168813
20
0.357508
11
0.110911
21
0.333583
0
LINE
8
BLACK
6
CONTINUOUS
10
0.110911
20
0.333583
11
0.0665725
21
0.289322
0
LINE
8
BLACK
6
CONTINUOUS
10
0.0665725
20
0.289322
11
0.0425705
21
0.231519
0
LINE
8
BLACK
6
CONTINUOUS
10
0.0425705
20
0.231519
11
0.0414852
21
0.229897
0
LINE
8
BLACK
6
CONTINUOUS
10
0.0414852
20
0.229897
11
0.0398621
21
0.228815
0
LINE
8
BLACK
6
CONTINUOUS
10
0.0398621
20
0.228815
11
0.0379484
21
0.228436
0
LINE
8
BLACK
6
CONTINUOUS
10
0.0379484
20
0.228436
11
0.0360353
21
0.228818
0
LINE
8
BLACK
6
CONTINUOUS
10
0.0360353
20
0.228818
11
0.0344141
21
0.229904
0
LINE
8
BLACK
6
CONTINUOUS
10
0.0344141
20
0.229904
11
0.0333317
21
0.231527
0
LINE
8
BLACK
6
CONTINUOUS
10
0.0333317
20
0.231527
11
0.0329528
21
0.233436
0
LINE
8
BLACK
6
CONTINUOUS
10
0.0329528
20
0.233436
11
0.0329528
21
1.36671
0
LINE
8
BLACK
6
CONTINUOUS
10
0.0329528
20
1.36671
11
0.0333333
21
1.36862
0
LINE
8
BLACK
6
CONTINUOUS
10
0.999724
20
0.879712
11
1.01286
21
0.874258
0
LINE
8
BLACK
6
CONTINUOUS
10
1.01286
20
0.874258
11
1.01704
21
0.874255
0
LINE
8
BLACK
6
CONTINUOUS
10
1.01704
20
0.874255
11
1.01896
21
0.873872
0
LINE
8
BLACK
6
CONTINUOUS
10
1.01896
20
0.873872
11
1.02057
21
0.87279
0
LINE
8
BLACK
6
CONTINUOUS
10
1.02057
20
0.87279
11
1.23633
21
0.65703
0
LINE
8
BLACK
6
CONTINUOUS
10
1.23633
20
0.65703
11
1.24512
21
0.651157
0
LINE
8
BLACK
6
CONTINUOUS
10
1.24512
20
0.651157
11
1.25458
21
0.649275
0
LINE
8
BLACK
6
CONTINUOUS
10
1.25458
20
0.649275
11
1.25639
21
0.648529
0
LINE
8
BLACK
6
CONTINUOUS
10
1.25639
20
0.648529
11
1.25777
21
0.647149
0
LINE
8
BLACK
6
CONTINUOUS
10
1.25777
20
0.647149
11
1.25851
21
0.645347
0
LINE
8
BLACK
6
CONTINUOUS
10
1.25851
20
0.645347
11
1.25851
21
0.643396
0
LINE
8
BLACK
6
CONTINUOUS
10
1.25851
20
0.643396
11
1.25777
21
0.641594
0
LINE
8
BLACK
6
CONTINUOUS
10
1.25777
20
0.641594
11
1.25639
21
0.640214
0
LINE
8
BLACK
6
CONTINUOUS
10
1.25639
20
0.640214
11
1.25458
21
0.639467
0
LINE
8
BLACK
6
CONTINUOUS
10
1.25458
20
0.639467
11
1.2536
21
0.639371
0
LINE
8
BLACK
6
CONTINUOUS
10
1.2536
20
0.639371
11
1.24527
21
0.639379
0
LINE
8
BLACK
6
CONTINUOUS
10
1.24527
20
0.639379
11
1.22706
21
0.631854
0
LINE
8
BLACK
6
CONTINUOUS
10
1.22706
20
0.631854
11
1.21352
21
0.618339
0
LINE
8
BLACK
6
CONTINUOUS
10
1.21352
20
0.618339
11
1.2119
21
0.617256
0
LINE
8
BLACK
6
CONTINUOUS
10
1.2119
20
0.617256
11
1.20998
21
0.616877
0
LINE
8
BLACK
6
CONTINUOUS
10
1.20998
20
0.616877
11
1.20807
21
0.61726
0
LINE
8
BLACK
6
CONTINUOUS
10
1.20807
20
0.61726
11
1.20645
21
0.618345
0
LINE
8
BLACK
6
CONTINUOUS
10
1.20645
20
0.618345
11
1.19301
21
0.631805
0
LINE
8
BLACK
6
CONTINUOUS
10
1.19301
20
0.631805
11
1.17482
21
0.639361
0
LINE
8
BLACK
6
CONTINUOUS
10
1.17482
20
0.639361
11
1.15511
21
0.639379
0
LINE
8
BLACK
6
CONTINUOUS
10
1.15511
20
0.639379
11
1.1369
21
0.631854
0
LINE
8
BLACK
6
CONTINUOUS
10
1.1369
20
0.631854
11
1.12296
21
0.617934
0
LINE
8
BLACK
6
CONTINUOUS
10
1.12296
20
0.617934
11
1.1154
21
0.599737
0
LINE
8
BLACK
6
CONTINUOUS
10
1.1154
20
0.599737
11
1.11539
21
0.580034
0
LINE
8
BLACK
6
CONTINUOUS
10
1.11539
20
0.580034
11
1.12291
21
0.561824
0
LINE
8
BLACK
6
CONTINUOUS
10
1.12291
20
0.561824
11
1.13683
21
0.54788
0
LINE
8
BLACK
6
CONTINUOUS
10
1.13683
20
0.54788
11
1.15503
21
0.540324
0
LINE
8
BLACK
6
CONTINUOUS
10
1.15503
20
0.540324
11
1.17473
21
0.540306
0
LINE
8
BLACK
6
CONTINUOUS
10
1.17473
20
0.540306
11
1.19294
21
0.547831
0
LINE
8
BLACK
6
CONTINUOUS
10
1.19294
20
0.547831
11
1.20648
21
0.561346
0
LINE
8
BLACK
6
CONTINUOUS
10
1.20648
20
0.561346
11
1.2081
21
0.562429
0
LINE
8
BLACK
6
CONTINUOUS
10
1.2081
20
0.562429
11
1.21002
21
0.562808
0
LINE
8
BLACK
6
CONTINUOUS
10
1.21002
20
0.562808
11
1.21193
21
0.562425
0
LINE
8
BLACK
6
CONTINUOUS
10
1.21193
20
0.562425
11
1.21355
21
0.56134
0
LINE
8
BLACK
6
CONTINUOUS
10
1.21355
20
0.56134
11
1.22699
21
0.54788
0
LINE
8
BLACK
6
CONTINUOUS
10
1.22699
20
0.54788
11
1.24518
21
0.540324
0
LINE
8
BLACK
6
CONTINUOUS
10
1.24518
20
0.540324
11
1.26489
21
0.540306
0
LINE
8
BLACK
6
CONTINUOUS
10
1.26489
20
0.540306
11
1.2831
21
0.547831
0
LINE
8
BLACK
6
CONTINUOUS
10
1.2831
20
0.547831
11
1.29704
21
0.561751
0
LINE
8
BLACK
6
CONTINUOUS
10
1.29704
20
0.561751
11
1.3046
21
0.579948
0
LINE
8
BLACK
6
CONTINUOUS
10
1.3046
20
0.579948
11
1.30461
21
0.599651
0
LINE
8
BLACK
6
CONTINUOUS
10
1.30461
20
0.599651
11
1.29709
21
0.617861
0
LINE
8
BLACK
6
CONTINUOUS
10
1.29709
20
0.617861
11
1.28317
21
0.631805
0
LINE
8
BLACK
6
CONTINUOUS
10
1.28317
20
0.631805
11
1.2647
21
0.639477
0
LINE
8
BLACK
6
CONTINUOUS
10
1.2647
20
0.639477
11
1.26307
21
0.640562
0
LINE
8
BLACK
6
CONTINUOUS
10
1.26307
20
0.640562
11
1.26199
21
0.642185
0
LINE
8
BLACK
6
CONTINUOUS
10
1.26199
20
0.642185
11
1.26161
21
0.644099
0
LINE
8
BLACK
6
CONTINUOUS
10
1.26161
20
0.644099
11
1.262
21
0.646012
0
LINE
8
BLACK
6
CONTINUOUS
10
1.262
20
0.646012
11
1.26308
21
0.647633
0
LINE
8
BLACK
6
CONTINUOUS
10
1.26308
20
0.647633
11
1.2647
21
0.648716
0
LINE
8
BLACK
6
CONTINUOUS
10
1.2647
20
0.648716
11
1.26661
21
0.649094
0
LINE
8
BLACK
6
CONTINUOUS
10
1.26661
20
0.649094
11
1.35401
21
0.649094
0
LINE
8
BLACK
6
CONTINUOUS
10
1.35401
20
0.649094
11
1.35593
21
0.648714
0
LINE
8
BLACK
6
CONTINUOUS
10
1.35593
20
0.648714
11
1.35755
21
0.64763
0
LINE
8
BLACK
6
CONTINUOUS
10
1.35755
20
0.64763
11
1.35863
21
0.646008
0
LINE
8
BLACK
6
CONTINUOUS
10
1.35863
20
0.646008
11
1.35901
21
0.644094
0
LINE
8
BLACK
6
CONTINUOUS
10
1.35901
20
0.644094
11
1.35863
21
0.642177
0
LINE
8
BLACK
6
CONTINUOUS
10
1.35863
20
0.642177
11
1.35564
21
0.634974
0
LINE
8
BLACK
6
CONTINUOUS
10
1.35564
20
0.634974
11
1.35562
21
0.61527
0
LINE
8
BLACK
6
CONTINUOUS
10
1.35562
20
0.61527
11
1.36315
21
0.59706
0
LINE
8
BLACK
6
CONTINUOUS
10
1.36315
20
0.59706
11
1.37666
21
0.583521
0
LINE
8
BLACK
6
CONTINUOUS
10
1.37666
20
0.583521
11
1.37774
21
0.581898
0
LINE
8
BLACK
6
CONTINUOUS
10
1.37774
20
0.581898
11
1.37812
21
0.579984
0
LINE
8
BLACK
6
CONTINUOUS
10
1.37812
20
0.579984
11
1.37774
21
0.578071
0
LINE
8
BLACK
6
CONTINUOUS
10
1.37774
20
0.578071
11
1.37665
21
0.57645
0
LINE
8
BLACK
6
CONTINUOUS
10
1.37665
20
0.57645
11
1.36319
21
0.563013
0
LINE
8
BLACK
6
CONTINUOUS
10
1.36319
20
0.563013
11
1.35564
21
0.544816
0
LINE
8
BLACK
6
CONTINUOUS
10
1.35564
20
0.544816
11
1.35562
21
0.525113
0
LINE
8
BLACK
6
CONTINUOUS
10
1.35562
20
0.525113
11
1.36315
21
0.506903
0
LINE
8
BLACK
6
CONTINUOUS
10
1.36315
20
0.506903
11
1.37707
21
0.492958
0
LINE
8
BLACK
6
CONTINUOUS
10
1.37707
20
0.492958
11
1.39526
21
0.485402
0
LINE
8
BLACK
6
CONTINUOUS
10
1.39526
20
0.485402
11
1.41497
21
0.485385
0
LINE
8
BLACK
6
CONTINUOUS
10
1.41497
20
0.485385
11
1.43318
21
0.492909
0
LINE
8
BLACK
6
CONTINUOUS
10
1.43318
20
0.492909
11
1.44712
21
0.50683
0
LINE
8
BLACK
6
CONTINUOUS
10
1.44712
20
0.50683
11
1.45468
21
0.525026
0
LINE
8
BLACK
6
CONTINUOUS
10
1.45468
20
0.525026
11
1.45469
21
0.54473
0
LINE
8
BLACK
6
CONTINUOUS
10
1.45469
20
0.54473
11
1.44717
21
0.56294
0
LINE
8
BLACK
6
CONTINUOUS
10
1.44717
20
0.56294
11
1.43365
21
0.576479
0
LINE
8
BLACK
6
CONTINUOUS
10
1.43365
20
0.576479
11
1.43257
21
0.578102
0
LINE
8
BLACK
6
CONTINUOUS
10
1.43257
20
0.578102
11
1.43219
21
0.580016
0
LINE
8
BLACK
6
CONTINUOUS
10
1.43219
20
0.580016
11
1.43257
21
0.581929
0
LINE
8
BLACK
6
CONTINUOUS
10
1.43257
20
0.581929
11
1.43366
21
0.58355
0
LINE
8
BLACK
6
CONTINUOUS
10
1.43366
20
0.58355
11
1.44712
21
0.596987
0
LINE
8
BLACK
6
CONTINUOUS
10
1.44712
20
0.596987
11
1.45468
21
0.615184
0
LINE
8
BLACK
6
CONTINUOUS
10
1.45468
20
0.615184
11
1.45469
21
0.634887
0
LINE
8
BLACK
6
CONTINUOUS
10
1.45469
20
0.634887
11
1.45168
21
0.642185
0
LINE
8
BLACK
6
CONTINUOUS
10
1.45168
20
0.642185
11
1.4513
21
0.644099
0
LINE
8
BLACK
6
CONTINUOUS
10
1.4513
20
0.644099
11
1.45168
21
0.646012
0
LINE
8
BLACK
6
CONTINUOUS
10
1.45168
20
0.646012
11
1.45277
21
0.647633
0
LINE
8
BLACK
6
CONTINUOUS
10
1.45277
20
0.647633
11
1.45439
21
0.648716
0
LINE
8
BLACK
6
CONTINUOUS
10
1.45439
20
0.648716
11
1.4563
21
0.649094
0
LINE
8
BLACK
6
CONTINUOUS
10
1.4563
20
0.649094
11
1.53577
21
0.649094
0
LINE
8
BLACK
6
CONTINUOUS
10
1.53577
20
0.649094
11
1.53769
21
0.648714
0
LINE
8
BLACK
6
CONTINUOUS
10
1.53769
20
0.648714
11
1.53931
21
0.64763
0
LINE
8
BLACK
6
CONTINUOUS
10
1.53931
20
0.64763
11
1.54006
21
0.646873
0
LINE
8
BLACK
6
CONTINUOUS
10
1.54006
20
0.646873
11
1.54885
21
0.640999
0
LINE
8
BLACK
6
CONTINUOUS
10
1.54885
20
0.640999
11
1.55416
21
0.639943
0
LINE
8
BLACK
6
CONTINUOUS
10
1.55416
20
0.639943
11
1.55597
21
0.639197
0
LINE
8
BLACK
6
CONTINUOUS
10
1.55597
20
0.639197
11
1.55673
21
0.638572
0
LINE
8
BLACK
6
CONTINUOUS
10
1.55673
20
0.638572
11
1.56906
21
0.626215
0
LINE
8
BLACK
6
CONTINUOUS
10
1.56906
20
0.626215
11
1.58581
21
0.61926
0
LINE
8
BLACK
6
CONTINUOUS
10
1.58581
20
0.61926
11
1.60395
21
0.619244
0
LINE
8
BLACK
6
CONTINUOUS
10
1.60395
20
0.619244
11
1.62071
21
0.62617
0
LINE
8
BLACK
6
CONTINUOUS
10
1.62071
20
0.62617
11
1.63355
21
0.638984
0
LINE
8
BLACK
6
CONTINUOUS
10
1.63355
20
0.638984
11
1.6405
21
0.655734
0
LINE
8
BLACK
6
CONTINUOUS
10
1.6405
20
0.655734
11
1.64051
21
0.65832
0
LINE
8
BLACK
6
CONTINUOUS
10
1.64051
20
0.65832
11
1.64089
21
0.660233
0
LINE
8
BLACK
6
CONTINUOUS
10
1.64089
20
0.660233
11
1.64197
21
0.661855
0
LINE
8
BLACK
6
CONTINUOUS
10
1.64197
20
0.661855
11
1.6436
21
0.662937
0
LINE
8
BLACK
6
CONTINUOUS
10
1.6436
20
0.662937
11
1.64551
21
0.663316
0
LINE
8
BLACK
6
CONTINUOUS
10
1.64551
20
0.663316
11
1.64742
21
0.662934
0
LINE
8
BLACK
6
CONTINUOUS
10
1.64742
20
0.662934
11
1.65589
21
0.659417
0
LINE
8
BLACK
6
CONTINUOUS
10
1.65589
20
0.659417
11
1.67403
21
0.659402
0
LINE
8
BLACK
6
CONTINUOUS
10
1.67403
20
0.659402
11
1.69079
21
0.666328
0
LINE
8
BLACK
6
CONTINUOUS
10
1.69079
20
0.666328
11
1.70363
21
0.679141
0
LINE
8
BLACK
6
CONTINUOUS
10
1.70363
20
0.679141
11
1.71058
21
0.695892
0
LINE
8
BLACK
6
CONTINUOUS
10
1.71058
20
0.695892
11
1.7106
21
0.714029
0
LINE
8
BLACK
6
CONTINUOUS
10
1.7106
20
0.714029
11
1.70367
21
0.730791
0
LINE
8
BLACK
6
CONTINUOUS
10
1.70367
20
0.730791
11
1.69305
21
0.741436
0
LINE
8
BLACK
6
CONTINUOUS
10
1.69305
20
0.741436
11
1.69196
21
0.743059
0
LINE
8
BLACK
6
CONTINUOUS
10
1.69196
20
0.743059
11
1.69159
21
0.744972
0
LINE
8
BLACK
6
CONTINUOUS
10
1.69159
20
0.744972
11
1.69197
21
0.746885
0
LINE
8
BLACK
6
CONTINUOUS
10
1.69197
20
0.746885
11
1.69305
21
0.748507
0
LINE
8
BLACK
6
CONTINUOUS
10
1.69305
20
0.748507
11
1.70363
21
0.759063
0
LINE
8
BLACK
6
CONTINUOUS
10
1.70363
20
0.759063
11
1.71058
21
0.775813
0
LINE
8
BLACK
6
CONTINUOUS
10
1.71058
20
0.775813
11
1.7106
21
0.79395
0
LINE
8
BLACK
6
CONTINUOUS
10
1.7106
20
0.79395
11
1.70367
21
0.810713
0
LINE
8
BLACK
6
CONTINUOUS
10
1.70367
20
0.810713
11
1.69305
21
0.821357
0
LINE
8
BLACK
6
CONTINUOUS
10
1.69305
20
0.821357
11
1.69196
21
0.82298
0
LINE
8
BLACK
6
CONTINUOUS
10
1.69196
20
0.82298
11
1.69159
21
0.824894
0
LINE
8
BLACK
6
CONTINUOUS
10
1.69159
20
0.824894
11
1.69197
21
0.826807
0
LINE
8
BLACK
6
CONTINUOUS
10
1.69197
20
0.826807
11
1.69305
21
0.828428
0
LINE
8
BLACK
6
CONTINUOUS
10
1.69305
20
0.828428
11
1.70363
21
0.838984
0
LINE
8
BLACK
6
CONTINUOUS
10
1.70363
20
0.838984
11
1.71058
21
0.855734
0
LINE
8
BLACK
6
CONTINUOUS
10
1.71058
20
0.855734
11
1.7106
21
0.873871
0
LINE
8
BLACK
6
CONTINUOUS
10
1.7106
20
0.873871
11
1.70367
21
0.890634
0
LINE
8
BLACK
6
CONTINUOUS
10
1.70367
20
0.890634
11
1.69305
21
0.901278
0
LINE
8
BLACK
6
CONTINUOUS
10
1.69305
20
0.901278
11
1.69196
21
0.902901
0
LINE
8
BLACK
6
CONTINUOUS
10
1.69196
20
0.902901
11
1.69159
21
0.904815
0
LINE
8
BLACK
6
CONTINUOUS
10
1.69159
20
0.904815
11
1.69197
21
0.906728
0
LINE
8
BLACK
6
CONTINUOUS
10
1.69197
20
0.906728
11
1.69305
21
0.908349
0
LINE
8
BLACK
6
CONTINUOUS
10
1.69305
20
0.908349
11
1.70363
21
0.918905
0
LINE
8
BLACK
6
CONTINUOUS
10
1.70363
20
0.918905
11
1.71058
21
0.935655
0
LINE
8
BLACK
6
CONTINUOUS
10
1.71058
20
0.935655
11
1.7106
21
0.953793
0
LINE
8
BLACK
6
CONTINUOUS
10
1.7106
20
0.953793
11
1.70367
21
0.970555
0
LINE
8
BLACK
6
CONTINUOUS
10
1.70367
20
0.970555
11
1.69086
21
0.983391
0
LINE
8
BLACK
6
CONTINUOUS
10
1.69086
20
0.983391
11
1.67411
21
0.990346
0
LINE
8
BLACK
6
CONTINUOUS
10
1.67411
20
0.990346
11
1.65597
21
0.990362
0
LINE
8
BLACK
6
CONTINUOUS
10
1.65597
20
0.990362
11
1.63921
21
0.983436
0
LINE
8
BLACK
6
CONTINUOUS
10
1.63921
20
0.983436
11
1.62637
21
0.970622
0
LINE
8
BLACK
6
CONTINUOUS
10
1.62637
20
0.970622
11
1.61942
21
0.953872
0
LINE
8
BLACK
6
CONTINUOUS
10
1.61942
20
0.953872
11
1.61942
21
0.951286
0
LINE
8
BLACK
6
CONTINUOUS
10
1.61942
20
0.951286
11
1.61903
21
0.949373
0
LINE
8
BLACK
6
CONTINUOUS
10
1.61903
20
0.949373
11
1.61795
21
0.947752
0
LINE
8
BLACK
6
CONTINUOUS
10
1.61795
20
0.947752
11
1.61632
21
0.946669
0
LINE
8
BLACK
6
CONTINUOUS
10
1.61632
20
0.946669
11
1.61441
21
0.94629
0
LINE
8
BLACK
6
CONTINUOUS
10
1.61441
20
0.94629
11
1.6125
21
0.946673
0
LINE
8
BLACK
6
CONTINUOUS
10
1.6125
20
0.946673
11
1.60403
21
0.950189
0
LINE
8
BLACK
6
CONTINUOUS
10
1.60403
20
0.950189
11
1.58589
21
0.950205
0
LINE
8
BLACK
6
CONTINUOUS
10
1.58589
20
0.950205
11
1.56913
21
0.943279
0
LINE
8
BLACK
6
CONTINUOUS
10
1.56913
20
0.943279
11
1.55629
21
0.930465
0
LINE
8
BLACK
6
CONTINUOUS
10
1.55629
20
0.930465
11
1.54934
21
0.913715
0
LINE
8
BLACK
6
CONTINUOUS
10
1.54934
20
0.913715
11
1.54932
21
0.895901
0
LINE
8
BLACK
6
CONTINUOUS
10
1.54932
20
0.895901
11
1.54894
21
0.893988
0
LINE
8
BLACK
6
CONTINUOUS
10
1.54894
20
0.893988
11
1.54786
21
0.892367
0
LINE
8
BLACK
6
CONTINUOUS
10
1.54786
20
0.892367
11
1.54623
21
0.891284
0
LINE
8
BLACK
6
CONTINUOUS
10
1.54623
20
0.891284
11
1.54432
21
0.890906
0
LINE
8
BLACK
6
CONTINUOUS
10
1.54432
20
0.890906
11
1.52672
21
0.890906
0
LINE
8
BLACK
6
CONTINUOUS
10
1.52672
20
0.890906
11
1.52481
21
0.891286
0
LINE
8
BLACK
6
CONTINUOUS
10
1.52481
20
0.891286
11
1.52319
21
0.892373
0
LINE
8
BLACK
6
CONTINUOUS
10
1.52319
20
0.892373
11
1.52028
21
0.895288
0
LINE
8
BLACK
6
CONTINUOUS
10
1.52028
20
0.895288
11
1.50714
21
0.900742
0
LINE
8
BLACK
6
CONTINUOUS
10
1.50714
20
0.900742
11
1.49292
21
0.900754
0
LINE
8
BLACK
6
CONTINUOUS
10
1.49292
20
0.900754
11
1.47978
21
0.895323
0
LINE
8
BLACK
6
CONTINUOUS
10
1.47978
20
0.895323
11
1.46971
21
0.885276
0
LINE
8
BLACK
6
CONTINUOUS
10
1.46971
20
0.885276
11
1.46426
21
0.872142
0
LINE
8
BLACK
6
CONTINUOUS
10
1.46426
20
0.872142
11
1.46425
21
0.85792
0
LINE
8
BLACK
6
CONTINUOUS
10
1.46425
20
0.85792
11
1.46442
21
0.8575
0
LINE
8
BLACK
6
CONTINUOUS
10
1.46442
20
0.8575
11
1.4648
21
0.855586
0
LINE
8
BLACK
6
CONTINUOUS
10
1.4648
20
0.855586
11
1.46442
21
0.853673
0
LINE
8
BLACK
6
CONTINUOUS
10
1.46442
20
0.853673
11
1.46333
21
0.852052
0
LINE
8
BLACK
6
CONTINUOUS
10
1.46333
20
0.852052
11
1.46171
21
0.850969
0
LINE
8
BLACK
6
CONTINUOUS
10
1.46171
20
0.850969
11
1.4598
21
0.850591
0
LINE
8
BLACK
6
CONTINUOUS
10
1.4598
20
0.850591
11
1.45703
21
0.850591
0
LINE
8
BLACK
6
CONTINUOUS
10
1.45703
20
0.850591
11
1.45512
21
0.850971
0
LINE
8
BLACK
6
CONTINUOUS
10
1.45512
20
0.850971
11
1.45349
21
0.852058
0
LINE
8
BLACK
6
CONTINUOUS
10
1.45349
20
0.852058
11
1.44528
21
0.860288
0
LINE
8
BLACK
6
CONTINUOUS
10
1.44528
20
0.860288
11
1.43214
21
0.865742
0
LINE
8
BLACK
6
CONTINUOUS
10
1.43214
20
0.865742
11
1.41792
21
0.865754
0
LINE
8
BLACK
6
CONTINUOUS
10
1.41792
20
0.865754
11
1.40478
21
0.860323
0
LINE
8
BLACK
6
CONTINUOUS
10
1.40478
20
0.860323
11
1.39471
21
0.850276
0
LINE
8
BLACK
6
CONTINUOUS
10
1.39471
20
0.850276
11
1.38926
21
0.837142
0
LINE
8
BLACK
6
CONTINUOUS
10
1.38926
20
0.837142
11
1.38925
21
0.82292
0
LINE
8
BLACK
6
CONTINUOUS
10
1.38925
20
0.82292
11
1.39139
21
0.817736
0
LINE
8
BLACK
6
CONTINUOUS
10
1.39139
20
0.817736
11
1.39177
21
0.815822
0
LINE
8
BLACK
6
CONTINUOUS
10
1.39177
20
0.815822
11
1.39138
21
0.813909
0
LINE
8
BLACK
6
CONTINUOUS
10
1.39138
20
0.813909
11
1.3903
21
0.812288
0
LINE
8
BLACK
6
CONTINUOUS
10
1.3903
20
0.812288
11
1.38868
21
0.811206
0
LINE
8
BLACK
6
CONTINUOUS
10
1.38868
20
0.811206
11
1.38677
21
0.810827
0
LINE
8
BLACK
6
CONTINUOUS
10
1.38677
20
0.810827
11
1.35048
21
0.810827
0
LINE
8
BLACK
6
CONTINUOUS
10
1.35048
20
0.810827
11
1.34857
21
0.811207
0
LINE
8
BLACK
6
CONTINUOUS
10
1.34857
20
0.811207
11
1.34695
21
0.812291
0
LINE
8
BLACK
6
CONTINUOUS
10
1.34695
20
0.812291
11
1.34586
21
0.813917
0
LINE
8
BLACK
6
CONTINUOUS
10
1.34586
20
0.813917
11
1.34532
21
0.815223
0
LINE
8
BLACK
6
CONTINUOUS
10
1.34532
20
0.815223
11
1.33528
21
0.825288
0
LINE
8
BLACK
6
CONTINUOUS
10
1.33528
20
0.825288
11
1.32214
21
0.830742
0
LINE
8
BLACK
6
CONTINUOUS
10
1.32214
20
0.830742
11
1.30792
21
0.830754
0
LINE
8
BLACK
6
CONTINUOUS
10
1.30792
20
0.830754
11
1.29478
21
0.825323
0
LINE
8
BLACK
6
CONTINUOUS
10
1.29478
20
0.825323
11
1.28907
21
0.819629
0
LINE
8
BLACK
6
CONTINUOUS
10
1.28907
20
0.819629
11
1.28745
21
0.818546
0
LINE
8
BLACK
6
CONTINUOUS
10
1.28745
20
0.818546
11
1.28554
21
0.818167
0
LINE
8
BLACK
6
CONTINUOUS
10
1.28554
20
0.818167
11
1.28362
21
0.81855
0
LINE
8
BLACK
6
CONTINUOUS
10
1.28362
20
0.81855
11
1.282
21
0.819632
0
LINE
8
BLACK
6
CONTINUOUS
10
1.282
20
0.819632
11
1.26222
21
0.839421
0
LINE
8
BLACK
6
CONTINUOUS
10
1.26222
20
0.839421
11
1.26113
21
0.841043
0
LINE
8
BLACK
6
CONTINUOUS
10
1.26113
20
0.841043
11
1.26075
21
0.842961
0
LINE
8
BLACK
6
CONTINUOUS
10
1.26075
20
0.842961
11
1.26075
21
0.84708
0
LINE
8
BLACK
6
CONTINUOUS
10
1.26075
20
0.84708
11
1.25532
21
0.860223
0
LINE
8
BLACK
6
CONTINUOUS
10
1.25532
20
0.860223
11
1.24528
21
0.870288
0
LINE
8
BLACK
6
CONTINUOUS
10
1.24528
20
0.870288
11
1.23214
21
0.875742
0
LINE
8
BLACK
6
CONTINUOUS
10
1.23214
20
0.875742
11
1.21792
21
0.875754
0
LINE
8
BLACK
6
CONTINUOUS
10
1.21792
20
0.875754
11
1.20478
21
0.870323
0
LINE
8
BLACK
6
CONTINUOUS
10
1.20478
20
0.870323
11
1.19471
21
0.860276
0
LINE
8
BLACK
6
CONTINUOUS
10
1.19471
20
0.860276
11
1.19073
21
0.85068
0
LINE
8
BLACK
6
CONTINUOUS
10
1.19073
20
0.85068
11
1.18964
21
0.849059
0
LINE
8
BLACK
6
CONTINUOUS
10
1.18964
20
0.849059
11
1.18802
21
0.847976
0
LINE
8
BLACK
6
CONTINUOUS
10
1.18802
20
0.847976
11
1.18611
21
0.847597
0
LINE
8
BLACK
6
CONTINUOUS
10
1.18611
20
0.847597
11
1.18419
21
0.84798
0
LINE
8
BLACK
6
CONTINUOUS
10
1.18419
20
0.84798
11
1.18257
21
0.849062
0
LINE
8
BLACK
6
CONTINUOUS
10
1.18257
20
0.849062
11
1.15722
21
0.874421
0
LINE
8
BLACK
6
CONTINUOUS
10
1.15722
20
0.874421
11
1.15613
21
0.876043
0
LINE
8
BLACK
6
CONTINUOUS
10
1.15613
20
0.876043
11
1.15575
21
0.877961
0
LINE
8
BLACK
6
CONTINUOUS
10
1.15575
20
0.877961
11
1.15575
21
0.88208
0
LINE
8
BLACK
6
CONTINUOUS
10
1.15575
20
0.88208
11
1.15032
21
0.895223
0
LINE
8
BLACK
6
CONTINUOUS
10
1.15032
20
0.895223
11
1.14028
21
0.905288
0
LINE
8
BLACK
6
CONTINUOUS
10
1.14028
20
0.905288
11
1.12714
21
0.910742
0
LINE
8
BLACK
6
CONTINUOUS
10
1.12714
20
0.910742
11
1.11292
21
0.910754
0
LINE
8
BLACK
6
CONTINUOUS
10
1.11292
20
0.910754
11
1.09978
21
0.905323
0
LINE
8
BLACK
6
CONTINUOUS
10
1.09978
20
0.905323
11
1.08971
21
0.895276
0
LINE
8
BLACK
6
CONTINUOUS
10
1.08971
20
0.895276
11
1.08719
21
0.889213
0
LINE
8
BLACK
6
CONTINUOUS
10
1.08719
20
0.889213
11
1.08611
21
0.887592
0
LINE
8
BLACK
6
CONTINUOUS
10
1.08611
20
0.887592
11
1.08449
21
0.886509
0
LINE
8
BLACK
6
CONTINUOUS
10
1.08449
20
0.886509
11
1.08257
21
0.88613
0
LINE
8
BLACK
6
CONTINUOUS
10
1.08257
20
0.88613
11
1.08066
21
0.886513
0
LINE
8
BLACK
6
CONTINUOUS
10
1.08066
20
0.886513
11
1.07904
21
0.887595
0
LINE
8
BLACK
6
CONTINUOUS
10
1.07904
20
0.887595
11
1.05722
21
0.909421
0
LINE
8
BLACK
6
CONTINUOUS
10
1.05722
20
0.909421
11
1.05613
21
0.911043
0
LINE
8
BLACK
6
CONTINUOUS
10
1.05613
20
0.911043
11
1.05575
21
0.912961
0
LINE
8
BLACK
6
CONTINUOUS
10
1.05575
20
0.912961
11
1.05575
21
0.91708
0
LINE
8
BLACK
6
CONTINUOUS
10
1.05575
20
0.91708
11
1.05032
21
0.930223
0
LINE
8
BLACK
6
CONTINUOUS
10
1.05032
20
0.930223
11
1.04028
21
0.940288
0
LINE
8
BLACK
6
CONTINUOUS
10
1.04028
20
0.940288
11
1.02714
21
0.945742
0
LINE
8
BLACK
6
CONTINUOUS
10
1.02714
20
0.945742
11
1.01292
21
0.945754
0
LINE
8
BLACK
6
CONTINUOUS
10
1.01292
20
0.945754
11
0.999777
21
0.940323
0
LINE
8
BLACK
6
CONTINUOUS
10
0.999777
20
0.940323
11
0.989712
21
0.930276
0
LINE
8
BLACK
6
CONTINUOUS
10
0.989712
20
0.930276
11
0.984258
21
0.917142
0
LINE
8
BLACK
6
CONTINUOUS
10
0.984258
20
0.917142
11
0.984246
21
0.90292
0
LINE
8
BLACK
6
CONTINUOUS
10
0.984246
20
0.90292
11
0.989677
21
0.889777
0
LINE
8
BLACK
6
CONTINUOUS
10
0.989677
20
0.889777
11
0.999724
21
0.879712
0
LINE
8
BLACK
6
CONTINUOUS
10
1.4119
20
0.563669
11
1.4181
21
0.56146
0
LINE
8
BLACK
6
CONTINUOUS
10
1.4181
20
0.56146
11
1.42366
21
0.557933
0
LINE
8
BLACK
6
CONTINUOUS
10
1.42366
20
0.557933
11
1.4283
21
0.553262
0
LINE
8
BLACK
6
CONTINUOUS
10
1.4283
20
0.553262
11
1.43179
21
0.54768
0
LINE
8
BLACK
6
CONTINUOUS
10
1.43179
20
0.54768
11
1.43395
21
0.541463
0
LINE
8
BLACK
6
CONTINUOUS
10
1.43395
20
0.541463
11
1.43469
21
0.534921
0
LINE
8
BLACK
6
CONTINUOUS
10
1.43469
20
0.534921
11
1.43467
21
0.534097
0
LINE
8
BLACK
6
CONTINUOUS
10
1.43467
20
0.534097
11
1.43376
21
0.527578
0
LINE
8
BLACK
6
CONTINUOUS
10
1.43376
20
0.527578
11
1.43142
21
0.521424
0
LINE
8
BLACK
6
CONTINUOUS
10
1.43142
20
0.521424
11
1.42778
21
0.515941
0
LINE
8
BLACK
6
CONTINUOUS
10
1.42778
20
0.515941
11
1.42301
21
0.511402
0
LINE
8
BLACK
6
CONTINUOUS
10
1.42301
20
0.511402
11
1.41736
21
0.508031
0
LINE
8
BLACK
6
CONTINUOUS
10
1.41736
20
0.508031
11
1.41109
21
0.505997
0
LINE
8
BLACK
6
CONTINUOUS
10
1.41109
20
0.505997
11
1.40454
21
0.5054
0
LINE
8
BLACK
6
CONTINUOUS
10
1.40454
20
0.5054
11
1.39801
21
0.506271
0
LINE
8
BLACK
6
CONTINUOUS
10
1.39801
20
0.506271
11
1.39184
21
0.508565
0
LINE
8
BLACK
6
CONTINUOUS
10
1.39184
20
0.508565
11
1.38634
21
0.51217
0
LINE
8
BLACK
6
CONTINUOUS
10
1.38634
20
0.51217
11
1.38176
21
0.516905
0
LINE
8
BLACK
6
CONTINUOUS
10
1.38176
20
0.516905
11
1.37835
21
0.522536
0
LINE
8
BLACK
6
CONTINUOUS
10
1.37835
20
0.522536
11
1.37628
21
0.528782
0
LINE
8
BLACK
6
CONTINUOUS
10
1.37628
20
0.528782
11
1.37563
21
0.535334
0
LINE
8
BLACK
6
CONTINUOUS
10
1.37563
20
0.535334
11
1.37646
21
0.541864
0
LINE
8
BLACK
6
CONTINUOUS
10
1.37646
20
0.541864
11
1.37871
21
0.54805
0
LINE
8
BLACK
6
CONTINUOUS
10
1.37871
20
0.54805
11
1.38228
21
0.553584
0
LINE
8
BLACK
6
CONTINUOUS
10
1.38228
20
0.553584
11
1.38698
21
0.558189
0
LINE
8
BLACK
6
CONTINUOUS
10
1.38698
20
0.558189
11
1.39259
21
0.561639
0
LINE
8
BLACK
6
CONTINUOUS
10
1.39259
20
0.561639
11
1.39882
21
0.56376
0
LINE
8
BLACK
6
CONTINUOUS
10
1.39882
20
0.56376
11
1.40536
21
0.564448
0
LINE
8
BLACK
6
CONTINUOUS
10
1.40536
20
0.564448
11
1.4119
21
0.563669
0
LINE
8
BLACK
6
CONTINUOUS
10
1.26182
20
0.61859
11
1.26802
21
0.616382
0
LINE
8
BLACK
6
CONTINUOUS
10
1.26802
20
0.616382
11
1.27358
21
0.612854
0
LINE
8
BLACK
6
CONTINUOUS
10
1.27358
20
0.612854
11
1.27822
21
0.608184
0
LINE
8
BLACK
6
CONTINUOUS
10
1.27822
20
0.608184
11
1.28171
21
0.602601
0
LINE
8
BLACK
6
CONTINUOUS
10
1.28171
20
0.602601
11
1.28387
21
0.596384
0
LINE
8
BLACK
6
CONTINUOUS
10
1.28387
20
0.596384
11
1.28461
21
0.589843
0
LINE
8
BLACK
6
CONTINUOUS
10
1.28461
20
0.589843
11
1.28459
21
0.589018
0
LINE
8
BLACK
6
CONTINUOUS
10
1.28459
20
0.589018
11
1.28368
21
0.582499
0
LINE
8
BLACK
6
CONTINUOUS
10
1.28368
20
0.582499
11
1.28134
21
0.576346
0
LINE
8
BLACK
6
CONTINUOUS
10
1.28134
20
0.576346
11
1.2777
21
0.570863
0
LINE
8
BLACK
6
CONTINUOUS
10
1.2777
20
0.570863
11
1.27293
21
0.566323
0
LINE
8
BLACK
6
CONTINUOUS
10
1.27293
20
0.566323
11
1.26728
21
0.562952
0
LINE
8
BLACK
6
CONTINUOUS
10
1.26728
20
0.562952
11
1.26102
21
0.560918
0
LINE
8
BLACK
6
CONTINUOUS
10
1.26102
20
0.560918
11
1.25446
21
0.560321
0
LINE
8
BLACK
6
CONTINUOUS
10
1.25446
20
0.560321
11
1.24794
21
0.561192
0
LINE
8
BLACK
6
CONTINUOUS
10
1.24794
20
0.561192
11
1.24177
21
0.563487
0
LINE
8
BLACK
6
CONTINUOUS
10
1.24177
20
0.563487
11
1.23626
21
0.567091
0
LINE
8
BLACK
6
CONTINUOUS
10
1.23626
20
0.567091
11
1.23168
21
0.571826
0
LINE
8
BLACK
6
CONTINUOUS
10
1.23168
20
0.571826
11
1.22827
21
0.577457
0
LINE
8
BLACK
6
CONTINUOUS
10
1.22827
20
0.577457
11
1.2262
21
0.583703
0
LINE
8
BLACK
6
CONTINUOUS
10
1.2262
20
0.583703
11
1.22555
21
0.590255
0
LINE
8
BLACK
6
CONTINUOUS
10
1.22555
20
0.590255
11
1.22638
21
0.596786
0
LINE
8
BLACK
6
CONTINUOUS
10
1.22638
20
0.596786
11
1.22863
21
0.602971
0
LINE
8
BLACK
6
CONTINUOUS
10
1.22863
20
0.602971
11
1.2322
21
0.608505
0
LINE
8
BLACK
6
CONTINUOUS
10
1.2322
20
0.608505
11
1.2369
21
0.613111
0
LINE
8
BLACK
6
CONTINUOUS
10
1.2369
20
0.613111
11
1.24251
21
0.61656
0
LINE
8
BLACK
6
CONTINUOUS
10
1.24251
20
0.61656
11
1.24874
21
0.618681
0
LINE
8
BLACK
6
CONTINUOUS
10
1.24874
20
0.618681
11
1.25528
21
0.619369
0
LINE
8
BLACK
6
CONTINUOUS
10
1.25528
20
0.619369
11
1.26182
21
0.61859
0
LINE
8
BLACK
6
CONTINUOUS
10
1.17166
20
0.61859
11
1.17787
21
0.616382
0
LINE
8
BLACK
6
CONTINUOUS
10
1.17787
20
0.616382
11
1.18342
21
0.612854
0
LINE
8
BLACK
6
CONTINUOUS
10
1.18342
20
0.612854
11
1.18806
21
0.608184
0
LINE
8
BLACK
6
CONTINUOUS
10
1.18806
20
0.608184
11
1.19155
21
0.602601
0
LINE
8
BLACK
6
CONTINUOUS
10
1.19155
20
0.602601
11
1.19372
21
0.596384
0
LINE
8
BLACK
6
CONTINUOUS
10
1.19372
20
0.596384
11
1.19445
21
0.589843
0
LINE
8
BLACK
6
CONTINUOUS
10
1.19445
20
0.589843
11
1.19444
21
0.589018
0
LINE
8
BLACK
6
CONTINUOUS
10
1.19444
20
0.589018
11
1.19352
21
0.582499
0
LINE
8
BLACK
6
CONTINUOUS
10
1.19352
20
0.582499
11
1.19118
21
0.576346
0
LINE
8
BLACK
6
CONTINUOUS
10
1.19118
20
0.576346
11
1.18754
21
0.570863
0
LINE
8
BLACK
6
CONTINUOUS
10
1.18754
20
0.570863
11
1.18277
21
0.566323
0
LINE
8
BLACK
6
CONTINUOUS
10
1.18277
20
0.566323
11
1.17712
21
0.562952
0
LINE
8
BLACK
6
CONTINUOUS
10
1.17712
20
0.562952
11
1.17086
21
0.560918
0
LINE
8
BLACK
6
CONTINUOUS
10
1.17086
20
0.560918
11
1.1643
21
0.560321
0
LINE
8
BLACK
6
CONTINUOUS
10
1.1643
20
0.560321
11
1.15778
21
0.561192
0
LINE
8
BLACK
6
CONTINUOUS
10
1.15778
20
0.561192
11
1.15161
21
0.563487
0
LINE
8
BLACK
6
CONTINUOUS
10
1.15161
20
0.563487
11
1.1461
21
0.567091
0
LINE
8
BLACK
6
CONTINUOUS
10
1.1461
20
0.567091
11
1.14153
21
0.571826
0
LINE
8
BLACK
6
CONTINUOUS
10
1.14153
20
0.571826
11
1.13812
21
0.577457
0
LINE
8
BLACK
6
CONTINUOUS
10
1.13812
20
0.577457
11
1.13604
21
0.583703
0
LINE
8
BLACK
6
CONTINUOUS
10
1.13604
20
0.583703
11
1.1354
21
0.590255
0
LINE
8
BLACK
6
CONTINUOUS
10
1.1354
20
0.590255
11
1.13622
21
0.596786
0
LINE
8
BLACK
6
CONTINUOUS
10
1.13622
20
0.596786
11
1.13847
21
0.602971
0
LINE
8
BLACK
6
CONTINUOUS
10
1.13847
20
0.602971
11
1.14204
21
0.608505
0
LINE
8
BLACK
6
CONTINUOUS
10
1.14204
20
0.608505
11
1.14674
21
0.613111
0
LINE
8
BLACK
6
CONTINUOUS
10
1.14674
20
0.613111
11
1.15235
21
0.61656
0
LINE
8
BLACK
6
CONTINUOUS
10
1.15235
20
0.61656
11
1.15858
21
0.618681
0
LINE
8
BLACK
6
CONTINUOUS
10
1.15858
20
0.618681
11
1.16513
21
0.619369
0
LINE
8
BLACK
6
CONTINUOUS
10
1.16513
20
0.619369
11
1.17166
21
0.61859
0
LINE
8
BLACK
6
CONTINUOUS
10
1.4119
20
0.653826
11
1.4181
21
0.651618
0
LINE
8
BLACK
6
CONTINUOUS
10
1.4181
20
0.651618
11
1.42366
21
0.648091
0
LINE
8
BLACK
6
CONTINUOUS
10
1.42366
20
0.648091
11
1.4283
21
0.64342
0
LINE
8
BLACK
6
CONTINUOUS
10
1.4283
20
0.64342
11
1.43179
21
0.637837
0
LINE
8
BLACK
6
CONTINUOUS
10
1.43179
20
0.637837
11
1.43395
21
0.631621
0
LINE
8
BLACK
6
CONTINUOUS
10
1.43395
20
0.631621
11
1.43469
21
0.625079
0
LINE
8
BLACK
6
CONTINUOUS
10
1.43469
20
0.625079
11
1.43467
21
0.624254
0
LINE
8
BLACK
6
CONTINUOUS
10
1.43467
20
0.624254
11
1.43376
21
0.617736
0
LINE
8
BLACK
6
CONTINUOUS
10
1.43376
20
0.617736
11
1.43142
21
0.611582
0
LINE
8
BLACK
6
CONTINUOUS
10
1.43142
20
0.611582
11
1.42778
21
0.606099
0
LINE
8
BLACK
6
CONTINUOUS
10
1.42778
20
0.606099
11
1.42301
21
0.601559
0
LINE
8
BLACK
6
CONTINUOUS
10
1.42301
20
0.601559
11
1.41736
21
0.598188
0
LINE
8
BLACK
6
CONTINUOUS
10
1.41736
20
0.598188
11
1.41109
21
0.596154
0
LINE
8
BLACK
6
CONTINUOUS
10
1.41109
20
0.596154
11
1.40454
21
0.595558
0
LINE
8
BLACK
6
CONTINUOUS
10
1.40454
20
0.595558
11
1.39801
21
0.596428
0
LINE
8
BLACK
6
CONTINUOUS
10
1.39801
20
0.596428
11
1.39184
21
0.598723
0
LINE
8
BLACK
6
CONTINUOUS
10
1.39184
20
0.598723
11
1.38634
21
0.602327
0
LINE
8
BLACK
6
CONTINUOUS
10
1.38634
20
0.602327
11
1.38176
21
0.607063
0
LINE
8
BLACK
6
CONTINUOUS
10
1.38176
20
0.607063
11
1.37835
21
0.612693
0
LINE
8
BLACK
6
CONTINUOUS
10
1.37835
20
0.612693
11
1.37628
21
0.61894
0
LINE
8
BLACK
6
CONTINUOUS
10
1.37628
20
0.61894
11
1.37563
21
0.625491
0
LINE
8
BLACK
6
CONTINUOUS
10
1.37563
20
0.625491
11
1.37646
21
0.632022
0
LINE
8
BLACK
6
CONTINUOUS
10
1.37646
20
0.632022
11
1.37871
21
0.638208
0
LINE
8
BLACK
6
CONTINUOUS
10
1.37871
20
0.638208
11
1.38228
21
0.643741
0
LINE
8
BLACK
6
CONTINUOUS
10
1.38228
20
0.643741
11
1.38698
21
0.648347
0
LINE
8
BLACK
6
CONTINUOUS
10
1.38698
20
0.648347
11
1.39259
21
0.651796
0
LINE
8
BLACK
6
CONTINUOUS
10
1.39259
20
0.651796
11
1.39882
21
0.653917
0
LINE
8
BLACK
6
CONTINUOUS
10
1.39882
20
0.653917
11
1.40536
21
0.654606
0
LINE
8
BLACK
6
CONTINUOUS
10
1.40536
20
0.654606
11
1.4119
21
0.653826
0
LINE
8
BLACK
6
CONTINUOUS
10
1.54857
20
0.680906
11
1.54932
21
0.680704
0
LINE
8
BLACK
6
CONTINUOUS
10
1.54932
20
0.680704
11
1.5501
21
0.680704
0
LINE
8
BLACK
6
CONTINUOUS
10
1.5501
20
0.680704
11
1.55078
21
0.680316
0
LINE
8
BLACK
6
CONTINUOUS
10
1.55078
20
0.680316
11
1.55153
21
0.680114
0
LINE
8
BLACK
6
CONTINUOUS
10
1.55153
20
0.680114
11
1.55208
21
0.679565
0
LINE
8
BLACK
6
CONTINUOUS
10
1.55208
20
0.679565
11
1.55275
21
0.679176
0
LINE
8
BLACK
6
CONTINUOUS
10
1.55275
20
0.679176
11
1.56118
21
0.670748
0
LINE
8
BLACK
6
CONTINUOUS
10
1.56118
20
0.670748
11
1.57007
21
0.670748
0
LINE
8
BLACK
6
CONTINUOUS
10
1.57007
20
0.670748
11
1.57013
21
0.671207
0
LINE
8
BLACK
6
CONTINUOUS
10
1.57013
20
0.671207
11
1.57237
21
0.676935
0
LINE
8
BLACK
6
CONTINUOUS
10
1.57237
20
0.676935
11
1.5759
21
0.681966
0
LINE
8
BLACK
6
CONTINUOUS
10
1.5759
20
0.681966
11
1.58054
21
0.686008
0
LINE
8
BLACK
6
CONTINUOUS
10
1.58054
20
0.686008
11
1.586
21
0.688828
0
LINE
8
BLACK
6
CONTINUOUS
10
1.586
20
0.688828
11
1.59198
21
0.690263
0
LINE
8
BLACK
6
CONTINUOUS
10
1.59198
20
0.690263
11
1.59813
21
0.690231
0
LINE
8
BLACK
6
CONTINUOUS
10
1.59813
20
0.690231
11
1.60409
21
0.688733
0
LINE
8
BLACK
6
CONTINUOUS
10
1.60409
20
0.688733
11
1.60953
21
0.685856
0
LINE
8
BLACK
6
CONTINUOUS
10
1.60953
20
0.685856
11
1.61412
21
0.681766
0
LINE
8
BLACK
6
CONTINUOUS
10
1.61412
20
0.681766
11
1.6176
21
0.676699
0
LINE
8
BLACK
6
CONTINUOUS
10
1.6176
20
0.676699
11
1.61977
21
0.670947
0
LINE
8
BLACK
6
CONTINUOUS
10
1.61977
20
0.670947
11
1.62051
21
0.664843
0
LINE
8
BLACK
6
CONTINUOUS
10
1.62051
20
0.664843
11
1.62051
21
0.664307
0
LINE
8
BLACK
6
CONTINUOUS
10
1.62051
20
0.664307
11
1.61964
21
0.658219
0
LINE
8
BLACK
6
CONTINUOUS
10
1.61964
20
0.658219
11
1.61735
21
0.652514
0
LINE
8
BLACK
6
CONTINUOUS
10
1.61735
20
0.652514
11
1.61376
21
0.647521
0
LINE
8
BLACK
6
CONTINUOUS
10
1.61376
20
0.647521
11
1.60908
21
0.643528
0
LINE
8
BLACK
6
CONTINUOUS
10
1.60908
20
0.643528
11
1.60359
21
0.640765
0
LINE
8
BLACK
6
CONTINUOUS
10
1.60359
20
0.640765
11
1.5976
21
0.639392
0
LINE
8
BLACK
6
CONTINUOUS
10
1.5976
20
0.639392
11
1.59145
21
0.639489
0
LINE
8
BLACK
6
CONTINUOUS
10
1.59145
20
0.639489
11
1.5855
21
0.641049
0
LINE
8
BLACK
6
CONTINUOUS
10
1.5855
20
0.641049
11
1.5801
21
0.643983
0
LINE
8
BLACK
6
CONTINUOUS
10
1.5801
20
0.643983
11
1.57555
21
0.648121
0
LINE
8
BLACK
6
CONTINUOUS
10
1.57555
20
0.648121
11
1.57212
21
0.653225
0
LINE
8
BLACK
6
CONTINUOUS
10
1.57212
20
0.653225
11
1.57003
21
0.658937
0
LINE
8
BLACK
6
CONTINUOUS
10
1.57003
20
0.658937
11
1.55873
21
0.658937
0
LINE
8
BLACK
6
CONTINUOUS
10
1.55873
20
0.658937
11
1.55798
21
0.659138
0
LINE
8
BLACK
6
CONTINUOUS
10
1.55798
20
0.659138
11
1.5572
21
0.659138
0
LINE
8
BLACK
6
CONTINUOUS
10
1.5572
20
0.659138
11
1.55653
21
0.659527
0
LINE
8
BLACK
6
CONTINUOUS
10
1.55653
20
0.659527
11
1.55578
21
0.659728
0
LINE
8
BLACK
6
CONTINUOUS
10
1.55578
20
0.659728
11
1.55523
21
0.660278
0
LINE
8
BLACK
6
CONTINUOUS
10
1.55523
20
0.660278
11
1.55455
21
0.660667
0
LINE
8
BLACK
6
CONTINUOUS
10
1.55455
20
0.660667
11
1.54613
21
0.669094
0
LINE
8
BLACK
6
CONTINUOUS
10
1.54613
20
0.669094
11
1.255
21
0.669094
0
LINE
8
BLACK
6
CONTINUOUS
10
1.255
20
0.669094
11
1.25425
21
0.669296
0
LINE
8
BLACK
6
CONTINUOUS
10
1.25425
20
0.669296
11
1.25347
21
0.669296
0
LINE
8
BLACK
6
CONTINUOUS
10
1.25347
20
0.669296
11
1.2528
21
0.669684
0
LINE
8
BLACK
6
CONTINUOUS
10
1.2528
20
0.669684
11
1.25205
21
0.669886
0
LINE
8
BLACK
6
CONTINUOUS
10
1.25205
20
0.669886
11
1.2515
21
0.670435
0
LINE
8
BLACK
6
CONTINUOUS
10
1.2515
20
0.670435
11
1.25082
21
0.670824
0
LINE
8
BLACK
6
CONTINUOUS
10
1.25082
20
0.670824
11
1.02603
21
0.895617
0
LINE
8
BLACK
6
CONTINUOUS
10
1.02603
20
0.895617
11
1.02487
21
0.895023
0
LINE
8
BLACK
6
CONTINUOUS
10
1.02487
20
0.895023
11
1.02
21
0.894252
0
LINE
8
BLACK
6
CONTINUOUS
10
1.02
20
0.894252
11
1.01513
21
0.895023
0
LINE
8
BLACK
6
CONTINUOUS
10
1.01513
20
0.895023
11
1.01074
21
0.89726
0
LINE
8
BLACK
6
CONTINUOUS
10
1.01074
20
0.89726
11
1.00726
21
0.900744
0
LINE
8
BLACK
6
CONTINUOUS
10
1.00726
20
0.900744
11
1.00502
21
0.905134
0
LINE
8
BLACK
6
CONTINUOUS
10
1.00502
20
0.905134
11
1.00425
21
0.91
0
LINE
8
BLACK
6
CONTINUOUS
10
1.00425
20
0.91
11
1.00502
21
0.914866
0
LINE
8
BLACK
6
CONTINUOUS
10
1.00502
20
0.914866
11
1.00726
21
0.919256
0
LINE
8
BLACK
6
CONTINUOUS
10
1.00726
20
0.919256
11
1.01074
21
0.92274
0
LINE
8
BLACK
6
CONTINUOUS
10
1.01074
20
0.92274
11
1.01513
21
0.924977
0
LINE
8
BLACK
6
CONTINUOUS
10
1.01513
20
0.924977
11
1.02
21
0.925748
0
LINE
8
BLACK
6
CONTINUOUS
10
1.02
20
0.925748
11
1.02487
21
0.924977
0
LINE
8
BLACK
6
CONTINUOUS
10
1.02487
20
0.924977
11
1.02926
21
0.92274
0
LINE
8
BLACK
6
CONTINUOUS
10
1.02926
20
0.92274
11
1.03274
21
0.919256
0
LINE
8
BLACK
6
CONTINUOUS
10
1.03274
20
0.919256
11
1.03498
21
0.914866
0
LINE
8
BLACK
6
CONTINUOUS
10
1.03498
20
0.914866
11
1.03575
21
0.91
0
LINE
8
BLACK
6
CONTINUOUS
10
1.03575
20
0.91
11
1.03498
21
0.905134
0
LINE
8
BLACK
6
CONTINUOUS
10
1.03498
20
0.905134
11
1.03438
21
0.903968
0
LINE
8
BLACK
6
CONTINUOUS
10
1.03438
20
0.903968
11
1.25745
21
0.680906
0
LINE
8
BLACK
6
CONTINUOUS
10
1.25745
20
0.680906
11
1.54857
21
0.680906
0
LINE
8
BLACK
6
CONTINUOUS
10
1.64015
20
0.710906
11
1.64021
21
0.711364
0
LINE
8
BLACK
6
CONTINUOUS
10
1.64021
20
0.711364
11
1.64245
21
0.717093
0
LINE
8
BLACK
6
CONTINUOUS
10
1.64245
20
0.717093
11
1.64598
21
0.722123
0
LINE
8
BLACK
6
CONTINUOUS
10
1.64598
20
0.722123
11
1.65062
21
0.726165
0
LINE
8
BLACK
6
CONTINUOUS
10
1.65062
20
0.726165
11
1.65608
21
0.728986
0
LINE
8
BLACK
6
CONTINUOUS
10
1.65608
20
0.728986
11
1.66206
21
0.730421
0
LINE
8
BLACK
6
CONTINUOUS
10
1.66206
20
0.730421
11
1.66821
21
0.730389
0
LINE
8
BLACK
6
CONTINUOUS
10
1.66821
20
0.730389
11
1.67417
21
0.728891
0
LINE
8
BLACK
6
CONTINUOUS
10
1.67417
20
0.728891
11
1.6796
21
0.726014
0
LINE
8
BLACK
6
CONTINUOUS
10
1.6796
20
0.726014
11
1.6842
21
0.721923
0
LINE
8
BLACK
6
CONTINUOUS
10
1.6842
20
0.721923
11
1.68768
21
0.716856
0
LINE
8
BLACK
6
CONTINUOUS
10
1.68768
20
0.716856
11
1.68985
21
0.711104
0
LINE
8
BLACK
6
CONTINUOUS
10
1.68985
20
0.711104
11
1.69059
21
0.705
0
LINE
8
BLACK
6
CONTINUOUS
10
1.69059
20
0.705
11
1.69058
21
0.704464
0
LINE
8
BLACK
6
CONTINUOUS
10
1.69058
20
0.704464
11
1.68972
21
0.698377
0
LINE
8
BLACK
6
CONTINUOUS
10
1.68972
20
0.698377
11
1.68743
21
0.692672
0
LINE
8
BLACK
6
CONTINUOUS
10
1.68743
20
0.692672
11
1.68384
21
0.687678
0
LINE
8
BLACK
6
CONTINUOUS
10
1.68384
20
0.687678
11
1.67916
21
0.683685
0
LINE
8
BLACK
6
CONTINUOUS
10
1.67916
20
0.683685
11
1.67367
21
0.680922
0
LINE
8
BLACK
6
CONTINUOUS
10
1.67367
20
0.680922
11
1.66767
21
0.67955
0
LINE
8
BLACK
6
CONTINUOUS
10
1.66767
20
0.67955
11
1.66153
21
0.679646
0
LINE
8
BLACK
6
CONTINUOUS
10
1.66153
20
0.679646
11
1.65558
21
0.681206
0
LINE
8
BLACK
6
CONTINUOUS
10
1.65558
20
0.681206
11
1.65018
21
0.68414
0
LINE
8
BLACK
6
CONTINUOUS
10
1.65018
20
0.68414
11
1.64563
21
0.688279
0
LINE
8
BLACK
6
CONTINUOUS
10
1.64563
20
0.688279
11
1.6422
21
0.693382
0
LINE
8
BLACK
6
CONTINUOUS
10
1.6422
20
0.693382
11
1.64011
21
0.699094
0
LINE
8
BLACK
6
CONTINUOUS
10
1.64011
20
0.699094
11
1.29
21
0.699094
0
LINE
8
BLACK
6
CONTINUOUS
10
1.29
20
0.699094
11
1.28925
21
0.699296
0
LINE
8
BLACK
6
CONTINUOUS
10
1.28925
20
0.699296
11
1.28847
21
0.699296
0
LINE
8
BLACK
6
CONTINUOUS
10
1.28847
20
0.699296
11
1.2878
21
0.699684
0
LINE
8
BLACK
6
CONTINUOUS
10
1.2878
20
0.699684
11
1.28705
21
0.699886
0
LINE
8
BLACK
6
CONTINUOUS
10
1.28705
20
0.699886
11
1.2865
21
0.700435
0
LINE
8
BLACK
6
CONTINUOUS
10
1.2865
20
0.700435
11
1.28582
21
0.700824
0
LINE
8
BLACK
6
CONTINUOUS
10
1.28582
20
0.700824
11
1.12603
21
0.860617
0
LINE
8
BLACK
6
CONTINUOUS
10
1.12603
20
0.860617
11
1.12487
21
0.860023
0
LINE
8
BLACK
6
CONTINUOUS
10
1.12487
20
0.860023
11
1.12
21
0.859252
0
LINE
8
BLACK
6
CONTINUOUS
10
1.12
20
0.859252
11
1.11513
21
0.860023
0
LINE
8
BLACK
6
CONTINUOUS
10
1.11513
20
0.860023
11
1.11074
21
0.86226
0
LINE
8
BLACK
6
CONTINUOUS
10
1.11074
20
0.86226
11
1.10726
21
0.865744
0
LINE
8
BLACK
6
CONTINUOUS
10
1.10726
20
0.865744
11
1.10502
21
0.870134
0
LINE
8
BLACK
6
CONTINUOUS
10
1.10502
20
0.870134
11
1.10425
21
0.875
0
LINE
8
BLACK
6
CONTINUOUS
10
1.10425
20
0.875
11
1.10502
21
0.879866
0
LINE
8
BLACK
6
CONTINUOUS
10
1.10502
20
0.879866
11
1.10726
21
0.884256
0
LINE
8
BLACK
6
CONTINUOUS
10
1.10726
20
0.884256
11
1.11074
21
0.88774
0
LINE
8
BLACK
6
CONTINUOUS
10
1.11074
20
0.88774
11
1.11513
21
0.889977
0
LINE
8
BLACK
6
CONTINUOUS
10
1.11513
20
0.889977
11
1.12
21
0.890748
0
LINE
8
BLACK
6
CONTINUOUS
10
1.12
20
0.890748
11
1.12487
21
0.889977
0
LINE
8
BLACK
6
CONTINUOUS
10
1.12487
20
0.889977
11
1.12926
21
0.88774
0
LINE
8
BLACK
6
CONTINUOUS
10
1.12926
20
0.88774
11
1.13274
21
0.884256
0
LINE
8
BLACK
6
CONTINUOUS
10
1.13274
20
0.884256
11
1.13498
21
0.879866
0
LINE
8
BLACK
6
CONTINUOUS
10
1.13498
20
0.879866
11
1.13575
21
0.875
0
LINE
8
BLACK
6
CONTINUOUS
10
1.13575
20
0.875
11
1.13498
21
0.870134
0
LINE
8
BLACK
6
CONTINUOUS
10
1.13498
20
0.870134
11
1.13438
21
0.868968
0
LINE
8
BLACK
6
CONTINUOUS
10
1.13438
20
0.868968
11
1.29245
21
0.710906
0
LINE
8
BLACK
6
CONTINUOUS
10
1.29245
20
0.710906
11
1.64015
21
0.710906
0
LINE
8
BLACK
6
CONTINUOUS
10
1.57007
20
0.750669
11
1.57013
21
0.751128
0
LINE
8
BLACK
6
CONTINUOUS
10
1.57013
20
0.751128
11
1.57237
21
0.756857
0
LINE
8
BLACK
6
CONTINUOUS
10
1.57237
20
0.756857
11
1.5759
21
0.761887
0
LINE
8
BLACK
6
CONTINUOUS
10
1.5759
20
0.761887
11
1.58054
21
0.765929
0
LINE
8
BLACK
6
CONTINUOUS
10
1.58054
20
0.765929
11
1.586
21
0.768749
0
LINE
8
BLACK
6
CONTINUOUS
10
1.586
20
0.768749
11
1.59198
21
0.770185
0
LINE
8
BLACK
6
CONTINUOUS
10
1.59198
20
0.770185
11
1.59813
21
0.770153
0
LINE
8
BLACK
6
CONTINUOUS
10
1.59813
20
0.770153
11
1.60409
21
0.768655
0
LINE
8
BLACK
6
CONTINUOUS
10
1.60409
20
0.768655
11
1.60953
21
0.765777
0
LINE
8
BLACK
6
CONTINUOUS
10
1.60953
20
0.765777
11
1.61412
21
0.761687
0
LINE
8
BLACK
6
CONTINUOUS
10
1.61412
20
0.761687
11
1.6176
21
0.75662
0
LINE
8
BLACK
6
CONTINUOUS
10
1.6176
20
0.75662
11
1.61977
21
0.750868
0
LINE
8
BLACK
6
CONTINUOUS
10
1.61977
20
0.750868
11
1.62051
21
0.744764
0
LINE
8
BLACK
6
CONTINUOUS
10
1.62051
20
0.744764
11
1.62051
21
0.744228
0
LINE
8
BLACK
6
CONTINUOUS
10
1.62051
20
0.744228
11
1.61964
21
0.73814
0
LINE
8
BLACK
6
CONTINUOUS
10
1.61964
20
0.73814
11
1.61735
21
0.732435
0
LINE
8
BLACK
6
CONTINUOUS
10
1.61735
20
0.732435
11
1.61376
21
0.727442
0
LINE
8
BLACK
6
CONTINUOUS
10
1.61376
20
0.727442
11
1.60908
21
0.723449
0
LINE
8
BLACK
6
CONTINUOUS
10
1.60908
20
0.723449
11
1.60359
21
0.720686
0
LINE
8
BLACK
6
CONTINUOUS
10
1.60359
20
0.720686
11
1.5976
21
0.719313
0
LINE
8
BLACK
6
CONTINUOUS
10
1.5976
20
0.719313
11
1.59145
21
0.71941
0
LINE
8
BLACK
6
CONTINUOUS
10
1.59145
20
0.71941
11
1.5855
21
0.72097
0
LINE
8
BLACK
6
CONTINUOUS
10
1.5855
20
0.72097
11
1.5801
21
0.723904
0
LINE
8
BLACK
6
CONTINUOUS
10
1.5801
20
0.723904
11
1.57555
21
0.728042
0
LINE
8
BLACK
6
CONTINUOUS
10
1.57555
20
0.728042
11
1.57212
21
0.733146
0
LINE
8
BLACK
6
CONTINUOUS
10
1.57212
20
0.733146
11
1.57003
21
0.738858
0
LINE
8
BLACK
6
CONTINUOUS
10
1.57003
20
0.738858
11
1.32024
21
0.738858
0
LINE
8
BLACK
6
CONTINUOUS
10
1.32024
20
0.738858
11
1.31949
21
0.739059
0
LINE
8
BLACK
6
CONTINUOUS
10
1.31949
20
0.739059
11
1.31871
21
0.739059
0
LINE
8
BLACK
6
CONTINUOUS
10
1.31871
20
0.739059
11
1.31803
21
0.739448
0
LINE
8
BLACK
6
CONTINUOUS
10
1.31803
20
0.739448
11
1.31728
21
0.739649
0
LINE
8
BLACK
6
CONTINUOUS
10
1.31728
20
0.739649
11
1.31673
21
0.740199
0
LINE
8
BLACK
6
CONTINUOUS
10
1.31673
20
0.740199
11
1.31606
21
0.740588
0
LINE
8
BLACK
6
CONTINUOUS
10
1.31606
20
0.740588
11
1.23103
21
0.825617
0
LINE
8
BLACK
6
CONTINUOUS
10
1.23103
20
0.825617
11
1.22987
21
0.825023
0
LINE
8
BLACK
6
CONTINUOUS
10
1.22987
20
0.825023
11
1.225
21
0.824252
0
LINE
8
BLACK
6
CONTINUOUS
10
1.225
20
0.824252
11
1.22013
21
0.825023
0
LINE
8
BLACK
6
CONTINUOUS
10
1.22013
20
0.825023
11
1.21574
21
0.82726
0
LINE
8
BLACK
6
CONTINUOUS
10
1.21574
20
0.82726
11
1.21226
21
0.830744
0
LINE
8
BLACK
6
CONTINUOUS
10
1.21226
20
0.830744
11
1.21002
21
0.835134
0
LINE
8
BLACK
6
CONTINUOUS
10
1.21002
20
0.835134
11
1.20925
21
0.84
0
LINE
8
BLACK
6
CONTINUOUS
10
1.20925
20
0.84
11
1.21002
21
0.844866
0
LINE
8
BLACK
6
CONTINUOUS
10
1.21002
20
0.844866
11
1.21226
21
0.849256
0
LINE
8
BLACK
6
CONTINUOUS
10
1.21226
20
0.849256
11
1.21574
21
0.85274
0
LINE
8
BLACK
6
CONTINUOUS
10
1.21574
20
0.85274
11
1.22013
21
0.854977
0
LINE
8
BLACK
6
CONTINUOUS
10
1.22013
20
0.854977
11
1.225
21
0.855748
0
LINE
8
BLACK
6
CONTINUOUS
10
1.225
20
0.855748
11
1.22987
21
0.854977
0
LINE
8
BLACK
6
CONTINUOUS
10
1.22987
20
0.854977
11
1.23426
21
0.85274
0
LINE
8
BLACK
6
CONTINUOUS
10
1.23426
20
0.85274
11
1.23774
21
0.849256
0
LINE
8
BLACK
6
CONTINUOUS
10
1.23774
20
0.849256
11
1.23998
21
0.844866
0
LINE
8
BLACK
6
CONTINUOUS
10
1.23998
20
0.844866
11
1.24075
21
0.84
0
LINE
8
BLACK
6
CONTINUOUS
10
1.24075
20
0.84
11
1.23998
21
0.835134
0
LINE
8
BLACK
6
CONTINUOUS
10
1.23998
20
0.835134
11
1.23938
21
0.833968
0
LINE
8
BLACK
6
CONTINUOUS
10
1.23938
20
0.833968
11
1.32268
21
0.750669
0
LINE
8
BLACK
6
CONTINUOUS
10
1.32268
20
0.750669
11
1.57007
21
0.750669
0
LINE
8
BLACK
6
CONTINUOUS
10
1.31987
20
0.809977
11
1.32426
21
0.80774
0
LINE
8
BLACK
6
CONTINUOUS
10
1.32426
20
0.80774
11
1.32774
21
0.804256
0
LINE
8
BLACK
6
CONTINUOUS
10
1.32774
20
0.804256
11
1.32998
21
0.799866
0
LINE
8
BLACK
6
CONTINUOUS
10
1.32998
20
0.799866
11
1.33075
21
0.795
0
LINE
8
BLACK
6
CONTINUOUS
10
1.33075
20
0.795
11
1.33009
21
0.790827
0
LINE
8
BLACK
6
CONTINUOUS
10
1.33009
20
0.790827
11
1.64015
21
0.790827
0
LINE
8
BLACK
6
CONTINUOUS
10
1.64015
20
0.790827
11
1.64021
21
0.791285
0
LINE
8
BLACK
6
CONTINUOUS
10
1.64021
20
0.791285
11
1.64245
21
0.797014
0
LINE
8
BLACK
6
CONTINUOUS
10
1.64245
20
0.797014
11
1.64598
21
0.802045
0
LINE
8
BLACK
6
CONTINUOUS
10
1.64598
20
0.802045
11
1.65062
21
0.806087
0
LINE
8
BLACK
6
CONTINUOUS
10
1.65062
20
0.806087
11
1.65608
21
0.808907
0
LINE
8
BLACK
6
CONTINUOUS
10
1.65608
20
0.808907
11
1.66206
21
0.810342
0
LINE
8
BLACK
6
CONTINUOUS
10
1.66206
20
0.810342
11
1.66821
21
0.81031
0
LINE
8
BLACK
6
CONTINUOUS
10
1.66821
20
0.81031
11
1.67417
21
0.808812
0
LINE
8
BLACK
6
CONTINUOUS
10
1.67417
20
0.808812
11
1.6796
21
0.805935
0
LINE
8
BLACK
6
CONTINUOUS
10
1.6796
20
0.805935
11
1.6842
21
0.801845
0
LINE
8
BLACK
6
CONTINUOUS
10
1.6842
20
0.801845
11
1.68768
21
0.796777
0
LINE
8
BLACK
6
CONTINUOUS
10
1.68768
20
0.796777
11
1.68985
21
0.791025
0
LINE
8
BLACK
6
CONTINUOUS
10
1.68985
20
0.791025
11
1.69059
21
0.784921
0
LINE
8
BLACK
6
CONTINUOUS
10
1.69059
20
0.784921
11
1.69058
21
0.784385
0
LINE
8
BLACK
6
CONTINUOUS
10
1.69058
20
0.784385
11
1.68972
21
0.778298
0
LINE
8
BLACK
6
CONTINUOUS
10
1.68972
20
0.778298
11
1.68743
21
0.772593
0
LINE
8
BLACK
6
CONTINUOUS
10
1.68743
20
0.772593
11
1.68384
21
0.7676
0
LINE
8
BLACK
6
CONTINUOUS
10
1.68384
20
0.7676
11
1.67916
21
0.763606
0
LINE
8
BLACK
6
CONTINUOUS
10
1.67916
20
0.763606
11
1.67367
21
0.760844
0
LINE
8
BLACK
6
CONTINUOUS
10
1.67367
20
0.760844
11
1.66767
21
0.759471
0
LINE
8
BLACK
6
CONTINUOUS
10
1.66767
20
0.759471
11
1.66153
21
0.759567
0
LINE
8
BLACK
6
CONTINUOUS
10
1.66153
20
0.759567
11
1.65558
21
0.761128
0
LINE
8
BLACK
6
CONTINUOUS
10
1.65558
20
0.761128
11
1.65018
21
0.764062
0
LINE
8
BLACK
6
CONTINUOUS
10
1.65018
20
0.764062
11
1.64563
21
0.7682
0
LINE
8
BLACK
6
CONTINUOUS
10
1.64563
20
0.7682
11
1.6422
21
0.773303
0
LINE
8
BLACK
6
CONTINUOUS
10
1.6422
20
0.773303
11
1.64011
21
0.779016
0
LINE
8
BLACK
6
CONTINUOUS
10
1.64011
20
0.779016
11
1.32508
21
0.779016
0
LINE
8
BLACK
6
CONTINUOUS
10
1.32508
20
0.779016
11
1.32433
21
0.779217
0
LINE
8
BLACK
6
CONTINUOUS
10
1.32433
20
0.779217
11
1.32355
21
0.779217
0
LINE
8
BLACK
6
CONTINUOUS
10
1.32355
20
0.779217
11
1.32288
21
0.779606
0
LINE
8
BLACK
6
CONTINUOUS
10
1.32288
20
0.779606
11
1.32213
21
0.779807
0
LINE
8
BLACK
6
CONTINUOUS
10
1.32213
20
0.779807
11
1.32158
21
0.780357
0
LINE
8
BLACK
6
CONTINUOUS
10
1.32158
20
0.780357
11
1.32108
21
0.780642
0
LINE
8
BLACK
6
CONTINUOUS
10
1.32108
20
0.780642
11
1.31987
21
0.780023
0
LINE
8
BLACK
6
CONTINUOUS
10
1.31987
20
0.780023
11
1.315
21
0.779252
0
LINE
8
BLACK
6
CONTINUOUS
10
1.315
20
0.779252
11
1.31013
21
0.780023
0
LINE
8
BLACK
6
CONTINUOUS
10
1.31013
20
0.780023
11
1.30574
21
0.78226
0
LINE
8
BLACK
6
CONTINUOUS
10
1.30574
20
0.78226
11
1.30226
21
0.785744
0
LINE
8
BLACK
6
CONTINUOUS
10
1.30226
20
0.785744
11
1.30002
21
0.790134
0
LINE
8
BLACK
6
CONTINUOUS
10
1.30002
20
0.790134
11
1.29925
21
0.795
0
LINE
8
BLACK
6
CONTINUOUS
10
1.29925
20
0.795
11
1.30002
21
0.799866
0
LINE
8
BLACK
6
CONTINUOUS
10
1.30002
20
0.799866
11
1.30226
21
0.804256
0
LINE
8
BLACK
6
CONTINUOUS
10
1.30226
20
0.804256
11
1.30574
21
0.80774
0
LINE
8
BLACK
6
CONTINUOUS
10
1.30574
20
0.80774
11
1.31013
21
0.809977
0
LINE
8
BLACK
6
CONTINUOUS
10
1.31013
20
0.809977
11
1.315
21
0.810748
0
LINE
8
BLACK
6
CONTINUOUS
10
1.315
20
0.810748
11
1.31987
21
0.809977
0
LINE
8
BLACK
6
CONTINUOUS
10
1.59813
20
0.850074
11
1.60409
21
0.848576
0
LINE
8
BLACK
6
CONTINUOUS
10
1.60409
20
0.848576
11
1.60953
21
0.845699
0
LINE
8
BLACK
6
CONTINUOUS
10
1.60953
20
0.845699
11
1.61412
21
0.841608
0
LINE
8
BLACK
6
CONTINUOUS
10
1.61412
20
0.841608
11
1.6176
21
0.836541
0
LINE
8
BLACK
6
CONTINUOUS
10
1.6176
20
0.836541
11
1.61977
21
0.830789
0
LINE
8
BLACK
6
CONTINUOUS
10
1.61977
20
0.830789
11
1.62051
21
0.824685
0
LINE
8
BLACK
6
CONTINUOUS
10
1.62051
20
0.824685
11
1.62051
21
0.824149
0
LINE
8
BLACK
6
CONTINUOUS
10
1.62051
20
0.824149
11
1.61964
21
0.818062
0
LINE
8
BLACK
6
CONTINUOUS
10
1.61964
20
0.818062
11
1.61735
21
0.812357
0
LINE
8
BLACK
6
CONTINUOUS
10
1.61735
20
0.812357
11
1.61376
21
0.807363
0
LINE
8
BLACK
6
CONTINUOUS
10
1.61376
20
0.807363
11
1.60908
21
0.80337
0
LINE
8
BLACK
6
CONTINUOUS
10
1.60908
20
0.80337
11
1.60359
21
0.800607
0
LINE
8
BLACK
6
CONTINUOUS
10
1.60359
20
0.800607
11
1.5976
21
0.799235
0
LINE
8
BLACK
6
CONTINUOUS
10
1.5976
20
0.799235
11
1.59145
21
0.799331
0
LINE
8
BLACK
6
CONTINUOUS
10
1.59145
20
0.799331
11
1.5855
21
0.800892
0
LINE
8
BLACK
6
CONTINUOUS
10
1.5855
20
0.800892
11
1.5801
21
0.803825
0
LINE
8
BLACK
6
CONTINUOUS
10
1.5801
20
0.803825
11
1.57555
21
0.807964
0
LINE
8
BLACK
6
CONTINUOUS
10
1.57555
20
0.807964
11
1.57212
21
0.813067
0
LINE
8
BLACK
6
CONTINUOUS
10
1.57212
20
0.813067
11
1.57003
21
0.81878
0
LINE
8
BLACK
6
CONTINUOUS
10
1.57003
20
0.81878
11
1.43578
21
0.81878
0
LINE
8
BLACK
6
CONTINUOUS
10
1.43578
20
0.81878
11
1.43426
21
0.81726
0
LINE
8
BLACK
6
CONTINUOUS
10
1.43426
20
0.81726
11
1.42987
21
0.815023
0
LINE
8
BLACK
6
CONTINUOUS
10
1.42987
20
0.815023
11
1.425
21
0.814252
0
LINE
8
BLACK
6
CONTINUOUS
10
1.425
20
0.814252
11
1.42013
21
0.815023
0
LINE
8
BLACK
6
CONTINUOUS
10
1.42013
20
0.815023
11
1.41574
21
0.81726
0
LINE
8
BLACK
6
CONTINUOUS
10
1.41574
20
0.81726
11
1.41226
21
0.820744
0
LINE
8
BLACK
6
CONTINUOUS
10
1.41226
20
0.820744
11
1.41002
21
0.825134
0
LINE
8
BLACK
6
CONTINUOUS
10
1.41002
20
0.825134
11
1.40925
21
0.83
0
LINE
8
BLACK
6
CONTINUOUS
10
1.40925
20
0.83
11
1.41002
21
0.834866
0
LINE
8
BLACK
6
CONTINUOUS
10
1.41002
20
0.834866
11
1.41226
21
0.839256
0
LINE
8
BLACK
6
CONTINUOUS
10
1.41226
20
0.839256
11
1.41574
21
0.84274
0
LINE
8
BLACK
6
CONTINUOUS
10
1.41574
20
0.84274
11
1.42013
21
0.844977
0
LINE
8
BLACK
6
CONTINUOUS
10
1.42013
20
0.844977
11
1.425
21
0.845748
0
LINE
8
BLACK
6
CONTINUOUS
10
1.425
20
0.845748
11
1.42987
21
0.844977
0
LINE
8
BLACK
6
CONTINUOUS
10
1.42987
20
0.844977
11
1.43426
21
0.84274
0
LINE
8
BLACK
6
CONTINUOUS
10
1.43426
20
0.84274
11
1.43774
21
0.839256
0
LINE
8
BLACK
6
CONTINUOUS
10
1.43774
20
0.839256
11
1.43998
21
0.834866
0
LINE
8
BLACK
6
CONTINUOUS
10
1.43998
20
0.834866
11
1.44065
21
0.830591
0
LINE
8
BLACK
6
CONTINUOUS
10
1.44065
20
0.830591
11
1.57007
21
0.830591
0
LINE
8
BLACK
6
CONTINUOUS
10
1.57007
20
0.830591
11
1.57013
21
0.831049
0
LINE
8
BLACK
6
CONTINUOUS
10
1.57013
20
0.831049
11
1.57237
21
0.836778
0
LINE
8
BLACK
6
CONTINUOUS
10
1.57237
20
0.836778
11
1.5759
21
0.841808
0
LINE
8
BLACK
6
CONTINUOUS
10
1.5759
20
0.841808
11
1.58054
21
0.84585
0
LINE
8
BLACK
6
CONTINUOUS
10
1.58054
20
0.84585
11
1.586
21
0.848671
0
LINE
8
BLACK
6
CONTINUOUS
10
1.586
20
0.848671
11
1.59198
21
0.850106
0
LINE
8
BLACK
6
CONTINUOUS
10
1.59198
20
0.850106
11
1.59813
21
0.850074
0
LINE
8
BLACK
6
CONTINUOUS
10
1.66821
20
0.890231
11
1.67417
21
0.888733
0
LINE
8
BLACK
6
CONTINUOUS
10
1.67417
20
0.888733
11
1.6796
21
0.885856
0
LINE
8
BLACK
6
CONTINUOUS
10
1.6796
20
0.885856
11
1.6842
21
0.881766
0
LINE
8
BLACK
6
CONTINUOUS
10
1.6842
20
0.881766
11
1.68768
21
0.876699
0
LINE
8
BLACK
6
CONTINUOUS
10
1.68768
20
0.876699
11
1.68985
21
0.870947
0
LINE
8
BLACK
6
CONTINUOUS
10
1.68985
20
0.870947
11
1.69059
21
0.864843
0
LINE
8
BLACK
6
CONTINUOUS
10
1.69059
20
0.864843
11
1.69058
21
0.864307
0
LINE
8
BLACK
6
CONTINUOUS
10
1.69058
20
0.864307
11
1.68972
21
0.858219
0
LINE
8
BLACK
6
CONTINUOUS
10
1.68972
20
0.858219
11
1.68743
21
0.852514
0
LINE
8
BLACK
6
CONTINUOUS
10
1.68743
20
0.852514
11
1.68384
21
0.847521
0
LINE
8
BLACK
6
CONTINUOUS
10
1.68384
20
0.847521
11
1.67916
21
0.843528
0
LINE
8
BLACK
6
CONTINUOUS
10
1.67916
20
0.843528
11
1.67367
21
0.840765
0
LINE
8
BLACK
6
CONTINUOUS
10
1.67367
20
0.840765
11
1.66767
21
0.839392
0
LINE
8
BLACK
6
CONTINUOUS
10
1.66767
20
0.839392
11
1.66153
21
0.839489
0
LINE
8
BLACK
6
CONTINUOUS
10
1.66153
20
0.839489
11
1.65558
21
0.841049
0
LINE
8
BLACK
6
CONTINUOUS
10
1.65558
20
0.841049
11
1.65018
21
0.843983
0
LINE
8
BLACK
6
CONTINUOUS
10
1.65018
20
0.843983
11
1.64563
21
0.848121
0
LINE
8
BLACK
6
CONTINUOUS
10
1.64563
20
0.848121
11
1.6422
21
0.853225
0
LINE
8
BLACK
6
CONTINUOUS
10
1.6422
20
0.853225
11
1.64009
21
0.858999
0
LINE
8
BLACK
6
CONTINUOUS
10
1.64009
20
0.858999
11
1.64008
21
0.859094
0
LINE
8
BLACK
6
CONTINUOUS
10
1.64008
20
0.859094
11
1.51445
21
0.859094
0
LINE
8
BLACK
6
CONTINUOUS
10
1.51445
20
0.859094
11
1.51274
21
0.855744
0
LINE
8
BLACK
6
CONTINUOUS
10
1.51274
20
0.855744
11
1.50926
21
0.85226
0
LINE
8
BLACK
6
CONTINUOUS
10
1.50926
20
0.85226
11
1.50487
21
0.850023
0
LINE
8
BLACK
6
CONTINUOUS
10
1.50487
20
0.850023
11
1.5
21
0.849252
0
LINE
8
BLACK
6
CONTINUOUS
10
1.5
20
0.849252
11
1.49513
21
0.850023
0
LINE
8
BLACK
6
CONTINUOUS
10
1.49513
20
0.850023
11
1.49074
21
0.85226
0
LINE
8
BLACK
6
CONTINUOUS
10
1.49074
20
0.85226
11
1.48726
21
0.855744
0
LINE
8
BLACK
6
CONTINUOUS
10
1.48726
20
0.855744
11
1.48502
21
0.860134
0
LINE
8
BLACK
6
CONTINUOUS
10
1.48502
20
0.860134
11
1.48425
21
0.865
0
LINE
8
BLACK
6
CONTINUOUS
10
1.48425
20
0.865
11
1.48502
21
0.869866
0
LINE
8
BLACK
6
CONTINUOUS
10
1.48502
20
0.869866
11
1.48726
21
0.874256
0
LINE
8
BLACK
6
CONTINUOUS
10
1.48726
20
0.874256
11
1.49074
21
0.87774
0
LINE
8
BLACK
6
CONTINUOUS
10
1.49074
20
0.87774
11
1.49513
21
0.879977
0
LINE
8
BLACK
6
CONTINUOUS
10
1.49513
20
0.879977
11
1.5
21
0.880748
0
LINE
8
BLACK
6
CONTINUOUS
10
1.5
20
0.880748
11
1.50487
21
0.879977
0
LINE
8
BLACK
6
CONTINUOUS
10
1.50487
20
0.879977
11
1.50926
21
0.87774
0
LINE
8
BLACK
6
CONTINUOUS
10
1.50926
20
0.87774
11
1.51274
21
0.874256
0
LINE
8
BLACK
6
CONTINUOUS
10
1.51274
20
0.874256
11
1.51445
21
0.870906
0
LINE
8
BLACK
6
CONTINUOUS
10
1.51445
20
0.870906
11
1.64017
21
0.870906
0
LINE
8
BLACK
6
CONTINUOUS
10
1.64017
20
0.870906
11
1.64021
21
0.871207
0
LINE
8
BLACK
6
CONTINUOUS
10
1.64021
20
0.871207
11
1.64245
21
0.876935
0
LINE
8
BLACK
6
CONTINUOUS
10
1.64245
20
0.876935
11
1.64598
21
0.881966
0
LINE
8
BLACK
6
CONTINUOUS
10
1.64598
20
0.881966
11
1.65062
21
0.886008
0
LINE
8
BLACK
6
CONTINUOUS
10
1.65062
20
0.886008
11
1.65608
21
0.888828
0
LINE
8
BLACK
6
CONTINUOUS
10
1.65608
20
0.888828
11
1.66206
21
0.890263
0
LINE
8
BLACK
6
CONTINUOUS
10
1.66206
20
0.890263
11
1.66821
21
0.890231
0
LINE
8
BLACK
6
CONTINUOUS
10
1.59813
20
0.929995
11
1.60409
21
0.928497
0
LINE
8
BLACK
6
CONTINUOUS
10
1.60409
20
0.928497
11
1.60953
21
0.92562
0
LINE
8
BLACK
6
CONTINUOUS
10
1.60953
20
0.92562
11
1.61412
21
0.92153
0
LINE
8
BLACK
6
CONTINUOUS
10
1.61412
20
0.92153
11
1.6176
21
0.916462
0
LINE
8
BLACK
6
CONTINUOUS
10
1.6176
20
0.916462
11
1.61977
21
0.910711
0
LINE
8
BLACK
6
CONTINUOUS
10
1.61977
20
0.910711
11
1.62051
21
0.904606
0
LINE
8
BLACK
6
CONTINUOUS
10
1.62051
20
0.904606
11
1.62051
21
0.90407
0
LINE
8
BLACK
6
CONTINUOUS
10
1.62051
20
0.90407
11
1.61964
21
0.897983
0
LINE
8
BLACK
6
CONTINUOUS
10
1.61964
20
0.897983
11
1.61735
21
0.892278
0
LINE
8
BLACK
6
CONTINUOUS
10
1.61735
20
0.892278
11
1.61376
21
0.887285
0
LINE
8
BLACK
6
CONTINUOUS
10
1.61376
20
0.887285
11
1.60908
21
0.883291
0
LINE
8
BLACK
6
CONTINUOUS
10
1.60908
20
0.883291
11
1.60359
21
0.880529
0
LINE
8
BLACK
6
CONTINUOUS
10
1.60359
20
0.880529
11
1.5976
21
0.879156
0
LINE
8
BLACK
6
CONTINUOUS
10
1.5976
20
0.879156
11
1.59145
21
0.879253
0
LINE
8
BLACK
6
CONTINUOUS
10
1.59145
20
0.879253
11
1.5855
21
0.880813
0
LINE
8
BLACK
6
CONTINUOUS
10
1.5855
20
0.880813
11
1.5801
21
0.883747
0
LINE
8
BLACK
6
CONTINUOUS
10
1.5801
20
0.883747
11
1.57555
21
0.887885
0
LINE
8
BLACK
6
CONTINUOUS
10
1.57555
20
0.887885
11
1.57212
21
0.892988
0
LINE
8
BLACK
6
CONTINUOUS
10
1.57212
20
0.892988
11
1.57001
21
0.898763
0
LINE
8
BLACK
6
CONTINUOUS
10
1.57001
20
0.898763
11
1.56933
21
0.904874
0
LINE
8
BLACK
6
CONTINUOUS
10
1.56933
20
0.904874
11
1.57013
21
0.91097
0
LINE
8
BLACK
6
CONTINUOUS
10
1.57013
20
0.91097
11
1.57237
21
0.916699
0
LINE
8
BLACK
6
CONTINUOUS
10
1.57237
20
0.916699
11
1.5759
21
0.92173
0
LINE
8
BLACK
6
CONTINUOUS
10
1.5759
20
0.92173
11
1.58054
21
0.925772
0
LINE
8
BLACK
6
CONTINUOUS
10
1.58054
20
0.925772
11
1.586
21
0.928592
0
LINE
8
BLACK
6
CONTINUOUS
10
1.586
20
0.928592
11
1.59198
21
0.930027
0
LINE
8
BLACK
6
CONTINUOUS
10
1.59198
20
0.930027
11
1.59813
21
0.929995
0
LINE
8
BLACK
6
CONTINUOUS
10
1.66821
20
0.970153
11
1.67417
21
0.968655
0
LINE
8
BLACK
6
CONTINUOUS
10
1.67417
20
0.968655
11
1.6796
21
0.965777
0
LINE
8
BLACK
6
CONTINUOUS
10
1.6796
20
0.965777
11
1.6842
21
0.961687
0
LINE
8
BLACK
6
CONTINUOUS
10
1.6842
20
0.961687
11
1.68768
21
0.95662
0
LINE
8
BLACK
6
CONTINUOUS
10
1.68768
20
0.95662
11
1.68985
21
0.950868
0
LINE
8
BLACK
6
CONTINUOUS
10
1.68985
20
0.950868
11
1.69059
21
0.944764
0
LINE
8
BLACK
6
CONTINUOUS
10
1.69059
20
0.944764
11
1.69058
21
0.944228
0
LINE
8
BLACK
6
CONTINUOUS
10
1.69058
20
0.944228
11
1.68972
21
0.93814
0
LINE
8
BLACK
6
CONTINUOUS
10
1.68972
20
0.93814
11
1.68743
21
0.932435
0
LINE
8
BLACK
6
CONTINUOUS
10
1.68743
20
0.932435
11
1.68384
21
0.927442
0
LINE
8
BLACK
6
CONTINUOUS
10
1.68384
20
0.927442
11
1.67916
21
0.923449
0
LINE
8
BLACK
6
CONTINUOUS
10
1.67916
20
0.923449
11
1.67367
21
0.920686
0
LINE
8
BLACK
6
CONTINUOUS
10
1.67367
20
0.920686
11
1.66767
21
0.919313
0
LINE
8
BLACK
6
CONTINUOUS
10
1.66767
20
0.919313
11
1.66153
21
0.91941
0
LINE
8
BLACK
6
CONTINUOUS
10
1.66153
20
0.91941
11
1.65558
21
0.92097
0
LINE
8
BLACK
6
CONTINUOUS
10
1.65558
20
0.92097
11
1.65018
21
0.923904
0
LINE
8
BLACK
6
CONTINUOUS
10
1.65018
20
0.923904
11
1.64563
21
0.928042
0
LINE
8
BLACK
6
CONTINUOUS
10
1.64563
20
0.928042
11
1.6422
21
0.933146
0
LINE
8
BLACK
6
CONTINUOUS
10
1.6422
20
0.933146
11
1.64009
21
0.93892
0
LINE
8
BLACK
6
CONTINUOUS
10
1.64009
20
0.93892
11
1.63941
21
0.945032
0
LINE
8
BLACK
6
CONTINUOUS
10
1.63941
20
0.945032
11
1.64021
21
0.951128
0
LINE
8
BLACK
6
CONTINUOUS
10
1.64021
20
0.951128
11
1.64245
21
0.956857
0
LINE
8
BLACK
6
CONTINUOUS
10
1.64245
20
0.956857
11
1.64598
21
0.961887
0
LINE
8
BLACK
6
CONTINUOUS
10
1.64598
20
0.961887
11
1.65062
21
0.965929
0
LINE
8
BLACK
6
CONTINUOUS
10
1.65062
20
0.965929
11
1.65608
21
0.968749
0
LINE
8
BLACK
6
CONTINUOUS
10
1.65608
20
0.968749
11
1.66206
21
0.970185
0
LINE
8
BLACK
6
CONTINUOUS
10
1.66206
20
0.970185
11
1.66821
21
0.970153
0
LINE
8
BLACK
6
CONTINUOUS
10
1.80865
20
0.317793
11
1.82213
21
0.316018
0
LINE
8
BLACK
6
CONTINUOUS
10
1.82213
20
0.316018
11
1.83532
21
0.312706
0
LINE
8
BLACK
6
CONTINUOUS
10
1.83532
20
0.312706
11
1.84804
21
0.307899
0
LINE
8
BLACK
6
CONTINUOUS
10
1.84804
20
0.307899
11
1.86012
21
0.301662
0
LINE
8
BLACK
6
CONTINUOUS
10
1.86012
20
0.301662
11
1.87141
21
0.294078
0
LINE
8
BLACK
6
CONTINUOUS
10
1.87141
20
0.294078
11
1.88175
21
0.285247
0
LINE
8
BLACK
6
CONTINUOUS
10
1.88175
20
0.285247
11
1.89101
21
0.275286
0
LINE
8
BLACK
6
CONTINUOUS
10
1.89101
20
0.275286
11
1.89906
21
0.264327
0
LINE
8
BLACK
6
CONTINUOUS
10
1.89906
20
0.264327
11
1.90579
21
0.252516
0
LINE
8
BLACK
6
CONTINUOUS
10
1.90579
20
0.252516
11
1.91113
21
0.240008
0
LINE
8
BLACK
6
CONTINUOUS
10
1.91113
20
0.240008
11
1.91499
21
0.226971
0
LINE
8
BLACK
6
CONTINUOUS
10
1.91499
20
0.226971
11
1.91733
21
0.213575
0
LINE
8
BLACK
6
CONTINUOUS
10
1.91733
20
0.213575
11
1.91811
21
0.2
0
LINE
8
BLACK
6
CONTINUOUS
10
1.91811
20
0.2
11
1.91788
21
0.192584
0
LINE
8
BLACK
6
CONTINUOUS
10
1.91788
20
0.192584
11
1.91624
21
0.179084
0
LINE
8
BLACK
6
CONTINUOUS
10
1.91624
20
0.179084
11
1.91307
21
0.165862
0
LINE
8
BLACK
6
CONTINUOUS
10
1.91307
20
0.165862
11
1.9084
21
0.153093
0
LINE
8
BLACK
6
CONTINUOUS
10
1.9084
20
0.153093
11
1.90229
21
0.140945
0
LINE
8
BLACK
6
CONTINUOUS
10
1.90229
20
0.140945
11
1.89482
21
0.12958
0
LINE
8
BLACK
6
CONTINUOUS
10
1.89482
20
0.12958
11
1.8861
21
0.119148
0
LINE
8
BLACK
6
CONTINUOUS
10
1.8861
20
0.119148
11
1.87624
21
0.109788
0
LINE
8
BLACK
6
CONTINUOUS
10
1.87624
20
0.109788
11
1.86536
21
0.101623
0
LINE
8
BLACK
6
CONTINUOUS
10
1.86536
20
0.101623
11
1.85362
21
0.094763
0
LINE
8
BLACK
6
CONTINUOUS
10
1.85362
20
0.094763
11
1.84117
21
0.0892974
0
LINE
8
BLACK
6
CONTINUOUS
10
1.84117
20
0.0892974
11
1.82817
21
0.0852991
0
LINE
8
BLACK
6
CONTINUOUS
10
1.82817
20
0.0852991
11
1.8148
21
0.0828211
0
LINE
8
BLACK
6
CONTINUOUS
10
1.8148
20
0.0828211
11
1.80124
21
0.0818962
0
LINE
8
BLACK
6
CONTINUOUS
10
1.80124
20
0.0818962
11
1.78765
21
0.0825368
0
LINE
8
BLACK
6
CONTINUOUS
10
1.78765
20
0.0825368
11
1.77424
21
0.0847343
0
LINE
8
BLACK
6
CONTINUOUS
10
1.77424
20
0.0847343
11
1.76116
21
0.0884595
0
LINE
8
BLACK
6
CONTINUOUS
10
1.76116
20
0.0884595
11
1.74859
21
0.0936631
0
LINE
8
BLACK
6
CONTINUOUS
10
1.74859
20
0.0936631
11
1.73671
21
0.100276
0
LINE
8
BLACK
6
CONTINUOUS
10
1.73671
20
0.100276
11
1.72567
21
0.108211
0
LINE
8
BLACK
6
CONTINUOUS
10
1.72567
20
0.108211
11
1.71561
21
0.117363
0
LINE
8
BLACK
6
CONTINUOUS
10
1.71561
20
0.117363
11
1.70667
21
0.127609
0
LINE
8
BLACK
6
CONTINUOUS
10
1.70667
20
0.127609
11
1.69897
21
0.138816
0
LINE
8
BLACK
6
CONTINUOUS
10
1.69897
20
0.138816
11
1.69261
21
0.150833
0
LINE
8
BLACK
6
CONTINUOUS
10
1.69261
20
0.150833
11
1.68767
21
0.163502
0
LINE
8
BLACK
6
CONTINUOUS
10
1.68767
20
0.163502
11
1.68422
21
0.176655
0
LINE
8
BLACK
6
CONTINUOUS
10
1.68422
20
0.176655
11
1.6823
21
0.190117
0
LINE
8
BLACK
6
CONTINUOUS
10
1.6823
20
0.190117
11
1.68195
21
0.20371
0
LINE
8
BLACK
6
CONTINUOUS
10
1.68195
20
0.20371
11
1.68316
21
0.217254
0
LINE
8
BLACK
6
CONTINUOUS
10
1.68316
20
0.217254
11
1.68591
21
0.230569
0
LINE
8
BLACK
6
CONTINUOUS
10
1.68591
20
0.230569
11
1.69018
21
0.243479
0
LINE
8
BLACK
6
CONTINUOUS
10
1.69018
20
0.243479
11
1.69591
21
0.255813
0
LINE
8
BLACK
6
CONTINUOUS
10
1.69591
20
0.255813
11
1.70301
21
0.267407
0
LINE
8
BLACK
6
CONTINUOUS
10
1.70301
20
0.267407
11
1.7114
21
0.278108
0
LINE
8
BLACK
6
CONTINUOUS
10
1.7114
20
0.278108
11
1.72097
21
0.287773
0
LINE
8
BLACK
6
CONTINUOUS
10
1.72097
20
0.287773
11
1.73158
21
0.296275
0
LINE
8
BLACK
6
CONTINUOUS
10
1.73158
20
0.296275
11
1.7431
21
0.303501
0
LINE
8
BLACK
6
CONTINUOUS
10
1.7431
20
0.303501
11
1.75537
21
0.309355
0
LINE
8
BLACK
6
CONTINUOUS
10
1.75537
20
0.309355
11
1.76824
21
0.313759
0
LINE
8
BLACK
6
CONTINUOUS
10
1.76824
20
0.313759
11
1.78152
21
0.316656
0
LINE
8
BLACK
6
CONTINUOUS
10
1.78152
20
0.316656
11
1.79505
21
0.318007
0
LINE
8
BLACK
6
CONTINUOUS
10
1.79505
20
0.318007
11
1.80865
21
0.317793
0
LINE
8
BLACK
6
CONTINUOUS
10
0.20865
20
0.317793
11
0.222132
21
0.316018
0
LINE
8
BLACK
6
CONTINUOUS
10
0.222132
20
0.316018
11
0.23532
21
0.312706
0
LINE
8
BLACK
6
CONTINUOUS
10
0.23532
20
0.312706
11
0.24804
21
0.307899
0
LINE
8
BLACK
6
CONTINUOUS
10
0.24804
20
0.307899
11
0.260123
21
0.301662
0
LINE
8
BLACK
6
CONTINUOUS
10
0.260123
20
0.301662
11
0.271409
21
0.294078
0
LINE
8
BLACK
6
CONTINUOUS
10
0.271409
20
0.294078
11
0.281749
21
0.285247
0
LINE
8
BLACK
6
CONTINUOUS
10
0.281749
20
0.285247
11
0.291006
21
0.275286
0
LINE
8
BLACK
6
CONTINUOUS
10
0.291006
20
0.275286
11
0.299056
21
0.264327
0
LINE
8
BLACK
6
CONTINUOUS
10
0.299056
20
0.264327
11
0.305793
21
0.252516
0
LINE
8
BLACK
6
CONTINUOUS
10
0.305793
20
0.252516
11
0.311128
21
0.240008
0
LINE
8
BLACK
6
CONTINUOUS
10
0.311128
20
0.240008
11
0.31499
21
0.226971
0
LINE
8
BLACK
6
CONTINUOUS
10
0.31499
20
0.226971
11
0.317327
21
0.213575
0
LINE
8
BLACK
6
CONTINUOUS
10
0.317327
20
0.213575
11
0.31811
21
0.2
0
LINE
8
BLACK
6
CONTINUOUS
10
0.31811
20
0.2
11
0.317877
21
0.192584
0
LINE
8
BLACK
6
CONTINUOUS
10
0.317877
20
0.192584
11
0.316244
21
0.179084
0
LINE
8
BLACK
6
CONTINUOUS
10
0.316244
20
0.179084
11
0.313069
21
0.165862
0
LINE
8
BLACK
6
CONTINUOUS
10
0.313069
20
0.165862
11
0.308396
21
0.153093
0
LINE
8
BLACK
6
CONTINUOUS
10
0.308396
20
0.153093
11
0.302286
21
0.140945
0
LINE
8
BLACK
6
CONTINUOUS
10
0.302286
20
0.140945
11
0.294821
21
0.12958
0
LINE
8
BLACK
6
CONTINUOUS
10
0.294821
20
0.12958
11
0.286099
21
0.119148
0
LINE
8
BLACK
6
CONTINUOUS
10
0.286099
20
0.119148
11
0.276235
21
0.109788
0
LINE
8
BLACK
6
CONTINUOUS
10
0.276235
20
0.109788
11
0.265361
21
0.101623
0
LINE
8
BLACK
6
CONTINUOUS
10
0.265361
20
0.101623
11
0.253621
21
0.094763
0
LINE
8
BLACK
6
CONTINUOUS
10
0.253621
20
0.094763
11
0.24117
21
0.0892974
0
LINE
8
BLACK
6
CONTINUOUS
10
0.24117
20
0.0892974
11
0.228173
21
0.0852991
0
LINE
8
BLACK
6
CONTINUOUS
10
0.228173
20
0.0852991
11
0.214803
21
0.0828211
0
LINE
8
BLACK
6
CONTINUOUS
10
0.214803
20
0.0828211
11
0.201237
21
0.0818962
0
LINE
8
BLACK
6
CONTINUOUS
10
0.201237
20
0.0818962
11
0.187654
21
0.0825368
0
LINE
8
BLACK
6
CONTINUOUS
10
0.187654
20
0.0825368
11
0.174235
21
0.0847343
0
LINE
8
BLACK
6
CONTINUOUS
10
0.174235
20
0.0847343
11
0.161157
21
0.0884595
0
LINE
8
BLACK
6
CONTINUOUS
10
0.161157
20
0.0884595
11
0.148595
21
0.0936631
0
LINE
8
BLACK
6
CONTINUOUS
10
0.148595
20
0.0936631
11
0.136713
21
0.100276
0
LINE
8
BLACK
6
CONTINUOUS
10
0.136713
20
0.100276
11
0.125671
21
0.108211
0
LINE
8
BLACK
6
CONTINUOUS
10
0.125671
20
0.108211
11
0.115613
21
0.117363
0
LINE
8
BLACK
6
CONTINUOUS
10
0.115613
20
0.117363
11
0.106675
21
0.127609
0
LINE
8
BLACK
6
CONTINUOUS
10
0.106675
20
0.127609
11
0.0989727
21
0.138816
0
LINE
8
BLACK
6
CONTINUOUS
10
0.0989727
20
0.138816
11
0.0926099
21
0.150833
0
LINE
8
BLACK
6
CONTINUOUS
10
0.0926099
20
0.150833
11
0.0876705
21
0.163502
0
LINE
8
BLACK
6
CONTINUOUS
10
0.0876705
20
0.163502
11
0.0842199
21
0.176655
0
LINE
8
BLACK
6
CONTINUOUS
10
0.0842199
20
0.176655
11
0.082304
21
0.190117
0
LINE
8
BLACK
6
CONTINUOUS
10
0.082304
20
0.190117
11
0.081948
21
0.20371
0
LINE
8
BLACK
6
CONTINUOUS
10
0.081948
20
0.20371
11
0.0831568
21
0.217254
0
LINE
8
BLACK
6
CONTINUOUS
10
0.0831568
20
0.217254
11
0.0859143
21
0.230569
0
LINE
8
BLACK
6
CONTINUOUS
10
0.0859143
20
0.230569
11
0.0901839
21
0.243479
0
LINE
8
BLACK
6
CONTINUOUS
10
0.0901839
20
0.243479
11
0.0959091
21
0.255813
0
LINE
8
BLACK
6
CONTINUOUS
10
0.0959091
20
0.255813
11
0.103014
21
0.267407
0
LINE
8
BLACK
6
CONTINUOUS
10
0.103014
20
0.267407
11
0.111404
21
0.278108
0
LINE
8
BLACK
6
CONTINUOUS
10
0.111404
20
0.278108
11
0.120969
21
0.287773
0
LINE
8
BLACK
6
CONTINUOUS
10
0.120969
20
0.287773
11
0.131581
21
0.296275
0
LINE
8
BLACK
6
CONTINUOUS
10
0.131581
20
0.296275
11
0.1431
21
0.303501
0
LINE
8
BLACK
6
CONTINUOUS
10
0.1431
20
0.303501
11
0.155373
21
0.309355
0
LINE
8
BLACK
6
CONTINUOUS
10
0.155373
20
0.309355
11
0.168238
21
0.313759
0
LINE
8
BLACK
6
CONTINUOUS
10
0.168238
20
0.313759
11
0.181524
21
0.316656
0
LINE
8
BLACK
6
CONTINUOUS
10
0.181524
20
0.316656
11
0.195054
21
0.318007
0
LINE
8
BLACK
6
CONTINUOUS
10
0.195054
20
0.318007
11
0.20865
21
0.317793
0
LINE
8
BLACK
6
CONTINUOUS
10
1.80865
20
1.51779
11
1.82213
21
1.51602
0
LINE
8
BLACK
6
CONTINUOUS
10
1.82213
20
1.51602
11
1.83532
21
1.51271
0
LINE
8
BLACK
6
CONTINUOUS
10
1.83532
20
1.51271
11
1.84804
21
1.5079
0
LINE
8
BLACK
6
CONTINUOUS
10
1.84804
20
1.5079
11
1.86012
21
1.50166
0
LINE
8
BLACK
6
CONTINUOUS
10
1.86012
20
1.50166
11
1.87141
21
1.49408
0
LINE
8
BLACK
6
CONTINUOUS
10
1.87141
20
1.49408
11
1.88175
21
1.48525
0
LINE
8
BLACK
6
CONTINUOUS
10
1.88175
20
1.48525
11
1.89101
21
1.47529
0
LINE
8
BLACK
6
CONTINUOUS
10
1.89101
20
1.47529
11
1.89906
21
1.46433
0
LINE
8
BLACK
6
CONTINUOUS
10
1.89906
20
1.46433
11
1.90579
21
1.45252
0
LINE
8
BLACK
6
CONTINUOUS
10
1.90579
20
1.45252
11
1.91113
21
1.44001
0
LINE
8
BLACK
6
CONTINUOUS
10
1.91113
20
1.44001
11
1.91499
21
1.42697
0
LINE
8
BLACK
6
CONTINUOUS
10
1.91499
20
1.42697
11
1.91733
21
1.41358
0
LINE
8
BLACK
6
CONTINUOUS
10
1.91733
20
1.41358
11
1.91811
21
1.4
0
LINE
8
BLACK
6
CONTINUOUS
10
1.91811
20
1.4
11
1.91788
21
1.39258
0
LINE
8
BLACK
6
CONTINUOUS
10
1.91788
20
1.39258
11
1.91624
21
1.37908
0
LINE
8
BLACK
6
CONTINUOUS
10
1.91624
20
1.37908
11
1.91307
21
1.36586
0
LINE
8
BLACK
6
CONTINUOUS
10
1.91307
20
1.36586
11
1.9084
21
1.35309
0
LINE
8
BLACK
6
CONTINUOUS
10
1.9084
20
1.35309
11
1.90229
21
1.34094
0
LINE
8
BLACK
6
CONTINUOUS
10
1.90229
20
1.34094
11
1.89482
21
1.32958
0
LINE
8
BLACK
6
CONTINUOUS
10
1.89482
20
1.32958
11
1.8861
21
1.31915
0
LINE
8
BLACK
6
CONTINUOUS
10
1.8861
20
1.31915
11
1.87624
21
1.30979
0
LINE
8
BLACK
6
CONTINUOUS
10
1.87624
20
1.30979
11
1.86536
21
1.30162
0
LINE
8
BLACK
6
CONTINUOUS
10
1.86536
20
1.30162
11
1.85362
21
1.29476
0
LINE
8
BLACK
6
CONTINUOUS
10
1.85362
20
1.29476
11
1.84117
21
1.2893
0
LINE
8
BLACK
6
CONTINUOUS
10
1.84117
20
1.2893
11
1.82817
21
1.2853
0
LINE
8
BLACK
6
CONTINUOUS
10
1.82817
20
1.2853
11
1.8148
21
1.28282
0
LINE
8
BLACK
6
CONTINUOUS
10
1.8148
20
1.28282
11
1.80124
21
1.2819
0
LINE
8
BLACK
6
CONTINUOUS
10
1.80124
20
1.2819
11
1.78765
21
1.28254
0
LINE
8
BLACK
6
CONTINUOUS
10
1.78765
20
1.28254
11
1.77424
21
1.28473
0
LINE
8
BLACK
6
CONTINUOUS
10
1.77424
20
1.28473
11
1.76116
21
1.28846
0
LINE
8
BLACK
6
CONTINUOUS
10
1.76116
20
1.28846
11
1.74859
21
1.29366
0
LINE
8
BLACK
6
CONTINUOUS
10
1.74859
20
1.29366
11
1.73671
21
1.30028
0
LINE
8
BLACK
6
CONTINUOUS
10
1.73671
20
1.30028
11
1.72567
21
1.30821
0
LINE
8
BLACK
6
CONTINUOUS
10
1.72567
20
1.30821
11
1.71561
21
1.31736
0
LINE
8
BLACK
6
CONTINUOUS
10
1.71561
20
1.31736
11
1.70667
21
1.32761
0
LINE
8
BLACK
6
CONTINUOUS
10
1.70667
20
1.32761
11
1.69897
21
1.33882
0
LINE
8
BLACK
6
CONTINUOUS
10
1.69897
20
1.33882
11
1.69261
21
1.35083
0
LINE
8
BLACK
6
CONTINUOUS
10
1.69261
20
1.35083
11
1.68767
21
1.3635
0
LINE
8
BLACK
6
CONTINUOUS
10
1.68767
20
1.3635
11
1.68422
21
1.37665
0
LINE
8
BLACK
6
CONTINUOUS
10
1.68422
20
1.37665
11
1.6823
21
1.39012
0
LINE
8
BLACK
6
CONTINUOUS
10
1.6823
20
1.39012
11
1.68195
21
1.40371
0
LINE
8
BLACK
6
CONTINUOUS
10
1.68195
20
1.40371
11
1.68316
21
1.41725
0
LINE
8
BLACK
6
CONTINUOUS
10
1.68316
20
1.41725
11
1.68591
21
1.43057
0
LINE
8
BLACK
6
CONTINUOUS
10
1.68591
20
1.43057
11
1.69018
21
1.44348
0
LINE
8
BLACK
6
CONTINUOUS
10
1.69018
20
1.44348
11
1.69591
21
1.45581
0
LINE
8
BLACK
6
CONTINUOUS
10
1.69591
20
1.45581
11
1.70301
21
1.46741
0
LINE
8
BLACK
6
CONTINUOUS
10
1.70301
20
1.46741
11
1.7114
21
1.47811
0
LINE
8
BLACK
6
CONTINUOUS
10
1.7114
20
1.47811
11
1.72097
21
1.48777
0
LINE
8
BLACK
6
CONTINUOUS
10
1.72097
20
1.48777
11
1.73158
21
1.49627
0
LINE
8
BLACK
6
CONTINUOUS
10
1.73158
20
1.49627
11
1.7431
21
1.5035
0
LINE
8
BLACK
6
CONTINUOUS
10
1.7431
20
1.5035
11
1.75537
21
1.50935
0
LINE
8
BLACK
6
CONTINUOUS
10
1.75537
20
1.50935
11
1.76824
21
1.51376
0
LINE
8
BLACK
6
CONTINUOUS
10
1.76824
20
1.51376
11
1.78152
21
1.51666
0
LINE
8
BLACK
6
CONTINUOUS
10
1.78152
20
1.51666
11
1.79505
21
1.51801
0
LINE
8
BLACK
6
CONTINUOUS
10
1.79505
20
1.51801
11
1.80865
21
1.51779
0
LINE
8
BLACK
6
CONTINUOUS
10
0.20865
20
1.51779
11
0.222132
21
1.51602
0
LINE
8
BLACK
6
CONTINUOUS
10
0.222132
20
1.51602
11
0.23532
21
1.51271
0
LINE
8
BLACK
6
CONTINUOUS
10
0.23532
20
1.51271
11
0.24804
21
1.5079
0
LINE
8
BLACK
6
CONTINUOUS
10
0.24804
20
1.5079
11
0.260123
21
1.50166
0
LINE
8
BLACK
6
CONTINUOUS
10
0.260123
20
1.50166
11
0.271409
21
1.49408
0
LINE
8
BLACK
6
CONTINUOUS
10
0.271409
20
1.49408
11
0.281749
21
1.48525
0
LINE
8
BLACK
6
CONTINUOUS
10
0.281749
20
1.48525
11
0.291006
21
1.47529
0
LINE
8
BLACK
6
CONTINUOUS
10
0.291006
20
1.47529
11
0.299056
21
1.46433
0
LINE
8
BLACK
6
CONTINUOUS
10
0.299056
20
1.46433
11
0.305793
21
1.45252
0
LINE
8
BLACK
6
CONTINUOUS
10
0.305793
20
1.45252
11
0.311128
21
1.44001
0
LINE
8
BLACK
6
CONTINUOUS
10
0.311128
20
1.44001
11
0.31499
21
1.42697
0
LINE
8
BLACK
6
CONTINUOUS
10
0.31499
20
1.42697
11
0.317327
21
1.41358
0
LINE
8
BLACK
6
CONTINUOUS
10
0.317327
20
1.41358
11
0.31811
21
1.4
0
LINE
8
BLACK
6
CONTINUOUS
10
0.31811
20
1.4
11
0.317877
21
1.39258
0
LINE
8
BLACK
6
CONTINUOUS
10
0.317877
20
1.39258
11
0.316244
21
1.37908
0
LINE
8
BLACK
6
CONTINUOUS
10
0.316244
20
1.37908
11
0.313069
21
1.36586
0
LINE
8
BLACK
6
CONTINUOUS
10
0.313069
20
1.36586
11
0.308396
21
1.35309
0
LINE
8
BLACK
6
CONTINUOUS
10
0.308396
20
1.35309
11
0.302286
21
1.34094
0
LINE
8
BLACK
6
CONTINUOUS
10
0.302286
20
1.34094
11
0.294821
21
1.32958
0
LINE
8
BLACK
6
CONTINUOUS
10
0.294821
20
1.32958
11
0.286099
21
1.31915
0
LINE
8
BLACK
6
CONTINUOUS
10
0.286099
20
1.31915
11
0.276235
21
1.30979
0
LINE
8
BLACK
6
CONTINUOUS
10
0.276235
20
1.30979
11
0.265361
21
1.30162
0
LINE
8
BLACK
6
CONTINUOUS
10
0.265361
20
1.30162
11
0.253621
21
1.29476
0
LINE
8
BLACK
6
CONTINUOUS
10
0.253621
20
1.29476
11
0.24117
21
1.2893
0
LINE
8
BLACK
6
CONTINUOUS
10
0.24117
20
1.2893
11
0.228173
21
1.2853
0
LINE
8
BLACK
6
CONTINUOUS
10
0.228173
20
1.2853
11
0.214803
21
1.28282
0
LINE
8
BLACK
6
CONTINUOUS
10
0.214803
20
1.28282
11
0.201237
21
1.2819
0
LINE
8
BLACK
6
CONTINUOUS
10
0.201237
20
1.2819
11
0.187654
21
1.28254
0
LINE
8
BLACK
6
CONTINUOUS
10
0.187654
20
1.28254
11
0.174235
21
1.28473
0
LINE
8
BLACK
6
CONTINUOUS
10
0.174235
20
1.28473
11
0.161157
21
1.28846
0
LINE
8
BLACK
6
CONTINUOUS
10
0.161157
20
1.28846
11
0.148595
21
1.29366
0
LINE
8
BLACK
6
CONTINUOUS
10
0.148595
20
1.29366
11
0.136713
21
1.30028
0
LINE
8
BLACK
6
CONTINUOUS
10
0.136713
20
1.30028
11
0.125671
21
1.30821
0
LINE
8
BLACK
6
CONTINUOUS
10
0.125671
20
1.30821
11
0.115613
21
1.31736
0
LINE
8
BLACK
6
CONTINUOUS
10
0.115613
20
1.31736
11
0.106675
21
1.32761
0
LINE
8
BLACK
6
CONTINUOUS
10
0.106675
20
1.32761
11
0.0989727
21
1.33882
0
LINE
8
BLACK
6
CONTINUOUS
10
0.0989727
20
1.33882
11
0.0926099
21
1.35083
0
LINE
8
BLACK
6
CONTINUOUS
10
0.0926099
20
1.35083
11
0.0876705
21
1.3635
0
LINE
8
BLACK
6
CONTINUOUS
10
0.0876705
20
1.3635
11
0.0842199
21
1.37665
0
LINE
8
BLACK
6
CONTINUOUS
10
0.0842199
20
1.37665
11
0.082304
21
1.39012
0
LINE
8
BLACK
6
CONTINUOUS
10
0.082304
20
1.39012
11
0.081948
21
1.40371
0
LINE
8
BLACK
6
CONTINUOUS
10
0.081948
20
1.40371
11
0.0831568
21
1.41725
0
LINE
8
BLACK
6
CONTINUOUS
10
0.0831568
20
1.41725
11
0.0859143
21
1.43057
0
LINE
8
BLACK
6
CONTINUOUS
10
0.0859143
20
1.43057
11
0.0901839
21
1.44348
0
LINE
8
BLACK
6
CONTINUOUS
10
0.0901839
20
1.44348
11
0.0959091
21
1.45581
0
LINE
8
BLACK
6
CONTINUOUS
10
0.0959091
20
1.45581
11
0.103014
21
1.46741
0
LINE
8
BLACK
6
CONTINUOUS
10
0.103014
20
1.46741
11
0.111404
21
1.47811
0
LINE
8
BLACK
6
CONTINUOUS
10
0.111404
20
1.47811
11
0.120969
21
1.48777
0
LINE
8
BLACK
6
CONTINUOUS
10
0.120969
20
1.48777
11
0.131581
21
1.49627
0
LINE
8
BLACK
6
CONTINUOUS
10
0.131581
20
1.49627
11
0.1431
21
1.5035
0
LINE
8
BLACK
6
CONTINUOUS
10
0.1431
20
1.5035
11
0.155373
21
1.50935
0
LINE
8
BLACK
6
CONTINUOUS
10
0.155373
20
1.50935
11
0.168238
21
1.51376
0
LINE
8
BLACK
6
CONTINUOUS
10
0.168238
20
1.51376
11
0.181524
21
1.51666
0
LINE
8
BLACK
6
CONTINUOUS
10
0.181524
20
1.51666
11
0.195054
21
1.51801
0
LINE
8
BLACK
6
CONTINUOUS
10
0.195054
20
1.51801
11
0.20865
21
1.51779
0
CIRCLE
8
BLACK
10
1.11
20
0.19
40
0.00787402
0
CIRCLE
8
BLACK
10
1.05
20
0.19
40
0.00787402
0
CIRCLE
8
BLACK
10
0.99
20
0.19
40
0.00787402
0
CIRCLE
8
BLACK
10
0.93
20
0.19
40
0.00787402
0
CIRCLE
8
BLACK
10
0.87
20
0.19
40
0.00787402
0
CIRCLE
8
BLACK
10
1.82
20
0.8
40
0.00787402
0
CIRCLE
8
BLACK
10
1.82
20
0.68
40
0.00787402
0
CIRCLE
8
BLACK
10
1.82
20
0.73
40
0.00787402
0
CIRCLE
8
BLACK
10
1.82
20
0.86
40
0.00787402
0
CIRCLE
8
BLACK
10
1.82
20
0.92
40
0.00787402
0
CIRCLE
8
BLACK
10
0.25
20
0.74
40
0.00787402
0
CIRCLE
8
BLACK
10
0.25
20
0.8
40
0.00787402
0
CIRCLE
8
BLACK
10
0.25
20
0.93
40
0.00787402
0
CIRCLE
8
BLACK
10
0.25
20
0.86
40
0.00787402
0
CIRCLE
8
BLACK
10
1.6
20
1.29
40
0.00787402
0
CIRCLE
8
BLACK
10
1.55
20
1.29
40
0.00787402
0
CIRCLE
8
BLACK
10
1.5
20
1.29
40
0.00787402
0
CIRCLE
8
BLACK
10
1.45
20
1.29
40
0.00787402
0
CIRCLE
8
BLACK
10
1.58
20
0.35
40
0.00787402
0
CIRCLE
8
BLACK
10
1.53
20
0.35
40
0.00787402
0
CIRCLE
8
BLACK
10
1.48
20
0.35
40
0.00787402
0
CIRCLE
8
BLACK
10
1.43
20
0.35
40
0.00787402
0
CIRCLE
8
BLACK
10
1.58
20
0.39
40
0.00787402
0
CIRCLE
8
BLACK
10
1.53
20
0.39
40
0.00787402
0
CIRCLE
8
BLACK
10
1.48
20
0.39
40
0.00787402
0
CIRCLE
8
BLACK
10
1.43
20
0.39
40
0.00787402
0
CIRCLE
8
BLACK
10
0.54
20
0.17
40
0.00787402
0
CIRCLE
8
BLACK
10
0.54
20
0.25
40
0.00787402
0
CIRCLE
8
BLACK
10
0.54
20
0.31
40
0.00787402
0
CIRCLE
8
BLACK
10
0.54
20
0.37
40
0.00787402
0
CIRCLE
8
BLACK
10
0.09
20
1.19
40
0.00787402
0
CIRCLE
8
BLACK
10
0.19
20
1.19
40
0.00787402
0
CIRCLE
8
BLACK
10
0.26
20
1.19
40
0.00787402
0
CIRCLE
8
BLACK
10
1.03
20
0.59
40
0.00787402
0
CIRCLE
8
BLACK
10
0.96
20
0.59
40
0.00787402
0
CIRCLE
8
BLACK
10
1.5
20
1.02
40
0.00787402
0
CIRCLE
8
BLACK
10
1.55
20
0.98
40
0.00787402
0
CIRCLE
8
BLACK
10
0.71
20
1.06
40
0.00787402
0
CIRCLE
8
BLACK
10
0.71
20
1.11
40
0.00787402
0
CIRCLE
8
BLACK
10
0.74
20
1.15
40
0.00787402
0
CIRCLE
8
BLACK
10
0.78
20
1.18
40
0.00787402
0
CIRCLE
8
BLACK
10
1.425
20
0.83
40
0.00787402
0
CIRCLE
8
BLACK
10
1.225
20
0.84
40
0.00787402
0
CIRCLE
8
BLACK
10
1.02
20
0.91
40
0.00787402
0
CIRCLE
8
BLACK
10
1.5
20
0.865
40
0.00787402
0
CIRCLE
8
BLACK
10
1.315
20
0.795
40
0.00787402
0
CIRCLE
8
BLACK
10
1.12
20
0.875
40
0.00787402
  0
ENDSEC
  0
EOF
