  0
SECTION
  2
HEADER
  9
$ANGBASE
  50
0.0
  9
$ANGDIR
  70
1
  9
$MEASUREMENT
  70
0
  0
ENDSEC
  0
SECTION
  2
TABLES
  0
TABLE
  2
LTYPE
  70
4
  0
LTYPE
  5
40F
  2
CONTINUOUS
  70
0
  3
Solid line
  72
65
  73
0
  40
0.0
  0
LTYPE
  5
410
  2
DASHDOT
 70
0
  3
Dash Dot ____ _ ____ _
 72
65
 73
4
 40
2.0
 49
1.25
 49
-0.25
 49
0.25
 49
-0.25
  0
LTYPE
  5
411
  2
DASHED
 70
0
  3
Dashed __ __ __ __ __
 72
65
 73
2
 40
0.75
 49
0.5
 49
-0.25
  0
LTYPE
  5
43B
  2
DOTTED
 70
0
  3
Dotted .  .  .  .
 72
65
 73
2
 40
0.2
 49
0.0
 49
-0.2
  0
ENDTAB
  0
TABLE
  2
STYLE
  70
4
  0
STYLE
  2
KICAD
  70
0
  40
0
  41
1
  42
1
  50
0
  71
0
  3
isocp.shx
  0
STYLE
  2
KICADB
  70
0
  40
0
  41
1
  42
1
  50
0
  71
0
  3
isocp.shx
  0
STYLE
  2
KICADI
  70
0
  40
0
  41
1
  42
1
  50
15
  71
0
  3
isocp.shx
  0
STYLE
  2
KICADBI
  70
0
  40
0
  41
1
  42
1
  50
15
  71
0
  3
isocp.shx
  0
ENDTAB
  0
TABLE
  2
LAYER
  70
1
  0
LAYER
  2
BLACK
  70
0
  62
7
  6
CONTINUOUS
  0
ENDTAB
  0
ENDSEC
  0
SECTION
  2
ENTITIES
0
LINE
8
BLACK
6
CONTINUOUS
10
0.937922
20
0.169534
11
0.941975
21
0.182958
0
LINE
8
BLACK
6
CONTINUOUS
10
0.941975
20
0.182958
11
0.947499
21
0.195846
0
LINE
8
BLACK
6
CONTINUOUS
10
0.947499
20
0.195846
11
0.954425
21
0.208039
0
LINE
8
BLACK
6
CONTINUOUS
10
0.954425
20
0.208039
11
0.962667
21
0.219383
0
LINE
8
BLACK
6
CONTINUOUS
10
0.962667
20
0.219383
11
0.972122
21
0.229738
0
LINE
8
BLACK
6
CONTINUOUS
10
0.972122
20
0.229738
11
0.982673
21
0.238974
0
LINE
8
BLACK
6
CONTINUOUS
10
0.982673
20
0.238974
11
0.994187
21
0.246977
0
LINE
8
BLACK
6
CONTINUOUS
10
0.994187
20
0.246977
11
1.00652
21
0.253646
0
LINE
8
BLACK
6
CONTINUOUS
10
1.00652
20
0.253646
11
1.01952
21
0.258899
0
LINE
8
BLACK
6
CONTINUOUS
10
1.01952
20
0.258899
11
1.03303
21
0.26267
0
LINE
8
BLACK
6
CONTINUOUS
10
1.03303
20
0.26267
11
1.04687
21
0.264912
0
LINE
8
BLACK
6
CONTINUOUS
10
1.04687
20
0.264912
11
1.06088
21
0.265597
0
LINE
8
BLACK
6
CONTINUOUS
10
1.06088
20
0.265597
11
1.07487
21
0.264716
0
LINE
8
BLACK
6
CONTINUOUS
10
1.07487
20
0.264716
11
1.08868
21
0.262281
0
LINE
8
BLACK
6
CONTINUOUS
10
1.08868
20
0.262281
11
1.10213
21
0.258322
0
LINE
8
BLACK
6
CONTINUOUS
10
1.10213
20
0.258322
11
1.11506
21
0.252889
0
LINE
8
BLACK
6
CONTINUOUS
10
1.11506
20
0.252889
11
1.1273
21
0.246048
0
LINE
8
BLACK
6
CONTINUOUS
10
1.1273
20
0.246048
11
1.1387
21
0.237885
0
LINE
8
BLACK
6
CONTINUOUS
10
1.1387
20
0.237885
11
1.14912
21
0.228502
0
LINE
8
BLACK
6
CONTINUOUS
10
1.14912
20
0.228502
11
1.15843
21
0.218016
0
LINE
8
BLACK
6
CONTINUOUS
10
1.15843
20
0.218016
11
1.16651
21
0.206558
0
LINE
8
BLACK
6
CONTINUOUS
10
1.16651
20
0.206558
11
1.17327
21
0.19427
0
LINE
8
BLACK
6
CONTINUOUS
10
1.17327
20
0.19427
11
1.17861
21
0.181306
0
LINE
8
BLACK
6
CONTINUOUS
10
1.17861
20
0.181306
11
1.18248
21
0.167826
0
LINE
8
BLACK
6
CONTINUOUS
10
1.18248
20
0.167826
11
1.18482
21
0.154001
0
LINE
8
BLACK
6
CONTINUOUS
10
1.18482
20
0.154001
11
1.1856
21
0.14
0
LINE
8
BLACK
6
CONTINUOUS
10
1.1856
20
0.14
11
1.18555
21
0.136493
0
LINE
8
BLACK
6
CONTINUOUS
10
1.18555
20
0.136493
11
1.18438
21
0.12252
0
LINE
8
BLACK
6
CONTINUOUS
10
1.18438
20
0.12252
11
1.18165
21
0.108765
0
LINE
8
BLACK
6
CONTINUOUS
10
1.18165
20
0.108765
11
1.17741
21
0.0953986
0
LINE
8
BLACK
6
CONTINUOUS
10
1.17741
20
0.0953986
11
1.17171
21
0.0825885
0
LINE
8
BLACK
6
CONTINUOUS
10
1.17171
20
0.0825885
11
1.16461
21
0.070494
0
LINE
8
BLACK
6
CONTINUOUS
10
1.16461
20
0.070494
11
1.15622
21
0.0592659
0
LINE
8
BLACK
6
CONTINUOUS
10
1.15622
20
0.0592659
11
1.14662
21
0.049044
0
LINE
8
BLACK
6
CONTINUOUS
10
1.14662
20
0.049044
11
1.13594
21
0.0399558
0
LINE
8
BLACK
6
CONTINUOUS
10
1.13594
20
0.0399558
11
1.12431
21
0.0321146
0
LINE
8
BLACK
6
CONTINUOUS
10
1.12431
20
0.0321146
11
1.11189
21
0.0256181
0
LINE
8
BLACK
6
CONTINUOUS
10
1.11189
20
0.0256181
11
1.09881
21
0.0205473
0
LINE
8
BLACK
6
CONTINUOUS
10
1.09881
20
0.0205473
11
1.08526
21
0.0169654
0
LINE
8
BLACK
6
CONTINUOUS
10
1.08526
20
0.0169654
11
1.07138
21
0.0149169
0
LINE
8
BLACK
6
CONTINUOUS
10
1.07138
20
0.0149169
11
1.05737
21
0.0144276
0
LINE
8
BLACK
6
CONTINUOUS
10
1.05737
20
0.0144276
11
1.04339
21
0.0155033
0
LINE
8
BLACK
6
CONTINUOUS
10
1.04339
20
0.0155033
11
1.02961
21
0.0181309
0
LINE
8
BLACK
6
CONTINUOUS
10
1.02961
20
0.0181309
11
1.01622
21
0.0222774
0
LINE
8
BLACK
6
CONTINUOUS
10
1.01622
20
0.0222774
11
1.00337
21
0.0278912
0
LINE
8
BLACK
6
CONTINUOUS
10
1.00337
20
0.0278912
11
0.991226
21
0.0349024
0
LINE
8
BLACK
6
CONTINUOUS
10
0.991226
20
0.0349024
11
0.97994
21
0.0432235
0
LINE
8
BLACK
6
CONTINUOUS
10
0.97994
20
0.0432235
11
0.969651
21
0.0527509
0
LINE
8
BLACK
6
CONTINUOUS
10
0.969651
20
0.0527509
11
0.960488
21
0.0633657
0
LINE
8
BLACK
6
CONTINUOUS
10
0.960488
20
0.0633657
11
0.952566
21
0.0749358
0
LINE
8
BLACK
6
CONTINUOUS
10
0.952566
20
0.0749358
11
0.945983
21
0.0873168
0
LINE
8
BLACK
6
CONTINUOUS
10
0.945983
20
0.0873168
11
0.940821
21
0.100354
0
LINE
8
BLACK
6
CONTINUOUS
10
0.940821
20
0.100354
11
0.937145
21
0.113886
0
LINE
8
BLACK
6
CONTINUOUS
10
0.937145
20
0.113886
11
0.934999
21
0.127744
0
LINE
8
BLACK
6
CONTINUOUS
10
0.934999
20
0.127744
11
0.934412
21
0.141754
0
LINE
8
BLACK
6
CONTINUOUS
10
0.934412
20
0.141754
11
0.934533
21
0.14348
0
LINE
8
BLACK
6
CONTINUOUS
10
0.934533
20
0.14348
11
0.93539
21
0.155742
0
LINE
8
BLACK
6
CONTINUOUS
10
0.93539
20
0.155742
11
0.937922
21
0.169534
0
LINE
8
BLACK
6
CONTINUOUS
10
0.951398
20
0.118102
11
0.954635
21
0.105765
0
LINE
8
BLACK
6
CONTINUOUS
10
0.954635
20
0.105765
11
0.959268
21
0.0938813
0
LINE
8
BLACK
6
CONTINUOUS
10
0.959268
20
0.0938813
11
0.965236
21
0.0826091
0
LINE
8
BLACK
6
CONTINUOUS
10
0.965236
20
0.0826091
11
0.972461
21
0.0720976
0
LINE
8
BLACK
6
CONTINUOUS
10
0.972461
20
0.0720976
11
0.980845
21
0.0624861
0
LINE
8
BLACK
6
CONTINUOUS
10
0.980845
20
0.0624861
11
0.990279
21
0.053902
0
LINE
8
BLACK
6
CONTINUOUS
10
0.990279
20
0.053902
11
1.00064
21
0.0464591
0
LINE
8
BLACK
6
CONTINUOUS
10
1.00064
20
0.0464591
11
1.01178
21
0.040256
0
LINE
8
BLACK
6
CONTINUOUS
10
1.01178
20
0.040256
11
1.02357
21
0.035375
0
LINE
8
BLACK
6
CONTINUOUS
10
1.02357
20
0.035375
11
1.03583
21
0.0318807
0
LINE
8
BLACK
6
CONTINUOUS
10
1.03583
20
0.0318807
11
1.04842
21
0.0298194
0
LINE
8
BLACK
6
CONTINUOUS
10
1.04842
20
0.0298194
11
1.06116
21
0.0292186
0
LINE
8
BLACK
6
CONTINUOUS
10
1.06116
20
0.0292186
11
1.07389
21
0.0300861
0
LINE
8
BLACK
6
CONTINUOUS
10
1.07389
20
0.0300861
11
1.08643
21
0.0324105
0
LINE
8
BLACK
6
CONTINUOUS
10
1.08643
20
0.0324105
11
1.09862
21
0.0361609
0
LINE
8
BLACK
6
CONTINUOUS
10
1.09862
20
0.0361609
11
1.1103
21
0.0412877
0
LINE
8
BLACK
6
CONTINUOUS
10
1.1103
20
0.0412877
11
1.12131
21
0.0477228
0
LINE
8
BLACK
6
CONTINUOUS
10
1.12131
20
0.0477228
11
1.13151
21
0.055381
0
LINE
8
BLACK
6
CONTINUOUS
10
1.13151
20
0.055381
11
1.14076
21
0.0641608
0
LINE
8
BLACK
6
CONTINUOUS
10
1.14076
20
0.0641608
11
1.14894
21
0.0739458
0
LINE
8
BLACK
6
CONTINUOUS
10
1.14894
20
0.0739458
11
1.15594
21
0.0846063
0
LINE
8
BLACK
6
CONTINUOUS
10
1.15594
20
0.0846063
11
1.16168
21
0.096001
0
LINE
8
BLACK
6
CONTINUOUS
10
1.16168
20
0.096001
11
1.16606
21
0.107979
0
LINE
8
BLACK
6
CONTINUOUS
10
1.16606
20
0.107979
11
1.16904
21
0.120381
0
LINE
8
BLACK
6
CONTINUOUS
10
1.16904
20
0.120381
11
1.17057
21
0.133044
0
LINE
8
BLACK
6
CONTINUOUS
10
1.17057
20
0.133044
11
1.17079
21
0.14
0
LINE
8
BLACK
6
CONTINUOUS
10
1.17079
20
0.14
11
1.17005
21
0.152734
0
LINE
8
BLACK
6
CONTINUOUS
10
1.17005
20
0.152734
11
1.16786
21
0.165298
0
LINE
8
BLACK
6
CONTINUOUS
10
1.16786
20
0.165298
11
1.16424
21
0.177528
0
LINE
8
BLACK
6
CONTINUOUS
10
1.16424
20
0.177528
11
1.15923
21
0.18926
0
LINE
8
BLACK
6
CONTINUOUS
10
1.15923
20
0.18926
11
1.15291
21
0.200339
0
LINE
8
BLACK
6
CONTINUOUS
10
1.15291
20
0.200339
11
1.14536
21
0.210619
0
LINE
8
BLACK
6
CONTINUOUS
10
1.14536
20
0.210619
11
1.13668
21
0.219962
0
LINE
8
BLACK
6
CONTINUOUS
10
1.13668
20
0.219962
11
1.12698
21
0.228246
0
LINE
8
BLACK
6
CONTINUOUS
10
1.12698
20
0.228246
11
1.1164
21
0.235359
0
LINE
8
BLACK
6
CONTINUOUS
10
1.1164
20
0.235359
11
1.10506
21
0.241209
0
LINE
8
BLACK
6
CONTINUOUS
10
1.10506
20
0.241209
11
1.09313
21
0.245718
0
LINE
8
BLACK
6
CONTINUOUS
10
1.09313
20
0.245718
11
1.08076
21
0.248825
0
LINE
8
BLACK
6
CONTINUOUS
10
1.08076
20
0.248825
11
1.06811
21
0.25049
0
LINE
8
BLACK
6
CONTINUOUS
10
1.06811
20
0.25049
11
1.05536
21
0.25069
0
LINE
8
BLACK
6
CONTINUOUS
10
1.05536
20
0.25069
11
1.04267
21
0.249423
0
LINE
8
BLACK
6
CONTINUOUS
10
1.04267
20
0.249423
11
1.03021
21
0.246706
0
LINE
8
BLACK
6
CONTINUOUS
10
1.03021
20
0.246706
11
1.01814
21
0.242575
0
LINE
8
BLACK
6
CONTINUOUS
10
1.01814
20
0.242575
11
1.00663
21
0.237084
0
LINE
8
BLACK
6
CONTINUOUS
10
1.00663
20
0.237084
11
0.995823
21
0.230306
0
LINE
8
BLACK
6
CONTINUOUS
10
0.995823
20
0.230306
11
0.985869
21
0.222331
0
LINE
8
BLACK
6
CONTINUOUS
10
0.985869
20
0.222331
11
0.976897
21
0.213265
0
LINE
8
BLACK
6
CONTINUOUS
10
0.976897
20
0.213265
11
0.969027
21
0.203228
0
LINE
8
BLACK
6
CONTINUOUS
10
0.969027
20
0.203228
11
0.962363
21
0.192353
0
LINE
8
BLACK
6
CONTINUOUS
10
0.962363
20
0.192353
11
0.956992
21
0.180784
0
LINE
8
BLACK
6
CONTINUOUS
10
0.956992
20
0.180784
11
0.952988
21
0.168674
0
LINE
8
BLACK
6
CONTINUOUS
10
0.952988
20
0.168674
11
0.950401
21
0.156184
0
LINE
8
BLACK
6
CONTINUOUS
10
0.950401
20
0.156184
11
0.949267
21
0.14348
0
LINE
8
BLACK
6
CONTINUOUS
10
0.949267
20
0.14348
11
0.949601
21
0.13073
0
LINE
8
BLACK
6
CONTINUOUS
10
0.949601
20
0.13073
11
0.951398
21
0.118102
0
LINE
8
BLACK
6
CONTINUOUS
10
1.29792
20
0.169534
11
1.30197
21
0.182958
0
LINE
8
BLACK
6
CONTINUOUS
10
1.30197
20
0.182958
11
1.3075
21
0.195846
0
LINE
8
BLACK
6
CONTINUOUS
10
1.3075
20
0.195846
11
1.31442
21
0.208039
0
LINE
8
BLACK
6
CONTINUOUS
10
1.31442
20
0.208039
11
1.32267
21
0.219383
0
LINE
8
BLACK
6
CONTINUOUS
10
1.32267
20
0.219383
11
1.33212
21
0.229738
0
LINE
8
BLACK
6
CONTINUOUS
10
1.33212
20
0.229738
11
1.34267
21
0.238974
0
LINE
8
BLACK
6
CONTINUOUS
10
1.34267
20
0.238974
11
1.35419
21
0.246977
0
LINE
8
BLACK
6
CONTINUOUS
10
1.35419
20
0.246977
11
1.36652
21
0.253646
0
LINE
8
BLACK
6
CONTINUOUS
10
1.36652
20
0.253646
11
1.37952
21
0.258899
0
LINE
8
BLACK
6
CONTINUOUS
10
1.37952
20
0.258899
11
1.39303
21
0.26267
0
LINE
8
BLACK
6
CONTINUOUS
10
1.39303
20
0.26267
11
1.40687
21
0.264912
0
LINE
8
BLACK
6
CONTINUOUS
10
1.40687
20
0.264912
11
1.42088
21
0.265597
0
LINE
8
BLACK
6
CONTINUOUS
10
1.42088
20
0.265597
11
1.43487
21
0.264716
0
LINE
8
BLACK
6
CONTINUOUS
10
1.43487
20
0.264716
11
1.44868
21
0.262281
0
LINE
8
BLACK
6
CONTINUOUS
10
1.44868
20
0.262281
11
1.46213
21
0.258322
0
LINE
8
BLACK
6
CONTINUOUS
10
1.46213
20
0.258322
11
1.47506
21
0.252889
0
LINE
8
BLACK
6
CONTINUOUS
10
1.47506
20
0.252889
11
1.4873
21
0.246048
0
LINE
8
BLACK
6
CONTINUOUS
10
1.4873
20
0.246048
11
1.4987
21
0.237885
0
LINE
8
BLACK
6
CONTINUOUS
10
1.4987
20
0.237885
11
1.50912
21
0.228502
0
LINE
8
BLACK
6
CONTINUOUS
10
1.50912
20
0.228502
11
1.51843
21
0.218016
0
LINE
8
BLACK
6
CONTINUOUS
10
1.51843
20
0.218016
11
1.52651
21
0.206558
0
LINE
8
BLACK
6
CONTINUOUS
10
1.52651
20
0.206558
11
1.53327
21
0.19427
0
LINE
8
BLACK
6
CONTINUOUS
10
1.53327
20
0.19427
11
1.53861
21
0.181306
0
LINE
8
BLACK
6
CONTINUOUS
10
1.53861
20
0.181306
11
1.54248
21
0.167826
0
LINE
8
BLACK
6
CONTINUOUS
10
1.54248
20
0.167826
11
1.54482
21
0.154001
0
LINE
8
BLACK
6
CONTINUOUS
10
1.54482
20
0.154001
11
1.5456
21
0.14
0
LINE
8
BLACK
6
CONTINUOUS
10
1.5456
20
0.14
11
1.54555
21
0.136493
0
LINE
8
BLACK
6
CONTINUOUS
10
1.54555
20
0.136493
11
1.54438
21
0.12252
0
LINE
8
BLACK
6
CONTINUOUS
10
1.54438
20
0.12252
11
1.54165
21
0.108765
0
LINE
8
BLACK
6
CONTINUOUS
10
1.54165
20
0.108765
11
1.53741
21
0.0953986
0
LINE
8
BLACK
6
CONTINUOUS
10
1.53741
20
0.0953986
11
1.53171
21
0.0825885
0
LINE
8
BLACK
6
CONTINUOUS
10
1.53171
20
0.0825885
11
1.52461
21
0.070494
0
LINE
8
BLACK
6
CONTINUOUS
10
1.52461
20
0.070494
11
1.51622
21
0.0592659
0
LINE
8
BLACK
6
CONTINUOUS
10
1.51622
20
0.0592659
11
1.50662
21
0.049044
0
LINE
8
BLACK
6
CONTINUOUS
10
1.50662
20
0.049044
11
1.49594
21
0.0399558
0
LINE
8
BLACK
6
CONTINUOUS
10
1.49594
20
0.0399558
11
1.48431
21
0.0321146
0
LINE
8
BLACK
6
CONTINUOUS
10
1.48431
20
0.0321146
11
1.47189
21
0.0256181
0
LINE
8
BLACK
6
CONTINUOUS
10
1.47189
20
0.0256181
11
1.45881
21
0.0205473
0
LINE
8
BLACK
6
CONTINUOUS
10
1.45881
20
0.0205473
11
1.44526
21
0.0169654
0
LINE
8
BLACK
6
CONTINUOUS
10
1.44526
20
0.0169654
11
1.43138
21
0.0149169
0
LINE
8
BLACK
6
CONTINUOUS
10
1.43138
20
0.0149169
11
1.41737
21
0.0144276
0
LINE
8
BLACK
6
CONTINUOUS
10
1.41737
20
0.0144276
11
1.40339
21
0.0155033
0
LINE
8
BLACK
6
CONTINUOUS
10
1.40339
20
0.0155033
11
1.38961
21
0.0181309
0
LINE
8
BLACK
6
CONTINUOUS
10
1.38961
20
0.0181309
11
1.37622
21
0.0222774
0
LINE
8
BLACK
6
CONTINUOUS
10
1.37622
20
0.0222774
11
1.36337
21
0.0278912
0
LINE
8
BLACK
6
CONTINUOUS
10
1.36337
20
0.0278912
11
1.35123
21
0.0349024
0
LINE
8
BLACK
6
CONTINUOUS
10
1.35123
20
0.0349024
11
1.33994
21
0.0432235
0
LINE
8
BLACK
6
CONTINUOUS
10
1.33994
20
0.0432235
11
1.32965
21
0.0527509
0
LINE
8
BLACK
6
CONTINUOUS
10
1.32965
20
0.0527509
11
1.32049
21
0.0633657
0
LINE
8
BLACK
6
CONTINUOUS
10
1.32049
20
0.0633657
11
1.31257
21
0.0749358
0
LINE
8
BLACK
6
CONTINUOUS
10
1.31257
20
0.0749358
11
1.30598
21
0.0873168
0
LINE
8
BLACK
6
CONTINUOUS
10
1.30598
20
0.0873168
11
1.30082
21
0.100354
0
LINE
8
BLACK
6
CONTINUOUS
10
1.30082
20
0.100354
11
1.29714
21
0.113886
0
LINE
8
BLACK
6
CONTINUOUS
10
1.29714
20
0.113886
11
1.295
21
0.127744
0
LINE
8
BLACK
6
CONTINUOUS
10
1.295
20
0.127744
11
1.29441
21
0.141754
0
LINE
8
BLACK
6
CONTINUOUS
10
1.29441
20
0.141754
11
1.29453
21
0.14348
0
LINE
8
BLACK
6
CONTINUOUS
10
1.29453
20
0.14348
11
1.29539
21
0.155742
0
LINE
8
BLACK
6
CONTINUOUS
10
1.29539
20
0.155742
11
1.29792
21
0.169534
0
LINE
8
BLACK
6
CONTINUOUS
10
1.3114
20
0.118102
11
1.31463
21
0.105765
0
LINE
8
BLACK
6
CONTINUOUS
10
1.31463
20
0.105765
11
1.31927
21
0.0938813
0
LINE
8
BLACK
6
CONTINUOUS
10
1.31927
20
0.0938813
11
1.32524
21
0.0826091
0
LINE
8
BLACK
6
CONTINUOUS
10
1.32524
20
0.0826091
11
1.33246
21
0.0720976
0
LINE
8
BLACK
6
CONTINUOUS
10
1.33246
20
0.0720976
11
1.34085
21
0.0624861
0
LINE
8
BLACK
6
CONTINUOUS
10
1.34085
20
0.0624861
11
1.35028
21
0.053902
0
LINE
8
BLACK
6
CONTINUOUS
10
1.35028
20
0.053902
11
1.36064
21
0.0464591
0
LINE
8
BLACK
6
CONTINUOUS
10
1.36064
20
0.0464591
11
1.37178
21
0.040256
0
LINE
8
BLACK
6
CONTINUOUS
10
1.37178
20
0.040256
11
1.38357
21
0.035375
0
LINE
8
BLACK
6
CONTINUOUS
10
1.38357
20
0.035375
11
1.39583
21
0.0318807
0
LINE
8
BLACK
6
CONTINUOUS
10
1.39583
20
0.0318807
11
1.40842
21
0.0298194
0
LINE
8
BLACK
6
CONTINUOUS
10
1.40842
20
0.0298194
11
1.42116
21
0.0292186
0
LINE
8
BLACK
6
CONTINUOUS
10
1.42116
20
0.0292186
11
1.43389
21
0.0300861
0
LINE
8
BLACK
6
CONTINUOUS
10
1.43389
20
0.0300861
11
1.44643
21
0.0324105
0
LINE
8
BLACK
6
CONTINUOUS
10
1.44643
20
0.0324105
11
1.45862
21
0.0361609
0
LINE
8
BLACK
6
CONTINUOUS
10
1.45862
20
0.0361609
11
1.4703
21
0.0412877
0
LINE
8
BLACK
6
CONTINUOUS
10
1.4703
20
0.0412877
11
1.48131
21
0.0477228
0
LINE
8
BLACK
6
CONTINUOUS
10
1.48131
20
0.0477228
11
1.49151
21
0.055381
0
LINE
8
BLACK
6
CONTINUOUS
10
1.49151
20
0.055381
11
1.50076
21
0.0641608
0
LINE
8
BLACK
6
CONTINUOUS
10
1.50076
20
0.0641608
11
1.50894
21
0.0739458
0
LINE
8
BLACK
6
CONTINUOUS
10
1.50894
20
0.0739458
11
1.51594
21
0.0846063
0
LINE
8
BLACK
6
CONTINUOUS
10
1.51594
20
0.0846063
11
1.52168
21
0.096001
0
LINE
8
BLACK
6
CONTINUOUS
10
1.52168
20
0.096001
11
1.52606
21
0.107979
0
LINE
8
BLACK
6
CONTINUOUS
10
1.52606
20
0.107979
11
1.52904
21
0.120381
0
LINE
8
BLACK
6
CONTINUOUS
10
1.52904
20
0.120381
11
1.53057
21
0.133044
0
LINE
8
BLACK
6
CONTINUOUS
10
1.53057
20
0.133044
11
1.53079
21
0.14
0
LINE
8
BLACK
6
CONTINUOUS
10
1.53079
20
0.14
11
1.53005
21
0.152734
0
LINE
8
BLACK
6
CONTINUOUS
10
1.53005
20
0.152734
11
1.52786
21
0.165298
0
LINE
8
BLACK
6
CONTINUOUS
10
1.52786
20
0.165298
11
1.52424
21
0.177528
0
LINE
8
BLACK
6
CONTINUOUS
10
1.52424
20
0.177528
11
1.51923
21
0.18926
0
LINE
8
BLACK
6
CONTINUOUS
10
1.51923
20
0.18926
11
1.51291
21
0.200339
0
LINE
8
BLACK
6
CONTINUOUS
10
1.51291
20
0.200339
11
1.50536
21
0.210619
0
LINE
8
BLACK
6
CONTINUOUS
10
1.50536
20
0.210619
11
1.49668
21
0.219962
0
LINE
8
BLACK
6
CONTINUOUS
10
1.49668
20
0.219962
11
1.48698
21
0.228246
0
LINE
8
BLACK
6
CONTINUOUS
10
1.48698
20
0.228246
11
1.4764
21
0.235359
0
LINE
8
BLACK
6
CONTINUOUS
10
1.4764
20
0.235359
11
1.46506
21
0.241209
0
LINE
8
BLACK
6
CONTINUOUS
10
1.46506
20
0.241209
11
1.45313
21
0.245718
0
LINE
8
BLACK
6
CONTINUOUS
10
1.45313
20
0.245718
11
1.44076
21
0.248825
0
LINE
8
BLACK
6
CONTINUOUS
10
1.44076
20
0.248825
11
1.42811
21
0.25049
0
LINE
8
BLACK
6
CONTINUOUS
10
1.42811
20
0.25049
11
1.41536
21
0.25069
0
LINE
8
BLACK
6
CONTINUOUS
10
1.41536
20
0.25069
11
1.40267
21
0.249423
0
LINE
8
BLACK
6
CONTINUOUS
10
1.40267
20
0.249423
11
1.39021
21
0.246706
0
LINE
8
BLACK
6
CONTINUOUS
10
1.39021
20
0.246706
11
1.37814
21
0.242575
0
LINE
8
BLACK
6
CONTINUOUS
10
1.37814
20
0.242575
11
1.36663
21
0.237084
0
LINE
8
BLACK
6
CONTINUOUS
10
1.36663
20
0.237084
11
1.35582
21
0.230306
0
LINE
8
BLACK
6
CONTINUOUS
10
1.35582
20
0.230306
11
1.34587
21
0.222331
0
LINE
8
BLACK
6
CONTINUOUS
10
1.34587
20
0.222331
11
1.3369
21
0.213265
0
LINE
8
BLACK
6
CONTINUOUS
10
1.3369
20
0.213265
11
1.32903
21
0.203228
0
LINE
8
BLACK
6
CONTINUOUS
10
1.32903
20
0.203228
11
1.32236
21
0.192353
0
LINE
8
BLACK
6
CONTINUOUS
10
1.32236
20
0.192353
11
1.31699
21
0.180784
0
LINE
8
BLACK
6
CONTINUOUS
10
1.31699
20
0.180784
11
1.31299
21
0.168674
0
LINE
8
BLACK
6
CONTINUOUS
10
1.31299
20
0.168674
11
1.3104
21
0.156184
0
LINE
8
BLACK
6
CONTINUOUS
10
1.3104
20
0.156184
11
1.30927
21
0.14348
0
LINE
8
BLACK
6
CONTINUOUS
10
1.30927
20
0.14348
11
1.3096
21
0.13073
0
LINE
8
BLACK
6
CONTINUOUS
10
1.3096
20
0.13073
11
1.3114
21
0.118102
0
LINE
8
BLACK
6
CONTINUOUS
10
1.67792
20
0.229534
11
1.68197
21
0.242958
0
LINE
8
BLACK
6
CONTINUOUS
10
1.68197
20
0.242958
11
1.6875
21
0.255846
0
LINE
8
BLACK
6
CONTINUOUS
10
1.6875
20
0.255846
11
1.69442
21
0.268039
0
LINE
8
BLACK
6
CONTINUOUS
10
1.69442
20
0.268039
11
1.70267
21
0.279383
0
LINE
8
BLACK
6
CONTINUOUS
10
1.70267
20
0.279383
11
1.71212
21
0.289738
0
LINE
8
BLACK
6
CONTINUOUS
10
1.71212
20
0.289738
11
1.72267
21
0.298974
0
LINE
8
BLACK
6
CONTINUOUS
10
1.72267
20
0.298974
11
1.73419
21
0.306977
0
LINE
8
BLACK
6
CONTINUOUS
10
1.73419
20
0.306977
11
1.74652
21
0.313646
0
LINE
8
BLACK
6
CONTINUOUS
10
1.74652
20
0.313646
11
1.75952
21
0.318899
0
LINE
8
BLACK
6
CONTINUOUS
10
1.75952
20
0.318899
11
1.77303
21
0.32267
0
LINE
8
BLACK
6
CONTINUOUS
10
1.77303
20
0.32267
11
1.78687
21
0.324912
0
LINE
8
BLACK
6
CONTINUOUS
10
1.78687
20
0.324912
11
1.80088
21
0.325597
0
LINE
8
BLACK
6
CONTINUOUS
10
1.80088
20
0.325597
11
1.81487
21
0.324716
0
LINE
8
BLACK
6
CONTINUOUS
10
1.81487
20
0.324716
11
1.82868
21
0.322281
0
LINE
8
BLACK
6
CONTINUOUS
10
1.82868
20
0.322281
11
1.84213
21
0.318322
0
LINE
8
BLACK
6
CONTINUOUS
10
1.84213
20
0.318322
11
1.85506
21
0.312889
0
LINE
8
BLACK
6
CONTINUOUS
10
1.85506
20
0.312889
11
1.8673
21
0.306048
0
LINE
8
BLACK
6
CONTINUOUS
10
1.8673
20
0.306048
11
1.8787
21
0.297885
0
LINE
8
BLACK
6
CONTINUOUS
10
1.8787
20
0.297885
11
1.88912
21
0.288502
0
LINE
8
BLACK
6
CONTINUOUS
10
1.88912
20
0.288502
11
1.89843
21
0.278016
0
LINE
8
BLACK
6
CONTINUOUS
10
1.89843
20
0.278016
11
1.90651
21
0.266558
0
LINE
8
BLACK
6
CONTINUOUS
10
1.90651
20
0.266558
11
1.91327
21
0.25427
0
LINE
8
BLACK
6
CONTINUOUS
10
1.91327
20
0.25427
11
1.91861
21
0.241306
0
LINE
8
BLACK
6
CONTINUOUS
10
1.91861
20
0.241306
11
1.92248
21
0.227826
0
LINE
8
BLACK
6
CONTINUOUS
10
1.92248
20
0.227826
11
1.92482
21
0.214001
0
LINE
8
BLACK
6
CONTINUOUS
10
1.92482
20
0.214001
11
1.9256
21
0.2
0
LINE
8
BLACK
6
CONTINUOUS
10
1.9256
20
0.2
11
1.92555
21
0.196493
0
LINE
8
BLACK
6
CONTINUOUS
10
1.92555
20
0.196493
11
1.92438
21
0.18252
0
LINE
8
BLACK
6
CONTINUOUS
10
1.92438
20
0.18252
11
1.92165
21
0.168765
0
LINE
8
BLACK
6
CONTINUOUS
10
1.92165
20
0.168765
11
1.91741
21
0.155399
0
LINE
8
BLACK
6
CONTINUOUS
10
1.91741
20
0.155399
11
1.91171
21
0.142589
0
LINE
8
BLACK
6
CONTINUOUS
10
1.91171
20
0.142589
11
1.90461
21
0.130494
0
LINE
8
BLACK
6
CONTINUOUS
10
1.90461
20
0.130494
11
1.89622
21
0.119266
0
LINE
8
BLACK
6
CONTINUOUS
10
1.89622
20
0.119266
11
1.88662
21
0.109044
0
LINE
8
BLACK
6
CONTINUOUS
10
1.88662
20
0.109044
11
1.87594
21
0.0999558
0
LINE
8
BLACK
6
CONTINUOUS
10
1.87594
20
0.0999558
11
1.86431
21
0.0921146
0
LINE
8
BLACK
6
CONTINUOUS
10
1.86431
20
0.0921146
11
1.85189
21
0.0856181
0
LINE
8
BLACK
6
CONTINUOUS
10
1.85189
20
0.0856181
11
1.83881
21
0.0805473
0
LINE
8
BLACK
6
CONTINUOUS
10
1.83881
20
0.0805473
11
1.82526
21
0.0769654
0
LINE
8
BLACK
6
CONTINUOUS
10
1.82526
20
0.0769654
11
1.81138
21
0.0749169
0
LINE
8
BLACK
6
CONTINUOUS
10
1.81138
20
0.0749169
11
1.79737
21
0.0744276
0
LINE
8
BLACK
6
CONTINUOUS
10
1.79737
20
0.0744276
11
1.78339
21
0.0755033
0
LINE
8
BLACK
6
CONTINUOUS
10
1.78339
20
0.0755033
11
1.76961
21
0.0781309
0
LINE
8
BLACK
6
CONTINUOUS
10
1.76961
20
0.0781309
11
1.75622
21
0.0822774
0
LINE
8
BLACK
6
CONTINUOUS
10
1.75622
20
0.0822774
11
1.74337
21
0.0878912
0
LINE
8
BLACK
6
CONTINUOUS
10
1.74337
20
0.0878912
11
1.73123
21
0.0949024
0
LINE
8
BLACK
6
CONTINUOUS
10
1.73123
20
0.0949024
11
1.71994
21
0.103224
0
LINE
8
BLACK
6
CONTINUOUS
10
1.71994
20
0.103224
11
1.70965
21
0.112751
0
LINE
8
BLACK
6
CONTINUOUS
10
1.70965
20
0.112751
11
1.70049
21
0.123366
0
LINE
8
BLACK
6
CONTINUOUS
10
1.70049
20
0.123366
11
1.69257
21
0.134936
0
LINE
8
BLACK
6
CONTINUOUS
10
1.69257
20
0.134936
11
1.68598
21
0.147317
0
LINE
8
BLACK
6
CONTINUOUS
10
1.68598
20
0.147317
11
1.68082
21
0.160354
0
LINE
8
BLACK
6
CONTINUOUS
10
1.68082
20
0.160354
11
1.67714
21
0.173886
0
LINE
8
BLACK
6
CONTINUOUS
10
1.67714
20
0.173886
11
1.675
21
0.187744
0
LINE
8
BLACK
6
CONTINUOUS
10
1.675
20
0.187744
11
1.67441
21
0.201754
0
LINE
8
BLACK
6
CONTINUOUS
10
1.67441
20
0.201754
11
1.67453
21
0.20348
0
LINE
8
BLACK
6
CONTINUOUS
10
1.67453
20
0.20348
11
1.67539
21
0.215742
0
LINE
8
BLACK
6
CONTINUOUS
10
1.67539
20
0.215742
11
1.67792
21
0.229534
0
LINE
8
BLACK
6
CONTINUOUS
10
1.6914
20
0.178102
11
1.69463
21
0.165765
0
LINE
8
BLACK
6
CONTINUOUS
10
1.69463
20
0.165765
11
1.69927
21
0.153881
0
LINE
8
BLACK
6
CONTINUOUS
10
1.69927
20
0.153881
11
1.70524
21
0.142609
0
LINE
8
BLACK
6
CONTINUOUS
10
1.70524
20
0.142609
11
1.71246
21
0.132098
0
LINE
8
BLACK
6
CONTINUOUS
10
1.71246
20
0.132098
11
1.72085
21
0.122486
0
LINE
8
BLACK
6
CONTINUOUS
10
1.72085
20
0.122486
11
1.73028
21
0.113902
0
LINE
8
BLACK
6
CONTINUOUS
10
1.73028
20
0.113902
11
1.74064
21
0.106459
0
LINE
8
BLACK
6
CONTINUOUS
10
1.74064
20
0.106459
11
1.75178
21
0.100256
0
LINE
8
BLACK
6
CONTINUOUS
10
1.75178
20
0.100256
11
1.76357
21
0.095375
0
LINE
8
BLACK
6
CONTINUOUS
10
1.76357
20
0.095375
11
1.77583
21
0.0918807
0
LINE
8
BLACK
6
CONTINUOUS
10
1.77583
20
0.0918807
11
1.78842
21
0.0898194
0
LINE
8
BLACK
6
CONTINUOUS
10
1.78842
20
0.0898194
11
1.80116
21
0.0892186
0
LINE
8
BLACK
6
CONTINUOUS
10
1.80116
20
0.0892186
11
1.81389
21
0.0900861
0
LINE
8
BLACK
6
CONTINUOUS
10
1.81389
20
0.0900861
11
1.82643
21
0.0924105
0
LINE
8
BLACK
6
CONTINUOUS
10
1.82643
20
0.0924105
11
1.83862
21
0.0961609
0
LINE
8
BLACK
6
CONTINUOUS
10
1.83862
20
0.0961609
11
1.8503
21
0.101288
0
LINE
8
BLACK
6
CONTINUOUS
10
1.8503
20
0.101288
11
1.86131
21
0.107723
0
LINE
8
BLACK
6
CONTINUOUS
10
1.86131
20
0.107723
11
1.87151
21
0.115381
0
LINE
8
BLACK
6
CONTINUOUS
10
1.87151
20
0.115381
11
1.88076
21
0.124161
0
LINE
8
BLACK
6
CONTINUOUS
10
1.88076
20
0.124161
11
1.88894
21
0.133946
0
LINE
8
BLACK
6
CONTINUOUS
10
1.88894
20
0.133946
11
1.89594
21
0.144606
0
LINE
8
BLACK
6
CONTINUOUS
10
1.89594
20
0.144606
11
1.90168
21
0.156001
0
LINE
8
BLACK
6
CONTINUOUS
10
1.90168
20
0.156001
11
1.90606
21
0.167979
0
LINE
8
BLACK
6
CONTINUOUS
10
1.90606
20
0.167979
11
1.90904
21
0.180381
0
LINE
8
BLACK
6
CONTINUOUS
10
1.90904
20
0.180381
11
1.91057
21
0.193044
0
LINE
8
BLACK
6
CONTINUOUS
10
1.91057
20
0.193044
11
1.91079
21
0.2
0
LINE
8
BLACK
6
CONTINUOUS
10
1.91079
20
0.2
11
1.91005
21
0.212734
0
LINE
8
BLACK
6
CONTINUOUS
10
1.91005
20
0.212734
11
1.90786
21
0.225298
0
LINE
8
BLACK
6
CONTINUOUS
10
1.90786
20
0.225298
11
1.90424
21
0.237528
0
LINE
8
BLACK
6
CONTINUOUS
10
1.90424
20
0.237528
11
1.89923
21
0.24926
0
LINE
8
BLACK
6
CONTINUOUS
10
1.89923
20
0.24926
11
1.89291
21
0.260339
0
LINE
8
BLACK
6
CONTINUOUS
10
1.89291
20
0.260339
11
1.88536
21
0.270619
0
LINE
8
BLACK
6
CONTINUOUS
10
1.88536
20
0.270619
11
1.87668
21
0.279962
0
LINE
8
BLACK
6
CONTINUOUS
10
1.87668
20
0.279962
11
1.86698
21
0.288246
0
LINE
8
BLACK
6
CONTINUOUS
10
1.86698
20
0.288246
11
1.8564
21
0.295359
0
LINE
8
BLACK
6
CONTINUOUS
10
1.8564
20
0.295359
11
1.84506
21
0.301209
0
LINE
8
BLACK
6
CONTINUOUS
10
1.84506
20
0.301209
11
1.83313
21
0.305718
0
LINE
8
BLACK
6
CONTINUOUS
10
1.83313
20
0.305718
11
1.82076
21
0.308825
0
LINE
8
BLACK
6
CONTINUOUS
10
1.82076
20
0.308825
11
1.80811
21
0.31049
0
LINE
8
BLACK
6
CONTINUOUS
10
1.80811
20
0.31049
11
1.79536
21
0.31069
0
LINE
8
BLACK
6
CONTINUOUS
10
1.79536
20
0.31069
11
1.78267
21
0.309423
0
LINE
8
BLACK
6
CONTINUOUS
10
1.78267
20
0.309423
11
1.77021
21
0.306706
0
LINE
8
BLACK
6
CONTINUOUS
10
1.77021
20
0.306706
11
1.75814
21
0.302575
0
LINE
8
BLACK
6
CONTINUOUS
10
1.75814
20
0.302575
11
1.74663
21
0.297084
0
LINE
8
BLACK
6
CONTINUOUS
10
1.74663
20
0.297084
11
1.73582
21
0.290306
0
LINE
8
BLACK
6
CONTINUOUS
10
1.73582
20
0.290306
11
1.72587
21
0.282331
0
LINE
8
BLACK
6
CONTINUOUS
10
1.72587
20
0.282331
11
1.7169
21
0.273265
0
LINE
8
BLACK
6
CONTINUOUS
10
1.7169
20
0.273265
11
1.70903
21
0.263228
0
LINE
8
BLACK
6
CONTINUOUS
10
1.70903
20
0.263228
11
1.70236
21
0.252353
0
LINE
8
BLACK
6
CONTINUOUS
10
1.70236
20
0.252353
11
1.69699
21
0.240784
0
LINE
8
BLACK
6
CONTINUOUS
10
1.69699
20
0.240784
11
1.69299
21
0.228674
0
LINE
8
BLACK
6
CONTINUOUS
10
1.69299
20
0.228674
11
1.6904
21
0.216184
0
LINE
8
BLACK
6
CONTINUOUS
10
1.6904
20
0.216184
11
1.68927
21
0.20348
0
LINE
8
BLACK
6
CONTINUOUS
10
1.68927
20
0.20348
11
1.6896
21
0.19073
0
LINE
8
BLACK
6
CONTINUOUS
10
1.6896
20
0.19073
11
1.6914
21
0.178102
0
LINE
8
BLACK
6
CONTINUOUS
10
0.0779217
20
0.229534
11
0.0819746
21
0.242958
0
LINE
8
BLACK
6
CONTINUOUS
10
0.0819746
20
0.242958
11
0.0874986
21
0.255846
0
LINE
8
BLACK
6
CONTINUOUS
10
0.0874986
20
0.255846
11
0.0944248
21
0.268039
0
LINE
8
BLACK
6
CONTINUOUS
10
0.0944248
20
0.268039
11
0.102667
21
0.279383
0
LINE
8
BLACK
6
CONTINUOUS
10
0.102667
20
0.279383
11
0.112122
21
0.289738
0
LINE
8
BLACK
6
CONTINUOUS
10
0.112122
20
0.289738
11
0.122673
21
0.298974
0
LINE
8
BLACK
6
CONTINUOUS
10
0.122673
20
0.298974
11
0.134187
21
0.306977
0
LINE
8
BLACK
6
CONTINUOUS
10
0.134187
20
0.306977
11
0.146522
21
0.313646
0
LINE
8
BLACK
6
CONTINUOUS
10
0.146522
20
0.313646
11
0.159523
21
0.318899
0
LINE
8
BLACK
6
CONTINUOUS
10
0.159523
20
0.318899
11
0.173029
21
0.32267
0
LINE
8
BLACK
6
CONTINUOUS
10
0.173029
20
0.32267
11
0.186871
21
0.324912
0
LINE
8
BLACK
6
CONTINUOUS
10
0.186871
20
0.324912
11
0.200877
21
0.325597
0
LINE
8
BLACK
6
CONTINUOUS
10
0.200877
20
0.325597
11
0.214872
21
0.324716
0
LINE
8
BLACK
6
CONTINUOUS
10
0.214872
20
0.324716
11
0.228681
21
0.322281
0
LINE
8
BLACK
6
CONTINUOUS
10
0.228681
20
0.322281
11
0.242133
21
0.318322
0
LINE
8
BLACK
6
CONTINUOUS
10
0.242133
20
0.318322
11
0.255059
21
0.312889
0
LINE
8
BLACK
6
CONTINUOUS
10
0.255059
20
0.312889
11
0.2673
21
0.306048
0
LINE
8
BLACK
6
CONTINUOUS
10
0.2673
20
0.306048
11
0.278701
21
0.297885
0
LINE
8
BLACK
6
CONTINUOUS
10
0.278701
20
0.297885
11
0.289122
21
0.288502
0
LINE
8
BLACK
6
CONTINUOUS
10
0.289122
20
0.288502
11
0.298432
21
0.278016
0
LINE
8
BLACK
6
CONTINUOUS
10
0.298432
20
0.278016
11
0.306515
21
0.266558
0
LINE
8
BLACK
6
CONTINUOUS
10
0.306515
20
0.266558
11
0.31327
21
0.25427
0
LINE
8
BLACK
6
CONTINUOUS
10
0.31327
20
0.25427
11
0.318614
21
0.241306
0
LINE
8
BLACK
6
CONTINUOUS
10
0.318614
20
0.241306
11
0.322479
21
0.227826
0
LINE
8
BLACK
6
CONTINUOUS
10
0.322479
20
0.227826
11
0.324817
21
0.214001
0
LINE
8
BLACK
6
CONTINUOUS
10
0.324817
20
0.214001
11
0.3256
21
0.2
0
LINE
8
BLACK
6
CONTINUOUS
10
0.3256
20
0.2
11
0.325551
21
0.196493
0
LINE
8
BLACK
6
CONTINUOUS
10
0.325551
20
0.196493
11
0.324378
21
0.18252
0
LINE
8
BLACK
6
CONTINUOUS
10
0.324378
20
0.18252
11
0.321654
21
0.168765
0
LINE
8
BLACK
6
CONTINUOUS
10
0.321654
20
0.168765
11
0.317414
21
0.155399
0
LINE
8
BLACK
6
CONTINUOUS
10
0.317414
20
0.155399
11
0.311711
21
0.142589
0
LINE
8
BLACK
6
CONTINUOUS
10
0.311711
20
0.142589
11
0.304615
21
0.130494
0
LINE
8
BLACK
6
CONTINUOUS
10
0.304615
20
0.130494
11
0.296215
21
0.119266
0
LINE
8
BLACK
6
CONTINUOUS
10
0.296215
20
0.119266
11
0.286616
21
0.109044
0
LINE
8
BLACK
6
CONTINUOUS
10
0.286616
20
0.109044
11
0.275938
21
0.0999558
0
LINE
8
BLACK
6
CONTINUOUS
10
0.275938
20
0.0999558
11
0.264313
21
0.0921146
0
LINE
8
BLACK
6
CONTINUOUS
10
0.264313
20
0.0921146
11
0.251886
21
0.0856181
0
LINE
8
BLACK
6
CONTINUOUS
10
0.251886
20
0.0856181
11
0.238813
21
0.0805473
0
LINE
8
BLACK
6
CONTINUOUS
10
0.238813
20
0.0805473
11
0.225255
21
0.0769654
0
LINE
8
BLACK
6
CONTINUOUS
10
0.225255
20
0.0769654
11
0.211383
21
0.0749169
0
LINE
8
BLACK
6
CONTINUOUS
10
0.211383
20
0.0749169
11
0.19737
21
0.0744276
0
LINE
8
BLACK
6
CONTINUOUS
10
0.19737
20
0.0744276
11
0.183389
21
0.0755033
0
LINE
8
BLACK
6
CONTINUOUS
10
0.183389
20
0.0755033
11
0.169615
21
0.0781309
0
LINE
8
BLACK
6
CONTINUOUS
10
0.169615
20
0.0781309
11
0.156219
21
0.0822774
0
LINE
8
BLACK
6
CONTINUOUS
10
0.156219
20
0.0822774
11
0.14337
21
0.0878912
0
LINE
8
BLACK
6
CONTINUOUS
10
0.14337
20
0.0878912
11
0.131226
21
0.0949024
0
LINE
8
BLACK
6
CONTINUOUS
10
0.131226
20
0.0949024
11
0.11994
21
0.103224
0
LINE
8
BLACK
6
CONTINUOUS
10
0.11994
20
0.103224
11
0.109651
21
0.112751
0
LINE
8
BLACK
6
CONTINUOUS
10
0.109651
20
0.112751
11
0.100488
21
0.123366
0
LINE
8
BLACK
6
CONTINUOUS
10
0.100488
20
0.123366
11
0.0925663
21
0.134936
0
LINE
8
BLACK
6
CONTINUOUS
10
0.0925663
20
0.134936
11
0.0859831
21
0.147317
0
LINE
8
BLACK
6
CONTINUOUS
10
0.0859831
20
0.147317
11
0.0808212
21
0.160354
0
LINE
8
BLACK
6
CONTINUOUS
10
0.0808212
20
0.160354
11
0.0771446
21
0.173886
0
LINE
8
BLACK
6
CONTINUOUS
10
0.0771446
20
0.173886
11
0.0749994
21
0.187744
0
LINE
8
BLACK
6
CONTINUOUS
10
0.0749994
20
0.187744
11
0.0744122
21
0.201754
0
LINE
8
BLACK
6
CONTINUOUS
10
0.0744122
20
0.201754
11
0.074533
21
0.20348
0
LINE
8
BLACK
6
CONTINUOUS
10
0.074533
20
0.20348
11
0.0753904
21
0.215742
0
LINE
8
BLACK
6
CONTINUOUS
10
0.0753904
20
0.215742
11
0.0779217
21
0.229534
0
LINE
8
BLACK
6
CONTINUOUS
10
0.0913983
20
0.178102
11
0.0946349
21
0.165765
0
LINE
8
BLACK
6
CONTINUOUS
10
0.0946349
20
0.165765
11
0.0992681
21
0.153881
0
LINE
8
BLACK
6
CONTINUOUS
10
0.0992681
20
0.153881
11
0.105236
21
0.142609
0
LINE
8
BLACK
6
CONTINUOUS
10
0.105236
20
0.142609
11
0.112461
21
0.132098
0
LINE
8
BLACK
6
CONTINUOUS
10
0.112461
20
0.132098
11
0.120845
21
0.122486
0
LINE
8
BLACK
6
CONTINUOUS
10
0.120845
20
0.122486
11
0.130279
21
0.113902
0
LINE
8
BLACK
6
CONTINUOUS
10
0.130279
20
0.113902
11
0.140637
21
0.106459
0
LINE
8
BLACK
6
CONTINUOUS
10
0.140637
20
0.106459
11
0.151782
21
0.100256
0
LINE
8
BLACK
6
CONTINUOUS
10
0.151782
20
0.100256
11
0.163566
21
0.095375
0
LINE
8
BLACK
6
CONTINUOUS
10
0.163566
20
0.095375
11
0.175832
21
0.0918807
0
LINE
8
BLACK
6
CONTINUOUS
10
0.175832
20
0.0918807
11
0.18842
21
0.0898194
0
LINE
8
BLACK
6
CONTINUOUS
10
0.18842
20
0.0898194
11
0.20116
21
0.0892186
0
LINE
8
BLACK
6
CONTINUOUS
10
0.20116
20
0.0892186
11
0.213885
21
0.0900861
0
LINE
8
BLACK
6
CONTINUOUS
10
0.213885
20
0.0900861
11
0.226426
21
0.0924105
0
LINE
8
BLACK
6
CONTINUOUS
10
0.226426
20
0.0924105
11
0.238617
21
0.0961609
0
LINE
8
BLACK
6
CONTINUOUS
10
0.238617
20
0.0961609
11
0.250296
21
0.101288
0
LINE
8
BLACK
6
CONTINUOUS
10
0.250296
20
0.101288
11
0.261309
21
0.107723
0
LINE
8
BLACK
6
CONTINUOUS
10
0.261309
20
0.107723
11
0.271509
21
0.115381
0
LINE
8
BLACK
6
CONTINUOUS
10
0.271509
20
0.115381
11
0.280761
21
0.124161
0
LINE
8
BLACK
6
CONTINUOUS
10
0.280761
20
0.124161
11
0.288942
21
0.133946
0
LINE
8
BLACK
6
CONTINUOUS
10
0.288942
20
0.133946
11
0.295945
21
0.144606
0
LINE
8
BLACK
6
CONTINUOUS
10
0.295945
20
0.144606
11
0.301676
21
0.156001
0
LINE
8
BLACK
6
CONTINUOUS
10
0.301676
20
0.156001
11
0.306059
21
0.167979
0
LINE
8
BLACK
6
CONTINUOUS
10
0.306059
20
0.167979
11
0.309036
21
0.180381
0
LINE
8
BLACK
6
CONTINUOUS
10
0.309036
20
0.180381
11
0.310569
21
0.193044
0
LINE
8
BLACK
6
CONTINUOUS
10
0.310569
20
0.193044
11
0.310787
21
0.2
0
LINE
8
BLACK
6
CONTINUOUS
10
0.310787
20
0.2
11
0.310053
21
0.212734
0
LINE
8
BLACK
6
CONTINUOUS
10
0.310053
20
0.212734
11
0.30786
21
0.225298
0
LINE
8
BLACK
6
CONTINUOUS
10
0.30786
20
0.225298
11
0.304238
21
0.237528
0
LINE
8
BLACK
6
CONTINUOUS
10
0.304238
20
0.237528
11
0.299234
21
0.24926
0
LINE
8
BLACK
6
CONTINUOUS
10
0.299234
20
0.24926
11
0.292914
21
0.260339
0
LINE
8
BLACK
6
CONTINUOUS
10
0.292914
20
0.260339
11
0.285363
21
0.270619
0
LINE
8
BLACK
6
CONTINUOUS
10
0.285363
20
0.270619
11
0.276681
21
0.279962
0
LINE
8
BLACK
6
CONTINUOUS
10
0.276681
20
0.279962
11
0.266982
21
0.288246
0
LINE
8
BLACK
6
CONTINUOUS
10
0.266982
20
0.288246
11
0.256395
21
0.295359
0
LINE
8
BLACK
6
CONTINUOUS
10
0.256395
20
0.295359
11
0.245061
21
0.301209
0
LINE
8
BLACK
6
CONTINUOUS
10
0.245061
20
0.301209
11
0.23313
21
0.305718
0
LINE
8
BLACK
6
CONTINUOUS
10
0.23313
20
0.305718
11
0.220759
21
0.308825
0
LINE
8
BLACK
6
CONTINUOUS
10
0.220759
20
0.308825
11
0.208114
21
0.31049
0
LINE
8
BLACK
6
CONTINUOUS
10
0.208114
20
0.31049
11
0.195361
21
0.31069
0
LINE
8
BLACK
6
CONTINUOUS
10
0.195361
20
0.31069
11
0.182669
21
0.309423
0
LINE
8
BLACK
6
CONTINUOUS
10
0.182669
20
0.309423
11
0.170207
21
0.306706
0
LINE
8
BLACK
6
CONTINUOUS
10
0.170207
20
0.306706
11
0.15814
21
0.302575
0
LINE
8
BLACK
6
CONTINUOUS
10
0.15814
20
0.302575
11
0.146628
21
0.297084
0
LINE
8
BLACK
6
CONTINUOUS
10
0.146628
20
0.297084
11
0.135823
21
0.290306
0
LINE
8
BLACK
6
CONTINUOUS
10
0.135823
20
0.290306
11
0.125869
21
0.282331
0
LINE
8
BLACK
6
CONTINUOUS
10
0.125869
20
0.282331
11
0.116897
21
0.273265
0
LINE
8
BLACK
6
CONTINUOUS
10
0.116897
20
0.273265
11
0.109027
21
0.263228
0
LINE
8
BLACK
6
CONTINUOUS
10
0.109027
20
0.263228
11
0.102363
21
0.252353
0
LINE
8
BLACK
6
CONTINUOUS
10
0.102363
20
0.252353
11
0.0969924
21
0.240784
0
LINE
8
BLACK
6
CONTINUOUS
10
0.0969924
20
0.240784
11
0.0929876
21
0.228674
0
LINE
8
BLACK
6
CONTINUOUS
10
0.0929876
20
0.228674
11
0.0904011
21
0.216184
0
LINE
8
BLACK
6
CONTINUOUS
10
0.0904011
20
0.216184
11
0.0892672
21
0.20348
0
LINE
8
BLACK
6
CONTINUOUS
10
0.0892672
20
0.20348
11
0.0896011
21
0.19073
0
LINE
8
BLACK
6
CONTINUOUS
10
0.0896011
20
0.19073
11
0.0913983
21
0.178102
0
LINE
8
BLACK
6
CONTINUOUS
10
1.67792
20
0.649534
11
1.68197
21
0.662958
0
LINE
8
BLACK
6
CONTINUOUS
10
1.68197
20
0.662958
11
1.6875
21
0.675846
0
LINE
8
BLACK
6
CONTINUOUS
10
1.6875
20
0.675846
11
1.69442
21
0.688039
0
LINE
8
BLACK
6
CONTINUOUS
10
1.69442
20
0.688039
11
1.70267
21
0.699383
0
LINE
8
BLACK
6
CONTINUOUS
10
1.70267
20
0.699383
11
1.71212
21
0.709738
0
LINE
8
BLACK
6
CONTINUOUS
10
1.71212
20
0.709738
11
1.72267
21
0.718974
0
LINE
8
BLACK
6
CONTINUOUS
10
1.72267
20
0.718974
11
1.73419
21
0.726977
0
LINE
8
BLACK
6
CONTINUOUS
10
1.73419
20
0.726977
11
1.74652
21
0.733646
0
LINE
8
BLACK
6
CONTINUOUS
10
1.74652
20
0.733646
11
1.75952
21
0.738899
0
LINE
8
BLACK
6
CONTINUOUS
10
1.75952
20
0.738899
11
1.77303
21
0.74267
0
LINE
8
BLACK
6
CONTINUOUS
10
1.77303
20
0.74267
11
1.78687
21
0.744912
0
LINE
8
BLACK
6
CONTINUOUS
10
1.78687
20
0.744912
11
1.80088
21
0.745597
0
LINE
8
BLACK
6
CONTINUOUS
10
1.80088
20
0.745597
11
1.81487
21
0.744716
0
LINE
8
BLACK
6
CONTINUOUS
10
1.81487
20
0.744716
11
1.82868
21
0.742281
0
LINE
8
BLACK
6
CONTINUOUS
10
1.82868
20
0.742281
11
1.84213
21
0.738322
0
LINE
8
BLACK
6
CONTINUOUS
10
1.84213
20
0.738322
11
1.85506
21
0.732889
0
LINE
8
BLACK
6
CONTINUOUS
10
1.85506
20
0.732889
11
1.8673
21
0.726048
0
LINE
8
BLACK
6
CONTINUOUS
10
1.8673
20
0.726048
11
1.8787
21
0.717885
0
LINE
8
BLACK
6
CONTINUOUS
10
1.8787
20
0.717885
11
1.88912
21
0.708502
0
LINE
8
BLACK
6
CONTINUOUS
10
1.88912
20
0.708502
11
1.89843
21
0.698016
0
LINE
8
BLACK
6
CONTINUOUS
10
1.89843
20
0.698016
11
1.90651
21
0.686558
0
LINE
8
BLACK
6
CONTINUOUS
10
1.90651
20
0.686558
11
1.91327
21
0.67427
0
LINE
8
BLACK
6
CONTINUOUS
10
1.91327
20
0.67427
11
1.91861
21
0.661306
0
LINE
8
BLACK
6
CONTINUOUS
10
1.91861
20
0.661306
11
1.92248
21
0.647826
0
LINE
8
BLACK
6
CONTINUOUS
10
1.92248
20
0.647826
11
1.92482
21
0.634001
0
LINE
8
BLACK
6
CONTINUOUS
10
1.92482
20
0.634001
11
1.9256
21
0.62
0
LINE
8
BLACK
6
CONTINUOUS
10
1.9256
20
0.62
11
1.92555
21
0.616493
0
LINE
8
BLACK
6
CONTINUOUS
10
1.92555
20
0.616493
11
1.92438
21
0.60252
0
LINE
8
BLACK
6
CONTINUOUS
10
1.92438
20
0.60252
11
1.92165
21
0.588765
0
LINE
8
BLACK
6
CONTINUOUS
10
1.92165
20
0.588765
11
1.91741
21
0.575399
0
LINE
8
BLACK
6
CONTINUOUS
10
1.91741
20
0.575399
11
1.91171
21
0.562589
0
LINE
8
BLACK
6
CONTINUOUS
10
1.91171
20
0.562589
11
1.90461
21
0.550494
0
LINE
8
BLACK
6
CONTINUOUS
10
1.90461
20
0.550494
11
1.89622
21
0.539266
0
LINE
8
BLACK
6
CONTINUOUS
10
1.89622
20
0.539266
11
1.88662
21
0.529044
0
LINE
8
BLACK
6
CONTINUOUS
10
1.88662
20
0.529044
11
1.87594
21
0.519956
0
LINE
8
BLACK
6
CONTINUOUS
10
1.87594
20
0.519956
11
1.86431
21
0.512115
0
LINE
8
BLACK
6
CONTINUOUS
10
1.86431
20
0.512115
11
1.85189
21
0.505618
0
LINE
8
BLACK
6
CONTINUOUS
10
1.85189
20
0.505618
11
1.83881
21
0.500547
0
LINE
8
BLACK
6
CONTINUOUS
10
1.83881
20
0.500547
11
1.82526
21
0.496965
0
LINE
8
BLACK
6
CONTINUOUS
10
1.82526
20
0.496965
11
1.81138
21
0.494917
0
LINE
8
BLACK
6
CONTINUOUS
10
1.81138
20
0.494917
11
1.79737
21
0.494428
0
LINE
8
BLACK
6
CONTINUOUS
10
1.79737
20
0.494428
11
1.78339
21
0.495503
0
LINE
8
BLACK
6
CONTINUOUS
10
1.78339
20
0.495503
11
1.76961
21
0.498131
0
LINE
8
BLACK
6
CONTINUOUS
10
1.76961
20
0.498131
11
1.75622
21
0.502277
0
LINE
8
BLACK
6
CONTINUOUS
10
1.75622
20
0.502277
11
1.74337
21
0.507891
0
LINE
8
BLACK
6
CONTINUOUS
10
1.74337
20
0.507891
11
1.73123
21
0.514902
0
LINE
8
BLACK
6
CONTINUOUS
10
1.73123
20
0.514902
11
1.71994
21
0.523224
0
LINE
8
BLACK
6
CONTINUOUS
10
1.71994
20
0.523224
11
1.70965
21
0.532751
0
LINE
8
BLACK
6
CONTINUOUS
10
1.70965
20
0.532751
11
1.70049
21
0.543366
0
LINE
8
BLACK
6
CONTINUOUS
10
1.70049
20
0.543366
11
1.69257
21
0.554936
0
LINE
8
BLACK
6
CONTINUOUS
10
1.69257
20
0.554936
11
1.68598
21
0.567317
0
LINE
8
BLACK
6
CONTINUOUS
10
1.68598
20
0.567317
11
1.68082
21
0.580354
0
LINE
8
BLACK
6
CONTINUOUS
10
1.68082
20
0.580354
11
1.67714
21
0.593886
0
LINE
8
BLACK
6
CONTINUOUS
10
1.67714
20
0.593886
11
1.675
21
0.607744
0
LINE
8
BLACK
6
CONTINUOUS
10
1.675
20
0.607744
11
1.67441
21
0.621754
0
LINE
8
BLACK
6
CONTINUOUS
10
1.67441
20
0.621754
11
1.67453
21
0.62348
0
LINE
8
BLACK
6
CONTINUOUS
10
1.67453
20
0.62348
11
1.67539
21
0.635742
0
LINE
8
BLACK
6
CONTINUOUS
10
1.67539
20
0.635742
11
1.67792
21
0.649534
0
LINE
8
BLACK
6
CONTINUOUS
10
1.6914
20
0.598102
11
1.69463
21
0.585765
0
LINE
8
BLACK
6
CONTINUOUS
10
1.69463
20
0.585765
11
1.69927
21
0.573881
0
LINE
8
BLACK
6
CONTINUOUS
10
1.69927
20
0.573881
11
1.70524
21
0.562609
0
LINE
8
BLACK
6
CONTINUOUS
10
1.70524
20
0.562609
11
1.71246
21
0.552098
0
LINE
8
BLACK
6
CONTINUOUS
10
1.71246
20
0.552098
11
1.72085
21
0.542486
0
LINE
8
BLACK
6
CONTINUOUS
10
1.72085
20
0.542486
11
1.73028
21
0.533902
0
LINE
8
BLACK
6
CONTINUOUS
10
1.73028
20
0.533902
11
1.74064
21
0.526459
0
LINE
8
BLACK
6
CONTINUOUS
10
1.74064
20
0.526459
11
1.75178
21
0.520256
0
LINE
8
BLACK
6
CONTINUOUS
10
1.75178
20
0.520256
11
1.76357
21
0.515375
0
LINE
8
BLACK
6
CONTINUOUS
10
1.76357
20
0.515375
11
1.77583
21
0.511881
0
LINE
8
BLACK
6
CONTINUOUS
10
1.77583
20
0.511881
11
1.78842
21
0.509819
0
LINE
8
BLACK
6
CONTINUOUS
10
1.78842
20
0.509819
11
1.80116
21
0.509219
0
LINE
8
BLACK
6
CONTINUOUS
10
1.80116
20
0.509219
11
1.81389
21
0.510086
0
LINE
8
BLACK
6
CONTINUOUS
10
1.81389
20
0.510086
11
1.82643
21
0.512411
0
LINE
8
BLACK
6
CONTINUOUS
10
1.82643
20
0.512411
11
1.83862
21
0.516161
0
LINE
8
BLACK
6
CONTINUOUS
10
1.83862
20
0.516161
11
1.8503
21
0.521288
0
LINE
8
BLACK
6
CONTINUOUS
10
1.8503
20
0.521288
11
1.86131
21
0.527723
0
LINE
8
BLACK
6
CONTINUOUS
10
1.86131
20
0.527723
11
1.87151
21
0.535381
0
LINE
8
BLACK
6
CONTINUOUS
10
1.87151
20
0.535381
11
1.88076
21
0.544161
0
LINE
8
BLACK
6
CONTINUOUS
10
1.88076
20
0.544161
11
1.88894
21
0.553946
0
LINE
8
BLACK
6
CONTINUOUS
10
1.88894
20
0.553946
11
1.89594
21
0.564606
0
LINE
8
BLACK
6
CONTINUOUS
10
1.89594
20
0.564606
11
1.90168
21
0.576001
0
LINE
8
BLACK
6
CONTINUOUS
10
1.90168
20
0.576001
11
1.90606
21
0.587979
0
LINE
8
BLACK
6
CONTINUOUS
10
1.90606
20
0.587979
11
1.90904
21
0.600381
0
LINE
8
BLACK
6
CONTINUOUS
10
1.90904
20
0.600381
11
1.91057
21
0.613044
0
LINE
8
BLACK
6
CONTINUOUS
10
1.91057
20
0.613044
11
1.91079
21
0.62
0
LINE
8
BLACK
6
CONTINUOUS
10
1.91079
20
0.62
11
1.91005
21
0.632734
0
LINE
8
BLACK
6
CONTINUOUS
10
1.91005
20
0.632734
11
1.90786
21
0.645298
0
LINE
8
BLACK
6
CONTINUOUS
10
1.90786
20
0.645298
11
1.90424
21
0.657528
0
LINE
8
BLACK
6
CONTINUOUS
10
1.90424
20
0.657528
11
1.89923
21
0.66926
0
LINE
8
BLACK
6
CONTINUOUS
10
1.89923
20
0.66926
11
1.89291
21
0.680339
0
LINE
8
BLACK
6
CONTINUOUS
10
1.89291
20
0.680339
11
1.88536
21
0.690619
0
LINE
8
BLACK
6
CONTINUOUS
10
1.88536
20
0.690619
11
1.87668
21
0.699962
0
LINE
8
BLACK
6
CONTINUOUS
10
1.87668
20
0.699962
11
1.86698
21
0.708246
0
LINE
8
BLACK
6
CONTINUOUS
10
1.86698
20
0.708246
11
1.8564
21
0.715359
0
LINE
8
BLACK
6
CONTINUOUS
10
1.8564
20
0.715359
11
1.84506
21
0.721209
0
LINE
8
BLACK
6
CONTINUOUS
10
1.84506
20
0.721209
11
1.83313
21
0.725718
0
LINE
8
BLACK
6
CONTINUOUS
10
1.83313
20
0.725718
11
1.82076
21
0.728825
0
LINE
8
BLACK
6
CONTINUOUS
10
1.82076
20
0.728825
11
1.80811
21
0.73049
0
LINE
8
BLACK
6
CONTINUOUS
10
1.80811
20
0.73049
11
1.79536
21
0.73069
0
LINE
8
BLACK
6
CONTINUOUS
10
1.79536
20
0.73069
11
1.78267
21
0.729423
0
LINE
8
BLACK
6
CONTINUOUS
10
1.78267
20
0.729423
11
1.77021
21
0.726706
0
LINE
8
BLACK
6
CONTINUOUS
10
1.77021
20
0.726706
11
1.75814
21
0.722575
0
LINE
8
BLACK
6
CONTINUOUS
10
1.75814
20
0.722575
11
1.74663
21
0.717084
0
LINE
8
BLACK
6
CONTINUOUS
10
1.74663
20
0.717084
11
1.73582
21
0.710306
0
LINE
8
BLACK
6
CONTINUOUS
10
1.73582
20
0.710306
11
1.72587
21
0.702331
0
LINE
8
BLACK
6
CONTINUOUS
10
1.72587
20
0.702331
11
1.7169
21
0.693265
0
LINE
8
BLACK
6
CONTINUOUS
10
1.7169
20
0.693265
11
1.70903
21
0.683228
0
LINE
8
BLACK
6
CONTINUOUS
10
1.70903
20
0.683228
11
1.70236
21
0.672353
0
LINE
8
BLACK
6
CONTINUOUS
10
1.70236
20
0.672353
11
1.69699
21
0.660784
0
LINE
8
BLACK
6
CONTINUOUS
10
1.69699
20
0.660784
11
1.69299
21
0.648674
0
LINE
8
BLACK
6
CONTINUOUS
10
1.69299
20
0.648674
11
1.6904
21
0.636184
0
LINE
8
BLACK
6
CONTINUOUS
10
1.6904
20
0.636184
11
1.68927
21
0.62348
0
LINE
8
BLACK
6
CONTINUOUS
10
1.68927
20
0.62348
11
1.6896
21
0.61073
0
LINE
8
BLACK
6
CONTINUOUS
10
1.6896
20
0.61073
11
1.6914
21
0.598102
0
LINE
8
BLACK
6
CONTINUOUS
10
0.0779217
20
0.649534
11
0.0819746
21
0.662958
0
LINE
8
BLACK
6
CONTINUOUS
10
0.0819746
20
0.662958
11
0.0874986
21
0.675846
0
LINE
8
BLACK
6
CONTINUOUS
10
0.0874986
20
0.675846
11
0.0944248
21
0.688039
0
LINE
8
BLACK
6
CONTINUOUS
10
0.0944248
20
0.688039
11
0.102667
21
0.699383
0
LINE
8
BLACK
6
CONTINUOUS
10
0.102667
20
0.699383
11
0.112122
21
0.709738
0
LINE
8
BLACK
6
CONTINUOUS
10
0.112122
20
0.709738
11
0.122673
21
0.718974
0
LINE
8
BLACK
6
CONTINUOUS
10
0.122673
20
0.718974
11
0.134187
21
0.726977
0
LINE
8
BLACK
6
CONTINUOUS
10
0.134187
20
0.726977
11
0.146522
21
0.733646
0
LINE
8
BLACK
6
CONTINUOUS
10
0.146522
20
0.733646
11
0.159523
21
0.738899
0
LINE
8
BLACK
6
CONTINUOUS
10
0.159523
20
0.738899
11
0.173029
21
0.74267
0
LINE
8
BLACK
6
CONTINUOUS
10
0.173029
20
0.74267
11
0.186871
21
0.744912
0
LINE
8
BLACK
6
CONTINUOUS
10
0.186871
20
0.744912
11
0.200877
21
0.745597
0
LINE
8
BLACK
6
CONTINUOUS
10
0.200877
20
0.745597
11
0.214872
21
0.744716
0
LINE
8
BLACK
6
CONTINUOUS
10
0.214872
20
0.744716
11
0.228681
21
0.742281
0
LINE
8
BLACK
6
CONTINUOUS
10
0.228681
20
0.742281
11
0.242133
21
0.738322
0
LINE
8
BLACK
6
CONTINUOUS
10
0.242133
20
0.738322
11
0.255059
21
0.732889
0
LINE
8
BLACK
6
CONTINUOUS
10
0.255059
20
0.732889
11
0.2673
21
0.726048
0
LINE
8
BLACK
6
CONTINUOUS
10
0.2673
20
0.726048
11
0.278701
21
0.717885
0
LINE
8
BLACK
6
CONTINUOUS
10
0.278701
20
0.717885
11
0.289122
21
0.708502
0
LINE
8
BLACK
6
CONTINUOUS
10
0.289122
20
0.708502
11
0.298432
21
0.698016
0
LINE
8
BLACK
6
CONTINUOUS
10
0.298432
20
0.698016
11
0.306515
21
0.686558
0
LINE
8
BLACK
6
CONTINUOUS
10
0.306515
20
0.686558
11
0.31327
21
0.67427
0
LINE
8
BLACK
6
CONTINUOUS
10
0.31327
20
0.67427
11
0.318614
21
0.661306
0
LINE
8
BLACK
6
CONTINUOUS
10
0.318614
20
0.661306
11
0.322479
21
0.647826
0
LINE
8
BLACK
6
CONTINUOUS
10
0.322479
20
0.647826
11
0.324817
21
0.634001
0
LINE
8
BLACK
6
CONTINUOUS
10
0.324817
20
0.634001
11
0.3256
21
0.62
0
LINE
8
BLACK
6
CONTINUOUS
10
0.3256
20
0.62
11
0.325551
21
0.616493
0
LINE
8
BLACK
6
CONTINUOUS
10
0.325551
20
0.616493
11
0.324378
21
0.60252
0
LINE
8
BLACK
6
CONTINUOUS
10
0.324378
20
0.60252
11
0.321654
21
0.588765
0
LINE
8
BLACK
6
CONTINUOUS
10
0.321654
20
0.588765
11
0.317414
21
0.575399
0
LINE
8
BLACK
6
CONTINUOUS
10
0.317414
20
0.575399
11
0.311711
21
0.562589
0
LINE
8
BLACK
6
CONTINUOUS
10
0.311711
20
0.562589
11
0.304615
21
0.550494
0
LINE
8
BLACK
6
CONTINUOUS
10
0.304615
20
0.550494
11
0.296215
21
0.539266
0
LINE
8
BLACK
6
CONTINUOUS
10
0.296215
20
0.539266
11
0.286616
21
0.529044
0
LINE
8
BLACK
6
CONTINUOUS
10
0.286616
20
0.529044
11
0.275938
21
0.519956
0
LINE
8
BLACK
6
CONTINUOUS
10
0.275938
20
0.519956
11
0.264313
21
0.512115
0
LINE
8
BLACK
6
CONTINUOUS
10
0.264313
20
0.512115
11
0.251886
21
0.505618
0
LINE
8
BLACK
6
CONTINUOUS
10
0.251886
20
0.505618
11
0.238813
21
0.500547
0
LINE
8
BLACK
6
CONTINUOUS
10
0.238813
20
0.500547
11
0.225255
21
0.496965
0
LINE
8
BLACK
6
CONTINUOUS
10
0.225255
20
0.496965
11
0.211383
21
0.494917
0
LINE
8
BLACK
6
CONTINUOUS
10
0.211383
20
0.494917
11
0.19737
21
0.494428
0
LINE
8
BLACK
6
CONTINUOUS
10
0.19737
20
0.494428
11
0.183389
21
0.495503
0
LINE
8
BLACK
6
CONTINUOUS
10
0.183389
20
0.495503
11
0.169615
21
0.498131
0
LINE
8
BLACK
6
CONTINUOUS
10
0.169615
20
0.498131
11
0.156219
21
0.502277
0
LINE
8
BLACK
6
CONTINUOUS
10
0.156219
20
0.502277
11
0.14337
21
0.507891
0
LINE
8
BLACK
6
CONTINUOUS
10
0.14337
20
0.507891
11
0.131226
21
0.514902
0
LINE
8
BLACK
6
CONTINUOUS
10
0.131226
20
0.514902
11
0.11994
21
0.523224
0
LINE
8
BLACK
6
CONTINUOUS
10
0.11994
20
0.523224
11
0.109651
21
0.532751
0
LINE
8
BLACK
6
CONTINUOUS
10
0.109651
20
0.532751
11
0.100488
21
0.543366
0
LINE
8
BLACK
6
CONTINUOUS
10
0.100488
20
0.543366
11
0.0925663
21
0.554936
0
LINE
8
BLACK
6
CONTINUOUS
10
0.0925663
20
0.554936
11
0.0859831
21
0.567317
0
LINE
8
BLACK
6
CONTINUOUS
10
0.0859831
20
0.567317
11
0.0808212
21
0.580354
0
LINE
8
BLACK
6
CONTINUOUS
10
0.0808212
20
0.580354
11
0.0771446
21
0.593886
0
LINE
8
BLACK
6
CONTINUOUS
10
0.0771446
20
0.593886
11
0.0749994
21
0.607744
0
LINE
8
BLACK
6
CONTINUOUS
10
0.0749994
20
0.607744
11
0.0744122
21
0.621754
0
LINE
8
BLACK
6
CONTINUOUS
10
0.0744122
20
0.621754
11
0.074533
21
0.62348
0
LINE
8
BLACK
6
CONTINUOUS
10
0.074533
20
0.62348
11
0.0753904
21
0.635742
0
LINE
8
BLACK
6
CONTINUOUS
10
0.0753904
20
0.635742
11
0.0779217
21
0.649534
0
LINE
8
BLACK
6
CONTINUOUS
10
0.0913983
20
0.598102
11
0.0946349
21
0.585765
0
LINE
8
BLACK
6
CONTINUOUS
10
0.0946349
20
0.585765
11
0.0992681
21
0.573881
0
LINE
8
BLACK
6
CONTINUOUS
10
0.0992681
20
0.573881
11
0.105236
21
0.562609
0
LINE
8
BLACK
6
CONTINUOUS
10
0.105236
20
0.562609
11
0.112461
21
0.552098
0
LINE
8
BLACK
6
CONTINUOUS
10
0.112461
20
0.552098
11
0.120845
21
0.542486
0
LINE
8
BLACK
6
CONTINUOUS
10
0.120845
20
0.542486
11
0.130279
21
0.533902
0
LINE
8
BLACK
6
CONTINUOUS
10
0.130279
20
0.533902
11
0.140637
21
0.526459
0
LINE
8
BLACK
6
CONTINUOUS
10
0.140637
20
0.526459
11
0.151782
21
0.520256
0
LINE
8
BLACK
6
CONTINUOUS
10
0.151782
20
0.520256
11
0.163566
21
0.515375
0
LINE
8
BLACK
6
CONTINUOUS
10
0.163566
20
0.515375
11
0.175832
21
0.511881
0
LINE
8
BLACK
6
CONTINUOUS
10
0.175832
20
0.511881
11
0.18842
21
0.509819
0
LINE
8
BLACK
6
CONTINUOUS
10
0.18842
20
0.509819
11
0.20116
21
0.509219
0
LINE
8
BLACK
6
CONTINUOUS
10
0.20116
20
0.509219
11
0.213885
21
0.510086
0
LINE
8
BLACK
6
CONTINUOUS
10
0.213885
20
0.510086
11
0.226426
21
0.512411
0
LINE
8
BLACK
6
CONTINUOUS
10
0.226426
20
0.512411
11
0.238617
21
0.516161
0
LINE
8
BLACK
6
CONTINUOUS
10
0.238617
20
0.516161
11
0.250296
21
0.521288
0
LINE
8
BLACK
6
CONTINUOUS
10
0.250296
20
0.521288
11
0.261309
21
0.527723
0
LINE
8
BLACK
6
CONTINUOUS
10
0.261309
20
0.527723
11
0.271509
21
0.535381
0
LINE
8
BLACK
6
CONTINUOUS
10
0.271509
20
0.535381
11
0.280761
21
0.544161
0
LINE
8
BLACK
6
CONTINUOUS
10
0.280761
20
0.544161
11
0.288942
21
0.553946
0
LINE
8
BLACK
6
CONTINUOUS
10
0.288942
20
0.553946
11
0.295945
21
0.564606
0
LINE
8
BLACK
6
CONTINUOUS
10
0.295945
20
0.564606
11
0.301676
21
0.576001
0
LINE
8
BLACK
6
CONTINUOUS
10
0.301676
20
0.576001
11
0.306059
21
0.587979
0
LINE
8
BLACK
6
CONTINUOUS
10
0.306059
20
0.587979
11
0.309036
21
0.600381
0
LINE
8
BLACK
6
CONTINUOUS
10
0.309036
20
0.600381
11
0.310569
21
0.613044
0
LINE
8
BLACK
6
CONTINUOUS
10
0.310569
20
0.613044
11
0.310787
21
0.62
0
LINE
8
BLACK
6
CONTINUOUS
10
0.310787
20
0.62
11
0.310053
21
0.632734
0
LINE
8
BLACK
6
CONTINUOUS
10
0.310053
20
0.632734
11
0.30786
21
0.645298
0
LINE
8
BLACK
6
CONTINUOUS
10
0.30786
20
0.645298
11
0.304238
21
0.657528
0
LINE
8
BLACK
6
CONTINUOUS
10
0.304238
20
0.657528
11
0.299234
21
0.66926
0
LINE
8
BLACK
6
CONTINUOUS
10
0.299234
20
0.66926
11
0.292914
21
0.680339
0
LINE
8
BLACK
6
CONTINUOUS
10
0.292914
20
0.680339
11
0.285363
21
0.690619
0
LINE
8
BLACK
6
CONTINUOUS
10
0.285363
20
0.690619
11
0.276681
21
0.699962
0
LINE
8
BLACK
6
CONTINUOUS
10
0.276681
20
0.699962
11
0.266982
21
0.708246
0
LINE
8
BLACK
6
CONTINUOUS
10
0.266982
20
0.708246
11
0.256395
21
0.715359
0
LINE
8
BLACK
6
CONTINUOUS
10
0.256395
20
0.715359
11
0.245061
21
0.721209
0
LINE
8
BLACK
6
CONTINUOUS
10
0.245061
20
0.721209
11
0.23313
21
0.725718
0
LINE
8
BLACK
6
CONTINUOUS
10
0.23313
20
0.725718
11
0.220759
21
0.728825
0
LINE
8
BLACK
6
CONTINUOUS
10
0.220759
20
0.728825
11
0.208114
21
0.73049
0
LINE
8
BLACK
6
CONTINUOUS
10
0.208114
20
0.73049
11
0.195361
21
0.73069
0
LINE
8
BLACK
6
CONTINUOUS
10
0.195361
20
0.73069
11
0.182669
21
0.729423
0
LINE
8
BLACK
6
CONTINUOUS
10
0.182669
20
0.729423
11
0.170207
21
0.726706
0
LINE
8
BLACK
6
CONTINUOUS
10
0.170207
20
0.726706
11
0.15814
21
0.722575
0
LINE
8
BLACK
6
CONTINUOUS
10
0.15814
20
0.722575
11
0.146628
21
0.717084
0
LINE
8
BLACK
6
CONTINUOUS
10
0.146628
20
0.717084
11
0.135823
21
0.710306
0
LINE
8
BLACK
6
CONTINUOUS
10
0.135823
20
0.710306
11
0.125869
21
0.702331
0
LINE
8
BLACK
6
CONTINUOUS
10
0.125869
20
0.702331
11
0.116897
21
0.693265
0
LINE
8
BLACK
6
CONTINUOUS
10
0.116897
20
0.693265
11
0.109027
21
0.683228
0
LINE
8
BLACK
6
CONTINUOUS
10
0.109027
20
0.683228
11
0.102363
21
0.672353
0
LINE
8
BLACK
6
CONTINUOUS
10
0.102363
20
0.672353
11
0.0969924
21
0.660784
0
LINE
8
BLACK
6
CONTINUOUS
10
0.0969924
20
0.660784
11
0.0929876
21
0.648674
0
LINE
8
BLACK
6
CONTINUOUS
10
0.0929876
20
0.648674
11
0.0904011
21
0.636184
0
LINE
8
BLACK
6
CONTINUOUS
10
0.0904011
20
0.636184
11
0.0892672
21
0.62348
0
LINE
8
BLACK
6
CONTINUOUS
10
0.0892672
20
0.62348
11
0.0896011
21
0.61073
0
LINE
8
BLACK
6
CONTINUOUS
10
0.0896011
20
0.61073
11
0.0913983
21
0.598102
0
LINE
8
BLACK
6
CONTINUOUS
10
1.67792
20
1.04953
11
1.68197
21
1.06296
0
LINE
8
BLACK
6
CONTINUOUS
10
1.68197
20
1.06296
11
1.6875
21
1.07585
0
LINE
8
BLACK
6
CONTINUOUS
10
1.6875
20
1.07585
11
1.69442
21
1.08804
0
LINE
8
BLACK
6
CONTINUOUS
10
1.69442
20
1.08804
11
1.70267
21
1.09938
0
LINE
8
BLACK
6
CONTINUOUS
10
1.70267
20
1.09938
11
1.71212
21
1.10974
0
LINE
8
BLACK
6
CONTINUOUS
10
1.71212
20
1.10974
11
1.72267
21
1.11897
0
LINE
8
BLACK
6
CONTINUOUS
10
1.72267
20
1.11897
11
1.73419
21
1.12698
0
LINE
8
BLACK
6
CONTINUOUS
10
1.73419
20
1.12698
11
1.74652
21
1.13365
0
LINE
8
BLACK
6
CONTINUOUS
10
1.74652
20
1.13365
11
1.75952
21
1.1389
0
LINE
8
BLACK
6
CONTINUOUS
10
1.75952
20
1.1389
11
1.77303
21
1.14267
0
LINE
8
BLACK
6
CONTINUOUS
10
1.77303
20
1.14267
11
1.78687
21
1.14491
0
LINE
8
BLACK
6
CONTINUOUS
10
1.78687
20
1.14491
11
1.80088
21
1.1456
0
LINE
8
BLACK
6
CONTINUOUS
10
1.80088
20
1.1456
11
1.81487
21
1.14472
0
LINE
8
BLACK
6
CONTINUOUS
10
1.81487
20
1.14472
11
1.82868
21
1.14228
0
LINE
8
BLACK
6
CONTINUOUS
10
1.82868
20
1.14228
11
1.84213
21
1.13832
0
LINE
8
BLACK
6
CONTINUOUS
10
1.84213
20
1.13832
11
1.85506
21
1.13289
0
LINE
8
BLACK
6
CONTINUOUS
10
1.85506
20
1.13289
11
1.8673
21
1.12605
0
LINE
8
BLACK
6
CONTINUOUS
10
1.8673
20
1.12605
11
1.8787
21
1.11788
0
LINE
8
BLACK
6
CONTINUOUS
10
1.8787
20
1.11788
11
1.88912
21
1.1085
0
LINE
8
BLACK
6
CONTINUOUS
10
1.88912
20
1.1085
11
1.89843
21
1.09802
0
LINE
8
BLACK
6
CONTINUOUS
10
1.89843
20
1.09802
11
1.90651
21
1.08656
0
LINE
8
BLACK
6
CONTINUOUS
10
1.90651
20
1.08656
11
1.91327
21
1.07427
0
LINE
8
BLACK
6
CONTINUOUS
10
1.91327
20
1.07427
11
1.91861
21
1.06131
0
LINE
8
BLACK
6
CONTINUOUS
10
1.91861
20
1.06131
11
1.92248
21
1.04783
0
LINE
8
BLACK
6
CONTINUOUS
10
1.92248
20
1.04783
11
1.92482
21
1.034
0
LINE
8
BLACK
6
CONTINUOUS
10
1.92482
20
1.034
11
1.9256
21
1.02
0
LINE
8
BLACK
6
CONTINUOUS
10
1.9256
20
1.02
11
1.92555
21
1.01649
0
LINE
8
BLACK
6
CONTINUOUS
10
1.92555
20
1.01649
11
1.92438
21
1.00252
0
LINE
8
BLACK
6
CONTINUOUS
10
1.92438
20
1.00252
11
1.92165
21
0.988765
0
LINE
8
BLACK
6
CONTINUOUS
10
1.92165
20
0.988765
11
1.91741
21
0.975399
0
LINE
8
BLACK
6
CONTINUOUS
10
1.91741
20
0.975399
11
1.91171
21
0.962589
0
LINE
8
BLACK
6
CONTINUOUS
10
1.91171
20
0.962589
11
1.90461
21
0.950494
0
LINE
8
BLACK
6
CONTINUOUS
10
1.90461
20
0.950494
11
1.89622
21
0.939266
0
LINE
8
BLACK
6
CONTINUOUS
10
1.89622
20
0.939266
11
1.88662
21
0.929044
0
LINE
8
BLACK
6
CONTINUOUS
10
1.88662
20
0.929044
11
1.87594
21
0.919956
0
LINE
8
BLACK
6
CONTINUOUS
10
1.87594
20
0.919956
11
1.86431
21
0.912115
0
LINE
8
BLACK
6
CONTINUOUS
10
1.86431
20
0.912115
11
1.85189
21
0.905618
0
LINE
8
BLACK
6
CONTINUOUS
10
1.85189
20
0.905618
11
1.83881
21
0.900547
0
LINE
8
BLACK
6
CONTINUOUS
10
1.83881
20
0.900547
11
1.82526
21
0.896965
0
LINE
8
BLACK
6
CONTINUOUS
10
1.82526
20
0.896965
11
1.81138
21
0.894917
0
LINE
8
BLACK
6
CONTINUOUS
10
1.81138
20
0.894917
11
1.79737
21
0.894428
0
LINE
8
BLACK
6
CONTINUOUS
10
1.79737
20
0.894428
11
1.78339
21
0.895503
0
LINE
8
BLACK
6
CONTINUOUS
10
1.78339
20
0.895503
11
1.76961
21
0.898131
0
LINE
8
BLACK
6
CONTINUOUS
10
1.76961
20
0.898131
11
1.75622
21
0.902277
0
LINE
8
BLACK
6
CONTINUOUS
10
1.75622
20
0.902277
11
1.74337
21
0.907891
0
LINE
8
BLACK
6
CONTINUOUS
10
1.74337
20
0.907891
11
1.73123
21
0.914902
0
LINE
8
BLACK
6
CONTINUOUS
10
1.73123
20
0.914902
11
1.71994
21
0.923224
0
LINE
8
BLACK
6
CONTINUOUS
10
1.71994
20
0.923224
11
1.70965
21
0.932751
0
LINE
8
BLACK
6
CONTINUOUS
10
1.70965
20
0.932751
11
1.70049
21
0.943366
0
LINE
8
BLACK
6
CONTINUOUS
10
1.70049
20
0.943366
11
1.69257
21
0.954936
0
LINE
8
BLACK
6
CONTINUOUS
10
1.69257
20
0.954936
11
1.68598
21
0.967317
0
LINE
8
BLACK
6
CONTINUOUS
10
1.68598
20
0.967317
11
1.68082
21
0.980354
0
LINE
8
BLACK
6
CONTINUOUS
10
1.68082
20
0.980354
11
1.67714
21
0.993886
0
LINE
8
BLACK
6
CONTINUOUS
10
1.67714
20
0.993886
11
1.675
21
1.00774
0
LINE
8
BLACK
6
CONTINUOUS
10
1.675
20
1.00774
11
1.67441
21
1.02175
0
LINE
8
BLACK
6
CONTINUOUS
10
1.67441
20
1.02175
11
1.67453
21
1.02348
0
LINE
8
BLACK
6
CONTINUOUS
10
1.67453
20
1.02348
11
1.67539
21
1.03574
0
LINE
8
BLACK
6
CONTINUOUS
10
1.67539
20
1.03574
11
1.67792
21
1.04953
0
LINE
8
BLACK
6
CONTINUOUS
10
1.6914
20
0.998102
11
1.69463
21
0.985765
0
LINE
8
BLACK
6
CONTINUOUS
10
1.69463
20
0.985765
11
1.69927
21
0.973881
0
LINE
8
BLACK
6
CONTINUOUS
10
1.69927
20
0.973881
11
1.70524
21
0.962609
0
LINE
8
BLACK
6
CONTINUOUS
10
1.70524
20
0.962609
11
1.71246
21
0.952098
0
LINE
8
BLACK
6
CONTINUOUS
10
1.71246
20
0.952098
11
1.72085
21
0.942486
0
LINE
8
BLACK
6
CONTINUOUS
10
1.72085
20
0.942486
11
1.73028
21
0.933902
0
LINE
8
BLACK
6
CONTINUOUS
10
1.73028
20
0.933902
11
1.74064
21
0.926459
0
LINE
8
BLACK
6
CONTINUOUS
10
1.74064
20
0.926459
11
1.75178
21
0.920256
0
LINE
8
BLACK
6
CONTINUOUS
10
1.75178
20
0.920256
11
1.76357
21
0.915375
0
LINE
8
BLACK
6
CONTINUOUS
10
1.76357
20
0.915375
11
1.77583
21
0.911881
0
LINE
8
BLACK
6
CONTINUOUS
10
1.77583
20
0.911881
11
1.78842
21
0.909819
0
LINE
8
BLACK
6
CONTINUOUS
10
1.78842
20
0.909819
11
1.80116
21
0.909219
0
LINE
8
BLACK
6
CONTINUOUS
10
1.80116
20
0.909219
11
1.81389
21
0.910086
0
LINE
8
BLACK
6
CONTINUOUS
10
1.81389
20
0.910086
11
1.82643
21
0.912411
0
LINE
8
BLACK
6
CONTINUOUS
10
1.82643
20
0.912411
11
1.83862
21
0.916161
0
LINE
8
BLACK
6
CONTINUOUS
10
1.83862
20
0.916161
11
1.8503
21
0.921288
0
LINE
8
BLACK
6
CONTINUOUS
10
1.8503
20
0.921288
11
1.86131
21
0.927723
0
LINE
8
BLACK
6
CONTINUOUS
10
1.86131
20
0.927723
11
1.87151
21
0.935381
0
LINE
8
BLACK
6
CONTINUOUS
10
1.87151
20
0.935381
11
1.88076
21
0.944161
0
LINE
8
BLACK
6
CONTINUOUS
10
1.88076
20
0.944161
11
1.88894
21
0.953946
0
LINE
8
BLACK
6
CONTINUOUS
10
1.88894
20
0.953946
11
1.89594
21
0.964606
0
LINE
8
BLACK
6
CONTINUOUS
10
1.89594
20
0.964606
11
1.90168
21
0.976001
0
LINE
8
BLACK
6
CONTINUOUS
10
1.90168
20
0.976001
11
1.90606
21
0.987979
0
LINE
8
BLACK
6
CONTINUOUS
10
1.90606
20
0.987979
11
1.90904
21
1.00038
0
LINE
8
BLACK
6
CONTINUOUS
10
1.90904
20
1.00038
11
1.91057
21
1.01304
0
LINE
8
BLACK
6
CONTINUOUS
10
1.91057
20
1.01304
11
1.91079
21
1.02
0
LINE
8
BLACK
6
CONTINUOUS
10
1.91079
20
1.02
11
1.91005
21
1.03273
0
LINE
8
BLACK
6
CONTINUOUS
10
1.91005
20
1.03273
11
1.90786
21
1.0453
0
LINE
8
BLACK
6
CONTINUOUS
10
1.90786
20
1.0453
11
1.90424
21
1.05753
0
LINE
8
BLACK
6
CONTINUOUS
10
1.90424
20
1.05753
11
1.89923
21
1.06926
0
LINE
8
BLACK
6
CONTINUOUS
10
1.89923
20
1.06926
11
1.89291
21
1.08034
0
LINE
8
BLACK
6
CONTINUOUS
10
1.89291
20
1.08034
11
1.88536
21
1.09062
0
LINE
8
BLACK
6
CONTINUOUS
10
1.88536
20
1.09062
11
1.87668
21
1.09996
0
LINE
8
BLACK
6
CONTINUOUS
10
1.87668
20
1.09996
11
1.86698
21
1.10825
0
LINE
8
BLACK
6
CONTINUOUS
10
1.86698
20
1.10825
11
1.8564
21
1.11536
0
LINE
8
BLACK
6
CONTINUOUS
10
1.8564
20
1.11536
11
1.84506
21
1.12121
0
LINE
8
BLACK
6
CONTINUOUS
10
1.84506
20
1.12121
11
1.83313
21
1.12572
0
LINE
8
BLACK
6
CONTINUOUS
10
1.83313
20
1.12572
11
1.82076
21
1.12883
0
LINE
8
BLACK
6
CONTINUOUS
10
1.82076
20
1.12883
11
1.80811
21
1.13049
0
LINE
8
BLACK
6
CONTINUOUS
10
1.80811
20
1.13049
11
1.79536
21
1.13069
0
LINE
8
BLACK
6
CONTINUOUS
10
1.79536
20
1.13069
11
1.78267
21
1.12942
0
LINE
8
BLACK
6
CONTINUOUS
10
1.78267
20
1.12942
11
1.77021
21
1.12671
0
LINE
8
BLACK
6
CONTINUOUS
10
1.77021
20
1.12671
11
1.75814
21
1.12257
0
LINE
8
BLACK
6
CONTINUOUS
10
1.75814
20
1.12257
11
1.74663
21
1.11708
0
LINE
8
BLACK
6
CONTINUOUS
10
1.74663
20
1.11708
11
1.73582
21
1.11031
0
LINE
8
BLACK
6
CONTINUOUS
10
1.73582
20
1.11031
11
1.72587
21
1.10233
0
LINE
8
BLACK
6
CONTINUOUS
10
1.72587
20
1.10233
11
1.7169
21
1.09327
0
LINE
8
BLACK
6
CONTINUOUS
10
1.7169
20
1.09327
11
1.70903
21
1.08323
0
LINE
8
BLACK
6
CONTINUOUS
10
1.70903
20
1.08323
11
1.70236
21
1.07235
0
LINE
8
BLACK
6
CONTINUOUS
10
1.70236
20
1.07235
11
1.69699
21
1.06078
0
LINE
8
BLACK
6
CONTINUOUS
10
1.69699
20
1.06078
11
1.69299
21
1.04867
0
LINE
8
BLACK
6
CONTINUOUS
10
1.69299
20
1.04867
11
1.6904
21
1.03618
0
LINE
8
BLACK
6
CONTINUOUS
10
1.6904
20
1.03618
11
1.68927
21
1.02348
0
LINE
8
BLACK
6
CONTINUOUS
10
1.68927
20
1.02348
11
1.6896
21
1.01073
0
LINE
8
BLACK
6
CONTINUOUS
10
1.6896
20
1.01073
11
1.6914
21
0.998102
0
LINE
8
BLACK
6
CONTINUOUS
10
0.0779217
20
1.04953
11
0.0819746
21
1.06296
0
LINE
8
BLACK
6
CONTINUOUS
10
0.0819746
20
1.06296
11
0.0874986
21
1.07585
0
LINE
8
BLACK
6
CONTINUOUS
10
0.0874986
20
1.07585
11
0.0944248
21
1.08804
0
LINE
8
BLACK
6
CONTINUOUS
10
0.0944248
20
1.08804
11
0.102667
21
1.09938
0
LINE
8
BLACK
6
CONTINUOUS
10
0.102667
20
1.09938
11
0.112122
21
1.10974
0
LINE
8
BLACK
6
CONTINUOUS
10
0.112122
20
1.10974
11
0.122673
21
1.11897
0
LINE
8
BLACK
6
CONTINUOUS
10
0.122673
20
1.11897
11
0.134187
21
1.12698
0
LINE
8
BLACK
6
CONTINUOUS
10
0.134187
20
1.12698
11
0.146522
21
1.13365
0
LINE
8
BLACK
6
CONTINUOUS
10
0.146522
20
1.13365
11
0.159523
21
1.1389
0
LINE
8
BLACK
6
CONTINUOUS
10
0.159523
20
1.1389
11
0.173029
21
1.14267
0
LINE
8
BLACK
6
CONTINUOUS
10
0.173029
20
1.14267
11
0.186871
21
1.14491
0
LINE
8
BLACK
6
CONTINUOUS
10
0.186871
20
1.14491
11
0.200877
21
1.1456
0
LINE
8
BLACK
6
CONTINUOUS
10
0.200877
20
1.1456
11
0.214872
21
1.14472
0
LINE
8
BLACK
6
CONTINUOUS
10
0.214872
20
1.14472
11
0.228681
21
1.14228
0
LINE
8
BLACK
6
CONTINUOUS
10
0.228681
20
1.14228
11
0.242133
21
1.13832
0
LINE
8
BLACK
6
CONTINUOUS
10
0.242133
20
1.13832
11
0.255059
21
1.13289
0
LINE
8
BLACK
6
CONTINUOUS
10
0.255059
20
1.13289
11
0.2673
21
1.12605
0
LINE
8
BLACK
6
CONTINUOUS
10
0.2673
20
1.12605
11
0.278701
21
1.11788
0
LINE
8
BLACK
6
CONTINUOUS
10
0.278701
20
1.11788
11
0.289122
21
1.1085
0
LINE
8
BLACK
6
CONTINUOUS
10
0.289122
20
1.1085
11
0.298432
21
1.09802
0
LINE
8
BLACK
6
CONTINUOUS
10
0.298432
20
1.09802
11
0.306515
21
1.08656
0
LINE
8
BLACK
6
CONTINUOUS
10
0.306515
20
1.08656
11
0.31327
21
1.07427
0
LINE
8
BLACK
6
CONTINUOUS
10
0.31327
20
1.07427
11
0.318614
21
1.06131
0
LINE
8
BLACK
6
CONTINUOUS
10
0.318614
20
1.06131
11
0.322479
21
1.04783
0
LINE
8
BLACK
6
CONTINUOUS
10
0.322479
20
1.04783
11
0.324817
21
1.034
0
LINE
8
BLACK
6
CONTINUOUS
10
0.324817
20
1.034
11
0.3256
21
1.02
0
LINE
8
BLACK
6
CONTINUOUS
10
0.3256
20
1.02
11
0.325551
21
1.01649
0
LINE
8
BLACK
6
CONTINUOUS
10
0.325551
20
1.01649
11
0.324378
21
1.00252
0
LINE
8
BLACK
6
CONTINUOUS
10
0.324378
20
1.00252
11
0.321654
21
0.988765
0
LINE
8
BLACK
6
CONTINUOUS
10
0.321654
20
0.988765
11
0.317414
21
0.975399
0
LINE
8
BLACK
6
CONTINUOUS
10
0.317414
20
0.975399
11
0.311711
21
0.962589
0
LINE
8
BLACK
6
CONTINUOUS
10
0.311711
20
0.962589
11
0.304615
21
0.950494
0
LINE
8
BLACK
6
CONTINUOUS
10
0.304615
20
0.950494
11
0.296215
21
0.939266
0
LINE
8
BLACK
6
CONTINUOUS
10
0.296215
20
0.939266
11
0.286616
21
0.929044
0
LINE
8
BLACK
6
CONTINUOUS
10
0.286616
20
0.929044
11
0.275938
21
0.919956
0
LINE
8
BLACK
6
CONTINUOUS
10
0.275938
20
0.919956
11
0.264313
21
0.912115
0
LINE
8
BLACK
6
CONTINUOUS
10
0.264313
20
0.912115
11
0.251886
21
0.905618
0
LINE
8
BLACK
6
CONTINUOUS
10
0.251886
20
0.905618
11
0.238813
21
0.900547
0
LINE
8
BLACK
6
CONTINUOUS
10
0.238813
20
0.900547
11
0.225255
21
0.896965
0
LINE
8
BLACK
6
CONTINUOUS
10
0.225255
20
0.896965
11
0.211383
21
0.894917
0
LINE
8
BLACK
6
CONTINUOUS
10
0.211383
20
0.894917
11
0.19737
21
0.894428
0
LINE
8
BLACK
6
CONTINUOUS
10
0.19737
20
0.894428
11
0.183389
21
0.895503
0
LINE
8
BLACK
6
CONTINUOUS
10
0.183389
20
0.895503
11
0.169615
21
0.898131
0
LINE
8
BLACK
6
CONTINUOUS
10
0.169615
20
0.898131
11
0.156219
21
0.902277
0
LINE
8
BLACK
6
CONTINUOUS
10
0.156219
20
0.902277
11
0.14337
21
0.907891
0
LINE
8
BLACK
6
CONTINUOUS
10
0.14337
20
0.907891
11
0.131226
21
0.914902
0
LINE
8
BLACK
6
CONTINUOUS
10
0.131226
20
0.914902
11
0.11994
21
0.923224
0
LINE
8
BLACK
6
CONTINUOUS
10
0.11994
20
0.923224
11
0.109651
21
0.932751
0
LINE
8
BLACK
6
CONTINUOUS
10
0.109651
20
0.932751
11
0.100488
21
0.943366
0
LINE
8
BLACK
6
CONTINUOUS
10
0.100488
20
0.943366
11
0.0925663
21
0.954936
0
LINE
8
BLACK
6
CONTINUOUS
10
0.0925663
20
0.954936
11
0.0859831
21
0.967317
0
LINE
8
BLACK
6
CONTINUOUS
10
0.0859831
20
0.967317
11
0.0808212
21
0.980354
0
LINE
8
BLACK
6
CONTINUOUS
10
0.0808212
20
0.980354
11
0.0771446
21
0.993886
0
LINE
8
BLACK
6
CONTINUOUS
10
0.0771446
20
0.993886
11
0.0749994
21
1.00774
0
LINE
8
BLACK
6
CONTINUOUS
10
0.0749994
20
1.00774
11
0.0744122
21
1.02175
0
LINE
8
BLACK
6
CONTINUOUS
10
0.0744122
20
1.02175
11
0.074533
21
1.02348
0
LINE
8
BLACK
6
CONTINUOUS
10
0.074533
20
1.02348
11
0.0753904
21
1.03574
0
LINE
8
BLACK
6
CONTINUOUS
10
0.0753904
20
1.03574
11
0.0779217
21
1.04953
0
LINE
8
BLACK
6
CONTINUOUS
10
0.0913983
20
0.998102
11
0.0946349
21
0.985765
0
LINE
8
BLACK
6
CONTINUOUS
10
0.0946349
20
0.985765
11
0.0992681
21
0.973881
0
LINE
8
BLACK
6
CONTINUOUS
10
0.0992681
20
0.973881
11
0.105236
21
0.962609
0
LINE
8
BLACK
6
CONTINUOUS
10
0.105236
20
0.962609
11
0.112461
21
0.952098
0
LINE
8
BLACK
6
CONTINUOUS
10
0.112461
20
0.952098
11
0.120845
21
0.942486
0
LINE
8
BLACK
6
CONTINUOUS
10
0.120845
20
0.942486
11
0.130279
21
0.933902
0
LINE
8
BLACK
6
CONTINUOUS
10
0.130279
20
0.933902
11
0.140637
21
0.926459
0
LINE
8
BLACK
6
CONTINUOUS
10
0.140637
20
0.926459
11
0.151782
21
0.920256
0
LINE
8
BLACK
6
CONTINUOUS
10
0.151782
20
0.920256
11
0.163566
21
0.915375
0
LINE
8
BLACK
6
CONTINUOUS
10
0.163566
20
0.915375
11
0.175832
21
0.911881
0
LINE
8
BLACK
6
CONTINUOUS
10
0.175832
20
0.911881
11
0.18842
21
0.909819
0
LINE
8
BLACK
6
CONTINUOUS
10
0.18842
20
0.909819
11
0.20116
21
0.909219
0
LINE
8
BLACK
6
CONTINUOUS
10
0.20116
20
0.909219
11
0.213885
21
0.910086
0
LINE
8
BLACK
6
CONTINUOUS
10
0.213885
20
0.910086
11
0.226426
21
0.912411
0
LINE
8
BLACK
6
CONTINUOUS
10
0.226426
20
0.912411
11
0.238617
21
0.916161
0
LINE
8
BLACK
6
CONTINUOUS
10
0.238617
20
0.916161
11
0.250296
21
0.921288
0
LINE
8
BLACK
6
CONTINUOUS
10
0.250296
20
0.921288
11
0.261309
21
0.927723
0
LINE
8
BLACK
6
CONTINUOUS
10
0.261309
20
0.927723
11
0.271509
21
0.935381
0
LINE
8
BLACK
6
CONTINUOUS
10
0.271509
20
0.935381
11
0.280761
21
0.944161
0
LINE
8
BLACK
6
CONTINUOUS
10
0.280761
20
0.944161
11
0.288942
21
0.953946
0
LINE
8
BLACK
6
CONTINUOUS
10
0.288942
20
0.953946
11
0.295945
21
0.964606
0
LINE
8
BLACK
6
CONTINUOUS
10
0.295945
20
0.964606
11
0.301676
21
0.976001
0
LINE
8
BLACK
6
CONTINUOUS
10
0.301676
20
0.976001
11
0.306059
21
0.987979
0
LINE
8
BLACK
6
CONTINUOUS
10
0.306059
20
0.987979
11
0.309036
21
1.00038
0
LINE
8
BLACK
6
CONTINUOUS
10
0.309036
20
1.00038
11
0.310569
21
1.01304
0
LINE
8
BLACK
6
CONTINUOUS
10
0.310569
20
1.01304
11
0.310787
21
1.02
0
LINE
8
BLACK
6
CONTINUOUS
10
0.310787
20
1.02
11
0.310053
21
1.03273
0
LINE
8
BLACK
6
CONTINUOUS
10
0.310053
20
1.03273
11
0.30786
21
1.0453
0
LINE
8
BLACK
6
CONTINUOUS
10
0.30786
20
1.0453
11
0.304238
21
1.05753
0
LINE
8
BLACK
6
CONTINUOUS
10
0.304238
20
1.05753
11
0.299234
21
1.06926
0
LINE
8
BLACK
6
CONTINUOUS
10
0.299234
20
1.06926
11
0.292914
21
1.08034
0
LINE
8
BLACK
6
CONTINUOUS
10
0.292914
20
1.08034
11
0.285363
21
1.09062
0
LINE
8
BLACK
6
CONTINUOUS
10
0.285363
20
1.09062
11
0.276681
21
1.09996
0
LINE
8
BLACK
6
CONTINUOUS
10
0.276681
20
1.09996
11
0.266982
21
1.10825
0
LINE
8
BLACK
6
CONTINUOUS
10
0.266982
20
1.10825
11
0.256395
21
1.11536
0
LINE
8
BLACK
6
CONTINUOUS
10
0.256395
20
1.11536
11
0.245061
21
1.12121
0
LINE
8
BLACK
6
CONTINUOUS
10
0.245061
20
1.12121
11
0.23313
21
1.12572
0
LINE
8
BLACK
6
CONTINUOUS
10
0.23313
20
1.12572
11
0.220759
21
1.12883
0
LINE
8
BLACK
6
CONTINUOUS
10
0.220759
20
1.12883
11
0.208114
21
1.13049
0
LINE
8
BLACK
6
CONTINUOUS
10
0.208114
20
1.13049
11
0.195361
21
1.13069
0
LINE
8
BLACK
6
CONTINUOUS
10
0.195361
20
1.13069
11
0.182669
21
1.12942
0
LINE
8
BLACK
6
CONTINUOUS
10
0.182669
20
1.12942
11
0.170207
21
1.12671
0
LINE
8
BLACK
6
CONTINUOUS
10
0.170207
20
1.12671
11
0.15814
21
1.12257
0
LINE
8
BLACK
6
CONTINUOUS
10
0.15814
20
1.12257
11
0.146628
21
1.11708
0
LINE
8
BLACK
6
CONTINUOUS
10
0.146628
20
1.11708
11
0.135823
21
1.11031
0
LINE
8
BLACK
6
CONTINUOUS
10
0.135823
20
1.11031
11
0.125869
21
1.10233
0
LINE
8
BLACK
6
CONTINUOUS
10
0.125869
20
1.10233
11
0.116897
21
1.09327
0
LINE
8
BLACK
6
CONTINUOUS
10
0.116897
20
1.09327
11
0.109027
21
1.08323
0
LINE
8
BLACK
6
CONTINUOUS
10
0.109027
20
1.08323
11
0.102363
21
1.07235
0
LINE
8
BLACK
6
CONTINUOUS
10
0.102363
20
1.07235
11
0.0969924
21
1.06078
0
LINE
8
BLACK
6
CONTINUOUS
10
0.0969924
20
1.06078
11
0.0929876
21
1.04867
0
LINE
8
BLACK
6
CONTINUOUS
10
0.0929876
20
1.04867
11
0.0904011
21
1.03618
0
LINE
8
BLACK
6
CONTINUOUS
10
0.0904011
20
1.03618
11
0.0892672
21
1.02348
0
LINE
8
BLACK
6
CONTINUOUS
10
0.0892672
20
1.02348
11
0.0896011
21
1.01073
0
LINE
8
BLACK
6
CONTINUOUS
10
0.0896011
20
1.01073
11
0.0913983
21
0.998102
0
LINE
8
BLACK
6
CONTINUOUS
10
0.0779217
20
1.42953
11
0.0819746
21
1.44296
0
LINE
8
BLACK
6
CONTINUOUS
10
0.0819746
20
1.44296
11
0.0874986
21
1.45585
0
LINE
8
BLACK
6
CONTINUOUS
10
0.0874986
20
1.45585
11
0.0944248
21
1.46804
0
LINE
8
BLACK
6
CONTINUOUS
10
0.0944248
20
1.46804
11
0.102667
21
1.47938
0
LINE
8
BLACK
6
CONTINUOUS
10
0.102667
20
1.47938
11
0.112122
21
1.48974
0
LINE
8
BLACK
6
CONTINUOUS
10
0.112122
20
1.48974
11
0.122673
21
1.49897
0
LINE
8
BLACK
6
CONTINUOUS
10
0.122673
20
1.49897
11
0.134187
21
1.50698
0
LINE
8
BLACK
6
CONTINUOUS
10
0.134187
20
1.50698
11
0.146522
21
1.51365
0
LINE
8
BLACK
6
CONTINUOUS
10
0.146522
20
1.51365
11
0.159523
21
1.5189
0
LINE
8
BLACK
6
CONTINUOUS
10
0.159523
20
1.5189
11
0.173029
21
1.52267
0
LINE
8
BLACK
6
CONTINUOUS
10
0.173029
20
1.52267
11
0.186871
21
1.52491
0
LINE
8
BLACK
6
CONTINUOUS
10
0.186871
20
1.52491
11
0.200877
21
1.5256
0
LINE
8
BLACK
6
CONTINUOUS
10
0.200877
20
1.5256
11
0.214872
21
1.52472
0
LINE
8
BLACK
6
CONTINUOUS
10
0.214872
20
1.52472
11
0.228681
21
1.52228
0
LINE
8
BLACK
6
CONTINUOUS
10
0.228681
20
1.52228
11
0.242133
21
1.51832
0
LINE
8
BLACK
6
CONTINUOUS
10
0.242133
20
1.51832
11
0.255059
21
1.51289
0
LINE
8
BLACK
6
CONTINUOUS
10
0.255059
20
1.51289
11
0.2673
21
1.50605
0
LINE
8
BLACK
6
CONTINUOUS
10
0.2673
20
1.50605
11
0.278701
21
1.49788
0
LINE
8
BLACK
6
CONTINUOUS
10
0.278701
20
1.49788
11
0.289122
21
1.4885
0
LINE
8
BLACK
6
CONTINUOUS
10
0.289122
20
1.4885
11
0.298432
21
1.47802
0
LINE
8
BLACK
6
CONTINUOUS
10
0.298432
20
1.47802
11
0.306515
21
1.46656
0
LINE
8
BLACK
6
CONTINUOUS
10
0.306515
20
1.46656
11
0.31327
21
1.45427
0
LINE
8
BLACK
6
CONTINUOUS
10
0.31327
20
1.45427
11
0.318614
21
1.44131
0
LINE
8
BLACK
6
CONTINUOUS
10
0.318614
20
1.44131
11
0.322479
21
1.42783
0
LINE
8
BLACK
6
CONTINUOUS
10
0.322479
20
1.42783
11
0.324817
21
1.414
0
LINE
8
BLACK
6
CONTINUOUS
10
0.324817
20
1.414
11
0.3256
21
1.4
0
LINE
8
BLACK
6
CONTINUOUS
10
0.3256
20
1.4
11
0.325551
21
1.39649
0
LINE
8
BLACK
6
CONTINUOUS
10
0.325551
20
1.39649
11
0.324378
21
1.38252
0
LINE
8
BLACK
6
CONTINUOUS
10
0.324378
20
1.38252
11
0.321654
21
1.36876
0
LINE
8
BLACK
6
CONTINUOUS
10
0.321654
20
1.36876
11
0.317414
21
1.3554
0
LINE
8
BLACK
6
CONTINUOUS
10
0.317414
20
1.3554
11
0.311711
21
1.34259
0
LINE
8
BLACK
6
CONTINUOUS
10
0.311711
20
1.34259
11
0.304615
21
1.33049
0
LINE
8
BLACK
6
CONTINUOUS
10
0.304615
20
1.33049
11
0.296215
21
1.31927
0
LINE
8
BLACK
6
CONTINUOUS
10
0.296215
20
1.31927
11
0.286616
21
1.30904
0
LINE
8
BLACK
6
CONTINUOUS
10
0.286616
20
1.30904
11
0.275938
21
1.29996
0
LINE
8
BLACK
6
CONTINUOUS
10
0.275938
20
1.29996
11
0.264313
21
1.29211
0
LINE
8
BLACK
6
CONTINUOUS
10
0.264313
20
1.29211
11
0.251886
21
1.28562
0
LINE
8
BLACK
6
CONTINUOUS
10
0.251886
20
1.28562
11
0.238813
21
1.28055
0
LINE
8
BLACK
6
CONTINUOUS
10
0.238813
20
1.28055
11
0.225255
21
1.27697
0
LINE
8
BLACK
6
CONTINUOUS
10
0.225255
20
1.27697
11
0.211383
21
1.27492
0
LINE
8
BLACK
6
CONTINUOUS
10
0.211383
20
1.27492
11
0.19737
21
1.27443
0
LINE
8
BLACK
6
CONTINUOUS
10
0.19737
20
1.27443
11
0.183389
21
1.2755
0
LINE
8
BLACK
6
CONTINUOUS
10
0.183389
20
1.2755
11
0.169615
21
1.27813
0
LINE
8
BLACK
6
CONTINUOUS
10
0.169615
20
1.27813
11
0.156219
21
1.28228
0
LINE
8
BLACK
6
CONTINUOUS
10
0.156219
20
1.28228
11
0.14337
21
1.28789
0
LINE
8
BLACK
6
CONTINUOUS
10
0.14337
20
1.28789
11
0.131226
21
1.2949
0
LINE
8
BLACK
6
CONTINUOUS
10
0.131226
20
1.2949
11
0.11994
21
1.30322
0
LINE
8
BLACK
6
CONTINUOUS
10
0.11994
20
1.30322
11
0.109651
21
1.31275
0
LINE
8
BLACK
6
CONTINUOUS
10
0.109651
20
1.31275
11
0.100488
21
1.32337
0
LINE
8
BLACK
6
CONTINUOUS
10
0.100488
20
1.32337
11
0.0925663
21
1.33494
0
LINE
8
BLACK
6
CONTINUOUS
10
0.0925663
20
1.33494
11
0.0859831
21
1.34732
0
LINE
8
BLACK
6
CONTINUOUS
10
0.0859831
20
1.34732
11
0.0808212
21
1.36035
0
LINE
8
BLACK
6
CONTINUOUS
10
0.0808212
20
1.36035
11
0.0771446
21
1.37389
0
LINE
8
BLACK
6
CONTINUOUS
10
0.0771446
20
1.37389
11
0.0749994
21
1.38774
0
LINE
8
BLACK
6
CONTINUOUS
10
0.0749994
20
1.38774
11
0.0744122
21
1.40175
0
LINE
8
BLACK
6
CONTINUOUS
10
0.0744122
20
1.40175
11
0.074533
21
1.40348
0
LINE
8
BLACK
6
CONTINUOUS
10
0.074533
20
1.40348
11
0.0753904
21
1.41574
0
LINE
8
BLACK
6
CONTINUOUS
10
0.0753904
20
1.41574
11
0.0779217
21
1.42953
0
LINE
8
BLACK
6
CONTINUOUS
10
0.0913983
20
1.3781
11
0.0946349
21
1.36576
0
LINE
8
BLACK
6
CONTINUOUS
10
0.0946349
20
1.36576
11
0.0992681
21
1.35388
0
LINE
8
BLACK
6
CONTINUOUS
10
0.0992681
20
1.35388
11
0.105236
21
1.34261
0
LINE
8
BLACK
6
CONTINUOUS
10
0.105236
20
1.34261
11
0.112461
21
1.3321
0
LINE
8
BLACK
6
CONTINUOUS
10
0.112461
20
1.3321
11
0.120845
21
1.32249
0
LINE
8
BLACK
6
CONTINUOUS
10
0.120845
20
1.32249
11
0.130279
21
1.3139
0
LINE
8
BLACK
6
CONTINUOUS
10
0.130279
20
1.3139
11
0.140637
21
1.30646
0
LINE
8
BLACK
6
CONTINUOUS
10
0.140637
20
1.30646
11
0.151782
21
1.30026
0
LINE
8
BLACK
6
CONTINUOUS
10
0.151782
20
1.30026
11
0.163566
21
1.29537
0
LINE
8
BLACK
6
CONTINUOUS
10
0.163566
20
1.29537
11
0.175832
21
1.29188
0
LINE
8
BLACK
6
CONTINUOUS
10
0.175832
20
1.29188
11
0.18842
21
1.28982
0
LINE
8
BLACK
6
CONTINUOUS
10
0.18842
20
1.28982
11
0.20116
21
1.28922
0
LINE
8
BLACK
6
CONTINUOUS
10
0.20116
20
1.28922
11
0.213885
21
1.29009
0
LINE
8
BLACK
6
CONTINUOUS
10
0.213885
20
1.29009
11
0.226426
21
1.29241
0
LINE
8
BLACK
6
CONTINUOUS
10
0.226426
20
1.29241
11
0.238617
21
1.29616
0
LINE
8
BLACK
6
CONTINUOUS
10
0.238617
20
1.29616
11
0.250296
21
1.30129
0
LINE
8
BLACK
6
CONTINUOUS
10
0.250296
20
1.30129
11
0.261309
21
1.30772
0
LINE
8
BLACK
6
CONTINUOUS
10
0.261309
20
1.30772
11
0.271509
21
1.31538
0
LINE
8
BLACK
6
CONTINUOUS
10
0.271509
20
1.31538
11
0.280761
21
1.32416
0
LINE
8
BLACK
6
CONTINUOUS
10
0.280761
20
1.32416
11
0.288942
21
1.33395
0
LINE
8
BLACK
6
CONTINUOUS
10
0.288942
20
1.33395
11
0.295945
21
1.34461
0
LINE
8
BLACK
6
CONTINUOUS
10
0.295945
20
1.34461
11
0.301676
21
1.356
0
LINE
8
BLACK
6
CONTINUOUS
10
0.301676
20
1.356
11
0.306059
21
1.36798
0
LINE
8
BLACK
6
CONTINUOUS
10
0.306059
20
1.36798
11
0.309036
21
1.38038
0
LINE
8
BLACK
6
CONTINUOUS
10
0.309036
20
1.38038
11
0.310569
21
1.39304
0
LINE
8
BLACK
6
CONTINUOUS
10
0.310569
20
1.39304
11
0.310787
21
1.4
0
LINE
8
BLACK
6
CONTINUOUS
10
0.310787
20
1.4
11
0.310053
21
1.41273
0
LINE
8
BLACK
6
CONTINUOUS
10
0.310053
20
1.41273
11
0.30786
21
1.4253
0
LINE
8
BLACK
6
CONTINUOUS
10
0.30786
20
1.4253
11
0.304238
21
1.43753
0
LINE
8
BLACK
6
CONTINUOUS
10
0.304238
20
1.43753
11
0.299234
21
1.44926
0
LINE
8
BLACK
6
CONTINUOUS
10
0.299234
20
1.44926
11
0.292914
21
1.46034
0
LINE
8
BLACK
6
CONTINUOUS
10
0.292914
20
1.46034
11
0.285363
21
1.47062
0
LINE
8
BLACK
6
CONTINUOUS
10
0.285363
20
1.47062
11
0.276681
21
1.47996
0
LINE
8
BLACK
6
CONTINUOUS
10
0.276681
20
1.47996
11
0.266982
21
1.48825
0
LINE
8
BLACK
6
CONTINUOUS
10
0.266982
20
1.48825
11
0.256395
21
1.49536
0
LINE
8
BLACK
6
CONTINUOUS
10
0.256395
20
1.49536
11
0.245061
21
1.50121
0
LINE
8
BLACK
6
CONTINUOUS
10
0.245061
20
1.50121
11
0.23313
21
1.50572
0
LINE
8
BLACK
6
CONTINUOUS
10
0.23313
20
1.50572
11
0.220759
21
1.50883
0
LINE
8
BLACK
6
CONTINUOUS
10
0.220759
20
1.50883
11
0.208114
21
1.51049
0
LINE
8
BLACK
6
CONTINUOUS
10
0.208114
20
1.51049
11
0.195361
21
1.51069
0
LINE
8
BLACK
6
CONTINUOUS
10
0.195361
20
1.51069
11
0.182669
21
1.50942
0
LINE
8
BLACK
6
CONTINUOUS
10
0.182669
20
1.50942
11
0.170207
21
1.50671
0
LINE
8
BLACK
6
CONTINUOUS
10
0.170207
20
1.50671
11
0.15814
21
1.50257
0
LINE
8
BLACK
6
CONTINUOUS
10
0.15814
20
1.50257
11
0.146628
21
1.49708
0
LINE
8
BLACK
6
CONTINUOUS
10
0.146628
20
1.49708
11
0.135823
21
1.49031
0
LINE
8
BLACK
6
CONTINUOUS
10
0.135823
20
1.49031
11
0.125869
21
1.48233
0
LINE
8
BLACK
6
CONTINUOUS
10
0.125869
20
1.48233
11
0.116897
21
1.47327
0
LINE
8
BLACK
6
CONTINUOUS
10
0.116897
20
1.47327
11
0.109027
21
1.46323
0
LINE
8
BLACK
6
CONTINUOUS
10
0.109027
20
1.46323
11
0.102363
21
1.45235
0
LINE
8
BLACK
6
CONTINUOUS
10
0.102363
20
1.45235
11
0.0969924
21
1.44078
0
LINE
8
BLACK
6
CONTINUOUS
10
0.0969924
20
1.44078
11
0.0929876
21
1.42867
0
LINE
8
BLACK
6
CONTINUOUS
10
0.0929876
20
1.42867
11
0.0904011
21
1.41618
0
LINE
8
BLACK
6
CONTINUOUS
10
0.0904011
20
1.41618
11
0.0892672
21
1.40348
0
LINE
8
BLACK
6
CONTINUOUS
10
0.0892672
20
1.40348
11
0.0896011
21
1.39073
0
LINE
8
BLACK
6
CONTINUOUS
10
0.0896011
20
1.39073
11
0.0913983
21
1.3781
0
LINE
8
BLACK
6
CONTINUOUS
10
1.67792
20
1.42953
11
1.68197
21
1.44296
0
LINE
8
BLACK
6
CONTINUOUS
10
1.68197
20
1.44296
11
1.6875
21
1.45585
0
LINE
8
BLACK
6
CONTINUOUS
10
1.6875
20
1.45585
11
1.69442
21
1.46804
0
LINE
8
BLACK
6
CONTINUOUS
10
1.69442
20
1.46804
11
1.70267
21
1.47938
0
LINE
8
BLACK
6
CONTINUOUS
10
1.70267
20
1.47938
11
1.71212
21
1.48974
0
LINE
8
BLACK
6
CONTINUOUS
10
1.71212
20
1.48974
11
1.72267
21
1.49897
0
LINE
8
BLACK
6
CONTINUOUS
10
1.72267
20
1.49897
11
1.73419
21
1.50698
0
LINE
8
BLACK
6
CONTINUOUS
10
1.73419
20
1.50698
11
1.74652
21
1.51365
0
LINE
8
BLACK
6
CONTINUOUS
10
1.74652
20
1.51365
11
1.75952
21
1.5189
0
LINE
8
BLACK
6
CONTINUOUS
10
1.75952
20
1.5189
11
1.77303
21
1.52267
0
LINE
8
BLACK
6
CONTINUOUS
10
1.77303
20
1.52267
11
1.78687
21
1.52491
0
LINE
8
BLACK
6
CONTINUOUS
10
1.78687
20
1.52491
11
1.80088
21
1.5256
0
LINE
8
BLACK
6
CONTINUOUS
10
1.80088
20
1.5256
11
1.81487
21
1.52472
0
LINE
8
BLACK
6
CONTINUOUS
10
1.81487
20
1.52472
11
1.82868
21
1.52228
0
LINE
8
BLACK
6
CONTINUOUS
10
1.82868
20
1.52228
11
1.84213
21
1.51832
0
LINE
8
BLACK
6
CONTINUOUS
10
1.84213
20
1.51832
11
1.85506
21
1.51289
0
LINE
8
BLACK
6
CONTINUOUS
10
1.85506
20
1.51289
11
1.8673
21
1.50605
0
LINE
8
BLACK
6
CONTINUOUS
10
1.8673
20
1.50605
11
1.8787
21
1.49788
0
LINE
8
BLACK
6
CONTINUOUS
10
1.8787
20
1.49788
11
1.88912
21
1.4885
0
LINE
8
BLACK
6
CONTINUOUS
10
1.88912
20
1.4885
11
1.89843
21
1.47802
0
LINE
8
BLACK
6
CONTINUOUS
10
1.89843
20
1.47802
11
1.90651
21
1.46656
0
LINE
8
BLACK
6
CONTINUOUS
10
1.90651
20
1.46656
11
1.91327
21
1.45427
0
LINE
8
BLACK
6
CONTINUOUS
10
1.91327
20
1.45427
11
1.91861
21
1.44131
0
LINE
8
BLACK
6
CONTINUOUS
10
1.91861
20
1.44131
11
1.92248
21
1.42783
0
LINE
8
BLACK
6
CONTINUOUS
10
1.92248
20
1.42783
11
1.92482
21
1.414
0
LINE
8
BLACK
6
CONTINUOUS
10
1.92482
20
1.414
11
1.9256
21
1.4
0
LINE
8
BLACK
6
CONTINUOUS
10
1.9256
20
1.4
11
1.92555
21
1.39649
0
LINE
8
BLACK
6
CONTINUOUS
10
1.92555
20
1.39649
11
1.92438
21
1.38252
0
LINE
8
BLACK
6
CONTINUOUS
10
1.92438
20
1.38252
11
1.92165
21
1.36876
0
LINE
8
BLACK
6
CONTINUOUS
10
1.92165
20
1.36876
11
1.91741
21
1.3554
0
LINE
8
BLACK
6
CONTINUOUS
10
1.91741
20
1.3554
11
1.91171
21
1.34259
0
LINE
8
BLACK
6
CONTINUOUS
10
1.91171
20
1.34259
11
1.90461
21
1.33049
0
LINE
8
BLACK
6
CONTINUOUS
10
1.90461
20
1.33049
11
1.89622
21
1.31927
0
LINE
8
BLACK
6
CONTINUOUS
10
1.89622
20
1.31927
11
1.88662
21
1.30904
0
LINE
8
BLACK
6
CONTINUOUS
10
1.88662
20
1.30904
11
1.87594
21
1.29996
0
LINE
8
BLACK
6
CONTINUOUS
10
1.87594
20
1.29996
11
1.86431
21
1.29211
0
LINE
8
BLACK
6
CONTINUOUS
10
1.86431
20
1.29211
11
1.85189
21
1.28562
0
LINE
8
BLACK
6
CONTINUOUS
10
1.85189
20
1.28562
11
1.83881
21
1.28055
0
LINE
8
BLACK
6
CONTINUOUS
10
1.83881
20
1.28055
11
1.82526
21
1.27697
0
LINE
8
BLACK
6
CONTINUOUS
10
1.82526
20
1.27697
11
1.81138
21
1.27492
0
LINE
8
BLACK
6
CONTINUOUS
10
1.81138
20
1.27492
11
1.79737
21
1.27443
0
LINE
8
BLACK
6
CONTINUOUS
10
1.79737
20
1.27443
11
1.78339
21
1.2755
0
LINE
8
BLACK
6
CONTINUOUS
10
1.78339
20
1.2755
11
1.76961
21
1.27813
0
LINE
8
BLACK
6
CONTINUOUS
10
1.76961
20
1.27813
11
1.75622
21
1.28228
0
LINE
8
BLACK
6
CONTINUOUS
10
1.75622
20
1.28228
11
1.74337
21
1.28789
0
LINE
8
BLACK
6
CONTINUOUS
10
1.74337
20
1.28789
11
1.73123
21
1.2949
0
LINE
8
BLACK
6
CONTINUOUS
10
1.73123
20
1.2949
11
1.71994
21
1.30322
0
LINE
8
BLACK
6
CONTINUOUS
10
1.71994
20
1.30322
11
1.70965
21
1.31275
0
LINE
8
BLACK
6
CONTINUOUS
10
1.70965
20
1.31275
11
1.70049
21
1.32337
0
LINE
8
BLACK
6
CONTINUOUS
10
1.70049
20
1.32337
11
1.69257
21
1.33494
0
LINE
8
BLACK
6
CONTINUOUS
10
1.69257
20
1.33494
11
1.68598
21
1.34732
0
LINE
8
BLACK
6
CONTINUOUS
10
1.68598
20
1.34732
11
1.68082
21
1.36035
0
LINE
8
BLACK
6
CONTINUOUS
10
1.68082
20
1.36035
11
1.67714
21
1.37389
0
LINE
8
BLACK
6
CONTINUOUS
10
1.67714
20
1.37389
11
1.675
21
1.38774
0
LINE
8
BLACK
6
CONTINUOUS
10
1.675
20
1.38774
11
1.67441
21
1.40175
0
LINE
8
BLACK
6
CONTINUOUS
10
1.67441
20
1.40175
11
1.67453
21
1.40348
0
LINE
8
BLACK
6
CONTINUOUS
10
1.67453
20
1.40348
11
1.67539
21
1.41574
0
LINE
8
BLACK
6
CONTINUOUS
10
1.67539
20
1.41574
11
1.67792
21
1.42953
0
LINE
8
BLACK
6
CONTINUOUS
10
1.6914
20
1.3781
11
1.69463
21
1.36576
0
LINE
8
BLACK
6
CONTINUOUS
10
1.69463
20
1.36576
11
1.69927
21
1.35388
0
LINE
8
BLACK
6
CONTINUOUS
10
1.69927
20
1.35388
11
1.70524
21
1.34261
0
LINE
8
BLACK
6
CONTINUOUS
10
1.70524
20
1.34261
11
1.71246
21
1.3321
0
LINE
8
BLACK
6
CONTINUOUS
10
1.71246
20
1.3321
11
1.72085
21
1.32249
0
LINE
8
BLACK
6
CONTINUOUS
10
1.72085
20
1.32249
11
1.73028
21
1.3139
0
LINE
8
BLACK
6
CONTINUOUS
10
1.73028
20
1.3139
11
1.74064
21
1.30646
0
LINE
8
BLACK
6
CONTINUOUS
10
1.74064
20
1.30646
11
1.75178
21
1.30026
0
LINE
8
BLACK
6
CONTINUOUS
10
1.75178
20
1.30026
11
1.76357
21
1.29537
0
LINE
8
BLACK
6
CONTINUOUS
10
1.76357
20
1.29537
11
1.77583
21
1.29188
0
LINE
8
BLACK
6
CONTINUOUS
10
1.77583
20
1.29188
11
1.78842
21
1.28982
0
LINE
8
BLACK
6
CONTINUOUS
10
1.78842
20
1.28982
11
1.80116
21
1.28922
0
LINE
8
BLACK
6
CONTINUOUS
10
1.80116
20
1.28922
11
1.81389
21
1.29009
0
LINE
8
BLACK
6
CONTINUOUS
10
1.81389
20
1.29009
11
1.82643
21
1.29241
0
LINE
8
BLACK
6
CONTINUOUS
10
1.82643
20
1.29241
11
1.83862
21
1.29616
0
LINE
8
BLACK
6
CONTINUOUS
10
1.83862
20
1.29616
11
1.8503
21
1.30129
0
LINE
8
BLACK
6
CONTINUOUS
10
1.8503
20
1.30129
11
1.86131
21
1.30772
0
LINE
8
BLACK
6
CONTINUOUS
10
1.86131
20
1.30772
11
1.87151
21
1.31538
0
LINE
8
BLACK
6
CONTINUOUS
10
1.87151
20
1.31538
11
1.88076
21
1.32416
0
LINE
8
BLACK
6
CONTINUOUS
10
1.88076
20
1.32416
11
1.88894
21
1.33395
0
LINE
8
BLACK
6
CONTINUOUS
10
1.88894
20
1.33395
11
1.89594
21
1.34461
0
LINE
8
BLACK
6
CONTINUOUS
10
1.89594
20
1.34461
11
1.90168
21
1.356
0
LINE
8
BLACK
6
CONTINUOUS
10
1.90168
20
1.356
11
1.90606
21
1.36798
0
LINE
8
BLACK
6
CONTINUOUS
10
1.90606
20
1.36798
11
1.90904
21
1.38038
0
LINE
8
BLACK
6
CONTINUOUS
10
1.90904
20
1.38038
11
1.91057
21
1.39304
0
LINE
8
BLACK
6
CONTINUOUS
10
1.91057
20
1.39304
11
1.91079
21
1.4
0
LINE
8
BLACK
6
CONTINUOUS
10
1.91079
20
1.4
11
1.91005
21
1.41273
0
LINE
8
BLACK
6
CONTINUOUS
10
1.91005
20
1.41273
11
1.90786
21
1.4253
0
LINE
8
BLACK
6
CONTINUOUS
10
1.90786
20
1.4253
11
1.90424
21
1.43753
0
LINE
8
BLACK
6
CONTINUOUS
10
1.90424
20
1.43753
11
1.89923
21
1.44926
0
LINE
8
BLACK
6
CONTINUOUS
10
1.89923
20
1.44926
11
1.89291
21
1.46034
0
LINE
8
BLACK
6
CONTINUOUS
10
1.89291
20
1.46034
11
1.88536
21
1.47062
0
LINE
8
BLACK
6
CONTINUOUS
10
1.88536
20
1.47062
11
1.87668
21
1.47996
0
LINE
8
BLACK
6
CONTINUOUS
10
1.87668
20
1.47996
11
1.86698
21
1.48825
0
LINE
8
BLACK
6
CONTINUOUS
10
1.86698
20
1.48825
11
1.8564
21
1.49536
0
LINE
8
BLACK
6
CONTINUOUS
10
1.8564
20
1.49536
11
1.84506
21
1.50121
0
LINE
8
BLACK
6
CONTINUOUS
10
1.84506
20
1.50121
11
1.83313
21
1.50572
0
LINE
8
BLACK
6
CONTINUOUS
10
1.83313
20
1.50572
11
1.82076
21
1.50883
0
LINE
8
BLACK
6
CONTINUOUS
10
1.82076
20
1.50883
11
1.80811
21
1.51049
0
LINE
8
BLACK
6
CONTINUOUS
10
1.80811
20
1.51049
11
1.79536
21
1.51069
0
LINE
8
BLACK
6
CONTINUOUS
10
1.79536
20
1.51069
11
1.78267
21
1.50942
0
LINE
8
BLACK
6
CONTINUOUS
10
1.78267
20
1.50942
11
1.77021
21
1.50671
0
LINE
8
BLACK
6
CONTINUOUS
10
1.77021
20
1.50671
11
1.75814
21
1.50257
0
LINE
8
BLACK
6
CONTINUOUS
10
1.75814
20
1.50257
11
1.74663
21
1.49708
0
LINE
8
BLACK
6
CONTINUOUS
10
1.74663
20
1.49708
11
1.73582
21
1.49031
0
LINE
8
BLACK
6
CONTINUOUS
10
1.73582
20
1.49031
11
1.72587
21
1.48233
0
LINE
8
BLACK
6
CONTINUOUS
10
1.72587
20
1.48233
11
1.7169
21
1.47327
0
LINE
8
BLACK
6
CONTINUOUS
10
1.7169
20
1.47327
11
1.70903
21
1.46323
0
LINE
8
BLACK
6
CONTINUOUS
10
1.70903
20
1.46323
11
1.70236
21
1.45235
0
LINE
8
BLACK
6
CONTINUOUS
10
1.70236
20
1.45235
11
1.69699
21
1.44078
0
LINE
8
BLACK
6
CONTINUOUS
10
1.69699
20
1.44078
11
1.69299
21
1.42867
0
LINE
8
BLACK
6
CONTINUOUS
10
1.69299
20
1.42867
11
1.6904
21
1.41618
0
LINE
8
BLACK
6
CONTINUOUS
10
1.6904
20
1.41618
11
1.68927
21
1.40348
0
LINE
8
BLACK
6
CONTINUOUS
10
1.68927
20
1.40348
11
1.6896
21
1.39073
0
LINE
8
BLACK
6
CONTINUOUS
10
1.6896
20
1.39073
11
1.6914
21
1.3781
  0
ENDSEC
  0
EOF
