  0
SECTION
  2
HEADER
  9
$ANGBASE
  50
0.0
  9
$ANGDIR
  70
1
  9
$MEASUREMENT
  70
0
  0
ENDSEC
  0
SECTION
  2
TABLES
  0
TABLE
  2
LTYPE
  70
4
  0
LTYPE
  5
40F
  2
CONTINUOUS
  70
0
  3
Solid line
  72
65
  73
0
  40
0.0
  0
LTYPE
  5
410
  2
DASHDOT
 70
0
  3
Dash Dot ____ _ ____ _
 72
65
 73
4
 40
2.0
 49
1.25
 49
-0.25
 49
0.25
 49
-0.25
  0
LTYPE
  5
411
  2
DASHED
 70
0
  3
Dashed __ __ __ __ __
 72
65
 73
2
 40
0.75
 49
0.5
 49
-0.25
  0
LTYPE
  5
43B
  2
DOTTED
 70
0
  3
Dotted .  .  .  .
 72
65
 73
2
 40
0.2
 49
0.0
 49
-0.2
  0
ENDTAB
  0
TABLE
  2
STYLE
  70
4
  0
STYLE
  2
KICAD
  70
0
  40
0
  41
1
  42
1
  50
0
  71
0
  3
isocp.shx
  0
STYLE
  2
KICADB
  70
0
  40
0
  41
1
  42
1
  50
0
  71
0
  3
isocp.shx
  0
STYLE
  2
KICADI
  70
0
  40
0
  41
1
  42
1
  50
15
  71
0
  3
isocp.shx
  0
STYLE
  2
KICADBI
  70
0
  40
0
  41
1
  42
1
  50
15
  71
0
  3
isocp.shx
  0
ENDTAB
  0
TABLE
  2
LAYER
  70
1
  0
LAYER
  2
BLACK
  70
0
  62
7
  6
CONTINUOUS
  0
ENDTAB
  0
ENDSEC
  0
SECTION
  2
ENTITIES
0
LINE
8
BLACK
6
CONTINUOUS
10
6.6105
20
-3.25219
11
6.61063
21
-3.25217
0
LINE
8
BLACK
6
CONTINUOUS
10
6.61063
20
-3.25217
11
6.61074
21
-3.25224
0
LINE
8
BLACK
6
CONTINUOUS
10
6.61074
20
-3.25224
11
6.61113
21
-3.2523
0
LINE
8
BLACK
6
CONTINUOUS
10
6.61113
20
-3.2523
11
6.61172
21
-3.2528
0
LINE
8
BLACK
6
CONTINUOUS
10
6.61172
20
-3.2528
11
6.61238
21
-3.25318
0
LINE
8
BLACK
6
CONTINUOUS
10
6.61238
20
-3.25318
11
6.61247
21
-3.25343
0
LINE
8
BLACK
6
CONTINUOUS
10
6.61247
20
-3.25343
11
6.61268
21
-3.2536
0
LINE
8
BLACK
6
CONTINUOUS
10
6.61268
20
-3.2536
11
6.61281
21
-3.25436
0
LINE
8
BLACK
6
CONTINUOUS
10
6.61281
20
-3.25436
11
6.61307
21
-3.25508
0
LINE
8
BLACK
6
CONTINUOUS
10
6.61307
20
-3.25508
11
6.61307
21
-5.23508
0
LINE
8
BLACK
6
CONTINUOUS
10
6.61307
20
-5.23508
11
6.613
21
-5.23546
0
LINE
8
BLACK
6
CONTINUOUS
10
6.613
20
-5.23546
11
6.61303
21
-5.23559
0
LINE
8
BLACK
6
CONTINUOUS
10
6.61303
20
-5.23559
11
6.61296
21
-5.23571
0
LINE
8
BLACK
6
CONTINUOUS
10
6.61296
20
-5.23571
11
6.61289
21
-5.23609
0
LINE
8
BLACK
6
CONTINUOUS
10
6.61289
20
-5.23609
11
6.6124
21
-5.23668
0
LINE
8
BLACK
6
CONTINUOUS
10
6.6124
20
-5.23668
11
6.61202
21
-5.23734
0
LINE
8
BLACK
6
CONTINUOUS
10
6.61202
20
-5.23734
11
6.61177
21
-5.23743
0
LINE
8
BLACK
6
CONTINUOUS
10
6.61177
20
-5.23743
11
6.61159
21
-5.23764
0
LINE
8
BLACK
6
CONTINUOUS
10
6.61159
20
-5.23764
11
6.61084
21
-5.23777
0
LINE
8
BLACK
6
CONTINUOUS
10
6.61084
20
-5.23777
11
6.61012
21
-5.23803
0
LINE
8
BLACK
6
CONTINUOUS
10
6.61012
20
-5.23803
11
4.63012
21
-5.23803
0
LINE
8
BLACK
6
CONTINUOUS
10
4.63012
20
-5.23803
11
4.62973
21
-5.23796
0
LINE
8
BLACK
6
CONTINUOUS
10
4.62973
20
-5.23796
11
4.62961
21
-5.23799
0
LINE
8
BLACK
6
CONTINUOUS
10
4.62961
20
-5.23799
11
4.62949
21
-5.23792
0
LINE
8
BLACK
6
CONTINUOUS
10
4.62949
20
-5.23792
11
4.62911
21
-5.23785
0
LINE
8
BLACK
6
CONTINUOUS
10
4.62911
20
-5.23785
11
4.62852
21
-5.23736
0
LINE
8
BLACK
6
CONTINUOUS
10
4.62852
20
-5.23736
11
4.62786
21
-5.23698
0
LINE
8
BLACK
6
CONTINUOUS
10
4.62786
20
-5.23698
11
4.62777
21
-5.23673
0
LINE
8
BLACK
6
CONTINUOUS
10
4.62777
20
-5.23673
11
4.62756
21
-5.23656
0
LINE
8
BLACK
6
CONTINUOUS
10
4.62756
20
-5.23656
11
4.62743
21
-5.2358
0
LINE
8
BLACK
6
CONTINUOUS
10
4.62743
20
-5.2358
11
4.62717
21
-5.23508
0
LINE
8
BLACK
6
CONTINUOUS
10
4.62717
20
-5.23508
11
4.62717
21
-3.25508
0
LINE
8
BLACK
6
CONTINUOUS
10
4.62717
20
-3.25508
11
4.62723
21
-3.2547
0
LINE
8
BLACK
6
CONTINUOUS
10
4.62723
20
-3.2547
11
4.62721
21
-3.25457
0
LINE
8
BLACK
6
CONTINUOUS
10
4.62721
20
-3.25457
11
4.62728
21
-3.25445
0
LINE
8
BLACK
6
CONTINUOUS
10
4.62728
20
-3.25445
11
4.62734
21
-3.25407
0
LINE
8
BLACK
6
CONTINUOUS
10
4.62734
20
-3.25407
11
4.62784
21
-3.25348
0
LINE
8
BLACK
6
CONTINUOUS
10
4.62784
20
-3.25348
11
4.62822
21
-3.25282
0
LINE
8
BLACK
6
CONTINUOUS
10
4.62822
20
-3.25282
11
4.62847
21
-3.25273
0
LINE
8
BLACK
6
CONTINUOUS
10
4.62847
20
-3.25273
11
4.62864
21
-3.25252
0
LINE
8
BLACK
6
CONTINUOUS
10
4.62864
20
-3.25252
11
4.6294
21
-3.25239
0
LINE
8
BLACK
6
CONTINUOUS
10
4.6294
20
-3.25239
11
4.63012
21
-3.25213
0
LINE
8
BLACK
6
CONTINUOUS
10
4.63012
20
-3.25213
11
6.61012
21
-3.25213
0
LINE
8
BLACK
6
CONTINUOUS
10
6.61012
20
-3.25213
11
6.6105
21
-3.25219
0
LINE
8
BLACK
6
CONTINUOUS
10
4.63307
20
-3.25803
11
4.63307
21
-5.23213
0
LINE
8
BLACK
6
CONTINUOUS
10
4.63307
20
-5.23213
11
6.60717
21
-5.23213
0
LINE
8
BLACK
6
CONTINUOUS
10
6.60717
20
-5.23213
11
6.60717
21
-3.25803
0
LINE
8
BLACK
6
CONTINUOUS
10
6.60717
20
-3.25803
11
4.63307
21
-3.25803
  0
ENDSEC
  0
EOF
