  0
SECTION
  2
HEADER
  9
$ANGBASE
  50
0.0
  9
$ANGDIR
  70
1
  9
$MEASUREMENT
  70
0
  0
ENDSEC
  0
SECTION
  2
TABLES
  0
TABLE
  2
LTYPE
  70
4
  0
LTYPE
  5
40F
  2
CONTINUOUS
  70
0
  3
Solid line
  72
65
  73
0
  40
0.0
  0
LTYPE
  5
410
  2
DASHDOT
 70
0
  3
Dash Dot ____ _ ____ _
 72
65
 73
4
 40
2.0
 49
1.25
 49
-0.25
 49
0.25
 49
-0.25
  0
LTYPE
  5
411
  2
DASHED
 70
0
  3
Dashed __ __ __ __ __
 72
65
 73
2
 40
0.75
 49
0.5
 49
-0.25
  0
LTYPE
  5
43B
  2
DOTTED
 70
0
  3
Dotted .  .  .  .
 72
65
 73
2
 40
0.2
 49
0.0
 49
-0.2
  0
ENDTAB
  0
TABLE
  2
STYLE
  70
4
  0
STYLE
  2
KICAD
  70
0
  40
0
  41
1
  42
1
  50
0
  71
0
  3
isocp.shx
  0
STYLE
  2
KICADB
  70
0
  40
0
  41
1
  42
1
  50
0
  71
0
  3
isocp.shx
  0
STYLE
  2
KICADI
  70
0
  40
0
  41
1
  42
1
  50
15
  71
0
  3
isocp.shx
  0
STYLE
  2
KICADBI
  70
0
  40
0
  41
1
  42
1
  50
15
  71
0
  3
isocp.shx
  0
ENDTAB
  0
TABLE
  2
LAYER
  70
1
  0
LAYER
  2
BLACK
  70
0
  62
7
  6
CONTINUOUS
  0
ENDTAB
  0
ENDSEC
  0
SECTION
  2
ENTITIES
0
LINE
8
BLACK
6
CONTINUOUS
10
0.0333333
20
1.56396
11
0.0344172
21
1.56558
0
LINE
8
BLACK
6
CONTINUOUS
10
0.0344172
20
1.56558
11
0.0360393
21
1.56667
0
LINE
8
BLACK
6
CONTINUOUS
10
0.0360393
20
1.56667
11
0.0379528
21
1.56705
0
LINE
8
BLACK
6
CONTINUOUS
10
0.0379528
20
1.56705
11
1.28764
21
1.56705
0
LINE
8
BLACK
6
CONTINUOUS
10
1.28764
20
1.56705
11
1.28956
21
1.56667
0
LINE
8
BLACK
6
CONTINUOUS
10
1.28956
20
1.56667
11
1.29118
21
1.56558
0
LINE
8
BLACK
6
CONTINUOUS
10
1.29118
20
1.56558
11
1.29226
21
1.56396
0
LINE
8
BLACK
6
CONTINUOUS
10
1.29226
20
1.56396
11
1.29264
21
1.56205
0
LINE
8
BLACK
6
CONTINUOUS
10
1.29264
20
1.56205
11
1.29264
21
1.4563
0
LINE
8
BLACK
6
CONTINUOUS
10
1.29264
20
1.4563
11
1.62736
21
1.4563
0
LINE
8
BLACK
6
CONTINUOUS
10
1.62736
20
1.4563
11
1.62736
21
1.56205
0
LINE
8
BLACK
6
CONTINUOUS
10
1.62736
20
1.56205
11
1.62774
21
1.56396
0
LINE
8
BLACK
6
CONTINUOUS
10
1.62774
20
1.56396
11
1.62882
21
1.56558
0
LINE
8
BLACK
6
CONTINUOUS
10
1.62882
20
1.56558
11
1.63044
21
1.56667
0
LINE
8
BLACK
6
CONTINUOUS
10
1.63044
20
1.56667
11
1.63236
21
1.56705
0
LINE
8
BLACK
6
CONTINUOUS
10
1.63236
20
1.56705
11
1.96205
21
1.56705
0
LINE
8
BLACK
6
CONTINUOUS
10
1.96205
20
1.56705
11
1.96396
21
1.56667
0
LINE
8
BLACK
6
CONTINUOUS
10
1.96396
20
1.56667
11
1.96558
21
1.56558
0
LINE
8
BLACK
6
CONTINUOUS
10
1.96558
20
1.56558
11
1.96667
21
1.56396
0
LINE
8
BLACK
6
CONTINUOUS
10
1.96667
20
1.56396
11
1.96705
21
1.56205
0
LINE
8
BLACK
6
CONTINUOUS
10
1.96705
20
1.56205
11
1.96705
21
0.0379528
0
LINE
8
BLACK
6
CONTINUOUS
10
1.96705
20
0.0379528
11
1.96667
21
0.0360393
0
LINE
8
BLACK
6
CONTINUOUS
10
1.96667
20
0.0360393
11
1.96558
21
0.0344172
0
LINE
8
BLACK
6
CONTINUOUS
10
1.96558
20
0.0344172
11
1.96396
21
0.0333333
0
LINE
8
BLACK
6
CONTINUOUS
10
1.96396
20
0.0333333
11
1.96205
21
0.0329528
0
LINE
8
BLACK
6
CONTINUOUS
10
1.96205
20
0.0329528
11
1.4695
21
0.0329528
0
LINE
8
BLACK
6
CONTINUOUS
10
1.4695
20
0.0329528
11
1.46117
21
0.0292974
0
LINE
8
BLACK
6
CONTINUOUS
10
1.46117
20
0.0292974
11
1.44817
21
0.0252991
0
LINE
8
BLACK
6
CONTINUOUS
10
1.44817
20
0.0252991
11
1.4348
21
0.0228211
0
LINE
8
BLACK
6
CONTINUOUS
10
1.4348
20
0.0228211
11
1.42124
21
0.0218962
0
LINE
8
BLACK
6
CONTINUOUS
10
1.42124
20
0.0218962
11
1.40765
21
0.0225368
0
LINE
8
BLACK
6
CONTINUOUS
10
1.40765
20
0.0225368
11
1.39424
21
0.0247343
0
LINE
8
BLACK
6
CONTINUOUS
10
1.39424
20
0.0247343
11
1.38116
21
0.0284595
0
LINE
8
BLACK
6
CONTINUOUS
10
1.38116
20
0.0284595
11
1.37031
21
0.0329528
0
LINE
8
BLACK
6
CONTINUOUS
10
1.37031
20
0.0329528
11
1.1095
21
0.0329528
0
LINE
8
BLACK
6
CONTINUOUS
10
1.1095
20
0.0329528
11
1.10117
21
0.0292974
0
LINE
8
BLACK
6
CONTINUOUS
10
1.10117
20
0.0292974
11
1.08817
21
0.0252991
0
LINE
8
BLACK
6
CONTINUOUS
10
1.08817
20
0.0252991
11
1.0748
21
0.0228211
0
LINE
8
BLACK
6
CONTINUOUS
10
1.0748
20
0.0228211
11
1.06124
21
0.0218962
0
LINE
8
BLACK
6
CONTINUOUS
10
1.06124
20
0.0218962
11
1.04765
21
0.0225368
0
LINE
8
BLACK
6
CONTINUOUS
10
1.04765
20
0.0225368
11
1.03424
21
0.0247343
0
LINE
8
BLACK
6
CONTINUOUS
10
1.03424
20
0.0247343
11
1.02116
21
0.0284595
0
LINE
8
BLACK
6
CONTINUOUS
10
1.02116
20
0.0284595
11
1.01031
21
0.0329528
0
LINE
8
BLACK
6
CONTINUOUS
10
1.01031
20
0.0329528
11
0.0379528
21
0.0329528
0
LINE
8
BLACK
6
CONTINUOUS
10
0.0379528
20
0.0329528
11
0.0360393
21
0.0333333
0
LINE
8
BLACK
6
CONTINUOUS
10
0.0360393
20
0.0333333
11
0.0344172
21
0.0344172
0
LINE
8
BLACK
6
CONTINUOUS
10
0.0344172
20
0.0344172
11
0.0333333
21
0.0360393
0
LINE
8
BLACK
6
CONTINUOUS
10
0.0333333
20
0.0360393
11
0.0329528
21
0.0379528
0
LINE
8
BLACK
6
CONTINUOUS
10
0.0329528
20
0.0379528
11
0.0329528
21
1.56205
0
LINE
8
BLACK
6
CONTINUOUS
10
0.0329528
20
1.56205
11
0.0333333
21
1.56396
0
LINE
8
BLACK
6
CONTINUOUS
10
0.57851
20
0.058023
11
0.605386
21
0.0468631
0
LINE
8
BLACK
6
CONTINUOUS
10
0.605386
20
0.0468631
11
0.634487
21
0.0468378
0
LINE
8
BLACK
6
CONTINUOUS
10
0.634487
20
0.0468378
11
0.661382
21
0.0579506
0
LINE
8
BLACK
6
CONTINUOUS
10
0.661382
20
0.0579506
11
0.681977
21
0.07851
0
LINE
8
BLACK
6
CONTINUOUS
10
0.681977
20
0.07851
11
0.693137
21
0.105386
0
LINE
8
BLACK
6
CONTINUOUS
10
0.693137
20
0.105386
11
0.693162
21
0.134487
0
LINE
8
BLACK
6
CONTINUOUS
10
0.693162
20
0.134487
11
0.686941
21
0.149543
0
LINE
8
BLACK
6
CONTINUOUS
10
0.686941
20
0.149543
11
0.686562
21
0.151457
0
LINE
8
BLACK
6
CONTINUOUS
10
0.686562
20
0.151457
11
0.686944
21
0.15337
0
LINE
8
BLACK
6
CONTINUOUS
10
0.686944
20
0.15337
11
0.68803
21
0.154991
0
LINE
8
BLACK
6
CONTINUOUS
10
0.68803
20
0.154991
11
0.689653
21
0.156073
0
LINE
8
BLACK
6
CONTINUOUS
10
0.689653
20
0.156073
11
0.691567
21
0.156452
0
LINE
8
BLACK
6
CONTINUOUS
10
0.691567
20
0.156452
11
0.69348
21
0.15607
0
LINE
8
BLACK
6
CONTINUOUS
10
0.69348
20
0.15607
11
0.706172
21
0.150799
0
LINE
8
BLACK
6
CONTINUOUS
10
0.706172
20
0.150799
11
0.733707
21
0.150775
0
LINE
8
BLACK
6
CONTINUOUS
10
0.733707
20
0.150775
11
0.746532
21
0.156075
0
LINE
8
BLACK
6
CONTINUOUS
10
0.746532
20
0.156075
11
0.748446
21
0.156454
0
LINE
8
BLACK
6
CONTINUOUS
10
0.748446
20
0.156454
11
0.750359
21
0.156071
0
LINE
8
BLACK
6
CONTINUOUS
10
0.750359
20
0.156071
11
0.75198
21
0.154986
0
LINE
8
BLACK
6
CONTINUOUS
10
0.75198
20
0.154986
11
0.753063
21
0.153363
0
LINE
8
BLACK
6
CONTINUOUS
10
0.753063
20
0.153363
11
0.753442
21
0.151449
0
LINE
8
BLACK
6
CONTINUOUS
10
0.753442
20
0.151449
11
0.753059
21
0.149536
0
LINE
8
BLACK
6
CONTINUOUS
10
0.753059
20
0.149536
11
0.746863
21
0.134614
0
LINE
8
BLACK
6
CONTINUOUS
10
0.746863
20
0.134614
11
0.746838
21
0.105513
0
LINE
8
BLACK
6
CONTINUOUS
10
0.746838
20
0.105513
11
0.757951
21
0.0786182
0
LINE
8
BLACK
6
CONTINUOUS
10
0.757951
20
0.0786182
11
0.77851
21
0.058023
0
LINE
8
BLACK
6
CONTINUOUS
10
0.77851
20
0.058023
11
0.805386
21
0.0468631
0
LINE
8
BLACK
6
CONTINUOUS
10
0.805386
20
0.0468631
11
0.834487
21
0.0468378
0
LINE
8
BLACK
6
CONTINUOUS
10
0.834487
20
0.0468378
11
0.861382
21
0.0579506
0
LINE
8
BLACK
6
CONTINUOUS
10
0.861382
20
0.0579506
11
0.881977
21
0.07851
0
LINE
8
BLACK
6
CONTINUOUS
10
0.881977
20
0.07851
11
0.893137
21
0.105386
0
LINE
8
BLACK
6
CONTINUOUS
10
0.893137
20
0.105386
11
0.893162
21
0.134487
0
LINE
8
BLACK
6
CONTINUOUS
10
0.893162
20
0.134487
11
0.882049
21
0.161382
0
LINE
8
BLACK
6
CONTINUOUS
10
0.882049
20
0.161382
11
0.879498
21
0.163938
0
LINE
8
BLACK
6
CONTINUOUS
10
0.879498
20
0.163938
11
0.878415
21
0.165561
0
LINE
8
BLACK
6
CONTINUOUS
10
0.878415
20
0.165561
11
0.878036
21
0.167475
0
LINE
8
BLACK
6
CONTINUOUS
10
0.878036
20
0.167475
11
0.878419
21
0.169388
0
LINE
8
BLACK
6
CONTINUOUS
10
0.878419
20
0.169388
11
0.879504
21
0.171009
0
LINE
8
BLACK
6
CONTINUOUS
10
0.879504
20
0.171009
11
0.881127
21
0.172091
0
LINE
8
BLACK
6
CONTINUOUS
10
0.881127
20
0.172091
11
0.882061
21
0.172374
0
LINE
8
BLACK
6
CONTINUOUS
10
0.882061
20
0.172374
11
0.891908
21
0.174333
0
LINE
8
BLACK
6
CONTINUOUS
10
0.891908
20
0.174333
11
0.908361
21
0.185327
0
LINE
8
BLACK
6
CONTINUOUS
10
0.908361
20
0.185327
11
1.00016
21
0.277128
0
LINE
8
BLACK
6
CONTINUOUS
10
1.00016
20
0.277128
11
1.00178
21
0.278212
0
LINE
8
BLACK
6
CONTINUOUS
10
1.00178
20
0.278212
11
1.00272
21
0.278496
0
LINE
8
BLACK
6
CONTINUOUS
10
1.00272
20
0.278496
11
1.00317
21
0.278585
0
LINE
8
BLACK
6
CONTINUOUS
10
1.00317
20
0.278585
11
1.01962
21
0.289579
0
LINE
8
BLACK
6
CONTINUOUS
10
1.01962
20
0.289579
11
1.03467
21
0.304631
0
LINE
8
BLACK
6
CONTINUOUS
10
1.03467
20
0.304631
11
1.04567
21
0.321084
0
LINE
8
BLACK
6
CONTINUOUS
10
1.04567
20
0.321084
11
1.04943
21
0.34
0
LINE
8
BLACK
6
CONTINUOUS
10
1.04943
20
0.34
11
1.04567
21
0.358916
0
LINE
8
BLACK
6
CONTINUOUS
10
1.04567
20
0.358916
11
1.03495
21
0.374952
0
LINE
8
BLACK
6
CONTINUOUS
10
1.03495
20
0.374952
11
1.01892
21
0.385667
0
LINE
8
BLACK
6
CONTINUOUS
10
1.01892
20
0.385667
11
1
21
0.38943
0
LINE
8
BLACK
6
CONTINUOUS
10
1
20
0.38943
11
0.981084
21
0.385667
0
LINE
8
BLACK
6
CONTINUOUS
10
0.981084
20
0.385667
11
0.964631
21
0.374673
0
LINE
8
BLACK
6
CONTINUOUS
10
0.964631
20
0.374673
11
0.961333
21
0.371376
0
LINE
8
BLACK
6
CONTINUOUS
10
0.961333
20
0.371376
11
0.959711
21
0.370292
0
LINE
8
BLACK
6
CONTINUOUS
10
0.959711
20
0.370292
11
0.958773
21
0.370008
0
LINE
8
BLACK
6
CONTINUOUS
10
0.958773
20
0.370008
11
0.958328
21
0.369919
0
LINE
8
BLACK
6
CONTINUOUS
10
0.958328
20
0.369919
11
0.941875
21
0.358925
0
LINE
8
BLACK
6
CONTINUOUS
10
0.941875
20
0.358925
11
0.901687
21
0.318738
0
LINE
8
BLACK
6
CONTINUOUS
10
0.901687
20
0.318738
11
0.900065
21
0.317654
0
LINE
8
BLACK
6
CONTINUOUS
10
0.900065
20
0.317654
11
0.898152
21
0.317273
0
LINE
8
BLACK
6
CONTINUOUS
10
0.898152
20
0.317273
11
0.896238
21
0.317654
0
LINE
8
BLACK
6
CONTINUOUS
10
0.896238
20
0.317654
11
0.894616
21
0.318738
0
LINE
8
BLACK
6
CONTINUOUS
10
0.894616
20
0.318738
11
0.893532
21
0.32036
0
LINE
8
BLACK
6
CONTINUOUS
10
0.893532
20
0.32036
11
0.893152
21
0.322277
0
LINE
8
BLACK
6
CONTINUOUS
10
0.893152
20
0.322277
11
0.893162
21
0.334487
0
LINE
8
BLACK
6
CONTINUOUS
10
0.893162
20
0.334487
11
0.882049
21
0.361382
0
LINE
8
BLACK
6
CONTINUOUS
10
0.882049
20
0.361382
11
0.880831
21
0.362602
0
LINE
8
BLACK
6
CONTINUOUS
10
0.880831
20
0.362602
11
0.879749
21
0.364225
0
LINE
8
BLACK
6
CONTINUOUS
10
0.879749
20
0.364225
11
0.87937
21
0.366134
0
LINE
8
BLACK
6
CONTINUOUS
10
0.87937
20
0.366134
11
0.87937
21
0.43563
0
LINE
8
BLACK
6
CONTINUOUS
10
0.87937
20
0.43563
11
0.879751
21
0.437543
0
LINE
8
BLACK
6
CONTINUOUS
10
0.879751
20
0.437543
11
0.880835
21
0.439165
0
LINE
8
BLACK
6
CONTINUOUS
10
0.880835
20
0.439165
11
0.882457
21
0.440249
0
LINE
8
BLACK
6
CONTINUOUS
10
0.882457
20
0.440249
11
0.88437
21
0.44063
0
LINE
8
BLACK
6
CONTINUOUS
10
0.88437
20
0.44063
11
1.41951
21
0.44063
0
LINE
8
BLACK
6
CONTINUOUS
10
1.41951
20
0.44063
11
1.44268
21
0.44524
0
LINE
8
BLACK
6
CONTINUOUS
10
1.44268
20
0.44524
11
1.46191
21
0.458088
0
LINE
8
BLACK
6
CONTINUOUS
10
1.46191
20
0.458088
11
1.47476
21
0.477318
0
LINE
8
BLACK
6
CONTINUOUS
10
1.47476
20
0.477318
11
1.47927
21
0.5
0
LINE
8
BLACK
6
CONTINUOUS
10
1.47927
20
0.5
11
1.47476
21
0.522682
0
LINE
8
BLACK
6
CONTINUOUS
10
1.47476
20
0.522682
11
1.46191
21
0.541912
0
LINE
8
BLACK
6
CONTINUOUS
10
1.46191
20
0.541912
11
1.44268
21
0.55476
0
LINE
8
BLACK
6
CONTINUOUS
10
1.44268
20
0.55476
11
1.41951
21
0.55937
0
LINE
8
BLACK
6
CONTINUOUS
10
1.41951
20
0.55937
11
0.84437
21
0.55937
0
LINE
8
BLACK
6
CONTINUOUS
10
0.84437
20
0.55937
11
0.842457
21
0.559751
0
LINE
8
BLACK
6
CONTINUOUS
10
0.842457
20
0.559751
11
0.840835
21
0.560835
0
LINE
8
BLACK
6
CONTINUOUS
10
0.840835
20
0.560835
11
0.839751
21
0.562457
0
LINE
8
BLACK
6
CONTINUOUS
10
0.839751
20
0.562457
11
0.83937
21
0.56437
0
LINE
8
BLACK
6
CONTINUOUS
10
0.83937
20
0.56437
11
0.83937
21
1.38951
0
LINE
8
BLACK
6
CONTINUOUS
10
0.83937
20
1.38951
11
0.83476
21
1.41268
0
LINE
8
BLACK
6
CONTINUOUS
10
0.83476
20
1.41268
11
0.831178
21
1.41804
0
LINE
8
BLACK
6
CONTINUOUS
10
0.831178
20
1.41804
11
0.830421
21
1.4199
0
LINE
8
BLACK
6
CONTINUOUS
10
0.830421
20
1.4199
11
0.829013
21
1.42738
0
LINE
8
BLACK
6
CONTINUOUS
10
0.829013
20
1.42738
11
0.824615
21
1.43422
0
LINE
8
BLACK
6
CONTINUOUS
10
0.824615
20
1.43422
11
0.822228
21
1.43585
0
LINE
8
BLACK
6
CONTINUOUS
10
0.822228
20
1.43585
11
0.820863
21
1.43724
0
LINE
8
BLACK
6
CONTINUOUS
10
0.820863
20
1.43724
11
0.820135
21
1.43905
0
LINE
8
BLACK
6
CONTINUOUS
10
0.820135
20
1.43905
11
0.820155
21
1.441
0
LINE
8
BLACK
6
CONTINUOUS
10
0.820155
20
1.441
11
0.82092
21
1.4428
0
LINE
8
BLACK
6
CONTINUOUS
10
0.82092
20
1.4428
11
0.822343
21
1.44418
0
LINE
8
BLACK
6
CONTINUOUS
10
0.822343
20
1.44418
11
0.824216
21
1.44539
0
LINE
8
BLACK
6
CONTINUOUS
10
0.824216
20
1.44539
11
0.828782
21
1.45207
0
LINE
8
BLACK
6
CONTINUOUS
10
0.828782
20
1.45207
11
0.83049
21
1.4605
0
LINE
8
BLACK
6
CONTINUOUS
10
0.83049
20
1.4605
11
0.83049
21
1.51953
0
LINE
8
BLACK
6
CONTINUOUS
10
0.83049
20
1.51953
11
0.829013
21
1.52738
0
LINE
8
BLACK
6
CONTINUOUS
10
0.829013
20
1.52738
11
0.824615
21
1.53422
0
LINE
8
BLACK
6
CONTINUOUS
10
0.824615
20
1.53422
11
0.817932
21
1.53878
0
LINE
8
BLACK
6
CONTINUOUS
10
0.817932
20
1.53878
11
0.809499
21
1.54049
0
LINE
8
BLACK
6
CONTINUOUS
10
0.809499
20
1.54049
11
0.750466
21
1.54049
0
LINE
8
BLACK
6
CONTINUOUS
10
0.750466
20
1.54049
11
0.74262
21
1.53901
0
LINE
8
BLACK
6
CONTINUOUS
10
0.74262
20
1.53901
11
0.735784
21
1.53461
0
LINE
8
BLACK
6
CONTINUOUS
10
0.735784
20
1.53461
11
0.734153
21
1.53223
0
LINE
8
BLACK
6
CONTINUOUS
10
0.734153
20
1.53223
11
0.732759
21
1.53086
0
LINE
8
BLACK
6
CONTINUOUS
10
0.732759
20
1.53086
11
0.730949
21
1.53013
0
LINE
8
BLACK
6
CONTINUOUS
10
0.730949
20
1.53013
11
0.728998
21
1.53015
0
LINE
8
BLACK
6
CONTINUOUS
10
0.728998
20
1.53015
11
0.727204
21
1.53092
0
LINE
8
BLACK
6
CONTINUOUS
10
0.727204
20
1.53092
11
0.72582
21
1.53234
0
LINE
8
BLACK
6
CONTINUOUS
10
0.72582
20
1.53234
11
0.724615
21
1.53422
0
LINE
8
BLACK
6
CONTINUOUS
10
0.724615
20
1.53422
11
0.717932
21
1.53878
0
LINE
8
BLACK
6
CONTINUOUS
10
0.717932
20
1.53878
11
0.709499
21
1.54049
0
LINE
8
BLACK
6
CONTINUOUS
10
0.709499
20
1.54049
11
0.650466
21
1.54049
0
LINE
8
BLACK
6
CONTINUOUS
10
0.650466
20
1.54049
11
0.64262
21
1.53901
0
LINE
8
BLACK
6
CONTINUOUS
10
0.64262
20
1.53901
11
0.635784
21
1.53461
0
LINE
8
BLACK
6
CONTINUOUS
10
0.635784
20
1.53461
11
0.631218
21
1.52793
0
LINE
8
BLACK
6
CONTINUOUS
10
0.631218
20
1.52793
11
0.62951
21
1.5195
0
LINE
8
BLACK
6
CONTINUOUS
10
0.62951
20
1.5195
11
0.62951
21
1.46047
0
LINE
8
BLACK
6
CONTINUOUS
10
0.62951
20
1.46047
11
0.630987
21
1.45262
0
LINE
8
BLACK
6
CONTINUOUS
10
0.630987
20
1.45262
11
0.635385
21
1.44578
0
LINE
8
BLACK
6
CONTINUOUS
10
0.635385
20
1.44578
11
0.637772
21
1.44415
0
LINE
8
BLACK
6
CONTINUOUS
10
0.637772
20
1.44415
11
0.639137
21
1.44276
0
LINE
8
BLACK
6
CONTINUOUS
10
0.639137
20
1.44276
11
0.639865
21
1.44095
0
LINE
8
BLACK
6
CONTINUOUS
10
0.639865
20
1.44095
11
0.639845
21
1.439
0
LINE
8
BLACK
6
CONTINUOUS
10
0.639845
20
1.439
11
0.63908
21
1.4372
0
LINE
8
BLACK
6
CONTINUOUS
10
0.63908
20
1.4372
11
0.637657
21
1.43582
0
LINE
8
BLACK
6
CONTINUOUS
10
0.637657
20
1.43582
11
0.635784
21
1.43461
0
LINE
8
BLACK
6
CONTINUOUS
10
0.635784
20
1.43461
11
0.631218
21
1.42793
0
LINE
8
BLACK
6
CONTINUOUS
10
0.631218
20
1.42793
11
0.629582
21
1.41985
0
LINE
8
BLACK
6
CONTINUOUS
10
0.629582
20
1.41985
11
0.628839
21
1.41807
0
LINE
8
BLACK
6
CONTINUOUS
10
0.628839
20
1.41807
11
0.62524
21
1.41268
0
LINE
8
BLACK
6
CONTINUOUS
10
0.62524
20
1.41268
11
0.62063
21
1.38951
0
LINE
8
BLACK
6
CONTINUOUS
10
0.62063
20
1.38951
11
0.62063
21
0.452433
0
LINE
8
BLACK
6
CONTINUOUS
10
0.62063
20
0.452433
11
0.62524
21
0.429258
0
LINE
8
BLACK
6
CONTINUOUS
10
0.62524
20
0.429258
11
0.638367
21
0.409612
0
LINE
8
BLACK
6
CONTINUOUS
10
0.638367
20
0.409612
11
0.651391
21
0.396588
0
LINE
8
BLACK
6
CONTINUOUS
10
0.651391
20
0.396588
11
0.652474
21
0.394966
0
LINE
8
BLACK
6
CONTINUOUS
10
0.652474
20
0.394966
11
0.652855
21
0.393053
0
LINE
8
BLACK
6
CONTINUOUS
10
0.652855
20
0.393053
11
0.652474
21
0.391139
0
LINE
8
BLACK
6
CONTINUOUS
10
0.652474
20
0.391139
11
0.651391
21
0.389517
0
LINE
8
BLACK
6
CONTINUOUS
10
0.651391
20
0.389517
11
0.649768
21
0.388433
0
LINE
8
BLACK
6
CONTINUOUS
10
0.649768
20
0.388433
11
0.647855
21
0.388053
0
LINE
8
BLACK
6
CONTINUOUS
10
0.647855
20
0.388053
11
0.645938
21
0.388435
0
LINE
8
BLACK
6
CONTINUOUS
10
0.645938
20
0.388435
11
0.634614
21
0.393137
0
LINE
8
BLACK
6
CONTINUOUS
10
0.634614
20
0.393137
11
0.605513
21
0.393162
0
LINE
8
BLACK
6
CONTINUOUS
10
0.605513
20
0.393162
11
0.578618
21
0.382049
0
LINE
8
BLACK
6
CONTINUOUS
10
0.578618
20
0.382049
11
0.558023
21
0.36149
0
LINE
8
BLACK
6
CONTINUOUS
10
0.558023
20
0.36149
11
0.546863
21
0.334614
0
LINE
8
BLACK
6
CONTINUOUS
10
0.546863
20
0.334614
11
0.546838
21
0.305513
0
LINE
8
BLACK
6
CONTINUOUS
10
0.546838
20
0.305513
11
0.557951
21
0.278618
0
LINE
8
BLACK
6
CONTINUOUS
10
0.557951
20
0.278618
11
0.57851
21
0.258023
0
LINE
8
BLACK
6
CONTINUOUS
10
0.57851
20
0.258023
11
0.605386
21
0.246863
0
LINE
8
BLACK
6
CONTINUOUS
10
0.605386
20
0.246863
11
0.634487
21
0.246838
0
LINE
8
BLACK
6
CONTINUOUS
10
0.634487
20
0.246838
11
0.649543
21
0.253059
0
LINE
8
BLACK
6
CONTINUOUS
10
0.649543
20
0.253059
11
0.651457
21
0.253438
0
LINE
8
BLACK
6
CONTINUOUS
10
0.651457
20
0.253438
11
0.65337
21
0.253056
0
LINE
8
BLACK
6
CONTINUOUS
10
0.65337
20
0.253056
11
0.654991
21
0.25197
0
LINE
8
BLACK
6
CONTINUOUS
10
0.654991
20
0.25197
11
0.656073
21
0.250347
0
LINE
8
BLACK
6
CONTINUOUS
10
0.656073
20
0.250347
11
0.656452
21
0.248433
0
LINE
8
BLACK
6
CONTINUOUS
10
0.656452
20
0.248433
11
0.65607
21
0.24652
0
LINE
8
BLACK
6
CONTINUOUS
10
0.65607
20
0.24652
11
0.650799
21
0.233828
0
LINE
8
BLACK
6
CONTINUOUS
10
0.650799
20
0.233828
11
0.650775
21
0.206293
0
LINE
8
BLACK
6
CONTINUOUS
10
0.650775
20
0.206293
11
0.656075
21
0.193468
0
LINE
8
BLACK
6
CONTINUOUS
10
0.656075
20
0.193468
11
0.656454
21
0.191554
0
LINE
8
BLACK
6
CONTINUOUS
10
0.656454
20
0.191554
11
0.656071
21
0.189641
0
LINE
8
BLACK
6
CONTINUOUS
10
0.656071
20
0.189641
11
0.654986
21
0.18802
0
LINE
8
BLACK
6
CONTINUOUS
10
0.654986
20
0.18802
11
0.653363
21
0.186937
0
LINE
8
BLACK
6
CONTINUOUS
10
0.653363
20
0.186937
11
0.651449
21
0.186558
0
LINE
8
BLACK
6
CONTINUOUS
10
0.651449
20
0.186558
11
0.649536
21
0.186941
0
LINE
8
BLACK
6
CONTINUOUS
10
0.649536
20
0.186941
11
0.634614
21
0.193137
0
LINE
8
BLACK
6
CONTINUOUS
10
0.634614
20
0.193137
11
0.605513
21
0.193162
0
LINE
8
BLACK
6
CONTINUOUS
10
0.605513
20
0.193162
11
0.578618
21
0.182049
0
LINE
8
BLACK
6
CONTINUOUS
10
0.578618
20
0.182049
11
0.558023
21
0.16149
0
LINE
8
BLACK
6
CONTINUOUS
10
0.558023
20
0.16149
11
0.546863
21
0.134614
0
LINE
8
BLACK
6
CONTINUOUS
10
0.546863
20
0.134614
11
0.546838
21
0.105513
0
LINE
8
BLACK
6
CONTINUOUS
10
0.546838
20
0.105513
11
0.557951
21
0.0786182
0
LINE
8
BLACK
6
CONTINUOUS
10
0.557951
20
0.0786182
11
0.57851
21
0.058023
0
LINE
8
BLACK
6
CONTINUOUS
10
0.829229
20
0.172342
11
0.838178
21
0.169944
0
LINE
8
BLACK
6
CONTINUOUS
10
0.838178
20
0.169944
11
0.846575
21
0.166029
0
LINE
8
BLACK
6
CONTINUOUS
10
0.846575
20
0.166029
11
0.854164
21
0.160715
0
LINE
8
BLACK
6
CONTINUOUS
10
0.854164
20
0.160715
11
0.860715
21
0.154164
0
LINE
8
BLACK
6
CONTINUOUS
10
0.860715
20
0.154164
11
0.866029
21
0.146575
0
LINE
8
BLACK
6
CONTINUOUS
10
0.866029
20
0.146575
11
0.869944
21
0.138178
0
LINE
8
BLACK
6
CONTINUOUS
10
0.869944
20
0.138178
11
0.872342
21
0.129229
0
LINE
8
BLACK
6
CONTINUOUS
10
0.872342
20
0.129229
11
0.87315
21
0.12
0
LINE
8
BLACK
6
CONTINUOUS
10
0.87315
20
0.12
11
0.872342
21
0.110771
0
LINE
8
BLACK
6
CONTINUOUS
10
0.872342
20
0.110771
11
0.869944
21
0.101822
0
LINE
8
BLACK
6
CONTINUOUS
10
0.869944
20
0.101822
11
0.866029
21
0.0934252
0
LINE
8
BLACK
6
CONTINUOUS
10
0.866029
20
0.0934252
11
0.860715
21
0.0858361
0
LINE
8
BLACK
6
CONTINUOUS
10
0.860715
20
0.0858361
11
0.854164
21
0.079285
0
LINE
8
BLACK
6
CONTINUOUS
10
0.854164
20
0.079285
11
0.846575
21
0.0739711
0
LINE
8
BLACK
6
CONTINUOUS
10
0.846575
20
0.0739711
11
0.838178
21
0.0700557
0
LINE
8
BLACK
6
CONTINUOUS
10
0.838178
20
0.0700557
11
0.829229
21
0.0676579
0
LINE
8
BLACK
6
CONTINUOUS
10
0.829229
20
0.0676579
11
0.82
21
0.0668504
0
LINE
8
BLACK
6
CONTINUOUS
10
0.82
20
0.0668504
11
0.810771
21
0.0676579
0
LINE
8
BLACK
6
CONTINUOUS
10
0.810771
20
0.0676579
11
0.801822
21
0.0700557
0
LINE
8
BLACK
6
CONTINUOUS
10
0.801822
20
0.0700557
11
0.793425
21
0.0739711
0
LINE
8
BLACK
6
CONTINUOUS
10
0.793425
20
0.0739711
11
0.785836
21
0.079285
0
LINE
8
BLACK
6
CONTINUOUS
10
0.785836
20
0.079285
11
0.779285
21
0.0858361
0
LINE
8
BLACK
6
CONTINUOUS
10
0.779285
20
0.0858361
11
0.773971
21
0.0934252
0
LINE
8
BLACK
6
CONTINUOUS
10
0.773971
20
0.0934252
11
0.770056
21
0.101822
0
LINE
8
BLACK
6
CONTINUOUS
10
0.770056
20
0.101822
11
0.767658
21
0.110771
0
LINE
8
BLACK
6
CONTINUOUS
10
0.767658
20
0.110771
11
0.76685
21
0.12
0
LINE
8
BLACK
6
CONTINUOUS
10
0.76685
20
0.12
11
0.767658
21
0.129229
0
LINE
8
BLACK
6
CONTINUOUS
10
0.767658
20
0.129229
11
0.770056
21
0.138178
0
LINE
8
BLACK
6
CONTINUOUS
10
0.770056
20
0.138178
11
0.773971
21
0.146575
0
LINE
8
BLACK
6
CONTINUOUS
10
0.773971
20
0.146575
11
0.779285
21
0.154164
0
LINE
8
BLACK
6
CONTINUOUS
10
0.779285
20
0.154164
11
0.785836
21
0.160715
0
LINE
8
BLACK
6
CONTINUOUS
10
0.785836
20
0.160715
11
0.793425
21
0.166029
0
LINE
8
BLACK
6
CONTINUOUS
10
0.793425
20
0.166029
11
0.801822
21
0.169944
0
LINE
8
BLACK
6
CONTINUOUS
10
0.801822
20
0.169944
11
0.810771
21
0.172342
0
LINE
8
BLACK
6
CONTINUOUS
10
0.810771
20
0.172342
11
0.82
21
0.17315
0
LINE
8
BLACK
6
CONTINUOUS
10
0.82
20
0.17315
11
0.829229
21
0.172342
0
LINE
8
BLACK
6
CONTINUOUS
10
0.629229
20
0.172342
11
0.638178
21
0.169944
0
LINE
8
BLACK
6
CONTINUOUS
10
0.638178
20
0.169944
11
0.646575
21
0.166029
0
LINE
8
BLACK
6
CONTINUOUS
10
0.646575
20
0.166029
11
0.654164
21
0.160715
0
LINE
8
BLACK
6
CONTINUOUS
10
0.654164
20
0.160715
11
0.660715
21
0.154164
0
LINE
8
BLACK
6
CONTINUOUS
10
0.660715
20
0.154164
11
0.666029
21
0.146575
0
LINE
8
BLACK
6
CONTINUOUS
10
0.666029
20
0.146575
11
0.669944
21
0.138178
0
LINE
8
BLACK
6
CONTINUOUS
10
0.669944
20
0.138178
11
0.672342
21
0.129229
0
LINE
8
BLACK
6
CONTINUOUS
10
0.672342
20
0.129229
11
0.67315
21
0.12
0
LINE
8
BLACK
6
CONTINUOUS
10
0.67315
20
0.12
11
0.672342
21
0.110771
0
LINE
8
BLACK
6
CONTINUOUS
10
0.672342
20
0.110771
11
0.669944
21
0.101822
0
LINE
8
BLACK
6
CONTINUOUS
10
0.669944
20
0.101822
11
0.666029
21
0.0934252
0
LINE
8
BLACK
6
CONTINUOUS
10
0.666029
20
0.0934252
11
0.660715
21
0.0858361
0
LINE
8
BLACK
6
CONTINUOUS
10
0.660715
20
0.0858361
11
0.654164
21
0.079285
0
LINE
8
BLACK
6
CONTINUOUS
10
0.654164
20
0.079285
11
0.646575
21
0.0739711
0
LINE
8
BLACK
6
CONTINUOUS
10
0.646575
20
0.0739711
11
0.638178
21
0.0700557
0
LINE
8
BLACK
6
CONTINUOUS
10
0.638178
20
0.0700557
11
0.629229
21
0.0676579
0
LINE
8
BLACK
6
CONTINUOUS
10
0.629229
20
0.0676579
11
0.62
21
0.0668504
0
LINE
8
BLACK
6
CONTINUOUS
10
0.62
20
0.0668504
11
0.610771
21
0.0676579
0
LINE
8
BLACK
6
CONTINUOUS
10
0.610771
20
0.0676579
11
0.601822
21
0.0700557
0
LINE
8
BLACK
6
CONTINUOUS
10
0.601822
20
0.0700557
11
0.593425
21
0.0739711
0
LINE
8
BLACK
6
CONTINUOUS
10
0.593425
20
0.0739711
11
0.585836
21
0.079285
0
LINE
8
BLACK
6
CONTINUOUS
10
0.585836
20
0.079285
11
0.579285
21
0.0858361
0
LINE
8
BLACK
6
CONTINUOUS
10
0.579285
20
0.0858361
11
0.573971
21
0.0934252
0
LINE
8
BLACK
6
CONTINUOUS
10
0.573971
20
0.0934252
11
0.570056
21
0.101822
0
LINE
8
BLACK
6
CONTINUOUS
10
0.570056
20
0.101822
11
0.567658
21
0.110771
0
LINE
8
BLACK
6
CONTINUOUS
10
0.567658
20
0.110771
11
0.56685
21
0.12
0
LINE
8
BLACK
6
CONTINUOUS
10
0.56685
20
0.12
11
0.567658
21
0.129229
0
LINE
8
BLACK
6
CONTINUOUS
10
0.567658
20
0.129229
11
0.570056
21
0.138178
0
LINE
8
BLACK
6
CONTINUOUS
10
0.570056
20
0.138178
11
0.573971
21
0.146575
0
LINE
8
BLACK
6
CONTINUOUS
10
0.573971
20
0.146575
11
0.579285
21
0.154164
0
LINE
8
BLACK
6
CONTINUOUS
10
0.579285
20
0.154164
11
0.585836
21
0.160715
0
LINE
8
BLACK
6
CONTINUOUS
10
0.585836
20
0.160715
11
0.593425
21
0.166029
0
LINE
8
BLACK
6
CONTINUOUS
10
0.593425
20
0.166029
11
0.601822
21
0.169944
0
LINE
8
BLACK
6
CONTINUOUS
10
0.601822
20
0.169944
11
0.610771
21
0.172342
0
LINE
8
BLACK
6
CONTINUOUS
10
0.610771
20
0.172342
11
0.62
21
0.17315
0
LINE
8
BLACK
6
CONTINUOUS
10
0.62
20
0.17315
11
0.629229
21
0.172342
0
LINE
8
BLACK
6
CONTINUOUS
10
0.747839
20
0.43978
11
0.750596
21
0.436717
0
LINE
8
BLACK
6
CONTINUOUS
10
0.750596
20
0.436717
11
0.751388
21
0.435507
0
LINE
8
BLACK
6
CONTINUOUS
10
0.751388
20
0.435507
11
0.752329
21
0.43441
0
LINE
8
BLACK
6
CONTINUOUS
10
0.752329
20
0.43441
11
0.753561
21
0.432186
0
LINE
8
BLACK
6
CONTINUOUS
10
0.753561
20
0.432186
11
0.754953
21
0.430059
0
LINE
8
BLACK
6
CONTINUOUS
10
0.754953
20
0.430059
11
0.755486
21
0.428714
0
LINE
8
BLACK
6
CONTINUOUS
10
0.755486
20
0.428714
11
0.756186
21
0.42745
0
LINE
8
BLACK
6
CONTINUOUS
10
0.756186
20
0.42745
11
0.756947
21
0.425024
0
LINE
8
BLACK
6
CONTINUOUS
10
0.756947
20
0.425024
11
0.757883
21
0.42266
0
LINE
8
BLACK
6
CONTINUOUS
10
0.757883
20
0.42266
11
0.758134
21
0.421237
0
LINE
8
BLACK
6
CONTINUOUS
10
0.758134
20
0.421237
11
0.758566
21
0.419857
0
LINE
8
BLACK
6
CONTINUOUS
10
0.758566
20
0.419857
11
0.758823
21
0.417328
0
LINE
8
BLACK
6
CONTINUOUS
10
0.758823
20
0.417328
11
0.759264
21
0.414824
0
LINE
8
BLACK
6
CONTINUOUS
10
0.759264
20
0.414824
11
0.759224
21
0.413379
0
LINE
8
BLACK
6
CONTINUOUS
10
0.759224
20
0.413379
11
0.75937
21
0.411941
0
LINE
8
BLACK
6
CONTINUOUS
10
0.75937
20
0.411941
11
0.75937
21
0.4
0
LINE
8
BLACK
6
CONTINUOUS
10
0.75937
20
0.4
11
0.759154
21
0.395885
0
LINE
8
BLACK
6
CONTINUOUS
10
0.759154
20
0.395885
11
0.757527
21
0.388096
0
LINE
8
BLACK
6
CONTINUOUS
10
0.757527
20
0.388096
11
0.754367
21
0.380793
0
LINE
8
BLACK
6
CONTINUOUS
10
0.754367
20
0.380793
11
0.749803
21
0.374275
0
LINE
8
BLACK
6
CONTINUOUS
10
0.749803
20
0.374275
11
0.749528
21
0.374014
0
LINE
8
BLACK
6
CONTINUOUS
10
0.749528
20
0.374014
11
0.749528
21
0.259173
0
LINE
8
BLACK
6
CONTINUOUS
10
0.749528
20
0.259173
11
0.751633
21
0.257699
0
LINE
8
BLACK
6
CONTINUOUS
10
0.751633
20
0.257699
11
0.757699
21
0.251633
0
LINE
8
BLACK
6
CONTINUOUS
10
0.757699
20
0.251633
11
0.759173
21
0.249528
0
LINE
8
BLACK
6
CONTINUOUS
10
0.759173
20
0.249528
11
0.860761
21
0.249528
0
LINE
8
BLACK
6
CONTINUOUS
10
0.860761
20
0.249528
11
0.956365
21
0.345131
0
LINE
8
BLACK
6
CONTINUOUS
10
0.956365
20
0.345131
11
0.957949
21
0.34653
0
LINE
8
BLACK
6
CONTINUOUS
10
0.957949
20
0.34653
11
0.958304
21
0.346905
0
LINE
8
BLACK
6
CONTINUOUS
10
0.958304
20
0.346905
11
0.958573
21
0.347081
0
LINE
8
BLACK
6
CONTINUOUS
10
0.958573
20
0.347081
11
0.959106
21
0.347552
0
LINE
8
BLACK
6
CONTINUOUS
10
0.959106
20
0.347552
11
0.961591
21
0.34906
0
LINE
8
BLACK
6
CONTINUOUS
10
0.961591
20
0.34906
11
0.964023
21
0.350654
0
LINE
8
BLACK
6
CONTINUOUS
10
0.964023
20
0.350654
11
0.96451
21
0.350831
0
LINE
8
BLACK
6
CONTINUOUS
10
0.96451
20
0.350831
11
0.964952
21
0.3511
0
LINE
8
BLACK
6
CONTINUOUS
10
0.964952
20
0.3511
11
0.967718
21
0.351996
0
LINE
8
BLACK
6
CONTINUOUS
10
0.967718
20
0.351996
11
0.970451
21
0.352988
0
LINE
8
BLACK
6
CONTINUOUS
10
0.970451
20
0.352988
11
0.970966
21
0.353048
0
LINE
8
BLACK
6
CONTINUOUS
10
0.970966
20
0.353048
11
0.971444
21
0.353203
0
LINE
8
BLACK
6
CONTINUOUS
10
0.971444
20
0.353203
11
0.979121
21
0.360879
0
LINE
8
BLACK
6
CONTINUOUS
10
0.979121
20
0.360879
11
0.981862
21
0.3633
0
LINE
8
BLACK
6
CONTINUOUS
10
0.981862
20
0.3633
11
0.987708
21
0.366848
0
LINE
8
BLACK
6
CONTINUOUS
10
0.987708
20
0.366848
11
0.994214
21
0.368955
0
LINE
8
BLACK
6
CONTINUOUS
10
0.994214
20
0.368955
11
1.00103
21
0.36951
0
LINE
8
BLACK
6
CONTINUOUS
10
1.00103
20
0.36951
11
1.00779
21
0.368481
0
LINE
8
BLACK
6
CONTINUOUS
10
1.00779
20
0.368481
11
1.01413
21
0.365925
0
LINE
8
BLACK
6
CONTINUOUS
10
1.01413
20
0.365925
11
1.01972
21
0.361978
0
LINE
8
BLACK
6
CONTINUOUS
10
1.01972
20
0.361978
11
1.02425
21
0.356852
0
LINE
8
BLACK
6
CONTINUOUS
10
1.02425
20
0.356852
11
1.02747
21
0.350822
0
LINE
8
BLACK
6
CONTINUOUS
10
1.02747
20
0.350822
11
1.02923
21
0.344211
0
LINE
8
BLACK
6
CONTINUOUS
10
1.02923
20
0.344211
11
1.02941
21
0.337375
0
LINE
8
BLACK
6
CONTINUOUS
10
1.02941
20
0.337375
11
1.02802
21
0.33068
0
LINE
8
BLACK
6
CONTINUOUS
10
1.02802
20
0.33068
11
1.02512
21
0.324484
0
LINE
8
BLACK
6
CONTINUOUS
10
1.02512
20
0.324484
11
1.02088
21
0.319121
0
LINE
8
BLACK
6
CONTINUOUS
10
1.02088
20
0.319121
11
1.00513
21
0.303373
0
LINE
8
BLACK
6
CONTINUOUS
10
1.00513
20
0.303373
11
1.00355
21
0.301974
0
LINE
8
BLACK
6
CONTINUOUS
10
1.00355
20
0.301974
11
1.00319
21
0.301599
0
LINE
8
BLACK
6
CONTINUOUS
10
1.00319
20
0.301599
11
1.00292
21
0.301423
0
LINE
8
BLACK
6
CONTINUOUS
10
1.00292
20
0.301423
11
1.00239
21
0.300952
0
LINE
8
BLACK
6
CONTINUOUS
10
1.00239
20
0.300952
11
0.999905
21
0.299444
0
LINE
8
BLACK
6
CONTINUOUS
10
0.999905
20
0.299444
11
0.997473
21
0.29785
0
LINE
8
BLACK
6
CONTINUOUS
10
0.997473
20
0.29785
11
0.996986
21
0.297673
0
LINE
8
BLACK
6
CONTINUOUS
10
0.996986
20
0.297673
11
0.996544
21
0.297404
0
LINE
8
BLACK
6
CONTINUOUS
10
0.996544
20
0.297404
11
0.993778
21
0.296508
0
LINE
8
BLACK
6
CONTINUOUS
10
0.993778
20
0.296508
11
0.991045
21
0.295516
0
LINE
8
BLACK
6
CONTINUOUS
10
0.991045
20
0.295516
11
0.990531
21
0.295456
0
LINE
8
BLACK
6
CONTINUOUS
10
0.990531
20
0.295456
11
0.990052
21
0.295301
0
LINE
8
BLACK
6
CONTINUOUS
10
0.990052
20
0.295301
11
0.893871
21
0.199121
0
LINE
8
BLACK
6
CONTINUOUS
10
0.893871
20
0.199121
11
0.892287
21
0.197722
0
LINE
8
BLACK
6
CONTINUOUS
10
0.892287
20
0.197722
11
0.891933
21
0.197347
0
LINE
8
BLACK
6
CONTINUOUS
10
0.891933
20
0.197347
11
0.891664
21
0.197171
0
LINE
8
BLACK
6
CONTINUOUS
10
0.891664
20
0.197171
11
0.89113
21
0.1967
0
LINE
8
BLACK
6
CONTINUOUS
10
0.89113
20
0.1967
11
0.888645
21
0.195192
0
LINE
8
BLACK
6
CONTINUOUS
10
0.888645
20
0.195192
11
0.886213
21
0.193598
0
LINE
8
BLACK
6
CONTINUOUS
10
0.886213
20
0.193598
11
0.885726
21
0.193421
0
LINE
8
BLACK
6
CONTINUOUS
10
0.885726
20
0.193421
11
0.885284
21
0.193152
0
LINE
8
BLACK
6
CONTINUOUS
10
0.885284
20
0.193152
11
0.882518
21
0.192256
0
LINE
8
BLACK
6
CONTINUOUS
10
0.882518
20
0.192256
11
0.879785
21
0.191264
0
LINE
8
BLACK
6
CONTINUOUS
10
0.879785
20
0.191264
11
0.879271
21
0.191204
0
LINE
8
BLACK
6
CONTINUOUS
10
0.879271
20
0.191204
11
0.878778
21
0.191045
0
LINE
8
BLACK
6
CONTINUOUS
10
0.878778
20
0.191045
11
0.87588
21
0.190809
0
LINE
8
BLACK
6
CONTINUOUS
10
0.87588
20
0.190809
11
0.872992
21
0.190472
0
LINE
8
BLACK
6
CONTINUOUS
10
0.872992
20
0.190472
11
0.759173
21
0.190472
0
LINE
8
BLACK
6
CONTINUOUS
10
0.759173
20
0.190472
11
0.757699
21
0.188367
0
LINE
8
BLACK
6
CONTINUOUS
10
0.757699
20
0.188367
11
0.751633
21
0.182301
0
LINE
8
BLACK
6
CONTINUOUS
10
0.751633
20
0.182301
11
0.744606
21
0.177381
0
LINE
8
BLACK
6
CONTINUOUS
10
0.744606
20
0.177381
11
0.736832
21
0.173755
0
LINE
8
BLACK
6
CONTINUOUS
10
0.736832
20
0.173755
11
0.728546
21
0.171535
0
LINE
8
BLACK
6
CONTINUOUS
10
0.728546
20
0.171535
11
0.72
21
0.170787
0
LINE
8
BLACK
6
CONTINUOUS
10
0.72
20
0.170787
11
0.711454
21
0.171535
0
LINE
8
BLACK
6
CONTINUOUS
10
0.711454
20
0.171535
11
0.703168
21
0.173755
0
LINE
8
BLACK
6
CONTINUOUS
10
0.703168
20
0.173755
11
0.695394
21
0.177381
0
LINE
8
BLACK
6
CONTINUOUS
10
0.695394
20
0.177381
11
0.688367
21
0.182301
0
LINE
8
BLACK
6
CONTINUOUS
10
0.688367
20
0.182301
11
0.682301
21
0.188367
0
LINE
8
BLACK
6
CONTINUOUS
10
0.682301
20
0.188367
11
0.677381
21
0.195394
0
LINE
8
BLACK
6
CONTINUOUS
10
0.677381
20
0.195394
11
0.673755
21
0.203168
0
LINE
8
BLACK
6
CONTINUOUS
10
0.673755
20
0.203168
11
0.671535
21
0.211454
0
LINE
8
BLACK
6
CONTINUOUS
10
0.671535
20
0.211454
11
0.670787
21
0.22
0
LINE
8
BLACK
6
CONTINUOUS
10
0.670787
20
0.22
11
0.671535
21
0.228546
0
LINE
8
BLACK
6
CONTINUOUS
10
0.671535
20
0.228546
11
0.673755
21
0.236832
0
LINE
8
BLACK
6
CONTINUOUS
10
0.673755
20
0.236832
11
0.677381
21
0.244606
0
LINE
8
BLACK
6
CONTINUOUS
10
0.677381
20
0.244606
11
0.682301
21
0.251633
0
LINE
8
BLACK
6
CONTINUOUS
10
0.682301
20
0.251633
11
0.688367
21
0.257699
0
LINE
8
BLACK
6
CONTINUOUS
10
0.688367
20
0.257699
11
0.690472
21
0.259173
0
LINE
8
BLACK
6
CONTINUOUS
10
0.690472
20
0.259173
11
0.690472
21
0.374263
0
LINE
8
BLACK
6
CONTINUOUS
10
0.690472
20
0.374263
11
0.687671
21
0.377531
0
LINE
8
BLACK
6
CONTINUOUS
10
0.687671
20
0.377531
11
0.683814
21
0.38449
0
LINE
8
BLACK
6
CONTINUOUS
10
0.683814
20
0.38449
11
0.681434
21
0.392084
0
LINE
8
BLACK
6
CONTINUOUS
10
0.681434
20
0.392084
11
0.681124
21
0.395139
0
LINE
8
BLACK
6
CONTINUOUS
10
0.681124
20
0.395139
11
0.652161
21
0.424102
0
LINE
8
BLACK
6
CONTINUOUS
10
0.652161
20
0.424102
11
0.649404
21
0.427164
0
LINE
8
BLACK
6
CONTINUOUS
10
0.649404
20
0.427164
11
0.648612
21
0.428374
0
LINE
8
BLACK
6
CONTINUOUS
10
0.648612
20
0.428374
11
0.647671
21
0.429472
0
LINE
8
BLACK
6
CONTINUOUS
10
0.647671
20
0.429472
11
0.646439
21
0.431695
0
LINE
8
BLACK
6
CONTINUOUS
10
0.646439
20
0.431695
11
0.645047
21
0.433823
0
LINE
8
BLACK
6
CONTINUOUS
10
0.645047
20
0.433823
11
0.644514
21
0.435167
0
LINE
8
BLACK
6
CONTINUOUS
10
0.644514
20
0.435167
11
0.643814
21
0.436431
0
LINE
8
BLACK
6
CONTINUOUS
10
0.643814
20
0.436431
11
0.643053
21
0.438857
0
LINE
8
BLACK
6
CONTINUOUS
10
0.643053
20
0.438857
11
0.642117
21
0.441221
0
LINE
8
BLACK
6
CONTINUOUS
10
0.642117
20
0.441221
11
0.641866
21
0.442645
0
LINE
8
BLACK
6
CONTINUOUS
10
0.641866
20
0.442645
11
0.641434
21
0.444024
0
LINE
8
BLACK
6
CONTINUOUS
10
0.641434
20
0.444024
11
0.641177
21
0.446553
0
LINE
8
BLACK
6
CONTINUOUS
10
0.641177
20
0.446553
11
0.640736
21
0.449057
0
LINE
8
BLACK
6
CONTINUOUS
10
0.640736
20
0.449057
11
0.640776
21
0.450503
0
LINE
8
BLACK
6
CONTINUOUS
10
0.640776
20
0.450503
11
0.64063
21
0.451941
0
LINE
8
BLACK
6
CONTINUOUS
10
0.64063
20
0.451941
11
0.64063
21
1.39
0
LINE
8
BLACK
6
CONTINUOUS
10
0.64063
20
1.39
11
0.640846
21
1.39412
0
LINE
8
BLACK
6
CONTINUOUS
10
0.640846
20
1.39412
11
0.642473
21
1.4019
0
LINE
8
BLACK
6
CONTINUOUS
10
0.642473
20
1.4019
11
0.645633
21
1.40921
0
LINE
8
BLACK
6
CONTINUOUS
10
0.645633
20
1.40921
11
0.65
21
1.41544
0
LINE
8
BLACK
6
CONTINUOUS
10
0.65
20
1.41544
11
0.65
21
1.42
0
LINE
8
BLACK
6
CONTINUOUS
10
0.65
20
1.42
11
0.654717
21
1.42
0
LINE
8
BLACK
6
CONTINUOUS
10
0.654717
20
1.42
11
0.655979
21
1.42119
0
LINE
8
BLACK
6
CONTINUOUS
10
0.655979
20
1.42119
11
0.662741
21
1.42539
0
LINE
8
BLACK
6
CONTINUOUS
10
0.662741
20
1.42539
11
0.670209
21
1.42813
0
LINE
8
BLACK
6
CONTINUOUS
10
0.670209
20
1.42813
11
0.678077
21
1.42932
0
LINE
8
BLACK
6
CONTINUOUS
10
0.678077
20
1.42932
11
0.686023
21
1.42891
0
LINE
8
BLACK
6
CONTINUOUS
10
0.686023
20
1.42891
11
0.693723
21
1.4269
0
LINE
8
BLACK
6
CONTINUOUS
10
0.693723
20
1.4269
11
0.700863
21
1.42339
0
LINE
8
BLACK
6
CONTINUOUS
10
0.700863
20
1.42339
11
0.70523
21
1.42
0
LINE
8
BLACK
6
CONTINUOUS
10
0.70523
20
1.42
11
0.71
21
1.42
0
LINE
8
BLACK
6
CONTINUOUS
10
0.71
20
1.42
11
0.71
21
1.41519
0
LINE
8
BLACK
6
CONTINUOUS
10
0.71
20
1.41519
11
0.712329
21
1.41247
0
LINE
8
BLACK
6
CONTINUOUS
10
0.712329
20
1.41247
11
0.716186
21
1.40551
0
LINE
8
BLACK
6
CONTINUOUS
10
0.716186
20
1.40551
11
0.718566
21
1.39792
0
LINE
8
BLACK
6
CONTINUOUS
10
0.718566
20
1.39792
11
0.71937
21
1.39
0
LINE
8
BLACK
6
CONTINUOUS
10
0.71937
20
1.39
11
0.71937
21
0.468248
0
LINE
8
BLACK
6
CONTINUOUS
10
0.71937
20
0.468248
11
0.747839
21
0.43978
0
LINE
8
BLACK
6
CONTINUOUS
10
1.42412
20
0.539154
11
1.4319
21
0.537527
0
LINE
8
BLACK
6
CONTINUOUS
10
1.4319
20
0.537527
11
1.43921
21
0.534367
0
LINE
8
BLACK
6
CONTINUOUS
10
1.43921
20
0.534367
11
1.44573
21
0.529803
0
LINE
8
BLACK
6
CONTINUOUS
10
1.44573
20
0.529803
11
1.45119
21
0.524021
0
LINE
8
BLACK
6
CONTINUOUS
10
1.45119
20
0.524021
11
1.45539
21
0.517259
0
LINE
8
BLACK
6
CONTINUOUS
10
1.45539
20
0.517259
11
1.45813
21
0.509791
0
LINE
8
BLACK
6
CONTINUOUS
10
1.45813
20
0.509791
11
1.45932
21
0.501923
0
LINE
8
BLACK
6
CONTINUOUS
10
1.45932
20
0.501923
11
1.45891
21
0.493977
0
LINE
8
BLACK
6
CONTINUOUS
10
1.45891
20
0.493977
11
1.4569
21
0.486277
0
LINE
8
BLACK
6
CONTINUOUS
10
1.4569
20
0.486277
11
1.45339
21
0.479137
0
LINE
8
BLACK
6
CONTINUOUS
10
1.45339
20
0.479137
11
1.44851
21
0.47285
0
LINE
8
BLACK
6
CONTINUOUS
10
1.44851
20
0.47285
11
1.44247
21
0.467671
0
LINE
8
BLACK
6
CONTINUOUS
10
1.44247
20
0.467671
11
1.43551
21
0.463814
0
LINE
8
BLACK
6
CONTINUOUS
10
1.43551
20
0.463814
11
1.42792
21
0.461434
0
LINE
8
BLACK
6
CONTINUOUS
10
1.42792
20
0.461434
11
1.42
21
0.46063
0
LINE
8
BLACK
6
CONTINUOUS
10
1.42
20
0.46063
11
0.85937
21
0.46063
0
LINE
8
BLACK
6
CONTINUOUS
10
0.85937
20
0.46063
11
0.85937
21
0.355509
0
LINE
8
BLACK
6
CONTINUOUS
10
0.85937
20
0.355509
11
0.860715
21
0.354164
0
LINE
8
BLACK
6
CONTINUOUS
10
0.860715
20
0.354164
11
0.866029
21
0.346575
0
LINE
8
BLACK
6
CONTINUOUS
10
0.866029
20
0.346575
11
0.869944
21
0.338178
0
LINE
8
BLACK
6
CONTINUOUS
10
0.869944
20
0.338178
11
0.872342
21
0.329229
0
LINE
8
BLACK
6
CONTINUOUS
10
0.872342
20
0.329229
11
0.87315
21
0.32
0
LINE
8
BLACK
6
CONTINUOUS
10
0.87315
20
0.32
11
0.872342
21
0.310771
0
LINE
8
BLACK
6
CONTINUOUS
10
0.872342
20
0.310771
11
0.869944
21
0.301822
0
LINE
8
BLACK
6
CONTINUOUS
10
0.869944
20
0.301822
11
0.866029
21
0.293425
0
LINE
8
BLACK
6
CONTINUOUS
10
0.866029
20
0.293425
11
0.860715
21
0.285836
0
LINE
8
BLACK
6
CONTINUOUS
10
0.860715
20
0.285836
11
0.854164
21
0.279285
0
LINE
8
BLACK
6
CONTINUOUS
10
0.854164
20
0.279285
11
0.846575
21
0.273971
0
LINE
8
BLACK
6
CONTINUOUS
10
0.846575
20
0.273971
11
0.838178
21
0.270056
0
LINE
8
BLACK
6
CONTINUOUS
10
0.838178
20
0.270056
11
0.829229
21
0.267658
0
LINE
8
BLACK
6
CONTINUOUS
10
0.829229
20
0.267658
11
0.82
21
0.26685
0
LINE
8
BLACK
6
CONTINUOUS
10
0.82
20
0.26685
11
0.810771
21
0.267658
0
LINE
8
BLACK
6
CONTINUOUS
10
0.810771
20
0.267658
11
0.801822
21
0.270056
0
LINE
8
BLACK
6
CONTINUOUS
10
0.801822
20
0.270056
11
0.793425
21
0.273971
0
LINE
8
BLACK
6
CONTINUOUS
10
0.793425
20
0.273971
11
0.785836
21
0.279285
0
LINE
8
BLACK
6
CONTINUOUS
10
0.785836
20
0.279285
11
0.779285
21
0.285836
0
LINE
8
BLACK
6
CONTINUOUS
10
0.779285
20
0.285836
11
0.773971
21
0.293425
0
LINE
8
BLACK
6
CONTINUOUS
10
0.773971
20
0.293425
11
0.770056
21
0.301822
0
LINE
8
BLACK
6
CONTINUOUS
10
0.770056
20
0.301822
11
0.767658
21
0.310771
0
LINE
8
BLACK
6
CONTINUOUS
10
0.767658
20
0.310771
11
0.76685
21
0.32
0
LINE
8
BLACK
6
CONTINUOUS
10
0.76685
20
0.32
11
0.767658
21
0.329229
0
LINE
8
BLACK
6
CONTINUOUS
10
0.767658
20
0.329229
11
0.770056
21
0.338178
0
LINE
8
BLACK
6
CONTINUOUS
10
0.770056
20
0.338178
11
0.773971
21
0.346575
0
LINE
8
BLACK
6
CONTINUOUS
10
0.773971
20
0.346575
11
0.779285
21
0.354164
0
LINE
8
BLACK
6
CONTINUOUS
10
0.779285
20
0.354164
11
0.78063
21
0.355509
0
LINE
8
BLACK
6
CONTINUOUS
10
0.78063
20
0.355509
11
0.78063
21
0.463692
0
LINE
8
BLACK
6
CONTINUOUS
10
0.78063
20
0.463692
11
0.752161
21
0.492161
0
LINE
8
BLACK
6
CONTINUOUS
10
0.752161
20
0.492161
11
0.749404
21
0.495224
0
LINE
8
BLACK
6
CONTINUOUS
10
0.749404
20
0.495224
11
0.748612
21
0.496433
0
LINE
8
BLACK
6
CONTINUOUS
10
0.748612
20
0.496433
11
0.747671
21
0.497531
0
LINE
8
BLACK
6
CONTINUOUS
10
0.747671
20
0.497531
11
0.746439
21
0.499754
0
LINE
8
BLACK
6
CONTINUOUS
10
0.746439
20
0.499754
11
0.745047
21
0.501882
0
LINE
8
BLACK
6
CONTINUOUS
10
0.745047
20
0.501882
11
0.744514
21
0.503226
0
LINE
8
BLACK
6
CONTINUOUS
10
0.744514
20
0.503226
11
0.743814
21
0.50449
0
LINE
8
BLACK
6
CONTINUOUS
10
0.743814
20
0.50449
11
0.743053
21
0.506916
0
LINE
8
BLACK
6
CONTINUOUS
10
0.743053
20
0.506916
11
0.742117
21
0.50928
0
LINE
8
BLACK
6
CONTINUOUS
10
0.742117
20
0.50928
11
0.741866
21
0.510704
0
LINE
8
BLACK
6
CONTINUOUS
10
0.741866
20
0.510704
11
0.741434
21
0.512084
0
LINE
8
BLACK
6
CONTINUOUS
10
0.741434
20
0.512084
11
0.741177
21
0.514613
0
LINE
8
BLACK
6
CONTINUOUS
10
0.741177
20
0.514613
11
0.740736
21
0.517117
0
LINE
8
BLACK
6
CONTINUOUS
10
0.740736
20
0.517117
11
0.740776
21
0.518562
0
LINE
8
BLACK
6
CONTINUOUS
10
0.740776
20
0.518562
11
0.74063
21
0.52
0
LINE
8
BLACK
6
CONTINUOUS
10
0.74063
20
0.52
11
0.74063
21
1.39
0
LINE
8
BLACK
6
CONTINUOUS
10
0.74063
20
1.39
11
0.740846
21
1.39412
0
LINE
8
BLACK
6
CONTINUOUS
10
0.740846
20
1.39412
11
0.742473
21
1.4019
0
LINE
8
BLACK
6
CONTINUOUS
10
0.742473
20
1.4019
11
0.745633
21
1.40921
0
LINE
8
BLACK
6
CONTINUOUS
10
0.745633
20
1.40921
11
0.75
21
1.41544
0
LINE
8
BLACK
6
CONTINUOUS
10
0.75
20
1.41544
11
0.75
21
1.42
0
LINE
8
BLACK
6
CONTINUOUS
10
0.75
20
1.42
11
0.754717
21
1.42
0
LINE
8
BLACK
6
CONTINUOUS
10
0.754717
20
1.42
11
0.755979
21
1.42119
0
LINE
8
BLACK
6
CONTINUOUS
10
0.755979
20
1.42119
11
0.762741
21
1.42539
0
LINE
8
BLACK
6
CONTINUOUS
10
0.762741
20
1.42539
11
0.770209
21
1.42813
0
LINE
8
BLACK
6
CONTINUOUS
10
0.770209
20
1.42813
11
0.778077
21
1.42932
0
LINE
8
BLACK
6
CONTINUOUS
10
0.778077
20
1.42932
11
0.786023
21
1.42891
0
LINE
8
BLACK
6
CONTINUOUS
10
0.786023
20
1.42891
11
0.793723
21
1.4269
0
LINE
8
BLACK
6
CONTINUOUS
10
0.793723
20
1.4269
11
0.800863
21
1.42339
0
LINE
8
BLACK
6
CONTINUOUS
10
0.800863
20
1.42339
11
0.80523
21
1.42
0
LINE
8
BLACK
6
CONTINUOUS
10
0.80523
20
1.42
11
0.81
21
1.42
0
LINE
8
BLACK
6
CONTINUOUS
10
0.81
20
1.42
11
0.81
21
1.41519
0
LINE
8
BLACK
6
CONTINUOUS
10
0.81
20
1.41519
11
0.812329
21
1.41247
0
LINE
8
BLACK
6
CONTINUOUS
10
0.812329
20
1.41247
11
0.816186
21
1.40551
0
LINE
8
BLACK
6
CONTINUOUS
10
0.816186
20
1.40551
11
0.818566
21
1.39792
0
LINE
8
BLACK
6
CONTINUOUS
10
0.818566
20
1.39792
11
0.81937
21
1.39
0
LINE
8
BLACK
6
CONTINUOUS
10
0.81937
20
1.39
11
0.81937
21
0.53937
0
LINE
8
BLACK
6
CONTINUOUS
10
0.81937
20
0.53937
11
1.42
21
0.53937
0
LINE
8
BLACK
6
CONTINUOUS
10
1.42
20
0.53937
11
1.42412
21
0.539154
0
LINE
8
BLACK
6
CONTINUOUS
10
0.629229
20
0.372342
11
0.638178
21
0.369944
0
LINE
8
BLACK
6
CONTINUOUS
10
0.638178
20
0.369944
11
0.646575
21
0.366029
0
LINE
8
BLACK
6
CONTINUOUS
10
0.646575
20
0.366029
11
0.654164
21
0.360715
0
LINE
8
BLACK
6
CONTINUOUS
10
0.654164
20
0.360715
11
0.660715
21
0.354164
0
LINE
8
BLACK
6
CONTINUOUS
10
0.660715
20
0.354164
11
0.666029
21
0.346575
0
LINE
8
BLACK
6
CONTINUOUS
10
0.666029
20
0.346575
11
0.669944
21
0.338178
0
LINE
8
BLACK
6
CONTINUOUS
10
0.669944
20
0.338178
11
0.672342
21
0.329229
0
LINE
8
BLACK
6
CONTINUOUS
10
0.672342
20
0.329229
11
0.67315
21
0.32
0
LINE
8
BLACK
6
CONTINUOUS
10
0.67315
20
0.32
11
0.672342
21
0.310771
0
LINE
8
BLACK
6
CONTINUOUS
10
0.672342
20
0.310771
11
0.669944
21
0.301822
0
LINE
8
BLACK
6
CONTINUOUS
10
0.669944
20
0.301822
11
0.666029
21
0.293425
0
LINE
8
BLACK
6
CONTINUOUS
10
0.666029
20
0.293425
11
0.660715
21
0.285836
0
LINE
8
BLACK
6
CONTINUOUS
10
0.660715
20
0.285836
11
0.654164
21
0.279285
0
LINE
8
BLACK
6
CONTINUOUS
10
0.654164
20
0.279285
11
0.646575
21
0.273971
0
LINE
8
BLACK
6
CONTINUOUS
10
0.646575
20
0.273971
11
0.638178
21
0.270056
0
LINE
8
BLACK
6
CONTINUOUS
10
0.638178
20
0.270056
11
0.629229
21
0.267658
0
LINE
8
BLACK
6
CONTINUOUS
10
0.629229
20
0.267658
11
0.62
21
0.26685
0
LINE
8
BLACK
6
CONTINUOUS
10
0.62
20
0.26685
11
0.610771
21
0.267658
0
LINE
8
BLACK
6
CONTINUOUS
10
0.610771
20
0.267658
11
0.601822
21
0.270056
0
LINE
8
BLACK
6
CONTINUOUS
10
0.601822
20
0.270056
11
0.593425
21
0.273971
0
LINE
8
BLACK
6
CONTINUOUS
10
0.593425
20
0.273971
11
0.585836
21
0.279285
0
LINE
8
BLACK
6
CONTINUOUS
10
0.585836
20
0.279285
11
0.579285
21
0.285836
0
LINE
8
BLACK
6
CONTINUOUS
10
0.579285
20
0.285836
11
0.573971
21
0.293425
0
LINE
8
BLACK
6
CONTINUOUS
10
0.573971
20
0.293425
11
0.570056
21
0.301822
0
LINE
8
BLACK
6
CONTINUOUS
10
0.570056
20
0.301822
11
0.567658
21
0.310771
0
LINE
8
BLACK
6
CONTINUOUS
10
0.567658
20
0.310771
11
0.56685
21
0.32
0
LINE
8
BLACK
6
CONTINUOUS
10
0.56685
20
0.32
11
0.567658
21
0.329229
0
LINE
8
BLACK
6
CONTINUOUS
10
0.567658
20
0.329229
11
0.570056
21
0.338178
0
LINE
8
BLACK
6
CONTINUOUS
10
0.570056
20
0.338178
11
0.573971
21
0.346575
0
LINE
8
BLACK
6
CONTINUOUS
10
0.573971
20
0.346575
11
0.579285
21
0.354164
0
LINE
8
BLACK
6
CONTINUOUS
10
0.579285
20
0.354164
11
0.585836
21
0.360715
0
LINE
8
BLACK
6
CONTINUOUS
10
0.585836
20
0.360715
11
0.593425
21
0.366029
0
LINE
8
BLACK
6
CONTINUOUS
10
0.593425
20
0.366029
11
0.601822
21
0.369944
0
LINE
8
BLACK
6
CONTINUOUS
10
0.601822
20
0.369944
11
0.610771
21
0.372342
0
LINE
8
BLACK
6
CONTINUOUS
10
0.610771
20
0.372342
11
0.62
21
0.37315
0
LINE
8
BLACK
6
CONTINUOUS
10
0.62
20
0.37315
11
0.629229
21
0.372342
0
LINE
8
BLACK
6
CONTINUOUS
10
0.81
20
1.46
11
0.75
21
1.46
0
LINE
8
BLACK
6
CONTINUOUS
10
0.75
20
1.46
11
0.75
21
1.52
0
LINE
8
BLACK
6
CONTINUOUS
10
0.75
20
1.52
11
0.81
21
1.52
0
LINE
8
BLACK
6
CONTINUOUS
10
0.81
20
1.52
11
0.81
21
1.46
0
LINE
8
BLACK
6
CONTINUOUS
10
0.71
20
1.46
11
0.65
21
1.46
0
LINE
8
BLACK
6
CONTINUOUS
10
0.65
20
1.46
11
0.65
21
1.52
0
LINE
8
BLACK
6
CONTINUOUS
10
0.65
20
1.52
11
0.71
21
1.52
0
LINE
8
BLACK
6
CONTINUOUS
10
0.71
20
1.52
11
0.71
21
1.46
0
LINE
8
BLACK
6
CONTINUOUS
10
1.35384
20
1.55099
11
1.356
21
1.54882
0
LINE
8
BLACK
6
CONTINUOUS
10
1.356
20
1.54882
11
1.35679
21
1.54587
0
LINE
8
BLACK
6
CONTINUOUS
10
1.35679
20
1.54587
11
1.356
21
1.54292
0
LINE
8
BLACK
6
CONTINUOUS
10
1.356
20
1.54292
11
1.35384
21
1.54076
0
LINE
8
BLACK
6
CONTINUOUS
10
1.35384
20
1.54076
11
1.35089
21
1.53997
0
LINE
8
BLACK
6
CONTINUOUS
10
1.35089
20
1.53997
11
1.33043
21
1.53997
0
LINE
8
BLACK
6
CONTINUOUS
10
1.33043
20
1.53997
11
1.3558
21
1.5019
0
LINE
8
BLACK
6
CONTINUOUS
10
1.3558
20
1.5019
11
1.35586
21
1.50172
0
LINE
8
BLACK
6
CONTINUOUS
10
1.35586
20
1.50172
11
1.356
21
1.50158
0
LINE
8
BLACK
6
CONTINUOUS
10
1.356
20
1.50158
11
1.35635
21
1.50028
0
LINE
8
BLACK
6
CONTINUOUS
10
1.35635
20
1.50028
11
1.35678
21
1.49901
0
LINE
8
BLACK
6
CONTINUOUS
10
1.35678
20
1.49901
11
1.35674
21
1.49882
0
LINE
8
BLACK
6
CONTINUOUS
10
1.35674
20
1.49882
11
1.35679
21
1.49863
0
LINE
8
BLACK
6
CONTINUOUS
10
1.35679
20
1.49863
11
1.35645
21
1.49733
0
LINE
8
BLACK
6
CONTINUOUS
10
1.35645
20
1.49733
11
1.35618
21
1.49601
0
LINE
8
BLACK
6
CONTINUOUS
10
1.35618
20
1.49601
11
1.35605
21
1.49586
0
LINE
8
BLACK
6
CONTINUOUS
10
1.35605
20
1.49586
11
1.356
21
1.49567
0
LINE
8
BLACK
6
CONTINUOUS
10
1.356
20
1.49567
11
1.35505
21
1.49472
0
LINE
8
BLACK
6
CONTINUOUS
10
1.35505
20
1.49472
11
1.35416
21
1.49371
0
LINE
8
BLACK
6
CONTINUOUS
10
1.35416
20
1.49371
11
1.35398
21
1.49365
0
LINE
8
BLACK
6
CONTINUOUS
10
1.35398
20
1.49365
11
1.35384
21
1.49351
0
LINE
8
BLACK
6
CONTINUOUS
10
1.35384
20
1.49351
11
1.35254
21
1.49317
0
LINE
8
BLACK
6
CONTINUOUS
10
1.35254
20
1.49317
11
1.35127
21
1.49273
0
LINE
8
BLACK
6
CONTINUOUS
10
1.35127
20
1.49273
11
1.35108
21
1.49277
0
LINE
8
BLACK
6
CONTINUOUS
10
1.35108
20
1.49277
11
1.35089
21
1.49272
0
LINE
8
BLACK
6
CONTINUOUS
10
1.35089
20
1.49272
11
1.31939
21
1.49272
0
LINE
8
BLACK
6
CONTINUOUS
10
1.31939
20
1.49272
11
1.31644
21
1.49351
0
LINE
8
BLACK
6
CONTINUOUS
10
1.31644
20
1.49351
11
1.31428
21
1.49567
0
LINE
8
BLACK
6
CONTINUOUS
10
1.31428
20
1.49567
11
1.31349
21
1.49863
0
LINE
8
BLACK
6
CONTINUOUS
10
1.31349
20
1.49863
11
1.31428
21
1.50158
0
LINE
8
BLACK
6
CONTINUOUS
10
1.31428
20
1.50158
11
1.31644
21
1.50374
0
LINE
8
BLACK
6
CONTINUOUS
10
1.31644
20
1.50374
11
1.31939
21
1.50453
0
LINE
8
BLACK
6
CONTINUOUS
10
1.31939
20
1.50453
11
1.33985
21
1.50453
0
LINE
8
BLACK
6
CONTINUOUS
10
1.33985
20
1.50453
11
1.31448
21
1.5426
0
LINE
8
BLACK
6
CONTINUOUS
10
1.31448
20
1.5426
11
1.31442
21
1.54278
0
LINE
8
BLACK
6
CONTINUOUS
10
1.31442
20
1.54278
11
1.31428
21
1.54292
0
LINE
8
BLACK
6
CONTINUOUS
10
1.31428
20
1.54292
11
1.31393
21
1.54422
0
LINE
8
BLACK
6
CONTINUOUS
10
1.31393
20
1.54422
11
1.3135
21
1.54549
0
LINE
8
BLACK
6
CONTINUOUS
10
1.3135
20
1.54549
11
1.31354
21
1.54568
0
LINE
8
BLACK
6
CONTINUOUS
10
1.31354
20
1.54568
11
1.31349
21
1.54587
0
LINE
8
BLACK
6
CONTINUOUS
10
1.31349
20
1.54587
11
1.31384
21
1.54717
0
LINE
8
BLACK
6
CONTINUOUS
10
1.31384
20
1.54717
11
1.3141
21
1.54849
0
LINE
8
BLACK
6
CONTINUOUS
10
1.3141
20
1.54849
11
1.31423
21
1.54864
0
LINE
8
BLACK
6
CONTINUOUS
10
1.31423
20
1.54864
11
1.31428
21
1.54882
0
LINE
8
BLACK
6
CONTINUOUS
10
1.31428
20
1.54882
11
1.31523
21
1.54978
0
LINE
8
BLACK
6
CONTINUOUS
10
1.31523
20
1.54978
11
1.31612
21
1.55079
0
LINE
8
BLACK
6
CONTINUOUS
10
1.31612
20
1.55079
11
1.3163
21
1.55085
0
LINE
8
BLACK
6
CONTINUOUS
10
1.3163
20
1.55085
11
1.31644
21
1.55099
0
LINE
8
BLACK
6
CONTINUOUS
10
1.31644
20
1.55099
11
1.31774
21
1.55133
0
LINE
8
BLACK
6
CONTINUOUS
10
1.31774
20
1.55133
11
1.31901
21
1.55177
0
LINE
8
BLACK
6
CONTINUOUS
10
1.31901
20
1.55177
11
1.3192
21
1.55173
0
LINE
8
BLACK
6
CONTINUOUS
10
1.3192
20
1.55173
11
1.31939
21
1.55178
0
LINE
8
BLACK
6
CONTINUOUS
10
1.31939
20
1.55178
11
1.35089
21
1.55178
0
LINE
8
BLACK
6
CONTINUOUS
10
1.35089
20
1.55178
11
1.35384
21
1.55099
0
LINE
8
BLACK
6
CONTINUOUS
10
1.38105
20
1.55153
11
1.382
21
1.55147
0
LINE
8
BLACK
6
CONTINUOUS
10
1.382
20
1.55147
11
1.38875
21
1.54922
0
LINE
8
BLACK
6
CONTINUOUS
10
1.38875
20
1.54922
11
1.38988
21
1.54848
0
LINE
8
BLACK
6
CONTINUOUS
10
1.38988
20
1.54848
11
1.39106
21
1.5478
0
LINE
8
BLACK
6
CONTINUOUS
10
1.39106
20
1.5478
11
1.39556
21
1.5433
0
LINE
8
BLACK
6
CONTINUOUS
10
1.39556
20
1.5433
11
1.39603
21
1.54248
0
LINE
8
BLACK
6
CONTINUOUS
10
1.39603
20
1.54248
11
1.39667
21
1.54176
0
LINE
8
BLACK
6
CONTINUOUS
10
1.39667
20
1.54176
11
1.39892
21
1.53726
0
LINE
8
BLACK
6
CONTINUOUS
10
1.39892
20
1.53726
11
1.39905
21
1.53663
0
LINE
8
BLACK
6
CONTINUOUS
10
1.39905
20
1.53663
11
1.39936
21
1.53606
0
LINE
8
BLACK
6
CONTINUOUS
10
1.39936
20
1.53606
11
1.40161
21
1.52706
0
LINE
8
BLACK
6
CONTINUOUS
10
1.40161
20
1.52706
11
1.4016
21
1.52633
0
LINE
8
BLACK
6
CONTINUOUS
10
1.4016
20
1.52633
11
1.40179
21
1.52562
0
LINE
8
BLACK
6
CONTINUOUS
10
1.40179
20
1.52562
11
1.40179
21
1.51888
0
LINE
8
BLACK
6
CONTINUOUS
10
1.40179
20
1.51888
11
1.4016
21
1.51817
0
LINE
8
BLACK
6
CONTINUOUS
10
1.4016
20
1.51817
11
1.40161
21
1.51744
0
LINE
8
BLACK
6
CONTINUOUS
10
1.40161
20
1.51744
11
1.39936
21
1.50844
0
LINE
8
BLACK
6
CONTINUOUS
10
1.39936
20
1.50844
11
1.39905
21
1.50787
0
LINE
8
BLACK
6
CONTINUOUS
10
1.39905
20
1.50787
11
1.39892
21
1.50724
0
LINE
8
BLACK
6
CONTINUOUS
10
1.39892
20
1.50724
11
1.39667
21
1.50274
0
LINE
8
BLACK
6
CONTINUOUS
10
1.39667
20
1.50274
11
1.39603
21
1.50202
0
LINE
8
BLACK
6
CONTINUOUS
10
1.39603
20
1.50202
11
1.39556
21
1.5012
0
LINE
8
BLACK
6
CONTINUOUS
10
1.39556
20
1.5012
11
1.39106
21
1.4967
0
LINE
8
BLACK
6
CONTINUOUS
10
1.39106
20
1.4967
11
1.38988
21
1.49602
0
LINE
8
BLACK
6
CONTINUOUS
10
1.38988
20
1.49602
11
1.38875
21
1.49527
0
LINE
8
BLACK
6
CONTINUOUS
10
1.38875
20
1.49527
11
1.382
21
1.49303
0
LINE
8
BLACK
6
CONTINUOUS
10
1.382
20
1.49303
11
1.38105
21
1.49297
0
LINE
8
BLACK
6
CONTINUOUS
10
1.38105
20
1.49297
11
1.38013
21
1.49272
0
LINE
8
BLACK
6
CONTINUOUS
10
1.38013
20
1.49272
11
1.37564
21
1.49272
0
LINE
8
BLACK
6
CONTINUOUS
10
1.37564
20
1.49272
11
1.37472
21
1.49297
0
LINE
8
BLACK
6
CONTINUOUS
10
1.37472
20
1.49297
11
1.37377
21
1.49303
0
LINE
8
BLACK
6
CONTINUOUS
10
1.37377
20
1.49303
11
1.36702
21
1.49527
0
LINE
8
BLACK
6
CONTINUOUS
10
1.36702
20
1.49527
11
1.36589
21
1.49602
0
LINE
8
BLACK
6
CONTINUOUS
10
1.36589
20
1.49602
11
1.36471
21
1.4967
0
LINE
8
BLACK
6
CONTINUOUS
10
1.36471
20
1.4967
11
1.36246
21
1.49895
0
LINE
8
BLACK
6
CONTINUOUS
10
1.36246
20
1.49895
11
1.36093
21
1.5016
0
LINE
8
BLACK
6
CONTINUOUS
10
1.36093
20
1.5016
11
1.36093
21
1.50466
0
LINE
8
BLACK
6
CONTINUOUS
10
1.36093
20
1.50466
11
1.36246
21
1.5073
0
LINE
8
BLACK
6
CONTINUOUS
10
1.36246
20
1.5073
11
1.36511
21
1.50883
0
LINE
8
BLACK
6
CONTINUOUS
10
1.36511
20
1.50883
11
1.36817
21
1.50883
0
LINE
8
BLACK
6
CONTINUOUS
10
1.36817
20
1.50883
11
1.37081
21
1.5073
0
LINE
8
BLACK
6
CONTINUOUS
10
1.37081
20
1.5073
11
1.37208
21
1.50604
0
LINE
8
BLACK
6
CONTINUOUS
10
1.37208
20
1.50604
11
1.37659
21
1.50453
0
LINE
8
BLACK
6
CONTINUOUS
10
1.37659
20
1.50453
11
1.37918
21
1.50453
0
LINE
8
BLACK
6
CONTINUOUS
10
1.37918
20
1.50453
11
1.38369
21
1.50604
0
LINE
8
BLACK
6
CONTINUOUS
10
1.38369
20
1.50604
11
1.38653
21
1.50887
0
LINE
8
BLACK
6
CONTINUOUS
10
1.38653
20
1.50887
11
1.38806
21
1.51194
0
LINE
8
BLACK
6
CONTINUOUS
10
1.38806
20
1.51194
11
1.38998
21
1.5196
0
LINE
8
BLACK
6
CONTINUOUS
10
1.38998
20
1.5196
11
1.38998
21
1.5249
0
LINE
8
BLACK
6
CONTINUOUS
10
1.38998
20
1.5249
11
1.38806
21
1.53256
0
LINE
8
BLACK
6
CONTINUOUS
10
1.38806
20
1.53256
11
1.38653
21
1.53562
0
LINE
8
BLACK
6
CONTINUOUS
10
1.38653
20
1.53562
11
1.38369
21
1.53846
0
LINE
8
BLACK
6
CONTINUOUS
10
1.38369
20
1.53846
11
1.37918
21
1.53997
0
LINE
8
BLACK
6
CONTINUOUS
10
1.37918
20
1.53997
11
1.37659
21
1.53997
0
LINE
8
BLACK
6
CONTINUOUS
10
1.37659
20
1.53997
11
1.37208
21
1.53846
0
LINE
8
BLACK
6
CONTINUOUS
10
1.37208
20
1.53846
11
1.37081
21
1.5372
0
LINE
8
BLACK
6
CONTINUOUS
10
1.37081
20
1.5372
11
1.36817
21
1.53567
0
LINE
8
BLACK
6
CONTINUOUS
10
1.36817
20
1.53567
11
1.36511
21
1.53567
0
LINE
8
BLACK
6
CONTINUOUS
10
1.36511
20
1.53567
11
1.36246
21
1.5372
0
LINE
8
BLACK
6
CONTINUOUS
10
1.36246
20
1.5372
11
1.36093
21
1.53984
0
LINE
8
BLACK
6
CONTINUOUS
10
1.36093
20
1.53984
11
1.36093
21
1.5429
0
LINE
8
BLACK
6
CONTINUOUS
10
1.36093
20
1.5429
11
1.36246
21
1.54555
0
LINE
8
BLACK
6
CONTINUOUS
10
1.36246
20
1.54555
11
1.36471
21
1.5478
0
LINE
8
BLACK
6
CONTINUOUS
10
1.36471
20
1.5478
11
1.36589
21
1.54848
0
LINE
8
BLACK
6
CONTINUOUS
10
1.36589
20
1.54848
11
1.36702
21
1.54922
0
LINE
8
BLACK
6
CONTINUOUS
10
1.36702
20
1.54922
11
1.37377
21
1.55147
0
LINE
8
BLACK
6
CONTINUOUS
10
1.37377
20
1.55147
11
1.37472
21
1.55153
0
LINE
8
BLACK
6
CONTINUOUS
10
1.37472
20
1.55153
11
1.37564
21
1.55178
0
LINE
8
BLACK
6
CONTINUOUS
10
1.37564
20
1.55178
11
1.38013
21
1.55178
0
LINE
8
BLACK
6
CONTINUOUS
10
1.38013
20
1.55178
11
1.38105
21
1.55153
0
LINE
8
BLACK
6
CONTINUOUS
10
1.41908
20
1.50824
11
1.41963
21
1.50769
0
LINE
8
BLACK
6
CONTINUOUS
10
1.41963
20
1.50769
11
1.42031
21
1.5073
0
LINE
8
BLACK
6
CONTINUOUS
10
1.42031
20
1.5073
11
1.42256
21
1.50505
0
LINE
8
BLACK
6
CONTINUOUS
10
1.42256
20
1.50505
11
1.42408
21
1.50241
0
LINE
8
BLACK
6
CONTINUOUS
10
1.42408
20
1.50241
11
1.42408
21
1.49935
0
LINE
8
BLACK
6
CONTINUOUS
10
1.42408
20
1.49935
11
1.42256
21
1.4967
0
LINE
8
BLACK
6
CONTINUOUS
10
1.42256
20
1.4967
11
1.42031
21
1.49445
0
LINE
8
BLACK
6
CONTINUOUS
10
1.42031
20
1.49445
11
1.41963
21
1.49406
0
LINE
8
BLACK
6
CONTINUOUS
10
1.41963
20
1.49406
11
1.41908
21
1.49351
0
LINE
8
BLACK
6
CONTINUOUS
10
1.41908
20
1.49351
11
1.41833
21
1.49331
0
LINE
8
BLACK
6
CONTINUOUS
10
1.41833
20
1.49331
11
1.41766
21
1.49292
0
LINE
8
BLACK
6
CONTINUOUS
10
1.41766
20
1.49292
11
1.41688
21
1.49292
0
LINE
8
BLACK
6
CONTINUOUS
10
1.41688
20
1.49292
11
1.41613
21
1.49272
0
LINE
8
BLACK
6
CONTINUOUS
10
1.41613
20
1.49272
11
1.41538
21
1.49292
0
LINE
8
BLACK
6
CONTINUOUS
10
1.41538
20
1.49292
11
1.4146
21
1.49292
0
LINE
8
BLACK
6
CONTINUOUS
10
1.4146
20
1.49292
11
1.41393
21
1.49331
0
LINE
8
BLACK
6
CONTINUOUS
10
1.41393
20
1.49331
11
1.41318
21
1.49351
0
LINE
8
BLACK
6
CONTINUOUS
10
1.41318
20
1.49351
11
1.41263
21
1.49406
0
LINE
8
BLACK
6
CONTINUOUS
10
1.41263
20
1.49406
11
1.41195
21
1.49445
0
LINE
8
BLACK
6
CONTINUOUS
10
1.41195
20
1.49445
11
1.4097
21
1.4967
0
LINE
8
BLACK
6
CONTINUOUS
10
1.4097
20
1.4967
11
1.40818
21
1.49935
0
LINE
8
BLACK
6
CONTINUOUS
10
1.40818
20
1.49935
11
1.40818
21
1.50241
0
LINE
8
BLACK
6
CONTINUOUS
10
1.40818
20
1.50241
11
1.4097
21
1.50505
0
LINE
8
BLACK
6
CONTINUOUS
10
1.4097
20
1.50505
11
1.41195
21
1.5073
0
LINE
8
BLACK
6
CONTINUOUS
10
1.41195
20
1.5073
11
1.41263
21
1.50769
0
LINE
8
BLACK
6
CONTINUOUS
10
1.41263
20
1.50769
11
1.41318
21
1.50824
0
LINE
8
BLACK
6
CONTINUOUS
10
1.41318
20
1.50824
11
1.41393
21
1.50844
0
LINE
8
BLACK
6
CONTINUOUS
10
1.41393
20
1.50844
11
1.4146
21
1.50883
0
LINE
8
BLACK
6
CONTINUOUS
10
1.4146
20
1.50883
11
1.41538
21
1.50883
0
LINE
8
BLACK
6
CONTINUOUS
10
1.41538
20
1.50883
11
1.41613
21
1.50903
0
LINE
8
BLACK
6
CONTINUOUS
10
1.41613
20
1.50903
11
1.41688
21
1.50883
0
LINE
8
BLACK
6
CONTINUOUS
10
1.41688
20
1.50883
11
1.41766
21
1.50883
0
LINE
8
BLACK
6
CONTINUOUS
10
1.41766
20
1.50883
11
1.41833
21
1.50844
0
LINE
8
BLACK
6
CONTINUOUS
10
1.41833
20
1.50844
11
1.41908
21
1.50824
0
LINE
8
BLACK
6
CONTINUOUS
10
1.44407
20
1.49307
11
1.44274
21
1.49335
0
LINE
8
BLACK
6
CONTINUOUS
10
1.44274
20
1.49335
11
1.43824
21
1.4956
0
LINE
8
BLACK
6
CONTINUOUS
10
1.43824
20
1.4956
11
1.43752
21
1.49623
0
LINE
8
BLACK
6
CONTINUOUS
10
1.43752
20
1.49623
11
1.4367
21
1.4967
0
LINE
8
BLACK
6
CONTINUOUS
10
1.4367
20
1.4967
11
1.43445
21
1.49895
0
LINE
8
BLACK
6
CONTINUOUS
10
1.43445
20
1.49895
11
1.43398
21
1.49977
0
LINE
8
BLACK
6
CONTINUOUS
10
1.43398
20
1.49977
11
1.43335
21
1.50049
0
LINE
8
BLACK
6
CONTINUOUS
10
1.43335
20
1.50049
11
1.4311
21
1.50499
0
LINE
8
BLACK
6
CONTINUOUS
10
1.4311
20
1.50499
11
1.43082
21
1.50632
0
LINE
8
BLACK
6
CONTINUOUS
10
1.43082
20
1.50632
11
1.43047
21
1.50763
0
LINE
8
BLACK
6
CONTINUOUS
10
1.43047
20
1.50763
11
1.43047
21
1.51438
0
LINE
8
BLACK
6
CONTINUOUS
10
1.43047
20
1.51438
11
1.43082
21
1.51569
0
LINE
8
BLACK
6
CONTINUOUS
10
1.43082
20
1.51569
11
1.4311
21
1.51702
0
LINE
8
BLACK
6
CONTINUOUS
10
1.4311
20
1.51702
11
1.43335
21
1.52152
0
LINE
8
BLACK
6
CONTINUOUS
10
1.43335
20
1.52152
11
1.43398
21
1.52223
0
LINE
8
BLACK
6
CONTINUOUS
10
1.43398
20
1.52223
11
1.43445
21
1.52305
0
LINE
8
BLACK
6
CONTINUOUS
10
1.43445
20
1.52305
11
1.43608
21
1.52468
0
LINE
8
BLACK
6
CONTINUOUS
10
1.43608
20
1.52468
11
1.4356
21
1.52523
0
LINE
8
BLACK
6
CONTINUOUS
10
1.4356
20
1.52523
11
1.43335
21
1.52973
0
LINE
8
BLACK
6
CONTINUOUS
10
1.43335
20
1.52973
11
1.43307
21
1.53106
0
LINE
8
BLACK
6
CONTINUOUS
10
1.43307
20
1.53106
11
1.43272
21
1.53237
0
LINE
8
BLACK
6
CONTINUOUS
10
1.43272
20
1.53237
11
1.43272
21
1.53687
0
LINE
8
BLACK
6
CONTINUOUS
10
1.43272
20
1.53687
11
1.43307
21
1.53818
0
LINE
8
BLACK
6
CONTINUOUS
10
1.43307
20
1.53818
11
1.43335
21
1.53951
0
LINE
8
BLACK
6
CONTINUOUS
10
1.43335
20
1.53951
11
1.4356
21
1.54401
0
LINE
8
BLACK
6
CONTINUOUS
10
1.4356
20
1.54401
11
1.43623
21
1.54472
0
LINE
8
BLACK
6
CONTINUOUS
10
1.43623
20
1.54472
11
1.4367
21
1.54555
0
LINE
8
BLACK
6
CONTINUOUS
10
1.4367
20
1.54555
11
1.43895
21
1.5478
0
LINE
8
BLACK
6
CONTINUOUS
10
1.43895
20
1.5478
11
1.43977
21
1.54827
0
LINE
8
BLACK
6
CONTINUOUS
10
1.43977
20
1.54827
11
1.44049
21
1.5489
0
LINE
8
BLACK
6
CONTINUOUS
10
1.44049
20
1.5489
11
1.44499
21
1.55115
0
LINE
8
BLACK
6
CONTINUOUS
10
1.44499
20
1.55115
11
1.44632
21
1.55143
0
LINE
8
BLACK
6
CONTINUOUS
10
1.44632
20
1.55143
11
1.44763
21
1.55178
0
LINE
8
BLACK
6
CONTINUOUS
10
1.44763
20
1.55178
11
1.46337
21
1.55178
0
LINE
8
BLACK
6
CONTINUOUS
10
1.46337
20
1.55178
11
1.46633
21
1.55099
0
LINE
8
BLACK
6
CONTINUOUS
10
1.46633
20
1.55099
11
1.46849
21
1.54882
0
LINE
8
BLACK
6
CONTINUOUS
10
1.46849
20
1.54882
11
1.46928
21
1.54587
0
LINE
8
BLACK
6
CONTINUOUS
10
1.46928
20
1.54587
11
1.46928
21
1.49863
0
LINE
8
BLACK
6
CONTINUOUS
10
1.46928
20
1.49863
11
1.46849
21
1.49567
0
LINE
8
BLACK
6
CONTINUOUS
10
1.46849
20
1.49567
11
1.46633
21
1.49351
0
LINE
8
BLACK
6
CONTINUOUS
10
1.46633
20
1.49351
11
1.46337
21
1.49272
0
LINE
8
BLACK
6
CONTINUOUS
10
1.46337
20
1.49272
11
1.44538
21
1.49272
0
LINE
8
BLACK
6
CONTINUOUS
10
1.44538
20
1.49272
11
1.44407
21
1.49307
0
LINE
8
BLACK
6
CONTINUOUS
10
1.44858
20
1.51747
11
1.44407
21
1.51596
0
LINE
8
BLACK
6
CONTINUOUS
10
1.44407
20
1.51596
11
1.44348
21
1.51538
0
LINE
8
BLACK
6
CONTINUOUS
10
1.44348
20
1.51538
11
1.44228
21
1.51298
0
LINE
8
BLACK
6
CONTINUOUS
10
1.44228
20
1.51298
11
1.44228
21
1.50902
0
LINE
8
BLACK
6
CONTINUOUS
10
1.44228
20
1.50902
11
1.44348
21
1.50663
0
LINE
8
BLACK
6
CONTINUOUS
10
1.44348
20
1.50663
11
1.44438
21
1.50573
0
LINE
8
BLACK
6
CONTINUOUS
10
1.44438
20
1.50573
11
1.44677
21
1.50453
0
LINE
8
BLACK
6
CONTINUOUS
10
1.44677
20
1.50453
11
1.45747
21
1.50453
0
LINE
8
BLACK
6
CONTINUOUS
10
1.45747
20
1.50453
11
1.45747
21
1.51747
0
LINE
8
BLACK
6
CONTINUOUS
10
1.45747
20
1.51747
11
1.44858
21
1.51747
0
LINE
8
BLACK
6
CONTINUOUS
10
1.44902
20
1.53997
11
1.44663
21
1.53877
0
LINE
8
BLACK
6
CONTINUOUS
10
1.44663
20
1.53877
11
1.44573
21
1.53787
0
LINE
8
BLACK
6
CONTINUOUS
10
1.44573
20
1.53787
11
1.44453
21
1.53548
0
LINE
8
BLACK
6
CONTINUOUS
10
1.44453
20
1.53548
11
1.44453
21
1.53377
0
LINE
8
BLACK
6
CONTINUOUS
10
1.44453
20
1.53377
11
1.44573
21
1.53137
0
LINE
8
BLACK
6
CONTINUOUS
10
1.44573
20
1.53137
11
1.44663
21
1.53048
0
LINE
8
BLACK
6
CONTINUOUS
10
1.44663
20
1.53048
11
1.44902
21
1.52928
0
LINE
8
BLACK
6
CONTINUOUS
10
1.44902
20
1.52928
11
1.45747
21
1.52928
0
LINE
8
BLACK
6
CONTINUOUS
10
1.45747
20
1.52928
11
1.45747
21
1.53997
0
LINE
8
BLACK
6
CONTINUOUS
10
1.45747
20
1.53997
11
1.44902
21
1.53997
0
LINE
8
BLACK
6
CONTINUOUS
10
1.51666
20
1.49351
11
1.51518
21
1.495
0
LINE
8
BLACK
6
CONTINUOUS
10
1.51518
20
1.495
11
1.51504
21
1.49471
0
LINE
8
BLACK
6
CONTINUOUS
10
1.51504
20
1.49471
11
1.51249
21
1.49303
0
LINE
8
BLACK
6
CONTINUOUS
10
1.51249
20
1.49303
11
1.50943
21
1.49284
0
LINE
8
BLACK
6
CONTINUOUS
10
1.50943
20
1.49284
11
1.5067
21
1.49421
0
LINE
8
BLACK
6
CONTINUOUS
10
1.5067
20
1.49421
11
1.50502
21
1.49676
0
LINE
8
BLACK
6
CONTINUOUS
10
1.50502
20
1.49676
11
1.50186
21
1.50622
0
LINE
8
BLACK
6
CONTINUOUS
10
1.50186
20
1.50622
11
1.48788
21
1.50622
0
LINE
8
BLACK
6
CONTINUOUS
10
1.48788
20
1.50622
11
1.48473
21
1.49676
0
LINE
8
BLACK
6
CONTINUOUS
10
1.48473
20
1.49676
11
1.48304
21
1.49421
0
LINE
8
BLACK
6
CONTINUOUS
10
1.48304
20
1.49421
11
1.48031
21
1.49284
0
LINE
8
BLACK
6
CONTINUOUS
10
1.48031
20
1.49284
11
1.47726
21
1.49303
0
LINE
8
BLACK
6
CONTINUOUS
10
1.47726
20
1.49303
11
1.4747
21
1.49471
0
LINE
8
BLACK
6
CONTINUOUS
10
1.4747
20
1.49471
11
1.47334
21
1.49744
0
LINE
8
BLACK
6
CONTINUOUS
10
1.47334
20
1.49744
11
1.47352
21
1.5005
0
LINE
8
BLACK
6
CONTINUOUS
10
1.47352
20
1.5005
11
1.48927
21
1.54774
0
LINE
8
BLACK
6
CONTINUOUS
10
1.48927
20
1.54774
11
1.48992
21
1.54873
0
LINE
8
BLACK
6
CONTINUOUS
10
1.48992
20
1.54873
11
1.49045
21
1.54979
0
LINE
8
BLACK
6
CONTINUOUS
10
1.49045
20
1.54979
11
1.49075
21
1.54999
0
LINE
8
BLACK
6
CONTINUOUS
10
1.49075
20
1.54999
11
1.49095
21
1.55029
0
LINE
8
BLACK
6
CONTINUOUS
10
1.49095
20
1.55029
11
1.49201
21
1.55082
0
LINE
8
BLACK
6
CONTINUOUS
10
1.49201
20
1.55082
11
1.493
21
1.55147
0
LINE
8
BLACK
6
CONTINUOUS
10
1.493
20
1.55147
11
1.49336
21
1.5515
0
LINE
8
BLACK
6
CONTINUOUS
10
1.49336
20
1.5515
11
1.49369
21
1.55166
0
LINE
8
BLACK
6
CONTINUOUS
10
1.49369
20
1.55166
11
1.49487
21
1.55159
0
LINE
8
BLACK
6
CONTINUOUS
10
1.49487
20
1.55159
11
1.49605
21
1.55166
0
LINE
8
BLACK
6
CONTINUOUS
10
1.49605
20
1.55166
11
1.49638
21
1.5515
0
LINE
8
BLACK
6
CONTINUOUS
10
1.49638
20
1.5515
11
1.49674
21
1.55147
0
LINE
8
BLACK
6
CONTINUOUS
10
1.49674
20
1.55147
11
1.49773
21
1.55082
0
LINE
8
BLACK
6
CONTINUOUS
10
1.49773
20
1.55082
11
1.49879
21
1.55029
0
LINE
8
BLACK
6
CONTINUOUS
10
1.49879
20
1.55029
11
1.49899
21
1.54999
0
LINE
8
BLACK
6
CONTINUOUS
10
1.49899
20
1.54999
11
1.49929
21
1.54979
0
LINE
8
BLACK
6
CONTINUOUS
10
1.49929
20
1.54979
11
1.49982
21
1.54873
0
LINE
8
BLACK
6
CONTINUOUS
10
1.49982
20
1.54873
11
1.50047
21
1.54774
0
LINE
8
BLACK
6
CONTINUOUS
10
1.50047
20
1.54774
11
1.51552
21
1.5026
0
LINE
8
BLACK
6
CONTINUOUS
10
1.51552
20
1.5026
11
1.51666
21
1.50374
0
LINE
8
BLACK
6
CONTINUOUS
10
1.51666
20
1.50374
11
1.51962
21
1.50453
0
LINE
8
BLACK
6
CONTINUOUS
10
1.51962
20
1.50453
11
1.53621
21
1.50453
0
LINE
8
BLACK
6
CONTINUOUS
10
1.53621
20
1.50453
11
1.53621
21
1.54587
0
LINE
8
BLACK
6
CONTINUOUS
10
1.53621
20
1.54587
11
1.537
21
1.54882
0
LINE
8
BLACK
6
CONTINUOUS
10
1.537
20
1.54882
11
1.53916
21
1.55099
0
LINE
8
BLACK
6
CONTINUOUS
10
1.53916
20
1.55099
11
1.54211
21
1.55178
0
LINE
8
BLACK
6
CONTINUOUS
10
1.54211
20
1.55178
11
1.54507
21
1.55099
0
LINE
8
BLACK
6
CONTINUOUS
10
1.54507
20
1.55099
11
1.54723
21
1.54882
0
LINE
8
BLACK
6
CONTINUOUS
10
1.54723
20
1.54882
11
1.54802
21
1.54587
0
LINE
8
BLACK
6
CONTINUOUS
10
1.54802
20
1.54587
11
1.54802
21
1.49863
0
LINE
8
BLACK
6
CONTINUOUS
10
1.54802
20
1.49863
11
1.54723
21
1.49567
0
LINE
8
BLACK
6
CONTINUOUS
10
1.54723
20
1.49567
11
1.54507
21
1.49351
0
LINE
8
BLACK
6
CONTINUOUS
10
1.54507
20
1.49351
11
1.54211
21
1.49272
0
LINE
8
BLACK
6
CONTINUOUS
10
1.54211
20
1.49272
11
1.51962
21
1.49272
0
LINE
8
BLACK
6
CONTINUOUS
10
1.51962
20
1.49272
11
1.51666
21
1.49351
0
LINE
8
BLACK
6
CONTINUOUS
10
1.49182
20
1.51803
11
1.49793
21
1.51803
0
LINE
8
BLACK
6
CONTINUOUS
10
1.49793
20
1.51803
11
1.49487
21
1.5272
0
LINE
8
BLACK
6
CONTINUOUS
10
1.49487
20
1.5272
11
1.49182
21
1.51803
0
LINE
8
BLACK
6
CONTINUOUS
10
1.59734
20
1.55145
11
1.59861
21
1.55122
0
LINE
8
BLACK
6
CONTINUOUS
10
1.59861
20
1.55122
11
1.59881
21
1.55105
0
LINE
8
BLACK
6
CONTINUOUS
10
1.59881
20
1.55105
11
1.59906
21
1.55099
0
LINE
8
BLACK
6
CONTINUOUS
10
1.59906
20
1.55099
11
1.59997
21
1.55008
0
LINE
8
BLACK
6
CONTINUOUS
10
1.59997
20
1.55008
11
1.60095
21
1.54926
0
LINE
8
BLACK
6
CONTINUOUS
10
1.60095
20
1.54926
11
1.60104
21
1.54901
0
LINE
8
BLACK
6
CONTINUOUS
10
1.60104
20
1.54901
11
1.60122
21
1.54882
0
LINE
8
BLACK
6
CONTINUOUS
10
1.60122
20
1.54882
11
1.60155
21
1.54759
0
LINE
8
BLACK
6
CONTINUOUS
10
1.60155
20
1.54759
11
1.60199
21
1.54638
0
LINE
8
BLACK
6
CONTINUOUS
10
1.60199
20
1.54638
11
1.60195
21
1.54613
0
LINE
8
BLACK
6
CONTINUOUS
10
1.60195
20
1.54613
11
1.60201
21
1.54587
0
LINE
8
BLACK
6
CONTINUOUS
10
1.60201
20
1.54587
11
1.60201
21
1.49863
0
LINE
8
BLACK
6
CONTINUOUS
10
1.60201
20
1.49863
11
1.60122
21
1.49567
0
LINE
8
BLACK
6
CONTINUOUS
10
1.60122
20
1.49567
11
1.59906
21
1.49351
0
LINE
8
BLACK
6
CONTINUOUS
10
1.59906
20
1.49351
11
1.59611
21
1.49272
0
LINE
8
BLACK
6
CONTINUOUS
10
1.59611
20
1.49272
11
1.59316
21
1.49351
0
LINE
8
BLACK
6
CONTINUOUS
10
1.59316
20
1.49351
11
1.59099
21
1.49567
0
LINE
8
BLACK
6
CONTINUOUS
10
1.59099
20
1.49567
11
1.5902
21
1.49863
0
LINE
8
BLACK
6
CONTINUOUS
10
1.5902
20
1.49863
11
1.5902
21
1.51925
0
LINE
8
BLACK
6
CONTINUOUS
10
1.5902
20
1.51925
11
1.58571
21
1.50963
0
LINE
8
BLACK
6
CONTINUOUS
10
1.58571
20
1.50963
11
1.58538
21
1.50923
0
LINE
8
BLACK
6
CONTINUOUS
10
1.58538
20
1.50923
11
1.5852
21
1.50874
0
LINE
8
BLACK
6
CONTINUOUS
10
1.5852
20
1.50874
11
1.58441
21
1.50808
0
LINE
8
BLACK
6
CONTINUOUS
10
1.58441
20
1.50808
11
1.58375
21
1.50729
0
LINE
8
BLACK
6
CONTINUOUS
10
1.58375
20
1.50729
11
1.58326
21
1.50711
0
LINE
8
BLACK
6
CONTINUOUS
10
1.58326
20
1.50711
11
1.58286
21
1.50677
0
LINE
8
BLACK
6
CONTINUOUS
10
1.58286
20
1.50677
11
1.58184
21
1.5066
0
LINE
8
BLACK
6
CONTINUOUS
10
1.58184
20
1.5066
11
1.58087
21
1.50624
0
LINE
8
BLACK
6
CONTINUOUS
10
1.58087
20
1.50624
11
1.58036
21
1.50633
0
LINE
8
BLACK
6
CONTINUOUS
10
1.58036
20
1.50633
11
1.57985
21
1.50624
0
LINE
8
BLACK
6
CONTINUOUS
10
1.57985
20
1.50624
11
1.57888
21
1.5066
0
LINE
8
BLACK
6
CONTINUOUS
10
1.57888
20
1.5066
11
1.57786
21
1.50677
0
LINE
8
BLACK
6
CONTINUOUS
10
1.57786
20
1.50677
11
1.57746
21
1.50711
0
LINE
8
BLACK
6
CONTINUOUS
10
1.57746
20
1.50711
11
1.57697
21
1.50729
0
LINE
8
BLACK
6
CONTINUOUS
10
1.57697
20
1.50729
11
1.57631
21
1.50808
0
LINE
8
BLACK
6
CONTINUOUS
10
1.57631
20
1.50808
11
1.57552
21
1.50874
0
LINE
8
BLACK
6
CONTINUOUS
10
1.57552
20
1.50874
11
1.57534
21
1.50923
0
LINE
8
BLACK
6
CONTINUOUS
10
1.57534
20
1.50923
11
1.57501
21
1.50963
0
LINE
8
BLACK
6
CONTINUOUS
10
1.57501
20
1.50963
11
1.57052
21
1.51925
0
LINE
8
BLACK
6
CONTINUOUS
10
1.57052
20
1.51925
11
1.57052
21
1.49863
0
LINE
8
BLACK
6
CONTINUOUS
10
1.57052
20
1.49863
11
1.56973
21
1.49567
0
LINE
8
BLACK
6
CONTINUOUS
10
1.56973
20
1.49567
11
1.56756
21
1.49351
0
LINE
8
BLACK
6
CONTINUOUS
10
1.56756
20
1.49351
11
1.56461
21
1.49272
0
LINE
8
BLACK
6
CONTINUOUS
10
1.56461
20
1.49272
11
1.56166
21
1.49351
0
LINE
8
BLACK
6
CONTINUOUS
10
1.56166
20
1.49351
11
1.5595
21
1.49567
0
LINE
8
BLACK
6
CONTINUOUS
10
1.5595
20
1.49567
11
1.55871
21
1.49863
0
LINE
8
BLACK
6
CONTINUOUS
10
1.55871
20
1.49863
11
1.55871
21
1.54587
0
LINE
8
BLACK
6
CONTINUOUS
10
1.55871
20
1.54587
11
1.55877
21
1.54613
0
LINE
8
BLACK
6
CONTINUOUS
10
1.55877
20
1.54613
11
1.55873
21
1.54638
0
LINE
8
BLACK
6
CONTINUOUS
10
1.55873
20
1.54638
11
1.55917
21
1.54759
0
LINE
8
BLACK
6
CONTINUOUS
10
1.55917
20
1.54759
11
1.5595
21
1.54882
0
LINE
8
BLACK
6
CONTINUOUS
10
1.5595
20
1.54882
11
1.55968
21
1.54901
0
LINE
8
BLACK
6
CONTINUOUS
10
1.55968
20
1.54901
11
1.55977
21
1.54926
0
LINE
8
BLACK
6
CONTINUOUS
10
1.55977
20
1.54926
11
1.56075
21
1.55008
0
LINE
8
BLACK
6
CONTINUOUS
10
1.56075
20
1.55008
11
1.56166
21
1.55099
0
LINE
8
BLACK
6
CONTINUOUS
10
1.56166
20
1.55099
11
1.56191
21
1.55105
0
LINE
8
BLACK
6
CONTINUOUS
10
1.56191
20
1.55105
11
1.56211
21
1.55122
0
LINE
8
BLACK
6
CONTINUOUS
10
1.56211
20
1.55122
11
1.56338
21
1.55145
0
LINE
8
BLACK
6
CONTINUOUS
10
1.56338
20
1.55145
11
1.56461
21
1.55178
0
LINE
8
BLACK
6
CONTINUOUS
10
1.56461
20
1.55178
11
1.56487
21
1.55171
0
LINE
8
BLACK
6
CONTINUOUS
10
1.56487
20
1.55171
11
1.56512
21
1.55175
0
LINE
8
BLACK
6
CONTINUOUS
10
1.56512
20
1.55175
11
1.56633
21
1.55132
0
LINE
8
BLACK
6
CONTINUOUS
10
1.56633
20
1.55132
11
1.56756
21
1.55099
0
LINE
8
BLACK
6
CONTINUOUS
10
1.56756
20
1.55099
11
1.56775
21
1.5508
0
LINE
8
BLACK
6
CONTINUOUS
10
1.56775
20
1.5508
11
1.568
21
1.55071
0
LINE
8
BLACK
6
CONTINUOUS
10
1.568
20
1.55071
11
1.56882
21
1.54973
0
LINE
8
BLACK
6
CONTINUOUS
10
1.56882
20
1.54973
11
1.56973
21
1.54882
0
LINE
8
BLACK
6
CONTINUOUS
10
1.56973
20
1.54882
11
1.56979
21
1.54857
0
LINE
8
BLACK
6
CONTINUOUS
10
1.56979
20
1.54857
11
1.56996
21
1.54837
0
LINE
8
BLACK
6
CONTINUOUS
10
1.56996
20
1.54837
11
1.58036
21
1.52609
0
LINE
8
BLACK
6
CONTINUOUS
10
1.58036
20
1.52609
11
1.59076
21
1.54837
0
LINE
8
BLACK
6
CONTINUOUS
10
1.59076
20
1.54837
11
1.59093
21
1.54857
0
LINE
8
BLACK
6
CONTINUOUS
10
1.59093
20
1.54857
11
1.59099
21
1.54882
0
LINE
8
BLACK
6
CONTINUOUS
10
1.59099
20
1.54882
11
1.5919
21
1.54973
0
LINE
8
BLACK
6
CONTINUOUS
10
1.5919
20
1.54973
11
1.59272
21
1.55071
0
LINE
8
BLACK
6
CONTINUOUS
10
1.59272
20
1.55071
11
1.59297
21
1.5508
0
LINE
8
BLACK
6
CONTINUOUS
10
1.59297
20
1.5508
11
1.59316
21
1.55099
0
LINE
8
BLACK
6
CONTINUOUS
10
1.59316
20
1.55099
11
1.59439
21
1.55132
0
LINE
8
BLACK
6
CONTINUOUS
10
1.59439
20
1.55132
11
1.59559
21
1.55175
0
LINE
8
BLACK
6
CONTINUOUS
10
1.59559
20
1.55175
11
1.59585
21
1.55171
0
LINE
8
BLACK
6
CONTINUOUS
10
1.59585
20
1.55171
11
1.59611
21
1.55178
0
LINE
8
BLACK
6
CONTINUOUS
10
1.59611
20
1.55178
11
1.59734
21
1.55145
0
CIRCLE
8
BLACK
10
1
20
0.34
40
0.00787402
0
CIRCLE
8
BLACK
10
1.24
20
0.5
40
0.00787402
0
CIRCLE
8
BLACK
10
1.42
20
0.5
40
0.00787402
  0
ENDSEC
  0
EOF
