  0
SECTION
  2
HEADER
  9
$ANGBASE
  50
0.0
  9
$ANGDIR
  70
1
  9
$MEASUREMENT
  70
0
  0
ENDSEC
  0
SECTION
  2
TABLES
  0
TABLE
  2
LTYPE
  70
4
  0
LTYPE
  5
40F
  2
CONTINUOUS
  70
0
  3
Solid line
  72
65
  73
0
  40
0.0
  0
LTYPE
  5
410
  2
DASHDOT
 70
0
  3
Dash Dot ____ _ ____ _
 72
65
 73
4
 40
2.0
 49
1.25
 49
-0.25
 49
0.25
 49
-0.25
  0
LTYPE
  5
411
  2
DASHED
 70
0
  3
Dashed __ __ __ __ __
 72
65
 73
2
 40
0.75
 49
0.5
 49
-0.25
  0
LTYPE
  5
43B
  2
DOTTED
 70
0
  3
Dotted .  .  .  .
 72
65
 73
2
 40
0.2
 49
0.0
 49
-0.2
  0
ENDTAB
  0
TABLE
  2
STYLE
  70
4
  0
STYLE
  2
KICAD
  70
0
  40
0
  41
1
  42
1
  50
0
  71
0
  3
isocp.shx
  0
STYLE
  2
KICADB
  70
0
  40
0
  41
1
  42
1
  50
0
  71
0
  3
isocp.shx
  0
STYLE
  2
KICADI
  70
0
  40
0
  41
1
  42
1
  50
15
  71
0
  3
isocp.shx
  0
STYLE
  2
KICADBI
  70
0
  40
0
  41
1
  42
1
  50
15
  71
0
  3
isocp.shx
  0
ENDTAB
  0
TABLE
  2
LAYER
  70
1
  0
LAYER
  2
BLACK
  70
0
  62
7
  6
CONTINUOUS
  0
ENDTAB
  0
ENDSEC
  0
SECTION
  2
ENTITIES
0
LINE
8
BLACK
6
CONTINUOUS
10
0.0333333
20
1.56396
11
0.0344172
21
1.56558
0
LINE
8
BLACK
6
CONTINUOUS
10
0.0344172
20
1.56558
11
0.0360393
21
1.56667
0
LINE
8
BLACK
6
CONTINUOUS
10
0.0360393
20
1.56667
11
0.0379528
21
1.56705
0
LINE
8
BLACK
6
CONTINUOUS
10
0.0379528
20
1.56705
11
1.96205
21
1.56705
0
LINE
8
BLACK
6
CONTINUOUS
10
1.96205
20
1.56705
11
1.96396
21
1.56667
0
LINE
8
BLACK
6
CONTINUOUS
10
1.96396
20
1.56667
11
1.96558
21
1.56558
0
LINE
8
BLACK
6
CONTINUOUS
10
1.96558
20
1.56558
11
1.96667
21
1.56396
0
LINE
8
BLACK
6
CONTINUOUS
10
1.96667
20
1.56396
11
1.96705
21
1.56205
0
LINE
8
BLACK
6
CONTINUOUS
10
1.96705
20
1.56205
11
1.96705
21
0.0379528
0
LINE
8
BLACK
6
CONTINUOUS
10
1.96705
20
0.0379528
11
1.96667
21
0.0360393
0
LINE
8
BLACK
6
CONTINUOUS
10
1.96667
20
0.0360393
11
1.96558
21
0.0344172
0
LINE
8
BLACK
6
CONTINUOUS
10
1.96558
20
0.0344172
11
1.96396
21
0.0333333
0
LINE
8
BLACK
6
CONTINUOUS
10
1.96396
20
0.0333333
11
1.96205
21
0.0329528
0
LINE
8
BLACK
6
CONTINUOUS
10
1.96205
20
0.0329528
11
1.4695
21
0.0329528
0
LINE
8
BLACK
6
CONTINUOUS
10
1.4695
20
0.0329528
11
1.46117
21
0.0292974
0
LINE
8
BLACK
6
CONTINUOUS
10
1.46117
20
0.0292974
11
1.44817
21
0.0252991
0
LINE
8
BLACK
6
CONTINUOUS
10
1.44817
20
0.0252991
11
1.4348
21
0.0228211
0
LINE
8
BLACK
6
CONTINUOUS
10
1.4348
20
0.0228211
11
1.42124
21
0.0218962
0
LINE
8
BLACK
6
CONTINUOUS
10
1.42124
20
0.0218962
11
1.40765
21
0.0225368
0
LINE
8
BLACK
6
CONTINUOUS
10
1.40765
20
0.0225368
11
1.39424
21
0.0247343
0
LINE
8
BLACK
6
CONTINUOUS
10
1.39424
20
0.0247343
11
1.38116
21
0.0284595
0
LINE
8
BLACK
6
CONTINUOUS
10
1.38116
20
0.0284595
11
1.37031
21
0.0329528
0
LINE
8
BLACK
6
CONTINUOUS
10
1.37031
20
0.0329528
11
1.1095
21
0.0329528
0
LINE
8
BLACK
6
CONTINUOUS
10
1.1095
20
0.0329528
11
1.10117
21
0.0292974
0
LINE
8
BLACK
6
CONTINUOUS
10
1.10117
20
0.0292974
11
1.08817
21
0.0252991
0
LINE
8
BLACK
6
CONTINUOUS
10
1.08817
20
0.0252991
11
1.0748
21
0.0228211
0
LINE
8
BLACK
6
CONTINUOUS
10
1.0748
20
0.0228211
11
1.06124
21
0.0218962
0
LINE
8
BLACK
6
CONTINUOUS
10
1.06124
20
0.0218962
11
1.04765
21
0.0225368
0
LINE
8
BLACK
6
CONTINUOUS
10
1.04765
20
0.0225368
11
1.03424
21
0.0247343
0
LINE
8
BLACK
6
CONTINUOUS
10
1.03424
20
0.0247343
11
1.02116
21
0.0284595
0
LINE
8
BLACK
6
CONTINUOUS
10
1.02116
20
0.0284595
11
1.01031
21
0.0329528
0
LINE
8
BLACK
6
CONTINUOUS
10
1.01031
20
0.0329528
11
0.0379528
21
0.0329528
0
LINE
8
BLACK
6
CONTINUOUS
10
0.0379528
20
0.0329528
11
0.0360393
21
0.0333333
0
LINE
8
BLACK
6
CONTINUOUS
10
0.0360393
20
0.0333333
11
0.0344172
21
0.0344172
0
LINE
8
BLACK
6
CONTINUOUS
10
0.0344172
20
0.0344172
11
0.0333333
21
0.0360393
0
LINE
8
BLACK
6
CONTINUOUS
10
0.0333333
20
0.0360393
11
0.0329528
21
0.0379528
0
LINE
8
BLACK
6
CONTINUOUS
10
0.0329528
20
0.0379528
11
0.0329528
21
1.56205
0
LINE
8
BLACK
6
CONTINUOUS
10
0.0329528
20
1.56205
11
0.0333333
21
1.56396
0
LINE
8
BLACK
6
CONTINUOUS
10
0.57851
20
0.058023
11
0.605386
21
0.0468631
0
LINE
8
BLACK
6
CONTINUOUS
10
0.605386
20
0.0468631
11
0.634487
21
0.0468378
0
LINE
8
BLACK
6
CONTINUOUS
10
0.634487
20
0.0468378
11
0.661382
21
0.0579506
0
LINE
8
BLACK
6
CONTINUOUS
10
0.661382
20
0.0579506
11
0.672462
21
0.0690111
0
LINE
8
BLACK
6
CONTINUOUS
10
0.672462
20
0.0690111
11
0.674085
21
0.0700935
0
LINE
8
BLACK
6
CONTINUOUS
10
0.674085
20
0.0700935
11
0.675994
21
0.0704724
0
LINE
8
BLACK
6
CONTINUOUS
10
0.675994
20
0.0704724
11
0.764009
21
0.0704724
0
LINE
8
BLACK
6
CONTINUOUS
10
0.764009
20
0.0704724
11
0.765922
21
0.0700919
0
LINE
8
BLACK
6
CONTINUOUS
10
0.765922
20
0.0700919
11
0.767547
21
0.0690049
0
LINE
8
BLACK
6
CONTINUOUS
10
0.767547
20
0.0690049
11
0.77851
21
0.058023
0
LINE
8
BLACK
6
CONTINUOUS
10
0.77851
20
0.058023
11
0.805386
21
0.0468631
0
LINE
8
BLACK
6
CONTINUOUS
10
0.805386
20
0.0468631
11
0.834487
21
0.0468378
0
LINE
8
BLACK
6
CONTINUOUS
10
0.834487
20
0.0468378
11
0.861382
21
0.0579506
0
LINE
8
BLACK
6
CONTINUOUS
10
0.861382
20
0.0579506
11
0.881977
21
0.07851
0
LINE
8
BLACK
6
CONTINUOUS
10
0.881977
20
0.07851
11
0.893137
21
0.105386
0
LINE
8
BLACK
6
CONTINUOUS
10
0.893137
20
0.105386
11
0.893162
21
0.134487
0
LINE
8
BLACK
6
CONTINUOUS
10
0.893162
20
0.134487
11
0.882049
21
0.161382
0
LINE
8
BLACK
6
CONTINUOUS
10
0.882049
20
0.161382
11
0.870989
21
0.172462
0
LINE
8
BLACK
6
CONTINUOUS
10
0.870989
20
0.172462
11
0.869906
21
0.174085
0
LINE
8
BLACK
6
CONTINUOUS
10
0.869906
20
0.174085
11
0.869528
21
0.175994
0
LINE
8
BLACK
6
CONTINUOUS
10
0.869528
20
0.175994
11
0.869528
21
0.264009
0
LINE
8
BLACK
6
CONTINUOUS
10
0.869528
20
0.264009
11
0.869908
21
0.265922
0
LINE
8
BLACK
6
CONTINUOUS
10
0.869908
20
0.265922
11
0.870995
21
0.267547
0
LINE
8
BLACK
6
CONTINUOUS
10
0.870995
20
0.267547
11
0.881977
21
0.27851
0
LINE
8
BLACK
6
CONTINUOUS
10
0.881977
20
0.27851
11
0.893137
21
0.305386
0
LINE
8
BLACK
6
CONTINUOUS
10
0.893137
20
0.305386
11
0.893162
21
0.334487
0
LINE
8
BLACK
6
CONTINUOUS
10
0.893162
20
0.334487
11
0.882049
21
0.361382
0
LINE
8
BLACK
6
CONTINUOUS
10
0.882049
20
0.361382
11
0.86149
21
0.381977
0
LINE
8
BLACK
6
CONTINUOUS
10
0.86149
20
0.381977
11
0.834614
21
0.393137
0
LINE
8
BLACK
6
CONTINUOUS
10
0.834614
20
0.393137
11
0.805513
21
0.393162
0
LINE
8
BLACK
6
CONTINUOUS
10
0.805513
20
0.393162
11
0.778618
21
0.382049
0
LINE
8
BLACK
6
CONTINUOUS
10
0.778618
20
0.382049
11
0.767538
21
0.370989
0
LINE
8
BLACK
6
CONTINUOUS
10
0.767538
20
0.370989
11
0.765915
21
0.369906
0
LINE
8
BLACK
6
CONTINUOUS
10
0.765915
20
0.369906
11
0.764006
21
0.369528
0
LINE
8
BLACK
6
CONTINUOUS
10
0.764006
20
0.369528
11
0.675991
21
0.369528
0
LINE
8
BLACK
6
CONTINUOUS
10
0.675991
20
0.369528
11
0.674078
21
0.369908
0
LINE
8
BLACK
6
CONTINUOUS
10
0.674078
20
0.369908
11
0.672453
21
0.370995
0
LINE
8
BLACK
6
CONTINUOUS
10
0.672453
20
0.370995
11
0.66149
21
0.381977
0
LINE
8
BLACK
6
CONTINUOUS
10
0.66149
20
0.381977
11
0.634614
21
0.393137
0
LINE
8
BLACK
6
CONTINUOUS
10
0.634614
20
0.393137
11
0.605513
21
0.393162
0
LINE
8
BLACK
6
CONTINUOUS
10
0.605513
20
0.393162
11
0.578618
21
0.382049
0
LINE
8
BLACK
6
CONTINUOUS
10
0.578618
20
0.382049
11
0.568583
21
0.372031
0
LINE
8
BLACK
6
CONTINUOUS
10
0.568583
20
0.372031
11
0.568583
21
0.360236
0
LINE
8
BLACK
6
CONTINUOUS
10
0.568583
20
0.360236
11
0.557502
21
0.360236
0
LINE
8
BLACK
6
CONTINUOUS
10
0.557502
20
0.360236
11
0.546863
21
0.334614
0
LINE
8
BLACK
6
CONTINUOUS
10
0.546863
20
0.334614
11
0.546838
21
0.305513
0
LINE
8
BLACK
6
CONTINUOUS
10
0.546838
20
0.305513
11
0.557951
21
0.278618
0
LINE
8
BLACK
6
CONTINUOUS
10
0.557951
20
0.278618
11
0.569011
21
0.267538
0
LINE
8
BLACK
6
CONTINUOUS
10
0.569011
20
0.267538
11
0.570094
21
0.265915
0
LINE
8
BLACK
6
CONTINUOUS
10
0.570094
20
0.265915
11
0.570472
21
0.264006
0
LINE
8
BLACK
6
CONTINUOUS
10
0.570472
20
0.264006
11
0.570472
21
0.175991
0
LINE
8
BLACK
6
CONTINUOUS
10
0.570472
20
0.175991
11
0.570092
21
0.174078
0
LINE
8
BLACK
6
CONTINUOUS
10
0.570092
20
0.174078
11
0.569005
21
0.172453
0
LINE
8
BLACK
6
CONTINUOUS
10
0.569005
20
0.172453
11
0.558023
21
0.16149
0
LINE
8
BLACK
6
CONTINUOUS
10
0.558023
20
0.16149
11
0.546863
21
0.134614
0
LINE
8
BLACK
6
CONTINUOUS
10
0.546863
20
0.134614
11
0.546838
21
0.105513
0
LINE
8
BLACK
6
CONTINUOUS
10
0.546838
20
0.105513
11
0.557951
21
0.0786182
0
LINE
8
BLACK
6
CONTINUOUS
10
0.557951
20
0.0786182
11
0.57851
21
0.058023
0
LINE
8
BLACK
6
CONTINUOUS
10
0.829229
20
0.372342
11
0.838178
21
0.369944
0
LINE
8
BLACK
6
CONTINUOUS
10
0.838178
20
0.369944
11
0.846575
21
0.366029
0
LINE
8
BLACK
6
CONTINUOUS
10
0.846575
20
0.366029
11
0.854164
21
0.360715
0
LINE
8
BLACK
6
CONTINUOUS
10
0.854164
20
0.360715
11
0.860715
21
0.354164
0
LINE
8
BLACK
6
CONTINUOUS
10
0.860715
20
0.354164
11
0.866029
21
0.346575
0
LINE
8
BLACK
6
CONTINUOUS
10
0.866029
20
0.346575
11
0.869944
21
0.338178
0
LINE
8
BLACK
6
CONTINUOUS
10
0.869944
20
0.338178
11
0.872342
21
0.329229
0
LINE
8
BLACK
6
CONTINUOUS
10
0.872342
20
0.329229
11
0.87315
21
0.32
0
LINE
8
BLACK
6
CONTINUOUS
10
0.87315
20
0.32
11
0.872342
21
0.310771
0
LINE
8
BLACK
6
CONTINUOUS
10
0.872342
20
0.310771
11
0.869944
21
0.301822
0
LINE
8
BLACK
6
CONTINUOUS
10
0.869944
20
0.301822
11
0.866029
21
0.293425
0
LINE
8
BLACK
6
CONTINUOUS
10
0.866029
20
0.293425
11
0.860715
21
0.285836
0
LINE
8
BLACK
6
CONTINUOUS
10
0.860715
20
0.285836
11
0.854164
21
0.279285
0
LINE
8
BLACK
6
CONTINUOUS
10
0.854164
20
0.279285
11
0.849528
21
0.276039
0
LINE
8
BLACK
6
CONTINUOUS
10
0.849528
20
0.276039
11
0.849528
21
0.163961
0
LINE
8
BLACK
6
CONTINUOUS
10
0.849528
20
0.163961
11
0.854164
21
0.160715
0
LINE
8
BLACK
6
CONTINUOUS
10
0.854164
20
0.160715
11
0.860715
21
0.154164
0
LINE
8
BLACK
6
CONTINUOUS
10
0.860715
20
0.154164
11
0.866029
21
0.146575
0
LINE
8
BLACK
6
CONTINUOUS
10
0.866029
20
0.146575
11
0.869944
21
0.138178
0
LINE
8
BLACK
6
CONTINUOUS
10
0.869944
20
0.138178
11
0.872342
21
0.129229
0
LINE
8
BLACK
6
CONTINUOUS
10
0.872342
20
0.129229
11
0.87315
21
0.12
0
LINE
8
BLACK
6
CONTINUOUS
10
0.87315
20
0.12
11
0.872342
21
0.110771
0
LINE
8
BLACK
6
CONTINUOUS
10
0.872342
20
0.110771
11
0.869944
21
0.101822
0
LINE
8
BLACK
6
CONTINUOUS
10
0.869944
20
0.101822
11
0.866029
21
0.0934252
0
LINE
8
BLACK
6
CONTINUOUS
10
0.866029
20
0.0934252
11
0.860715
21
0.0858361
0
LINE
8
BLACK
6
CONTINUOUS
10
0.860715
20
0.0858361
11
0.854164
21
0.079285
0
LINE
8
BLACK
6
CONTINUOUS
10
0.854164
20
0.079285
11
0.846575
21
0.0739711
0
LINE
8
BLACK
6
CONTINUOUS
10
0.846575
20
0.0739711
11
0.838178
21
0.0700557
0
LINE
8
BLACK
6
CONTINUOUS
10
0.838178
20
0.0700557
11
0.829229
21
0.0676579
0
LINE
8
BLACK
6
CONTINUOUS
10
0.829229
20
0.0676579
11
0.82
21
0.0668504
0
LINE
8
BLACK
6
CONTINUOUS
10
0.82
20
0.0668504
11
0.810771
21
0.0676579
0
LINE
8
BLACK
6
CONTINUOUS
10
0.810771
20
0.0676579
11
0.801822
21
0.0700557
0
LINE
8
BLACK
6
CONTINUOUS
10
0.801822
20
0.0700557
11
0.793425
21
0.0739711
0
LINE
8
BLACK
6
CONTINUOUS
10
0.793425
20
0.0739711
11
0.785836
21
0.079285
0
LINE
8
BLACK
6
CONTINUOUS
10
0.785836
20
0.079285
11
0.779285
21
0.0858361
0
LINE
8
BLACK
6
CONTINUOUS
10
0.779285
20
0.0858361
11
0.776039
21
0.0904724
0
LINE
8
BLACK
6
CONTINUOUS
10
0.776039
20
0.0904724
11
0.663961
21
0.0904724
0
LINE
8
BLACK
6
CONTINUOUS
10
0.663961
20
0.0904724
11
0.660715
21
0.0858361
0
LINE
8
BLACK
6
CONTINUOUS
10
0.660715
20
0.0858361
11
0.654164
21
0.079285
0
LINE
8
BLACK
6
CONTINUOUS
10
0.654164
20
0.079285
11
0.646575
21
0.0739711
0
LINE
8
BLACK
6
CONTINUOUS
10
0.646575
20
0.0739711
11
0.638178
21
0.0700557
0
LINE
8
BLACK
6
CONTINUOUS
10
0.638178
20
0.0700557
11
0.629229
21
0.0676579
0
LINE
8
BLACK
6
CONTINUOUS
10
0.629229
20
0.0676579
11
0.62
21
0.0668504
0
LINE
8
BLACK
6
CONTINUOUS
10
0.62
20
0.0668504
11
0.610771
21
0.0676579
0
LINE
8
BLACK
6
CONTINUOUS
10
0.610771
20
0.0676579
11
0.601822
21
0.0700557
0
LINE
8
BLACK
6
CONTINUOUS
10
0.601822
20
0.0700557
11
0.593425
21
0.0739711
0
LINE
8
BLACK
6
CONTINUOUS
10
0.593425
20
0.0739711
11
0.585836
21
0.079285
0
LINE
8
BLACK
6
CONTINUOUS
10
0.585836
20
0.079285
11
0.579285
21
0.0858361
0
LINE
8
BLACK
6
CONTINUOUS
10
0.579285
20
0.0858361
11
0.573971
21
0.0934252
0
LINE
8
BLACK
6
CONTINUOUS
10
0.573971
20
0.0934252
11
0.570056
21
0.101822
0
LINE
8
BLACK
6
CONTINUOUS
10
0.570056
20
0.101822
11
0.567658
21
0.110771
0
LINE
8
BLACK
6
CONTINUOUS
10
0.567658
20
0.110771
11
0.56685
21
0.12
0
LINE
8
BLACK
6
CONTINUOUS
10
0.56685
20
0.12
11
0.567658
21
0.129229
0
LINE
8
BLACK
6
CONTINUOUS
10
0.567658
20
0.129229
11
0.570056
21
0.138178
0
LINE
8
BLACK
6
CONTINUOUS
10
0.570056
20
0.138178
11
0.573971
21
0.146575
0
LINE
8
BLACK
6
CONTINUOUS
10
0.573971
20
0.146575
11
0.579285
21
0.154164
0
LINE
8
BLACK
6
CONTINUOUS
10
0.579285
20
0.154164
11
0.585836
21
0.160715
0
LINE
8
BLACK
6
CONTINUOUS
10
0.585836
20
0.160715
11
0.590472
21
0.163961
0
LINE
8
BLACK
6
CONTINUOUS
10
0.590472
20
0.163961
11
0.590472
21
0.276039
0
LINE
8
BLACK
6
CONTINUOUS
10
0.590472
20
0.276039
11
0.585836
21
0.279285
0
LINE
8
BLACK
6
CONTINUOUS
10
0.585836
20
0.279285
11
0.579285
21
0.285836
0
LINE
8
BLACK
6
CONTINUOUS
10
0.579285
20
0.285836
11
0.573971
21
0.293425
0
LINE
8
BLACK
6
CONTINUOUS
10
0.573971
20
0.293425
11
0.570056
21
0.301822
0
LINE
8
BLACK
6
CONTINUOUS
10
0.570056
20
0.301822
11
0.567658
21
0.310771
0
LINE
8
BLACK
6
CONTINUOUS
10
0.567658
20
0.310771
11
0.56685
21
0.32
0
LINE
8
BLACK
6
CONTINUOUS
10
0.56685
20
0.32
11
0.567658
21
0.329229
0
LINE
8
BLACK
6
CONTINUOUS
10
0.567658
20
0.329229
11
0.570056
21
0.338178
0
LINE
8
BLACK
6
CONTINUOUS
10
0.570056
20
0.338178
11
0.573971
21
0.346575
0
LINE
8
BLACK
6
CONTINUOUS
10
0.573971
20
0.346575
11
0.579285
21
0.354164
0
LINE
8
BLACK
6
CONTINUOUS
10
0.579285
20
0.354164
11
0.585836
21
0.360715
0
LINE
8
BLACK
6
CONTINUOUS
10
0.585836
20
0.360715
11
0.593425
21
0.366029
0
LINE
8
BLACK
6
CONTINUOUS
10
0.593425
20
0.366029
11
0.601822
21
0.369944
0
LINE
8
BLACK
6
CONTINUOUS
10
0.601822
20
0.369944
11
0.610771
21
0.372342
0
LINE
8
BLACK
6
CONTINUOUS
10
0.610771
20
0.372342
11
0.62
21
0.37315
0
LINE
8
BLACK
6
CONTINUOUS
10
0.62
20
0.37315
11
0.629229
21
0.372342
0
LINE
8
BLACK
6
CONTINUOUS
10
0.629229
20
0.372342
11
0.638178
21
0.369944
0
LINE
8
BLACK
6
CONTINUOUS
10
0.638178
20
0.369944
11
0.646575
21
0.366029
0
LINE
8
BLACK
6
CONTINUOUS
10
0.646575
20
0.366029
11
0.654164
21
0.360715
0
LINE
8
BLACK
6
CONTINUOUS
10
0.654164
20
0.360715
11
0.660715
21
0.354164
0
LINE
8
BLACK
6
CONTINUOUS
10
0.660715
20
0.354164
11
0.663961
21
0.349528
0
LINE
8
BLACK
6
CONTINUOUS
10
0.663961
20
0.349528
11
0.776039
21
0.349528
0
LINE
8
BLACK
6
CONTINUOUS
10
0.776039
20
0.349528
11
0.779285
21
0.354164
0
LINE
8
BLACK
6
CONTINUOUS
10
0.779285
20
0.354164
11
0.785836
21
0.360715
0
LINE
8
BLACK
6
CONTINUOUS
10
0.785836
20
0.360715
11
0.793425
21
0.366029
0
LINE
8
BLACK
6
CONTINUOUS
10
0.793425
20
0.366029
11
0.801822
21
0.369944
0
LINE
8
BLACK
6
CONTINUOUS
10
0.801822
20
0.369944
11
0.810771
21
0.372342
0
LINE
8
BLACK
6
CONTINUOUS
10
0.810771
20
0.372342
11
0.82
21
0.37315
0
LINE
8
BLACK
6
CONTINUOUS
10
0.82
20
0.37315
11
0.829229
21
0.372342
0
LINE
8
BLACK
6
CONTINUOUS
10
0.663961
20
0.290472
11
0.660715
21
0.285836
0
LINE
8
BLACK
6
CONTINUOUS
10
0.660715
20
0.285836
11
0.654164
21
0.279285
0
LINE
8
BLACK
6
CONTINUOUS
10
0.654164
20
0.279285
11
0.649528
21
0.276039
0
LINE
8
BLACK
6
CONTINUOUS
10
0.649528
20
0.276039
11
0.649528
21
0.163961
0
LINE
8
BLACK
6
CONTINUOUS
10
0.649528
20
0.163961
11
0.654164
21
0.160715
0
LINE
8
BLACK
6
CONTINUOUS
10
0.654164
20
0.160715
11
0.660715
21
0.154164
0
LINE
8
BLACK
6
CONTINUOUS
10
0.660715
20
0.154164
11
0.663961
21
0.149528
0
LINE
8
BLACK
6
CONTINUOUS
10
0.663961
20
0.149528
11
0.776039
21
0.149528
0
LINE
8
BLACK
6
CONTINUOUS
10
0.776039
20
0.149528
11
0.779285
21
0.154164
0
LINE
8
BLACK
6
CONTINUOUS
10
0.779285
20
0.154164
11
0.785836
21
0.160715
0
LINE
8
BLACK
6
CONTINUOUS
10
0.785836
20
0.160715
11
0.790472
21
0.163961
0
LINE
8
BLACK
6
CONTINUOUS
10
0.790472
20
0.163961
11
0.790472
21
0.276039
0
LINE
8
BLACK
6
CONTINUOUS
10
0.790472
20
0.276039
11
0.785836
21
0.279285
0
LINE
8
BLACK
6
CONTINUOUS
10
0.785836
20
0.279285
11
0.779285
21
0.285836
0
LINE
8
BLACK
6
CONTINUOUS
10
0.779285
20
0.285836
11
0.776039
21
0.290472
0
LINE
8
BLACK
6
CONTINUOUS
10
0.776039
20
0.290472
11
0.663961
21
0.290472
0
LINE
8
BLACK
6
CONTINUOUS
10
0.728546
20
0.268465
11
0.736832
21
0.266245
0
LINE
8
BLACK
6
CONTINUOUS
10
0.736832
20
0.266245
11
0.744606
21
0.262619
0
LINE
8
BLACK
6
CONTINUOUS
10
0.744606
20
0.262619
11
0.751633
21
0.257699
0
LINE
8
BLACK
6
CONTINUOUS
10
0.751633
20
0.257699
11
0.757699
21
0.251633
0
LINE
8
BLACK
6
CONTINUOUS
10
0.757699
20
0.251633
11
0.762619
21
0.244606
0
LINE
8
BLACK
6
CONTINUOUS
10
0.762619
20
0.244606
11
0.766245
21
0.236832
0
LINE
8
BLACK
6
CONTINUOUS
10
0.766245
20
0.236832
11
0.768465
21
0.228546
0
LINE
8
BLACK
6
CONTINUOUS
10
0.768465
20
0.228546
11
0.769213
21
0.22
0
LINE
8
BLACK
6
CONTINUOUS
10
0.769213
20
0.22
11
0.768465
21
0.211454
0
LINE
8
BLACK
6
CONTINUOUS
10
0.768465
20
0.211454
11
0.766245
21
0.203168
0
LINE
8
BLACK
6
CONTINUOUS
10
0.766245
20
0.203168
11
0.762619
21
0.195394
0
LINE
8
BLACK
6
CONTINUOUS
10
0.762619
20
0.195394
11
0.757699
21
0.188367
0
LINE
8
BLACK
6
CONTINUOUS
10
0.757699
20
0.188367
11
0.751633
21
0.182301
0
LINE
8
BLACK
6
CONTINUOUS
10
0.751633
20
0.182301
11
0.744606
21
0.177381
0
LINE
8
BLACK
6
CONTINUOUS
10
0.744606
20
0.177381
11
0.736832
21
0.173755
0
LINE
8
BLACK
6
CONTINUOUS
10
0.736832
20
0.173755
11
0.728546
21
0.171535
0
LINE
8
BLACK
6
CONTINUOUS
10
0.728546
20
0.171535
11
0.72
21
0.170787
0
LINE
8
BLACK
6
CONTINUOUS
10
0.72
20
0.170787
11
0.711454
21
0.171535
0
LINE
8
BLACK
6
CONTINUOUS
10
0.711454
20
0.171535
11
0.703168
21
0.173755
0
LINE
8
BLACK
6
CONTINUOUS
10
0.703168
20
0.173755
11
0.695394
21
0.177381
0
LINE
8
BLACK
6
CONTINUOUS
10
0.695394
20
0.177381
11
0.688367
21
0.182301
0
LINE
8
BLACK
6
CONTINUOUS
10
0.688367
20
0.182301
11
0.682301
21
0.188367
0
LINE
8
BLACK
6
CONTINUOUS
10
0.682301
20
0.188367
11
0.677381
21
0.195394
0
LINE
8
BLACK
6
CONTINUOUS
10
0.677381
20
0.195394
11
0.673755
21
0.203168
0
LINE
8
BLACK
6
CONTINUOUS
10
0.673755
20
0.203168
11
0.671535
21
0.211454
0
LINE
8
BLACK
6
CONTINUOUS
10
0.671535
20
0.211454
11
0.670787
21
0.22
0
LINE
8
BLACK
6
CONTINUOUS
10
0.670787
20
0.22
11
0.671535
21
0.228546
0
LINE
8
BLACK
6
CONTINUOUS
10
0.671535
20
0.228546
11
0.673755
21
0.236832
0
LINE
8
BLACK
6
CONTINUOUS
10
0.673755
20
0.236832
11
0.677381
21
0.244606
0
LINE
8
BLACK
6
CONTINUOUS
10
0.677381
20
0.244606
11
0.682301
21
0.251633
0
LINE
8
BLACK
6
CONTINUOUS
10
0.682301
20
0.251633
11
0.688367
21
0.257699
0
LINE
8
BLACK
6
CONTINUOUS
10
0.688367
20
0.257699
11
0.695394
21
0.262619
0
LINE
8
BLACK
6
CONTINUOUS
10
0.695394
20
0.262619
11
0.703168
21
0.266245
0
LINE
8
BLACK
6
CONTINUOUS
10
0.703168
20
0.266245
11
0.711454
21
0.268465
0
LINE
8
BLACK
6
CONTINUOUS
10
0.711454
20
0.268465
11
0.72
21
0.269213
0
LINE
8
BLACK
6
CONTINUOUS
10
0.72
20
0.269213
11
0.728546
21
0.268465
0
CIRCLE
8
BLACK
10
1
20
0.34
40
0.00787402
0
CIRCLE
8
BLACK
10
1.24
20
0.5
40
0.00787402
0
CIRCLE
8
BLACK
10
1.42
20
0.5
40
0.00787402
  0
ENDSEC
  0
EOF
