  0
SECTION
  2
HEADER
  9
$ANGBASE
  50
0.0
  9
$ANGDIR
  70
1
  9
$MEASUREMENT
  70
0
  0
ENDSEC
  0
SECTION
  2
TABLES
  0
TABLE
  2
LTYPE
  70
4
  0
LTYPE
  5
40F
  2
CONTINUOUS
  70
0
  3
Solid line
  72
65
  73
0
  40
0.0
  0
LTYPE
  5
410
  2
DASHDOT
 70
0
  3
Dash Dot ____ _ ____ _
 72
65
 73
4
 40
2.0
 49
1.25
 49
-0.25
 49
0.25
 49
-0.25
  0
LTYPE
  5
411
  2
DASHED
 70
0
  3
Dashed __ __ __ __ __
 72
65
 73
2
 40
0.75
 49
0.5
 49
-0.25
  0
LTYPE
  5
43B
  2
DOTTED
 70
0
  3
Dotted .  .  .  .
 72
65
 73
2
 40
0.2
 49
0.0
 49
-0.2
  0
ENDTAB
  0
TABLE
  2
STYLE
  70
4
  0
STYLE
  2
KICAD
  70
0
  40
0
  41
1
  42
1
  50
0
  71
0
  3
isocp.shx
  0
STYLE
  2
KICADB
  70
0
  40
0
  41
1
  42
1
  50
0
  71
0
  3
isocp.shx
  0
STYLE
  2
KICADI
  70
0
  40
0
  41
1
  42
1
  50
15
  71
0
  3
isocp.shx
  0
STYLE
  2
KICADBI
  70
0
  40
0
  41
1
  42
1
  50
15
  71
0
  3
isocp.shx
  0
ENDTAB
  0
TABLE
  2
LAYER
  70
1
  0
LAYER
  2
BLACK
  70
0
  62
7
  6
CONTINUOUS
  0
ENDTAB
  0
ENDSEC
  0
SECTION
  2
ENTITIES
0
CIRCLE
8
BLACK
10
5.73622
20
-3.45669
40
0.0570866
0
CIRCLE
8
BLACK
10
5.86439
20
-3.51646
40
0.0610236
0
CIRCLE
8
BLACK
10
5.60805
20
-3.39693
40
0.0610236
0
CIRCLE
8
BLACK
10
5.67645
20
-3.58486
40
0.0610236
0
CIRCLE
8
BLACK
10
5.79599
20
-3.32852
40
0.0610236
0
LINE
8
BLACK
6
CONTINUOUS
10
5.52488
20
-3.57488
11
5.52428
21
-3.5779
0
LINE
8
BLACK
6
CONTINUOUS
10
5.52428
20
-3.5779
11
5.52258
21
-3.58045
0
LINE
8
BLACK
6
CONTINUOUS
10
5.52258
20
-3.58045
11
5.52002
21
-3.58216
0
LINE
8
BLACK
6
CONTINUOUS
10
5.52002
20
-3.58216
11
5.51701
21
-3.58276
0
LINE
8
BLACK
6
CONTINUOUS
10
5.51701
20
-3.58276
11
5.45701
21
-3.58276
0
LINE
8
BLACK
6
CONTINUOUS
10
5.45701
20
-3.58276
11
5.45399
21
-3.58216
0
LINE
8
BLACK
6
CONTINUOUS
10
5.45399
20
-3.58216
11
5.45144
21
-3.58045
0
LINE
8
BLACK
6
CONTINUOUS
10
5.45144
20
-3.58045
11
5.44973
21
-3.5779
0
LINE
8
BLACK
6
CONTINUOUS
10
5.44973
20
-3.5779
11
5.44913
21
-3.57488
0
LINE
8
BLACK
6
CONTINUOUS
10
5.44913
20
-3.57488
11
5.44913
21
-3.51488
0
LINE
8
BLACK
6
CONTINUOUS
10
5.44913
20
-3.51488
11
5.44973
21
-3.51187
0
LINE
8
BLACK
6
CONTINUOUS
10
5.44973
20
-3.51187
11
5.45144
21
-3.50931
0
LINE
8
BLACK
6
CONTINUOUS
10
5.45144
20
-3.50931
11
5.45399
21
-3.50761
0
LINE
8
BLACK
6
CONTINUOUS
10
5.45399
20
-3.50761
11
5.45701
21
-3.50701
0
LINE
8
BLACK
6
CONTINUOUS
10
5.45701
20
-3.50701
11
5.51701
21
-3.50701
0
LINE
8
BLACK
6
CONTINUOUS
10
5.51701
20
-3.50701
11
5.52002
21
-3.50761
0
LINE
8
BLACK
6
CONTINUOUS
10
5.52002
20
-3.50761
11
5.52258
21
-3.50931
0
LINE
8
BLACK
6
CONTINUOUS
10
5.52258
20
-3.50931
11
5.52428
21
-3.51187
0
LINE
8
BLACK
6
CONTINUOUS
10
5.52428
20
-3.51187
11
5.52488
21
-3.51488
0
LINE
8
BLACK
6
CONTINUOUS
10
5.52488
20
-3.51488
11
5.52488
21
-3.57488
0
LINE
8
BLACK
6
CONTINUOUS
10
5.42488
20
-3.57488
11
5.42428
21
-3.5779
0
LINE
8
BLACK
6
CONTINUOUS
10
5.42428
20
-3.5779
11
5.42258
21
-3.58045
0
LINE
8
BLACK
6
CONTINUOUS
10
5.42258
20
-3.58045
11
5.42002
21
-3.58216
0
LINE
8
BLACK
6
CONTINUOUS
10
5.42002
20
-3.58216
11
5.41701
21
-3.58276
0
LINE
8
BLACK
6
CONTINUOUS
10
5.41701
20
-3.58276
11
5.35701
21
-3.58276
0
LINE
8
BLACK
6
CONTINUOUS
10
5.35701
20
-3.58276
11
5.35399
21
-3.58216
0
LINE
8
BLACK
6
CONTINUOUS
10
5.35399
20
-3.58216
11
5.35144
21
-3.58045
0
LINE
8
BLACK
6
CONTINUOUS
10
5.35144
20
-3.58045
11
5.34973
21
-3.5779
0
LINE
8
BLACK
6
CONTINUOUS
10
5.34973
20
-3.5779
11
5.34913
21
-3.57488
0
LINE
8
BLACK
6
CONTINUOUS
10
5.34913
20
-3.57488
11
5.34913
21
-3.51488
0
LINE
8
BLACK
6
CONTINUOUS
10
5.34913
20
-3.51488
11
5.34973
21
-3.51187
0
LINE
8
BLACK
6
CONTINUOUS
10
5.34973
20
-3.51187
11
5.35144
21
-3.50931
0
LINE
8
BLACK
6
CONTINUOUS
10
5.35144
20
-3.50931
11
5.35399
21
-3.50761
0
LINE
8
BLACK
6
CONTINUOUS
10
5.35399
20
-3.50761
11
5.35701
21
-3.50701
0
LINE
8
BLACK
6
CONTINUOUS
10
5.35701
20
-3.50701
11
5.41701
21
-3.50701
0
LINE
8
BLACK
6
CONTINUOUS
10
5.41701
20
-3.50701
11
5.42002
21
-3.50761
0
LINE
8
BLACK
6
CONTINUOUS
10
5.42002
20
-3.50761
11
5.42258
21
-3.50931
0
LINE
8
BLACK
6
CONTINUOUS
10
5.42258
20
-3.50931
11
5.42428
21
-3.51187
0
LINE
8
BLACK
6
CONTINUOUS
10
5.42428
20
-3.51187
11
5.42488
21
-3.51488
0
LINE
8
BLACK
6
CONTINUOUS
10
5.42488
20
-3.51488
11
5.42488
21
-3.57488
0
LINE
8
BLACK
6
CONTINUOUS
10
5.52488
20
-3.47488
11
5.52428
21
-3.4779
0
LINE
8
BLACK
6
CONTINUOUS
10
5.52428
20
-3.4779
11
5.52258
21
-3.48045
0
LINE
8
BLACK
6
CONTINUOUS
10
5.52258
20
-3.48045
11
5.52002
21
-3.48216
0
LINE
8
BLACK
6
CONTINUOUS
10
5.52002
20
-3.48216
11
5.51701
21
-3.48276
0
LINE
8
BLACK
6
CONTINUOUS
10
5.51701
20
-3.48276
11
5.45701
21
-3.48276
0
LINE
8
BLACK
6
CONTINUOUS
10
5.45701
20
-3.48276
11
5.45399
21
-3.48216
0
LINE
8
BLACK
6
CONTINUOUS
10
5.45399
20
-3.48216
11
5.45144
21
-3.48045
0
LINE
8
BLACK
6
CONTINUOUS
10
5.45144
20
-3.48045
11
5.44973
21
-3.4779
0
LINE
8
BLACK
6
CONTINUOUS
10
5.44973
20
-3.4779
11
5.44913
21
-3.47488
0
LINE
8
BLACK
6
CONTINUOUS
10
5.44913
20
-3.47488
11
5.44913
21
-3.41488
0
LINE
8
BLACK
6
CONTINUOUS
10
5.44913
20
-3.41488
11
5.44973
21
-3.41187
0
LINE
8
BLACK
6
CONTINUOUS
10
5.44973
20
-3.41187
11
5.45144
21
-3.40931
0
LINE
8
BLACK
6
CONTINUOUS
10
5.45144
20
-3.40931
11
5.45399
21
-3.40761
0
LINE
8
BLACK
6
CONTINUOUS
10
5.45399
20
-3.40761
11
5.45701
21
-3.40701
0
LINE
8
BLACK
6
CONTINUOUS
10
5.45701
20
-3.40701
11
5.51701
21
-3.40701
0
LINE
8
BLACK
6
CONTINUOUS
10
5.51701
20
-3.40701
11
5.52002
21
-3.40761
0
LINE
8
BLACK
6
CONTINUOUS
10
5.52002
20
-3.40761
11
5.52258
21
-3.40931
0
LINE
8
BLACK
6
CONTINUOUS
10
5.52258
20
-3.40931
11
5.52428
21
-3.41187
0
LINE
8
BLACK
6
CONTINUOUS
10
5.52428
20
-3.41187
11
5.52488
21
-3.41488
0
LINE
8
BLACK
6
CONTINUOUS
10
5.52488
20
-3.41488
11
5.52488
21
-3.47488
0
LINE
8
BLACK
6
CONTINUOUS
10
5.42488
20
-3.47488
11
5.42428
21
-3.4779
0
LINE
8
BLACK
6
CONTINUOUS
10
5.42428
20
-3.4779
11
5.42258
21
-3.48045
0
LINE
8
BLACK
6
CONTINUOUS
10
5.42258
20
-3.48045
11
5.42002
21
-3.48216
0
LINE
8
BLACK
6
CONTINUOUS
10
5.42002
20
-3.48216
11
5.41701
21
-3.48276
0
LINE
8
BLACK
6
CONTINUOUS
10
5.41701
20
-3.48276
11
5.35701
21
-3.48276
0
LINE
8
BLACK
6
CONTINUOUS
10
5.35701
20
-3.48276
11
5.35399
21
-3.48216
0
LINE
8
BLACK
6
CONTINUOUS
10
5.35399
20
-3.48216
11
5.35144
21
-3.48045
0
LINE
8
BLACK
6
CONTINUOUS
10
5.35144
20
-3.48045
11
5.34973
21
-3.4779
0
LINE
8
BLACK
6
CONTINUOUS
10
5.34973
20
-3.4779
11
5.34913
21
-3.47488
0
LINE
8
BLACK
6
CONTINUOUS
10
5.34913
20
-3.47488
11
5.34913
21
-3.41488
0
LINE
8
BLACK
6
CONTINUOUS
10
5.34913
20
-3.41488
11
5.34973
21
-3.41187
0
LINE
8
BLACK
6
CONTINUOUS
10
5.34973
20
-3.41187
11
5.35144
21
-3.40931
0
LINE
8
BLACK
6
CONTINUOUS
10
5.35144
20
-3.40931
11
5.35399
21
-3.40761
0
LINE
8
BLACK
6
CONTINUOUS
10
5.35399
20
-3.40761
11
5.35701
21
-3.40701
0
LINE
8
BLACK
6
CONTINUOUS
10
5.35701
20
-3.40701
11
5.41701
21
-3.40701
0
LINE
8
BLACK
6
CONTINUOUS
10
5.41701
20
-3.40701
11
5.42002
21
-3.40761
0
LINE
8
BLACK
6
CONTINUOUS
10
5.42002
20
-3.40761
11
5.42258
21
-3.40931
0
LINE
8
BLACK
6
CONTINUOUS
10
5.42258
20
-3.40931
11
5.42428
21
-3.41187
0
LINE
8
BLACK
6
CONTINUOUS
10
5.42428
20
-3.41187
11
5.42488
21
-3.41488
0
LINE
8
BLACK
6
CONTINUOUS
10
5.42488
20
-3.41488
11
5.42488
21
-3.47488
0
LINE
8
BLACK
6
CONTINUOUS
10
5.52488
20
-3.37488
11
5.52428
21
-3.3779
0
LINE
8
BLACK
6
CONTINUOUS
10
5.52428
20
-3.3779
11
5.52258
21
-3.38045
0
LINE
8
BLACK
6
CONTINUOUS
10
5.52258
20
-3.38045
11
5.52002
21
-3.38216
0
LINE
8
BLACK
6
CONTINUOUS
10
5.52002
20
-3.38216
11
5.51701
21
-3.38276
0
LINE
8
BLACK
6
CONTINUOUS
10
5.51701
20
-3.38276
11
5.45701
21
-3.38276
0
LINE
8
BLACK
6
CONTINUOUS
10
5.45701
20
-3.38276
11
5.45399
21
-3.38216
0
LINE
8
BLACK
6
CONTINUOUS
10
5.45399
20
-3.38216
11
5.45144
21
-3.38045
0
LINE
8
BLACK
6
CONTINUOUS
10
5.45144
20
-3.38045
11
5.44973
21
-3.3779
0
LINE
8
BLACK
6
CONTINUOUS
10
5.44973
20
-3.3779
11
5.44913
21
-3.37488
0
LINE
8
BLACK
6
CONTINUOUS
10
5.44913
20
-3.37488
11
5.44913
21
-3.31488
0
LINE
8
BLACK
6
CONTINUOUS
10
5.44913
20
-3.31488
11
5.44973
21
-3.31187
0
LINE
8
BLACK
6
CONTINUOUS
10
5.44973
20
-3.31187
11
5.45144
21
-3.30931
0
LINE
8
BLACK
6
CONTINUOUS
10
5.45144
20
-3.30931
11
5.45399
21
-3.30761
0
LINE
8
BLACK
6
CONTINUOUS
10
5.45399
20
-3.30761
11
5.45701
21
-3.30701
0
LINE
8
BLACK
6
CONTINUOUS
10
5.45701
20
-3.30701
11
5.51701
21
-3.30701
0
LINE
8
BLACK
6
CONTINUOUS
10
5.51701
20
-3.30701
11
5.52002
21
-3.30761
0
LINE
8
BLACK
6
CONTINUOUS
10
5.52002
20
-3.30761
11
5.52258
21
-3.30931
0
LINE
8
BLACK
6
CONTINUOUS
10
5.52258
20
-3.30931
11
5.52428
21
-3.31187
0
LINE
8
BLACK
6
CONTINUOUS
10
5.52428
20
-3.31187
11
5.52488
21
-3.31488
0
LINE
8
BLACK
6
CONTINUOUS
10
5.52488
20
-3.31488
11
5.52488
21
-3.37488
0
LINE
8
BLACK
6
CONTINUOUS
10
5.42488
20
-3.37488
11
5.42428
21
-3.3779
0
LINE
8
BLACK
6
CONTINUOUS
10
5.42428
20
-3.3779
11
5.42258
21
-3.38045
0
LINE
8
BLACK
6
CONTINUOUS
10
5.42258
20
-3.38045
11
5.42002
21
-3.38216
0
LINE
8
BLACK
6
CONTINUOUS
10
5.42002
20
-3.38216
11
5.41701
21
-3.38276
0
LINE
8
BLACK
6
CONTINUOUS
10
5.41701
20
-3.38276
11
5.35701
21
-3.38276
0
LINE
8
BLACK
6
CONTINUOUS
10
5.35701
20
-3.38276
11
5.35399
21
-3.38216
0
LINE
8
BLACK
6
CONTINUOUS
10
5.35399
20
-3.38216
11
5.35144
21
-3.38045
0
LINE
8
BLACK
6
CONTINUOUS
10
5.35144
20
-3.38045
11
5.34973
21
-3.3779
0
LINE
8
BLACK
6
CONTINUOUS
10
5.34973
20
-3.3779
11
5.34913
21
-3.37488
0
LINE
8
BLACK
6
CONTINUOUS
10
5.34913
20
-3.37488
11
5.34913
21
-3.31488
0
LINE
8
BLACK
6
CONTINUOUS
10
5.34913
20
-3.31488
11
5.34973
21
-3.31187
0
LINE
8
BLACK
6
CONTINUOUS
10
5.34973
20
-3.31187
11
5.35144
21
-3.30931
0
LINE
8
BLACK
6
CONTINUOUS
10
5.35144
20
-3.30931
11
5.35399
21
-3.30761
0
LINE
8
BLACK
6
CONTINUOUS
10
5.35399
20
-3.30761
11
5.35701
21
-3.30701
0
LINE
8
BLACK
6
CONTINUOUS
10
5.35701
20
-3.30701
11
5.41701
21
-3.30701
0
LINE
8
BLACK
6
CONTINUOUS
10
5.41701
20
-3.30701
11
5.42002
21
-3.30761
0
LINE
8
BLACK
6
CONTINUOUS
10
5.42002
20
-3.30761
11
5.42258
21
-3.30931
0
LINE
8
BLACK
6
CONTINUOUS
10
5.42258
20
-3.30931
11
5.42428
21
-3.31187
0
LINE
8
BLACK
6
CONTINUOUS
10
5.42428
20
-3.31187
11
5.42488
21
-3.31488
0
LINE
8
BLACK
6
CONTINUOUS
10
5.42488
20
-3.31488
11
5.42488
21
-3.37488
0
CIRCLE
8
BLACK
10
6.42012
20
-3.44508
40
0.125984
0
CIRCLE
8
BLACK
10
6.42012
20
-5.04508
40
0.125984
0
CIRCLE
8
BLACK
10
4.82012
20
-3.44508
40
0.125984
0
CIRCLE
8
BLACK
10
4.82012
20
-5.04508
40
0.125984
0
LINE
8
BLACK
6
CONTINUOUS
10
6.32433
20
-4.7889
11
6.32493
21
-4.78588
0
LINE
8
BLACK
6
CONTINUOUS
10
6.32493
20
-4.78588
11
6.32664
21
-4.78333
0
LINE
8
BLACK
6
CONTINUOUS
10
6.32664
20
-4.78333
11
6.32919
21
-4.78162
0
LINE
8
BLACK
6
CONTINUOUS
10
6.32919
20
-4.78162
11
6.3322
21
-4.78102
0
LINE
8
BLACK
6
CONTINUOUS
10
6.3322
20
-4.78102
11
6.3922
21
-4.78102
0
LINE
8
BLACK
6
CONTINUOUS
10
6.3922
20
-4.78102
11
6.39522
21
-4.78162
0
LINE
8
BLACK
6
CONTINUOUS
10
6.39522
20
-4.78162
11
6.39777
21
-4.78333
0
LINE
8
BLACK
6
CONTINUOUS
10
6.39777
20
-4.78333
11
6.39948
21
-4.78588
0
LINE
8
BLACK
6
CONTINUOUS
10
6.39948
20
-4.78588
11
6.40008
21
-4.7889
0
LINE
8
BLACK
6
CONTINUOUS
10
6.40008
20
-4.7889
11
6.40008
21
-4.8489
0
LINE
8
BLACK
6
CONTINUOUS
10
6.40008
20
-4.8489
11
6.39948
21
-4.85191
0
LINE
8
BLACK
6
CONTINUOUS
10
6.39948
20
-4.85191
11
6.39777
21
-4.85447
0
LINE
8
BLACK
6
CONTINUOUS
10
6.39777
20
-4.85447
11
6.39522
21
-4.85617
0
LINE
8
BLACK
6
CONTINUOUS
10
6.39522
20
-4.85617
11
6.3922
21
-4.85677
0
LINE
8
BLACK
6
CONTINUOUS
10
6.3922
20
-4.85677
11
6.3322
21
-4.85677
0
LINE
8
BLACK
6
CONTINUOUS
10
6.3322
20
-4.85677
11
6.32919
21
-4.85617
0
LINE
8
BLACK
6
CONTINUOUS
10
6.32919
20
-4.85617
11
6.32664
21
-4.85447
0
LINE
8
BLACK
6
CONTINUOUS
10
6.32664
20
-4.85447
11
6.32493
21
-4.85191
0
LINE
8
BLACK
6
CONTINUOUS
10
6.32493
20
-4.85191
11
6.32433
21
-4.8489
0
LINE
8
BLACK
6
CONTINUOUS
10
6.32433
20
-4.8489
11
6.32433
21
-4.7889
0
LINE
8
BLACK
6
CONTINUOUS
10
6.0448
20
-3.44244
11
6.0454
21
-3.43943
0
LINE
8
BLACK
6
CONTINUOUS
10
6.0454
20
-3.43943
11
6.04711
21
-3.43687
0
LINE
8
BLACK
6
CONTINUOUS
10
6.04711
20
-3.43687
11
6.04966
21
-3.43517
0
LINE
8
BLACK
6
CONTINUOUS
10
6.04966
20
-3.43517
11
6.05268
21
-3.43457
0
LINE
8
BLACK
6
CONTINUOUS
10
6.05268
20
-3.43457
11
6.11268
21
-3.43457
0
LINE
8
BLACK
6
CONTINUOUS
10
6.11268
20
-3.43457
11
6.11569
21
-3.43517
0
LINE
8
BLACK
6
CONTINUOUS
10
6.11569
20
-3.43517
11
6.11824
21
-3.43687
0
LINE
8
BLACK
6
CONTINUOUS
10
6.11824
20
-3.43687
11
6.11995
21
-3.43943
0
LINE
8
BLACK
6
CONTINUOUS
10
6.11995
20
-3.43943
11
6.12055
21
-3.44244
0
LINE
8
BLACK
6
CONTINUOUS
10
6.12055
20
-3.44244
11
6.12055
21
-3.50244
0
LINE
8
BLACK
6
CONTINUOUS
10
6.12055
20
-3.50244
11
6.11995
21
-3.50545
0
LINE
8
BLACK
6
CONTINUOUS
10
6.11995
20
-3.50545
11
6.11824
21
-3.50801
0
LINE
8
BLACK
6
CONTINUOUS
10
6.11824
20
-3.50801
11
6.11569
21
-3.50972
0
LINE
8
BLACK
6
CONTINUOUS
10
6.11569
20
-3.50972
11
6.11268
21
-3.51031
0
LINE
8
BLACK
6
CONTINUOUS
10
6.11268
20
-3.51031
11
6.05268
21
-3.51031
0
LINE
8
BLACK
6
CONTINUOUS
10
6.05268
20
-3.51031
11
6.04966
21
-3.50972
0
LINE
8
BLACK
6
CONTINUOUS
10
6.04966
20
-3.50972
11
6.04711
21
-3.50801
0
LINE
8
BLACK
6
CONTINUOUS
10
6.04711
20
-3.50801
11
6.0454
21
-3.50545
0
LINE
8
BLACK
6
CONTINUOUS
10
6.0454
20
-3.50545
11
6.0448
21
-3.50244
0
LINE
8
BLACK
6
CONTINUOUS
10
6.0448
20
-3.50244
11
6.0448
21
-3.44244
0
CIRCLE
8
BLACK
10
6.2126
20
-4.32323
40
0.0393701
0
CIRCLE
8
BLACK
10
6.2126
20
-4.62323
40
0.0393701
0
CIRCLE
8
BLACK
10
6.2126
20
-3.72323
40
0.0393701
0
CIRCLE
8
BLACK
10
5.96063
20
-4.47323
40
0.0393701
0
CIRCLE
8
BLACK
10
5.96063
20
-3.87323
40
0.0393701
0
CIRCLE
8
BLACK
10
6.2126
20
-4.02323
40
0.0393701
0
CIRCLE
8
BLACK
10
6.08661
20
-3.64823
40
0.0570866
0
CIRCLE
8
BLACK
10
6.08661
20
-3.79823
40
0.0570866
0
CIRCLE
8
BLACK
10
6.08661
20
-3.94823
40
0.0570866
0
CIRCLE
8
BLACK
10
6.08661
20
-4.09823
40
0.0570866
0
CIRCLE
8
BLACK
10
6.08661
20
-4.24823
40
0.0570866
0
CIRCLE
8
BLACK
10
6.08661
20
-4.39823
40
0.0570866
0
CIRCLE
8
BLACK
10
6.08661
20
-4.54823
40
0.0570866
0
CIRCLE
8
BLACK
10
6.08661
20
-4.69823
40
0.0570866
0
LINE
8
BLACK
6
CONTINUOUS
10
5.11173
20
-3.4385
11
5.11233
21
-3.43549
0
LINE
8
BLACK
6
CONTINUOUS
10
5.11233
20
-3.43549
11
5.11404
21
-3.43294
0
LINE
8
BLACK
6
CONTINUOUS
10
5.11404
20
-3.43294
11
5.11659
21
-3.43123
0
LINE
8
BLACK
6
CONTINUOUS
10
5.11659
20
-3.43123
11
5.11961
21
-3.43063
0
LINE
8
BLACK
6
CONTINUOUS
10
5.11961
20
-3.43063
11
5.17961
21
-3.43063
0
LINE
8
BLACK
6
CONTINUOUS
10
5.17961
20
-3.43063
11
5.18262
21
-3.43123
0
LINE
8
BLACK
6
CONTINUOUS
10
5.18262
20
-3.43123
11
5.18517
21
-3.43294
0
LINE
8
BLACK
6
CONTINUOUS
10
5.18517
20
-3.43294
11
5.18688
21
-3.43549
0
LINE
8
BLACK
6
CONTINUOUS
10
5.18688
20
-3.43549
11
5.18748
21
-3.4385
0
LINE
8
BLACK
6
CONTINUOUS
10
5.18748
20
-3.4385
11
5.18748
21
-3.4985
0
LINE
8
BLACK
6
CONTINUOUS
10
5.18748
20
-3.4985
11
5.18688
21
-3.50152
0
LINE
8
BLACK
6
CONTINUOUS
10
5.18688
20
-3.50152
11
5.18517
21
-3.50407
0
LINE
8
BLACK
6
CONTINUOUS
10
5.18517
20
-3.50407
11
5.18262
21
-3.50578
0
LINE
8
BLACK
6
CONTINUOUS
10
5.18262
20
-3.50578
11
5.17961
21
-3.50638
0
LINE
8
BLACK
6
CONTINUOUS
10
5.17961
20
-3.50638
11
5.11961
21
-3.50638
0
LINE
8
BLACK
6
CONTINUOUS
10
5.11961
20
-3.50638
11
5.11659
21
-3.50578
0
LINE
8
BLACK
6
CONTINUOUS
10
5.11659
20
-3.50578
11
5.11404
21
-3.50407
0
LINE
8
BLACK
6
CONTINUOUS
10
5.11404
20
-3.50407
11
5.11233
21
-3.50152
0
LINE
8
BLACK
6
CONTINUOUS
10
5.11233
20
-3.50152
11
5.11173
21
-3.4985
0
LINE
8
BLACK
6
CONTINUOUS
10
5.11173
20
-3.4985
11
5.11173
21
-3.4385
0
CIRCLE
8
BLACK
10
5.02724
20
-4.47323
40
0.0393701
0
CIRCLE
8
BLACK
10
5.27921
20
-4.32323
40
0.0393701
0
CIRCLE
8
BLACK
10
5.27921
20
-3.72323
40
0.0393701
0
CIRCLE
8
BLACK
10
5.02724
20
-3.87323
40
0.0393701
0
CIRCLE
8
BLACK
10
5.27921
20
-4.62323
40
0.0393701
0
CIRCLE
8
BLACK
10
5.27921
20
-4.02323
40
0.0393701
0
CIRCLE
8
BLACK
10
5.15323
20
-3.64823
40
0.0570866
0
CIRCLE
8
BLACK
10
5.15323
20
-3.79823
40
0.0570866
0
CIRCLE
8
BLACK
10
5.15323
20
-3.94823
40
0.0570866
0
CIRCLE
8
BLACK
10
5.15323
20
-4.09823
40
0.0570866
0
CIRCLE
8
BLACK
10
5.15323
20
-4.24823
40
0.0570866
0
CIRCLE
8
BLACK
10
5.15323
20
-4.39823
40
0.0570866
0
CIRCLE
8
BLACK
10
5.15323
20
-4.54823
40
0.0570866
0
CIRCLE
8
BLACK
10
5.15323
20
-4.69823
40
0.0570866
0
CIRCLE
8
BLACK
10
5.17012
20
-4.90157
40
0.0393701
0
CIRCLE
8
BLACK
10
6.07012
20
-4.90157
40
0.0393701
0
CIRCLE
8
BLACK
10
5.77012
20
-4.90157
40
0.0393701
0
CIRCLE
8
BLACK
10
5.32012
20
-5.15354
40
0.0393701
0
CIRCLE
8
BLACK
10
5.92012
20
-5.15354
40
0.0393701
0
CIRCLE
8
BLACK
10
5.47012
20
-4.90157
40
0.0393701
0
CIRCLE
8
BLACK
10
5.09512
20
-5.02756
40
0.0570866
0
CIRCLE
8
BLACK
10
5.24512
20
-5.02756
40
0.0570866
0
CIRCLE
8
BLACK
10
5.39512
20
-5.02756
40
0.0570866
0
CIRCLE
8
BLACK
10
5.54512
20
-5.02756
40
0.0570866
0
CIRCLE
8
BLACK
10
5.69512
20
-5.02756
40
0.0570866
0
CIRCLE
8
BLACK
10
5.84512
20
-5.02756
40
0.0570866
0
CIRCLE
8
BLACK
10
5.99512
20
-5.02756
40
0.0570866
0
CIRCLE
8
BLACK
10
6.14512
20
-5.02756
40
0.0570866
  0
ENDSEC
  0
EOF
