  0
SECTION
  2
HEADER
  9
$ANGBASE
  50
0.0
  9
$ANGDIR
  70
1
  9
$MEASUREMENT
  70
0
  0
ENDSEC
  0
SECTION
  2
TABLES
  0
TABLE
  2
LTYPE
  70
4
  0
LTYPE
  5
40F
  2
CONTINUOUS
  70
0
  3
Solid line
  72
65
  73
0
  40
0.0
  0
LTYPE
  5
410
  2
DASHDOT
 70
0
  3
Dash Dot ____ _ ____ _
 72
65
 73
4
 40
2.0
 49
1.25
 49
-0.25
 49
0.25
 49
-0.25
  0
LTYPE
  5
411
  2
DASHED
 70
0
  3
Dashed __ __ __ __ __
 72
65
 73
2
 40
0.75
 49
0.5
 49
-0.25
  0
LTYPE
  5
43B
  2
DOTTED
 70
0
  3
Dotted .  .  .  .
 72
65
 73
2
 40
0.2
 49
0.0
 49
-0.2
  0
ENDTAB
  0
TABLE
  2
STYLE
  70
4
  0
STYLE
  2
KICAD
  70
0
  40
0
  41
1
  42
1
  50
0
  71
0
  3
isocp.shx
  0
STYLE
  2
KICADB
  70
0
  40
0
  41
1
  42
1
  50
0
  71
0
  3
isocp.shx
  0
STYLE
  2
KICADI
  70
0
  40
0
  41
1
  42
1
  50
15
  71
0
  3
isocp.shx
  0
STYLE
  2
KICADBI
  70
0
  40
0
  41
1
  42
1
  50
15
  71
0
  3
isocp.shx
  0
ENDTAB
  0
TABLE
  2
LAYER
  70
1
  0
LAYER
  2
BLACK
  70
0
  62
7
  6
CONTINUOUS
  0
ENDTAB
  0
ENDSEC
  0
SECTION
  2
ENTITIES
0
LINE
8
BLACK
6
CONTINUOUS
10
1.42865
20
0.257793
11
1.44213
21
0.256018
0
LINE
8
BLACK
6
CONTINUOUS
10
1.44213
20
0.256018
11
1.45532
21
0.252706
0
LINE
8
BLACK
6
CONTINUOUS
10
1.45532
20
0.252706
11
1.46804
21
0.247899
0
LINE
8
BLACK
6
CONTINUOUS
10
1.46804
20
0.247899
11
1.48012
21
0.241662
0
LINE
8
BLACK
6
CONTINUOUS
10
1.48012
20
0.241662
11
1.49141
21
0.234078
0
LINE
8
BLACK
6
CONTINUOUS
10
1.49141
20
0.234078
11
1.50175
21
0.225247
0
LINE
8
BLACK
6
CONTINUOUS
10
1.50175
20
0.225247
11
1.51101
21
0.215286
0
LINE
8
BLACK
6
CONTINUOUS
10
1.51101
20
0.215286
11
1.51906
21
0.204327
0
LINE
8
BLACK
6
CONTINUOUS
10
1.51906
20
0.204327
11
1.52579
21
0.192516
0
LINE
8
BLACK
6
CONTINUOUS
10
1.52579
20
0.192516
11
1.53113
21
0.180008
0
LINE
8
BLACK
6
CONTINUOUS
10
1.53113
20
0.180008
11
1.53499
21
0.166971
0
LINE
8
BLACK
6
CONTINUOUS
10
1.53499
20
0.166971
11
1.53733
21
0.153575
0
LINE
8
BLACK
6
CONTINUOUS
10
1.53733
20
0.153575
11
1.53811
21
0.14
0
LINE
8
BLACK
6
CONTINUOUS
10
1.53811
20
0.14
11
1.53788
21
0.132584
0
LINE
8
BLACK
6
CONTINUOUS
10
1.53788
20
0.132584
11
1.53624
21
0.119084
0
LINE
8
BLACK
6
CONTINUOUS
10
1.53624
20
0.119084
11
1.53307
21
0.105862
0
LINE
8
BLACK
6
CONTINUOUS
10
1.53307
20
0.105862
11
1.5284
21
0.0930928
0
LINE
8
BLACK
6
CONTINUOUS
10
1.5284
20
0.0930928
11
1.52229
21
0.0809449
0
LINE
8
BLACK
6
CONTINUOUS
10
1.52229
20
0.0809449
11
1.51482
21
0.0695797
0
LINE
8
BLACK
6
CONTINUOUS
10
1.51482
20
0.0695797
11
1.5061
21
0.059148
0
LINE
8
BLACK
6
CONTINUOUS
10
1.5061
20
0.059148
11
1.49624
21
0.0497879
0
LINE
8
BLACK
6
CONTINUOUS
10
1.49624
20
0.0497879
11
1.48536
21
0.0416235
0
LINE
8
BLACK
6
CONTINUOUS
10
1.48536
20
0.0416235
11
1.47362
21
0.034763
0
LINE
8
BLACK
6
CONTINUOUS
10
1.47362
20
0.034763
11
1.46117
21
0.0292974
0
LINE
8
BLACK
6
CONTINUOUS
10
1.46117
20
0.0292974
11
1.44817
21
0.0252991
0
LINE
8
BLACK
6
CONTINUOUS
10
1.44817
20
0.0252991
11
1.4348
21
0.0228211
0
LINE
8
BLACK
6
CONTINUOUS
10
1.4348
20
0.0228211
11
1.42124
21
0.0218962
0
LINE
8
BLACK
6
CONTINUOUS
10
1.42124
20
0.0218962
11
1.40765
21
0.0225368
0
LINE
8
BLACK
6
CONTINUOUS
10
1.40765
20
0.0225368
11
1.39424
21
0.0247343
0
LINE
8
BLACK
6
CONTINUOUS
10
1.39424
20
0.0247343
11
1.38116
21
0.0284595
0
LINE
8
BLACK
6
CONTINUOUS
10
1.38116
20
0.0284595
11
1.36859
21
0.0336631
0
LINE
8
BLACK
6
CONTINUOUS
10
1.36859
20
0.0336631
11
1.35671
21
0.0402762
0
LINE
8
BLACK
6
CONTINUOUS
10
1.35671
20
0.0402762
11
1.34567
21
0.0482111
0
LINE
8
BLACK
6
CONTINUOUS
10
1.34567
20
0.0482111
11
1.33561
21
0.0573626
0
LINE
8
BLACK
6
CONTINUOUS
10
1.33561
20
0.0573626
11
1.32667
21
0.0676094
0
LINE
8
BLACK
6
CONTINUOUS
10
1.32667
20
0.0676094
11
1.31897
21
0.0788157
0
LINE
8
BLACK
6
CONTINUOUS
10
1.31897
20
0.0788157
11
1.31261
21
0.090833
0
LINE
8
BLACK
6
CONTINUOUS
10
1.31261
20
0.090833
11
1.30767
21
0.103502
0
LINE
8
BLACK
6
CONTINUOUS
10
1.30767
20
0.103502
11
1.30422
21
0.116655
0
LINE
8
BLACK
6
CONTINUOUS
10
1.30422
20
0.116655
11
1.3023
21
0.130117
0
LINE
8
BLACK
6
CONTINUOUS
10
1.3023
20
0.130117
11
1.30195
21
0.14371
0
LINE
8
BLACK
6
CONTINUOUS
10
1.30195
20
0.14371
11
1.30316
21
0.157254
0
LINE
8
BLACK
6
CONTINUOUS
10
1.30316
20
0.157254
11
1.30591
21
0.170569
0
LINE
8
BLACK
6
CONTINUOUS
10
1.30591
20
0.170569
11
1.31018
21
0.183479
0
LINE
8
BLACK
6
CONTINUOUS
10
1.31018
20
0.183479
11
1.31591
21
0.195813
0
LINE
8
BLACK
6
CONTINUOUS
10
1.31591
20
0.195813
11
1.32301
21
0.207407
0
LINE
8
BLACK
6
CONTINUOUS
10
1.32301
20
0.207407
11
1.3314
21
0.218108
0
LINE
8
BLACK
6
CONTINUOUS
10
1.3314
20
0.218108
11
1.34097
21
0.227773
0
LINE
8
BLACK
6
CONTINUOUS
10
1.34097
20
0.227773
11
1.35158
21
0.236275
0
LINE
8
BLACK
6
CONTINUOUS
10
1.35158
20
0.236275
11
1.3631
21
0.243501
0
LINE
8
BLACK
6
CONTINUOUS
10
1.3631
20
0.243501
11
1.37537
21
0.249355
0
LINE
8
BLACK
6
CONTINUOUS
10
1.37537
20
0.249355
11
1.38824
21
0.253759
0
LINE
8
BLACK
6
CONTINUOUS
10
1.38824
20
0.253759
11
1.40152
21
0.256656
0
LINE
8
BLACK
6
CONTINUOUS
10
1.40152
20
0.256656
11
1.41505
21
0.258007
0
LINE
8
BLACK
6
CONTINUOUS
10
1.41505
20
0.258007
11
1.42865
21
0.257793
0
LINE
8
BLACK
6
CONTINUOUS
10
1.06865
20
0.257793
11
1.08213
21
0.256018
0
LINE
8
BLACK
6
CONTINUOUS
10
1.08213
20
0.256018
11
1.09532
21
0.252706
0
LINE
8
BLACK
6
CONTINUOUS
10
1.09532
20
0.252706
11
1.10804
21
0.247899
0
LINE
8
BLACK
6
CONTINUOUS
10
1.10804
20
0.247899
11
1.12012
21
0.241662
0
LINE
8
BLACK
6
CONTINUOUS
10
1.12012
20
0.241662
11
1.13141
21
0.234078
0
LINE
8
BLACK
6
CONTINUOUS
10
1.13141
20
0.234078
11
1.14175
21
0.225247
0
LINE
8
BLACK
6
CONTINUOUS
10
1.14175
20
0.225247
11
1.15101
21
0.215286
0
LINE
8
BLACK
6
CONTINUOUS
10
1.15101
20
0.215286
11
1.15906
21
0.204327
0
LINE
8
BLACK
6
CONTINUOUS
10
1.15906
20
0.204327
11
1.16579
21
0.192516
0
LINE
8
BLACK
6
CONTINUOUS
10
1.16579
20
0.192516
11
1.17113
21
0.180008
0
LINE
8
BLACK
6
CONTINUOUS
10
1.17113
20
0.180008
11
1.17499
21
0.166971
0
LINE
8
BLACK
6
CONTINUOUS
10
1.17499
20
0.166971
11
1.17733
21
0.153575
0
LINE
8
BLACK
6
CONTINUOUS
10
1.17733
20
0.153575
11
1.17811
21
0.14
0
LINE
8
BLACK
6
CONTINUOUS
10
1.17811
20
0.14
11
1.17788
21
0.132584
0
LINE
8
BLACK
6
CONTINUOUS
10
1.17788
20
0.132584
11
1.17624
21
0.119084
0
LINE
8
BLACK
6
CONTINUOUS
10
1.17624
20
0.119084
11
1.17307
21
0.105862
0
LINE
8
BLACK
6
CONTINUOUS
10
1.17307
20
0.105862
11
1.1684
21
0.0930928
0
LINE
8
BLACK
6
CONTINUOUS
10
1.1684
20
0.0930928
11
1.16229
21
0.0809449
0
LINE
8
BLACK
6
CONTINUOUS
10
1.16229
20
0.0809449
11
1.15482
21
0.0695797
0
LINE
8
BLACK
6
CONTINUOUS
10
1.15482
20
0.0695797
11
1.1461
21
0.059148
0
LINE
8
BLACK
6
CONTINUOUS
10
1.1461
20
0.059148
11
1.13624
21
0.0497879
0
LINE
8
BLACK
6
CONTINUOUS
10
1.13624
20
0.0497879
11
1.12536
21
0.0416235
0
LINE
8
BLACK
6
CONTINUOUS
10
1.12536
20
0.0416235
11
1.11362
21
0.034763
0
LINE
8
BLACK
6
CONTINUOUS
10
1.11362
20
0.034763
11
1.10117
21
0.0292974
0
LINE
8
BLACK
6
CONTINUOUS
10
1.10117
20
0.0292974
11
1.08817
21
0.0252991
0
LINE
8
BLACK
6
CONTINUOUS
10
1.08817
20
0.0252991
11
1.0748
21
0.0228211
0
LINE
8
BLACK
6
CONTINUOUS
10
1.0748
20
0.0228211
11
1.06124
21
0.0218962
0
LINE
8
BLACK
6
CONTINUOUS
10
1.06124
20
0.0218962
11
1.04765
21
0.0225368
0
LINE
8
BLACK
6
CONTINUOUS
10
1.04765
20
0.0225368
11
1.03424
21
0.0247343
0
LINE
8
BLACK
6
CONTINUOUS
10
1.03424
20
0.0247343
11
1.02116
21
0.0284595
0
LINE
8
BLACK
6
CONTINUOUS
10
1.02116
20
0.0284595
11
1.00859
21
0.0336631
0
LINE
8
BLACK
6
CONTINUOUS
10
1.00859
20
0.0336631
11
0.996713
21
0.0402762
0
LINE
8
BLACK
6
CONTINUOUS
10
0.996713
20
0.0402762
11
0.985671
21
0.0482111
0
LINE
8
BLACK
6
CONTINUOUS
10
0.985671
20
0.0482111
11
0.975613
21
0.0573626
0
LINE
8
BLACK
6
CONTINUOUS
10
0.975613
20
0.0573626
11
0.966675
21
0.0676094
0
LINE
8
BLACK
6
CONTINUOUS
10
0.966675
20
0.0676094
11
0.958973
21
0.0788157
0
LINE
8
BLACK
6
CONTINUOUS
10
0.958973
20
0.0788157
11
0.95261
21
0.090833
0
LINE
8
BLACK
6
CONTINUOUS
10
0.95261
20
0.090833
11
0.94767
21
0.103502
0
LINE
8
BLACK
6
CONTINUOUS
10
0.94767
20
0.103502
11
0.94422
21
0.116655
0
LINE
8
BLACK
6
CONTINUOUS
10
0.94422
20
0.116655
11
0.942304
21
0.130117
0
LINE
8
BLACK
6
CONTINUOUS
10
0.942304
20
0.130117
11
0.941948
21
0.14371
0
LINE
8
BLACK
6
CONTINUOUS
10
0.941948
20
0.14371
11
0.943157
21
0.157254
0
LINE
8
BLACK
6
CONTINUOUS
10
0.943157
20
0.157254
11
0.945914
21
0.170569
0
LINE
8
BLACK
6
CONTINUOUS
10
0.945914
20
0.170569
11
0.950184
21
0.183479
0
LINE
8
BLACK
6
CONTINUOUS
10
0.950184
20
0.183479
11
0.955909
21
0.195813
0
LINE
8
BLACK
6
CONTINUOUS
10
0.955909
20
0.195813
11
0.963014
21
0.207407
0
LINE
8
BLACK
6
CONTINUOUS
10
0.963014
20
0.207407
11
0.971404
21
0.218108
0
LINE
8
BLACK
6
CONTINUOUS
10
0.971404
20
0.218108
11
0.980969
21
0.227773
0
LINE
8
BLACK
6
CONTINUOUS
10
0.980969
20
0.227773
11
0.991581
21
0.236275
0
LINE
8
BLACK
6
CONTINUOUS
10
0.991581
20
0.236275
11
1.0031
21
0.243501
0
LINE
8
BLACK
6
CONTINUOUS
10
1.0031
20
0.243501
11
1.01537
21
0.249355
0
LINE
8
BLACK
6
CONTINUOUS
10
1.01537
20
0.249355
11
1.02824
21
0.253759
0
LINE
8
BLACK
6
CONTINUOUS
10
1.02824
20
0.253759
11
1.04152
21
0.256656
0
LINE
8
BLACK
6
CONTINUOUS
10
1.04152
20
0.256656
11
1.05505
21
0.258007
0
LINE
8
BLACK
6
CONTINUOUS
10
1.05505
20
0.258007
11
1.06865
21
0.257793
0
LINE
8
BLACK
6
CONTINUOUS
10
1.80865
20
0.317793
11
1.82213
21
0.316018
0
LINE
8
BLACK
6
CONTINUOUS
10
1.82213
20
0.316018
11
1.83532
21
0.312706
0
LINE
8
BLACK
6
CONTINUOUS
10
1.83532
20
0.312706
11
1.84804
21
0.307899
0
LINE
8
BLACK
6
CONTINUOUS
10
1.84804
20
0.307899
11
1.86012
21
0.301662
0
LINE
8
BLACK
6
CONTINUOUS
10
1.86012
20
0.301662
11
1.87141
21
0.294078
0
LINE
8
BLACK
6
CONTINUOUS
10
1.87141
20
0.294078
11
1.88175
21
0.285247
0
LINE
8
BLACK
6
CONTINUOUS
10
1.88175
20
0.285247
11
1.89101
21
0.275286
0
LINE
8
BLACK
6
CONTINUOUS
10
1.89101
20
0.275286
11
1.89906
21
0.264327
0
LINE
8
BLACK
6
CONTINUOUS
10
1.89906
20
0.264327
11
1.90579
21
0.252516
0
LINE
8
BLACK
6
CONTINUOUS
10
1.90579
20
0.252516
11
1.91113
21
0.240008
0
LINE
8
BLACK
6
CONTINUOUS
10
1.91113
20
0.240008
11
1.91499
21
0.226971
0
LINE
8
BLACK
6
CONTINUOUS
10
1.91499
20
0.226971
11
1.91733
21
0.213575
0
LINE
8
BLACK
6
CONTINUOUS
10
1.91733
20
0.213575
11
1.91811
21
0.2
0
LINE
8
BLACK
6
CONTINUOUS
10
1.91811
20
0.2
11
1.91788
21
0.192584
0
LINE
8
BLACK
6
CONTINUOUS
10
1.91788
20
0.192584
11
1.91624
21
0.179084
0
LINE
8
BLACK
6
CONTINUOUS
10
1.91624
20
0.179084
11
1.91307
21
0.165862
0
LINE
8
BLACK
6
CONTINUOUS
10
1.91307
20
0.165862
11
1.9084
21
0.153093
0
LINE
8
BLACK
6
CONTINUOUS
10
1.9084
20
0.153093
11
1.90229
21
0.140945
0
LINE
8
BLACK
6
CONTINUOUS
10
1.90229
20
0.140945
11
1.89482
21
0.12958
0
LINE
8
BLACK
6
CONTINUOUS
10
1.89482
20
0.12958
11
1.8861
21
0.119148
0
LINE
8
BLACK
6
CONTINUOUS
10
1.8861
20
0.119148
11
1.87624
21
0.109788
0
LINE
8
BLACK
6
CONTINUOUS
10
1.87624
20
0.109788
11
1.86536
21
0.101623
0
LINE
8
BLACK
6
CONTINUOUS
10
1.86536
20
0.101623
11
1.85362
21
0.094763
0
LINE
8
BLACK
6
CONTINUOUS
10
1.85362
20
0.094763
11
1.84117
21
0.0892974
0
LINE
8
BLACK
6
CONTINUOUS
10
1.84117
20
0.0892974
11
1.82817
21
0.0852991
0
LINE
8
BLACK
6
CONTINUOUS
10
1.82817
20
0.0852991
11
1.8148
21
0.0828211
0
LINE
8
BLACK
6
CONTINUOUS
10
1.8148
20
0.0828211
11
1.80124
21
0.0818962
0
LINE
8
BLACK
6
CONTINUOUS
10
1.80124
20
0.0818962
11
1.78765
21
0.0825368
0
LINE
8
BLACK
6
CONTINUOUS
10
1.78765
20
0.0825368
11
1.77424
21
0.0847343
0
LINE
8
BLACK
6
CONTINUOUS
10
1.77424
20
0.0847343
11
1.76116
21
0.0884595
0
LINE
8
BLACK
6
CONTINUOUS
10
1.76116
20
0.0884595
11
1.74859
21
0.0936631
0
LINE
8
BLACK
6
CONTINUOUS
10
1.74859
20
0.0936631
11
1.73671
21
0.100276
0
LINE
8
BLACK
6
CONTINUOUS
10
1.73671
20
0.100276
11
1.72567
21
0.108211
0
LINE
8
BLACK
6
CONTINUOUS
10
1.72567
20
0.108211
11
1.71561
21
0.117363
0
LINE
8
BLACK
6
CONTINUOUS
10
1.71561
20
0.117363
11
1.70667
21
0.127609
0
LINE
8
BLACK
6
CONTINUOUS
10
1.70667
20
0.127609
11
1.69897
21
0.138816
0
LINE
8
BLACK
6
CONTINUOUS
10
1.69897
20
0.138816
11
1.69261
21
0.150833
0
LINE
8
BLACK
6
CONTINUOUS
10
1.69261
20
0.150833
11
1.68767
21
0.163502
0
LINE
8
BLACK
6
CONTINUOUS
10
1.68767
20
0.163502
11
1.68422
21
0.176655
0
LINE
8
BLACK
6
CONTINUOUS
10
1.68422
20
0.176655
11
1.6823
21
0.190117
0
LINE
8
BLACK
6
CONTINUOUS
10
1.6823
20
0.190117
11
1.68195
21
0.20371
0
LINE
8
BLACK
6
CONTINUOUS
10
1.68195
20
0.20371
11
1.68316
21
0.217254
0
LINE
8
BLACK
6
CONTINUOUS
10
1.68316
20
0.217254
11
1.68591
21
0.230569
0
LINE
8
BLACK
6
CONTINUOUS
10
1.68591
20
0.230569
11
1.69018
21
0.243479
0
LINE
8
BLACK
6
CONTINUOUS
10
1.69018
20
0.243479
11
1.69591
21
0.255813
0
LINE
8
BLACK
6
CONTINUOUS
10
1.69591
20
0.255813
11
1.70301
21
0.267407
0
LINE
8
BLACK
6
CONTINUOUS
10
1.70301
20
0.267407
11
1.7114
21
0.278108
0
LINE
8
BLACK
6
CONTINUOUS
10
1.7114
20
0.278108
11
1.72097
21
0.287773
0
LINE
8
BLACK
6
CONTINUOUS
10
1.72097
20
0.287773
11
1.73158
21
0.296275
0
LINE
8
BLACK
6
CONTINUOUS
10
1.73158
20
0.296275
11
1.7431
21
0.303501
0
LINE
8
BLACK
6
CONTINUOUS
10
1.7431
20
0.303501
11
1.75537
21
0.309355
0
LINE
8
BLACK
6
CONTINUOUS
10
1.75537
20
0.309355
11
1.76824
21
0.313759
0
LINE
8
BLACK
6
CONTINUOUS
10
1.76824
20
0.313759
11
1.78152
21
0.316656
0
LINE
8
BLACK
6
CONTINUOUS
10
1.78152
20
0.316656
11
1.79505
21
0.318007
0
LINE
8
BLACK
6
CONTINUOUS
10
1.79505
20
0.318007
11
1.80865
21
0.317793
0
LINE
8
BLACK
6
CONTINUOUS
10
0.20865
20
0.317793
11
0.222132
21
0.316018
0
LINE
8
BLACK
6
CONTINUOUS
10
0.222132
20
0.316018
11
0.23532
21
0.312706
0
LINE
8
BLACK
6
CONTINUOUS
10
0.23532
20
0.312706
11
0.24804
21
0.307899
0
LINE
8
BLACK
6
CONTINUOUS
10
0.24804
20
0.307899
11
0.260123
21
0.301662
0
LINE
8
BLACK
6
CONTINUOUS
10
0.260123
20
0.301662
11
0.271409
21
0.294078
0
LINE
8
BLACK
6
CONTINUOUS
10
0.271409
20
0.294078
11
0.281749
21
0.285247
0
LINE
8
BLACK
6
CONTINUOUS
10
0.281749
20
0.285247
11
0.291006
21
0.275286
0
LINE
8
BLACK
6
CONTINUOUS
10
0.291006
20
0.275286
11
0.299056
21
0.264327
0
LINE
8
BLACK
6
CONTINUOUS
10
0.299056
20
0.264327
11
0.305793
21
0.252516
0
LINE
8
BLACK
6
CONTINUOUS
10
0.305793
20
0.252516
11
0.311128
21
0.240008
0
LINE
8
BLACK
6
CONTINUOUS
10
0.311128
20
0.240008
11
0.31499
21
0.226971
0
LINE
8
BLACK
6
CONTINUOUS
10
0.31499
20
0.226971
11
0.317327
21
0.213575
0
LINE
8
BLACK
6
CONTINUOUS
10
0.317327
20
0.213575
11
0.31811
21
0.2
0
LINE
8
BLACK
6
CONTINUOUS
10
0.31811
20
0.2
11
0.317877
21
0.192584
0
LINE
8
BLACK
6
CONTINUOUS
10
0.317877
20
0.192584
11
0.316244
21
0.179084
0
LINE
8
BLACK
6
CONTINUOUS
10
0.316244
20
0.179084
11
0.313069
21
0.165862
0
LINE
8
BLACK
6
CONTINUOUS
10
0.313069
20
0.165862
11
0.308396
21
0.153093
0
LINE
8
BLACK
6
CONTINUOUS
10
0.308396
20
0.153093
11
0.302286
21
0.140945
0
LINE
8
BLACK
6
CONTINUOUS
10
0.302286
20
0.140945
11
0.294821
21
0.12958
0
LINE
8
BLACK
6
CONTINUOUS
10
0.294821
20
0.12958
11
0.286099
21
0.119148
0
LINE
8
BLACK
6
CONTINUOUS
10
0.286099
20
0.119148
11
0.276235
21
0.109788
0
LINE
8
BLACK
6
CONTINUOUS
10
0.276235
20
0.109788
11
0.265361
21
0.101623
0
LINE
8
BLACK
6
CONTINUOUS
10
0.265361
20
0.101623
11
0.253621
21
0.094763
0
LINE
8
BLACK
6
CONTINUOUS
10
0.253621
20
0.094763
11
0.24117
21
0.0892974
0
LINE
8
BLACK
6
CONTINUOUS
10
0.24117
20
0.0892974
11
0.228173
21
0.0852991
0
LINE
8
BLACK
6
CONTINUOUS
10
0.228173
20
0.0852991
11
0.214803
21
0.0828211
0
LINE
8
BLACK
6
CONTINUOUS
10
0.214803
20
0.0828211
11
0.201237
21
0.0818962
0
LINE
8
BLACK
6
CONTINUOUS
10
0.201237
20
0.0818962
11
0.187654
21
0.0825368
0
LINE
8
BLACK
6
CONTINUOUS
10
0.187654
20
0.0825368
11
0.174235
21
0.0847343
0
LINE
8
BLACK
6
CONTINUOUS
10
0.174235
20
0.0847343
11
0.161157
21
0.0884595
0
LINE
8
BLACK
6
CONTINUOUS
10
0.161157
20
0.0884595
11
0.148595
21
0.0936631
0
LINE
8
BLACK
6
CONTINUOUS
10
0.148595
20
0.0936631
11
0.136713
21
0.100276
0
LINE
8
BLACK
6
CONTINUOUS
10
0.136713
20
0.100276
11
0.125671
21
0.108211
0
LINE
8
BLACK
6
CONTINUOUS
10
0.125671
20
0.108211
11
0.115613
21
0.117363
0
LINE
8
BLACK
6
CONTINUOUS
10
0.115613
20
0.117363
11
0.106675
21
0.127609
0
LINE
8
BLACK
6
CONTINUOUS
10
0.106675
20
0.127609
11
0.0989727
21
0.138816
0
LINE
8
BLACK
6
CONTINUOUS
10
0.0989727
20
0.138816
11
0.0926099
21
0.150833
0
LINE
8
BLACK
6
CONTINUOUS
10
0.0926099
20
0.150833
11
0.0876705
21
0.163502
0
LINE
8
BLACK
6
CONTINUOUS
10
0.0876705
20
0.163502
11
0.0842199
21
0.176655
0
LINE
8
BLACK
6
CONTINUOUS
10
0.0842199
20
0.176655
11
0.082304
21
0.190117
0
LINE
8
BLACK
6
CONTINUOUS
10
0.082304
20
0.190117
11
0.081948
21
0.20371
0
LINE
8
BLACK
6
CONTINUOUS
10
0.081948
20
0.20371
11
0.0831568
21
0.217254
0
LINE
8
BLACK
6
CONTINUOUS
10
0.0831568
20
0.217254
11
0.0859143
21
0.230569
0
LINE
8
BLACK
6
CONTINUOUS
10
0.0859143
20
0.230569
11
0.0901839
21
0.243479
0
LINE
8
BLACK
6
CONTINUOUS
10
0.0901839
20
0.243479
11
0.0959091
21
0.255813
0
LINE
8
BLACK
6
CONTINUOUS
10
0.0959091
20
0.255813
11
0.103014
21
0.267407
0
LINE
8
BLACK
6
CONTINUOUS
10
0.103014
20
0.267407
11
0.111404
21
0.278108
0
LINE
8
BLACK
6
CONTINUOUS
10
0.111404
20
0.278108
11
0.120969
21
0.287773
0
LINE
8
BLACK
6
CONTINUOUS
10
0.120969
20
0.287773
11
0.131581
21
0.296275
0
LINE
8
BLACK
6
CONTINUOUS
10
0.131581
20
0.296275
11
0.1431
21
0.303501
0
LINE
8
BLACK
6
CONTINUOUS
10
0.1431
20
0.303501
11
0.155373
21
0.309355
0
LINE
8
BLACK
6
CONTINUOUS
10
0.155373
20
0.309355
11
0.168238
21
0.313759
0
LINE
8
BLACK
6
CONTINUOUS
10
0.168238
20
0.313759
11
0.181524
21
0.316656
0
LINE
8
BLACK
6
CONTINUOUS
10
0.181524
20
0.316656
11
0.195054
21
0.318007
0
LINE
8
BLACK
6
CONTINUOUS
10
0.195054
20
0.318007
11
0.20865
21
0.317793
0
LINE
8
BLACK
6
CONTINUOUS
10
1.80865
20
0.737793
11
1.82213
21
0.736018
0
LINE
8
BLACK
6
CONTINUOUS
10
1.82213
20
0.736018
11
1.83532
21
0.732706
0
LINE
8
BLACK
6
CONTINUOUS
10
1.83532
20
0.732706
11
1.84804
21
0.727899
0
LINE
8
BLACK
6
CONTINUOUS
10
1.84804
20
0.727899
11
1.86012
21
0.721662
0
LINE
8
BLACK
6
CONTINUOUS
10
1.86012
20
0.721662
11
1.87141
21
0.714078
0
LINE
8
BLACK
6
CONTINUOUS
10
1.87141
20
0.714078
11
1.88175
21
0.705247
0
LINE
8
BLACK
6
CONTINUOUS
10
1.88175
20
0.705247
11
1.89101
21
0.695286
0
LINE
8
BLACK
6
CONTINUOUS
10
1.89101
20
0.695286
11
1.89906
21
0.684327
0
LINE
8
BLACK
6
CONTINUOUS
10
1.89906
20
0.684327
11
1.90579
21
0.672516
0
LINE
8
BLACK
6
CONTINUOUS
10
1.90579
20
0.672516
11
1.91113
21
0.660008
0
LINE
8
BLACK
6
CONTINUOUS
10
1.91113
20
0.660008
11
1.91499
21
0.646971
0
LINE
8
BLACK
6
CONTINUOUS
10
1.91499
20
0.646971
11
1.91733
21
0.633575
0
LINE
8
BLACK
6
CONTINUOUS
10
1.91733
20
0.633575
11
1.91811
21
0.62
0
LINE
8
BLACK
6
CONTINUOUS
10
1.91811
20
0.62
11
1.91788
21
0.612584
0
LINE
8
BLACK
6
CONTINUOUS
10
1.91788
20
0.612584
11
1.91624
21
0.599084
0
LINE
8
BLACK
6
CONTINUOUS
10
1.91624
20
0.599084
11
1.91307
21
0.585862
0
LINE
8
BLACK
6
CONTINUOUS
10
1.91307
20
0.585862
11
1.9084
21
0.573093
0
LINE
8
BLACK
6
CONTINUOUS
10
1.9084
20
0.573093
11
1.90229
21
0.560945
0
LINE
8
BLACK
6
CONTINUOUS
10
1.90229
20
0.560945
11
1.89482
21
0.54958
0
LINE
8
BLACK
6
CONTINUOUS
10
1.89482
20
0.54958
11
1.8861
21
0.539148
0
LINE
8
BLACK
6
CONTINUOUS
10
1.8861
20
0.539148
11
1.87624
21
0.529788
0
LINE
8
BLACK
6
CONTINUOUS
10
1.87624
20
0.529788
11
1.86536
21
0.521623
0
LINE
8
BLACK
6
CONTINUOUS
10
1.86536
20
0.521623
11
1.85362
21
0.514763
0
LINE
8
BLACK
6
CONTINUOUS
10
1.85362
20
0.514763
11
1.84117
21
0.509297
0
LINE
8
BLACK
6
CONTINUOUS
10
1.84117
20
0.509297
11
1.82817
21
0.505299
0
LINE
8
BLACK
6
CONTINUOUS
10
1.82817
20
0.505299
11
1.8148
21
0.502821
0
LINE
8
BLACK
6
CONTINUOUS
10
1.8148
20
0.502821
11
1.80124
21
0.501896
0
LINE
8
BLACK
6
CONTINUOUS
10
1.80124
20
0.501896
11
1.78765
21
0.502537
0
LINE
8
BLACK
6
CONTINUOUS
10
1.78765
20
0.502537
11
1.77424
21
0.504734
0
LINE
8
BLACK
6
CONTINUOUS
10
1.77424
20
0.504734
11
1.76116
21
0.508459
0
LINE
8
BLACK
6
CONTINUOUS
10
1.76116
20
0.508459
11
1.74859
21
0.513663
0
LINE
8
BLACK
6
CONTINUOUS
10
1.74859
20
0.513663
11
1.73671
21
0.520276
0
LINE
8
BLACK
6
CONTINUOUS
10
1.73671
20
0.520276
11
1.72567
21
0.528211
0
LINE
8
BLACK
6
CONTINUOUS
10
1.72567
20
0.528211
11
1.71561
21
0.537363
0
LINE
8
BLACK
6
CONTINUOUS
10
1.71561
20
0.537363
11
1.70667
21
0.547609
0
LINE
8
BLACK
6
CONTINUOUS
10
1.70667
20
0.547609
11
1.69897
21
0.558816
0
LINE
8
BLACK
6
CONTINUOUS
10
1.69897
20
0.558816
11
1.69261
21
0.570833
0
LINE
8
BLACK
6
CONTINUOUS
10
1.69261
20
0.570833
11
1.68767
21
0.583502
0
LINE
8
BLACK
6
CONTINUOUS
10
1.68767
20
0.583502
11
1.68422
21
0.596655
0
LINE
8
BLACK
6
CONTINUOUS
10
1.68422
20
0.596655
11
1.6823
21
0.610117
0
LINE
8
BLACK
6
CONTINUOUS
10
1.6823
20
0.610117
11
1.68195
21
0.62371
0
LINE
8
BLACK
6
CONTINUOUS
10
1.68195
20
0.62371
11
1.68316
21
0.637254
0
LINE
8
BLACK
6
CONTINUOUS
10
1.68316
20
0.637254
11
1.68591
21
0.650569
0
LINE
8
BLACK
6
CONTINUOUS
10
1.68591
20
0.650569
11
1.69018
21
0.663479
0
LINE
8
BLACK
6
CONTINUOUS
10
1.69018
20
0.663479
11
1.69591
21
0.675813
0
LINE
8
BLACK
6
CONTINUOUS
10
1.69591
20
0.675813
11
1.70301
21
0.687407
0
LINE
8
BLACK
6
CONTINUOUS
10
1.70301
20
0.687407
11
1.7114
21
0.698108
0
LINE
8
BLACK
6
CONTINUOUS
10
1.7114
20
0.698108
11
1.72097
21
0.707773
0
LINE
8
BLACK
6
CONTINUOUS
10
1.72097
20
0.707773
11
1.73158
21
0.716275
0
LINE
8
BLACK
6
CONTINUOUS
10
1.73158
20
0.716275
11
1.7431
21
0.723501
0
LINE
8
BLACK
6
CONTINUOUS
10
1.7431
20
0.723501
11
1.75537
21
0.729355
0
LINE
8
BLACK
6
CONTINUOUS
10
1.75537
20
0.729355
11
1.76824
21
0.733759
0
LINE
8
BLACK
6
CONTINUOUS
10
1.76824
20
0.733759
11
1.78152
21
0.736656
0
LINE
8
BLACK
6
CONTINUOUS
10
1.78152
20
0.736656
11
1.79505
21
0.738007
0
LINE
8
BLACK
6
CONTINUOUS
10
1.79505
20
0.738007
11
1.80865
21
0.737793
0
LINE
8
BLACK
6
CONTINUOUS
10
0.20865
20
0.737793
11
0.222132
21
0.736018
0
LINE
8
BLACK
6
CONTINUOUS
10
0.222132
20
0.736018
11
0.23532
21
0.732706
0
LINE
8
BLACK
6
CONTINUOUS
10
0.23532
20
0.732706
11
0.24804
21
0.727899
0
LINE
8
BLACK
6
CONTINUOUS
10
0.24804
20
0.727899
11
0.260123
21
0.721662
0
LINE
8
BLACK
6
CONTINUOUS
10
0.260123
20
0.721662
11
0.271409
21
0.714078
0
LINE
8
BLACK
6
CONTINUOUS
10
0.271409
20
0.714078
11
0.281749
21
0.705247
0
LINE
8
BLACK
6
CONTINUOUS
10
0.281749
20
0.705247
11
0.291006
21
0.695286
0
LINE
8
BLACK
6
CONTINUOUS
10
0.291006
20
0.695286
11
0.299056
21
0.684327
0
LINE
8
BLACK
6
CONTINUOUS
10
0.299056
20
0.684327
11
0.305793
21
0.672516
0
LINE
8
BLACK
6
CONTINUOUS
10
0.305793
20
0.672516
11
0.311128
21
0.660008
0
LINE
8
BLACK
6
CONTINUOUS
10
0.311128
20
0.660008
11
0.31499
21
0.646971
0
LINE
8
BLACK
6
CONTINUOUS
10
0.31499
20
0.646971
11
0.317327
21
0.633575
0
LINE
8
BLACK
6
CONTINUOUS
10
0.317327
20
0.633575
11
0.31811
21
0.62
0
LINE
8
BLACK
6
CONTINUOUS
10
0.31811
20
0.62
11
0.317877
21
0.612584
0
LINE
8
BLACK
6
CONTINUOUS
10
0.317877
20
0.612584
11
0.316244
21
0.599084
0
LINE
8
BLACK
6
CONTINUOUS
10
0.316244
20
0.599084
11
0.313069
21
0.585862
0
LINE
8
BLACK
6
CONTINUOUS
10
0.313069
20
0.585862
11
0.308396
21
0.573093
0
LINE
8
BLACK
6
CONTINUOUS
10
0.308396
20
0.573093
11
0.302286
21
0.560945
0
LINE
8
BLACK
6
CONTINUOUS
10
0.302286
20
0.560945
11
0.294821
21
0.54958
0
LINE
8
BLACK
6
CONTINUOUS
10
0.294821
20
0.54958
11
0.286099
21
0.539148
0
LINE
8
BLACK
6
CONTINUOUS
10
0.286099
20
0.539148
11
0.276235
21
0.529788
0
LINE
8
BLACK
6
CONTINUOUS
10
0.276235
20
0.529788
11
0.265361
21
0.521623
0
LINE
8
BLACK
6
CONTINUOUS
10
0.265361
20
0.521623
11
0.253621
21
0.514763
0
LINE
8
BLACK
6
CONTINUOUS
10
0.253621
20
0.514763
11
0.24117
21
0.509297
0
LINE
8
BLACK
6
CONTINUOUS
10
0.24117
20
0.509297
11
0.228173
21
0.505299
0
LINE
8
BLACK
6
CONTINUOUS
10
0.228173
20
0.505299
11
0.214803
21
0.502821
0
LINE
8
BLACK
6
CONTINUOUS
10
0.214803
20
0.502821
11
0.201237
21
0.501896
0
LINE
8
BLACK
6
CONTINUOUS
10
0.201237
20
0.501896
11
0.187654
21
0.502537
0
LINE
8
BLACK
6
CONTINUOUS
10
0.187654
20
0.502537
11
0.174235
21
0.504734
0
LINE
8
BLACK
6
CONTINUOUS
10
0.174235
20
0.504734
11
0.161157
21
0.508459
0
LINE
8
BLACK
6
CONTINUOUS
10
0.161157
20
0.508459
11
0.148595
21
0.513663
0
LINE
8
BLACK
6
CONTINUOUS
10
0.148595
20
0.513663
11
0.136713
21
0.520276
0
LINE
8
BLACK
6
CONTINUOUS
10
0.136713
20
0.520276
11
0.125671
21
0.528211
0
LINE
8
BLACK
6
CONTINUOUS
10
0.125671
20
0.528211
11
0.115613
21
0.537363
0
LINE
8
BLACK
6
CONTINUOUS
10
0.115613
20
0.537363
11
0.106675
21
0.547609
0
LINE
8
BLACK
6
CONTINUOUS
10
0.106675
20
0.547609
11
0.0989727
21
0.558816
0
LINE
8
BLACK
6
CONTINUOUS
10
0.0989727
20
0.558816
11
0.0926099
21
0.570833
0
LINE
8
BLACK
6
CONTINUOUS
10
0.0926099
20
0.570833
11
0.0876705
21
0.583502
0
LINE
8
BLACK
6
CONTINUOUS
10
0.0876705
20
0.583502
11
0.0842199
21
0.596655
0
LINE
8
BLACK
6
CONTINUOUS
10
0.0842199
20
0.596655
11
0.082304
21
0.610117
0
LINE
8
BLACK
6
CONTINUOUS
10
0.082304
20
0.610117
11
0.081948
21
0.62371
0
LINE
8
BLACK
6
CONTINUOUS
10
0.081948
20
0.62371
11
0.0831568
21
0.637254
0
LINE
8
BLACK
6
CONTINUOUS
10
0.0831568
20
0.637254
11
0.0859143
21
0.650569
0
LINE
8
BLACK
6
CONTINUOUS
10
0.0859143
20
0.650569
11
0.0901839
21
0.663479
0
LINE
8
BLACK
6
CONTINUOUS
10
0.0901839
20
0.663479
11
0.0959091
21
0.675813
0
LINE
8
BLACK
6
CONTINUOUS
10
0.0959091
20
0.675813
11
0.103014
21
0.687407
0
LINE
8
BLACK
6
CONTINUOUS
10
0.103014
20
0.687407
11
0.111404
21
0.698108
0
LINE
8
BLACK
6
CONTINUOUS
10
0.111404
20
0.698108
11
0.120969
21
0.707773
0
LINE
8
BLACK
6
CONTINUOUS
10
0.120969
20
0.707773
11
0.131581
21
0.716275
0
LINE
8
BLACK
6
CONTINUOUS
10
0.131581
20
0.716275
11
0.1431
21
0.723501
0
LINE
8
BLACK
6
CONTINUOUS
10
0.1431
20
0.723501
11
0.155373
21
0.729355
0
LINE
8
BLACK
6
CONTINUOUS
10
0.155373
20
0.729355
11
0.168238
21
0.733759
0
LINE
8
BLACK
6
CONTINUOUS
10
0.168238
20
0.733759
11
0.181524
21
0.736656
0
LINE
8
BLACK
6
CONTINUOUS
10
0.181524
20
0.736656
11
0.195054
21
0.738007
0
LINE
8
BLACK
6
CONTINUOUS
10
0.195054
20
0.738007
11
0.20865
21
0.737793
0
LINE
8
BLACK
6
CONTINUOUS
10
1.80865
20
1.13779
11
1.82213
21
1.13602
0
LINE
8
BLACK
6
CONTINUOUS
10
1.82213
20
1.13602
11
1.83532
21
1.13271
0
LINE
8
BLACK
6
CONTINUOUS
10
1.83532
20
1.13271
11
1.84804
21
1.1279
0
LINE
8
BLACK
6
CONTINUOUS
10
1.84804
20
1.1279
11
1.86012
21
1.12166
0
LINE
8
BLACK
6
CONTINUOUS
10
1.86012
20
1.12166
11
1.87141
21
1.11408
0
LINE
8
BLACK
6
CONTINUOUS
10
1.87141
20
1.11408
11
1.88175
21
1.10525
0
LINE
8
BLACK
6
CONTINUOUS
10
1.88175
20
1.10525
11
1.89101
21
1.09529
0
LINE
8
BLACK
6
CONTINUOUS
10
1.89101
20
1.09529
11
1.89906
21
1.08433
0
LINE
8
BLACK
6
CONTINUOUS
10
1.89906
20
1.08433
11
1.90579
21
1.07252
0
LINE
8
BLACK
6
CONTINUOUS
10
1.90579
20
1.07252
11
1.91113
21
1.06001
0
LINE
8
BLACK
6
CONTINUOUS
10
1.91113
20
1.06001
11
1.91499
21
1.04697
0
LINE
8
BLACK
6
CONTINUOUS
10
1.91499
20
1.04697
11
1.91733
21
1.03358
0
LINE
8
BLACK
6
CONTINUOUS
10
1.91733
20
1.03358
11
1.91811
21
1.02
0
LINE
8
BLACK
6
CONTINUOUS
10
1.91811
20
1.02
11
1.91788
21
1.01258
0
LINE
8
BLACK
6
CONTINUOUS
10
1.91788
20
1.01258
11
1.91624
21
0.999084
0
LINE
8
BLACK
6
CONTINUOUS
10
1.91624
20
0.999084
11
1.91307
21
0.985862
0
LINE
8
BLACK
6
CONTINUOUS
10
1.91307
20
0.985862
11
1.9084
21
0.973093
0
LINE
8
BLACK
6
CONTINUOUS
10
1.9084
20
0.973093
11
1.90229
21
0.960945
0
LINE
8
BLACK
6
CONTINUOUS
10
1.90229
20
0.960945
11
1.89482
21
0.94958
0
LINE
8
BLACK
6
CONTINUOUS
10
1.89482
20
0.94958
11
1.8861
21
0.939148
0
LINE
8
BLACK
6
CONTINUOUS
10
1.8861
20
0.939148
11
1.87624
21
0.929788
0
LINE
8
BLACK
6
CONTINUOUS
10
1.87624
20
0.929788
11
1.86536
21
0.921623
0
LINE
8
BLACK
6
CONTINUOUS
10
1.86536
20
0.921623
11
1.85362
21
0.914763
0
LINE
8
BLACK
6
CONTINUOUS
10
1.85362
20
0.914763
11
1.84117
21
0.909297
0
LINE
8
BLACK
6
CONTINUOUS
10
1.84117
20
0.909297
11
1.82817
21
0.905299
0
LINE
8
BLACK
6
CONTINUOUS
10
1.82817
20
0.905299
11
1.8148
21
0.902821
0
LINE
8
BLACK
6
CONTINUOUS
10
1.8148
20
0.902821
11
1.80124
21
0.901896
0
LINE
8
BLACK
6
CONTINUOUS
10
1.80124
20
0.901896
11
1.78765
21
0.902537
0
LINE
8
BLACK
6
CONTINUOUS
10
1.78765
20
0.902537
11
1.77424
21
0.904734
0
LINE
8
BLACK
6
CONTINUOUS
10
1.77424
20
0.904734
11
1.76116
21
0.908459
0
LINE
8
BLACK
6
CONTINUOUS
10
1.76116
20
0.908459
11
1.74859
21
0.913663
0
LINE
8
BLACK
6
CONTINUOUS
10
1.74859
20
0.913663
11
1.73671
21
0.920276
0
LINE
8
BLACK
6
CONTINUOUS
10
1.73671
20
0.920276
11
1.72567
21
0.928211
0
LINE
8
BLACK
6
CONTINUOUS
10
1.72567
20
0.928211
11
1.71561
21
0.937363
0
LINE
8
BLACK
6
CONTINUOUS
10
1.71561
20
0.937363
11
1.70667
21
0.947609
0
LINE
8
BLACK
6
CONTINUOUS
10
1.70667
20
0.947609
11
1.69897
21
0.958816
0
LINE
8
BLACK
6
CONTINUOUS
10
1.69897
20
0.958816
11
1.69261
21
0.970833
0
LINE
8
BLACK
6
CONTINUOUS
10
1.69261
20
0.970833
11
1.68767
21
0.983502
0
LINE
8
BLACK
6
CONTINUOUS
10
1.68767
20
0.983502
11
1.68422
21
0.996655
0
LINE
8
BLACK
6
CONTINUOUS
10
1.68422
20
0.996655
11
1.6823
21
1.01012
0
LINE
8
BLACK
6
CONTINUOUS
10
1.6823
20
1.01012
11
1.68195
21
1.02371
0
LINE
8
BLACK
6
CONTINUOUS
10
1.68195
20
1.02371
11
1.68316
21
1.03725
0
LINE
8
BLACK
6
CONTINUOUS
10
1.68316
20
1.03725
11
1.68591
21
1.05057
0
LINE
8
BLACK
6
CONTINUOUS
10
1.68591
20
1.05057
11
1.69018
21
1.06348
0
LINE
8
BLACK
6
CONTINUOUS
10
1.69018
20
1.06348
11
1.69591
21
1.07581
0
LINE
8
BLACK
6
CONTINUOUS
10
1.69591
20
1.07581
11
1.70301
21
1.08741
0
LINE
8
BLACK
6
CONTINUOUS
10
1.70301
20
1.08741
11
1.7114
21
1.09811
0
LINE
8
BLACK
6
CONTINUOUS
10
1.7114
20
1.09811
11
1.72097
21
1.10777
0
LINE
8
BLACK
6
CONTINUOUS
10
1.72097
20
1.10777
11
1.73158
21
1.11627
0
LINE
8
BLACK
6
CONTINUOUS
10
1.73158
20
1.11627
11
1.7431
21
1.1235
0
LINE
8
BLACK
6
CONTINUOUS
10
1.7431
20
1.1235
11
1.75537
21
1.12935
0
LINE
8
BLACK
6
CONTINUOUS
10
1.75537
20
1.12935
11
1.76824
21
1.13376
0
LINE
8
BLACK
6
CONTINUOUS
10
1.76824
20
1.13376
11
1.78152
21
1.13666
0
LINE
8
BLACK
6
CONTINUOUS
10
1.78152
20
1.13666
11
1.79505
21
1.13801
0
LINE
8
BLACK
6
CONTINUOUS
10
1.79505
20
1.13801
11
1.80865
21
1.13779
0
LINE
8
BLACK
6
CONTINUOUS
10
0.20865
20
1.13779
11
0.222132
21
1.13602
0
LINE
8
BLACK
6
CONTINUOUS
10
0.222132
20
1.13602
11
0.23532
21
1.13271
0
LINE
8
BLACK
6
CONTINUOUS
10
0.23532
20
1.13271
11
0.24804
21
1.1279
0
LINE
8
BLACK
6
CONTINUOUS
10
0.24804
20
1.1279
11
0.260123
21
1.12166
0
LINE
8
BLACK
6
CONTINUOUS
10
0.260123
20
1.12166
11
0.271409
21
1.11408
0
LINE
8
BLACK
6
CONTINUOUS
10
0.271409
20
1.11408
11
0.281749
21
1.10525
0
LINE
8
BLACK
6
CONTINUOUS
10
0.281749
20
1.10525
11
0.291006
21
1.09529
0
LINE
8
BLACK
6
CONTINUOUS
10
0.291006
20
1.09529
11
0.299056
21
1.08433
0
LINE
8
BLACK
6
CONTINUOUS
10
0.299056
20
1.08433
11
0.305793
21
1.07252
0
LINE
8
BLACK
6
CONTINUOUS
10
0.305793
20
1.07252
11
0.311128
21
1.06001
0
LINE
8
BLACK
6
CONTINUOUS
10
0.311128
20
1.06001
11
0.31499
21
1.04697
0
LINE
8
BLACK
6
CONTINUOUS
10
0.31499
20
1.04697
11
0.317327
21
1.03358
0
LINE
8
BLACK
6
CONTINUOUS
10
0.317327
20
1.03358
11
0.31811
21
1.02
0
LINE
8
BLACK
6
CONTINUOUS
10
0.31811
20
1.02
11
0.317877
21
1.01258
0
LINE
8
BLACK
6
CONTINUOUS
10
0.317877
20
1.01258
11
0.316244
21
0.999084
0
LINE
8
BLACK
6
CONTINUOUS
10
0.316244
20
0.999084
11
0.313069
21
0.985862
0
LINE
8
BLACK
6
CONTINUOUS
10
0.313069
20
0.985862
11
0.308396
21
0.973093
0
LINE
8
BLACK
6
CONTINUOUS
10
0.308396
20
0.973093
11
0.302286
21
0.960945
0
LINE
8
BLACK
6
CONTINUOUS
10
0.302286
20
0.960945
11
0.294821
21
0.94958
0
LINE
8
BLACK
6
CONTINUOUS
10
0.294821
20
0.94958
11
0.286099
21
0.939148
0
LINE
8
BLACK
6
CONTINUOUS
10
0.286099
20
0.939148
11
0.276235
21
0.929788
0
LINE
8
BLACK
6
CONTINUOUS
10
0.276235
20
0.929788
11
0.265361
21
0.921623
0
LINE
8
BLACK
6
CONTINUOUS
10
0.265361
20
0.921623
11
0.253621
21
0.914763
0
LINE
8
BLACK
6
CONTINUOUS
10
0.253621
20
0.914763
11
0.24117
21
0.909297
0
LINE
8
BLACK
6
CONTINUOUS
10
0.24117
20
0.909297
11
0.228173
21
0.905299
0
LINE
8
BLACK
6
CONTINUOUS
10
0.228173
20
0.905299
11
0.214803
21
0.902821
0
LINE
8
BLACK
6
CONTINUOUS
10
0.214803
20
0.902821
11
0.201237
21
0.901896
0
LINE
8
BLACK
6
CONTINUOUS
10
0.201237
20
0.901896
11
0.187654
21
0.902537
0
LINE
8
BLACK
6
CONTINUOUS
10
0.187654
20
0.902537
11
0.174235
21
0.904734
0
LINE
8
BLACK
6
CONTINUOUS
10
0.174235
20
0.904734
11
0.161157
21
0.908459
0
LINE
8
BLACK
6
CONTINUOUS
10
0.161157
20
0.908459
11
0.148595
21
0.913663
0
LINE
8
BLACK
6
CONTINUOUS
10
0.148595
20
0.913663
11
0.136713
21
0.920276
0
LINE
8
BLACK
6
CONTINUOUS
10
0.136713
20
0.920276
11
0.125671
21
0.928211
0
LINE
8
BLACK
6
CONTINUOUS
10
0.125671
20
0.928211
11
0.115613
21
0.937363
0
LINE
8
BLACK
6
CONTINUOUS
10
0.115613
20
0.937363
11
0.106675
21
0.947609
0
LINE
8
BLACK
6
CONTINUOUS
10
0.106675
20
0.947609
11
0.0989727
21
0.958816
0
LINE
8
BLACK
6
CONTINUOUS
10
0.0989727
20
0.958816
11
0.0926099
21
0.970833
0
LINE
8
BLACK
6
CONTINUOUS
10
0.0926099
20
0.970833
11
0.0876705
21
0.983502
0
LINE
8
BLACK
6
CONTINUOUS
10
0.0876705
20
0.983502
11
0.0842199
21
0.996655
0
LINE
8
BLACK
6
CONTINUOUS
10
0.0842199
20
0.996655
11
0.082304
21
1.01012
0
LINE
8
BLACK
6
CONTINUOUS
10
0.082304
20
1.01012
11
0.081948
21
1.02371
0
LINE
8
BLACK
6
CONTINUOUS
10
0.081948
20
1.02371
11
0.0831568
21
1.03725
0
LINE
8
BLACK
6
CONTINUOUS
10
0.0831568
20
1.03725
11
0.0859143
21
1.05057
0
LINE
8
BLACK
6
CONTINUOUS
10
0.0859143
20
1.05057
11
0.0901839
21
1.06348
0
LINE
8
BLACK
6
CONTINUOUS
10
0.0901839
20
1.06348
11
0.0959091
21
1.07581
0
LINE
8
BLACK
6
CONTINUOUS
10
0.0959091
20
1.07581
11
0.103014
21
1.08741
0
LINE
8
BLACK
6
CONTINUOUS
10
0.103014
20
1.08741
11
0.111404
21
1.09811
0
LINE
8
BLACK
6
CONTINUOUS
10
0.111404
20
1.09811
11
0.120969
21
1.10777
0
LINE
8
BLACK
6
CONTINUOUS
10
0.120969
20
1.10777
11
0.131581
21
1.11627
0
LINE
8
BLACK
6
CONTINUOUS
10
0.131581
20
1.11627
11
0.1431
21
1.1235
0
LINE
8
BLACK
6
CONTINUOUS
10
0.1431
20
1.1235
11
0.155373
21
1.12935
0
LINE
8
BLACK
6
CONTINUOUS
10
0.155373
20
1.12935
11
0.168238
21
1.13376
0
LINE
8
BLACK
6
CONTINUOUS
10
0.168238
20
1.13376
11
0.181524
21
1.13666
0
LINE
8
BLACK
6
CONTINUOUS
10
0.181524
20
1.13666
11
0.195054
21
1.13801
0
LINE
8
BLACK
6
CONTINUOUS
10
0.195054
20
1.13801
11
0.20865
21
1.13779
0
LINE
8
BLACK
6
CONTINUOUS
10
1.80865
20
1.51779
11
1.82213
21
1.51602
0
LINE
8
BLACK
6
CONTINUOUS
10
1.82213
20
1.51602
11
1.83532
21
1.51271
0
LINE
8
BLACK
6
CONTINUOUS
10
1.83532
20
1.51271
11
1.84804
21
1.5079
0
LINE
8
BLACK
6
CONTINUOUS
10
1.84804
20
1.5079
11
1.86012
21
1.50166
0
LINE
8
BLACK
6
CONTINUOUS
10
1.86012
20
1.50166
11
1.87141
21
1.49408
0
LINE
8
BLACK
6
CONTINUOUS
10
1.87141
20
1.49408
11
1.88175
21
1.48525
0
LINE
8
BLACK
6
CONTINUOUS
10
1.88175
20
1.48525
11
1.89101
21
1.47529
0
LINE
8
BLACK
6
CONTINUOUS
10
1.89101
20
1.47529
11
1.89906
21
1.46433
0
LINE
8
BLACK
6
CONTINUOUS
10
1.89906
20
1.46433
11
1.90579
21
1.45252
0
LINE
8
BLACK
6
CONTINUOUS
10
1.90579
20
1.45252
11
1.91113
21
1.44001
0
LINE
8
BLACK
6
CONTINUOUS
10
1.91113
20
1.44001
11
1.91499
21
1.42697
0
LINE
8
BLACK
6
CONTINUOUS
10
1.91499
20
1.42697
11
1.91733
21
1.41358
0
LINE
8
BLACK
6
CONTINUOUS
10
1.91733
20
1.41358
11
1.91811
21
1.4
0
LINE
8
BLACK
6
CONTINUOUS
10
1.91811
20
1.4
11
1.91788
21
1.39258
0
LINE
8
BLACK
6
CONTINUOUS
10
1.91788
20
1.39258
11
1.91624
21
1.37908
0
LINE
8
BLACK
6
CONTINUOUS
10
1.91624
20
1.37908
11
1.91307
21
1.36586
0
LINE
8
BLACK
6
CONTINUOUS
10
1.91307
20
1.36586
11
1.9084
21
1.35309
0
LINE
8
BLACK
6
CONTINUOUS
10
1.9084
20
1.35309
11
1.90229
21
1.34094
0
LINE
8
BLACK
6
CONTINUOUS
10
1.90229
20
1.34094
11
1.89482
21
1.32958
0
LINE
8
BLACK
6
CONTINUOUS
10
1.89482
20
1.32958
11
1.8861
21
1.31915
0
LINE
8
BLACK
6
CONTINUOUS
10
1.8861
20
1.31915
11
1.87624
21
1.30979
0
LINE
8
BLACK
6
CONTINUOUS
10
1.87624
20
1.30979
11
1.86536
21
1.30162
0
LINE
8
BLACK
6
CONTINUOUS
10
1.86536
20
1.30162
11
1.85362
21
1.29476
0
LINE
8
BLACK
6
CONTINUOUS
10
1.85362
20
1.29476
11
1.84117
21
1.2893
0
LINE
8
BLACK
6
CONTINUOUS
10
1.84117
20
1.2893
11
1.82817
21
1.2853
0
LINE
8
BLACK
6
CONTINUOUS
10
1.82817
20
1.2853
11
1.8148
21
1.28282
0
LINE
8
BLACK
6
CONTINUOUS
10
1.8148
20
1.28282
11
1.80124
21
1.2819
0
LINE
8
BLACK
6
CONTINUOUS
10
1.80124
20
1.2819
11
1.78765
21
1.28254
0
LINE
8
BLACK
6
CONTINUOUS
10
1.78765
20
1.28254
11
1.77424
21
1.28473
0
LINE
8
BLACK
6
CONTINUOUS
10
1.77424
20
1.28473
11
1.76116
21
1.28846
0
LINE
8
BLACK
6
CONTINUOUS
10
1.76116
20
1.28846
11
1.74859
21
1.29366
0
LINE
8
BLACK
6
CONTINUOUS
10
1.74859
20
1.29366
11
1.73671
21
1.30028
0
LINE
8
BLACK
6
CONTINUOUS
10
1.73671
20
1.30028
11
1.72567
21
1.30821
0
LINE
8
BLACK
6
CONTINUOUS
10
1.72567
20
1.30821
11
1.71561
21
1.31736
0
LINE
8
BLACK
6
CONTINUOUS
10
1.71561
20
1.31736
11
1.70667
21
1.32761
0
LINE
8
BLACK
6
CONTINUOUS
10
1.70667
20
1.32761
11
1.69897
21
1.33882
0
LINE
8
BLACK
6
CONTINUOUS
10
1.69897
20
1.33882
11
1.69261
21
1.35083
0
LINE
8
BLACK
6
CONTINUOUS
10
1.69261
20
1.35083
11
1.68767
21
1.3635
0
LINE
8
BLACK
6
CONTINUOUS
10
1.68767
20
1.3635
11
1.68422
21
1.37665
0
LINE
8
BLACK
6
CONTINUOUS
10
1.68422
20
1.37665
11
1.6823
21
1.39012
0
LINE
8
BLACK
6
CONTINUOUS
10
1.6823
20
1.39012
11
1.68195
21
1.40371
0
LINE
8
BLACK
6
CONTINUOUS
10
1.68195
20
1.40371
11
1.68316
21
1.41725
0
LINE
8
BLACK
6
CONTINUOUS
10
1.68316
20
1.41725
11
1.68591
21
1.43057
0
LINE
8
BLACK
6
CONTINUOUS
10
1.68591
20
1.43057
11
1.69018
21
1.44348
0
LINE
8
BLACK
6
CONTINUOUS
10
1.69018
20
1.44348
11
1.69591
21
1.45581
0
LINE
8
BLACK
6
CONTINUOUS
10
1.69591
20
1.45581
11
1.70301
21
1.46741
0
LINE
8
BLACK
6
CONTINUOUS
10
1.70301
20
1.46741
11
1.7114
21
1.47811
0
LINE
8
BLACK
6
CONTINUOUS
10
1.7114
20
1.47811
11
1.72097
21
1.48777
0
LINE
8
BLACK
6
CONTINUOUS
10
1.72097
20
1.48777
11
1.73158
21
1.49627
0
LINE
8
BLACK
6
CONTINUOUS
10
1.73158
20
1.49627
11
1.7431
21
1.5035
0
LINE
8
BLACK
6
CONTINUOUS
10
1.7431
20
1.5035
11
1.75537
21
1.50935
0
LINE
8
BLACK
6
CONTINUOUS
10
1.75537
20
1.50935
11
1.76824
21
1.51376
0
LINE
8
BLACK
6
CONTINUOUS
10
1.76824
20
1.51376
11
1.78152
21
1.51666
0
LINE
8
BLACK
6
CONTINUOUS
10
1.78152
20
1.51666
11
1.79505
21
1.51801
0
LINE
8
BLACK
6
CONTINUOUS
10
1.79505
20
1.51801
11
1.80865
21
1.51779
0
LINE
8
BLACK
6
CONTINUOUS
10
0.20865
20
1.51779
11
0.222132
21
1.51602
0
LINE
8
BLACK
6
CONTINUOUS
10
0.222132
20
1.51602
11
0.23532
21
1.51271
0
LINE
8
BLACK
6
CONTINUOUS
10
0.23532
20
1.51271
11
0.24804
21
1.5079
0
LINE
8
BLACK
6
CONTINUOUS
10
0.24804
20
1.5079
11
0.260123
21
1.50166
0
LINE
8
BLACK
6
CONTINUOUS
10
0.260123
20
1.50166
11
0.271409
21
1.49408
0
LINE
8
BLACK
6
CONTINUOUS
10
0.271409
20
1.49408
11
0.281749
21
1.48525
0
LINE
8
BLACK
6
CONTINUOUS
10
0.281749
20
1.48525
11
0.291006
21
1.47529
0
LINE
8
BLACK
6
CONTINUOUS
10
0.291006
20
1.47529
11
0.299056
21
1.46433
0
LINE
8
BLACK
6
CONTINUOUS
10
0.299056
20
1.46433
11
0.305793
21
1.45252
0
LINE
8
BLACK
6
CONTINUOUS
10
0.305793
20
1.45252
11
0.311128
21
1.44001
0
LINE
8
BLACK
6
CONTINUOUS
10
0.311128
20
1.44001
11
0.31499
21
1.42697
0
LINE
8
BLACK
6
CONTINUOUS
10
0.31499
20
1.42697
11
0.317327
21
1.41358
0
LINE
8
BLACK
6
CONTINUOUS
10
0.317327
20
1.41358
11
0.31811
21
1.4
0
LINE
8
BLACK
6
CONTINUOUS
10
0.31811
20
1.4
11
0.317877
21
1.39258
0
LINE
8
BLACK
6
CONTINUOUS
10
0.317877
20
1.39258
11
0.316244
21
1.37908
0
LINE
8
BLACK
6
CONTINUOUS
10
0.316244
20
1.37908
11
0.313069
21
1.36586
0
LINE
8
BLACK
6
CONTINUOUS
10
0.313069
20
1.36586
11
0.308396
21
1.35309
0
LINE
8
BLACK
6
CONTINUOUS
10
0.308396
20
1.35309
11
0.302286
21
1.34094
0
LINE
8
BLACK
6
CONTINUOUS
10
0.302286
20
1.34094
11
0.294821
21
1.32958
0
LINE
8
BLACK
6
CONTINUOUS
10
0.294821
20
1.32958
11
0.286099
21
1.31915
0
LINE
8
BLACK
6
CONTINUOUS
10
0.286099
20
1.31915
11
0.276235
21
1.30979
0
LINE
8
BLACK
6
CONTINUOUS
10
0.276235
20
1.30979
11
0.265361
21
1.30162
0
LINE
8
BLACK
6
CONTINUOUS
10
0.265361
20
1.30162
11
0.253621
21
1.29476
0
LINE
8
BLACK
6
CONTINUOUS
10
0.253621
20
1.29476
11
0.24117
21
1.2893
0
LINE
8
BLACK
6
CONTINUOUS
10
0.24117
20
1.2893
11
0.228173
21
1.2853
0
LINE
8
BLACK
6
CONTINUOUS
10
0.228173
20
1.2853
11
0.214803
21
1.28282
0
LINE
8
BLACK
6
CONTINUOUS
10
0.214803
20
1.28282
11
0.201237
21
1.2819
0
LINE
8
BLACK
6
CONTINUOUS
10
0.201237
20
1.2819
11
0.187654
21
1.28254
0
LINE
8
BLACK
6
CONTINUOUS
10
0.187654
20
1.28254
11
0.174235
21
1.28473
0
LINE
8
BLACK
6
CONTINUOUS
10
0.174235
20
1.28473
11
0.161157
21
1.28846
0
LINE
8
BLACK
6
CONTINUOUS
10
0.161157
20
1.28846
11
0.148595
21
1.29366
0
LINE
8
BLACK
6
CONTINUOUS
10
0.148595
20
1.29366
11
0.136713
21
1.30028
0
LINE
8
BLACK
6
CONTINUOUS
10
0.136713
20
1.30028
11
0.125671
21
1.30821
0
LINE
8
BLACK
6
CONTINUOUS
10
0.125671
20
1.30821
11
0.115613
21
1.31736
0
LINE
8
BLACK
6
CONTINUOUS
10
0.115613
20
1.31736
11
0.106675
21
1.32761
0
LINE
8
BLACK
6
CONTINUOUS
10
0.106675
20
1.32761
11
0.0989727
21
1.33882
0
LINE
8
BLACK
6
CONTINUOUS
10
0.0989727
20
1.33882
11
0.0926099
21
1.35083
0
LINE
8
BLACK
6
CONTINUOUS
10
0.0926099
20
1.35083
11
0.0876705
21
1.3635
0
LINE
8
BLACK
6
CONTINUOUS
10
0.0876705
20
1.3635
11
0.0842199
21
1.37665
0
LINE
8
BLACK
6
CONTINUOUS
10
0.0842199
20
1.37665
11
0.082304
21
1.39012
0
LINE
8
BLACK
6
CONTINUOUS
10
0.082304
20
1.39012
11
0.081948
21
1.40371
0
LINE
8
BLACK
6
CONTINUOUS
10
0.081948
20
1.40371
11
0.0831568
21
1.41725
0
LINE
8
BLACK
6
CONTINUOUS
10
0.0831568
20
1.41725
11
0.0859143
21
1.43057
0
LINE
8
BLACK
6
CONTINUOUS
10
0.0859143
20
1.43057
11
0.0901839
21
1.44348
0
LINE
8
BLACK
6
CONTINUOUS
10
0.0901839
20
1.44348
11
0.0959091
21
1.45581
0
LINE
8
BLACK
6
CONTINUOUS
10
0.0959091
20
1.45581
11
0.103014
21
1.46741
0
LINE
8
BLACK
6
CONTINUOUS
10
0.103014
20
1.46741
11
0.111404
21
1.47811
0
LINE
8
BLACK
6
CONTINUOUS
10
0.111404
20
1.47811
11
0.120969
21
1.48777
0
LINE
8
BLACK
6
CONTINUOUS
10
0.120969
20
1.48777
11
0.131581
21
1.49627
0
LINE
8
BLACK
6
CONTINUOUS
10
0.131581
20
1.49627
11
0.1431
21
1.5035
0
LINE
8
BLACK
6
CONTINUOUS
10
0.1431
20
1.5035
11
0.155373
21
1.50935
0
LINE
8
BLACK
6
CONTINUOUS
10
0.155373
20
1.50935
11
0.168238
21
1.51376
0
LINE
8
BLACK
6
CONTINUOUS
10
0.168238
20
1.51376
11
0.181524
21
1.51666
0
LINE
8
BLACK
6
CONTINUOUS
10
0.181524
20
1.51666
11
0.195054
21
1.51801
0
LINE
8
BLACK
6
CONTINUOUS
10
0.195054
20
1.51801
11
0.20865
21
1.51779
  0
ENDSEC
  0
EOF
