  0
SECTION
  2
HEADER
  9
$ANGBASE
  50
0.0
  9
$ANGDIR
  70
1
  9
$MEASUREMENT
  70
0
  0
ENDSEC
  0
SECTION
  2
TABLES
  0
TABLE
  2
LTYPE
  70
4
  0
LTYPE
  5
40F
  2
CONTINUOUS
  70
0
  3
Solid line
  72
65
  73
0
  40
0.0
  0
LTYPE
  5
410
  2
DASHDOT
 70
0
  3
Dash Dot ____ _ ____ _
 72
65
 73
4
 40
2.0
 49
1.25
 49
-0.25
 49
0.25
 49
-0.25
  0
LTYPE
  5
411
  2
DASHED
 70
0
  3
Dashed __ __ __ __ __
 72
65
 73
2
 40
0.75
 49
0.5
 49
-0.25
  0
LTYPE
  5
43B
  2
DOTTED
 70
0
  3
Dotted .  .  .  .
 72
65
 73
2
 40
0.2
 49
0.0
 49
-0.2
  0
ENDTAB
  0
TABLE
  2
STYLE
  70
4
  0
STYLE
  2
KICAD
  70
0
  40
0
  41
1
  42
1
  50
0
  71
0
  3
isocp.shx
  0
STYLE
  2
KICADB
  70
0
  40
0
  41
1
  42
1
  50
0
  71
0
  3
isocp.shx
  0
STYLE
  2
KICADI
  70
0
  40
0
  41
1
  42
1
  50
15
  71
0
  3
isocp.shx
  0
STYLE
  2
KICADBI
  70
0
  40
0
  41
1
  42
1
  50
15
  71
0
  3
isocp.shx
  0
ENDTAB
  0
TABLE
  2
LAYER
  70
1
  0
LAYER
  2
BLACK
  70
0
  62
7
  6
CONTINUOUS
  0
ENDTAB
  0
ENDSEC
  0
SECTION
  2
ENTITIES
0
LINE
8
BLACK
6
CONTINUOUS
10
4.98873
20
-5.19395
11
4.98815
21
-5.19256
0
LINE
8
BLACK
6
CONTINUOUS
10
4.98815
20
-5.19256
11
4.98815
21
-4.86256
0
LINE
8
BLACK
6
CONTINUOUS
10
4.98815
20
-4.86256
11
4.98873
21
-4.86117
0
LINE
8
BLACK
6
CONTINUOUS
10
4.98873
20
-4.86117
11
4.99012
21
-4.86059
0
LINE
8
BLACK
6
CONTINUOUS
10
4.99012
20
-4.86059
11
6.25012
21
-4.86059
0
LINE
8
BLACK
6
CONTINUOUS
10
6.25012
20
-4.86059
11
6.25151
21
-4.86117
0
LINE
8
BLACK
6
CONTINUOUS
10
6.25151
20
-4.86117
11
6.25209
21
-4.86256
0
LINE
8
BLACK
6
CONTINUOUS
10
6.25209
20
-4.86256
11
6.25209
21
-5.19256
0
LINE
8
BLACK
6
CONTINUOUS
10
6.25209
20
-5.19256
11
6.25151
21
-5.19395
0
LINE
8
BLACK
6
CONTINUOUS
10
6.25151
20
-5.19395
11
6.25012
21
-5.19453
0
LINE
8
BLACK
6
CONTINUOUS
10
6.25012
20
-5.19453
11
4.99012
21
-5.19453
0
LINE
8
BLACK
6
CONTINUOUS
10
4.99012
20
-5.19453
11
4.98873
21
-5.19395
0
LINE
8
BLACK
6
CONTINUOUS
10
4.99209
20
-4.86453
11
4.99209
21
-5.19059
0
LINE
8
BLACK
6
CONTINUOUS
10
4.99209
20
-5.19059
11
6.24815
21
-5.19059
0
LINE
8
BLACK
6
CONTINUOUS
10
6.24815
20
-5.19059
11
6.24815
21
-4.86453
0
LINE
8
BLACK
6
CONTINUOUS
10
6.24815
20
-4.86453
11
4.99209
21
-4.86453
0
LINE
8
BLACK
6
CONTINUOUS
10
5.6518
20
-5.00812
11
5.65194
21
-5.0081
0
LINE
8
BLACK
6
CONTINUOUS
10
5.65194
20
-5.0081
11
5.65204
21
-5.00817
0
LINE
8
BLACK
6
CONTINUOUS
10
5.65204
20
-5.00817
11
5.65237
21
-5.00822
0
LINE
8
BLACK
6
CONTINUOUS
10
5.65237
20
-5.00822
11
5.65298
21
-5.00874
0
LINE
8
BLACK
6
CONTINUOUS
10
5.65298
20
-5.00874
11
5.65367
21
-5.00915
0
LINE
8
BLACK
6
CONTINUOUS
10
5.65367
20
-5.00915
11
5.65374
21
-5.00937
0
LINE
8
BLACK
6
CONTINUOUS
10
5.65374
20
-5.00937
11
5.65392
21
-5.00952
0
LINE
8
BLACK
6
CONTINUOUS
10
5.65392
20
-5.00952
11
5.65406
21
-5.01031
0
LINE
8
BLACK
6
CONTINUOUS
10
5.65406
20
-5.01031
11
5.65432
21
-5.01106
0
LINE
8
BLACK
6
CONTINUOUS
10
5.65432
20
-5.01106
11
5.65423
21
-5.01128
0
LINE
8
BLACK
6
CONTINUOUS
10
5.65423
20
-5.01128
11
5.65427
21
-5.01151
0
LINE
8
BLACK
6
CONTINUOUS
10
5.65427
20
-5.01151
11
5.65387
21
-5.0122
0
LINE
8
BLACK
6
CONTINUOUS
10
5.65387
20
-5.0122
11
5.65359
21
-5.01294
0
LINE
8
BLACK
6
CONTINUOUS
10
5.65359
20
-5.01294
11
5.64463
21
-5.02318
0
LINE
8
BLACK
6
CONTINUOUS
10
5.64463
20
-5.02318
11
5.64488
21
-5.02322
0
LINE
8
BLACK
6
CONTINUOUS
10
5.64488
20
-5.02322
11
5.64501
21
-5.02334
0
LINE
8
BLACK
6
CONTINUOUS
10
5.64501
20
-5.02334
11
5.64519
21
-5.02336
0
LINE
8
BLACK
6
CONTINUOUS
10
5.64519
20
-5.02336
11
5.64894
21
-5.02523
0
LINE
8
BLACK
6
CONTINUOUS
10
5.64894
20
-5.02523
11
5.64964
21
-5.02576
0
LINE
8
BLACK
6
CONTINUOUS
10
5.64964
20
-5.02576
11
5.6497
21
-5.02578
0
LINE
8
BLACK
6
CONTINUOUS
10
5.6497
20
-5.02578
11
5.65158
21
-5.02766
0
LINE
8
BLACK
6
CONTINUOUS
10
5.65158
20
-5.02766
11
5.65208
21
-5.02838
0
LINE
8
BLACK
6
CONTINUOUS
10
5.65208
20
-5.02838
11
5.65213
21
-5.02843
0
LINE
8
BLACK
6
CONTINUOUS
10
5.65213
20
-5.02843
11
5.65401
21
-5.03218
0
LINE
8
BLACK
6
CONTINUOUS
10
5.65401
20
-5.03218
11
5.6543
21
-5.03316
0
LINE
8
BLACK
6
CONTINUOUS
10
5.6543
20
-5.03316
11
5.65426
21
-5.03333
0
LINE
8
BLACK
6
CONTINUOUS
10
5.65426
20
-5.03333
11
5.65432
21
-5.0335
0
LINE
8
BLACK
6
CONTINUOUS
10
5.65432
20
-5.0335
11
5.65432
21
-5.04287
0
LINE
8
BLACK
6
CONTINUOUS
10
5.65432
20
-5.04287
11
5.65414
21
-5.04388
0
LINE
8
BLACK
6
CONTINUOUS
10
5.65414
20
-5.04388
11
5.65403
21
-5.04402
0
LINE
8
BLACK
6
CONTINUOUS
10
5.65403
20
-5.04402
11
5.65401
21
-5.04419
0
LINE
8
BLACK
6
CONTINUOUS
10
5.65401
20
-5.04419
11
5.65213
21
-5.04794
0
LINE
8
BLACK
6
CONTINUOUS
10
5.65213
20
-5.04794
11
5.65161
21
-5.04865
0
LINE
8
BLACK
6
CONTINUOUS
10
5.65161
20
-5.04865
11
5.65158
21
-5.04871
0
LINE
8
BLACK
6
CONTINUOUS
10
5.65158
20
-5.04871
11
5.6497
21
-5.05058
0
LINE
8
BLACK
6
CONTINUOUS
10
5.6497
20
-5.05058
11
5.64898
21
-5.05109
0
LINE
8
BLACK
6
CONTINUOUS
10
5.64898
20
-5.05109
11
5.64894
21
-5.05114
0
LINE
8
BLACK
6
CONTINUOUS
10
5.64894
20
-5.05114
11
5.64519
21
-5.05301
0
LINE
8
BLACK
6
CONTINUOUS
10
5.64519
20
-5.05301
11
5.6442
21
-5.0533
0
LINE
8
BLACK
6
CONTINUOUS
10
5.6442
20
-5.0533
11
5.64403
21
-5.05326
0
LINE
8
BLACK
6
CONTINUOUS
10
5.64403
20
-5.05326
11
5.64387
21
-5.05332
0
LINE
8
BLACK
6
CONTINUOUS
10
5.64387
20
-5.05332
11
5.63262
21
-5.05332
0
LINE
8
BLACK
6
CONTINUOUS
10
5.63262
20
-5.05332
11
5.63161
21
-5.05314
0
LINE
8
BLACK
6
CONTINUOUS
10
5.63161
20
-5.05314
11
5.63147
21
-5.05303
0
LINE
8
BLACK
6
CONTINUOUS
10
5.63147
20
-5.05303
11
5.6313
21
-5.05301
0
LINE
8
BLACK
6
CONTINUOUS
10
5.6313
20
-5.05301
11
5.62755
21
-5.05114
0
LINE
8
BLACK
6
CONTINUOUS
10
5.62755
20
-5.05114
11
5.62684
21
-5.05061
0
LINE
8
BLACK
6
CONTINUOUS
10
5.62684
20
-5.05061
11
5.62678
21
-5.05058
0
LINE
8
BLACK
6
CONTINUOUS
10
5.62678
20
-5.05058
11
5.6249
21
-5.04871
0
LINE
8
BLACK
6
CONTINUOUS
10
5.6249
20
-5.04871
11
5.62432
21
-5.04787
0
LINE
8
BLACK
6
CONTINUOUS
10
5.62432
20
-5.04787
11
5.62414
21
-5.04586
0
LINE
8
BLACK
6
CONTINUOUS
10
5.62414
20
-5.04586
11
5.6253
21
-5.0442
0
LINE
8
BLACK
6
CONTINUOUS
10
5.6253
20
-5.0442
11
5.62725
21
-5.04368
0
LINE
8
BLACK
6
CONTINUOUS
10
5.62725
20
-5.04368
11
5.62908
21
-5.04453
0
LINE
8
BLACK
6
CONTINUOUS
10
5.62908
20
-5.04453
11
5.63062
21
-5.04607
0
LINE
8
BLACK
6
CONTINUOUS
10
5.63062
20
-5.04607
11
5.63331
21
-5.04742
0
LINE
8
BLACK
6
CONTINUOUS
10
5.63331
20
-5.04742
11
5.64317
21
-5.04742
0
LINE
8
BLACK
6
CONTINUOUS
10
5.64317
20
-5.04742
11
5.64587
21
-5.04607
0
LINE
8
BLACK
6
CONTINUOUS
10
5.64587
20
-5.04607
11
5.64706
21
-5.04487
0
LINE
8
BLACK
6
CONTINUOUS
10
5.64706
20
-5.04487
11
5.64841
21
-5.04217
0
LINE
8
BLACK
6
CONTINUOUS
10
5.64841
20
-5.04217
11
5.64841
21
-5.03419
0
LINE
8
BLACK
6
CONTINUOUS
10
5.64841
20
-5.03419
11
5.64706
21
-5.0315
0
LINE
8
BLACK
6
CONTINUOUS
10
5.64706
20
-5.0315
11
5.64587
21
-5.0303
0
LINE
8
BLACK
6
CONTINUOUS
10
5.64587
20
-5.0303
11
5.64317
21
-5.02895
0
LINE
8
BLACK
6
CONTINUOUS
10
5.64317
20
-5.02895
11
5.63824
21
-5.02895
0
LINE
8
BLACK
6
CONTINUOUS
10
5.63824
20
-5.02895
11
5.6378
21
-5.02887
0
LINE
8
BLACK
6
CONTINUOUS
10
5.6378
20
-5.02887
11
5.63767
21
-5.02889
0
LINE
8
BLACK
6
CONTINUOUS
10
5.63767
20
-5.02889
11
5.63756
21
-5.02883
0
LINE
8
BLACK
6
CONTINUOUS
10
5.63756
20
-5.02883
11
5.63723
21
-5.02877
0
LINE
8
BLACK
6
CONTINUOUS
10
5.63723
20
-5.02877
11
5.63662
21
-5.02826
0
LINE
8
BLACK
6
CONTINUOUS
10
5.63662
20
-5.02826
11
5.63594
21
-5.02785
0
LINE
8
BLACK
6
CONTINUOUS
10
5.63594
20
-5.02785
11
5.63586
21
-5.02763
0
LINE
8
BLACK
6
CONTINUOUS
10
5.63586
20
-5.02763
11
5.63568
21
-5.02747
0
LINE
8
BLACK
6
CONTINUOUS
10
5.63568
20
-5.02747
11
5.63555
21
-5.02669
0
LINE
8
BLACK
6
CONTINUOUS
10
5.63555
20
-5.02669
11
5.63529
21
-5.02594
0
LINE
8
BLACK
6
CONTINUOUS
10
5.63529
20
-5.02594
11
5.63537
21
-5.02572
0
LINE
8
BLACK
6
CONTINUOUS
10
5.63537
20
-5.02572
11
5.63533
21
-5.02548
0
LINE
8
BLACK
6
CONTINUOUS
10
5.63533
20
-5.02548
11
5.63573
21
-5.0248
0
LINE
8
BLACK
6
CONTINUOUS
10
5.63573
20
-5.0248
11
5.63602
21
-5.02405
0
LINE
8
BLACK
6
CONTINUOUS
10
5.63602
20
-5.02405
11
5.64486
21
-5.01395
0
LINE
8
BLACK
6
CONTINUOUS
10
5.64486
20
-5.01395
11
5.62699
21
-5.01395
0
LINE
8
BLACK
6
CONTINUOUS
10
5.62699
20
-5.01395
11
5.62598
21
-5.01377
0
LINE
8
BLACK
6
CONTINUOUS
10
5.62598
20
-5.01377
11
5.62444
21
-5.01248
0
LINE
8
BLACK
6
CONTINUOUS
10
5.62444
20
-5.01248
11
5.62408
21
-5.01049
0
LINE
8
BLACK
6
CONTINUOUS
10
5.62408
20
-5.01049
11
5.62509
21
-5.00874
0
LINE
8
BLACK
6
CONTINUOUS
10
5.62509
20
-5.00874
11
5.62699
21
-5.00805
0
LINE
8
BLACK
6
CONTINUOUS
10
5.62699
20
-5.00805
11
5.65136
21
-5.00805
0
LINE
8
BLACK
6
CONTINUOUS
10
5.65136
20
-5.00805
11
5.6518
21
-5.00812
0
LINE
8
BLACK
6
CONTINUOUS
10
5.61426
20
-5.0091
11
5.61495
21
-5.011
0
LINE
8
BLACK
6
CONTINUOUS
10
5.61495
20
-5.011
11
5.61495
21
-5.03912
0
LINE
8
BLACK
6
CONTINUOUS
10
5.61495
20
-5.03912
11
5.61479
21
-5.03999
0
LINE
8
BLACK
6
CONTINUOUS
10
5.61479
20
-5.03999
11
5.6148
21
-5.04005
0
LINE
8
BLACK
6
CONTINUOUS
10
5.6148
20
-5.04005
11
5.61292
21
-5.04568
0
LINE
8
BLACK
6
CONTINUOUS
10
5.61292
20
-5.04568
11
5.61243
21
-5.04658
0
LINE
8
BLACK
6
CONTINUOUS
10
5.61243
20
-5.04658
11
5.61228
21
-5.04667
0
LINE
8
BLACK
6
CONTINUOUS
10
5.61228
20
-5.04667
11
5.61221
21
-5.04683
0
LINE
8
BLACK
6
CONTINUOUS
10
5.61221
20
-5.04683
11
5.60846
21
-5.05058
0
LINE
8
BLACK
6
CONTINUOUS
10
5.60846
20
-5.05058
11
5.60762
21
-5.05117
0
LINE
8
BLACK
6
CONTINUOUS
10
5.60762
20
-5.05117
11
5.60744
21
-5.05119
0
LINE
8
BLACK
6
CONTINUOUS
10
5.60744
20
-5.05119
11
5.6073
21
-5.0513
0
LINE
8
BLACK
6
CONTINUOUS
10
5.6073
20
-5.0513
11
5.60168
21
-5.05317
0
LINE
8
BLACK
6
CONTINUOUS
10
5.60168
20
-5.05317
11
5.60081
21
-5.0533
0
LINE
8
BLACK
6
CONTINUOUS
10
5.60081
20
-5.0533
11
5.60075
21
-5.05332
0
LINE
8
BLACK
6
CONTINUOUS
10
5.60075
20
-5.05332
11
5.597
21
-5.05332
0
LINE
8
BLACK
6
CONTINUOUS
10
5.597
20
-5.05332
11
5.59599
21
-5.05314
0
LINE
8
BLACK
6
CONTINUOUS
10
5.59599
20
-5.05314
11
5.59444
21
-5.05185
0
LINE
8
BLACK
6
CONTINUOUS
10
5.59444
20
-5.05185
11
5.59409
21
-5.04986
0
LINE
8
BLACK
6
CONTINUOUS
10
5.59409
20
-5.04986
11
5.5951
21
-5.04811
0
LINE
8
BLACK
6
CONTINUOUS
10
5.5951
20
-5.04811
11
5.597
21
-5.04742
0
LINE
8
BLACK
6
CONTINUOUS
10
5.597
20
-5.04742
11
5.60027
21
-5.04742
0
LINE
8
BLACK
6
CONTINUOUS
10
5.60027
20
-5.04742
11
5.60478
21
-5.04591
0
LINE
8
BLACK
6
CONTINUOUS
10
5.60478
20
-5.04591
11
5.60754
21
-5.04315
0
LINE
8
BLACK
6
CONTINUOUS
10
5.60754
20
-5.04315
11
5.60904
21
-5.03864
0
LINE
8
BLACK
6
CONTINUOUS
10
5.60904
20
-5.03864
11
5.60904
21
-5.011
0
LINE
8
BLACK
6
CONTINUOUS
10
5.60904
20
-5.011
11
5.60922
21
-5.00999
0
LINE
8
BLACK
6
CONTINUOUS
10
5.60922
20
-5.00999
11
5.61052
21
-5.00844
0
LINE
8
BLACK
6
CONTINUOUS
10
5.61052
20
-5.00844
11
5.61251
21
-5.00809
0
LINE
8
BLACK
6
CONTINUOUS
10
5.61251
20
-5.00809
11
5.61426
21
-5.0091
0
LINE
8
BLACK
6
CONTINUOUS
10
6.41259
20
-4.76601
11
6.41272
21
-4.76599
0
LINE
8
BLACK
6
CONTINUOUS
10
6.41272
20
-4.76599
11
6.41283
21
-4.76606
0
LINE
8
BLACK
6
CONTINUOUS
10
6.41283
20
-4.76606
11
6.41321
21
-4.76612
0
LINE
8
BLACK
6
CONTINUOUS
10
6.41321
20
-4.76612
11
6.4138
21
-4.76662
0
LINE
8
BLACK
6
CONTINUOUS
10
6.4138
20
-4.76662
11
6.41447
21
-4.767
0
LINE
8
BLACK
6
CONTINUOUS
10
6.41447
20
-4.767
11
6.41456
21
-4.76725
0
LINE
8
BLACK
6
CONTINUOUS
10
6.41456
20
-4.76725
11
6.41476
21
-4.76742
0
LINE
8
BLACK
6
CONTINUOUS
10
6.41476
20
-4.76742
11
6.4149
21
-4.76818
0
LINE
8
BLACK
6
CONTINUOUS
10
6.4149
20
-4.76818
11
6.41516
21
-4.7689
0
LINE
8
BLACK
6
CONTINUOUS
10
6.41516
20
-4.7689
11
6.41516
21
-4.8689
0
LINE
8
BLACK
6
CONTINUOUS
10
6.41516
20
-4.8689
11
6.41509
21
-4.86928
0
LINE
8
BLACK
6
CONTINUOUS
10
6.41509
20
-4.86928
11
6.41511
21
-4.86941
0
LINE
8
BLACK
6
CONTINUOUS
10
6.41511
20
-4.86941
11
6.41505
21
-4.86952
0
LINE
8
BLACK
6
CONTINUOUS
10
6.41505
20
-4.86952
11
6.41498
21
-4.86991
0
LINE
8
BLACK
6
CONTINUOUS
10
6.41498
20
-4.86991
11
6.41449
21
-4.8705
0
LINE
8
BLACK
6
CONTINUOUS
10
6.41449
20
-4.8705
11
6.4141
21
-4.87116
0
LINE
8
BLACK
6
CONTINUOUS
10
6.4141
20
-4.87116
11
6.41385
21
-4.87125
0
LINE
8
BLACK
6
CONTINUOUS
10
6.41385
20
-4.87125
11
6.41368
21
-4.87145
0
LINE
8
BLACK
6
CONTINUOUS
10
6.41368
20
-4.87145
11
6.41293
21
-4.87159
0
LINE
8
BLACK
6
CONTINUOUS
10
6.41293
20
-4.87159
11
6.4122
21
-4.87185
0
LINE
8
BLACK
6
CONTINUOUS
10
6.4122
20
-4.87185
11
6.3122
21
-4.87185
0
LINE
8
BLACK
6
CONTINUOUS
10
6.3122
20
-4.87185
11
6.31182
21
-4.87178
0
LINE
8
BLACK
6
CONTINUOUS
10
6.31182
20
-4.87178
11
6.31169
21
-4.87181
0
LINE
8
BLACK
6
CONTINUOUS
10
6.31169
20
-4.87181
11
6.31158
21
-4.87174
0
LINE
8
BLACK
6
CONTINUOUS
10
6.31158
20
-4.87174
11
6.31119
21
-4.87167
0
LINE
8
BLACK
6
CONTINUOUS
10
6.31119
20
-4.87167
11
6.31061
21
-4.87118
0
LINE
8
BLACK
6
CONTINUOUS
10
6.31061
20
-4.87118
11
6.30994
21
-4.8708
0
LINE
8
BLACK
6
CONTINUOUS
10
6.30994
20
-4.8708
11
6.30985
21
-4.87055
0
LINE
8
BLACK
6
CONTINUOUS
10
6.30985
20
-4.87055
11
6.30965
21
-4.87037
0
LINE
8
BLACK
6
CONTINUOUS
10
6.30965
20
-4.87037
11
6.30951
21
-4.86962
0
LINE
8
BLACK
6
CONTINUOUS
10
6.30951
20
-4.86962
11
6.30925
21
-4.8689
0
LINE
8
BLACK
6
CONTINUOUS
10
6.30925
20
-4.8689
11
6.30925
21
-4.7689
0
LINE
8
BLACK
6
CONTINUOUS
10
6.30925
20
-4.7689
11
6.30932
21
-4.76851
0
LINE
8
BLACK
6
CONTINUOUS
10
6.30932
20
-4.76851
11
6.3093
21
-4.76838
0
LINE
8
BLACK
6
CONTINUOUS
10
6.3093
20
-4.76838
11
6.30936
21
-4.76827
0
LINE
8
BLACK
6
CONTINUOUS
10
6.30936
20
-4.76827
11
6.30943
21
-4.76789
0
LINE
8
BLACK
6
CONTINUOUS
10
6.30943
20
-4.76789
11
6.30992
21
-4.7673
0
LINE
8
BLACK
6
CONTINUOUS
10
6.30992
20
-4.7673
11
6.31031
21
-4.76664
0
LINE
8
BLACK
6
CONTINUOUS
10
6.31031
20
-4.76664
11
6.31056
21
-4.76654
0
LINE
8
BLACK
6
CONTINUOUS
10
6.31056
20
-4.76654
11
6.31073
21
-4.76634
0
LINE
8
BLACK
6
CONTINUOUS
10
6.31073
20
-4.76634
11
6.31148
21
-4.76621
0
LINE
8
BLACK
6
CONTINUOUS
10
6.31148
20
-4.76621
11
6.3122
21
-4.76594
0
LINE
8
BLACK
6
CONTINUOUS
10
6.3122
20
-4.76594
11
6.4122
21
-4.76594
0
LINE
8
BLACK
6
CONTINUOUS
10
6.4122
20
-4.76594
11
6.41259
21
-4.76601
0
LINE
8
BLACK
6
CONTINUOUS
10
6.31516
20
-4.77185
11
6.31516
21
-4.86594
0
LINE
8
BLACK
6
CONTINUOUS
10
6.31516
20
-4.86594
11
6.40925
21
-4.86594
0
LINE
8
BLACK
6
CONTINUOUS
10
6.40925
20
-4.86594
11
6.40925
21
-4.77185
0
LINE
8
BLACK
6
CONTINUOUS
10
6.40925
20
-4.77185
11
6.31516
21
-4.77185
0
LINE
8
BLACK
6
CONTINUOUS
10
5.92022
20
-4.80462
11
5.91965
21
-4.80323
0
LINE
8
BLACK
6
CONTINUOUS
10
5.91965
20
-4.80323
11
5.91965
21
-3.54323
0
LINE
8
BLACK
6
CONTINUOUS
10
5.91965
20
-3.54323
11
5.92022
21
-3.54184
0
LINE
8
BLACK
6
CONTINUOUS
10
5.92022
20
-3.54184
11
5.92161
21
-3.54126
0
LINE
8
BLACK
6
CONTINUOUS
10
5.92161
20
-3.54126
11
6.25161
21
-3.54126
0
LINE
8
BLACK
6
CONTINUOUS
10
6.25161
20
-3.54126
11
6.25301
21
-3.54184
0
LINE
8
BLACK
6
CONTINUOUS
10
6.25301
20
-3.54184
11
6.25358
21
-3.54323
0
LINE
8
BLACK
6
CONTINUOUS
10
6.25358
20
-3.54323
11
6.25358
21
-4.80323
0
LINE
8
BLACK
6
CONTINUOUS
10
6.25358
20
-4.80323
11
6.25301
21
-4.80462
0
LINE
8
BLACK
6
CONTINUOUS
10
6.25301
20
-4.80462
11
6.25161
21
-4.8052
0
LINE
8
BLACK
6
CONTINUOUS
10
6.25161
20
-4.8052
11
5.92161
21
-4.8052
0
LINE
8
BLACK
6
CONTINUOUS
10
5.92161
20
-4.8052
11
5.92022
21
-4.80462
0
LINE
8
BLACK
6
CONTINUOUS
10
5.92358
20
-3.5452
11
5.92358
21
-4.80126
0
LINE
8
BLACK
6
CONTINUOUS
10
5.92358
20
-4.80126
11
6.24965
21
-4.80126
0
LINE
8
BLACK
6
CONTINUOUS
10
6.24965
20
-4.80126
11
6.24965
21
-3.5452
0
LINE
8
BLACK
6
CONTINUOUS
10
6.24965
20
-3.5452
11
5.92358
21
-3.5452
0
LINE
8
BLACK
6
CONTINUOUS
10
6.08905
20
-4.18855
11
6.08911
21
-4.18855
0
LINE
8
BLACK
6
CONTINUOUS
10
6.08911
20
-4.18855
11
6.09473
21
-4.19043
0
LINE
8
BLACK
6
CONTINUOUS
10
6.09473
20
-4.19043
11
6.09564
21
-4.19091
0
LINE
8
BLACK
6
CONTINUOUS
10
6.09564
20
-4.19091
11
6.09573
21
-4.19106
0
LINE
8
BLACK
6
CONTINUOUS
10
6.09573
20
-4.19106
11
6.09589
21
-4.19114
0
LINE
8
BLACK
6
CONTINUOUS
10
6.09589
20
-4.19114
11
6.09964
21
-4.19489
0
LINE
8
BLACK
6
CONTINUOUS
10
6.09964
20
-4.19489
11
6.10023
21
-4.19573
0
LINE
8
BLACK
6
CONTINUOUS
10
6.10023
20
-4.19573
11
6.10024
21
-4.1959
0
LINE
8
BLACK
6
CONTINUOUS
10
6.10024
20
-4.1959
11
6.10035
21
-4.19604
0
LINE
8
BLACK
6
CONTINUOUS
10
6.10035
20
-4.19604
11
6.10223
21
-4.20167
0
LINE
8
BLACK
6
CONTINUOUS
10
6.10223
20
-4.20167
11
6.10236
21
-4.20254
0
LINE
8
BLACK
6
CONTINUOUS
10
6.10236
20
-4.20254
11
6.10238
21
-4.2026
0
LINE
8
BLACK
6
CONTINUOUS
10
6.10238
20
-4.2026
11
6.10238
21
-4.20635
0
LINE
8
BLACK
6
CONTINUOUS
10
6.10238
20
-4.20635
11
6.1022
21
-4.20736
0
LINE
8
BLACK
6
CONTINUOUS
10
6.1022
20
-4.20736
11
6.1009
21
-4.20891
0
LINE
8
BLACK
6
CONTINUOUS
10
6.1009
20
-4.20891
11
6.09891
21
-4.20926
0
LINE
8
BLACK
6
CONTINUOUS
10
6.09891
20
-4.20926
11
6.09716
21
-4.20825
0
LINE
8
BLACK
6
CONTINUOUS
10
6.09716
20
-4.20825
11
6.09647
21
-4.20635
0
LINE
8
BLACK
6
CONTINUOUS
10
6.09647
20
-4.20635
11
6.09647
21
-4.20308
0
LINE
8
BLACK
6
CONTINUOUS
10
6.09647
20
-4.20308
11
6.09497
21
-4.19857
0
LINE
8
BLACK
6
CONTINUOUS
10
6.09497
20
-4.19857
11
6.09221
21
-4.19581
0
LINE
8
BLACK
6
CONTINUOUS
10
6.09221
20
-4.19581
11
6.0877
21
-4.1943
0
LINE
8
BLACK
6
CONTINUOUS
10
6.0877
20
-4.1943
11
6.06005
21
-4.1943
0
LINE
8
BLACK
6
CONTINUOUS
10
6.06005
20
-4.1943
11
6.05904
21
-4.19413
0
LINE
8
BLACK
6
CONTINUOUS
10
6.05904
20
-4.19413
11
6.0575
21
-4.19283
0
LINE
8
BLACK
6
CONTINUOUS
10
6.0575
20
-4.19283
11
6.05715
21
-4.19084
0
LINE
8
BLACK
6
CONTINUOUS
10
6.05715
20
-4.19084
11
6.05816
21
-4.18909
0
LINE
8
BLACK
6
CONTINUOUS
10
6.05816
20
-4.18909
11
6.06005
21
-4.1884
0
LINE
8
BLACK
6
CONTINUOUS
10
6.06005
20
-4.1884
11
6.08818
21
-4.1884
0
LINE
8
BLACK
6
CONTINUOUS
10
6.08818
20
-4.1884
11
6.08905
21
-4.18855
0
LINE
8
BLACK
6
CONTINUOUS
10
6.09294
20
-4.14921
11
6.09307
21
-4.14932
0
LINE
8
BLACK
6
CONTINUOUS
10
6.09307
20
-4.14932
11
6.09325
21
-4.14934
0
LINE
8
BLACK
6
CONTINUOUS
10
6.09325
20
-4.14934
11
6.097
21
-4.15122
0
LINE
8
BLACK
6
CONTINUOUS
10
6.097
20
-4.15122
11
6.0977
21
-4.15174
0
LINE
8
BLACK
6
CONTINUOUS
10
6.0977
20
-4.15174
11
6.09776
21
-4.15177
0
LINE
8
BLACK
6
CONTINUOUS
10
6.09776
20
-4.15177
11
6.09964
21
-4.15364
0
LINE
8
BLACK
6
CONTINUOUS
10
6.09964
20
-4.15364
11
6.10014
21
-4.15437
0
LINE
8
BLACK
6
CONTINUOUS
10
6.10014
20
-4.15437
11
6.10019
21
-4.15441
0
LINE
8
BLACK
6
CONTINUOUS
10
6.10019
20
-4.15441
11
6.10207
21
-4.15816
0
LINE
8
BLACK
6
CONTINUOUS
10
6.10207
20
-4.15816
11
6.10236
21
-4.15914
0
LINE
8
BLACK
6
CONTINUOUS
10
6.10236
20
-4.15914
11
6.10232
21
-4.15931
0
LINE
8
BLACK
6
CONTINUOUS
10
6.10232
20
-4.15931
11
6.10238
21
-4.15948
0
LINE
8
BLACK
6
CONTINUOUS
10
6.10238
20
-4.15948
11
6.10238
21
-4.16885
0
LINE
8
BLACK
6
CONTINUOUS
10
6.10238
20
-4.16885
11
6.1022
21
-4.16986
0
LINE
8
BLACK
6
CONTINUOUS
10
6.1022
20
-4.16986
11
6.10209
21
-4.17
0
LINE
8
BLACK
6
CONTINUOUS
10
6.10209
20
-4.17
11
6.10207
21
-4.17017
0
LINE
8
BLACK
6
CONTINUOUS
10
6.10207
20
-4.17017
11
6.10019
21
-4.17392
0
LINE
8
BLACK
6
CONTINUOUS
10
6.10019
20
-4.17392
11
6.09966
21
-4.17463
0
LINE
8
BLACK
6
CONTINUOUS
10
6.09966
20
-4.17463
11
6.09964
21
-4.17469
0
LINE
8
BLACK
6
CONTINUOUS
10
6.09964
20
-4.17469
11
6.09776
21
-4.17657
0
LINE
8
BLACK
6
CONTINUOUS
10
6.09776
20
-4.17657
11
6.09692
21
-4.17715
0
LINE
8
BLACK
6
CONTINUOUS
10
6.09692
20
-4.17715
11
6.09491
21
-4.17733
0
LINE
8
BLACK
6
CONTINUOUS
10
6.09491
20
-4.17733
11
6.09326
21
-4.17617
0
LINE
8
BLACK
6
CONTINUOUS
10
6.09326
20
-4.17617
11
6.09273
21
-4.17422
0
LINE
8
BLACK
6
CONTINUOUS
10
6.09273
20
-4.17422
11
6.09359
21
-4.17239
0
LINE
8
BLACK
6
CONTINUOUS
10
6.09359
20
-4.17239
11
6.09512
21
-4.17085
0
LINE
8
BLACK
6
CONTINUOUS
10
6.09512
20
-4.17085
11
6.09647
21
-4.16816
0
LINE
8
BLACK
6
CONTINUOUS
10
6.09647
20
-4.16816
11
6.09647
21
-4.16018
0
LINE
8
BLACK
6
CONTINUOUS
10
6.09647
20
-4.16018
11
6.09512
21
-4.15748
0
LINE
8
BLACK
6
CONTINUOUS
10
6.09512
20
-4.15748
11
6.09393
21
-4.15628
0
LINE
8
BLACK
6
CONTINUOUS
10
6.09393
20
-4.15628
11
6.09123
21
-4.15493
0
LINE
8
BLACK
6
CONTINUOUS
10
6.09123
20
-4.15493
11
6.08325
21
-4.15493
0
LINE
8
BLACK
6
CONTINUOUS
10
6.08325
20
-4.15493
11
6.08055
21
-4.15628
0
LINE
8
BLACK
6
CONTINUOUS
10
6.08055
20
-4.15628
11
6.07935
21
-4.15748
0
LINE
8
BLACK
6
CONTINUOUS
10
6.07935
20
-4.15748
11
6.07801
21
-4.16018
0
LINE
8
BLACK
6
CONTINUOUS
10
6.07801
20
-4.16018
11
6.07801
21
-4.16816
0
LINE
8
BLACK
6
CONTINUOUS
10
6.07801
20
-4.16816
11
6.07935
21
-4.17085
0
LINE
8
BLACK
6
CONTINUOUS
10
6.07935
20
-4.17085
11
6.08089
21
-4.17239
0
LINE
8
BLACK
6
CONTINUOUS
10
6.08089
20
-4.17239
11
6.08148
21
-4.17323
0
LINE
8
BLACK
6
CONTINUOUS
10
6.08148
20
-4.17323
11
6.08148
21
-4.17325
0
LINE
8
BLACK
6
CONTINUOUS
10
6.08148
20
-4.17325
11
6.08149
21
-4.17326
0
LINE
8
BLACK
6
CONTINUOUS
10
6.08149
20
-4.17326
11
6.08157
21
-4.17425
0
LINE
8
BLACK
6
CONTINUOUS
10
6.08157
20
-4.17425
11
6.08165
21
-4.17524
0
LINE
8
BLACK
6
CONTINUOUS
10
6.08165
20
-4.17524
11
6.08164
21
-4.17526
0
LINE
8
BLACK
6
CONTINUOUS
10
6.08164
20
-4.17526
11
6.08164
21
-4.17528
0
LINE
8
BLACK
6
CONTINUOUS
10
6.08164
20
-4.17528
11
6.08106
21
-4.17609
0
LINE
8
BLACK
6
CONTINUOUS
10
6.08106
20
-4.17609
11
6.0805
21
-4.1769
0
LINE
8
BLACK
6
CONTINUOUS
10
6.0805
20
-4.1769
11
6.08048
21
-4.1769
0
LINE
8
BLACK
6
CONTINUOUS
10
6.08048
20
-4.1769
11
6.08047
21
-4.17692
0
LINE
8
BLACK
6
CONTINUOUS
10
6.08047
20
-4.17692
11
6.0795
21
-4.17716
0
LINE
8
BLACK
6
CONTINUOUS
10
6.0795
20
-4.17716
11
6.07854
21
-4.17742
0
LINE
8
BLACK
6
CONTINUOUS
10
6.07854
20
-4.17742
11
6.07853
21
-4.17741
0
LINE
8
BLACK
6
CONTINUOUS
10
6.07853
20
-4.17741
11
6.07851
21
-4.17742
0
LINE
8
BLACK
6
CONTINUOUS
10
6.07851
20
-4.17742
11
6.05976
21
-4.17554
0
LINE
8
BLACK
6
CONTINUOUS
10
6.05976
20
-4.17554
11
6.05961
21
-4.1755
0
LINE
8
BLACK
6
CONTINUOUS
10
6.05961
20
-4.1755
11
6.05954
21
-4.17551
0
LINE
8
BLACK
6
CONTINUOUS
10
6.05954
20
-4.17551
11
6.05944
21
-4.17545
0
LINE
8
BLACK
6
CONTINUOUS
10
6.05944
20
-4.17545
11
6.05877
21
-4.17526
0
LINE
8
BLACK
6
CONTINUOUS
10
6.05877
20
-4.17526
11
6.05834
21
-4.17482
0
LINE
8
BLACK
6
CONTINUOUS
10
6.05834
20
-4.17482
11
6.05779
21
-4.1745
0
LINE
8
BLACK
6
CONTINUOUS
10
6.05779
20
-4.1745
11
6.05765
21
-4.17411
0
LINE
8
BLACK
6
CONTINUOUS
10
6.05765
20
-4.17411
11
6.05736
21
-4.17382
0
LINE
8
BLACK
6
CONTINUOUS
10
6.05736
20
-4.17382
11
6.05732
21
-4.17319
0
LINE
8
BLACK
6
CONTINUOUS
10
6.05732
20
-4.17319
11
6.0571
21
-4.1726
0
LINE
8
BLACK
6
CONTINUOUS
10
6.0571
20
-4.1726
11
6.0571
21
-4.15386
0
LINE
8
BLACK
6
CONTINUOUS
10
6.0571
20
-4.15386
11
6.05728
21
-4.15285
0
LINE
8
BLACK
6
CONTINUOUS
10
6.05728
20
-4.15285
11
6.05858
21
-4.1513
0
LINE
8
BLACK
6
CONTINUOUS
10
6.05858
20
-4.1513
11
6.06057
21
-4.15095
0
LINE
8
BLACK
6
CONTINUOUS
10
6.06057
20
-4.15095
11
6.06232
21
-4.15196
0
LINE
8
BLACK
6
CONTINUOUS
10
6.06232
20
-4.15196
11
6.06301
21
-4.15386
0
LINE
8
BLACK
6
CONTINUOUS
10
6.06301
20
-4.15386
11
6.06301
21
-4.16993
0
LINE
8
BLACK
6
CONTINUOUS
10
6.06301
20
-4.16993
11
6.07278
21
-4.17091
0
LINE
8
BLACK
6
CONTINUOUS
10
6.07278
20
-4.17091
11
6.07241
21
-4.17017
0
LINE
8
BLACK
6
CONTINUOUS
10
6.07241
20
-4.17017
11
6.07212
21
-4.16919
0
LINE
8
BLACK
6
CONTINUOUS
10
6.07212
20
-4.16919
11
6.07216
21
-4.16902
0
LINE
8
BLACK
6
CONTINUOUS
10
6.07216
20
-4.16902
11
6.0721
21
-4.16885
0
LINE
8
BLACK
6
CONTINUOUS
10
6.0721
20
-4.16885
11
6.0721
21
-4.15948
0
LINE
8
BLACK
6
CONTINUOUS
10
6.0721
20
-4.15948
11
6.07228
21
-4.15847
0
LINE
8
BLACK
6
CONTINUOUS
10
6.07228
20
-4.15847
11
6.07239
21
-4.15834
0
LINE
8
BLACK
6
CONTINUOUS
10
6.07239
20
-4.15834
11
6.07241
21
-4.15816
0
LINE
8
BLACK
6
CONTINUOUS
10
6.07241
20
-4.15816
11
6.07429
21
-4.15441
0
LINE
8
BLACK
6
CONTINUOUS
10
6.07429
20
-4.15441
11
6.07481
21
-4.1537
0
LINE
8
BLACK
6
CONTINUOUS
10
6.07481
20
-4.1537
11
6.07484
21
-4.15364
0
LINE
8
BLACK
6
CONTINUOUS
10
6.07484
20
-4.15364
11
6.07671
21
-4.15177
0
LINE
8
BLACK
6
CONTINUOUS
10
6.07671
20
-4.15177
11
6.07744
21
-4.15126
0
LINE
8
BLACK
6
CONTINUOUS
10
6.07744
20
-4.15126
11
6.07748
21
-4.15122
0
LINE
8
BLACK
6
CONTINUOUS
10
6.07748
20
-4.15122
11
6.08123
21
-4.14934
0
LINE
8
BLACK
6
CONTINUOUS
10
6.08123
20
-4.14934
11
6.08221
21
-4.14905
0
LINE
8
BLACK
6
CONTINUOUS
10
6.08221
20
-4.14905
11
6.08239
21
-4.14909
0
LINE
8
BLACK
6
CONTINUOUS
10
6.08239
20
-4.14909
11
6.08255
21
-4.14903
0
LINE
8
BLACK
6
CONTINUOUS
10
6.08255
20
-4.14903
11
6.09193
21
-4.14903
0
LINE
8
BLACK
6
CONTINUOUS
10
6.09193
20
-4.14903
11
6.09294
21
-4.14921
0
LINE
8
BLACK
6
CONTINUOUS
10
4.98684
20
-4.80462
11
4.98626
21
-4.80323
0
LINE
8
BLACK
6
CONTINUOUS
10
4.98626
20
-4.80323
11
4.98626
21
-3.54323
0
LINE
8
BLACK
6
CONTINUOUS
10
4.98626
20
-3.54323
11
4.98684
21
-3.54184
0
LINE
8
BLACK
6
CONTINUOUS
10
4.98684
20
-3.54184
11
4.98823
21
-3.54126
0
LINE
8
BLACK
6
CONTINUOUS
10
4.98823
20
-3.54126
11
5.31823
21
-3.54126
0
LINE
8
BLACK
6
CONTINUOUS
10
5.31823
20
-3.54126
11
5.31962
21
-3.54184
0
LINE
8
BLACK
6
CONTINUOUS
10
5.31962
20
-3.54184
11
5.3202
21
-3.54323
0
LINE
8
BLACK
6
CONTINUOUS
10
5.3202
20
-3.54323
11
5.3202
21
-4.80323
0
LINE
8
BLACK
6
CONTINUOUS
10
5.3202
20
-4.80323
11
5.31962
21
-4.80462
0
LINE
8
BLACK
6
CONTINUOUS
10
5.31962
20
-4.80462
11
5.31823
21
-4.8052
0
LINE
8
BLACK
6
CONTINUOUS
10
5.31823
20
-4.8052
11
4.98823
21
-4.8052
0
LINE
8
BLACK
6
CONTINUOUS
10
4.98823
20
-4.8052
11
4.98684
21
-4.80462
0
LINE
8
BLACK
6
CONTINUOUS
10
4.9902
20
-3.5452
11
4.9902
21
-4.80126
0
LINE
8
BLACK
6
CONTINUOUS
10
4.9902
20
-4.80126
11
5.31626
21
-4.80126
0
LINE
8
BLACK
6
CONTINUOUS
10
5.31626
20
-4.80126
11
5.31626
21
-3.5452
0
LINE
8
BLACK
6
CONTINUOUS
10
5.31626
20
-3.5452
11
4.9902
21
-3.5452
0
LINE
8
BLACK
6
CONTINUOUS
10
5.15566
20
-4.18855
11
5.15572
21
-4.18855
0
LINE
8
BLACK
6
CONTINUOUS
10
5.15572
20
-4.18855
11
5.16135
21
-4.19043
0
LINE
8
BLACK
6
CONTINUOUS
10
5.16135
20
-4.19043
11
5.16225
21
-4.19091
0
LINE
8
BLACK
6
CONTINUOUS
10
5.16225
20
-4.19091
11
5.16234
21
-4.19106
0
LINE
8
BLACK
6
CONTINUOUS
10
5.16234
20
-4.19106
11
5.1625
21
-4.19114
0
LINE
8
BLACK
6
CONTINUOUS
10
5.1625
20
-4.19114
11
5.16625
21
-4.19489
0
LINE
8
BLACK
6
CONTINUOUS
10
5.16625
20
-4.19489
11
5.16684
21
-4.19573
0
LINE
8
BLACK
6
CONTINUOUS
10
5.16684
20
-4.19573
11
5.16686
21
-4.1959
0
LINE
8
BLACK
6
CONTINUOUS
10
5.16686
20
-4.1959
11
5.16697
21
-4.19604
0
LINE
8
BLACK
6
CONTINUOUS
10
5.16697
20
-4.19604
11
5.16884
21
-4.20167
0
LINE
8
BLACK
6
CONTINUOUS
10
5.16884
20
-4.20167
11
5.16897
21
-4.20254
0
LINE
8
BLACK
6
CONTINUOUS
10
5.16897
20
-4.20254
11
5.16899
21
-4.2026
0
LINE
8
BLACK
6
CONTINUOUS
10
5.16899
20
-4.2026
11
5.16899
21
-4.20635
0
LINE
8
BLACK
6
CONTINUOUS
10
5.16899
20
-4.20635
11
5.16881
21
-4.20736
0
LINE
8
BLACK
6
CONTINUOUS
10
5.16881
20
-4.20736
11
5.16751
21
-4.20891
0
LINE
8
BLACK
6
CONTINUOUS
10
5.16751
20
-4.20891
11
5.16553
21
-4.20926
0
LINE
8
BLACK
6
CONTINUOUS
10
5.16553
20
-4.20926
11
5.16378
21
-4.20825
0
LINE
8
BLACK
6
CONTINUOUS
10
5.16378
20
-4.20825
11
5.16309
21
-4.20635
0
LINE
8
BLACK
6
CONTINUOUS
10
5.16309
20
-4.20635
11
5.16309
21
-4.20308
0
LINE
8
BLACK
6
CONTINUOUS
10
5.16309
20
-4.20308
11
5.16158
21
-4.19857
0
LINE
8
BLACK
6
CONTINUOUS
10
5.16158
20
-4.19857
11
5.15882
21
-4.19581
0
LINE
8
BLACK
6
CONTINUOUS
10
5.15882
20
-4.19581
11
5.15431
21
-4.1943
0
LINE
8
BLACK
6
CONTINUOUS
10
5.15431
20
-4.1943
11
5.12667
21
-4.1943
0
LINE
8
BLACK
6
CONTINUOUS
10
5.12667
20
-4.1943
11
5.12566
21
-4.19413
0
LINE
8
BLACK
6
CONTINUOUS
10
5.12566
20
-4.19413
11
5.12411
21
-4.19283
0
LINE
8
BLACK
6
CONTINUOUS
10
5.12411
20
-4.19283
11
5.12376
21
-4.19084
0
LINE
8
BLACK
6
CONTINUOUS
10
5.12376
20
-4.19084
11
5.12477
21
-4.18909
0
LINE
8
BLACK
6
CONTINUOUS
10
5.12477
20
-4.18909
11
5.12667
21
-4.1884
0
LINE
8
BLACK
6
CONTINUOUS
10
5.12667
20
-4.1884
11
5.15479
21
-4.1884
0
LINE
8
BLACK
6
CONTINUOUS
10
5.15479
20
-4.1884
11
5.15566
21
-4.18855
0
LINE
8
BLACK
6
CONTINUOUS
10
5.1683
20
-4.15008
11
5.16899
21
-4.15198
0
LINE
8
BLACK
6
CONTINUOUS
10
5.16899
20
-4.15198
11
5.16899
21
-4.17448
0
LINE
8
BLACK
6
CONTINUOUS
10
5.16899
20
-4.17448
11
5.16881
21
-4.17549
0
LINE
8
BLACK
6
CONTINUOUS
10
5.16881
20
-4.17549
11
5.16751
21
-4.17704
0
LINE
8
BLACK
6
CONTINUOUS
10
5.16751
20
-4.17704
11
5.16553
21
-4.17739
0
LINE
8
BLACK
6
CONTINUOUS
10
5.16553
20
-4.17739
11
5.16378
21
-4.17638
0
LINE
8
BLACK
6
CONTINUOUS
10
5.16378
20
-4.17638
11
5.16309
21
-4.17448
0
LINE
8
BLACK
6
CONTINUOUS
10
5.16309
20
-4.17448
11
5.16309
21
-4.16618
0
LINE
8
BLACK
6
CONTINUOUS
10
5.16309
20
-4.16618
11
5.13567
21
-4.16618
0
LINE
8
BLACK
6
CONTINUOUS
10
5.13567
20
-4.16618
11
5.13813
21
-4.16864
0
LINE
8
BLACK
6
CONTINUOUS
10
5.13813
20
-4.16864
11
5.13864
21
-4.16936
0
LINE
8
BLACK
6
CONTINUOUS
10
5.13864
20
-4.16936
11
5.13868
21
-4.16941
0
LINE
8
BLACK
6
CONTINUOUS
10
5.13868
20
-4.16941
11
5.14056
21
-4.17316
0
LINE
8
BLACK
6
CONTINUOUS
10
5.14056
20
-4.17316
11
5.14085
21
-4.17414
0
LINE
8
BLACK
6
CONTINUOUS
10
5.14085
20
-4.17414
11
5.14038
21
-4.17611
0
LINE
8
BLACK
6
CONTINUOUS
10
5.14038
20
-4.17611
11
5.13876
21
-4.17731
0
LINE
8
BLACK
6
CONTINUOUS
10
5.13876
20
-4.17731
11
5.13674
21
-4.17719
0
LINE
8
BLACK
6
CONTINUOUS
10
5.13674
20
-4.17719
11
5.13528
21
-4.1758
0
LINE
8
BLACK
6
CONTINUOUS
10
5.13528
20
-4.1758
11
5.13362
21
-4.17248
0
LINE
8
BLACK
6
CONTINUOUS
10
5.13362
20
-4.17248
11
5.13041
21
-4.16927
0
LINE
8
BLACK
6
CONTINUOUS
10
5.13041
20
-4.16927
11
5.12503
21
-4.16569
0
LINE
8
BLACK
6
CONTINUOUS
10
5.12503
20
-4.16569
11
5.12429
21
-4.16498
0
LINE
8
BLACK
6
CONTINUOUS
10
5.12429
20
-4.16498
11
5.12424
21
-4.16482
0
LINE
8
BLACK
6
CONTINUOUS
10
5.12424
20
-4.16482
11
5.12411
21
-4.16471
0
LINE
8
BLACK
6
CONTINUOUS
10
5.12411
20
-4.16471
11
5.12396
21
-4.16386
0
LINE
8
BLACK
6
CONTINUOUS
10
5.12396
20
-4.16386
11
5.12372
21
-4.16304
0
LINE
8
BLACK
6
CONTINUOUS
10
5.12372
20
-4.16304
11
5.12379
21
-4.16288
0
LINE
8
BLACK
6
CONTINUOUS
10
5.12379
20
-4.16288
11
5.12376
21
-4.16272
0
LINE
8
BLACK
6
CONTINUOUS
10
5.12376
20
-4.16272
11
5.12419
21
-4.16198
0
LINE
8
BLACK
6
CONTINUOUS
10
5.12419
20
-4.16198
11
5.12453
21
-4.16119
0
LINE
8
BLACK
6
CONTINUOUS
10
5.12453
20
-4.16119
11
5.12469
21
-4.16112
0
LINE
8
BLACK
6
CONTINUOUS
10
5.12469
20
-4.16112
11
5.12477
21
-4.16097
0
LINE
8
BLACK
6
CONTINUOUS
10
5.12477
20
-4.16097
11
5.12558
21
-4.16068
0
LINE
8
BLACK
6
CONTINUOUS
10
5.12558
20
-4.16068
11
5.12634
21
-4.1603
0
LINE
8
BLACK
6
CONTINUOUS
10
5.12634
20
-4.1603
11
5.12651
21
-4.16034
0
LINE
8
BLACK
6
CONTINUOUS
10
5.12651
20
-4.16034
11
5.12667
21
-4.16028
0
LINE
8
BLACK
6
CONTINUOUS
10
5.12667
20
-4.16028
11
5.16309
21
-4.16028
0
LINE
8
BLACK
6
CONTINUOUS
10
5.16309
20
-4.16028
11
5.16309
21
-4.15198
0
LINE
8
BLACK
6
CONTINUOUS
10
5.16309
20
-4.15198
11
5.16326
21
-4.15097
0
LINE
8
BLACK
6
CONTINUOUS
10
5.16326
20
-4.15097
11
5.16456
21
-4.14942
0
LINE
8
BLACK
6
CONTINUOUS
10
5.16456
20
-4.14942
11
5.16655
21
-4.14907
0
LINE
8
BLACK
6
CONTINUOUS
10
5.16655
20
-4.14907
11
5.1683
21
-4.15008
0
LINE
8
BLACK
6
CONTINUOUS
10
6.13306
20
-3.41956
11
6.13319
21
-3.41953
0
LINE
8
BLACK
6
CONTINUOUS
10
6.13319
20
-3.41953
11
6.1333
21
-3.4196
0
LINE
8
BLACK
6
CONTINUOUS
10
6.1333
20
-3.4196
11
6.13369
21
-3.41967
0
LINE
8
BLACK
6
CONTINUOUS
10
6.13369
20
-3.41967
11
6.13427
21
-3.42016
0
LINE
8
BLACK
6
CONTINUOUS
10
6.13427
20
-3.42016
11
6.13494
21
-3.42054
0
LINE
8
BLACK
6
CONTINUOUS
10
6.13494
20
-3.42054
11
6.13503
21
-3.42079
0
LINE
8
BLACK
6
CONTINUOUS
10
6.13503
20
-3.42079
11
6.13523
21
-3.42096
0
LINE
8
BLACK
6
CONTINUOUS
10
6.13523
20
-3.42096
11
6.13537
21
-3.42172
0
LINE
8
BLACK
6
CONTINUOUS
10
6.13537
20
-3.42172
11
6.13563
21
-3.42244
0
LINE
8
BLACK
6
CONTINUOUS
10
6.13563
20
-3.42244
11
6.13563
21
-3.52244
0
LINE
8
BLACK
6
CONTINUOUS
10
6.13563
20
-3.52244
11
6.13556
21
-3.52282
0
LINE
8
BLACK
6
CONTINUOUS
10
6.13556
20
-3.52282
11
6.13559
21
-3.52295
0
LINE
8
BLACK
6
CONTINUOUS
10
6.13559
20
-3.52295
11
6.13552
21
-3.52307
0
LINE
8
BLACK
6
CONTINUOUS
10
6.13552
20
-3.52307
11
6.13545
21
-3.52345
0
LINE
8
BLACK
6
CONTINUOUS
10
6.13545
20
-3.52345
11
6.13496
21
-3.52404
0
LINE
8
BLACK
6
CONTINUOUS
10
6.13496
20
-3.52404
11
6.13458
21
-3.5247
0
LINE
8
BLACK
6
CONTINUOUS
10
6.13458
20
-3.5247
11
6.13432
21
-3.52479
0
LINE
8
BLACK
6
CONTINUOUS
10
6.13432
20
-3.52479
11
6.13415
21
-3.525
0
LINE
8
BLACK
6
CONTINUOUS
10
6.13415
20
-3.525
11
6.1334
21
-3.52513
0
LINE
8
BLACK
6
CONTINUOUS
10
6.1334
20
-3.52513
11
6.13268
21
-3.52539
0
LINE
8
BLACK
6
CONTINUOUS
10
6.13268
20
-3.52539
11
6.03268
21
-3.52539
0
LINE
8
BLACK
6
CONTINUOUS
10
6.03268
20
-3.52539
11
6.03229
21
-3.52533
0
LINE
8
BLACK
6
CONTINUOUS
10
6.03229
20
-3.52533
11
6.03216
21
-3.52535
0
LINE
8
BLACK
6
CONTINUOUS
10
6.03216
20
-3.52535
11
6.03205
21
-3.52528
0
LINE
8
BLACK
6
CONTINUOUS
10
6.03205
20
-3.52528
11
6.03167
21
-3.52522
0
LINE
8
BLACK
6
CONTINUOUS
10
6.03167
20
-3.52522
11
6.03108
21
-3.52472
0
LINE
8
BLACK
6
CONTINUOUS
10
6.03108
20
-3.52472
11
6.03042
21
-3.52434
0
LINE
8
BLACK
6
CONTINUOUS
10
6.03042
20
-3.52434
11
6.03032
21
-3.52409
0
LINE
8
BLACK
6
CONTINUOUS
10
6.03032
20
-3.52409
11
6.03012
21
-3.52392
0
LINE
8
BLACK
6
CONTINUOUS
10
6.03012
20
-3.52392
11
6.02999
21
-3.52316
0
LINE
8
BLACK
6
CONTINUOUS
10
6.02999
20
-3.52316
11
6.02972
21
-3.52244
0
LINE
8
BLACK
6
CONTINUOUS
10
6.02972
20
-3.52244
11
6.02972
21
-3.42244
0
LINE
8
BLACK
6
CONTINUOUS
10
6.02972
20
-3.42244
11
6.02979
21
-3.42206
0
LINE
8
BLACK
6
CONTINUOUS
10
6.02979
20
-3.42206
11
6.02977
21
-3.42193
0
LINE
8
BLACK
6
CONTINUOUS
10
6.02977
20
-3.42193
11
6.02983
21
-3.42181
0
LINE
8
BLACK
6
CONTINUOUS
10
6.02983
20
-3.42181
11
6.0299
21
-3.42143
0
LINE
8
BLACK
6
CONTINUOUS
10
6.0299
20
-3.42143
11
6.0304
21
-3.42084
0
LINE
8
BLACK
6
CONTINUOUS
10
6.0304
20
-3.42084
11
6.03078
21
-3.42018
0
LINE
8
BLACK
6
CONTINUOUS
10
6.03078
20
-3.42018
11
6.03103
21
-3.42009
0
LINE
8
BLACK
6
CONTINUOUS
10
6.03103
20
-3.42009
11
6.0312
21
-3.41988
0
LINE
8
BLACK
6
CONTINUOUS
10
6.0312
20
-3.41988
11
6.03196
21
-3.41975
0
LINE
8
BLACK
6
CONTINUOUS
10
6.03196
20
-3.41975
11
6.03268
21
-3.41949
0
LINE
8
BLACK
6
CONTINUOUS
10
6.03268
20
-3.41949
11
6.13268
21
-3.41949
0
LINE
8
BLACK
6
CONTINUOUS
10
6.13268
20
-3.41949
11
6.13306
21
-3.41956
0
LINE
8
BLACK
6
CONTINUOUS
10
6.03563
20
-3.42539
11
6.03563
21
-3.51949
0
LINE
8
BLACK
6
CONTINUOUS
10
6.03563
20
-3.51949
11
6.12972
21
-3.51949
0
LINE
8
BLACK
6
CONTINUOUS
10
6.12972
20
-3.51949
11
6.12972
21
-3.42539
0
LINE
8
BLACK
6
CONTINUOUS
10
6.12972
20
-3.42539
11
6.03563
21
-3.42539
0
LINE
8
BLACK
6
CONTINUOUS
10
5.19999
20
-3.41562
11
5.20012
21
-3.4156
0
LINE
8
BLACK
6
CONTINUOUS
10
5.20012
20
-3.4156
11
5.20023
21
-3.41566
0
LINE
8
BLACK
6
CONTINUOUS
10
5.20023
20
-3.41566
11
5.20062
21
-3.41573
0
LINE
8
BLACK
6
CONTINUOUS
10
5.20062
20
-3.41573
11
5.2012
21
-3.41622
0
LINE
8
BLACK
6
CONTINUOUS
10
5.2012
20
-3.41622
11
5.20187
21
-3.41661
0
LINE
8
BLACK
6
CONTINUOUS
10
5.20187
20
-3.41661
11
5.20196
21
-3.41686
0
LINE
8
BLACK
6
CONTINUOUS
10
5.20196
20
-3.41686
11
5.20216
21
-3.41703
0
LINE
8
BLACK
6
CONTINUOUS
10
5.20216
20
-3.41703
11
5.2023
21
-3.41778
0
LINE
8
BLACK
6
CONTINUOUS
10
5.2023
20
-3.41778
11
5.20256
21
-3.4185
0
LINE
8
BLACK
6
CONTINUOUS
10
5.20256
20
-3.4185
11
5.20256
21
-3.5185
0
LINE
8
BLACK
6
CONTINUOUS
10
5.20256
20
-3.5185
11
5.20249
21
-3.51889
0
LINE
8
BLACK
6
CONTINUOUS
10
5.20249
20
-3.51889
11
5.20251
21
-3.51902
0
LINE
8
BLACK
6
CONTINUOUS
10
5.20251
20
-3.51902
11
5.20245
21
-3.51913
0
LINE
8
BLACK
6
CONTINUOUS
10
5.20245
20
-3.51913
11
5.20238
21
-3.51951
0
LINE
8
BLACK
6
CONTINUOUS
10
5.20238
20
-3.51951
11
5.20189
21
-3.5201
0
LINE
8
BLACK
6
CONTINUOUS
10
5.20189
20
-3.5201
11
5.2015
21
-3.52077
0
LINE
8
BLACK
6
CONTINUOUS
10
5.2015
20
-3.52077
11
5.20125
21
-3.52086
0
LINE
8
BLACK
6
CONTINUOUS
10
5.20125
20
-3.52086
11
5.20108
21
-3.52106
0
LINE
8
BLACK
6
CONTINUOUS
10
5.20108
20
-3.52106
11
5.20033
21
-3.52119
0
LINE
8
BLACK
6
CONTINUOUS
10
5.20033
20
-3.52119
11
5.19961
21
-3.52146
0
LINE
8
BLACK
6
CONTINUOUS
10
5.19961
20
-3.52146
11
5.09961
21
-3.52146
0
LINE
8
BLACK
6
CONTINUOUS
10
5.09961
20
-3.52146
11
5.09922
21
-3.52139
0
LINE
8
BLACK
6
CONTINUOUS
10
5.09922
20
-3.52139
11
5.09909
21
-3.52141
0
LINE
8
BLACK
6
CONTINUOUS
10
5.09909
20
-3.52141
11
5.09898
21
-3.52135
0
LINE
8
BLACK
6
CONTINUOUS
10
5.09898
20
-3.52135
11
5.0986
21
-3.52128
0
LINE
8
BLACK
6
CONTINUOUS
10
5.0986
20
-3.52128
11
5.09801
21
-3.52079
0
LINE
8
BLACK
6
CONTINUOUS
10
5.09801
20
-3.52079
11
5.09734
21
-3.5204
0
LINE
8
BLACK
6
CONTINUOUS
10
5.09734
20
-3.5204
11
5.09725
21
-3.52015
0
LINE
8
BLACK
6
CONTINUOUS
10
5.09725
20
-3.52015
11
5.09705
21
-3.51998
0
LINE
8
BLACK
6
CONTINUOUS
10
5.09705
20
-3.51998
11
5.09692
21
-3.51922
0
LINE
8
BLACK
6
CONTINUOUS
10
5.09692
20
-3.51922
11
5.09665
21
-3.5185
0
LINE
8
BLACK
6
CONTINUOUS
10
5.09665
20
-3.5185
11
5.09665
21
-3.4185
0
LINE
8
BLACK
6
CONTINUOUS
10
5.09665
20
-3.4185
11
5.09672
21
-3.41812
0
LINE
8
BLACK
6
CONTINUOUS
10
5.09672
20
-3.41812
11
5.0967
21
-3.41799
0
LINE
8
BLACK
6
CONTINUOUS
10
5.0967
20
-3.41799
11
5.09676
21
-3.41788
0
LINE
8
BLACK
6
CONTINUOUS
10
5.09676
20
-3.41788
11
5.09683
21
-3.41749
0
LINE
8
BLACK
6
CONTINUOUS
10
5.09683
20
-3.41749
11
5.09732
21
-3.41691
0
LINE
8
BLACK
6
CONTINUOUS
10
5.09732
20
-3.41691
11
5.09771
21
-3.41624
0
LINE
8
BLACK
6
CONTINUOUS
10
5.09771
20
-3.41624
11
5.09796
21
-3.41615
0
LINE
8
BLACK
6
CONTINUOUS
10
5.09796
20
-3.41615
11
5.09813
21
-3.41595
0
LINE
8
BLACK
6
CONTINUOUS
10
5.09813
20
-3.41595
11
5.09889
21
-3.41581
0
LINE
8
BLACK
6
CONTINUOUS
10
5.09889
20
-3.41581
11
5.09961
21
-3.41555
0
LINE
8
BLACK
6
CONTINUOUS
10
5.09961
20
-3.41555
11
5.19961
21
-3.41555
0
LINE
8
BLACK
6
CONTINUOUS
10
5.19961
20
-3.41555
11
5.19999
21
-3.41562
0
LINE
8
BLACK
6
CONTINUOUS
10
5.10256
20
-3.42146
11
5.10256
21
-3.51555
0
LINE
8
BLACK
6
CONTINUOUS
10
5.10256
20
-3.51555
11
5.19665
21
-3.51555
0
LINE
8
BLACK
6
CONTINUOUS
10
5.19665
20
-3.51555
11
5.19665
21
-3.42146
0
LINE
8
BLACK
6
CONTINUOUS
10
5.19665
20
-3.42146
11
5.10256
21
-3.42146
  0
ENDSEC
  0
EOF
