  0
SECTION
  2
HEADER
  9
$ANGBASE
  50
0.0
  9
$ANGDIR
  70
1
  9
$MEASUREMENT
  70
0
  0
ENDSEC
  0
SECTION
  2
TABLES
  0
TABLE
  2
LTYPE
  70
4
  0
LTYPE
  5
40F
  2
CONTINUOUS
  70
0
  3
Solid line
  72
65
  73
0
  40
0.0
  0
LTYPE
  5
410
  2
DASHDOT
 70
0
  3
Dash Dot ____ _ ____ _
 72
65
 73
4
 40
2.0
 49
1.25
 49
-0.25
 49
0.25
 49
-0.25
  0
LTYPE
  5
411
  2
DASHED
 70
0
  3
Dashed __ __ __ __ __
 72
65
 73
2
 40
0.75
 49
0.5
 49
-0.25
  0
LTYPE
  5
43B
  2
DOTTED
 70
0
  3
Dotted .  .  .  .
 72
65
 73
2
 40
0.2
 49
0.0
 49
-0.2
  0
ENDTAB
  0
TABLE
  2
STYLE
  70
4
  0
STYLE
  2
KICAD
  70
0
  40
0
  41
1
  42
1
  50
0
  71
0
  3
isocp.shx
  0
STYLE
  2
KICADB
  70
0
  40
0
  41
1
  42
1
  50
0
  71
0
  3
isocp.shx
  0
STYLE
  2
KICADI
  70
0
  40
0
  41
1
  42
1
  50
15
  71
0
  3
isocp.shx
  0
STYLE
  2
KICADBI
  70
0
  40
0
  41
1
  42
1
  50
15
  71
0
  3
isocp.shx
  0
ENDTAB
  0
TABLE
  2
LAYER
  70
1
  0
LAYER
  2
BLACK
  70
0
  62
7
  6
CONTINUOUS
  0
ENDTAB
  0
ENDSEC
  0
SECTION
  2
ENTITIES
0
LINE
8
BLACK
6
CONTINUOUS
10
1.37976
20
0.291417
11
1.29709
21
0.291417
0
LINE
8
BLACK
6
CONTINUOUS
10
1.29709
20
0.291417
11
1.29709
21
0.468583
0
LINE
8
BLACK
6
CONTINUOUS
10
1.29709
20
0.468583
11
1.37976
21
0.468583
0
LINE
8
BLACK
6
CONTINUOUS
10
1.37976
20
0.468583
11
1.37976
21
0.291417
0
LINE
8
BLACK
6
CONTINUOUS
10
1.18291
20
0.291417
11
1.10024
21
0.291417
0
LINE
8
BLACK
6
CONTINUOUS
10
1.10024
20
0.291417
11
1.10024
21
0.468583
0
LINE
8
BLACK
6
CONTINUOUS
10
1.10024
20
0.468583
11
1.18291
21
0.468583
0
LINE
8
BLACK
6
CONTINUOUS
10
1.18291
20
0.468583
11
1.18291
21
0.291417
0
LINE
8
BLACK
6
CONTINUOUS
10
1.28134
20
0.291417
11
1.19866
21
0.291417
0
LINE
8
BLACK
6
CONTINUOUS
10
1.19866
20
0.291417
11
1.19866
21
0.468583
0
LINE
8
BLACK
6
CONTINUOUS
10
1.19866
20
0.468583
11
1.28134
21
0.468583
0
LINE
8
BLACK
6
CONTINUOUS
10
1.28134
20
0.468583
11
1.28134
21
0.291417
0
LINE
8
BLACK
6
CONTINUOUS
10
0.568583
20
0.360236
11
0.391417
21
0.360236
0
LINE
8
BLACK
6
CONTINUOUS
10
0.391417
20
0.360236
11
0.391417
21
0.442913
0
LINE
8
BLACK
6
CONTINUOUS
10
0.391417
20
0.442913
11
0.568583
21
0.442913
0
LINE
8
BLACK
6
CONTINUOUS
10
0.568583
20
0.442913
11
0.568583
21
0.360236
0
LINE
8
BLACK
6
CONTINUOUS
10
1.60858
20
0.360236
11
1.43142
21
0.360236
0
LINE
8
BLACK
6
CONTINUOUS
10
1.43142
20
0.360236
11
1.43142
21
0.442913
0
LINE
8
BLACK
6
CONTINUOUS
10
1.43142
20
0.442913
11
1.60858
21
0.442913
0
LINE
8
BLACK
6
CONTINUOUS
10
1.60858
20
0.442913
11
1.60858
21
0.360236
0
LINE
8
BLACK
6
CONTINUOUS
10
0.568583
20
0.458661
11
0.391417
21
0.458661
0
LINE
8
BLACK
6
CONTINUOUS
10
0.391417
20
0.458661
11
0.391417
21
0.541339
0
LINE
8
BLACK
6
CONTINUOUS
10
0.391417
20
0.541339
11
0.568583
21
0.541339
0
LINE
8
BLACK
6
CONTINUOUS
10
0.568583
20
0.541339
11
0.568583
21
0.458661
0
LINE
8
BLACK
6
CONTINUOUS
10
1.60858
20
0.458661
11
1.43142
21
0.458661
0
LINE
8
BLACK
6
CONTINUOUS
10
1.43142
20
0.458661
11
1.43142
21
0.541339
0
LINE
8
BLACK
6
CONTINUOUS
10
1.43142
20
0.541339
11
1.60858
21
0.541339
0
LINE
8
BLACK
6
CONTINUOUS
10
1.60858
20
0.541339
11
1.60858
21
0.458661
0
LINE
8
BLACK
6
CONTINUOUS
10
0.568583
20
0.557087
11
0.391417
21
0.557087
0
LINE
8
BLACK
6
CONTINUOUS
10
0.391417
20
0.557087
11
0.391417
21
0.639764
0
LINE
8
BLACK
6
CONTINUOUS
10
0.391417
20
0.639764
11
0.568583
21
0.639764
0
LINE
8
BLACK
6
CONTINUOUS
10
0.568583
20
0.639764
11
0.568583
21
0.557087
0
LINE
8
BLACK
6
CONTINUOUS
10
1.60858
20
0.557087
11
1.43142
21
0.557087
0
LINE
8
BLACK
6
CONTINUOUS
10
1.43142
20
0.557087
11
1.43142
21
0.639764
0
LINE
8
BLACK
6
CONTINUOUS
10
1.43142
20
0.639764
11
1.60858
21
0.639764
0
LINE
8
BLACK
6
CONTINUOUS
10
1.60858
20
0.639764
11
1.60858
21
0.557087
0
LINE
8
BLACK
6
CONTINUOUS
10
0.568583
20
0.680236
11
0.391417
21
0.680236
0
LINE
8
BLACK
6
CONTINUOUS
10
0.391417
20
0.680236
11
0.391417
21
0.762913
0
LINE
8
BLACK
6
CONTINUOUS
10
0.391417
20
0.762913
11
0.568583
21
0.762913
0
LINE
8
BLACK
6
CONTINUOUS
10
0.568583
20
0.762913
11
0.568583
21
0.680236
0
LINE
8
BLACK
6
CONTINUOUS
10
1.60858
20
0.680236
11
1.43142
21
0.680236
0
LINE
8
BLACK
6
CONTINUOUS
10
1.43142
20
0.680236
11
1.43142
21
0.762913
0
LINE
8
BLACK
6
CONTINUOUS
10
1.43142
20
0.762913
11
1.60858
21
0.762913
0
LINE
8
BLACK
6
CONTINUOUS
10
1.60858
20
0.762913
11
1.60858
21
0.680236
0
LINE
8
BLACK
6
CONTINUOUS
10
0.568583
20
0.778661
11
0.391417
21
0.778661
0
LINE
8
BLACK
6
CONTINUOUS
10
0.391417
20
0.778661
11
0.391417
21
0.861339
0
LINE
8
BLACK
6
CONTINUOUS
10
0.391417
20
0.861339
11
0.568583
21
0.861339
0
LINE
8
BLACK
6
CONTINUOUS
10
0.568583
20
0.861339
11
0.568583
21
0.778661
0
LINE
8
BLACK
6
CONTINUOUS
10
1.60858
20
0.778661
11
1.43142
21
0.778661
0
LINE
8
BLACK
6
CONTINUOUS
10
1.43142
20
0.778661
11
1.43142
21
0.861339
0
LINE
8
BLACK
6
CONTINUOUS
10
1.43142
20
0.861339
11
1.60858
21
0.861339
0
LINE
8
BLACK
6
CONTINUOUS
10
1.60858
20
0.861339
11
1.60858
21
0.778661
0
LINE
8
BLACK
6
CONTINUOUS
10
0.568583
20
0.877087
11
0.391417
21
0.877087
0
LINE
8
BLACK
6
CONTINUOUS
10
0.391417
20
0.877087
11
0.391417
21
0.959764
0
LINE
8
BLACK
6
CONTINUOUS
10
0.391417
20
0.959764
11
0.568583
21
0.959764
0
LINE
8
BLACK
6
CONTINUOUS
10
0.568583
20
0.959764
11
0.568583
21
0.877087
0
LINE
8
BLACK
6
CONTINUOUS
10
1.60858
20
0.877087
11
1.43142
21
0.877087
0
LINE
8
BLACK
6
CONTINUOUS
10
1.43142
20
0.877087
11
1.43142
21
0.959764
0
LINE
8
BLACK
6
CONTINUOUS
10
1.43142
20
0.959764
11
1.60858
21
0.959764
0
LINE
8
BLACK
6
CONTINUOUS
10
1.60858
20
0.959764
11
1.60858
21
0.877087
0
LINE
8
BLACK
6
CONTINUOUS
10
0.568583
20
1.00024
11
0.391417
21
1.00024
0
LINE
8
BLACK
6
CONTINUOUS
10
0.391417
20
1.00024
11
0.391417
21
1.08291
0
LINE
8
BLACK
6
CONTINUOUS
10
0.391417
20
1.08291
11
0.568583
21
1.08291
0
LINE
8
BLACK
6
CONTINUOUS
10
0.568583
20
1.08291
11
0.568583
21
1.00024
0
LINE
8
BLACK
6
CONTINUOUS
10
1.60858
20
1.00024
11
1.43142
21
1.00024
0
LINE
8
BLACK
6
CONTINUOUS
10
1.43142
20
1.00024
11
1.43142
21
1.08291
0
LINE
8
BLACK
6
CONTINUOUS
10
1.43142
20
1.08291
11
1.60858
21
1.08291
0
LINE
8
BLACK
6
CONTINUOUS
10
1.60858
20
1.08291
11
1.60858
21
1.00024
0
LINE
8
BLACK
6
CONTINUOUS
10
1.60858
20
1.09866
11
1.43142
21
1.09866
0
LINE
8
BLACK
6
CONTINUOUS
10
1.43142
20
1.09866
11
1.43142
21
1.18134
0
LINE
8
BLACK
6
CONTINUOUS
10
1.43142
20
1.18134
11
1.60858
21
1.18134
0
LINE
8
BLACK
6
CONTINUOUS
10
1.60858
20
1.18134
11
1.60858
21
1.09866
0
LINE
8
BLACK
6
CONTINUOUS
10
0.568583
20
1.09866
11
0.391417
21
1.09866
0
LINE
8
BLACK
6
CONTINUOUS
10
0.391417
20
1.09866
11
0.391417
21
1.18134
0
LINE
8
BLACK
6
CONTINUOUS
10
0.391417
20
1.18134
11
0.568583
21
1.18134
0
LINE
8
BLACK
6
CONTINUOUS
10
0.568583
20
1.18134
11
0.568583
21
1.09866
0
LINE
8
BLACK
6
CONTINUOUS
10
0.568583
20
1.19709
11
0.391417
21
1.19709
0
LINE
8
BLACK
6
CONTINUOUS
10
0.391417
20
1.19709
11
0.391417
21
1.27976
0
LINE
8
BLACK
6
CONTINUOUS
10
0.391417
20
1.27976
11
0.568583
21
1.27976
0
LINE
8
BLACK
6
CONTINUOUS
10
0.568583
20
1.27976
11
0.568583
21
1.19709
0
LINE
8
BLACK
6
CONTINUOUS
10
1.60858
20
1.19709
11
1.43142
21
1.19709
0
LINE
8
BLACK
6
CONTINUOUS
10
1.43142
20
1.19709
11
1.43142
21
1.27976
0
LINE
8
BLACK
6
CONTINUOUS
10
1.43142
20
1.27976
11
1.60858
21
1.27976
0
LINE
8
BLACK
6
CONTINUOUS
10
1.60858
20
1.27976
11
1.60858
21
1.19709
  0
ENDSEC
  0
EOF
