  0
SECTION
  2
HEADER
  9
$ANGBASE
  50
0.0
  9
$ANGDIR
  70
1
  9
$MEASUREMENT
  70
0
  0
ENDSEC
  0
SECTION
  2
TABLES
  0
TABLE
  2
LTYPE
  70
4
  0
LTYPE
  5
40F
  2
CONTINUOUS
  70
0
  3
Solid line
  72
65
  73
0
  40
0.0
  0
LTYPE
  5
410
  2
DASHDOT
 70
0
  3
Dash Dot ____ _ ____ _
 72
65
 73
4
 40
2.0
 49
1.25
 49
-0.25
 49
0.25
 49
-0.25
  0
LTYPE
  5
411
  2
DASHED
 70
0
  3
Dashed __ __ __ __ __
 72
65
 73
2
 40
0.75
 49
0.5
 49
-0.25
  0
LTYPE
  5
43B
  2
DOTTED
 70
0
  3
Dotted .  .  .  .
 72
65
 73
2
 40
0.2
 49
0.0
 49
-0.2
  0
ENDTAB
  0
TABLE
  2
STYLE
  70
4
  0
STYLE
  2
KICAD
  70
0
  40
0
  41
1
  42
1
  50
0
  71
0
  3
isocp.shx
  0
STYLE
  2
KICADB
  70
0
  40
0
  41
1
  42
1
  50
0
  71
0
  3
isocp.shx
  0
STYLE
  2
KICADI
  70
0
  40
0
  41
1
  42
1
  50
15
  71
0
  3
isocp.shx
  0
STYLE
  2
KICADBI
  70
0
  40
0
  41
1
  42
1
  50
15
  71
0
  3
isocp.shx
  0
ENDTAB
  0
TABLE
  2
LAYER
  70
1
  0
LAYER
  2
BLACK
  70
0
  62
7
  6
CONTINUOUS
  0
ENDTAB
  0
ENDSEC
  0
SECTION
  2
ENTITIES
0
LINE
8
BLACK
6
CONTINUOUS
10
1.80865
20
0.317793
11
1.82213
21
0.316018
0
LINE
8
BLACK
6
CONTINUOUS
10
1.82213
20
0.316018
11
1.83532
21
0.312706
0
LINE
8
BLACK
6
CONTINUOUS
10
1.83532
20
0.312706
11
1.84804
21
0.307899
0
LINE
8
BLACK
6
CONTINUOUS
10
1.84804
20
0.307899
11
1.86012
21
0.301662
0
LINE
8
BLACK
6
CONTINUOUS
10
1.86012
20
0.301662
11
1.87141
21
0.294078
0
LINE
8
BLACK
6
CONTINUOUS
10
1.87141
20
0.294078
11
1.88175
21
0.285247
0
LINE
8
BLACK
6
CONTINUOUS
10
1.88175
20
0.285247
11
1.89101
21
0.275286
0
LINE
8
BLACK
6
CONTINUOUS
10
1.89101
20
0.275286
11
1.89906
21
0.264327
0
LINE
8
BLACK
6
CONTINUOUS
10
1.89906
20
0.264327
11
1.90579
21
0.252516
0
LINE
8
BLACK
6
CONTINUOUS
10
1.90579
20
0.252516
11
1.91113
21
0.240008
0
LINE
8
BLACK
6
CONTINUOUS
10
1.91113
20
0.240008
11
1.91499
21
0.226971
0
LINE
8
BLACK
6
CONTINUOUS
10
1.91499
20
0.226971
11
1.91733
21
0.213575
0
LINE
8
BLACK
6
CONTINUOUS
10
1.91733
20
0.213575
11
1.91811
21
0.2
0
LINE
8
BLACK
6
CONTINUOUS
10
1.91811
20
0.2
11
1.91788
21
0.192584
0
LINE
8
BLACK
6
CONTINUOUS
10
1.91788
20
0.192584
11
1.91624
21
0.179084
0
LINE
8
BLACK
6
CONTINUOUS
10
1.91624
20
0.179084
11
1.91307
21
0.165862
0
LINE
8
BLACK
6
CONTINUOUS
10
1.91307
20
0.165862
11
1.9084
21
0.153093
0
LINE
8
BLACK
6
CONTINUOUS
10
1.9084
20
0.153093
11
1.90229
21
0.140945
0
LINE
8
BLACK
6
CONTINUOUS
10
1.90229
20
0.140945
11
1.89482
21
0.12958
0
LINE
8
BLACK
6
CONTINUOUS
10
1.89482
20
0.12958
11
1.8861
21
0.119148
0
LINE
8
BLACK
6
CONTINUOUS
10
1.8861
20
0.119148
11
1.87624
21
0.109788
0
LINE
8
BLACK
6
CONTINUOUS
10
1.87624
20
0.109788
11
1.86536
21
0.101623
0
LINE
8
BLACK
6
CONTINUOUS
10
1.86536
20
0.101623
11
1.85362
21
0.094763
0
LINE
8
BLACK
6
CONTINUOUS
10
1.85362
20
0.094763
11
1.84117
21
0.0892974
0
LINE
8
BLACK
6
CONTINUOUS
10
1.84117
20
0.0892974
11
1.82817
21
0.0852991
0
LINE
8
BLACK
6
CONTINUOUS
10
1.82817
20
0.0852991
11
1.8148
21
0.0828211
0
LINE
8
BLACK
6
CONTINUOUS
10
1.8148
20
0.0828211
11
1.80124
21
0.0818962
0
LINE
8
BLACK
6
CONTINUOUS
10
1.80124
20
0.0818962
11
1.78765
21
0.0825368
0
LINE
8
BLACK
6
CONTINUOUS
10
1.78765
20
0.0825368
11
1.77424
21
0.0847343
0
LINE
8
BLACK
6
CONTINUOUS
10
1.77424
20
0.0847343
11
1.76116
21
0.0884595
0
LINE
8
BLACK
6
CONTINUOUS
10
1.76116
20
0.0884595
11
1.74859
21
0.0936631
0
LINE
8
BLACK
6
CONTINUOUS
10
1.74859
20
0.0936631
11
1.73671
21
0.100276
0
LINE
8
BLACK
6
CONTINUOUS
10
1.73671
20
0.100276
11
1.72567
21
0.108211
0
LINE
8
BLACK
6
CONTINUOUS
10
1.72567
20
0.108211
11
1.71561
21
0.117363
0
LINE
8
BLACK
6
CONTINUOUS
10
1.71561
20
0.117363
11
1.70667
21
0.127609
0
LINE
8
BLACK
6
CONTINUOUS
10
1.70667
20
0.127609
11
1.69897
21
0.138816
0
LINE
8
BLACK
6
CONTINUOUS
10
1.69897
20
0.138816
11
1.69261
21
0.150833
0
LINE
8
BLACK
6
CONTINUOUS
10
1.69261
20
0.150833
11
1.68767
21
0.163502
0
LINE
8
BLACK
6
CONTINUOUS
10
1.68767
20
0.163502
11
1.68422
21
0.176655
0
LINE
8
BLACK
6
CONTINUOUS
10
1.68422
20
0.176655
11
1.6823
21
0.190117
0
LINE
8
BLACK
6
CONTINUOUS
10
1.6823
20
0.190117
11
1.68195
21
0.20371
0
LINE
8
BLACK
6
CONTINUOUS
10
1.68195
20
0.20371
11
1.68316
21
0.217254
0
LINE
8
BLACK
6
CONTINUOUS
10
1.68316
20
0.217254
11
1.68591
21
0.230569
0
LINE
8
BLACK
6
CONTINUOUS
10
1.68591
20
0.230569
11
1.69018
21
0.243479
0
LINE
8
BLACK
6
CONTINUOUS
10
1.69018
20
0.243479
11
1.69591
21
0.255813
0
LINE
8
BLACK
6
CONTINUOUS
10
1.69591
20
0.255813
11
1.70301
21
0.267407
0
LINE
8
BLACK
6
CONTINUOUS
10
1.70301
20
0.267407
11
1.7114
21
0.278108
0
LINE
8
BLACK
6
CONTINUOUS
10
1.7114
20
0.278108
11
1.72097
21
0.287773
0
LINE
8
BLACK
6
CONTINUOUS
10
1.72097
20
0.287773
11
1.73158
21
0.296275
0
LINE
8
BLACK
6
CONTINUOUS
10
1.73158
20
0.296275
11
1.7431
21
0.303501
0
LINE
8
BLACK
6
CONTINUOUS
10
1.7431
20
0.303501
11
1.75537
21
0.309355
0
LINE
8
BLACK
6
CONTINUOUS
10
1.75537
20
0.309355
11
1.76824
21
0.313759
0
LINE
8
BLACK
6
CONTINUOUS
10
1.76824
20
0.313759
11
1.78152
21
0.316656
0
LINE
8
BLACK
6
CONTINUOUS
10
1.78152
20
0.316656
11
1.79505
21
0.318007
0
LINE
8
BLACK
6
CONTINUOUS
10
1.79505
20
0.318007
11
1.80865
21
0.317793
0
LINE
8
BLACK
6
CONTINUOUS
10
0.20865
20
0.317793
11
0.222132
21
0.316018
0
LINE
8
BLACK
6
CONTINUOUS
10
0.222132
20
0.316018
11
0.23532
21
0.312706
0
LINE
8
BLACK
6
CONTINUOUS
10
0.23532
20
0.312706
11
0.24804
21
0.307899
0
LINE
8
BLACK
6
CONTINUOUS
10
0.24804
20
0.307899
11
0.260123
21
0.301662
0
LINE
8
BLACK
6
CONTINUOUS
10
0.260123
20
0.301662
11
0.271409
21
0.294078
0
LINE
8
BLACK
6
CONTINUOUS
10
0.271409
20
0.294078
11
0.281749
21
0.285247
0
LINE
8
BLACK
6
CONTINUOUS
10
0.281749
20
0.285247
11
0.291006
21
0.275286
0
LINE
8
BLACK
6
CONTINUOUS
10
0.291006
20
0.275286
11
0.299056
21
0.264327
0
LINE
8
BLACK
6
CONTINUOUS
10
0.299056
20
0.264327
11
0.305793
21
0.252516
0
LINE
8
BLACK
6
CONTINUOUS
10
0.305793
20
0.252516
11
0.311128
21
0.240008
0
LINE
8
BLACK
6
CONTINUOUS
10
0.311128
20
0.240008
11
0.31499
21
0.226971
0
LINE
8
BLACK
6
CONTINUOUS
10
0.31499
20
0.226971
11
0.317327
21
0.213575
0
LINE
8
BLACK
6
CONTINUOUS
10
0.317327
20
0.213575
11
0.31811
21
0.2
0
LINE
8
BLACK
6
CONTINUOUS
10
0.31811
20
0.2
11
0.317877
21
0.192584
0
LINE
8
BLACK
6
CONTINUOUS
10
0.317877
20
0.192584
11
0.316244
21
0.179084
0
LINE
8
BLACK
6
CONTINUOUS
10
0.316244
20
0.179084
11
0.313069
21
0.165862
0
LINE
8
BLACK
6
CONTINUOUS
10
0.313069
20
0.165862
11
0.308396
21
0.153093
0
LINE
8
BLACK
6
CONTINUOUS
10
0.308396
20
0.153093
11
0.302286
21
0.140945
0
LINE
8
BLACK
6
CONTINUOUS
10
0.302286
20
0.140945
11
0.294821
21
0.12958
0
LINE
8
BLACK
6
CONTINUOUS
10
0.294821
20
0.12958
11
0.286099
21
0.119148
0
LINE
8
BLACK
6
CONTINUOUS
10
0.286099
20
0.119148
11
0.276235
21
0.109788
0
LINE
8
BLACK
6
CONTINUOUS
10
0.276235
20
0.109788
11
0.265361
21
0.101623
0
LINE
8
BLACK
6
CONTINUOUS
10
0.265361
20
0.101623
11
0.253621
21
0.094763
0
LINE
8
BLACK
6
CONTINUOUS
10
0.253621
20
0.094763
11
0.24117
21
0.0892974
0
LINE
8
BLACK
6
CONTINUOUS
10
0.24117
20
0.0892974
11
0.228173
21
0.0852991
0
LINE
8
BLACK
6
CONTINUOUS
10
0.228173
20
0.0852991
11
0.214803
21
0.0828211
0
LINE
8
BLACK
6
CONTINUOUS
10
0.214803
20
0.0828211
11
0.201237
21
0.0818962
0
LINE
8
BLACK
6
CONTINUOUS
10
0.201237
20
0.0818962
11
0.187654
21
0.0825368
0
LINE
8
BLACK
6
CONTINUOUS
10
0.187654
20
0.0825368
11
0.174235
21
0.0847343
0
LINE
8
BLACK
6
CONTINUOUS
10
0.174235
20
0.0847343
11
0.161157
21
0.0884595
0
LINE
8
BLACK
6
CONTINUOUS
10
0.161157
20
0.0884595
11
0.148595
21
0.0936631
0
LINE
8
BLACK
6
CONTINUOUS
10
0.148595
20
0.0936631
11
0.136713
21
0.100276
0
LINE
8
BLACK
6
CONTINUOUS
10
0.136713
20
0.100276
11
0.125671
21
0.108211
0
LINE
8
BLACK
6
CONTINUOUS
10
0.125671
20
0.108211
11
0.115613
21
0.117363
0
LINE
8
BLACK
6
CONTINUOUS
10
0.115613
20
0.117363
11
0.106675
21
0.127609
0
LINE
8
BLACK
6
CONTINUOUS
10
0.106675
20
0.127609
11
0.0989727
21
0.138816
0
LINE
8
BLACK
6
CONTINUOUS
10
0.0989727
20
0.138816
11
0.0926099
21
0.150833
0
LINE
8
BLACK
6
CONTINUOUS
10
0.0926099
20
0.150833
11
0.0876705
21
0.163502
0
LINE
8
BLACK
6
CONTINUOUS
10
0.0876705
20
0.163502
11
0.0842199
21
0.176655
0
LINE
8
BLACK
6
CONTINUOUS
10
0.0842199
20
0.176655
11
0.082304
21
0.190117
0
LINE
8
BLACK
6
CONTINUOUS
10
0.082304
20
0.190117
11
0.081948
21
0.20371
0
LINE
8
BLACK
6
CONTINUOUS
10
0.081948
20
0.20371
11
0.0831568
21
0.217254
0
LINE
8
BLACK
6
CONTINUOUS
10
0.0831568
20
0.217254
11
0.0859143
21
0.230569
0
LINE
8
BLACK
6
CONTINUOUS
10
0.0859143
20
0.230569
11
0.0901839
21
0.243479
0
LINE
8
BLACK
6
CONTINUOUS
10
0.0901839
20
0.243479
11
0.0959091
21
0.255813
0
LINE
8
BLACK
6
CONTINUOUS
10
0.0959091
20
0.255813
11
0.103014
21
0.267407
0
LINE
8
BLACK
6
CONTINUOUS
10
0.103014
20
0.267407
11
0.111404
21
0.278108
0
LINE
8
BLACK
6
CONTINUOUS
10
0.111404
20
0.278108
11
0.120969
21
0.287773
0
LINE
8
BLACK
6
CONTINUOUS
10
0.120969
20
0.287773
11
0.131581
21
0.296275
0
LINE
8
BLACK
6
CONTINUOUS
10
0.131581
20
0.296275
11
0.1431
21
0.303501
0
LINE
8
BLACK
6
CONTINUOUS
10
0.1431
20
0.303501
11
0.155373
21
0.309355
0
LINE
8
BLACK
6
CONTINUOUS
10
0.155373
20
0.309355
11
0.168238
21
0.313759
0
LINE
8
BLACK
6
CONTINUOUS
10
0.168238
20
0.313759
11
0.181524
21
0.316656
0
LINE
8
BLACK
6
CONTINUOUS
10
0.181524
20
0.316656
11
0.195054
21
0.318007
0
LINE
8
BLACK
6
CONTINUOUS
10
0.195054
20
0.318007
11
0.20865
21
0.317793
0
LINE
8
BLACK
6
CONTINUOUS
10
1.80865
20
1.51779
11
1.82213
21
1.51602
0
LINE
8
BLACK
6
CONTINUOUS
10
1.82213
20
1.51602
11
1.83532
21
1.51271
0
LINE
8
BLACK
6
CONTINUOUS
10
1.83532
20
1.51271
11
1.84804
21
1.5079
0
LINE
8
BLACK
6
CONTINUOUS
10
1.84804
20
1.5079
11
1.86012
21
1.50166
0
LINE
8
BLACK
6
CONTINUOUS
10
1.86012
20
1.50166
11
1.87141
21
1.49408
0
LINE
8
BLACK
6
CONTINUOUS
10
1.87141
20
1.49408
11
1.88175
21
1.48525
0
LINE
8
BLACK
6
CONTINUOUS
10
1.88175
20
1.48525
11
1.89101
21
1.47529
0
LINE
8
BLACK
6
CONTINUOUS
10
1.89101
20
1.47529
11
1.89906
21
1.46433
0
LINE
8
BLACK
6
CONTINUOUS
10
1.89906
20
1.46433
11
1.90579
21
1.45252
0
LINE
8
BLACK
6
CONTINUOUS
10
1.90579
20
1.45252
11
1.91113
21
1.44001
0
LINE
8
BLACK
6
CONTINUOUS
10
1.91113
20
1.44001
11
1.91499
21
1.42697
0
LINE
8
BLACK
6
CONTINUOUS
10
1.91499
20
1.42697
11
1.91733
21
1.41358
0
LINE
8
BLACK
6
CONTINUOUS
10
1.91733
20
1.41358
11
1.91811
21
1.4
0
LINE
8
BLACK
6
CONTINUOUS
10
1.91811
20
1.4
11
1.91788
21
1.39258
0
LINE
8
BLACK
6
CONTINUOUS
10
1.91788
20
1.39258
11
1.91624
21
1.37908
0
LINE
8
BLACK
6
CONTINUOUS
10
1.91624
20
1.37908
11
1.91307
21
1.36586
0
LINE
8
BLACK
6
CONTINUOUS
10
1.91307
20
1.36586
11
1.9084
21
1.35309
0
LINE
8
BLACK
6
CONTINUOUS
10
1.9084
20
1.35309
11
1.90229
21
1.34094
0
LINE
8
BLACK
6
CONTINUOUS
10
1.90229
20
1.34094
11
1.89482
21
1.32958
0
LINE
8
BLACK
6
CONTINUOUS
10
1.89482
20
1.32958
11
1.8861
21
1.31915
0
LINE
8
BLACK
6
CONTINUOUS
10
1.8861
20
1.31915
11
1.87624
21
1.30979
0
LINE
8
BLACK
6
CONTINUOUS
10
1.87624
20
1.30979
11
1.86536
21
1.30162
0
LINE
8
BLACK
6
CONTINUOUS
10
1.86536
20
1.30162
11
1.85362
21
1.29476
0
LINE
8
BLACK
6
CONTINUOUS
10
1.85362
20
1.29476
11
1.84117
21
1.2893
0
LINE
8
BLACK
6
CONTINUOUS
10
1.84117
20
1.2893
11
1.82817
21
1.2853
0
LINE
8
BLACK
6
CONTINUOUS
10
1.82817
20
1.2853
11
1.8148
21
1.28282
0
LINE
8
BLACK
6
CONTINUOUS
10
1.8148
20
1.28282
11
1.80124
21
1.2819
0
LINE
8
BLACK
6
CONTINUOUS
10
1.80124
20
1.2819
11
1.78765
21
1.28254
0
LINE
8
BLACK
6
CONTINUOUS
10
1.78765
20
1.28254
11
1.77424
21
1.28473
0
LINE
8
BLACK
6
CONTINUOUS
10
1.77424
20
1.28473
11
1.76116
21
1.28846
0
LINE
8
BLACK
6
CONTINUOUS
10
1.76116
20
1.28846
11
1.74859
21
1.29366
0
LINE
8
BLACK
6
CONTINUOUS
10
1.74859
20
1.29366
11
1.73671
21
1.30028
0
LINE
8
BLACK
6
CONTINUOUS
10
1.73671
20
1.30028
11
1.72567
21
1.30821
0
LINE
8
BLACK
6
CONTINUOUS
10
1.72567
20
1.30821
11
1.71561
21
1.31736
0
LINE
8
BLACK
6
CONTINUOUS
10
1.71561
20
1.31736
11
1.70667
21
1.32761
0
LINE
8
BLACK
6
CONTINUOUS
10
1.70667
20
1.32761
11
1.69897
21
1.33882
0
LINE
8
BLACK
6
CONTINUOUS
10
1.69897
20
1.33882
11
1.69261
21
1.35083
0
LINE
8
BLACK
6
CONTINUOUS
10
1.69261
20
1.35083
11
1.68767
21
1.3635
0
LINE
8
BLACK
6
CONTINUOUS
10
1.68767
20
1.3635
11
1.68422
21
1.37665
0
LINE
8
BLACK
6
CONTINUOUS
10
1.68422
20
1.37665
11
1.6823
21
1.39012
0
LINE
8
BLACK
6
CONTINUOUS
10
1.6823
20
1.39012
11
1.68195
21
1.40371
0
LINE
8
BLACK
6
CONTINUOUS
10
1.68195
20
1.40371
11
1.68316
21
1.41725
0
LINE
8
BLACK
6
CONTINUOUS
10
1.68316
20
1.41725
11
1.68591
21
1.43057
0
LINE
8
BLACK
6
CONTINUOUS
10
1.68591
20
1.43057
11
1.69018
21
1.44348
0
LINE
8
BLACK
6
CONTINUOUS
10
1.69018
20
1.44348
11
1.69591
21
1.45581
0
LINE
8
BLACK
6
CONTINUOUS
10
1.69591
20
1.45581
11
1.70301
21
1.46741
0
LINE
8
BLACK
6
CONTINUOUS
10
1.70301
20
1.46741
11
1.7114
21
1.47811
0
LINE
8
BLACK
6
CONTINUOUS
10
1.7114
20
1.47811
11
1.72097
21
1.48777
0
LINE
8
BLACK
6
CONTINUOUS
10
1.72097
20
1.48777
11
1.73158
21
1.49627
0
LINE
8
BLACK
6
CONTINUOUS
10
1.73158
20
1.49627
11
1.7431
21
1.5035
0
LINE
8
BLACK
6
CONTINUOUS
10
1.7431
20
1.5035
11
1.75537
21
1.50935
0
LINE
8
BLACK
6
CONTINUOUS
10
1.75537
20
1.50935
11
1.76824
21
1.51376
0
LINE
8
BLACK
6
CONTINUOUS
10
1.76824
20
1.51376
11
1.78152
21
1.51666
0
LINE
8
BLACK
6
CONTINUOUS
10
1.78152
20
1.51666
11
1.79505
21
1.51801
0
LINE
8
BLACK
6
CONTINUOUS
10
1.79505
20
1.51801
11
1.80865
21
1.51779
0
LINE
8
BLACK
6
CONTINUOUS
10
0.20865
20
1.51779
11
0.222132
21
1.51602
0
LINE
8
BLACK
6
CONTINUOUS
10
0.222132
20
1.51602
11
0.23532
21
1.51271
0
LINE
8
BLACK
6
CONTINUOUS
10
0.23532
20
1.51271
11
0.24804
21
1.5079
0
LINE
8
BLACK
6
CONTINUOUS
10
0.24804
20
1.5079
11
0.260123
21
1.50166
0
LINE
8
BLACK
6
CONTINUOUS
10
0.260123
20
1.50166
11
0.271409
21
1.49408
0
LINE
8
BLACK
6
CONTINUOUS
10
0.271409
20
1.49408
11
0.281749
21
1.48525
0
LINE
8
BLACK
6
CONTINUOUS
10
0.281749
20
1.48525
11
0.291006
21
1.47529
0
LINE
8
BLACK
6
CONTINUOUS
10
0.291006
20
1.47529
11
0.299056
21
1.46433
0
LINE
8
BLACK
6
CONTINUOUS
10
0.299056
20
1.46433
11
0.305793
21
1.45252
0
LINE
8
BLACK
6
CONTINUOUS
10
0.305793
20
1.45252
11
0.311128
21
1.44001
0
LINE
8
BLACK
6
CONTINUOUS
10
0.311128
20
1.44001
11
0.31499
21
1.42697
0
LINE
8
BLACK
6
CONTINUOUS
10
0.31499
20
1.42697
11
0.317327
21
1.41358
0
LINE
8
BLACK
6
CONTINUOUS
10
0.317327
20
1.41358
11
0.31811
21
1.4
0
LINE
8
BLACK
6
CONTINUOUS
10
0.31811
20
1.4
11
0.317877
21
1.39258
0
LINE
8
BLACK
6
CONTINUOUS
10
0.317877
20
1.39258
11
0.316244
21
1.37908
0
LINE
8
BLACK
6
CONTINUOUS
10
0.316244
20
1.37908
11
0.313069
21
1.36586
0
LINE
8
BLACK
6
CONTINUOUS
10
0.313069
20
1.36586
11
0.308396
21
1.35309
0
LINE
8
BLACK
6
CONTINUOUS
10
0.308396
20
1.35309
11
0.302286
21
1.34094
0
LINE
8
BLACK
6
CONTINUOUS
10
0.302286
20
1.34094
11
0.294821
21
1.32958
0
LINE
8
BLACK
6
CONTINUOUS
10
0.294821
20
1.32958
11
0.286099
21
1.31915
0
LINE
8
BLACK
6
CONTINUOUS
10
0.286099
20
1.31915
11
0.276235
21
1.30979
0
LINE
8
BLACK
6
CONTINUOUS
10
0.276235
20
1.30979
11
0.265361
21
1.30162
0
LINE
8
BLACK
6
CONTINUOUS
10
0.265361
20
1.30162
11
0.253621
21
1.29476
0
LINE
8
BLACK
6
CONTINUOUS
10
0.253621
20
1.29476
11
0.24117
21
1.2893
0
LINE
8
BLACK
6
CONTINUOUS
10
0.24117
20
1.2893
11
0.228173
21
1.2853
0
LINE
8
BLACK
6
CONTINUOUS
10
0.228173
20
1.2853
11
0.214803
21
1.28282
0
LINE
8
BLACK
6
CONTINUOUS
10
0.214803
20
1.28282
11
0.201237
21
1.2819
0
LINE
8
BLACK
6
CONTINUOUS
10
0.201237
20
1.2819
11
0.187654
21
1.28254
0
LINE
8
BLACK
6
CONTINUOUS
10
0.187654
20
1.28254
11
0.174235
21
1.28473
0
LINE
8
BLACK
6
CONTINUOUS
10
0.174235
20
1.28473
11
0.161157
21
1.28846
0
LINE
8
BLACK
6
CONTINUOUS
10
0.161157
20
1.28846
11
0.148595
21
1.29366
0
LINE
8
BLACK
6
CONTINUOUS
10
0.148595
20
1.29366
11
0.136713
21
1.30028
0
LINE
8
BLACK
6
CONTINUOUS
10
0.136713
20
1.30028
11
0.125671
21
1.30821
0
LINE
8
BLACK
6
CONTINUOUS
10
0.125671
20
1.30821
11
0.115613
21
1.31736
0
LINE
8
BLACK
6
CONTINUOUS
10
0.115613
20
1.31736
11
0.106675
21
1.32761
0
LINE
8
BLACK
6
CONTINUOUS
10
0.106675
20
1.32761
11
0.0989727
21
1.33882
0
LINE
8
BLACK
6
CONTINUOUS
10
0.0989727
20
1.33882
11
0.0926099
21
1.35083
0
LINE
8
BLACK
6
CONTINUOUS
10
0.0926099
20
1.35083
11
0.0876705
21
1.3635
0
LINE
8
BLACK
6
CONTINUOUS
10
0.0876705
20
1.3635
11
0.0842199
21
1.37665
0
LINE
8
BLACK
6
CONTINUOUS
10
0.0842199
20
1.37665
11
0.082304
21
1.39012
0
LINE
8
BLACK
6
CONTINUOUS
10
0.082304
20
1.39012
11
0.081948
21
1.40371
0
LINE
8
BLACK
6
CONTINUOUS
10
0.081948
20
1.40371
11
0.0831568
21
1.41725
0
LINE
8
BLACK
6
CONTINUOUS
10
0.0831568
20
1.41725
11
0.0859143
21
1.43057
0
LINE
8
BLACK
6
CONTINUOUS
10
0.0859143
20
1.43057
11
0.0901839
21
1.44348
0
LINE
8
BLACK
6
CONTINUOUS
10
0.0901839
20
1.44348
11
0.0959091
21
1.45581
0
LINE
8
BLACK
6
CONTINUOUS
10
0.0959091
20
1.45581
11
0.103014
21
1.46741
0
LINE
8
BLACK
6
CONTINUOUS
10
0.103014
20
1.46741
11
0.111404
21
1.47811
0
LINE
8
BLACK
6
CONTINUOUS
10
0.111404
20
1.47811
11
0.120969
21
1.48777
0
LINE
8
BLACK
6
CONTINUOUS
10
0.120969
20
1.48777
11
0.131581
21
1.49627
0
LINE
8
BLACK
6
CONTINUOUS
10
0.131581
20
1.49627
11
0.1431
21
1.5035
0
LINE
8
BLACK
6
CONTINUOUS
10
0.1431
20
1.5035
11
0.155373
21
1.50935
0
LINE
8
BLACK
6
CONTINUOUS
10
0.155373
20
1.50935
11
0.168238
21
1.51376
0
LINE
8
BLACK
6
CONTINUOUS
10
0.168238
20
1.51376
11
0.181524
21
1.51666
0
LINE
8
BLACK
6
CONTINUOUS
10
0.181524
20
1.51666
11
0.195054
21
1.51801
0
LINE
8
BLACK
6
CONTINUOUS
10
0.195054
20
1.51801
11
0.20865
21
1.51779
  0
ENDSEC
  0
EOF
