  0
SECTION
  2
HEADER
  9
$ANGBASE
  50
0.0
  9
$ANGDIR
  70
1
  9
$MEASUREMENT
  70
0
  0
ENDSEC
  0
SECTION
  2
TABLES
  0
TABLE
  2
LTYPE
  70
4
  0
LTYPE
  5
40F
  2
CONTINUOUS
  70
0
  3
Solid line
  72
65
  73
0
  40
0.0
  0
LTYPE
  5
410
  2
DASHDOT
 70
0
  3
Dash Dot ____ _ ____ _
 72
65
 73
4
 40
2.0
 49
1.25
 49
-0.25
 49
0.25
 49
-0.25
  0
LTYPE
  5
411
  2
DASHED
 70
0
  3
Dashed __ __ __ __ __
 72
65
 73
2
 40
0.75
 49
0.5
 49
-0.25
  0
LTYPE
  5
43B
  2
DOTTED
 70
0
  3
Dotted .  .  .  .
 72
65
 73
2
 40
0.2
 49
0.0
 49
-0.2
  0
ENDTAB
  0
TABLE
  2
STYLE
  70
4
  0
STYLE
  2
KICAD
  70
0
  40
0
  41
1
  42
1
  50
0
  71
0
  3
isocp.shx
  0
STYLE
  2
KICADB
  70
0
  40
0
  41
1
  42
1
  50
0
  71
0
  3
isocp.shx
  0
STYLE
  2
KICADI
  70
0
  40
0
  41
1
  42
1
  50
15
  71
0
  3
isocp.shx
  0
STYLE
  2
KICADBI
  70
0
  40
0
  41
1
  42
1
  50
15
  71
0
  3
isocp.shx
  0
ENDTAB
  0
TABLE
  2
LAYER
  70
1
  0
LAYER
  2
BLACK
  70
0
  62
7
  6
CONTINUOUS
  0
ENDTAB
  0
ENDSEC
  0
SECTION
  2
ENTITIES
0
LINE
8
BLACK
6
CONTINUOUS
10
4.98942
20
-5.19326
11
4.98913
21
-5.19256
0
LINE
8
BLACK
6
CONTINUOUS
10
4.98913
20
-5.19256
11
4.98913
21
-4.86256
0
LINE
8
BLACK
6
CONTINUOUS
10
4.98913
20
-4.86256
11
4.98942
21
-4.86186
0
LINE
8
BLACK
6
CONTINUOUS
10
4.98942
20
-4.86186
11
4.99012
21
-4.86157
0
LINE
8
BLACK
6
CONTINUOUS
10
4.99012
20
-4.86157
11
6.25012
21
-4.86157
0
LINE
8
BLACK
6
CONTINUOUS
10
6.25012
20
-4.86157
11
6.25081
21
-4.86186
0
LINE
8
BLACK
6
CONTINUOUS
10
6.25081
20
-4.86186
11
6.2511
21
-4.86256
0
LINE
8
BLACK
6
CONTINUOUS
10
6.2511
20
-4.86256
11
6.2511
21
-5.19256
0
LINE
8
BLACK
6
CONTINUOUS
10
6.2511
20
-5.19256
11
6.25081
21
-5.19326
0
LINE
8
BLACK
6
CONTINUOUS
10
6.25081
20
-5.19326
11
6.25012
21
-5.19354
0
LINE
8
BLACK
6
CONTINUOUS
10
6.25012
20
-5.19354
11
4.99012
21
-5.19354
0
LINE
8
BLACK
6
CONTINUOUS
10
4.99012
20
-5.19354
11
4.98942
21
-5.19326
0
LINE
8
BLACK
6
CONTINUOUS
10
4.9911
20
-4.86354
11
4.9911
21
-5.19157
0
LINE
8
BLACK
6
CONTINUOUS
10
4.9911
20
-5.19157
11
6.24913
21
-5.19157
0
LINE
8
BLACK
6
CONTINUOUS
10
6.24913
20
-5.19157
11
6.24913
21
-4.86354
0
LINE
8
BLACK
6
CONTINUOUS
10
6.24913
20
-4.86354
11
4.9911
21
-4.86354
0
LINE
8
BLACK
6
CONTINUOUS
10
5.92092
20
-4.80392
11
5.92063
21
-4.80323
0
LINE
8
BLACK
6
CONTINUOUS
10
5.92063
20
-4.80323
11
5.92063
21
-3.54323
0
LINE
8
BLACK
6
CONTINUOUS
10
5.92063
20
-3.54323
11
5.92092
21
-3.54253
0
LINE
8
BLACK
6
CONTINUOUS
10
5.92092
20
-3.54253
11
5.92161
21
-3.54224
0
LINE
8
BLACK
6
CONTINUOUS
10
5.92161
20
-3.54224
11
6.25161
21
-3.54224
0
LINE
8
BLACK
6
CONTINUOUS
10
6.25161
20
-3.54224
11
6.25231
21
-3.54253
0
LINE
8
BLACK
6
CONTINUOUS
10
6.25231
20
-3.54253
11
6.2526
21
-3.54323
0
LINE
8
BLACK
6
CONTINUOUS
10
6.2526
20
-3.54323
11
6.2526
21
-4.80323
0
LINE
8
BLACK
6
CONTINUOUS
10
6.2526
20
-4.80323
11
6.25231
21
-4.80392
0
LINE
8
BLACK
6
CONTINUOUS
10
6.25231
20
-4.80392
11
6.25161
21
-4.80421
0
LINE
8
BLACK
6
CONTINUOUS
10
6.25161
20
-4.80421
11
5.92161
21
-4.80421
0
LINE
8
BLACK
6
CONTINUOUS
10
5.92161
20
-4.80421
11
5.92092
21
-4.80392
0
LINE
8
BLACK
6
CONTINUOUS
10
5.9226
20
-3.54421
11
5.9226
21
-4.80224
0
LINE
8
BLACK
6
CONTINUOUS
10
5.9226
20
-4.80224
11
6.25063
21
-4.80224
0
LINE
8
BLACK
6
CONTINUOUS
10
6.25063
20
-4.80224
11
6.25063
21
-3.54421
0
LINE
8
BLACK
6
CONTINUOUS
10
6.25063
20
-3.54421
11
5.9226
21
-3.54421
0
LINE
8
BLACK
6
CONTINUOUS
10
4.98753
20
-4.80392
11
4.98724
21
-4.80323
0
LINE
8
BLACK
6
CONTINUOUS
10
4.98724
20
-4.80323
11
4.98724
21
-3.54323
0
LINE
8
BLACK
6
CONTINUOUS
10
4.98724
20
-3.54323
11
4.98753
21
-3.54253
0
LINE
8
BLACK
6
CONTINUOUS
10
4.98753
20
-3.54253
11
4.98823
21
-3.54224
0
LINE
8
BLACK
6
CONTINUOUS
10
4.98823
20
-3.54224
11
5.31823
21
-3.54224
0
LINE
8
BLACK
6
CONTINUOUS
10
5.31823
20
-3.54224
11
5.31892
21
-3.54253
0
LINE
8
BLACK
6
CONTINUOUS
10
5.31892
20
-3.54253
11
5.31921
21
-3.54323
0
LINE
8
BLACK
6
CONTINUOUS
10
5.31921
20
-3.54323
11
5.31921
21
-4.80323
0
LINE
8
BLACK
6
CONTINUOUS
10
5.31921
20
-4.80323
11
5.31892
21
-4.80392
0
LINE
8
BLACK
6
CONTINUOUS
10
5.31892
20
-4.80392
11
5.31823
21
-4.80421
0
LINE
8
BLACK
6
CONTINUOUS
10
5.31823
20
-4.80421
11
4.98823
21
-4.80421
0
LINE
8
BLACK
6
CONTINUOUS
10
4.98823
20
-4.80421
11
4.98753
21
-4.80392
0
LINE
8
BLACK
6
CONTINUOUS
10
4.98921
20
-3.54421
11
4.98921
21
-4.80224
0
LINE
8
BLACK
6
CONTINUOUS
10
4.98921
20
-4.80224
11
5.31724
21
-4.80224
0
LINE
8
BLACK
6
CONTINUOUS
10
5.31724
20
-4.80224
11
5.31724
21
-3.54421
0
LINE
8
BLACK
6
CONTINUOUS
10
5.31724
20
-3.54421
11
4.98921
21
-3.54421
  0
ENDSEC
  0
EOF
