  0
SECTION
  2
HEADER
  9
$ANGBASE
  50
0.0
  9
$ANGDIR
  70
1
  9
$MEASUREMENT
  70
0
  0
ENDSEC
  0
SECTION
  2
TABLES
  0
TABLE
  2
LTYPE
  70
4
  0
LTYPE
  5
40F
  2
CONTINUOUS
  70
0
  3
Solid line
  72
65
  73
0
  40
0.0
  0
LTYPE
  5
410
  2
DASHDOT
 70
0
  3
Dash Dot ____ _ ____ _
 72
65
 73
4
 40
2.0
 49
1.25
 49
-0.25
 49
0.25
 49
-0.25
  0
LTYPE
  5
411
  2
DASHED
 70
0
  3
Dashed __ __ __ __ __
 72
65
 73
2
 40
0.75
 49
0.5
 49
-0.25
  0
LTYPE
  5
43B
  2
DOTTED
 70
0
  3
Dotted .  .  .  .
 72
65
 73
2
 40
0.2
 49
0.0
 49
-0.2
  0
ENDTAB
  0
TABLE
  2
STYLE
  70
4
  0
STYLE
  2
KICAD
  70
0
  40
0
  41
1
  42
1
  50
0
  71
0
  3
isocp.shx
  0
STYLE
  2
KICADB
  70
0
  40
0
  41
1
  42
1
  50
0
  71
0
  3
isocp.shx
  0
STYLE
  2
KICADI
  70
0
  40
0
  41
1
  42
1
  50
15
  71
0
  3
isocp.shx
  0
STYLE
  2
KICADBI
  70
0
  40
0
  41
1
  42
1
  50
15
  71
0
  3
isocp.shx
  0
ENDTAB
  0
TABLE
  2
LAYER
  70
1
  0
LAYER
  2
BLACK
  70
0
  62
7
  6
CONTINUOUS
  0
ENDTAB
  0
ENDSEC
  0
SECTION
  2
ENTITIES
0
LINE
8
BLACK
6
CONTINUOUS
10
6.29804
20
-5.01554
11
6.30209
21
-5.00212
0
LINE
8
BLACK
6
CONTINUOUS
10
6.30209
20
-5.00212
11
6.30762
21
-4.98923
0
LINE
8
BLACK
6
CONTINUOUS
10
6.30762
20
-4.98923
11
6.31454
21
-4.97704
0
LINE
8
BLACK
6
CONTINUOUS
10
6.31454
20
-4.97704
11
6.32279
21
-4.9657
0
LINE
8
BLACK
6
CONTINUOUS
10
6.32279
20
-4.9657
11
6.33224
21
-4.95534
0
LINE
8
BLACK
6
CONTINUOUS
10
6.33224
20
-4.95534
11
6.34279
21
-4.9461
0
LINE
8
BLACK
6
CONTINUOUS
10
6.34279
20
-4.9461
11
6.35431
21
-4.9381
0
LINE
8
BLACK
6
CONTINUOUS
10
6.35431
20
-4.9381
11
6.36664
21
-4.93143
0
LINE
8
BLACK
6
CONTINUOUS
10
6.36664
20
-4.93143
11
6.37964
21
-4.92618
0
LINE
8
BLACK
6
CONTINUOUS
10
6.37964
20
-4.92618
11
6.39315
21
-4.92241
0
LINE
8
BLACK
6
CONTINUOUS
10
6.39315
20
-4.92241
11
6.40699
21
-4.92017
0
LINE
8
BLACK
6
CONTINUOUS
10
6.40699
20
-4.92017
11
6.42099
21
-4.91948
0
LINE
8
BLACK
6
CONTINUOUS
10
6.42099
20
-4.91948
11
6.43499
21
-4.92036
0
LINE
8
BLACK
6
CONTINUOUS
10
6.43499
20
-4.92036
11
6.4488
21
-4.9228
0
LINE
8
BLACK
6
CONTINUOUS
10
6.4488
20
-4.9228
11
6.46225
21
-4.92676
0
LINE
8
BLACK
6
CONTINUOUS
10
6.46225
20
-4.92676
11
6.47518
21
-4.93219
0
LINE
8
BLACK
6
CONTINUOUS
10
6.47518
20
-4.93219
11
6.48742
21
-4.93903
0
LINE
8
BLACK
6
CONTINUOUS
10
6.48742
20
-4.93903
11
6.49882
21
-4.94719
0
LINE
8
BLACK
6
CONTINUOUS
10
6.49882
20
-4.94719
11
6.50924
21
-4.95658
0
LINE
8
BLACK
6
CONTINUOUS
10
6.50924
20
-4.95658
11
6.51855
21
-4.96706
0
LINE
8
BLACK
6
CONTINUOUS
10
6.51855
20
-4.96706
11
6.52663
21
-4.97852
0
LINE
8
BLACK
6
CONTINUOUS
10
6.52663
20
-4.97852
11
6.53339
21
-4.99081
0
LINE
8
BLACK
6
CONTINUOUS
10
6.53339
20
-4.99081
11
6.53873
21
-5.00377
0
LINE
8
BLACK
6
CONTINUOUS
10
6.53873
20
-5.00377
11
6.5426
21
-5.01725
0
LINE
8
BLACK
6
CONTINUOUS
10
6.5426
20
-5.01725
11
6.54494
21
-5.03108
0
LINE
8
BLACK
6
CONTINUOUS
10
6.54494
20
-5.03108
11
6.54572
21
-5.04508
0
LINE
8
BLACK
6
CONTINUOUS
10
6.54572
20
-5.04508
11
6.54567
21
-5.04859
0
LINE
8
BLACK
6
CONTINUOUS
10
6.54567
20
-5.04859
11
6.5445
21
-5.06256
0
LINE
8
BLACK
6
CONTINUOUS
10
6.5445
20
-5.06256
11
6.54177
21
-5.07631
0
LINE
8
BLACK
6
CONTINUOUS
10
6.54177
20
-5.07631
11
6.53753
21
-5.08968
0
LINE
8
BLACK
6
CONTINUOUS
10
6.53753
20
-5.08968
11
6.53183
21
-5.10249
0
LINE
8
BLACK
6
CONTINUOUS
10
6.53183
20
-5.10249
11
6.52473
21
-5.11458
0
LINE
8
BLACK
6
CONTINUOUS
10
6.52473
20
-5.11458
11
6.51633
21
-5.12581
0
LINE
8
BLACK
6
CONTINUOUS
10
6.51633
20
-5.12581
11
6.50673
21
-5.13603
0
LINE
8
BLACK
6
CONTINUOUS
10
6.50673
20
-5.13603
11
6.49606
21
-5.14512
0
LINE
8
BLACK
6
CONTINUOUS
10
6.49606
20
-5.14512
11
6.48443
21
-5.15296
0
LINE
8
BLACK
6
CONTINUOUS
10
6.48443
20
-5.15296
11
6.472
21
-5.15946
0
LINE
8
BLACK
6
CONTINUOUS
10
6.472
20
-5.15946
11
6.45893
21
-5.16453
0
LINE
8
BLACK
6
CONTINUOUS
10
6.45893
20
-5.16453
11
6.44537
21
-5.16811
0
LINE
8
BLACK
6
CONTINUOUS
10
6.44537
20
-5.16811
11
6.4315
21
-5.17016
0
LINE
8
BLACK
6
CONTINUOUS
10
6.4315
20
-5.17016
11
6.41749
21
-5.17065
0
LINE
8
BLACK
6
CONTINUOUS
10
6.41749
20
-5.17065
11
6.40351
21
-5.16958
0
LINE
8
BLACK
6
CONTINUOUS
10
6.40351
20
-5.16958
11
6.38973
21
-5.16695
0
LINE
8
BLACK
6
CONTINUOUS
10
6.38973
20
-5.16695
11
6.37634
21
-5.1628
0
LINE
8
BLACK
6
CONTINUOUS
10
6.37634
20
-5.1628
11
6.36349
21
-5.15719
0
LINE
8
BLACK
6
CONTINUOUS
10
6.36349
20
-5.15719
11
6.35134
21
-5.15018
0
LINE
8
BLACK
6
CONTINUOUS
10
6.35134
20
-5.15018
11
6.34006
21
-5.14186
0
LINE
8
BLACK
6
CONTINUOUS
10
6.34006
20
-5.14186
11
6.32977
21
-5.13233
0
LINE
8
BLACK
6
CONTINUOUS
10
6.32977
20
-5.13233
11
6.32061
21
-5.12171
0
LINE
8
BLACK
6
CONTINUOUS
10
6.32061
20
-5.12171
11
6.31268
21
-5.11014
0
LINE
8
BLACK
6
CONTINUOUS
10
6.31268
20
-5.11014
11
6.3061
21
-5.09776
0
LINE
8
BLACK
6
CONTINUOUS
10
6.3061
20
-5.09776
11
6.30094
21
-5.08472
0
LINE
8
BLACK
6
CONTINUOUS
10
6.30094
20
-5.08472
11
6.29726
21
-5.07119
0
LINE
8
BLACK
6
CONTINUOUS
10
6.29726
20
-5.07119
11
6.29512
21
-5.05734
0
LINE
8
BLACK
6
CONTINUOUS
10
6.29512
20
-5.05734
11
6.29453
21
-5.04333
0
LINE
8
BLACK
6
CONTINUOUS
10
6.29453
20
-5.04333
11
6.29465
21
-5.0416
0
LINE
8
BLACK
6
CONTINUOUS
10
6.29465
20
-5.0416
11
6.29551
21
-5.02934
0
LINE
8
BLACK
6
CONTINUOUS
10
6.29551
20
-5.02934
11
6.29804
21
-5.01554
0
LINE
8
BLACK
6
CONTINUOUS
10
6.31152
20
-5.06698
11
6.31475
21
-5.07931
0
LINE
8
BLACK
6
CONTINUOUS
10
6.31475
20
-5.07931
11
6.31939
21
-5.0912
0
LINE
8
BLACK
6
CONTINUOUS
10
6.31939
20
-5.0912
11
6.32535
21
-5.10247
0
LINE
8
BLACK
6
CONTINUOUS
10
6.32535
20
-5.10247
11
6.33258
21
-5.11298
0
LINE
8
BLACK
6
CONTINUOUS
10
6.33258
20
-5.11298
11
6.34096
21
-5.12259
0
LINE
8
BLACK
6
CONTINUOUS
10
6.34096
20
-5.12259
11
6.3504
21
-5.13118
0
LINE
8
BLACK
6
CONTINUOUS
10
6.3504
20
-5.13118
11
6.36076
21
-5.13862
0
LINE
8
BLACK
6
CONTINUOUS
10
6.36076
20
-5.13862
11
6.3719
21
-5.14482
0
LINE
8
BLACK
6
CONTINUOUS
10
6.3719
20
-5.14482
11
6.38368
21
-5.1497
0
LINE
8
BLACK
6
CONTINUOUS
10
6.38368
20
-5.1497
11
6.39595
21
-5.1532
0
LINE
8
BLACK
6
CONTINUOUS
10
6.39595
20
-5.1532
11
6.40854
21
-5.15526
0
LINE
8
BLACK
6
CONTINUOUS
10
6.40854
20
-5.15526
11
6.42128
21
-5.15586
0
LINE
8
BLACK
6
CONTINUOUS
10
6.42128
20
-5.15586
11
6.434
21
-5.15499
0
LINE
8
BLACK
6
CONTINUOUS
10
6.434
20
-5.15499
11
6.44654
21
-5.15267
0
LINE
8
BLACK
6
CONTINUOUS
10
6.44654
20
-5.15267
11
6.45874
21
-5.14892
0
LINE
8
BLACK
6
CONTINUOUS
10
6.45874
20
-5.14892
11
6.47041
21
-5.14379
0
LINE
8
BLACK
6
CONTINUOUS
10
6.47041
20
-5.14379
11
6.48143
21
-5.13736
0
LINE
8
BLACK
6
CONTINUOUS
10
6.48143
20
-5.13736
11
6.49163
21
-5.1297
0
LINE
8
BLACK
6
CONTINUOUS
10
6.49163
20
-5.1297
11
6.50088
21
-5.12092
0
LINE
8
BLACK
6
CONTINUOUS
10
6.50088
20
-5.12092
11
6.50906
21
-5.11113
0
LINE
8
BLACK
6
CONTINUOUS
10
6.50906
20
-5.11113
11
6.51606
21
-5.10047
0
LINE
8
BLACK
6
CONTINUOUS
10
6.51606
20
-5.10047
11
6.52179
21
-5.08908
0
LINE
8
BLACK
6
CONTINUOUS
10
6.52179
20
-5.08908
11
6.52618
21
-5.0771
0
LINE
8
BLACK
6
CONTINUOUS
10
6.52618
20
-5.0771
11
6.52915
21
-5.0647
0
LINE
8
BLACK
6
CONTINUOUS
10
6.52915
20
-5.0647
11
6.53069
21
-5.05204
0
LINE
8
BLACK
6
CONTINUOUS
10
6.53069
20
-5.05204
11
6.53091
21
-5.04508
0
LINE
8
BLACK
6
CONTINUOUS
10
6.53091
20
-5.04508
11
6.53017
21
-5.03235
0
LINE
8
BLACK
6
CONTINUOUS
10
6.53017
20
-5.03235
11
6.52798
21
-5.01978
0
LINE
8
BLACK
6
CONTINUOUS
10
6.52798
20
-5.01978
11
6.52436
21
-5.00755
0
LINE
8
BLACK
6
CONTINUOUS
10
6.52436
20
-5.00755
11
6.51935
21
-4.99582
0
LINE
8
BLACK
6
CONTINUOUS
10
6.51935
20
-4.99582
11
6.51303
21
-4.98474
0
LINE
8
BLACK
6
CONTINUOUS
10
6.51303
20
-4.98474
11
6.50548
21
-4.97446
0
LINE
8
BLACK
6
CONTINUOUS
10
6.50548
20
-4.97446
11
6.4968
21
-4.96512
0
LINE
8
BLACK
6
CONTINUOUS
10
6.4968
20
-4.96512
11
6.4871
21
-4.95683
0
LINE
8
BLACK
6
CONTINUOUS
10
6.4871
20
-4.95683
11
6.47651
21
-4.94972
0
LINE
8
BLACK
6
CONTINUOUS
10
6.47651
20
-4.94972
11
6.46518
21
-4.94387
0
LINE
8
BLACK
6
CONTINUOUS
10
6.46518
20
-4.94387
11
6.45325
21
-4.93936
0
LINE
8
BLACK
6
CONTINUOUS
10
6.45325
20
-4.93936
11
6.44088
21
-4.93625
0
LINE
8
BLACK
6
CONTINUOUS
10
6.44088
20
-4.93625
11
6.42823
21
-4.93459
0
LINE
8
BLACK
6
CONTINUOUS
10
6.42823
20
-4.93459
11
6.41548
21
-4.93439
0
LINE
8
BLACK
6
CONTINUOUS
10
6.41548
20
-4.93439
11
6.40279
21
-4.93566
0
LINE
8
BLACK
6
CONTINUOUS
10
6.40279
20
-4.93566
11
6.39033
21
-4.93837
0
LINE
8
BLACK
6
CONTINUOUS
10
6.39033
20
-4.93837
11
6.37826
21
-4.9425
0
LINE
8
BLACK
6
CONTINUOUS
10
6.37826
20
-4.9425
11
6.36675
21
-4.94799
0
LINE
8
BLACK
6
CONTINUOUS
10
6.36675
20
-4.94799
11
6.35594
21
-4.95477
0
LINE
8
BLACK
6
CONTINUOUS
10
6.35594
20
-4.95477
11
6.34599
21
-4.96275
0
LINE
8
BLACK
6
CONTINUOUS
10
6.34599
20
-4.96275
11
6.33702
21
-4.97181
0
LINE
8
BLACK
6
CONTINUOUS
10
6.33702
20
-4.97181
11
6.32915
21
-4.98185
0
LINE
8
BLACK
6
CONTINUOUS
10
6.32915
20
-4.98185
11
6.32248
21
-4.99273
0
LINE
8
BLACK
6
CONTINUOUS
10
6.32248
20
-4.99273
11
6.31711
21
-5.0043
0
LINE
8
BLACK
6
CONTINUOUS
10
6.31711
20
-5.0043
11
6.31311
21
-5.0164
0
LINE
8
BLACK
6
CONTINUOUS
10
6.31311
20
-5.0164
11
6.31052
21
-5.02889
0
LINE
8
BLACK
6
CONTINUOUS
10
6.31052
20
-5.02889
11
6.30939
21
-5.0416
0
LINE
8
BLACK
6
CONTINUOUS
10
6.30939
20
-5.0416
11
6.30972
21
-5.05435
0
LINE
8
BLACK
6
CONTINUOUS
10
6.30972
20
-5.05435
11
6.31152
21
-5.06698
0
LINE
8
BLACK
6
CONTINUOUS
10
4.69804
20
-5.01554
11
4.70209
21
-5.00212
0
LINE
8
BLACK
6
CONTINUOUS
10
4.70209
20
-5.00212
11
4.70762
21
-4.98923
0
LINE
8
BLACK
6
CONTINUOUS
10
4.70762
20
-4.98923
11
4.71454
21
-4.97704
0
LINE
8
BLACK
6
CONTINUOUS
10
4.71454
20
-4.97704
11
4.72279
21
-4.9657
0
LINE
8
BLACK
6
CONTINUOUS
10
4.72279
20
-4.9657
11
4.73224
21
-4.95534
0
LINE
8
BLACK
6
CONTINUOUS
10
4.73224
20
-4.95534
11
4.74279
21
-4.9461
0
LINE
8
BLACK
6
CONTINUOUS
10
4.74279
20
-4.9461
11
4.75431
21
-4.9381
0
LINE
8
BLACK
6
CONTINUOUS
10
4.75431
20
-4.9381
11
4.76664
21
-4.93143
0
LINE
8
BLACK
6
CONTINUOUS
10
4.76664
20
-4.93143
11
4.77964
21
-4.92618
0
LINE
8
BLACK
6
CONTINUOUS
10
4.77964
20
-4.92618
11
4.79315
21
-4.92241
0
LINE
8
BLACK
6
CONTINUOUS
10
4.79315
20
-4.92241
11
4.80699
21
-4.92017
0
LINE
8
BLACK
6
CONTINUOUS
10
4.80699
20
-4.92017
11
4.82099
21
-4.91948
0
LINE
8
BLACK
6
CONTINUOUS
10
4.82099
20
-4.91948
11
4.83499
21
-4.92036
0
LINE
8
BLACK
6
CONTINUOUS
10
4.83499
20
-4.92036
11
4.8488
21
-4.9228
0
LINE
8
BLACK
6
CONTINUOUS
10
4.8488
20
-4.9228
11
4.86225
21
-4.92676
0
LINE
8
BLACK
6
CONTINUOUS
10
4.86225
20
-4.92676
11
4.87518
21
-4.93219
0
LINE
8
BLACK
6
CONTINUOUS
10
4.87518
20
-4.93219
11
4.88742
21
-4.93903
0
LINE
8
BLACK
6
CONTINUOUS
10
4.88742
20
-4.93903
11
4.89882
21
-4.94719
0
LINE
8
BLACK
6
CONTINUOUS
10
4.89882
20
-4.94719
11
4.90924
21
-4.95658
0
LINE
8
BLACK
6
CONTINUOUS
10
4.90924
20
-4.95658
11
4.91855
21
-4.96706
0
LINE
8
BLACK
6
CONTINUOUS
10
4.91855
20
-4.96706
11
4.92663
21
-4.97852
0
LINE
8
BLACK
6
CONTINUOUS
10
4.92663
20
-4.97852
11
4.93339
21
-4.99081
0
LINE
8
BLACK
6
CONTINUOUS
10
4.93339
20
-4.99081
11
4.93873
21
-5.00377
0
LINE
8
BLACK
6
CONTINUOUS
10
4.93873
20
-5.00377
11
4.9426
21
-5.01725
0
LINE
8
BLACK
6
CONTINUOUS
10
4.9426
20
-5.01725
11
4.94494
21
-5.03108
0
LINE
8
BLACK
6
CONTINUOUS
10
4.94494
20
-5.03108
11
4.94572
21
-5.04508
0
LINE
8
BLACK
6
CONTINUOUS
10
4.94572
20
-5.04508
11
4.94567
21
-5.04859
0
LINE
8
BLACK
6
CONTINUOUS
10
4.94567
20
-5.04859
11
4.9445
21
-5.06256
0
LINE
8
BLACK
6
CONTINUOUS
10
4.9445
20
-5.06256
11
4.94177
21
-5.07631
0
LINE
8
BLACK
6
CONTINUOUS
10
4.94177
20
-5.07631
11
4.93753
21
-5.08968
0
LINE
8
BLACK
6
CONTINUOUS
10
4.93753
20
-5.08968
11
4.93183
21
-5.10249
0
LINE
8
BLACK
6
CONTINUOUS
10
4.93183
20
-5.10249
11
4.92473
21
-5.11458
0
LINE
8
BLACK
6
CONTINUOUS
10
4.92473
20
-5.11458
11
4.91633
21
-5.12581
0
LINE
8
BLACK
6
CONTINUOUS
10
4.91633
20
-5.12581
11
4.90673
21
-5.13603
0
LINE
8
BLACK
6
CONTINUOUS
10
4.90673
20
-5.13603
11
4.89606
21
-5.14512
0
LINE
8
BLACK
6
CONTINUOUS
10
4.89606
20
-5.14512
11
4.88443
21
-5.15296
0
LINE
8
BLACK
6
CONTINUOUS
10
4.88443
20
-5.15296
11
4.872
21
-5.15946
0
LINE
8
BLACK
6
CONTINUOUS
10
4.872
20
-5.15946
11
4.85893
21
-5.16453
0
LINE
8
BLACK
6
CONTINUOUS
10
4.85893
20
-5.16453
11
4.84537
21
-5.16811
0
LINE
8
BLACK
6
CONTINUOUS
10
4.84537
20
-5.16811
11
4.8315
21
-5.17016
0
LINE
8
BLACK
6
CONTINUOUS
10
4.8315
20
-5.17016
11
4.81749
21
-5.17065
0
LINE
8
BLACK
6
CONTINUOUS
10
4.81749
20
-5.17065
11
4.80351
21
-5.16958
0
LINE
8
BLACK
6
CONTINUOUS
10
4.80351
20
-5.16958
11
4.78973
21
-5.16695
0
LINE
8
BLACK
6
CONTINUOUS
10
4.78973
20
-5.16695
11
4.77634
21
-5.1628
0
LINE
8
BLACK
6
CONTINUOUS
10
4.77634
20
-5.1628
11
4.76349
21
-5.15719
0
LINE
8
BLACK
6
CONTINUOUS
10
4.76349
20
-5.15719
11
4.75134
21
-5.15018
0
LINE
8
BLACK
6
CONTINUOUS
10
4.75134
20
-5.15018
11
4.74006
21
-5.14186
0
LINE
8
BLACK
6
CONTINUOUS
10
4.74006
20
-5.14186
11
4.72977
21
-5.13233
0
LINE
8
BLACK
6
CONTINUOUS
10
4.72977
20
-5.13233
11
4.72061
21
-5.12171
0
LINE
8
BLACK
6
CONTINUOUS
10
4.72061
20
-5.12171
11
4.71268
21
-5.11014
0
LINE
8
BLACK
6
CONTINUOUS
10
4.71268
20
-5.11014
11
4.7061
21
-5.09776
0
LINE
8
BLACK
6
CONTINUOUS
10
4.7061
20
-5.09776
11
4.70094
21
-5.08472
0
LINE
8
BLACK
6
CONTINUOUS
10
4.70094
20
-5.08472
11
4.69726
21
-5.07119
0
LINE
8
BLACK
6
CONTINUOUS
10
4.69726
20
-5.07119
11
4.69512
21
-5.05734
0
LINE
8
BLACK
6
CONTINUOUS
10
4.69512
20
-5.05734
11
4.69453
21
-5.04333
0
LINE
8
BLACK
6
CONTINUOUS
10
4.69453
20
-5.04333
11
4.69465
21
-5.0416
0
LINE
8
BLACK
6
CONTINUOUS
10
4.69465
20
-5.0416
11
4.69551
21
-5.02934
0
LINE
8
BLACK
6
CONTINUOUS
10
4.69551
20
-5.02934
11
4.69804
21
-5.01554
0
LINE
8
BLACK
6
CONTINUOUS
10
4.71152
20
-5.06698
11
4.71475
21
-5.07931
0
LINE
8
BLACK
6
CONTINUOUS
10
4.71475
20
-5.07931
11
4.71939
21
-5.0912
0
LINE
8
BLACK
6
CONTINUOUS
10
4.71939
20
-5.0912
11
4.72535
21
-5.10247
0
LINE
8
BLACK
6
CONTINUOUS
10
4.72535
20
-5.10247
11
4.73258
21
-5.11298
0
LINE
8
BLACK
6
CONTINUOUS
10
4.73258
20
-5.11298
11
4.74096
21
-5.12259
0
LINE
8
BLACK
6
CONTINUOUS
10
4.74096
20
-5.12259
11
4.7504
21
-5.13118
0
LINE
8
BLACK
6
CONTINUOUS
10
4.7504
20
-5.13118
11
4.76076
21
-5.13862
0
LINE
8
BLACK
6
CONTINUOUS
10
4.76076
20
-5.13862
11
4.7719
21
-5.14482
0
LINE
8
BLACK
6
CONTINUOUS
10
4.7719
20
-5.14482
11
4.78368
21
-5.1497
0
LINE
8
BLACK
6
CONTINUOUS
10
4.78368
20
-5.1497
11
4.79595
21
-5.1532
0
LINE
8
BLACK
6
CONTINUOUS
10
4.79595
20
-5.1532
11
4.80854
21
-5.15526
0
LINE
8
BLACK
6
CONTINUOUS
10
4.80854
20
-5.15526
11
4.82128
21
-5.15586
0
LINE
8
BLACK
6
CONTINUOUS
10
4.82128
20
-5.15586
11
4.834
21
-5.15499
0
LINE
8
BLACK
6
CONTINUOUS
10
4.834
20
-5.15499
11
4.84654
21
-5.15267
0
LINE
8
BLACK
6
CONTINUOUS
10
4.84654
20
-5.15267
11
4.85874
21
-5.14892
0
LINE
8
BLACK
6
CONTINUOUS
10
4.85874
20
-5.14892
11
4.87041
21
-5.14379
0
LINE
8
BLACK
6
CONTINUOUS
10
4.87041
20
-5.14379
11
4.88143
21
-5.13736
0
LINE
8
BLACK
6
CONTINUOUS
10
4.88143
20
-5.13736
11
4.89163
21
-5.1297
0
LINE
8
BLACK
6
CONTINUOUS
10
4.89163
20
-5.1297
11
4.90088
21
-5.12092
0
LINE
8
BLACK
6
CONTINUOUS
10
4.90088
20
-5.12092
11
4.90906
21
-5.11113
0
LINE
8
BLACK
6
CONTINUOUS
10
4.90906
20
-5.11113
11
4.91606
21
-5.10047
0
LINE
8
BLACK
6
CONTINUOUS
10
4.91606
20
-5.10047
11
4.92179
21
-5.08908
0
LINE
8
BLACK
6
CONTINUOUS
10
4.92179
20
-5.08908
11
4.92618
21
-5.0771
0
LINE
8
BLACK
6
CONTINUOUS
10
4.92618
20
-5.0771
11
4.92915
21
-5.0647
0
LINE
8
BLACK
6
CONTINUOUS
10
4.92915
20
-5.0647
11
4.93069
21
-5.05204
0
LINE
8
BLACK
6
CONTINUOUS
10
4.93069
20
-5.05204
11
4.93091
21
-5.04508
0
LINE
8
BLACK
6
CONTINUOUS
10
4.93091
20
-5.04508
11
4.93017
21
-5.03235
0
LINE
8
BLACK
6
CONTINUOUS
10
4.93017
20
-5.03235
11
4.92798
21
-5.01978
0
LINE
8
BLACK
6
CONTINUOUS
10
4.92798
20
-5.01978
11
4.92436
21
-5.00755
0
LINE
8
BLACK
6
CONTINUOUS
10
4.92436
20
-5.00755
11
4.91935
21
-4.99582
0
LINE
8
BLACK
6
CONTINUOUS
10
4.91935
20
-4.99582
11
4.91303
21
-4.98474
0
LINE
8
BLACK
6
CONTINUOUS
10
4.91303
20
-4.98474
11
4.90548
21
-4.97446
0
LINE
8
BLACK
6
CONTINUOUS
10
4.90548
20
-4.97446
11
4.8968
21
-4.96512
0
LINE
8
BLACK
6
CONTINUOUS
10
4.8968
20
-4.96512
11
4.8871
21
-4.95683
0
LINE
8
BLACK
6
CONTINUOUS
10
4.8871
20
-4.95683
11
4.87651
21
-4.94972
0
LINE
8
BLACK
6
CONTINUOUS
10
4.87651
20
-4.94972
11
4.86518
21
-4.94387
0
LINE
8
BLACK
6
CONTINUOUS
10
4.86518
20
-4.94387
11
4.85325
21
-4.93936
0
LINE
8
BLACK
6
CONTINUOUS
10
4.85325
20
-4.93936
11
4.84088
21
-4.93625
0
LINE
8
BLACK
6
CONTINUOUS
10
4.84088
20
-4.93625
11
4.82823
21
-4.93459
0
LINE
8
BLACK
6
CONTINUOUS
10
4.82823
20
-4.93459
11
4.81548
21
-4.93439
0
LINE
8
BLACK
6
CONTINUOUS
10
4.81548
20
-4.93439
11
4.80279
21
-4.93566
0
LINE
8
BLACK
6
CONTINUOUS
10
4.80279
20
-4.93566
11
4.79033
21
-4.93837
0
LINE
8
BLACK
6
CONTINUOUS
10
4.79033
20
-4.93837
11
4.77826
21
-4.9425
0
LINE
8
BLACK
6
CONTINUOUS
10
4.77826
20
-4.9425
11
4.76675
21
-4.94799
0
LINE
8
BLACK
6
CONTINUOUS
10
4.76675
20
-4.94799
11
4.75594
21
-4.95477
0
LINE
8
BLACK
6
CONTINUOUS
10
4.75594
20
-4.95477
11
4.74599
21
-4.96275
0
LINE
8
BLACK
6
CONTINUOUS
10
4.74599
20
-4.96275
11
4.73702
21
-4.97181
0
LINE
8
BLACK
6
CONTINUOUS
10
4.73702
20
-4.97181
11
4.72915
21
-4.98185
0
LINE
8
BLACK
6
CONTINUOUS
10
4.72915
20
-4.98185
11
4.72248
21
-4.99273
0
LINE
8
BLACK
6
CONTINUOUS
10
4.72248
20
-4.99273
11
4.71711
21
-5.0043
0
LINE
8
BLACK
6
CONTINUOUS
10
4.71711
20
-5.0043
11
4.71311
21
-5.0164
0
LINE
8
BLACK
6
CONTINUOUS
10
4.71311
20
-5.0164
11
4.71052
21
-5.02889
0
LINE
8
BLACK
6
CONTINUOUS
10
4.71052
20
-5.02889
11
4.70939
21
-5.0416
0
LINE
8
BLACK
6
CONTINUOUS
10
4.70939
20
-5.0416
11
4.70972
21
-5.05435
0
LINE
8
BLACK
6
CONTINUOUS
10
4.70972
20
-5.05435
11
4.71152
21
-5.06698
0
LINE
8
BLACK
6
CONTINUOUS
10
6.29804
20
-3.41554
11
6.30209
21
-3.40212
0
LINE
8
BLACK
6
CONTINUOUS
10
6.30209
20
-3.40212
11
6.30762
21
-3.38923
0
LINE
8
BLACK
6
CONTINUOUS
10
6.30762
20
-3.38923
11
6.31454
21
-3.37704
0
LINE
8
BLACK
6
CONTINUOUS
10
6.31454
20
-3.37704
11
6.32279
21
-3.3657
0
LINE
8
BLACK
6
CONTINUOUS
10
6.32279
20
-3.3657
11
6.33224
21
-3.35534
0
LINE
8
BLACK
6
CONTINUOUS
10
6.33224
20
-3.35534
11
6.34279
21
-3.3461
0
LINE
8
BLACK
6
CONTINUOUS
10
6.34279
20
-3.3461
11
6.35431
21
-3.3381
0
LINE
8
BLACK
6
CONTINUOUS
10
6.35431
20
-3.3381
11
6.36664
21
-3.33143
0
LINE
8
BLACK
6
CONTINUOUS
10
6.36664
20
-3.33143
11
6.37964
21
-3.32618
0
LINE
8
BLACK
6
CONTINUOUS
10
6.37964
20
-3.32618
11
6.39315
21
-3.32241
0
LINE
8
BLACK
6
CONTINUOUS
10
6.39315
20
-3.32241
11
6.40699
21
-3.32017
0
LINE
8
BLACK
6
CONTINUOUS
10
6.40699
20
-3.32017
11
6.42099
21
-3.31948
0
LINE
8
BLACK
6
CONTINUOUS
10
6.42099
20
-3.31948
11
6.43499
21
-3.32036
0
LINE
8
BLACK
6
CONTINUOUS
10
6.43499
20
-3.32036
11
6.4488
21
-3.3228
0
LINE
8
BLACK
6
CONTINUOUS
10
6.4488
20
-3.3228
11
6.46225
21
-3.32676
0
LINE
8
BLACK
6
CONTINUOUS
10
6.46225
20
-3.32676
11
6.47518
21
-3.33219
0
LINE
8
BLACK
6
CONTINUOUS
10
6.47518
20
-3.33219
11
6.48742
21
-3.33903
0
LINE
8
BLACK
6
CONTINUOUS
10
6.48742
20
-3.33903
11
6.49882
21
-3.34719
0
LINE
8
BLACK
6
CONTINUOUS
10
6.49882
20
-3.34719
11
6.50924
21
-3.35658
0
LINE
8
BLACK
6
CONTINUOUS
10
6.50924
20
-3.35658
11
6.51855
21
-3.36706
0
LINE
8
BLACK
6
CONTINUOUS
10
6.51855
20
-3.36706
11
6.52663
21
-3.37852
0
LINE
8
BLACK
6
CONTINUOUS
10
6.52663
20
-3.37852
11
6.53339
21
-3.39081
0
LINE
8
BLACK
6
CONTINUOUS
10
6.53339
20
-3.39081
11
6.53873
21
-3.40377
0
LINE
8
BLACK
6
CONTINUOUS
10
6.53873
20
-3.40377
11
6.5426
21
-3.41725
0
LINE
8
BLACK
6
CONTINUOUS
10
6.5426
20
-3.41725
11
6.54494
21
-3.43108
0
LINE
8
BLACK
6
CONTINUOUS
10
6.54494
20
-3.43108
11
6.54572
21
-3.44508
0
LINE
8
BLACK
6
CONTINUOUS
10
6.54572
20
-3.44508
11
6.54567
21
-3.44859
0
LINE
8
BLACK
6
CONTINUOUS
10
6.54567
20
-3.44859
11
6.5445
21
-3.46256
0
LINE
8
BLACK
6
CONTINUOUS
10
6.5445
20
-3.46256
11
6.54177
21
-3.47631
0
LINE
8
BLACK
6
CONTINUOUS
10
6.54177
20
-3.47631
11
6.53753
21
-3.48968
0
LINE
8
BLACK
6
CONTINUOUS
10
6.53753
20
-3.48968
11
6.53183
21
-3.50249
0
LINE
8
BLACK
6
CONTINUOUS
10
6.53183
20
-3.50249
11
6.52473
21
-3.51458
0
LINE
8
BLACK
6
CONTINUOUS
10
6.52473
20
-3.51458
11
6.51633
21
-3.52581
0
LINE
8
BLACK
6
CONTINUOUS
10
6.51633
20
-3.52581
11
6.50673
21
-3.53603
0
LINE
8
BLACK
6
CONTINUOUS
10
6.50673
20
-3.53603
11
6.49606
21
-3.54512
0
LINE
8
BLACK
6
CONTINUOUS
10
6.49606
20
-3.54512
11
6.48443
21
-3.55296
0
LINE
8
BLACK
6
CONTINUOUS
10
6.48443
20
-3.55296
11
6.472
21
-3.55946
0
LINE
8
BLACK
6
CONTINUOUS
10
6.472
20
-3.55946
11
6.45893
21
-3.56453
0
LINE
8
BLACK
6
CONTINUOUS
10
6.45893
20
-3.56453
11
6.44537
21
-3.56811
0
LINE
8
BLACK
6
CONTINUOUS
10
6.44537
20
-3.56811
11
6.4315
21
-3.57016
0
LINE
8
BLACK
6
CONTINUOUS
10
6.4315
20
-3.57016
11
6.41749
21
-3.57065
0
LINE
8
BLACK
6
CONTINUOUS
10
6.41749
20
-3.57065
11
6.40351
21
-3.56958
0
LINE
8
BLACK
6
CONTINUOUS
10
6.40351
20
-3.56958
11
6.38973
21
-3.56695
0
LINE
8
BLACK
6
CONTINUOUS
10
6.38973
20
-3.56695
11
6.37634
21
-3.5628
0
LINE
8
BLACK
6
CONTINUOUS
10
6.37634
20
-3.5628
11
6.36349
21
-3.55719
0
LINE
8
BLACK
6
CONTINUOUS
10
6.36349
20
-3.55719
11
6.35134
21
-3.55018
0
LINE
8
BLACK
6
CONTINUOUS
10
6.35134
20
-3.55018
11
6.34006
21
-3.54186
0
LINE
8
BLACK
6
CONTINUOUS
10
6.34006
20
-3.54186
11
6.32977
21
-3.53233
0
LINE
8
BLACK
6
CONTINUOUS
10
6.32977
20
-3.53233
11
6.32061
21
-3.52171
0
LINE
8
BLACK
6
CONTINUOUS
10
6.32061
20
-3.52171
11
6.31268
21
-3.51014
0
LINE
8
BLACK
6
CONTINUOUS
10
6.31268
20
-3.51014
11
6.3061
21
-3.49776
0
LINE
8
BLACK
6
CONTINUOUS
10
6.3061
20
-3.49776
11
6.30094
21
-3.48472
0
LINE
8
BLACK
6
CONTINUOUS
10
6.30094
20
-3.48472
11
6.29726
21
-3.47119
0
LINE
8
BLACK
6
CONTINUOUS
10
6.29726
20
-3.47119
11
6.29512
21
-3.45734
0
LINE
8
BLACK
6
CONTINUOUS
10
6.29512
20
-3.45734
11
6.29453
21
-3.44333
0
LINE
8
BLACK
6
CONTINUOUS
10
6.29453
20
-3.44333
11
6.29465
21
-3.4416
0
LINE
8
BLACK
6
CONTINUOUS
10
6.29465
20
-3.4416
11
6.29551
21
-3.42934
0
LINE
8
BLACK
6
CONTINUOUS
10
6.29551
20
-3.42934
11
6.29804
21
-3.41554
0
LINE
8
BLACK
6
CONTINUOUS
10
6.31152
20
-3.46698
11
6.31475
21
-3.47931
0
LINE
8
BLACK
6
CONTINUOUS
10
6.31475
20
-3.47931
11
6.31939
21
-3.4912
0
LINE
8
BLACK
6
CONTINUOUS
10
6.31939
20
-3.4912
11
6.32535
21
-3.50247
0
LINE
8
BLACK
6
CONTINUOUS
10
6.32535
20
-3.50247
11
6.33258
21
-3.51298
0
LINE
8
BLACK
6
CONTINUOUS
10
6.33258
20
-3.51298
11
6.34096
21
-3.52259
0
LINE
8
BLACK
6
CONTINUOUS
10
6.34096
20
-3.52259
11
6.3504
21
-3.53118
0
LINE
8
BLACK
6
CONTINUOUS
10
6.3504
20
-3.53118
11
6.36076
21
-3.53862
0
LINE
8
BLACK
6
CONTINUOUS
10
6.36076
20
-3.53862
11
6.3719
21
-3.54482
0
LINE
8
BLACK
6
CONTINUOUS
10
6.3719
20
-3.54482
11
6.38368
21
-3.5497
0
LINE
8
BLACK
6
CONTINUOUS
10
6.38368
20
-3.5497
11
6.39595
21
-3.5532
0
LINE
8
BLACK
6
CONTINUOUS
10
6.39595
20
-3.5532
11
6.40854
21
-3.55526
0
LINE
8
BLACK
6
CONTINUOUS
10
6.40854
20
-3.55526
11
6.42128
21
-3.55586
0
LINE
8
BLACK
6
CONTINUOUS
10
6.42128
20
-3.55586
11
6.434
21
-3.55499
0
LINE
8
BLACK
6
CONTINUOUS
10
6.434
20
-3.55499
11
6.44654
21
-3.55267
0
LINE
8
BLACK
6
CONTINUOUS
10
6.44654
20
-3.55267
11
6.45874
21
-3.54892
0
LINE
8
BLACK
6
CONTINUOUS
10
6.45874
20
-3.54892
11
6.47041
21
-3.54379
0
LINE
8
BLACK
6
CONTINUOUS
10
6.47041
20
-3.54379
11
6.48143
21
-3.53736
0
LINE
8
BLACK
6
CONTINUOUS
10
6.48143
20
-3.53736
11
6.49163
21
-3.5297
0
LINE
8
BLACK
6
CONTINUOUS
10
6.49163
20
-3.5297
11
6.50088
21
-3.52092
0
LINE
8
BLACK
6
CONTINUOUS
10
6.50088
20
-3.52092
11
6.50906
21
-3.51113
0
LINE
8
BLACK
6
CONTINUOUS
10
6.50906
20
-3.51113
11
6.51606
21
-3.50047
0
LINE
8
BLACK
6
CONTINUOUS
10
6.51606
20
-3.50047
11
6.52179
21
-3.48908
0
LINE
8
BLACK
6
CONTINUOUS
10
6.52179
20
-3.48908
11
6.52618
21
-3.4771
0
LINE
8
BLACK
6
CONTINUOUS
10
6.52618
20
-3.4771
11
6.52915
21
-3.4647
0
LINE
8
BLACK
6
CONTINUOUS
10
6.52915
20
-3.4647
11
6.53069
21
-3.45204
0
LINE
8
BLACK
6
CONTINUOUS
10
6.53069
20
-3.45204
11
6.53091
21
-3.44508
0
LINE
8
BLACK
6
CONTINUOUS
10
6.53091
20
-3.44508
11
6.53017
21
-3.43235
0
LINE
8
BLACK
6
CONTINUOUS
10
6.53017
20
-3.43235
11
6.52798
21
-3.41978
0
LINE
8
BLACK
6
CONTINUOUS
10
6.52798
20
-3.41978
11
6.52436
21
-3.40755
0
LINE
8
BLACK
6
CONTINUOUS
10
6.52436
20
-3.40755
11
6.51935
21
-3.39582
0
LINE
8
BLACK
6
CONTINUOUS
10
6.51935
20
-3.39582
11
6.51303
21
-3.38474
0
LINE
8
BLACK
6
CONTINUOUS
10
6.51303
20
-3.38474
11
6.50548
21
-3.37446
0
LINE
8
BLACK
6
CONTINUOUS
10
6.50548
20
-3.37446
11
6.4968
21
-3.36512
0
LINE
8
BLACK
6
CONTINUOUS
10
6.4968
20
-3.36512
11
6.4871
21
-3.35683
0
LINE
8
BLACK
6
CONTINUOUS
10
6.4871
20
-3.35683
11
6.47651
21
-3.34972
0
LINE
8
BLACK
6
CONTINUOUS
10
6.47651
20
-3.34972
11
6.46518
21
-3.34387
0
LINE
8
BLACK
6
CONTINUOUS
10
6.46518
20
-3.34387
11
6.45325
21
-3.33936
0
LINE
8
BLACK
6
CONTINUOUS
10
6.45325
20
-3.33936
11
6.44088
21
-3.33625
0
LINE
8
BLACK
6
CONTINUOUS
10
6.44088
20
-3.33625
11
6.42823
21
-3.33459
0
LINE
8
BLACK
6
CONTINUOUS
10
6.42823
20
-3.33459
11
6.41548
21
-3.33439
0
LINE
8
BLACK
6
CONTINUOUS
10
6.41548
20
-3.33439
11
6.40279
21
-3.33566
0
LINE
8
BLACK
6
CONTINUOUS
10
6.40279
20
-3.33566
11
6.39033
21
-3.33837
0
LINE
8
BLACK
6
CONTINUOUS
10
6.39033
20
-3.33837
11
6.37826
21
-3.3425
0
LINE
8
BLACK
6
CONTINUOUS
10
6.37826
20
-3.3425
11
6.36675
21
-3.34799
0
LINE
8
BLACK
6
CONTINUOUS
10
6.36675
20
-3.34799
11
6.35594
21
-3.35477
0
LINE
8
BLACK
6
CONTINUOUS
10
6.35594
20
-3.35477
11
6.34599
21
-3.36275
0
LINE
8
BLACK
6
CONTINUOUS
10
6.34599
20
-3.36275
11
6.33702
21
-3.37181
0
LINE
8
BLACK
6
CONTINUOUS
10
6.33702
20
-3.37181
11
6.32915
21
-3.38185
0
LINE
8
BLACK
6
CONTINUOUS
10
6.32915
20
-3.38185
11
6.32248
21
-3.39273
0
LINE
8
BLACK
6
CONTINUOUS
10
6.32248
20
-3.39273
11
6.31711
21
-3.4043
0
LINE
8
BLACK
6
CONTINUOUS
10
6.31711
20
-3.4043
11
6.31311
21
-3.4164
0
LINE
8
BLACK
6
CONTINUOUS
10
6.31311
20
-3.4164
11
6.31052
21
-3.42889
0
LINE
8
BLACK
6
CONTINUOUS
10
6.31052
20
-3.42889
11
6.30939
21
-3.4416
0
LINE
8
BLACK
6
CONTINUOUS
10
6.30939
20
-3.4416
11
6.30972
21
-3.45435
0
LINE
8
BLACK
6
CONTINUOUS
10
6.30972
20
-3.45435
11
6.31152
21
-3.46698
0
LINE
8
BLACK
6
CONTINUOUS
10
4.69804
20
-3.41554
11
4.70209
21
-3.40212
0
LINE
8
BLACK
6
CONTINUOUS
10
4.70209
20
-3.40212
11
4.70762
21
-3.38923
0
LINE
8
BLACK
6
CONTINUOUS
10
4.70762
20
-3.38923
11
4.71454
21
-3.37704
0
LINE
8
BLACK
6
CONTINUOUS
10
4.71454
20
-3.37704
11
4.72279
21
-3.3657
0
LINE
8
BLACK
6
CONTINUOUS
10
4.72279
20
-3.3657
11
4.73224
21
-3.35534
0
LINE
8
BLACK
6
CONTINUOUS
10
4.73224
20
-3.35534
11
4.74279
21
-3.3461
0
LINE
8
BLACK
6
CONTINUOUS
10
4.74279
20
-3.3461
11
4.75431
21
-3.3381
0
LINE
8
BLACK
6
CONTINUOUS
10
4.75431
20
-3.3381
11
4.76664
21
-3.33143
0
LINE
8
BLACK
6
CONTINUOUS
10
4.76664
20
-3.33143
11
4.77964
21
-3.32618
0
LINE
8
BLACK
6
CONTINUOUS
10
4.77964
20
-3.32618
11
4.79315
21
-3.32241
0
LINE
8
BLACK
6
CONTINUOUS
10
4.79315
20
-3.32241
11
4.80699
21
-3.32017
0
LINE
8
BLACK
6
CONTINUOUS
10
4.80699
20
-3.32017
11
4.82099
21
-3.31948
0
LINE
8
BLACK
6
CONTINUOUS
10
4.82099
20
-3.31948
11
4.83499
21
-3.32036
0
LINE
8
BLACK
6
CONTINUOUS
10
4.83499
20
-3.32036
11
4.8488
21
-3.3228
0
LINE
8
BLACK
6
CONTINUOUS
10
4.8488
20
-3.3228
11
4.86225
21
-3.32676
0
LINE
8
BLACK
6
CONTINUOUS
10
4.86225
20
-3.32676
11
4.87518
21
-3.33219
0
LINE
8
BLACK
6
CONTINUOUS
10
4.87518
20
-3.33219
11
4.88742
21
-3.33903
0
LINE
8
BLACK
6
CONTINUOUS
10
4.88742
20
-3.33903
11
4.89882
21
-3.34719
0
LINE
8
BLACK
6
CONTINUOUS
10
4.89882
20
-3.34719
11
4.90924
21
-3.35658
0
LINE
8
BLACK
6
CONTINUOUS
10
4.90924
20
-3.35658
11
4.91855
21
-3.36706
0
LINE
8
BLACK
6
CONTINUOUS
10
4.91855
20
-3.36706
11
4.92663
21
-3.37852
0
LINE
8
BLACK
6
CONTINUOUS
10
4.92663
20
-3.37852
11
4.93339
21
-3.39081
0
LINE
8
BLACK
6
CONTINUOUS
10
4.93339
20
-3.39081
11
4.93873
21
-3.40377
0
LINE
8
BLACK
6
CONTINUOUS
10
4.93873
20
-3.40377
11
4.9426
21
-3.41725
0
LINE
8
BLACK
6
CONTINUOUS
10
4.9426
20
-3.41725
11
4.94494
21
-3.43108
0
LINE
8
BLACK
6
CONTINUOUS
10
4.94494
20
-3.43108
11
4.94572
21
-3.44508
0
LINE
8
BLACK
6
CONTINUOUS
10
4.94572
20
-3.44508
11
4.94567
21
-3.44859
0
LINE
8
BLACK
6
CONTINUOUS
10
4.94567
20
-3.44859
11
4.9445
21
-3.46256
0
LINE
8
BLACK
6
CONTINUOUS
10
4.9445
20
-3.46256
11
4.94177
21
-3.47631
0
LINE
8
BLACK
6
CONTINUOUS
10
4.94177
20
-3.47631
11
4.93753
21
-3.48968
0
LINE
8
BLACK
6
CONTINUOUS
10
4.93753
20
-3.48968
11
4.93183
21
-3.50249
0
LINE
8
BLACK
6
CONTINUOUS
10
4.93183
20
-3.50249
11
4.92473
21
-3.51458
0
LINE
8
BLACK
6
CONTINUOUS
10
4.92473
20
-3.51458
11
4.91633
21
-3.52581
0
LINE
8
BLACK
6
CONTINUOUS
10
4.91633
20
-3.52581
11
4.90673
21
-3.53603
0
LINE
8
BLACK
6
CONTINUOUS
10
4.90673
20
-3.53603
11
4.89606
21
-3.54512
0
LINE
8
BLACK
6
CONTINUOUS
10
4.89606
20
-3.54512
11
4.88443
21
-3.55296
0
LINE
8
BLACK
6
CONTINUOUS
10
4.88443
20
-3.55296
11
4.872
21
-3.55946
0
LINE
8
BLACK
6
CONTINUOUS
10
4.872
20
-3.55946
11
4.85893
21
-3.56453
0
LINE
8
BLACK
6
CONTINUOUS
10
4.85893
20
-3.56453
11
4.84537
21
-3.56811
0
LINE
8
BLACK
6
CONTINUOUS
10
4.84537
20
-3.56811
11
4.8315
21
-3.57016
0
LINE
8
BLACK
6
CONTINUOUS
10
4.8315
20
-3.57016
11
4.81749
21
-3.57065
0
LINE
8
BLACK
6
CONTINUOUS
10
4.81749
20
-3.57065
11
4.80351
21
-3.56958
0
LINE
8
BLACK
6
CONTINUOUS
10
4.80351
20
-3.56958
11
4.78973
21
-3.56695
0
LINE
8
BLACK
6
CONTINUOUS
10
4.78973
20
-3.56695
11
4.77634
21
-3.5628
0
LINE
8
BLACK
6
CONTINUOUS
10
4.77634
20
-3.5628
11
4.76349
21
-3.55719
0
LINE
8
BLACK
6
CONTINUOUS
10
4.76349
20
-3.55719
11
4.75134
21
-3.55018
0
LINE
8
BLACK
6
CONTINUOUS
10
4.75134
20
-3.55018
11
4.74006
21
-3.54186
0
LINE
8
BLACK
6
CONTINUOUS
10
4.74006
20
-3.54186
11
4.72977
21
-3.53233
0
LINE
8
BLACK
6
CONTINUOUS
10
4.72977
20
-3.53233
11
4.72061
21
-3.52171
0
LINE
8
BLACK
6
CONTINUOUS
10
4.72061
20
-3.52171
11
4.71268
21
-3.51014
0
LINE
8
BLACK
6
CONTINUOUS
10
4.71268
20
-3.51014
11
4.7061
21
-3.49776
0
LINE
8
BLACK
6
CONTINUOUS
10
4.7061
20
-3.49776
11
4.70094
21
-3.48472
0
LINE
8
BLACK
6
CONTINUOUS
10
4.70094
20
-3.48472
11
4.69726
21
-3.47119
0
LINE
8
BLACK
6
CONTINUOUS
10
4.69726
20
-3.47119
11
4.69512
21
-3.45734
0
LINE
8
BLACK
6
CONTINUOUS
10
4.69512
20
-3.45734
11
4.69453
21
-3.44333
0
LINE
8
BLACK
6
CONTINUOUS
10
4.69453
20
-3.44333
11
4.69465
21
-3.4416
0
LINE
8
BLACK
6
CONTINUOUS
10
4.69465
20
-3.4416
11
4.69551
21
-3.42934
0
LINE
8
BLACK
6
CONTINUOUS
10
4.69551
20
-3.42934
11
4.69804
21
-3.41554
0
LINE
8
BLACK
6
CONTINUOUS
10
4.71152
20
-3.46698
11
4.71475
21
-3.47931
0
LINE
8
BLACK
6
CONTINUOUS
10
4.71475
20
-3.47931
11
4.71939
21
-3.4912
0
LINE
8
BLACK
6
CONTINUOUS
10
4.71939
20
-3.4912
11
4.72535
21
-3.50247
0
LINE
8
BLACK
6
CONTINUOUS
10
4.72535
20
-3.50247
11
4.73258
21
-3.51298
0
LINE
8
BLACK
6
CONTINUOUS
10
4.73258
20
-3.51298
11
4.74096
21
-3.52259
0
LINE
8
BLACK
6
CONTINUOUS
10
4.74096
20
-3.52259
11
4.7504
21
-3.53118
0
LINE
8
BLACK
6
CONTINUOUS
10
4.7504
20
-3.53118
11
4.76076
21
-3.53862
0
LINE
8
BLACK
6
CONTINUOUS
10
4.76076
20
-3.53862
11
4.7719
21
-3.54482
0
LINE
8
BLACK
6
CONTINUOUS
10
4.7719
20
-3.54482
11
4.78368
21
-3.5497
0
LINE
8
BLACK
6
CONTINUOUS
10
4.78368
20
-3.5497
11
4.79595
21
-3.5532
0
LINE
8
BLACK
6
CONTINUOUS
10
4.79595
20
-3.5532
11
4.80854
21
-3.55526
0
LINE
8
BLACK
6
CONTINUOUS
10
4.80854
20
-3.55526
11
4.82128
21
-3.55586
0
LINE
8
BLACK
6
CONTINUOUS
10
4.82128
20
-3.55586
11
4.834
21
-3.55499
0
LINE
8
BLACK
6
CONTINUOUS
10
4.834
20
-3.55499
11
4.84654
21
-3.55267
0
LINE
8
BLACK
6
CONTINUOUS
10
4.84654
20
-3.55267
11
4.85874
21
-3.54892
0
LINE
8
BLACK
6
CONTINUOUS
10
4.85874
20
-3.54892
11
4.87041
21
-3.54379
0
LINE
8
BLACK
6
CONTINUOUS
10
4.87041
20
-3.54379
11
4.88143
21
-3.53736
0
LINE
8
BLACK
6
CONTINUOUS
10
4.88143
20
-3.53736
11
4.89163
21
-3.5297
0
LINE
8
BLACK
6
CONTINUOUS
10
4.89163
20
-3.5297
11
4.90088
21
-3.52092
0
LINE
8
BLACK
6
CONTINUOUS
10
4.90088
20
-3.52092
11
4.90906
21
-3.51113
0
LINE
8
BLACK
6
CONTINUOUS
10
4.90906
20
-3.51113
11
4.91606
21
-3.50047
0
LINE
8
BLACK
6
CONTINUOUS
10
4.91606
20
-3.50047
11
4.92179
21
-3.48908
0
LINE
8
BLACK
6
CONTINUOUS
10
4.92179
20
-3.48908
11
4.92618
21
-3.4771
0
LINE
8
BLACK
6
CONTINUOUS
10
4.92618
20
-3.4771
11
4.92915
21
-3.4647
0
LINE
8
BLACK
6
CONTINUOUS
10
4.92915
20
-3.4647
11
4.93069
21
-3.45204
0
LINE
8
BLACK
6
CONTINUOUS
10
4.93069
20
-3.45204
11
4.93091
21
-3.44508
0
LINE
8
BLACK
6
CONTINUOUS
10
4.93091
20
-3.44508
11
4.93017
21
-3.43235
0
LINE
8
BLACK
6
CONTINUOUS
10
4.93017
20
-3.43235
11
4.92798
21
-3.41978
0
LINE
8
BLACK
6
CONTINUOUS
10
4.92798
20
-3.41978
11
4.92436
21
-3.40755
0
LINE
8
BLACK
6
CONTINUOUS
10
4.92436
20
-3.40755
11
4.91935
21
-3.39582
0
LINE
8
BLACK
6
CONTINUOUS
10
4.91935
20
-3.39582
11
4.91303
21
-3.38474
0
LINE
8
BLACK
6
CONTINUOUS
10
4.91303
20
-3.38474
11
4.90548
21
-3.37446
0
LINE
8
BLACK
6
CONTINUOUS
10
4.90548
20
-3.37446
11
4.8968
21
-3.36512
0
LINE
8
BLACK
6
CONTINUOUS
10
4.8968
20
-3.36512
11
4.8871
21
-3.35683
0
LINE
8
BLACK
6
CONTINUOUS
10
4.8871
20
-3.35683
11
4.87651
21
-3.34972
0
LINE
8
BLACK
6
CONTINUOUS
10
4.87651
20
-3.34972
11
4.86518
21
-3.34387
0
LINE
8
BLACK
6
CONTINUOUS
10
4.86518
20
-3.34387
11
4.85325
21
-3.33936
0
LINE
8
BLACK
6
CONTINUOUS
10
4.85325
20
-3.33936
11
4.84088
21
-3.33625
0
LINE
8
BLACK
6
CONTINUOUS
10
4.84088
20
-3.33625
11
4.82823
21
-3.33459
0
LINE
8
BLACK
6
CONTINUOUS
10
4.82823
20
-3.33459
11
4.81548
21
-3.33439
0
LINE
8
BLACK
6
CONTINUOUS
10
4.81548
20
-3.33439
11
4.80279
21
-3.33566
0
LINE
8
BLACK
6
CONTINUOUS
10
4.80279
20
-3.33566
11
4.79033
21
-3.33837
0
LINE
8
BLACK
6
CONTINUOUS
10
4.79033
20
-3.33837
11
4.77826
21
-3.3425
0
LINE
8
BLACK
6
CONTINUOUS
10
4.77826
20
-3.3425
11
4.76675
21
-3.34799
0
LINE
8
BLACK
6
CONTINUOUS
10
4.76675
20
-3.34799
11
4.75594
21
-3.35477
0
LINE
8
BLACK
6
CONTINUOUS
10
4.75594
20
-3.35477
11
4.74599
21
-3.36275
0
LINE
8
BLACK
6
CONTINUOUS
10
4.74599
20
-3.36275
11
4.73702
21
-3.37181
0
LINE
8
BLACK
6
CONTINUOUS
10
4.73702
20
-3.37181
11
4.72915
21
-3.38185
0
LINE
8
BLACK
6
CONTINUOUS
10
4.72915
20
-3.38185
11
4.72248
21
-3.39273
0
LINE
8
BLACK
6
CONTINUOUS
10
4.72248
20
-3.39273
11
4.71711
21
-3.4043
0
LINE
8
BLACK
6
CONTINUOUS
10
4.71711
20
-3.4043
11
4.71311
21
-3.4164
0
LINE
8
BLACK
6
CONTINUOUS
10
4.71311
20
-3.4164
11
4.71052
21
-3.42889
0
LINE
8
BLACK
6
CONTINUOUS
10
4.71052
20
-3.42889
11
4.70939
21
-3.4416
0
LINE
8
BLACK
6
CONTINUOUS
10
4.70939
20
-3.4416
11
4.70972
21
-3.45435
0
LINE
8
BLACK
6
CONTINUOUS
10
4.70972
20
-3.45435
11
4.71152
21
-3.46698
  0
ENDSEC
  0
EOF
