  0
SECTION
  2
HEADER
  9
$ANGBASE
  50
0.0
  9
$ANGDIR
  70
1
  9
$MEASUREMENT
  70
0
  0
ENDSEC
  0
SECTION
  2
TABLES
  0
TABLE
  2
LTYPE
  70
4
  0
LTYPE
  5
40F
  2
CONTINUOUS
  70
0
  3
Solid line
  72
65
  73
0
  40
0.0
  0
LTYPE
  5
410
  2
DASHDOT
 70
0
  3
Dash Dot ____ _ ____ _
 72
65
 73
4
 40
2.0
 49
1.25
 49
-0.25
 49
0.25
 49
-0.25
  0
LTYPE
  5
411
  2
DASHED
 70
0
  3
Dashed __ __ __ __ __
 72
65
 73
2
 40
0.75
 49
0.5
 49
-0.25
  0
LTYPE
  5
43B
  2
DOTTED
 70
0
  3
Dotted .  .  .  .
 72
65
 73
2
 40
0.2
 49
0.0
 49
-0.2
  0
ENDTAB
  0
TABLE
  2
STYLE
  70
4
  0
STYLE
  2
KICAD
  70
0
  40
0
  41
1
  42
1
  50
0
  71
0
  3
isocp.shx
  0
STYLE
  2
KICADB
  70
0
  40
0
  41
1
  42
1
  50
0
  71
0
  3
isocp.shx
  0
STYLE
  2
KICADI
  70
0
  40
0
  41
1
  42
1
  50
15
  71
0
  3
isocp.shx
  0
STYLE
  2
KICADBI
  70
0
  40
0
  41
1
  42
1
  50
15
  71
0
  3
isocp.shx
  0
ENDTAB
  0
TABLE
  2
LAYER
  70
1
  0
LAYER
  2
BLACK
  70
0
  62
7
  6
CONTINUOUS
  0
ENDTAB
  0
ENDSEC
  0
SECTION
  2
ENTITIES
0
LINE
8
BLACK
6
CONTINUOUS
10
1.31881
20
0.3809
11
1.32036
21
0.379602
0
LINE
8
BLACK
6
CONTINUOUS
10
1.32036
20
0.379602
11
1.32071
21
0.377612
0
LINE
8
BLACK
6
CONTINUOUS
10
1.32071
20
0.377612
11
1.3197
21
0.375863
0
LINE
8
BLACK
6
CONTINUOUS
10
1.3197
20
0.375863
11
1.3178
21
0.375172
0
LINE
8
BLACK
6
CONTINUOUS
10
1.3178
20
0.375172
11
1.28781
21
0.375172
0
LINE
8
BLACK
6
CONTINUOUS
10
1.28781
20
0.375172
11
1.2868
21
0.375351
0
LINE
8
BLACK
6
CONTINUOUS
10
1.2868
20
0.375351
11
1.28525
21
0.376649
0
LINE
8
BLACK
6
CONTINUOUS
10
1.28525
20
0.376649
11
1.2849
21
0.378638
0
LINE
8
BLACK
6
CONTINUOUS
10
1.2849
20
0.378638
11
1.28591
21
0.380387
0
LINE
8
BLACK
6
CONTINUOUS
10
1.28591
20
0.380387
11
1.28781
21
0.381078
0
LINE
8
BLACK
6
CONTINUOUS
10
1.28781
20
0.381078
11
1.3178
21
0.381078
0
LINE
8
BLACK
6
CONTINUOUS
10
1.3178
20
0.381078
11
1.31881
21
0.3809
0
LINE
8
BLACK
6
CONTINUOUS
10
1.14994
20
0.424044
11
1.15001
21
0.424046
0
LINE
8
BLACK
6
CONTINUOUS
10
1.15001
20
0.424046
11
1.15563
21
0.422171
0
LINE
8
BLACK
6
CONTINUOUS
10
1.15563
20
0.422171
11
1.15653
21
0.421683
0
LINE
8
BLACK
6
CONTINUOUS
10
1.15653
20
0.421683
11
1.15663
21
0.421533
0
LINE
8
BLACK
6
CONTINUOUS
10
1.15663
20
0.421533
11
1.15679
21
0.421458
0
LINE
8
BLACK
6
CONTINUOUS
10
1.15679
20
0.421458
11
1.15866
21
0.419583
0
LINE
8
BLACK
6
CONTINUOUS
10
1.15866
20
0.419583
11
1.15925
21
0.418743
0
LINE
8
BLACK
6
CONTINUOUS
10
1.15925
20
0.418743
11
1.15943
21
0.416731
0
LINE
8
BLACK
6
CONTINUOUS
10
1.15943
20
0.416731
11
1.15827
21
0.415076
0
LINE
8
BLACK
6
CONTINUOUS
10
1.15827
20
0.415076
11
1.15632
21
0.414554
0
LINE
8
BLACK
6
CONTINUOUS
10
1.15632
20
0.414554
11
1.15448
21
0.415407
0
LINE
8
BLACK
6
CONTINUOUS
10
1.15448
20
0.415407
11
1.1531
21
0.416789
0
LINE
8
BLACK
6
CONTINUOUS
10
1.1531
20
0.416789
11
1.14859
21
0.418292
0
LINE
8
BLACK
6
CONTINUOUS
10
1.14859
20
0.418292
11
1.1458
21
0.418292
0
LINE
8
BLACK
6
CONTINUOUS
10
1.1458
20
0.418292
11
1.1413
21
0.416789
0
LINE
8
BLACK
6
CONTINUOUS
10
1.1413
20
0.416789
11
1.13838
21
0.413871
0
LINE
8
BLACK
6
CONTINUOUS
10
1.13838
20
0.413871
11
1.13686
21
0.41084
0
LINE
8
BLACK
6
CONTINUOUS
10
1.13686
20
0.41084
11
1.13515
21
0.404008
0
LINE
8
BLACK
6
CONTINUOUS
10
1.13515
20
0.404008
11
1.13515
21
0.399111
0
LINE
8
BLACK
6
CONTINUOUS
10
1.13515
20
0.399111
11
1.13686
21
0.392279
0
LINE
8
BLACK
6
CONTINUOUS
10
1.13686
20
0.392279
11
1.13838
21
0.389248
0
LINE
8
BLACK
6
CONTINUOUS
10
1.13838
20
0.389248
11
1.1413
21
0.38633
0
LINE
8
BLACK
6
CONTINUOUS
10
1.1413
20
0.38633
11
1.1458
21
0.384828
0
LINE
8
BLACK
6
CONTINUOUS
10
1.1458
20
0.384828
11
1.14859
21
0.384828
0
LINE
8
BLACK
6
CONTINUOUS
10
1.14859
20
0.384828
11
1.1531
21
0.38633
0
LINE
8
BLACK
6
CONTINUOUS
10
1.1531
20
0.38633
11
1.15448
21
0.387712
0
LINE
8
BLACK
6
CONTINUOUS
10
1.15448
20
0.387712
11
1.15533
21
0.3883
0
LINE
8
BLACK
6
CONTINUOUS
10
1.15533
20
0.3883
11
1.15734
21
0.388476
0
LINE
8
BLACK
6
CONTINUOUS
10
1.15734
20
0.388476
11
1.15899
21
0.387318
0
LINE
8
BLACK
6
CONTINUOUS
10
1.15899
20
0.387318
11
1.15951
21
0.385367
0
LINE
8
BLACK
6
CONTINUOUS
10
1.15951
20
0.385367
11
1.15866
21
0.383536
0
LINE
8
BLACK
6
CONTINUOUS
10
1.15866
20
0.383536
11
1.15679
21
0.381662
0
LINE
8
BLACK
6
CONTINUOUS
10
1.15679
20
0.381662
11
1.15595
21
0.381073
0
LINE
8
BLACK
6
CONTINUOUS
10
1.15595
20
0.381073
11
1.15577
21
0.381058
0
LINE
8
BLACK
6
CONTINUOUS
10
1.15577
20
0.381058
11
1.15563
21
0.380948
0
LINE
8
BLACK
6
CONTINUOUS
10
1.15563
20
0.380948
11
1.15001
21
0.379074
0
LINE
8
BLACK
6
CONTINUOUS
10
1.15001
20
0.379074
11
1.14913
21
0.378944
0
LINE
8
BLACK
6
CONTINUOUS
10
1.14913
20
0.378944
11
1.14907
21
0.378922
0
LINE
8
BLACK
6
CONTINUOUS
10
1.14907
20
0.378922
11
1.14532
21
0.378922
0
LINE
8
BLACK
6
CONTINUOUS
10
1.14532
20
0.378922
11
1.14445
21
0.379075
0
LINE
8
BLACK
6
CONTINUOUS
10
1.14445
20
0.379075
11
1.14439
21
0.379074
0
LINE
8
BLACK
6
CONTINUOUS
10
1.14439
20
0.379074
11
1.13877
21
0.380948
0
LINE
8
BLACK
6
CONTINUOUS
10
1.13877
20
0.380948
11
1.13786
21
0.381437
0
LINE
8
BLACK
6
CONTINUOUS
10
1.13786
20
0.381437
11
1.13777
21
0.381587
0
LINE
8
BLACK
6
CONTINUOUS
10
1.13777
20
0.381587
11
1.13761
21
0.381662
0
LINE
8
BLACK
6
CONTINUOUS
10
1.13761
20
0.381662
11
1.13386
21
0.385411
0
LINE
8
BLACK
6
CONTINUOUS
10
1.13386
20
0.385411
11
1.13336
21
0.386134
0
LINE
8
BLACK
6
CONTINUOUS
10
1.13336
20
0.386134
11
1.13331
21
0.386179
0
LINE
8
BLACK
6
CONTINUOUS
10
1.13331
20
0.386179
11
1.13143
21
0.389928
0
LINE
8
BLACK
6
CONTINUOUS
10
1.13143
20
0.389928
11
1.13129
21
0.390416
0
LINE
8
BLACK
6
CONTINUOUS
10
1.13129
20
0.390416
11
1.13121
21
0.390532
0
LINE
8
BLACK
6
CONTINUOUS
10
1.13121
20
0.390532
11
1.12934
21
0.398031
0
LINE
8
BLACK
6
CONTINUOUS
10
1.12934
20
0.398031
11
1.12929
21
0.398619
0
LINE
8
BLACK
6
CONTINUOUS
10
1.12929
20
0.398619
11
1.12925
21
0.398748
0
LINE
8
BLACK
6
CONTINUOUS
10
1.12925
20
0.398748
11
1.12925
21
0.404372
0
LINE
8
BLACK
6
CONTINUOUS
10
1.12925
20
0.404372
11
1.12935
21
0.404952
0
LINE
8
BLACK
6
CONTINUOUS
10
1.12935
20
0.404952
11
1.12934
21
0.405088
0
LINE
8
BLACK
6
CONTINUOUS
10
1.12934
20
0.405088
11
1.13121
21
0.412587
0
LINE
8
BLACK
6
CONTINUOUS
10
1.13121
20
0.412587
11
1.13142
21
0.413053
0
LINE
8
BLACK
6
CONTINUOUS
10
1.13142
20
0.413053
11
1.13143
21
0.413191
0
LINE
8
BLACK
6
CONTINUOUS
10
1.13143
20
0.413191
11
1.13331
21
0.416941
0
LINE
8
BLACK
6
CONTINUOUS
10
1.13331
20
0.416941
11
1.13384
21
0.41765
0
LINE
8
BLACK
6
CONTINUOUS
10
1.13384
20
0.41765
11
1.13386
21
0.417708
0
LINE
8
BLACK
6
CONTINUOUS
10
1.13386
20
0.417708
11
1.13761
21
0.421458
0
LINE
8
BLACK
6
CONTINUOUS
10
1.13761
20
0.421458
11
1.13845
21
0.422046
0
LINE
8
BLACK
6
CONTINUOUS
10
1.13845
20
0.422046
11
1.13863
21
0.422062
0
LINE
8
BLACK
6
CONTINUOUS
10
1.13863
20
0.422062
11
1.13877
21
0.422171
0
LINE
8
BLACK
6
CONTINUOUS
10
1.13877
20
0.422171
11
1.14439
21
0.424046
0
LINE
8
BLACK
6
CONTINUOUS
10
1.14439
20
0.424046
11
1.14526
21
0.424176
0
LINE
8
BLACK
6
CONTINUOUS
10
1.14526
20
0.424176
11
1.14532
21
0.424198
0
LINE
8
BLACK
6
CONTINUOUS
10
1.14532
20
0.424198
11
1.14907
21
0.424198
0
LINE
8
BLACK
6
CONTINUOUS
10
1.14907
20
0.424198
11
1.14994
21
0.424044
0
LINE
8
BLACK
6
CONTINUOUS
10
1.34824
20
0.42412
11
1.34837
21
0.424141
0
LINE
8
BLACK
6
CONTINUOUS
10
1.34837
20
0.424141
11
1.34848
21
0.424078
0
LINE
8
BLACK
6
CONTINUOUS
10
1.34848
20
0.424078
11
1.34881
21
0.42402
0
LINE
8
BLACK
6
CONTINUOUS
10
1.34881
20
0.42402
11
1.34942
21
0.423508
0
LINE
8
BLACK
6
CONTINUOUS
10
1.34942
20
0.423508
11
1.3501
21
0.423096
0
LINE
8
BLACK
6
CONTINUOUS
10
1.3501
20
0.423096
11
1.35018
21
0.422873
0
LINE
8
BLACK
6
CONTINUOUS
10
1.35018
20
0.422873
11
1.35036
21
0.422721
0
LINE
8
BLACK
6
CONTINUOUS
10
1.35036
20
0.422721
11
1.35049
21
0.421937
0
LINE
8
BLACK
6
CONTINUOUS
10
1.35049
20
0.421937
11
1.35075
21
0.421184
0
LINE
8
BLACK
6
CONTINUOUS
10
1.35075
20
0.421184
11
1.35067
21
0.420964
0
LINE
8
BLACK
6
CONTINUOUS
10
1.35067
20
0.420964
11
1.35071
21
0.420732
0
LINE
8
BLACK
6
CONTINUOUS
10
1.35071
20
0.420732
11
1.35031
21
0.420043
0
LINE
8
BLACK
6
CONTINUOUS
10
1.35031
20
0.420043
11
1.35002
21
0.4193
0
LINE
8
BLACK
6
CONTINUOUS
10
1.35002
20
0.4193
11
1.34106
21
0.409065
0
LINE
8
BLACK
6
CONTINUOUS
10
1.34106
20
0.409065
11
1.34131
21
0.409021
0
LINE
8
BLACK
6
CONTINUOUS
10
1.34131
20
0.409021
11
1.34145
21
0.408908
0
LINE
8
BLACK
6
CONTINUOUS
10
1.34145
20
0.408908
11
1.34162
21
0.408888
0
LINE
8
BLACK
6
CONTINUOUS
10
1.34162
20
0.408888
11
1.34537
21
0.407013
0
LINE
8
BLACK
6
CONTINUOUS
10
1.34537
20
0.407013
11
1.34608
21
0.406487
0
LINE
8
BLACK
6
CONTINUOUS
10
1.34608
20
0.406487
11
1.34614
21
0.40646
0
LINE
8
BLACK
6
CONTINUOUS
10
1.34614
20
0.40646
11
1.34801
21
0.404585
0
LINE
8
BLACK
6
CONTINUOUS
10
1.34801
20
0.404585
11
1.34852
21
0.403862
0
LINE
8
BLACK
6
CONTINUOUS
10
1.34852
20
0.403862
11
1.34857
21
0.403818
0
LINE
8
BLACK
6
CONTINUOUS
10
1.34857
20
0.403818
11
1.35044
21
0.400068
0
LINE
8
BLACK
6
CONTINUOUS
10
1.35044
20
0.400068
11
1.35073
21
0.399085
0
LINE
8
BLACK
6
CONTINUOUS
10
1.35073
20
0.399085
11
1.35069
21
0.398914
0
LINE
8
BLACK
6
CONTINUOUS
10
1.35069
20
0.398914
11
1.35075
21
0.398748
0
LINE
8
BLACK
6
CONTINUOUS
10
1.35075
20
0.398748
11
1.35075
21
0.389374
0
LINE
8
BLACK
6
CONTINUOUS
10
1.35075
20
0.389374
11
1.35057
21
0.388364
0
LINE
8
BLACK
6
CONTINUOUS
10
1.35057
20
0.388364
11
1.35046
21
0.388229
0
LINE
8
BLACK
6
CONTINUOUS
10
1.35046
20
0.388229
11
1.35044
21
0.388053
0
LINE
8
BLACK
6
CONTINUOUS
10
1.35044
20
0.388053
11
1.34857
21
0.384304
0
LINE
8
BLACK
6
CONTINUOUS
10
1.34857
20
0.384304
11
1.34804
21
0.383595
0
LINE
8
BLACK
6
CONTINUOUS
10
1.34804
20
0.383595
11
1.34801
21
0.383536
0
LINE
8
BLACK
6
CONTINUOUS
10
1.34801
20
0.383536
11
1.34614
21
0.381662
0
LINE
8
BLACK
6
CONTINUOUS
10
1.34614
20
0.381662
11
1.34541
21
0.381155
0
LINE
8
BLACK
6
CONTINUOUS
10
1.34541
20
0.381155
11
1.34537
21
0.381109
0
LINE
8
BLACK
6
CONTINUOUS
10
1.34537
20
0.381109
11
1.34162
21
0.379234
0
LINE
8
BLACK
6
CONTINUOUS
10
1.34162
20
0.379234
11
1.34064
21
0.378941
0
LINE
8
BLACK
6
CONTINUOUS
10
1.34064
20
0.378941
11
1.34047
21
0.378982
0
LINE
8
BLACK
6
CONTINUOUS
10
1.34047
20
0.378982
11
1.3403
21
0.378922
0
LINE
8
BLACK
6
CONTINUOUS
10
1.3403
20
0.378922
11
1.32905
21
0.378922
0
LINE
8
BLACK
6
CONTINUOUS
10
1.32905
20
0.378922
11
1.32804
21
0.3791
0
LINE
8
BLACK
6
CONTINUOUS
10
1.32804
20
0.3791
11
1.32791
21
0.379214
0
LINE
8
BLACK
6
CONTINUOUS
10
1.32791
20
0.379214
11
1.32773
21
0.379234
0
LINE
8
BLACK
6
CONTINUOUS
10
1.32773
20
0.379234
11
1.32398
21
0.381109
0
LINE
8
BLACK
6
CONTINUOUS
10
1.32398
20
0.381109
11
1.32327
21
0.381634
0
LINE
8
BLACK
6
CONTINUOUS
10
1.32327
20
0.381634
11
1.32321
21
0.381662
0
LINE
8
BLACK
6
CONTINUOUS
10
1.32321
20
0.381662
11
1.32134
21
0.383536
0
LINE
8
BLACK
6
CONTINUOUS
10
1.32134
20
0.383536
11
1.32075
21
0.384376
0
LINE
8
BLACK
6
CONTINUOUS
10
1.32075
20
0.384376
11
1.32057
21
0.386389
0
LINE
8
BLACK
6
CONTINUOUS
10
1.32057
20
0.386389
11
1.32173
21
0.388043
0
LINE
8
BLACK
6
CONTINUOUS
10
1.32173
20
0.388043
11
1.32368
21
0.388566
0
LINE
8
BLACK
6
CONTINUOUS
10
1.32368
20
0.388566
11
1.32551
21
0.387712
0
LINE
8
BLACK
6
CONTINUOUS
10
1.32551
20
0.387712
11
1.32705
21
0.386176
0
LINE
8
BLACK
6
CONTINUOUS
10
1.32705
20
0.386176
11
1.32975
21
0.384828
0
LINE
8
BLACK
6
CONTINUOUS
10
1.32975
20
0.384828
11
1.3396
21
0.384828
0
LINE
8
BLACK
6
CONTINUOUS
10
1.3396
20
0.384828
11
1.3423
21
0.386176
0
LINE
8
BLACK
6
CONTINUOUS
10
1.3423
20
0.386176
11
1.3435
21
0.387373
0
LINE
8
BLACK
6
CONTINUOUS
10
1.3435
20
0.387373
11
1.34485
21
0.390071
0
LINE
8
BLACK
6
CONTINUOUS
10
1.34485
20
0.390071
11
1.34485
21
0.398051
0
LINE
8
BLACK
6
CONTINUOUS
10
1.34485
20
0.398051
11
1.3435
21
0.400748
0
LINE
8
BLACK
6
CONTINUOUS
10
1.3435
20
0.400748
11
1.3423
21
0.401945
0
LINE
8
BLACK
6
CONTINUOUS
10
1.3423
20
0.401945
11
1.3396
21
0.403294
0
LINE
8
BLACK
6
CONTINUOUS
10
1.3396
20
0.403294
11
1.33468
21
0.403294
0
LINE
8
BLACK
6
CONTINUOUS
10
1.33468
20
0.403294
11
1.33424
21
0.403371
0
LINE
8
BLACK
6
CONTINUOUS
10
1.33424
20
0.403371
11
1.3341
21
0.40335
0
LINE
8
BLACK
6
CONTINUOUS
10
1.3341
20
0.40335
11
1.334
21
0.403413
0
LINE
8
BLACK
6
CONTINUOUS
10
1.334
20
0.403413
11
1.33367
21
0.403472
0
LINE
8
BLACK
6
CONTINUOUS
10
1.33367
20
0.403472
11
1.33306
21
0.403984
0
LINE
8
BLACK
6
CONTINUOUS
10
1.33306
20
0.403984
11
1.33237
21
0.404396
0
LINE
8
BLACK
6
CONTINUOUS
10
1.33237
20
0.404396
11
1.3323
21
0.404619
0
LINE
8
BLACK
6
CONTINUOUS
10
1.3323
20
0.404619
11
1.33212
21
0.40477
0
LINE
8
BLACK
6
CONTINUOUS
10
1.33212
20
0.40477
11
1.33198
21
0.405554
0
LINE
8
BLACK
6
CONTINUOUS
10
1.33198
20
0.405554
11
1.33172
21
0.406308
0
LINE
8
BLACK
6
CONTINUOUS
10
1.33172
20
0.406308
11
1.33181
21
0.406527
0
LINE
8
BLACK
6
CONTINUOUS
10
1.33181
20
0.406527
11
1.33177
21
0.406759
0
LINE
8
BLACK
6
CONTINUOUS
10
1.33177
20
0.406759
11
1.33217
21
0.407449
0
LINE
8
BLACK
6
CONTINUOUS
10
1.33217
20
0.407449
11
1.33245
21
0.408191
0
LINE
8
BLACK
6
CONTINUOUS
10
1.33245
20
0.408191
11
1.34129
21
0.418292
0
LINE
8
BLACK
6
CONTINUOUS
10
1.34129
20
0.418292
11
1.32343
21
0.418292
0
LINE
8
BLACK
6
CONTINUOUS
10
1.32343
20
0.418292
11
1.32242
21
0.41847
0
LINE
8
BLACK
6
CONTINUOUS
10
1.32242
20
0.41847
11
1.32087
21
0.419768
0
LINE
8
BLACK
6
CONTINUOUS
10
1.32087
20
0.419768
11
1.32052
21
0.421758
0
LINE
8
BLACK
6
CONTINUOUS
10
1.32052
20
0.421758
11
1.32153
21
0.423507
0
LINE
8
BLACK
6
CONTINUOUS
10
1.32153
20
0.423507
11
1.32343
21
0.424198
0
LINE
8
BLACK
6
CONTINUOUS
10
1.32343
20
0.424198
11
1.3478
21
0.424198
0
LINE
8
BLACK
6
CONTINUOUS
10
1.3478
20
0.424198
11
1.34824
21
0.42412
0
LINE
8
BLACK
6
CONTINUOUS
10
1.18945
20
0.42402
11
1.18959
21
0.423906
0
LINE
8
BLACK
6
CONTINUOUS
10
1.18959
20
0.423906
11
1.18976
21
0.423886
0
LINE
8
BLACK
6
CONTINUOUS
10
1.18976
20
0.423886
11
1.19351
21
0.422011
0
LINE
8
BLACK
6
CONTINUOUS
10
1.19351
20
0.422011
11
1.19422
21
0.421485
0
LINE
8
BLACK
6
CONTINUOUS
10
1.19422
20
0.421485
11
1.19428
21
0.421458
0
LINE
8
BLACK
6
CONTINUOUS
10
1.19428
20
0.421458
11
1.19803
21
0.417708
0
LINE
8
BLACK
6
CONTINUOUS
10
1.19803
20
0.417708
11
1.19862
21
0.416868
0
LINE
8
BLACK
6
CONTINUOUS
10
1.19862
20
0.416868
11
1.19864
21
0.416578
0
LINE
8
BLACK
6
CONTINUOUS
10
1.19864
20
0.416578
11
1.19881
21
0.416337
0
LINE
8
BLACK
6
CONTINUOUS
10
1.19881
20
0.416337
11
1.20068
21
0.408838
0
LINE
8
BLACK
6
CONTINUOUS
10
1.20068
20
0.408838
11
1.20072
21
0.40825
0
LINE
8
BLACK
6
CONTINUOUS
10
1.20072
20
0.40825
11
1.20077
21
0.408121
0
LINE
8
BLACK
6
CONTINUOUS
10
1.20077
20
0.408121
11
1.20077
21
0.394998
0
LINE
8
BLACK
6
CONTINUOUS
10
1.20077
20
0.394998
11
1.20067
21
0.394418
0
LINE
8
BLACK
6
CONTINUOUS
10
1.20067
20
0.394418
11
1.20068
21
0.394282
0
LINE
8
BLACK
6
CONTINUOUS
10
1.20068
20
0.394282
11
1.19881
21
0.386783
0
LINE
8
BLACK
6
CONTINUOUS
10
1.19881
20
0.386783
11
1.19839
21
0.385846
0
LINE
8
BLACK
6
CONTINUOUS
10
1.19839
20
0.385846
11
1.19815
21
0.385675
0
LINE
8
BLACK
6
CONTINUOUS
10
1.19815
20
0.385675
11
1.19803
21
0.385411
0
LINE
8
BLACK
6
CONTINUOUS
10
1.19803
20
0.385411
11
1.19428
21
0.381662
0
LINE
8
BLACK
6
CONTINUOUS
10
1.19428
20
0.381662
11
1.19356
21
0.381155
0
LINE
8
BLACK
6
CONTINUOUS
10
1.19356
20
0.381155
11
1.19351
21
0.381109
0
LINE
8
BLACK
6
CONTINUOUS
10
1.19351
20
0.381109
11
1.18976
21
0.379234
0
LINE
8
BLACK
6
CONTINUOUS
10
1.18976
20
0.379234
11
1.18878
21
0.378941
0
LINE
8
BLACK
6
CONTINUOUS
10
1.18878
20
0.378941
11
1.18861
21
0.378982
0
LINE
8
BLACK
6
CONTINUOUS
10
1.18861
20
0.378982
11
1.18844
21
0.378922
0
LINE
8
BLACK
6
CONTINUOUS
10
1.18844
20
0.378922
11
1.18094
21
0.378922
0
LINE
8
BLACK
6
CONTINUOUS
10
1.18094
20
0.378922
11
1.17993
21
0.3791
0
LINE
8
BLACK
6
CONTINUOUS
10
1.17993
20
0.3791
11
1.1798
21
0.379214
0
LINE
8
BLACK
6
CONTINUOUS
10
1.1798
20
0.379214
11
1.17962
21
0.379234
0
LINE
8
BLACK
6
CONTINUOUS
10
1.17962
20
0.379234
11
1.17587
21
0.381109
0
LINE
8
BLACK
6
CONTINUOUS
10
1.17587
20
0.381109
11
1.17517
21
0.381634
0
LINE
8
BLACK
6
CONTINUOUS
10
1.17517
20
0.381634
11
1.17511
21
0.381662
0
LINE
8
BLACK
6
CONTINUOUS
10
1.17511
20
0.381662
11
1.17136
21
0.385411
0
LINE
8
BLACK
6
CONTINUOUS
10
1.17136
20
0.385411
11
1.17077
21
0.386251
0
LINE
8
BLACK
6
CONTINUOUS
10
1.17077
20
0.386251
11
1.17074
21
0.386541
0
LINE
8
BLACK
6
CONTINUOUS
10
1.17074
20
0.386541
11
1.17058
21
0.386783
0
LINE
8
BLACK
6
CONTINUOUS
10
1.17058
20
0.386783
11
1.16871
21
0.394282
0
LINE
8
BLACK
6
CONTINUOUS
10
1.16871
20
0.394282
11
1.16866
21
0.39487
0
LINE
8
BLACK
6
CONTINUOUS
10
1.16866
20
0.39487
11
1.16862
21
0.394998
0
LINE
8
BLACK
6
CONTINUOUS
10
1.16862
20
0.394998
11
1.16862
21
0.408121
0
LINE
8
BLACK
6
CONTINUOUS
10
1.16862
20
0.408121
11
1.16872
21
0.408702
0
LINE
8
BLACK
6
CONTINUOUS
10
1.16872
20
0.408702
11
1.16871
21
0.408838
0
LINE
8
BLACK
6
CONTINUOUS
10
1.16871
20
0.408838
11
1.17058
21
0.416337
0
LINE
8
BLACK
6
CONTINUOUS
10
1.17058
20
0.416337
11
1.171
21
0.417273
0
LINE
8
BLACK
6
CONTINUOUS
10
1.171
20
0.417273
11
1.17123
21
0.417444
0
LINE
8
BLACK
6
CONTINUOUS
10
1.17123
20
0.417444
11
1.17136
21
0.417708
0
LINE
8
BLACK
6
CONTINUOUS
10
1.17136
20
0.417708
11
1.17511
21
0.421458
0
LINE
8
BLACK
6
CONTINUOUS
10
1.17511
20
0.421458
11
1.17583
21
0.421964
0
LINE
8
BLACK
6
CONTINUOUS
10
1.17583
20
0.421964
11
1.17587
21
0.422011
0
LINE
8
BLACK
6
CONTINUOUS
10
1.17587
20
0.422011
11
1.17962
21
0.423886
0
LINE
8
BLACK
6
CONTINUOUS
10
1.17962
20
0.423886
11
1.18061
21
0.424178
0
LINE
8
BLACK
6
CONTINUOUS
10
1.18061
20
0.424178
11
1.18078
21
0.424137
0
LINE
8
BLACK
6
CONTINUOUS
10
1.18078
20
0.424137
11
1.18094
21
0.424198
0
LINE
8
BLACK
6
CONTINUOUS
10
1.18094
20
0.424198
11
1.18844
21
0.424198
0
LINE
8
BLACK
6
CONTINUOUS
10
1.18844
20
0.424198
11
1.18945
21
0.42402
0
LINE
8
BLACK
6
CONTINUOUS
10
1.18164
20
0.418292
11
1.17894
21
0.416943
0
LINE
8
BLACK
6
CONTINUOUS
10
1.17894
20
0.416943
11
1.17611
21
0.414111
0
LINE
8
BLACK
6
CONTINUOUS
10
1.17611
20
0.414111
11
1.17452
21
0.407758
0
LINE
8
BLACK
6
CONTINUOUS
10
1.17452
20
0.407758
11
1.17452
21
0.395362
0
LINE
8
BLACK
6
CONTINUOUS
10
1.17452
20
0.395362
11
1.17611
21
0.389009
0
LINE
8
BLACK
6
CONTINUOUS
10
1.17611
20
0.389009
11
1.17894
21
0.386176
0
LINE
8
BLACK
6
CONTINUOUS
10
1.17894
20
0.386176
11
1.18164
21
0.384828
0
LINE
8
BLACK
6
CONTINUOUS
10
1.18164
20
0.384828
11
1.18775
21
0.384828
0
LINE
8
BLACK
6
CONTINUOUS
10
1.18775
20
0.384828
11
1.19044
21
0.386176
0
LINE
8
BLACK
6
CONTINUOUS
10
1.19044
20
0.386176
11
1.19328
21
0.389009
0
LINE
8
BLACK
6
CONTINUOUS
10
1.19328
20
0.389009
11
1.19487
21
0.395362
0
LINE
8
BLACK
6
CONTINUOUS
10
1.19487
20
0.395362
11
1.19487
21
0.407758
0
LINE
8
BLACK
6
CONTINUOUS
10
1.19487
20
0.407758
11
1.19328
21
0.414111
0
LINE
8
BLACK
6
CONTINUOUS
10
1.19328
20
0.414111
11
1.19044
21
0.416943
0
LINE
8
BLACK
6
CONTINUOUS
10
1.19044
20
0.416943
11
1.18775
21
0.418292
0
LINE
8
BLACK
6
CONTINUOUS
10
1.18775
20
0.418292
11
1.18164
21
0.418292
0
LINE
8
BLACK
6
CONTINUOUS
10
1.23945
20
0.423143
11
1.24014
21
0.421245
0
LINE
8
BLACK
6
CONTINUOUS
10
1.24014
20
0.421245
11
1.24014
21
0.381875
0
LINE
8
BLACK
6
CONTINUOUS
10
1.24014
20
0.381875
11
1.23996
21
0.380865
0
LINE
8
BLACK
6
CONTINUOUS
10
1.23996
20
0.380865
11
1.23979
21
0.380656
0
LINE
8
BLACK
6
CONTINUOUS
10
1.23979
20
0.380656
11
1.23974
21
0.380387
0
LINE
8
BLACK
6
CONTINUOUS
10
1.23974
20
0.380387
11
1.23915
21
0.379901
0
LINE
8
BLACK
6
CONTINUOUS
10
1.23915
20
0.379901
11
1.23866
21
0.379318
0
LINE
8
BLACK
6
CONTINUOUS
10
1.23866
20
0.379318
11
1.2384
21
0.37927
0
LINE
8
BLACK
6
CONTINUOUS
10
1.2384
20
0.37927
11
1.23819
21
0.379096
0
LINE
8
BLACK
6
CONTINUOUS
10
1.23819
20
0.379096
11
1.23742
21
0.379099
0
LINE
8
BLACK
6
CONTINUOUS
10
1.23742
20
0.379099
11
1.23668
21
0.378967
0
LINE
8
BLACK
6
CONTINUOUS
10
1.23668
20
0.378967
11
1.23644
21
0.379103
0
LINE
8
BLACK
6
CONTINUOUS
10
1.23644
20
0.379103
11
1.23617
21
0.379105
0
LINE
8
BLACK
6
CONTINUOUS
10
1.23617
20
0.379105
11
1.23558
21
0.379596
0
LINE
8
BLACK
6
CONTINUOUS
10
1.23558
20
0.379596
11
1.23493
21
0.379977
0
LINE
8
BLACK
6
CONTINUOUS
10
1.23493
20
0.379977
11
1.23483
21
0.380233
0
LINE
8
BLACK
6
CONTINUOUS
10
1.23483
20
0.380233
11
1.23462
21
0.38041
0
LINE
8
BLACK
6
CONTINUOUS
10
1.23462
20
0.38041
11
1.21764
21
0.410126
0
LINE
8
BLACK
6
CONTINUOUS
10
1.21764
20
0.410126
11
1.21764
21
0.381875
0
LINE
8
BLACK
6
CONTINUOUS
10
1.21764
20
0.381875
11
1.21747
21
0.380865
0
LINE
8
BLACK
6
CONTINUOUS
10
1.21747
20
0.380865
11
1.21617
21
0.379318
0
LINE
8
BLACK
6
CONTINUOUS
10
1.21617
20
0.379318
11
1.21418
21
0.378967
0
LINE
8
BLACK
6
CONTINUOUS
10
1.21418
20
0.378967
11
1.21243
21
0.379977
0
LINE
8
BLACK
6
CONTINUOUS
10
1.21243
20
0.379977
11
1.21174
21
0.381875
0
LINE
8
BLACK
6
CONTINUOUS
10
1.21174
20
0.381875
11
1.21174
21
0.421245
0
LINE
8
BLACK
6
CONTINUOUS
10
1.21174
20
0.421245
11
1.21192
21
0.422255
0
LINE
8
BLACK
6
CONTINUOUS
10
1.21192
20
0.422255
11
1.21209
21
0.422464
0
LINE
8
BLACK
6
CONTINUOUS
10
1.21209
20
0.422464
11
1.21214
21
0.422733
0
LINE
8
BLACK
6
CONTINUOUS
10
1.21214
20
0.422733
11
1.21273
21
0.423219
0
LINE
8
BLACK
6
CONTINUOUS
10
1.21273
20
0.423219
11
1.21321
21
0.423802
0
LINE
8
BLACK
6
CONTINUOUS
10
1.21321
20
0.423802
11
1.21348
21
0.423849
0
LINE
8
BLACK
6
CONTINUOUS
10
1.21348
20
0.423849
11
1.21369
21
0.424024
0
LINE
8
BLACK
6
CONTINUOUS
10
1.21369
20
0.424024
11
1.21445
21
0.424021
0
LINE
8
BLACK
6
CONTINUOUS
10
1.21445
20
0.424021
11
1.2152
21
0.424153
0
LINE
8
BLACK
6
CONTINUOUS
10
1.2152
20
0.424153
11
1.21544
21
0.424016
0
LINE
8
BLACK
6
CONTINUOUS
10
1.21544
20
0.424016
11
1.21571
21
0.424015
0
LINE
8
BLACK
6
CONTINUOUS
10
1.21571
20
0.424015
11
1.21629
21
0.423523
0
LINE
8
BLACK
6
CONTINUOUS
10
1.21629
20
0.423523
11
1.21695
21
0.423143
0
LINE
8
BLACK
6
CONTINUOUS
10
1.21695
20
0.423143
11
1.21705
21
0.422886
0
LINE
8
BLACK
6
CONTINUOUS
10
1.21705
20
0.422886
11
1.21725
21
0.42271
0
LINE
8
BLACK
6
CONTINUOUS
10
1.21725
20
0.42271
11
1.23424
21
0.392994
0
LINE
8
BLACK
6
CONTINUOUS
10
1.23424
20
0.392994
11
1.23424
21
0.421245
0
LINE
8
BLACK
6
CONTINUOUS
10
1.23424
20
0.421245
11
1.23441
21
0.422255
0
LINE
8
BLACK
6
CONTINUOUS
10
1.23441
20
0.422255
11
1.23571
21
0.423802
0
LINE
8
BLACK
6
CONTINUOUS
10
1.23571
20
0.423802
11
1.2377
21
0.424153
0
LINE
8
BLACK
6
CONTINUOUS
10
1.2377
20
0.424153
11
1.23945
21
0.423143
0
LINE
8
BLACK
6
CONTINUOUS
10
1.28069
20
0.423143
11
1.28139
21
0.421245
0
LINE
8
BLACK
6
CONTINUOUS
10
1.28139
20
0.421245
11
1.28139
21
0.381875
0
LINE
8
BLACK
6
CONTINUOUS
10
1.28139
20
0.381875
11
1.28121
21
0.380865
0
LINE
8
BLACK
6
CONTINUOUS
10
1.28121
20
0.380865
11
1.28103
21
0.380656
0
LINE
8
BLACK
6
CONTINUOUS
10
1.28103
20
0.380656
11
1.28098
21
0.380387
0
LINE
8
BLACK
6
CONTINUOUS
10
1.28098
20
0.380387
11
1.2804
21
0.379901
0
LINE
8
BLACK
6
CONTINUOUS
10
1.2804
20
0.379901
11
1.27991
21
0.379318
0
LINE
8
BLACK
6
CONTINUOUS
10
1.27991
20
0.379318
11
1.27964
21
0.37927
0
LINE
8
BLACK
6
CONTINUOUS
10
1.27964
20
0.37927
11
1.27943
21
0.379096
0
LINE
8
BLACK
6
CONTINUOUS
10
1.27943
20
0.379096
11
1.27867
21
0.379099
0
LINE
8
BLACK
6
CONTINUOUS
10
1.27867
20
0.379099
11
1.27792
21
0.378967
0
LINE
8
BLACK
6
CONTINUOUS
10
1.27792
20
0.378967
11
1.27768
21
0.379103
0
LINE
8
BLACK
6
CONTINUOUS
10
1.27768
20
0.379103
11
1.27741
21
0.379105
0
LINE
8
BLACK
6
CONTINUOUS
10
1.27741
20
0.379105
11
1.27683
21
0.379596
0
LINE
8
BLACK
6
CONTINUOUS
10
1.27683
20
0.379596
11
1.27617
21
0.379977
0
LINE
8
BLACK
6
CONTINUOUS
10
1.27617
20
0.379977
11
1.27608
21
0.380233
0
LINE
8
BLACK
6
CONTINUOUS
10
1.27608
20
0.380233
11
1.27587
21
0.38041
0
LINE
8
BLACK
6
CONTINUOUS
10
1.27587
20
0.38041
11
1.25889
21
0.410126
0
LINE
8
BLACK
6
CONTINUOUS
10
1.25889
20
0.410126
11
1.25889
21
0.381875
0
LINE
8
BLACK
6
CONTINUOUS
10
1.25889
20
0.381875
11
1.25871
21
0.380865
0
LINE
8
BLACK
6
CONTINUOUS
10
1.25871
20
0.380865
11
1.25741
21
0.379318
0
LINE
8
BLACK
6
CONTINUOUS
10
1.25741
20
0.379318
11
1.25542
21
0.378967
0
LINE
8
BLACK
6
CONTINUOUS
10
1.25542
20
0.378967
11
1.25367
21
0.379977
0
LINE
8
BLACK
6
CONTINUOUS
10
1.25367
20
0.379977
11
1.25298
21
0.381875
0
LINE
8
BLACK
6
CONTINUOUS
10
1.25298
20
0.381875
11
1.25298
21
0.421245
0
LINE
8
BLACK
6
CONTINUOUS
10
1.25298
20
0.421245
11
1.25316
21
0.422255
0
LINE
8
BLACK
6
CONTINUOUS
10
1.25316
20
0.422255
11
1.25334
21
0.422464
0
LINE
8
BLACK
6
CONTINUOUS
10
1.25334
20
0.422464
11
1.25338
21
0.422733
0
LINE
8
BLACK
6
CONTINUOUS
10
1.25338
20
0.422733
11
1.25397
21
0.423219
0
LINE
8
BLACK
6
CONTINUOUS
10
1.25397
20
0.423219
11
1.25446
21
0.423802
0
LINE
8
BLACK
6
CONTINUOUS
10
1.25446
20
0.423802
11
1.25473
21
0.423849
0
LINE
8
BLACK
6
CONTINUOUS
10
1.25473
20
0.423849
11
1.25494
21
0.424024
0
LINE
8
BLACK
6
CONTINUOUS
10
1.25494
20
0.424024
11
1.2557
21
0.424021
0
LINE
8
BLACK
6
CONTINUOUS
10
1.2557
20
0.424021
11
1.25645
21
0.424153
0
LINE
8
BLACK
6
CONTINUOUS
10
1.25645
20
0.424153
11
1.25668
21
0.424016
0
LINE
8
BLACK
6
CONTINUOUS
10
1.25668
20
0.424016
11
1.25696
21
0.424015
0
LINE
8
BLACK
6
CONTINUOUS
10
1.25696
20
0.424015
11
1.25754
21
0.423523
0
LINE
8
BLACK
6
CONTINUOUS
10
1.25754
20
0.423523
11
1.2582
21
0.423143
0
LINE
8
BLACK
6
CONTINUOUS
10
1.2582
20
0.423143
11
1.25829
21
0.422886
0
LINE
8
BLACK
6
CONTINUOUS
10
1.25829
20
0.422886
11
1.2585
21
0.42271
0
LINE
8
BLACK
6
CONTINUOUS
10
1.2585
20
0.42271
11
1.27548
21
0.392994
0
LINE
8
BLACK
6
CONTINUOUS
10
1.27548
20
0.392994
11
1.27548
21
0.421245
0
LINE
8
BLACK
6
CONTINUOUS
10
1.27548
20
0.421245
11
1.27566
21
0.422255
0
LINE
8
BLACK
6
CONTINUOUS
10
1.27566
20
0.422255
11
1.27696
21
0.423802
0
LINE
8
BLACK
6
CONTINUOUS
10
1.27696
20
0.423802
11
1.27895
21
0.424153
0
LINE
8
BLACK
6
CONTINUOUS
10
1.27895
20
0.424153
11
1.28069
21
0.423143
0
LINE
8
BLACK
6
CONTINUOUS
10
1.55583
20
0.418661
11
1.55771
21
0.416786
0
LINE
8
BLACK
6
CONTINUOUS
10
1.55771
20
0.416786
11
1.5583
21
0.415946
0
LINE
8
BLACK
6
CONTINUOUS
10
1.5583
20
0.415946
11
1.55831
21
0.41577
0
LINE
8
BLACK
6
CONTINUOUS
10
1.55831
20
0.41577
11
1.55842
21
0.415632
0
LINE
8
BLACK
6
CONTINUOUS
10
1.55842
20
0.415632
11
1.5603
21
0.410008
0
LINE
8
BLACK
6
CONTINUOUS
10
1.5603
20
0.410008
11
1.56043
21
0.409134
0
LINE
8
BLACK
6
CONTINUOUS
10
1.56043
20
0.409134
11
1.56045
21
0.409074
0
LINE
8
BLACK
6
CONTINUOUS
10
1.56045
20
0.409074
11
1.56045
21
0.405324
0
LINE
8
BLACK
6
CONTINUOUS
10
1.56045
20
0.405324
11
1.56029
21
0.404455
0
LINE
8
BLACK
6
CONTINUOUS
10
1.56029
20
0.404455
11
1.5603
21
0.404391
0
LINE
8
BLACK
6
CONTINUOUS
10
1.5603
20
0.404391
11
1.55842
21
0.398766
0
LINE
8
BLACK
6
CONTINUOUS
10
1.55842
20
0.398766
11
1.55793
21
0.397864
0
LINE
8
BLACK
6
CONTINUOUS
10
1.55793
20
0.397864
11
1.55778
21
0.397772
0
LINE
8
BLACK
6
CONTINUOUS
10
1.55778
20
0.397772
11
1.55771
21
0.397612
0
LINE
8
BLACK
6
CONTINUOUS
10
1.55771
20
0.397612
11
1.55396
21
0.393863
0
LINE
8
BLACK
6
CONTINUOUS
10
1.55396
20
0.393863
11
1.55324
21
0.393356
0
LINE
8
BLACK
6
CONTINUOUS
10
1.55324
20
0.393356
11
1.55319
21
0.393309
0
LINE
8
BLACK
6
CONTINUOUS
10
1.55319
20
0.393309
11
1.54944
21
0.391435
0
LINE
8
BLACK
6
CONTINUOUS
10
1.54944
20
0.391435
11
1.54895
21
0.391289
0
LINE
8
BLACK
6
CONTINUOUS
10
1.54895
20
0.391289
11
1.54884
21
0.391211
0
LINE
8
BLACK
6
CONTINUOUS
10
1.54884
20
0.391211
11
1.54134
21
0.389336
0
LINE
8
BLACK
6
CONTINUOUS
10
1.54134
20
0.389336
11
1.54075
21
0.389295
0
LINE
8
BLACK
6
CONTINUOUS
10
1.54075
20
0.389295
11
1.54062
21
0.389248
0
LINE
8
BLACK
6
CONTINUOUS
10
1.54062
20
0.389248
11
1.535
21
0.389248
0
LINE
8
BLACK
6
CONTINUOUS
10
1.535
20
0.389248
11
1.53442
21
0.389351
0
LINE
8
BLACK
6
CONTINUOUS
10
1.53442
20
0.389351
11
1.53428
21
0.389336
0
LINE
8
BLACK
6
CONTINUOUS
10
1.53428
20
0.389336
11
1.52678
21
0.391211
0
LINE
8
BLACK
6
CONTINUOUS
10
1.52678
20
0.391211
11
1.52632
21
0.391419
0
LINE
8
BLACK
6
CONTINUOUS
10
1.52632
20
0.391419
11
1.52618
21
0.391435
0
LINE
8
BLACK
6
CONTINUOUS
10
1.52618
20
0.391435
11
1.52243
21
0.393309
0
LINE
8
BLACK
6
CONTINUOUS
10
1.52243
20
0.393309
11
1.52172
21
0.393835
0
LINE
8
BLACK
6
CONTINUOUS
10
1.52172
20
0.393835
11
1.52166
21
0.393863
0
LINE
8
BLACK
6
CONTINUOUS
10
1.52166
20
0.393863
11
1.51791
21
0.397612
0
LINE
8
BLACK
6
CONTINUOUS
10
1.51791
20
0.397612
11
1.51732
21
0.398452
0
LINE
8
BLACK
6
CONTINUOUS
10
1.51732
20
0.398452
11
1.51731
21
0.398628
0
LINE
8
BLACK
6
CONTINUOUS
10
1.51731
20
0.398628
11
1.5172
21
0.398766
0
LINE
8
BLACK
6
CONTINUOUS
10
1.5172
20
0.398766
11
1.51532
21
0.404391
0
LINE
8
BLACK
6
CONTINUOUS
10
1.51532
20
0.404391
11
1.51519
21
0.405264
0
LINE
8
BLACK
6
CONTINUOUS
10
1.51519
20
0.405264
11
1.51517
21
0.405324
0
LINE
8
BLACK
6
CONTINUOUS
10
1.51517
20
0.405324
11
1.51517
21
0.409074
0
LINE
8
BLACK
6
CONTINUOUS
10
1.51517
20
0.409074
11
1.51533
21
0.409943
0
LINE
8
BLACK
6
CONTINUOUS
10
1.51533
20
0.409943
11
1.51532
21
0.410008
0
LINE
8
BLACK
6
CONTINUOUS
10
1.51532
20
0.410008
11
1.5172
21
0.415632
0
LINE
8
BLACK
6
CONTINUOUS
10
1.5172
20
0.415632
11
1.51769
21
0.416534
0
LINE
8
BLACK
6
CONTINUOUS
10
1.51769
20
0.416534
11
1.51784
21
0.416626
0
LINE
8
BLACK
6
CONTINUOUS
10
1.51784
20
0.416626
11
1.51791
21
0.416786
0
LINE
8
BLACK
6
CONTINUOUS
10
1.51791
20
0.416786
11
1.51979
21
0.418661
0
LINE
8
BLACK
6
CONTINUOUS
10
1.51979
20
0.418661
11
1.52063
21
0.419249
0
LINE
8
BLACK
6
CONTINUOUS
10
1.52063
20
0.419249
11
1.52264
21
0.419425
0
LINE
8
BLACK
6
CONTINUOUS
10
1.52264
20
0.419425
11
1.52429
21
0.418267
0
LINE
8
BLACK
6
CONTINUOUS
10
1.52429
20
0.418267
11
1.52482
21
0.416316
0
LINE
8
BLACK
6
CONTINUOUS
10
1.52482
20
0.416316
11
1.52396
21
0.414485
0
LINE
8
BLACK
6
CONTINUOUS
10
1.52396
20
0.414485
11
1.52258
21
0.413103
0
LINE
8
BLACK
6
CONTINUOUS
10
1.52258
20
0.413103
11
1.52108
21
0.408595
0
LINE
8
BLACK
6
CONTINUOUS
10
1.52108
20
0.408595
11
1.52108
21
0.405803
0
LINE
8
BLACK
6
CONTINUOUS
10
1.52108
20
0.405803
11
1.52258
21
0.401295
0
LINE
8
BLACK
6
CONTINUOUS
10
1.52258
20
0.401295
11
1.5255
21
0.398377
0
LINE
8
BLACK
6
CONTINUOUS
10
1.5255
20
0.398377
11
1.52853
21
0.396862
0
LINE
8
BLACK
6
CONTINUOUS
10
1.52853
20
0.396862
11
1.53536
21
0.395154
0
LINE
8
BLACK
6
CONTINUOUS
10
1.53536
20
0.395154
11
1.54026
21
0.395154
0
LINE
8
BLACK
6
CONTINUOUS
10
1.54026
20
0.395154
11
1.54709
21
0.396862
0
LINE
8
BLACK
6
CONTINUOUS
10
1.54709
20
0.396862
11
1.55012
21
0.398377
0
LINE
8
BLACK
6
CONTINUOUS
10
1.55012
20
0.398377
11
1.55304
21
0.401295
0
LINE
8
BLACK
6
CONTINUOUS
10
1.55304
20
0.401295
11
1.55454
21
0.405803
0
LINE
8
BLACK
6
CONTINUOUS
10
1.55454
20
0.405803
11
1.55454
21
0.408595
0
LINE
8
BLACK
6
CONTINUOUS
10
1.55454
20
0.408595
11
1.55304
21
0.413103
0
LINE
8
BLACK
6
CONTINUOUS
10
1.55304
20
0.413103
11
1.55166
21
0.414485
0
LINE
8
BLACK
6
CONTINUOUS
10
1.55166
20
0.414485
11
1.55107
21
0.415325
0
LINE
8
BLACK
6
CONTINUOUS
10
1.55107
20
0.415325
11
1.55089
21
0.417337
0
LINE
8
BLACK
6
CONTINUOUS
10
1.55089
20
0.417337
11
1.55205
21
0.418992
0
LINE
8
BLACK
6
CONTINUOUS
10
1.55205
20
0.418992
11
1.554
21
0.419514
0
LINE
8
BLACK
6
CONTINUOUS
10
1.554
20
0.419514
11
1.55583
21
0.418661
0
LINE
8
BLACK
6
CONTINUOUS
10
0.476464
20
0.418661
11
0.478338
21
0.416786
0
LINE
8
BLACK
6
CONTINUOUS
10
0.478338
20
0.416786
11
0.478927
21
0.415946
0
LINE
8
BLACK
6
CONTINUOUS
10
0.478927
20
0.415946
11
0.478942
21
0.41577
0
LINE
8
BLACK
6
CONTINUOUS
10
0.478942
20
0.41577
11
0.479052
21
0.415632
0
LINE
8
BLACK
6
CONTINUOUS
10
0.479052
20
0.415632
11
0.480926
21
0.410008
0
LINE
8
BLACK
6
CONTINUOUS
10
0.480926
20
0.410008
11
0.481056
21
0.409134
0
LINE
8
BLACK
6
CONTINUOUS
10
0.481056
20
0.409134
11
0.481078
21
0.409074
0
LINE
8
BLACK
6
CONTINUOUS
10
0.481078
20
0.409074
11
0.481078
21
0.405324
0
LINE
8
BLACK
6
CONTINUOUS
10
0.481078
20
0.405324
11
0.480925
21
0.404455
0
LINE
8
BLACK
6
CONTINUOUS
10
0.480925
20
0.404455
11
0.480926
21
0.404391
0
LINE
8
BLACK
6
CONTINUOUS
10
0.480926
20
0.404391
11
0.479052
21
0.398766
0
LINE
8
BLACK
6
CONTINUOUS
10
0.479052
20
0.398766
11
0.478563
21
0.397864
0
LINE
8
BLACK
6
CONTINUOUS
10
0.478563
20
0.397864
11
0.478413
21
0.397772
0
LINE
8
BLACK
6
CONTINUOUS
10
0.478413
20
0.397772
11
0.478338
21
0.397612
0
LINE
8
BLACK
6
CONTINUOUS
10
0.478338
20
0.397612
11
0.474589
21
0.393863
0
LINE
8
BLACK
6
CONTINUOUS
10
0.474589
20
0.393863
11
0.473866
21
0.393356
0
LINE
8
BLACK
6
CONTINUOUS
10
0.473866
20
0.393356
11
0.473821
21
0.393309
0
LINE
8
BLACK
6
CONTINUOUS
10
0.473821
20
0.393309
11
0.470072
21
0.391435
0
LINE
8
BLACK
6
CONTINUOUS
10
0.470072
20
0.391435
11
0.469583
21
0.391289
0
LINE
8
BLACK
6
CONTINUOUS
10
0.469583
20
0.391289
11
0.469468
21
0.391211
0
LINE
8
BLACK
6
CONTINUOUS
10
0.469468
20
0.391211
11
0.461968
21
0.389336
0
LINE
8
BLACK
6
CONTINUOUS
10
0.461968
20
0.389336
11
0.461381
21
0.389295
0
LINE
8
BLACK
6
CONTINUOUS
10
0.461381
20
0.389295
11
0.461252
21
0.389248
0
LINE
8
BLACK
6
CONTINUOUS
10
0.461252
20
0.389248
11
0.455628
21
0.389248
0
LINE
8
BLACK
6
CONTINUOUS
10
0.455628
20
0.389248
11
0.455048
21
0.389351
0
LINE
8
BLACK
6
CONTINUOUS
10
0.455048
20
0.389351
11
0.454912
21
0.389336
0
LINE
8
BLACK
6
CONTINUOUS
10
0.454912
20
0.389336
11
0.447413
21
0.391211
0
LINE
8
BLACK
6
CONTINUOUS
10
0.447413
20
0.391211
11
0.446947
21
0.391419
0
LINE
8
BLACK
6
CONTINUOUS
10
0.446947
20
0.391419
11
0.446808
21
0.391435
0
LINE
8
BLACK
6
CONTINUOUS
10
0.446808
20
0.391435
11
0.443059
21
0.393309
0
LINE
8
BLACK
6
CONTINUOUS
10
0.443059
20
0.393309
11
0.44235
21
0.393835
0
LINE
8
BLACK
6
CONTINUOUS
10
0.44235
20
0.393835
11
0.442292
21
0.393863
0
LINE
8
BLACK
6
CONTINUOUS
10
0.442292
20
0.393863
11
0.438542
21
0.397612
0
LINE
8
BLACK
6
CONTINUOUS
10
0.438542
20
0.397612
11
0.437954
21
0.398452
0
LINE
8
BLACK
6
CONTINUOUS
10
0.437954
20
0.398452
11
0.437938
21
0.398628
0
LINE
8
BLACK
6
CONTINUOUS
10
0.437938
20
0.398628
11
0.437829
21
0.398766
0
LINE
8
BLACK
6
CONTINUOUS
10
0.437829
20
0.398766
11
0.435954
21
0.404391
0
LINE
8
BLACK
6
CONTINUOUS
10
0.435954
20
0.404391
11
0.435824
21
0.405264
0
LINE
8
BLACK
6
CONTINUOUS
10
0.435824
20
0.405264
11
0.435802
21
0.405324
0
LINE
8
BLACK
6
CONTINUOUS
10
0.435802
20
0.405324
11
0.435802
21
0.409074
0
LINE
8
BLACK
6
CONTINUOUS
10
0.435802
20
0.409074
11
0.435956
21
0.409943
0
LINE
8
BLACK
6
CONTINUOUS
10
0.435956
20
0.409943
11
0.435954
21
0.410008
0
LINE
8
BLACK
6
CONTINUOUS
10
0.435954
20
0.410008
11
0.437829
21
0.415632
0
LINE
8
BLACK
6
CONTINUOUS
10
0.437829
20
0.415632
11
0.438317
21
0.416534
0
LINE
8
BLACK
6
CONTINUOUS
10
0.438317
20
0.416534
11
0.438467
21
0.416626
0
LINE
8
BLACK
6
CONTINUOUS
10
0.438467
20
0.416626
11
0.438542
21
0.416786
0
LINE
8
BLACK
6
CONTINUOUS
10
0.438542
20
0.416786
11
0.440417
21
0.418661
0
LINE
8
BLACK
6
CONTINUOUS
10
0.440417
20
0.418661
11
0.441257
21
0.419249
0
LINE
8
BLACK
6
CONTINUOUS
10
0.441257
20
0.419249
11
0.443269
21
0.419425
0
LINE
8
BLACK
6
CONTINUOUS
10
0.443269
20
0.419425
11
0.444923
21
0.418267
0
LINE
8
BLACK
6
CONTINUOUS
10
0.444923
20
0.418267
11
0.445446
21
0.416316
0
LINE
8
BLACK
6
CONTINUOUS
10
0.445446
20
0.416316
11
0.444593
21
0.414485
0
LINE
8
BLACK
6
CONTINUOUS
10
0.444593
20
0.414485
11
0.443211
21
0.413103
0
LINE
8
BLACK
6
CONTINUOUS
10
0.443211
20
0.413103
11
0.441708
21
0.408595
0
LINE
8
BLACK
6
CONTINUOUS
10
0.441708
20
0.408595
11
0.441708
21
0.405803
0
LINE
8
BLACK
6
CONTINUOUS
10
0.441708
20
0.405803
11
0.443211
21
0.401295
0
LINE
8
BLACK
6
CONTINUOUS
10
0.443211
20
0.401295
11
0.446129
21
0.398377
0
LINE
8
BLACK
6
CONTINUOUS
10
0.446129
20
0.398377
11
0.44916
21
0.396862
0
LINE
8
BLACK
6
CONTINUOUS
10
0.44916
20
0.396862
11
0.455992
21
0.395154
0
LINE
8
BLACK
6
CONTINUOUS
10
0.455992
20
0.395154
11
0.460889
21
0.395154
0
LINE
8
BLACK
6
CONTINUOUS
10
0.460889
20
0.395154
11
0.467721
21
0.396862
0
LINE
8
BLACK
6
CONTINUOUS
10
0.467721
20
0.396862
11
0.470752
21
0.398377
0
LINE
8
BLACK
6
CONTINUOUS
10
0.470752
20
0.398377
11
0.47367
21
0.401295
0
LINE
8
BLACK
6
CONTINUOUS
10
0.47367
20
0.401295
11
0.475172
21
0.405803
0
LINE
8
BLACK
6
CONTINUOUS
10
0.475172
20
0.405803
11
0.475172
21
0.408595
0
LINE
8
BLACK
6
CONTINUOUS
10
0.475172
20
0.408595
11
0.47367
21
0.413103
0
LINE
8
BLACK
6
CONTINUOUS
10
0.47367
20
0.413103
11
0.472288
21
0.414485
0
LINE
8
BLACK
6
CONTINUOUS
10
0.472288
20
0.414485
11
0.4717
21
0.415325
0
LINE
8
BLACK
6
CONTINUOUS
10
0.4717
20
0.415325
11
0.471524
21
0.417337
0
LINE
8
BLACK
6
CONTINUOUS
10
0.471524
20
0.417337
11
0.472682
21
0.418992
0
LINE
8
BLACK
6
CONTINUOUS
10
0.472682
20
0.418992
11
0.474633
21
0.419514
0
LINE
8
BLACK
6
CONTINUOUS
10
0.474633
20
0.419514
11
0.476464
21
0.418661
0
LINE
8
BLACK
6
CONTINUOUS
10
0.465582
20
0.460668
11
0.465718
21
0.460682
0
LINE
8
BLACK
6
CONTINUOUS
10
0.465718
20
0.460682
11
0.473217
21
0.458808
0
LINE
8
BLACK
6
CONTINUOUS
10
0.473217
20
0.458808
11
0.474154
21
0.45839
0
LINE
8
BLACK
6
CONTINUOUS
10
0.474154
20
0.45839
11
0.474325
21
0.458154
0
LINE
8
BLACK
6
CONTINUOUS
10
0.474325
20
0.458154
11
0.474589
21
0.458031
0
LINE
8
BLACK
6
CONTINUOUS
10
0.474589
20
0.458031
11
0.478338
21
0.454281
0
LINE
8
BLACK
6
CONTINUOUS
10
0.478338
20
0.454281
11
0.478845
21
0.453558
0
LINE
8
BLACK
6
CONTINUOUS
10
0.478845
20
0.453558
11
0.478891
21
0.453514
0
LINE
8
BLACK
6
CONTINUOUS
10
0.478891
20
0.453514
11
0.480766
21
0.449764
0
LINE
8
BLACK
6
CONTINUOUS
10
0.480766
20
0.449764
11
0.481059
21
0.448782
0
LINE
8
BLACK
6
CONTINUOUS
10
0.481059
20
0.448782
11
0.481018
21
0.44861
0
LINE
8
BLACK
6
CONTINUOUS
10
0.481018
20
0.44861
11
0.481078
21
0.448444
0
LINE
8
BLACK
6
CONTINUOUS
10
0.481078
20
0.448444
11
0.481078
21
0.440945
0
LINE
8
BLACK
6
CONTINUOUS
10
0.481078
20
0.440945
11
0.4809
21
0.439935
0
LINE
8
BLACK
6
CONTINUOUS
10
0.4809
20
0.439935
11
0.480786
21
0.4398
0
LINE
8
BLACK
6
CONTINUOUS
10
0.480786
20
0.4398
11
0.480766
21
0.439624
0
LINE
8
BLACK
6
CONTINUOUS
10
0.480766
20
0.439624
11
0.478891
21
0.435875
0
LINE
8
BLACK
6
CONTINUOUS
10
0.478891
20
0.435875
11
0.478366
21
0.435166
0
LINE
8
BLACK
6
CONTINUOUS
10
0.478366
20
0.435166
11
0.478338
21
0.435107
0
LINE
8
BLACK
6
CONTINUOUS
10
0.478338
20
0.435107
11
0.474589
21
0.431358
0
LINE
8
BLACK
6
CONTINUOUS
10
0.474589
20
0.431358
11
0.473749
21
0.43077
0
LINE
8
BLACK
6
CONTINUOUS
10
0.473749
20
0.43077
11
0.473459
21
0.430744
0
LINE
8
BLACK
6
CONTINUOUS
10
0.473459
20
0.430744
11
0.473217
21
0.430581
0
LINE
8
BLACK
6
CONTINUOUS
10
0.473217
20
0.430581
11
0.465718
21
0.428706
0
LINE
8
BLACK
6
CONTINUOUS
10
0.465718
20
0.428706
11
0.46513
21
0.428665
0
LINE
8
BLACK
6
CONTINUOUS
10
0.46513
20
0.428665
11
0.465002
21
0.428618
0
LINE
8
BLACK
6
CONTINUOUS
10
0.465002
20
0.428618
11
0.451879
21
0.428618
0
LINE
8
BLACK
6
CONTINUOUS
10
0.451879
20
0.428618
11
0.451298
21
0.428721
0
LINE
8
BLACK
6
CONTINUOUS
10
0.451298
20
0.428721
11
0.451162
21
0.428706
0
LINE
8
BLACK
6
CONTINUOUS
10
0.451162
20
0.428706
11
0.443663
21
0.430581
0
LINE
8
BLACK
6
CONTINUOUS
10
0.443663
20
0.430581
11
0.442727
21
0.430999
0
LINE
8
BLACK
6
CONTINUOUS
10
0.442727
20
0.430999
11
0.442556
21
0.431235
0
LINE
8
BLACK
6
CONTINUOUS
10
0.442556
20
0.431235
11
0.442292
21
0.431358
0
LINE
8
BLACK
6
CONTINUOUS
10
0.442292
20
0.431358
11
0.438542
21
0.435107
0
LINE
8
BLACK
6
CONTINUOUS
10
0.438542
20
0.435107
11
0.438036
21
0.43583
0
LINE
8
BLACK
6
CONTINUOUS
10
0.438036
20
0.43583
11
0.437989
21
0.435875
0
LINE
8
BLACK
6
CONTINUOUS
10
0.437989
20
0.435875
11
0.436114
21
0.439624
0
LINE
8
BLACK
6
CONTINUOUS
10
0.436114
20
0.439624
11
0.435822
21
0.440607
0
LINE
8
BLACK
6
CONTINUOUS
10
0.435822
20
0.440607
11
0.435863
21
0.440779
0
LINE
8
BLACK
6
CONTINUOUS
10
0.435863
20
0.440779
11
0.435802
21
0.440945
0
LINE
8
BLACK
6
CONTINUOUS
10
0.435802
20
0.440945
11
0.435802
21
0.448444
0
LINE
8
BLACK
6
CONTINUOUS
10
0.435802
20
0.448444
11
0.43598
21
0.449454
0
LINE
8
BLACK
6
CONTINUOUS
10
0.43598
20
0.449454
11
0.436094
21
0.449589
0
LINE
8
BLACK
6
CONTINUOUS
10
0.436094
20
0.449589
11
0.436114
21
0.449764
0
LINE
8
BLACK
6
CONTINUOUS
10
0.436114
20
0.449764
11
0.437989
21
0.453514
0
LINE
8
BLACK
6
CONTINUOUS
10
0.437989
20
0.453514
11
0.438515
21
0.454223
0
LINE
8
BLACK
6
CONTINUOUS
10
0.438515
20
0.454223
11
0.438542
21
0.454281
0
LINE
8
BLACK
6
CONTINUOUS
10
0.438542
20
0.454281
11
0.442292
21
0.458031
0
LINE
8
BLACK
6
CONTINUOUS
10
0.442292
20
0.458031
11
0.443132
21
0.458619
0
LINE
8
BLACK
6
CONTINUOUS
10
0.443132
20
0.458619
11
0.443422
21
0.458645
0
LINE
8
BLACK
6
CONTINUOUS
10
0.443422
20
0.458645
11
0.443663
21
0.458808
0
LINE
8
BLACK
6
CONTINUOUS
10
0.443663
20
0.458808
11
0.451162
21
0.460682
0
LINE
8
BLACK
6
CONTINUOUS
10
0.451162
20
0.460682
11
0.45175
21
0.460724
0
LINE
8
BLACK
6
CONTINUOUS
10
0.45175
20
0.460724
11
0.451879
21
0.460771
0
LINE
8
BLACK
6
CONTINUOUS
10
0.451879
20
0.460771
11
0.465002
21
0.460771
0
LINE
8
BLACK
6
CONTINUOUS
10
0.465002
20
0.460771
11
0.465582
21
0.460668
0
LINE
8
BLACK
6
CONTINUOUS
10
0.452242
20
0.454865
11
0.445889
21
0.453277
0
LINE
8
BLACK
6
CONTINUOUS
10
0.445889
20
0.453277
11
0.443057
21
0.450444
0
LINE
8
BLACK
6
CONTINUOUS
10
0.443057
20
0.450444
11
0.441708
21
0.447747
0
LINE
8
BLACK
6
CONTINUOUS
10
0.441708
20
0.447747
11
0.441708
21
0.441642
0
LINE
8
BLACK
6
CONTINUOUS
10
0.441708
20
0.441642
11
0.443057
21
0.438944
0
LINE
8
BLACK
6
CONTINUOUS
10
0.443057
20
0.438944
11
0.445889
21
0.436112
0
LINE
8
BLACK
6
CONTINUOUS
10
0.445889
20
0.436112
11
0.452242
21
0.434524
0
LINE
8
BLACK
6
CONTINUOUS
10
0.452242
20
0.434524
11
0.464638
21
0.434524
0
LINE
8
BLACK
6
CONTINUOUS
10
0.464638
20
0.434524
11
0.470991
21
0.436112
0
LINE
8
BLACK
6
CONTINUOUS
10
0.470991
20
0.436112
11
0.473824
21
0.438944
0
LINE
8
BLACK
6
CONTINUOUS
10
0.473824
20
0.438944
11
0.475172
21
0.441642
0
LINE
8
BLACK
6
CONTINUOUS
10
0.475172
20
0.441642
11
0.475172
21
0.447747
0
LINE
8
BLACK
6
CONTINUOUS
10
0.475172
20
0.447747
11
0.473824
21
0.450444
0
LINE
8
BLACK
6
CONTINUOUS
10
0.473824
20
0.450444
11
0.470991
21
0.453277
0
LINE
8
BLACK
6
CONTINUOUS
10
0.470991
20
0.453277
11
0.464638
21
0.454865
0
LINE
8
BLACK
6
CONTINUOUS
10
0.464638
20
0.454865
11
0.452242
21
0.454865
0
LINE
8
BLACK
6
CONTINUOUS
10
1.54495
20
0.460668
11
1.54509
21
0.460682
0
LINE
8
BLACK
6
CONTINUOUS
10
1.54509
20
0.460682
11
1.55259
21
0.458808
0
LINE
8
BLACK
6
CONTINUOUS
10
1.55259
20
0.458808
11
1.55352
21
0.45839
0
LINE
8
BLACK
6
CONTINUOUS
10
1.55352
20
0.45839
11
1.55369
21
0.458154
0
LINE
8
BLACK
6
CONTINUOUS
10
1.55369
20
0.458154
11
1.55396
21
0.458031
0
LINE
8
BLACK
6
CONTINUOUS
10
1.55396
20
0.458031
11
1.55771
21
0.454281
0
LINE
8
BLACK
6
CONTINUOUS
10
1.55771
20
0.454281
11
1.55821
21
0.453558
0
LINE
8
BLACK
6
CONTINUOUS
10
1.55821
20
0.453558
11
1.55826
21
0.453514
0
LINE
8
BLACK
6
CONTINUOUS
10
1.55826
20
0.453514
11
1.56014
21
0.449764
0
LINE
8
BLACK
6
CONTINUOUS
10
1.56014
20
0.449764
11
1.56043
21
0.448782
0
LINE
8
BLACK
6
CONTINUOUS
10
1.56043
20
0.448782
11
1.56039
21
0.44861
0
LINE
8
BLACK
6
CONTINUOUS
10
1.56039
20
0.44861
11
1.56045
21
0.448444
0
LINE
8
BLACK
6
CONTINUOUS
10
1.56045
20
0.448444
11
1.56045
21
0.440945
0
LINE
8
BLACK
6
CONTINUOUS
10
1.56045
20
0.440945
11
1.56027
21
0.439935
0
LINE
8
BLACK
6
CONTINUOUS
10
1.56027
20
0.439935
11
1.56016
21
0.4398
0
LINE
8
BLACK
6
CONTINUOUS
10
1.56016
20
0.4398
11
1.56014
21
0.439624
0
LINE
8
BLACK
6
CONTINUOUS
10
1.56014
20
0.439624
11
1.55826
21
0.435875
0
LINE
8
BLACK
6
CONTINUOUS
10
1.55826
20
0.435875
11
1.55774
21
0.435166
0
LINE
8
BLACK
6
CONTINUOUS
10
1.55774
20
0.435166
11
1.55771
21
0.435107
0
LINE
8
BLACK
6
CONTINUOUS
10
1.55771
20
0.435107
11
1.55396
21
0.431358
0
LINE
8
BLACK
6
CONTINUOUS
10
1.55396
20
0.431358
11
1.55312
21
0.43077
0
LINE
8
BLACK
6
CONTINUOUS
10
1.55312
20
0.43077
11
1.55283
21
0.430744
0
LINE
8
BLACK
6
CONTINUOUS
10
1.55283
20
0.430744
11
1.55259
21
0.430581
0
LINE
8
BLACK
6
CONTINUOUS
10
1.55259
20
0.430581
11
1.54509
21
0.428706
0
LINE
8
BLACK
6
CONTINUOUS
10
1.54509
20
0.428706
11
1.5445
21
0.428665
0
LINE
8
BLACK
6
CONTINUOUS
10
1.5445
20
0.428665
11
1.54437
21
0.428618
0
LINE
8
BLACK
6
CONTINUOUS
10
1.54437
20
0.428618
11
1.53125
21
0.428618
0
LINE
8
BLACK
6
CONTINUOUS
10
1.53125
20
0.428618
11
1.53067
21
0.428721
0
LINE
8
BLACK
6
CONTINUOUS
10
1.53067
20
0.428721
11
1.53053
21
0.428706
0
LINE
8
BLACK
6
CONTINUOUS
10
1.53053
20
0.428706
11
1.52303
21
0.430581
0
LINE
8
BLACK
6
CONTINUOUS
10
1.52303
20
0.430581
11
1.5221
21
0.430999
0
LINE
8
BLACK
6
CONTINUOUS
10
1.5221
20
0.430999
11
1.52193
21
0.431235
0
LINE
8
BLACK
6
CONTINUOUS
10
1.52193
20
0.431235
11
1.52166
21
0.431358
0
LINE
8
BLACK
6
CONTINUOUS
10
1.52166
20
0.431358
11
1.51791
21
0.435107
0
LINE
8
BLACK
6
CONTINUOUS
10
1.51791
20
0.435107
11
1.51741
21
0.43583
0
LINE
8
BLACK
6
CONTINUOUS
10
1.51741
20
0.43583
11
1.51736
21
0.435875
0
LINE
8
BLACK
6
CONTINUOUS
10
1.51736
20
0.435875
11
1.51548
21
0.439624
0
LINE
8
BLACK
6
CONTINUOUS
10
1.51548
20
0.439624
11
1.51519
21
0.440607
0
LINE
8
BLACK
6
CONTINUOUS
10
1.51519
20
0.440607
11
1.51523
21
0.440779
0
LINE
8
BLACK
6
CONTINUOUS
10
1.51523
20
0.440779
11
1.51517
21
0.440945
0
LINE
8
BLACK
6
CONTINUOUS
10
1.51517
20
0.440945
11
1.51517
21
0.448444
0
LINE
8
BLACK
6
CONTINUOUS
10
1.51517
20
0.448444
11
1.51535
21
0.449454
0
LINE
8
BLACK
6
CONTINUOUS
10
1.51535
20
0.449454
11
1.51546
21
0.449589
0
LINE
8
BLACK
6
CONTINUOUS
10
1.51546
20
0.449589
11
1.51548
21
0.449764
0
LINE
8
BLACK
6
CONTINUOUS
10
1.51548
20
0.449764
11
1.51736
21
0.453514
0
LINE
8
BLACK
6
CONTINUOUS
10
1.51736
20
0.453514
11
1.51788
21
0.454223
0
LINE
8
BLACK
6
CONTINUOUS
10
1.51788
20
0.454223
11
1.51791
21
0.454281
0
LINE
8
BLACK
6
CONTINUOUS
10
1.51791
20
0.454281
11
1.52166
21
0.458031
0
LINE
8
BLACK
6
CONTINUOUS
10
1.52166
20
0.458031
11
1.5225
21
0.458619
0
LINE
8
BLACK
6
CONTINUOUS
10
1.5225
20
0.458619
11
1.52279
21
0.458645
0
LINE
8
BLACK
6
CONTINUOUS
10
1.52279
20
0.458645
11
1.52303
21
0.458808
0
LINE
8
BLACK
6
CONTINUOUS
10
1.52303
20
0.458808
11
1.53053
21
0.460682
0
LINE
8
BLACK
6
CONTINUOUS
10
1.53053
20
0.460682
11
1.53112
21
0.460724
0
LINE
8
BLACK
6
CONTINUOUS
10
1.53112
20
0.460724
11
1.53125
21
0.460771
0
LINE
8
BLACK
6
CONTINUOUS
10
1.53125
20
0.460771
11
1.54437
21
0.460771
0
LINE
8
BLACK
6
CONTINUOUS
10
1.54437
20
0.460771
11
1.54495
21
0.460668
0
LINE
8
BLACK
6
CONTINUOUS
10
1.53161
20
0.454865
11
1.52526
21
0.453277
0
LINE
8
BLACK
6
CONTINUOUS
10
1.52526
20
0.453277
11
1.52243
21
0.450444
0
LINE
8
BLACK
6
CONTINUOUS
10
1.52243
20
0.450444
11
1.52108
21
0.447747
0
LINE
8
BLACK
6
CONTINUOUS
10
1.52108
20
0.447747
11
1.52108
21
0.441642
0
LINE
8
BLACK
6
CONTINUOUS
10
1.52108
20
0.441642
11
1.52243
21
0.438944
0
LINE
8
BLACK
6
CONTINUOUS
10
1.52243
20
0.438944
11
1.52526
21
0.436112
0
LINE
8
BLACK
6
CONTINUOUS
10
1.52526
20
0.436112
11
1.53161
21
0.434524
0
LINE
8
BLACK
6
CONTINUOUS
10
1.53161
20
0.434524
11
1.54401
21
0.434524
0
LINE
8
BLACK
6
CONTINUOUS
10
1.54401
20
0.434524
11
1.55036
21
0.436112
0
LINE
8
BLACK
6
CONTINUOUS
10
1.55036
20
0.436112
11
1.55319
21
0.438944
0
LINE
8
BLACK
6
CONTINUOUS
10
1.55319
20
0.438944
11
1.55454
21
0.441642
0
LINE
8
BLACK
6
CONTINUOUS
10
1.55454
20
0.441642
11
1.55454
21
0.447747
0
LINE
8
BLACK
6
CONTINUOUS
10
1.55454
20
0.447747
11
1.55319
21
0.450444
0
LINE
8
BLACK
6
CONTINUOUS
10
1.55319
20
0.450444
11
1.55036
21
0.453277
0
LINE
8
BLACK
6
CONTINUOUS
10
1.55036
20
0.453277
11
1.54401
21
0.454865
0
LINE
8
BLACK
6
CONTINUOUS
10
1.54401
20
0.454865
11
1.53161
21
0.454865
0
LINE
8
BLACK
6
CONTINUOUS
10
1.55851
20
0.499963
11
1.55871
21
0.499787
0
LINE
8
BLACK
6
CONTINUOUS
10
1.55871
20
0.499787
11
1.55898
21
0.499738
0
LINE
8
BLACK
6
CONTINUOUS
10
1.55898
20
0.499738
11
1.55947
21
0.499153
0
LINE
8
BLACK
6
CONTINUOUS
10
1.55947
20
0.499153
11
1.56005
21
0.498664
0
LINE
8
BLACK
6
CONTINUOUS
10
1.56005
20
0.498664
11
1.5601
21
0.498395
0
LINE
8
BLACK
6
CONTINUOUS
10
1.5601
20
0.498395
11
1.56027
21
0.498185
0
LINE
8
BLACK
6
CONTINUOUS
10
1.56027
20
0.498185
11
1.56027
21
0.497424
0
LINE
8
BLACK
6
CONTINUOUS
10
1.56027
20
0.497424
11
1.5604
21
0.496675
0
LINE
8
BLACK
6
CONTINUOUS
10
1.5604
20
0.496675
11
1.56027
21
0.496439
0
LINE
8
BLACK
6
CONTINUOUS
10
1.56027
20
0.496439
11
1.56027
21
0.496166
0
LINE
8
BLACK
6
CONTINUOUS
10
1.56027
20
0.496166
11
1.55977
21
0.495585
0
LINE
8
BLACK
6
CONTINUOUS
10
1.55977
20
0.495585
11
1.55939
21
0.494926
0
LINE
8
BLACK
6
CONTINUOUS
10
1.55939
20
0.494926
11
1.55914
21
0.494833
0
LINE
8
BLACK
6
CONTINUOUS
10
1.55914
20
0.494833
11
1.55896
21
0.494624
0
LINE
8
BLACK
6
CONTINUOUS
10
1.55896
20
0.494624
11
1.52924
21
0.477643
0
LINE
8
BLACK
6
CONTINUOUS
10
1.52924
20
0.477643
11
1.5575
21
0.477643
0
LINE
8
BLACK
6
CONTINUOUS
10
1.5575
20
0.477643
11
1.55851
21
0.477465
0
LINE
8
BLACK
6
CONTINUOUS
10
1.55851
20
0.477465
11
1.56005
21
0.476167
0
LINE
8
BLACK
6
CONTINUOUS
10
1.56005
20
0.476167
11
1.5604
21
0.474178
0
LINE
8
BLACK
6
CONTINUOUS
10
1.5604
20
0.474178
11
1.55939
21
0.472429
0
LINE
8
BLACK
6
CONTINUOUS
10
1.55939
20
0.472429
11
1.5575
21
0.471738
0
LINE
8
BLACK
6
CONTINUOUS
10
1.5575
20
0.471738
11
1.51813
21
0.471738
0
LINE
8
BLACK
6
CONTINUOUS
10
1.51813
20
0.471738
11
1.51712
21
0.471916
0
LINE
8
BLACK
6
CONTINUOUS
10
1.51712
20
0.471916
11
1.51691
21
0.472091
0
LINE
8
BLACK
6
CONTINUOUS
10
1.51691
20
0.472091
11
1.51664
21
0.47214
0
LINE
8
BLACK
6
CONTINUOUS
10
1.51664
20
0.47214
11
1.51615
21
0.472725
0
LINE
8
BLACK
6
CONTINUOUS
10
1.51615
20
0.472725
11
1.51557
21
0.473214
0
LINE
8
BLACK
6
CONTINUOUS
10
1.51557
20
0.473214
11
1.51552
21
0.473483
0
LINE
8
BLACK
6
CONTINUOUS
10
1.51552
20
0.473483
11
1.51535
21
0.473693
0
LINE
8
BLACK
6
CONTINUOUS
10
1.51535
20
0.473693
11
1.51535
21
0.474454
0
LINE
8
BLACK
6
CONTINUOUS
10
1.51535
20
0.474454
11
1.51522
21
0.475203
0
LINE
8
BLACK
6
CONTINUOUS
10
1.51522
20
0.475203
11
1.51535
21
0.47544
0
LINE
8
BLACK
6
CONTINUOUS
10
1.51535
20
0.47544
11
1.51536
21
0.475713
0
LINE
8
BLACK
6
CONTINUOUS
10
1.51536
20
0.475713
11
1.51585
21
0.476294
0
LINE
8
BLACK
6
CONTINUOUS
10
1.51585
20
0.476294
11
1.51623
21
0.476953
0
LINE
8
BLACK
6
CONTINUOUS
10
1.51623
20
0.476953
11
1.51648
21
0.477046
0
LINE
8
BLACK
6
CONTINUOUS
10
1.51648
20
0.477046
11
1.51666
21
0.477254
0
LINE
8
BLACK
6
CONTINUOUS
10
1.51666
20
0.477254
11
1.54638
21
0.494235
0
LINE
8
BLACK
6
CONTINUOUS
10
1.54638
20
0.494235
11
1.51813
21
0.494235
0
LINE
8
BLACK
6
CONTINUOUS
10
1.51813
20
0.494235
11
1.51712
21
0.494413
0
LINE
8
BLACK
6
CONTINUOUS
10
1.51712
20
0.494413
11
1.51557
21
0.495711
0
LINE
8
BLACK
6
CONTINUOUS
10
1.51557
20
0.495711
11
1.51522
21
0.497701
0
LINE
8
BLACK
6
CONTINUOUS
10
1.51522
20
0.497701
11
1.51623
21
0.49945
0
LINE
8
BLACK
6
CONTINUOUS
10
1.51623
20
0.49945
11
1.51813
21
0.500141
0
LINE
8
BLACK
6
CONTINUOUS
10
1.51813
20
0.500141
11
1.5575
21
0.500141
0
LINE
8
BLACK
6
CONTINUOUS
10
1.5575
20
0.500141
11
1.55851
21
0.499963
0
LINE
8
BLACK
6
CONTINUOUS
10
0.479135
20
0.499963
11
0.479344
21
0.499787
0
LINE
8
BLACK
6
CONTINUOUS
10
0.479344
20
0.499787
11
0.479613
21
0.499738
0
LINE
8
BLACK
6
CONTINUOUS
10
0.479613
20
0.499738
11
0.480099
21
0.499153
0
LINE
8
BLACK
6
CONTINUOUS
10
0.480099
20
0.499153
11
0.480682
21
0.498664
0
LINE
8
BLACK
6
CONTINUOUS
10
0.480682
20
0.498664
11
0.48073
21
0.498395
0
LINE
8
BLACK
6
CONTINUOUS
10
0.48073
20
0.498395
11
0.480904
21
0.498185
0
LINE
8
BLACK
6
CONTINUOUS
10
0.480904
20
0.498185
11
0.480901
21
0.497424
0
LINE
8
BLACK
6
CONTINUOUS
10
0.480901
20
0.497424
11
0.481033
21
0.496675
0
LINE
8
BLACK
6
CONTINUOUS
10
0.481033
20
0.496675
11
0.480897
21
0.496439
0
LINE
8
BLACK
6
CONTINUOUS
10
0.480897
20
0.496439
11
0.480895
21
0.496166
0
LINE
8
BLACK
6
CONTINUOUS
10
0.480895
20
0.496166
11
0.480404
21
0.495585
0
LINE
8
BLACK
6
CONTINUOUS
10
0.480404
20
0.495585
11
0.480023
21
0.494926
0
LINE
8
BLACK
6
CONTINUOUS
10
0.480023
20
0.494926
11
0.479767
21
0.494833
0
LINE
8
BLACK
6
CONTINUOUS
10
0.479767
20
0.494833
11
0.47959
21
0.494624
0
LINE
8
BLACK
6
CONTINUOUS
10
0.47959
20
0.494624
11
0.449874
21
0.477643
0
LINE
8
BLACK
6
CONTINUOUS
10
0.449874
20
0.477643
11
0.478125
21
0.477643
0
LINE
8
BLACK
6
CONTINUOUS
10
0.478125
20
0.477643
11
0.479135
21
0.477465
0
LINE
8
BLACK
6
CONTINUOUS
10
0.479135
20
0.477465
11
0.480682
21
0.476167
0
LINE
8
BLACK
6
CONTINUOUS
10
0.480682
20
0.476167
11
0.481033
21
0.474178
0
LINE
8
BLACK
6
CONTINUOUS
10
0.481033
20
0.474178
11
0.480023
21
0.472429
0
LINE
8
BLACK
6
CONTINUOUS
10
0.480023
20
0.472429
11
0.478125
21
0.471738
0
LINE
8
BLACK
6
CONTINUOUS
10
0.478125
20
0.471738
11
0.438755
21
0.471738
0
LINE
8
BLACK
6
CONTINUOUS
10
0.438755
20
0.471738
11
0.437745
21
0.471916
0
LINE
8
BLACK
6
CONTINUOUS
10
0.437745
20
0.471916
11
0.437536
21
0.472091
0
LINE
8
BLACK
6
CONTINUOUS
10
0.437536
20
0.472091
11
0.437267
21
0.47214
0
LINE
8
BLACK
6
CONTINUOUS
10
0.437267
20
0.47214
11
0.436781
21
0.472725
0
LINE
8
BLACK
6
CONTINUOUS
10
0.436781
20
0.472725
11
0.436198
21
0.473214
0
LINE
8
BLACK
6
CONTINUOUS
10
0.436198
20
0.473214
11
0.436151
21
0.473483
0
LINE
8
BLACK
6
CONTINUOUS
10
0.436151
20
0.473483
11
0.435976
21
0.473693
0
LINE
8
BLACK
6
CONTINUOUS
10
0.435976
20
0.473693
11
0.435979
21
0.474454
0
LINE
8
BLACK
6
CONTINUOUS
10
0.435979
20
0.474454
11
0.435847
21
0.475203
0
LINE
8
BLACK
6
CONTINUOUS
10
0.435847
20
0.475203
11
0.435984
21
0.47544
0
LINE
8
BLACK
6
CONTINUOUS
10
0.435984
20
0.47544
11
0.435985
21
0.475713
0
LINE
8
BLACK
6
CONTINUOUS
10
0.435985
20
0.475713
11
0.436477
21
0.476294
0
LINE
8
BLACK
6
CONTINUOUS
10
0.436477
20
0.476294
11
0.436857
21
0.476953
0
LINE
8
BLACK
6
CONTINUOUS
10
0.436857
20
0.476953
11
0.437114
21
0.477046
0
LINE
8
BLACK
6
CONTINUOUS
10
0.437114
20
0.477046
11
0.43729
21
0.477254
0
LINE
8
BLACK
6
CONTINUOUS
10
0.43729
20
0.477254
11
0.467006
21
0.494235
0
LINE
8
BLACK
6
CONTINUOUS
10
0.467006
20
0.494235
11
0.438755
21
0.494235
0
LINE
8
BLACK
6
CONTINUOUS
10
0.438755
20
0.494235
11
0.437745
21
0.494413
0
LINE
8
BLACK
6
CONTINUOUS
10
0.437745
20
0.494413
11
0.436198
21
0.495711
0
LINE
8
BLACK
6
CONTINUOUS
10
0.436198
20
0.495711
11
0.435847
21
0.497701
0
LINE
8
BLACK
6
CONTINUOUS
10
0.435847
20
0.497701
11
0.436857
21
0.49945
0
LINE
8
BLACK
6
CONTINUOUS
10
0.436857
20
0.49945
11
0.438755
21
0.500141
0
LINE
8
BLACK
6
CONTINUOUS
10
0.438755
20
0.500141
11
0.478125
21
0.500141
0
LINE
8
BLACK
6
CONTINUOUS
10
0.478125
20
0.500141
11
0.479135
21
0.499963
0
LINE
8
BLACK
6
CONTINUOUS
10
1.55851
20
0.541207
11
1.55871
21
0.541032
0
LINE
8
BLACK
6
CONTINUOUS
10
1.55871
20
0.541032
11
1.55898
21
0.540983
0
LINE
8
BLACK
6
CONTINUOUS
10
1.55898
20
0.540983
11
1.55947
21
0.540398
0
LINE
8
BLACK
6
CONTINUOUS
10
1.55947
20
0.540398
11
1.56005
21
0.539909
0
LINE
8
BLACK
6
CONTINUOUS
10
1.56005
20
0.539909
11
1.5601
21
0.53964
0
LINE
8
BLACK
6
CONTINUOUS
10
1.5601
20
0.53964
11
1.56027
21
0.53943
0
LINE
8
BLACK
6
CONTINUOUS
10
1.56027
20
0.53943
11
1.56027
21
0.538669
0
LINE
8
BLACK
6
CONTINUOUS
10
1.56027
20
0.538669
11
1.5604
21
0.53792
0
LINE
8
BLACK
6
CONTINUOUS
10
1.5604
20
0.53792
11
1.56027
21
0.537683
0
LINE
8
BLACK
6
CONTINUOUS
10
1.56027
20
0.537683
11
1.56027
21
0.53741
0
LINE
8
BLACK
6
CONTINUOUS
10
1.56027
20
0.53741
11
1.55977
21
0.53683
0
LINE
8
BLACK
6
CONTINUOUS
10
1.55977
20
0.53683
11
1.55939
21
0.536171
0
LINE
8
BLACK
6
CONTINUOUS
10
1.55939
20
0.536171
11
1.55914
21
0.536077
0
LINE
8
BLACK
6
CONTINUOUS
10
1.55914
20
0.536077
11
1.55896
21
0.535869
0
LINE
8
BLACK
6
CONTINUOUS
10
1.55896
20
0.535869
11
1.52924
21
0.518888
0
LINE
8
BLACK
6
CONTINUOUS
10
1.52924
20
0.518888
11
1.5575
21
0.518888
0
LINE
8
BLACK
6
CONTINUOUS
10
1.5575
20
0.518888
11
1.55851
21
0.51871
0
LINE
8
BLACK
6
CONTINUOUS
10
1.55851
20
0.51871
11
1.56005
21
0.517412
0
LINE
8
BLACK
6
CONTINUOUS
10
1.56005
20
0.517412
11
1.5604
21
0.515423
0
LINE
8
BLACK
6
CONTINUOUS
10
1.5604
20
0.515423
11
1.55939
21
0.513674
0
LINE
8
BLACK
6
CONTINUOUS
10
1.55939
20
0.513674
11
1.5575
21
0.512983
0
LINE
8
BLACK
6
CONTINUOUS
10
1.5575
20
0.512983
11
1.51813
21
0.512983
0
LINE
8
BLACK
6
CONTINUOUS
10
1.51813
20
0.512983
11
1.51712
21
0.513161
0
LINE
8
BLACK
6
CONTINUOUS
10
1.51712
20
0.513161
11
1.51691
21
0.513336
0
LINE
8
BLACK
6
CONTINUOUS
10
1.51691
20
0.513336
11
1.51664
21
0.513385
0
LINE
8
BLACK
6
CONTINUOUS
10
1.51664
20
0.513385
11
1.51615
21
0.51397
0
LINE
8
BLACK
6
CONTINUOUS
10
1.51615
20
0.51397
11
1.51557
21
0.514459
0
LINE
8
BLACK
6
CONTINUOUS
10
1.51557
20
0.514459
11
1.51552
21
0.514728
0
LINE
8
BLACK
6
CONTINUOUS
10
1.51552
20
0.514728
11
1.51535
21
0.514938
0
LINE
8
BLACK
6
CONTINUOUS
10
1.51535
20
0.514938
11
1.51535
21
0.515699
0
LINE
8
BLACK
6
CONTINUOUS
10
1.51535
20
0.515699
11
1.51522
21
0.516448
0
LINE
8
BLACK
6
CONTINUOUS
10
1.51522
20
0.516448
11
1.51535
21
0.516685
0
LINE
8
BLACK
6
CONTINUOUS
10
1.51535
20
0.516685
11
1.51536
21
0.516958
0
LINE
8
BLACK
6
CONTINUOUS
10
1.51536
20
0.516958
11
1.51585
21
0.517538
0
LINE
8
BLACK
6
CONTINUOUS
10
1.51585
20
0.517538
11
1.51623
21
0.518197
0
LINE
8
BLACK
6
CONTINUOUS
10
1.51623
20
0.518197
11
1.51648
21
0.518291
0
LINE
8
BLACK
6
CONTINUOUS
10
1.51648
20
0.518291
11
1.51666
21
0.518499
0
LINE
8
BLACK
6
CONTINUOUS
10
1.51666
20
0.518499
11
1.54638
21
0.53548
0
LINE
8
BLACK
6
CONTINUOUS
10
1.54638
20
0.53548
11
1.51813
21
0.53548
0
LINE
8
BLACK
6
CONTINUOUS
10
1.51813
20
0.53548
11
1.51712
21
0.535658
0
LINE
8
BLACK
6
CONTINUOUS
10
1.51712
20
0.535658
11
1.51557
21
0.536956
0
LINE
8
BLACK
6
CONTINUOUS
10
1.51557
20
0.536956
11
1.51522
21
0.538945
0
LINE
8
BLACK
6
CONTINUOUS
10
1.51522
20
0.538945
11
1.51623
21
0.540695
0
LINE
8
BLACK
6
CONTINUOUS
10
1.51623
20
0.540695
11
1.51813
21
0.541385
0
LINE
8
BLACK
6
CONTINUOUS
10
1.51813
20
0.541385
11
1.5575
21
0.541385
0
LINE
8
BLACK
6
CONTINUOUS
10
1.5575
20
0.541385
11
1.55851
21
0.541207
0
LINE
8
BLACK
6
CONTINUOUS
10
0.479135
20
0.541207
11
0.479344
21
0.541032
0
LINE
8
BLACK
6
CONTINUOUS
10
0.479344
20
0.541032
11
0.479613
21
0.540983
0
LINE
8
BLACK
6
CONTINUOUS
10
0.479613
20
0.540983
11
0.480099
21
0.540398
0
LINE
8
BLACK
6
CONTINUOUS
10
0.480099
20
0.540398
11
0.480682
21
0.539909
0
LINE
8
BLACK
6
CONTINUOUS
10
0.480682
20
0.539909
11
0.48073
21
0.53964
0
LINE
8
BLACK
6
CONTINUOUS
10
0.48073
20
0.53964
11
0.480904
21
0.53943
0
LINE
8
BLACK
6
CONTINUOUS
10
0.480904
20
0.53943
11
0.480901
21
0.538669
0
LINE
8
BLACK
6
CONTINUOUS
10
0.480901
20
0.538669
11
0.481033
21
0.53792
0
LINE
8
BLACK
6
CONTINUOUS
10
0.481033
20
0.53792
11
0.480897
21
0.537683
0
LINE
8
BLACK
6
CONTINUOUS
10
0.480897
20
0.537683
11
0.480895
21
0.53741
0
LINE
8
BLACK
6
CONTINUOUS
10
0.480895
20
0.53741
11
0.480404
21
0.53683
0
LINE
8
BLACK
6
CONTINUOUS
10
0.480404
20
0.53683
11
0.480023
21
0.536171
0
LINE
8
BLACK
6
CONTINUOUS
10
0.480023
20
0.536171
11
0.479767
21
0.536077
0
LINE
8
BLACK
6
CONTINUOUS
10
0.479767
20
0.536077
11
0.47959
21
0.535869
0
LINE
8
BLACK
6
CONTINUOUS
10
0.47959
20
0.535869
11
0.449874
21
0.518888
0
LINE
8
BLACK
6
CONTINUOUS
10
0.449874
20
0.518888
11
0.478125
21
0.518888
0
LINE
8
BLACK
6
CONTINUOUS
10
0.478125
20
0.518888
11
0.479135
21
0.51871
0
LINE
8
BLACK
6
CONTINUOUS
10
0.479135
20
0.51871
11
0.480682
21
0.517412
0
LINE
8
BLACK
6
CONTINUOUS
10
0.480682
20
0.517412
11
0.481033
21
0.515423
0
LINE
8
BLACK
6
CONTINUOUS
10
0.481033
20
0.515423
11
0.480023
21
0.513674
0
LINE
8
BLACK
6
CONTINUOUS
10
0.480023
20
0.513674
11
0.478125
21
0.512983
0
LINE
8
BLACK
6
CONTINUOUS
10
0.478125
20
0.512983
11
0.438755
21
0.512983
0
LINE
8
BLACK
6
CONTINUOUS
10
0.438755
20
0.512983
11
0.437745
21
0.513161
0
LINE
8
BLACK
6
CONTINUOUS
10
0.437745
20
0.513161
11
0.437536
21
0.513336
0
LINE
8
BLACK
6
CONTINUOUS
10
0.437536
20
0.513336
11
0.437267
21
0.513385
0
LINE
8
BLACK
6
CONTINUOUS
10
0.437267
20
0.513385
11
0.436781
21
0.51397
0
LINE
8
BLACK
6
CONTINUOUS
10
0.436781
20
0.51397
11
0.436198
21
0.514459
0
LINE
8
BLACK
6
CONTINUOUS
10
0.436198
20
0.514459
11
0.436151
21
0.514728
0
LINE
8
BLACK
6
CONTINUOUS
10
0.436151
20
0.514728
11
0.435976
21
0.514938
0
LINE
8
BLACK
6
CONTINUOUS
10
0.435976
20
0.514938
11
0.435979
21
0.515699
0
LINE
8
BLACK
6
CONTINUOUS
10
0.435979
20
0.515699
11
0.435847
21
0.516448
0
LINE
8
BLACK
6
CONTINUOUS
10
0.435847
20
0.516448
11
0.435984
21
0.516685
0
LINE
8
BLACK
6
CONTINUOUS
10
0.435984
20
0.516685
11
0.435985
21
0.516958
0
LINE
8
BLACK
6
CONTINUOUS
10
0.435985
20
0.516958
11
0.436477
21
0.517538
0
LINE
8
BLACK
6
CONTINUOUS
10
0.436477
20
0.517538
11
0.436857
21
0.518197
0
LINE
8
BLACK
6
CONTINUOUS
10
0.436857
20
0.518197
11
0.437114
21
0.518291
0
LINE
8
BLACK
6
CONTINUOUS
10
0.437114
20
0.518291
11
0.43729
21
0.518499
0
LINE
8
BLACK
6
CONTINUOUS
10
0.43729
20
0.518499
11
0.467006
21
0.53548
0
LINE
8
BLACK
6
CONTINUOUS
10
0.467006
20
0.53548
11
0.438755
21
0.53548
0
LINE
8
BLACK
6
CONTINUOUS
10
0.438755
20
0.53548
11
0.437745
21
0.535658
0
LINE
8
BLACK
6
CONTINUOUS
10
0.437745
20
0.535658
11
0.436198
21
0.536956
0
LINE
8
BLACK
6
CONTINUOUS
10
0.436198
20
0.536956
11
0.435847
21
0.538945
0
LINE
8
BLACK
6
CONTINUOUS
10
0.435847
20
0.538945
11
0.436857
21
0.540695
0
LINE
8
BLACK
6
CONTINUOUS
10
0.436857
20
0.540695
11
0.438755
21
0.541385
0
LINE
8
BLACK
6
CONTINUOUS
10
0.438755
20
0.541385
11
0.478125
21
0.541385
0
LINE
8
BLACK
6
CONTINUOUS
10
0.478125
20
0.541385
11
0.479135
21
0.541207
0
LINE
8
BLACK
6
CONTINUOUS
10
0.484137
20
0.579701
11
0.484828
21
0.577803
0
LINE
8
BLACK
6
CONTINUOUS
10
0.484828
20
0.577803
11
0.484828
21
0.547806
0
LINE
8
BLACK
6
CONTINUOUS
10
0.484828
20
0.547806
11
0.484649
21
0.546797
0
LINE
8
BLACK
6
CONTINUOUS
10
0.484649
20
0.546797
11
0.483351
21
0.545249
0
LINE
8
BLACK
6
CONTINUOUS
10
0.483351
20
0.545249
11
0.481362
21
0.544899
0
LINE
8
BLACK
6
CONTINUOUS
10
0.481362
20
0.544899
11
0.479613
21
0.545909
0
LINE
8
BLACK
6
CONTINUOUS
10
0.479613
20
0.545909
11
0.478922
21
0.547806
0
LINE
8
BLACK
6
CONTINUOUS
10
0.478922
20
0.547806
11
0.478922
21
0.577803
0
LINE
8
BLACK
6
CONTINUOUS
10
0.478922
20
0.577803
11
0.4791
21
0.578813
0
LINE
8
BLACK
6
CONTINUOUS
10
0.4791
20
0.578813
11
0.480398
21
0.58036
0
LINE
8
BLACK
6
CONTINUOUS
10
0.480398
20
0.58036
11
0.482388
21
0.580711
0
LINE
8
BLACK
6
CONTINUOUS
10
0.482388
20
0.580711
11
0.484137
21
0.579701
0
LINE
8
BLACK
6
CONTINUOUS
10
1.56351
20
0.579701
11
1.5642
21
0.577803
0
LINE
8
BLACK
6
CONTINUOUS
10
1.5642
20
0.577803
11
1.5642
21
0.547806
0
LINE
8
BLACK
6
CONTINUOUS
10
1.5642
20
0.547806
11
1.56402
21
0.546797
0
LINE
8
BLACK
6
CONTINUOUS
10
1.56402
20
0.546797
11
1.56272
21
0.545249
0
LINE
8
BLACK
6
CONTINUOUS
10
1.56272
20
0.545249
11
1.56073
21
0.544899
0
LINE
8
BLACK
6
CONTINUOUS
10
1.56073
20
0.544899
11
1.55898
21
0.545909
0
LINE
8
BLACK
6
CONTINUOUS
10
1.55898
20
0.545909
11
1.55829
21
0.547806
0
LINE
8
BLACK
6
CONTINUOUS
10
1.55829
20
0.547806
11
1.55829
21
0.577803
0
LINE
8
BLACK
6
CONTINUOUS
10
1.55829
20
0.577803
11
1.55847
21
0.578813
0
LINE
8
BLACK
6
CONTINUOUS
10
1.55847
20
0.578813
11
1.55977
21
0.58036
0
LINE
8
BLACK
6
CONTINUOUS
10
1.55977
20
0.58036
11
1.56176
21
0.580711
0
LINE
8
BLACK
6
CONTINUOUS
10
1.56176
20
0.580711
11
1.56351
21
0.579701
0
LINE
8
BLACK
6
CONTINUOUS
10
1.55101
20
0.610574
11
1.55114
21
0.61046
0
LINE
8
BLACK
6
CONTINUOUS
10
1.55114
20
0.61046
11
1.55132
21
0.61044
0
LINE
8
BLACK
6
CONTINUOUS
10
1.55132
20
0.61044
11
1.55507
21
0.608565
0
LINE
8
BLACK
6
CONTINUOUS
10
1.55507
20
0.608565
11
1.55578
21
0.608039
0
LINE
8
BLACK
6
CONTINUOUS
10
1.55578
20
0.608039
11
1.55583
21
0.608012
0
LINE
8
BLACK
6
CONTINUOUS
10
1.55583
20
0.608012
11
1.55771
21
0.606137
0
LINE
8
BLACK
6
CONTINUOUS
10
1.55771
20
0.606137
11
1.55821
21
0.605414
0
LINE
8
BLACK
6
CONTINUOUS
10
1.55821
20
0.605414
11
1.55826
21
0.60537
0
LINE
8
BLACK
6
CONTINUOUS
10
1.55826
20
0.60537
11
1.56014
21
0.60162
0
LINE
8
BLACK
6
CONTINUOUS
10
1.56014
20
0.60162
11
1.56043
21
0.600638
0
LINE
8
BLACK
6
CONTINUOUS
10
1.56043
20
0.600638
11
1.56039
21
0.600466
0
LINE
8
BLACK
6
CONTINUOUS
10
1.56039
20
0.600466
11
1.56045
21
0.6003
0
LINE
8
BLACK
6
CONTINUOUS
10
1.56045
20
0.6003
11
1.56045
21
0.589051
0
LINE
8
BLACK
6
CONTINUOUS
10
1.56045
20
0.589051
11
1.56027
21
0.588041
0
LINE
8
BLACK
6
CONTINUOUS
10
1.56027
20
0.588041
11
1.56016
21
0.587906
0
LINE
8
BLACK
6
CONTINUOUS
10
1.56016
20
0.587906
11
1.56014
21
0.587731
0
LINE
8
BLACK
6
CONTINUOUS
10
1.56014
20
0.587731
11
1.55826
21
0.583981
0
LINE
8
BLACK
6
CONTINUOUS
10
1.55826
20
0.583981
11
1.55774
21
0.583272
0
LINE
8
BLACK
6
CONTINUOUS
10
1.55774
20
0.583272
11
1.55771
21
0.583214
0
LINE
8
BLACK
6
CONTINUOUS
10
1.55771
20
0.583214
11
1.55583
21
0.581339
0
LINE
8
BLACK
6
CONTINUOUS
10
1.55583
20
0.581339
11
1.55499
21
0.580751
0
LINE
8
BLACK
6
CONTINUOUS
10
1.55499
20
0.580751
11
1.55298
21
0.580575
0
LINE
8
BLACK
6
CONTINUOUS
10
1.55298
20
0.580575
11
1.55133
21
0.581733
0
LINE
8
BLACK
6
CONTINUOUS
10
1.55133
20
0.581733
11
1.5508
21
0.583684
0
LINE
8
BLACK
6
CONTINUOUS
10
1.5508
20
0.583684
11
1.55166
21
0.585515
0
LINE
8
BLACK
6
CONTINUOUS
10
1.55166
20
0.585515
11
1.55319
21
0.587051
0
LINE
8
BLACK
6
CONTINUOUS
10
1.55319
20
0.587051
11
1.55454
21
0.589748
0
LINE
8
BLACK
6
CONTINUOUS
10
1.55454
20
0.589748
11
1.55454
21
0.599603
0
LINE
8
BLACK
6
CONTINUOUS
10
1.55454
20
0.599603
11
1.55319
21
0.6023
0
LINE
8
BLACK
6
CONTINUOUS
10
1.55319
20
0.6023
11
1.552
21
0.603498
0
LINE
8
BLACK
6
CONTINUOUS
10
1.552
20
0.603498
11
1.5493
21
0.604846
0
LINE
8
BLACK
6
CONTINUOUS
10
1.5493
20
0.604846
11
1.54132
21
0.604846
0
LINE
8
BLACK
6
CONTINUOUS
10
1.54132
20
0.604846
11
1.53862
21
0.603498
0
LINE
8
BLACK
6
CONTINUOUS
10
1.53862
20
0.603498
11
1.53742
21
0.6023
0
LINE
8
BLACK
6
CONTINUOUS
10
1.53742
20
0.6023
11
1.53608
21
0.599603
0
LINE
8
BLACK
6
CONTINUOUS
10
1.53608
20
0.599603
11
1.53608
21
0.594676
0
LINE
8
BLACK
6
CONTINUOUS
10
1.53608
20
0.594676
11
1.536
21
0.594238
0
LINE
8
BLACK
6
CONTINUOUS
10
1.536
20
0.594238
11
1.53602
21
0.594103
0
LINE
8
BLACK
6
CONTINUOUS
10
1.53602
20
0.594103
11
1.53596
21
0.593998
0
LINE
8
BLACK
6
CONTINUOUS
10
1.53596
20
0.593998
11
1.5359
21
0.593666
0
LINE
8
BLACK
6
CONTINUOUS
10
1.5359
20
0.593666
11
1.53539
21
0.593056
0
LINE
8
BLACK
6
CONTINUOUS
10
1.53539
20
0.593056
11
1.53497
21
0.592375
0
LINE
8
BLACK
6
CONTINUOUS
10
1.53497
20
0.592375
11
1.53475
21
0.592299
0
LINE
8
BLACK
6
CONTINUOUS
10
1.53475
20
0.592299
11
1.5346
21
0.592118
0
LINE
8
BLACK
6
CONTINUOUS
10
1.5346
20
0.592118
11
1.53382
21
0.59198
0
LINE
8
BLACK
6
CONTINUOUS
10
1.53382
20
0.59198
11
1.53306
21
0.591724
0
LINE
8
BLACK
6
CONTINUOUS
10
1.53306
20
0.591724
11
1.53284
21
0.591809
0
LINE
8
BLACK
6
CONTINUOUS
10
1.53284
20
0.591809
11
1.53261
21
0.591768
0
LINE
8
BLACK
6
CONTINUOUS
10
1.53261
20
0.591768
11
1.53192
21
0.592166
0
LINE
8
BLACK
6
CONTINUOUS
10
1.53192
20
0.592166
11
1.53118
21
0.592453
0
LINE
8
BLACK
6
CONTINUOUS
10
1.53118
20
0.592453
11
1.52108
21
0.601292
0
LINE
8
BLACK
6
CONTINUOUS
10
1.52108
20
0.601292
11
1.52108
21
0.583427
0
LINE
8
BLACK
6
CONTINUOUS
10
1.52108
20
0.583427
11
1.5209
21
0.582417
0
LINE
8
BLACK
6
CONTINUOUS
10
1.5209
20
0.582417
11
1.5196
21
0.58087
0
LINE
8
BLACK
6
CONTINUOUS
10
1.5196
20
0.58087
11
1.51761
21
0.580519
0
LINE
8
BLACK
6
CONTINUOUS
10
1.51761
20
0.580519
11
1.51586
21
0.581529
0
LINE
8
BLACK
6
CONTINUOUS
10
1.51586
20
0.581529
11
1.51517
21
0.583427
0
LINE
8
BLACK
6
CONTINUOUS
10
1.51517
20
0.583427
11
1.51517
21
0.607799
0
LINE
8
BLACK
6
CONTINUOUS
10
1.51517
20
0.607799
11
1.51525
21
0.608236
0
LINE
8
BLACK
6
CONTINUOUS
10
1.51525
20
0.608236
11
1.51523
21
0.608372
0
LINE
8
BLACK
6
CONTINUOUS
10
1.51523
20
0.608372
11
1.51529
21
0.608477
0
LINE
8
BLACK
6
CONTINUOUS
10
1.51529
20
0.608477
11
1.51535
21
0.608809
0
LINE
8
BLACK
6
CONTINUOUS
10
1.51535
20
0.608809
11
1.51586
21
0.609419
0
LINE
8
BLACK
6
CONTINUOUS
10
1.51586
20
0.609419
11
1.51627
21
0.6101
0
LINE
8
BLACK
6
CONTINUOUS
10
1.51627
20
0.6101
11
1.5165
21
0.610176
0
LINE
8
BLACK
6
CONTINUOUS
10
1.5165
20
0.610176
11
1.51665
21
0.610356
0
LINE
8
BLACK
6
CONTINUOUS
10
1.51665
20
0.610356
11
1.51743
21
0.610494
0
LINE
8
BLACK
6
CONTINUOUS
10
1.51743
20
0.610494
11
1.51819
21
0.610751
0
LINE
8
BLACK
6
CONTINUOUS
10
1.51819
20
0.610751
11
1.51841
21
0.610666
0
LINE
8
BLACK
6
CONTINUOUS
10
1.51841
20
0.610666
11
1.51864
21
0.610707
0
LINE
8
BLACK
6
CONTINUOUS
10
1.51864
20
0.610707
11
1.51933
21
0.610309
0
LINE
8
BLACK
6
CONTINUOUS
10
1.51933
20
0.610309
11
1.52007
21
0.610021
0
LINE
8
BLACK
6
CONTINUOUS
10
1.52007
20
0.610021
11
1.53031
21
0.601065
0
LINE
8
BLACK
6
CONTINUOUS
10
1.53031
20
0.601065
11
1.53035
21
0.60131
0
LINE
8
BLACK
6
CONTINUOUS
10
1.53035
20
0.60131
11
1.53046
21
0.601445
0
LINE
8
BLACK
6
CONTINUOUS
10
1.53046
20
0.601445
11
1.53048
21
0.60162
0
LINE
8
BLACK
6
CONTINUOUS
10
1.53048
20
0.60162
11
1.53236
21
0.60537
0
LINE
8
BLACK
6
CONTINUOUS
10
1.53236
20
0.60537
11
1.53288
21
0.606079
0
LINE
8
BLACK
6
CONTINUOUS
10
1.53288
20
0.606079
11
1.53291
21
0.606137
0
LINE
8
BLACK
6
CONTINUOUS
10
1.53291
20
0.606137
11
1.53478
21
0.608012
0
LINE
8
BLACK
6
CONTINUOUS
10
1.53478
20
0.608012
11
1.53551
21
0.608518
0
LINE
8
BLACK
6
CONTINUOUS
10
1.53551
20
0.608518
11
1.53555
21
0.608565
0
LINE
8
BLACK
6
CONTINUOUS
10
1.53555
20
0.608565
11
1.5393
21
0.61044
0
LINE
8
BLACK
6
CONTINUOUS
10
1.5393
20
0.61044
11
1.54028
21
0.610732
0
LINE
8
BLACK
6
CONTINUOUS
10
1.54028
20
0.610732
11
1.54046
21
0.610691
0
LINE
8
BLACK
6
CONTINUOUS
10
1.54046
20
0.610691
11
1.54062
21
0.610752
0
LINE
8
BLACK
6
CONTINUOUS
10
1.54062
20
0.610752
11
1.55
21
0.610752
0
LINE
8
BLACK
6
CONTINUOUS
10
1.55
20
0.610752
11
1.55101
21
0.610574
0
LINE
8
BLACK
6
CONTINUOUS
10
0.471636
20
0.610574
11
0.471771
21
0.61046
0
LINE
8
BLACK
6
CONTINUOUS
10
0.471771
20
0.61046
11
0.471947
21
0.61044
0
LINE
8
BLACK
6
CONTINUOUS
10
0.471947
20
0.61044
11
0.475696
21
0.608565
0
LINE
8
BLACK
6
CONTINUOUS
10
0.475696
20
0.608565
11
0.476405
21
0.608039
0
LINE
8
BLACK
6
CONTINUOUS
10
0.476405
20
0.608039
11
0.476464
21
0.608012
0
LINE
8
BLACK
6
CONTINUOUS
10
0.476464
20
0.608012
11
0.478338
21
0.606137
0
LINE
8
BLACK
6
CONTINUOUS
10
0.478338
20
0.606137
11
0.478845
21
0.605414
0
LINE
8
BLACK
6
CONTINUOUS
10
0.478845
20
0.605414
11
0.478891
21
0.60537
0
LINE
8
BLACK
6
CONTINUOUS
10
0.478891
20
0.60537
11
0.480766
21
0.60162
0
LINE
8
BLACK
6
CONTINUOUS
10
0.480766
20
0.60162
11
0.481059
21
0.600638
0
LINE
8
BLACK
6
CONTINUOUS
10
0.481059
20
0.600638
11
0.481018
21
0.600466
0
LINE
8
BLACK
6
CONTINUOUS
10
0.481018
20
0.600466
11
0.481078
21
0.6003
0
LINE
8
BLACK
6
CONTINUOUS
10
0.481078
20
0.6003
11
0.481078
21
0.589051
0
LINE
8
BLACK
6
CONTINUOUS
10
0.481078
20
0.589051
11
0.4809
21
0.588041
0
LINE
8
BLACK
6
CONTINUOUS
10
0.4809
20
0.588041
11
0.480786
21
0.587906
0
LINE
8
BLACK
6
CONTINUOUS
10
0.480786
20
0.587906
11
0.480766
21
0.587731
0
LINE
8
BLACK
6
CONTINUOUS
10
0.480766
20
0.587731
11
0.478891
21
0.583981
0
LINE
8
BLACK
6
CONTINUOUS
10
0.478891
20
0.583981
11
0.478366
21
0.583272
0
LINE
8
BLACK
6
CONTINUOUS
10
0.478366
20
0.583272
11
0.478338
21
0.583214
0
LINE
8
BLACK
6
CONTINUOUS
10
0.478338
20
0.583214
11
0.476464
21
0.581339
0
LINE
8
BLACK
6
CONTINUOUS
10
0.476464
20
0.581339
11
0.475624
21
0.580751
0
LINE
8
BLACK
6
CONTINUOUS
10
0.475624
20
0.580751
11
0.473611
21
0.580575
0
LINE
8
BLACK
6
CONTINUOUS
10
0.473611
20
0.580575
11
0.471957
21
0.581733
0
LINE
8
BLACK
6
CONTINUOUS
10
0.471957
20
0.581733
11
0.471434
21
0.583684
0
LINE
8
BLACK
6
CONTINUOUS
10
0.471434
20
0.583684
11
0.472288
21
0.585515
0
LINE
8
BLACK
6
CONTINUOUS
10
0.472288
20
0.585515
11
0.473824
21
0.587051
0
LINE
8
BLACK
6
CONTINUOUS
10
0.473824
20
0.587051
11
0.475172
21
0.589748
0
LINE
8
BLACK
6
CONTINUOUS
10
0.475172
20
0.589748
11
0.475172
21
0.599603
0
LINE
8
BLACK
6
CONTINUOUS
10
0.475172
20
0.599603
11
0.473824
21
0.6023
0
LINE
8
BLACK
6
CONTINUOUS
10
0.473824
20
0.6023
11
0.472627
21
0.603498
0
LINE
8
BLACK
6
CONTINUOUS
10
0.472627
20
0.603498
11
0.469929
21
0.604846
0
LINE
8
BLACK
6
CONTINUOUS
10
0.469929
20
0.604846
11
0.461949
21
0.604846
0
LINE
8
BLACK
6
CONTINUOUS
10
0.461949
20
0.604846
11
0.459252
21
0.603498
0
LINE
8
BLACK
6
CONTINUOUS
10
0.459252
20
0.603498
11
0.458055
21
0.6023
0
LINE
8
BLACK
6
CONTINUOUS
10
0.458055
20
0.6023
11
0.456706
21
0.599603
0
LINE
8
BLACK
6
CONTINUOUS
10
0.456706
20
0.599603
11
0.456706
21
0.594676
0
LINE
8
BLACK
6
CONTINUOUS
10
0.456706
20
0.594676
11
0.456629
21
0.594238
0
LINE
8
BLACK
6
CONTINUOUS
10
0.456629
20
0.594238
11
0.45665
21
0.594103
0
LINE
8
BLACK
6
CONTINUOUS
10
0.45665
20
0.594103
11
0.456587
21
0.593998
0
LINE
8
BLACK
6
CONTINUOUS
10
0.456587
20
0.593998
11
0.456528
21
0.593666
0
LINE
8
BLACK
6
CONTINUOUS
10
0.456528
20
0.593666
11
0.456016
21
0.593056
0
LINE
8
BLACK
6
CONTINUOUS
10
0.456016
20
0.593056
11
0.455604
21
0.592375
0
LINE
8
BLACK
6
CONTINUOUS
10
0.455604
20
0.592375
11
0.455381
21
0.592299
0
LINE
8
BLACK
6
CONTINUOUS
10
0.455381
20
0.592299
11
0.45523
21
0.592118
0
LINE
8
BLACK
6
CONTINUOUS
10
0.45523
20
0.592118
11
0.454446
21
0.59198
0
LINE
8
BLACK
6
CONTINUOUS
10
0.454446
20
0.59198
11
0.453692
21
0.591724
0
LINE
8
BLACK
6
CONTINUOUS
10
0.453692
20
0.591724
11
0.453473
21
0.591809
0
LINE
8
BLACK
6
CONTINUOUS
10
0.453473
20
0.591809
11
0.453241
21
0.591768
0
LINE
8
BLACK
6
CONTINUOUS
10
0.453241
20
0.591768
11
0.452551
21
0.592166
0
LINE
8
BLACK
6
CONTINUOUS
10
0.452551
20
0.592166
11
0.451809
21
0.592453
0
LINE
8
BLACK
6
CONTINUOUS
10
0.451809
20
0.592453
11
0.441708
21
0.601292
0
LINE
8
BLACK
6
CONTINUOUS
10
0.441708
20
0.601292
11
0.441708
21
0.583427
0
LINE
8
BLACK
6
CONTINUOUS
10
0.441708
20
0.583427
11
0.44153
21
0.582417
0
LINE
8
BLACK
6
CONTINUOUS
10
0.44153
20
0.582417
11
0.440231
21
0.58087
0
LINE
8
BLACK
6
CONTINUOUS
10
0.440231
20
0.58087
11
0.438242
21
0.580519
0
LINE
8
BLACK
6
CONTINUOUS
10
0.438242
20
0.580519
11
0.436493
21
0.581529
0
LINE
8
BLACK
6
CONTINUOUS
10
0.436493
20
0.581529
11
0.435802
21
0.583427
0
LINE
8
BLACK
6
CONTINUOUS
10
0.435802
20
0.583427
11
0.435802
21
0.607799
0
LINE
8
BLACK
6
CONTINUOUS
10
0.435802
20
0.607799
11
0.435879
21
0.608236
0
LINE
8
BLACK
6
CONTINUOUS
10
0.435879
20
0.608236
11
0.435858
21
0.608372
0
LINE
8
BLACK
6
CONTINUOUS
10
0.435858
20
0.608372
11
0.435922
21
0.608477
0
LINE
8
BLACK
6
CONTINUOUS
10
0.435922
20
0.608477
11
0.43598
21
0.608809
0
LINE
8
BLACK
6
CONTINUOUS
10
0.43598
20
0.608809
11
0.436492
21
0.609419
0
LINE
8
BLACK
6
CONTINUOUS
10
0.436492
20
0.609419
11
0.436904
21
0.6101
0
LINE
8
BLACK
6
CONTINUOUS
10
0.436904
20
0.6101
11
0.437127
21
0.610176
0
LINE
8
BLACK
6
CONTINUOUS
10
0.437127
20
0.610176
11
0.437279
21
0.610356
0
LINE
8
BLACK
6
CONTINUOUS
10
0.437279
20
0.610356
11
0.438063
21
0.610494
0
LINE
8
BLACK
6
CONTINUOUS
10
0.438063
20
0.610494
11
0.438816
21
0.610751
0
LINE
8
BLACK
6
CONTINUOUS
10
0.438816
20
0.610751
11
0.439036
21
0.610666
0
LINE
8
BLACK
6
CONTINUOUS
10
0.439036
20
0.610666
11
0.439268
21
0.610707
0
LINE
8
BLACK
6
CONTINUOUS
10
0.439268
20
0.610707
11
0.439957
21
0.610309
0
LINE
8
BLACK
6
CONTINUOUS
10
0.439957
20
0.610309
11
0.4407
21
0.610021
0
LINE
8
BLACK
6
CONTINUOUS
10
0.4407
20
0.610021
11
0.450935
21
0.601065
0
LINE
8
BLACK
6
CONTINUOUS
10
0.450935
20
0.601065
11
0.450979
21
0.60131
0
LINE
8
BLACK
6
CONTINUOUS
10
0.450979
20
0.60131
11
0.451092
21
0.601445
0
LINE
8
BLACK
6
CONTINUOUS
10
0.451092
20
0.601445
11
0.451112
21
0.60162
0
LINE
8
BLACK
6
CONTINUOUS
10
0.451112
20
0.60162
11
0.452987
21
0.60537
0
LINE
8
BLACK
6
CONTINUOUS
10
0.452987
20
0.60537
11
0.453513
21
0.606079
0
LINE
8
BLACK
6
CONTINUOUS
10
0.453513
20
0.606079
11
0.45354
21
0.606137
0
LINE
8
BLACK
6
CONTINUOUS
10
0.45354
20
0.606137
11
0.455415
21
0.608012
0
LINE
8
BLACK
6
CONTINUOUS
10
0.455415
20
0.608012
11
0.456138
21
0.608518
0
LINE
8
BLACK
6
CONTINUOUS
10
0.456138
20
0.608518
11
0.456182
21
0.608565
0
LINE
8
BLACK
6
CONTINUOUS
10
0.456182
20
0.608565
11
0.459932
21
0.61044
0
LINE
8
BLACK
6
CONTINUOUS
10
0.459932
20
0.61044
11
0.460915
21
0.610732
0
LINE
8
BLACK
6
CONTINUOUS
10
0.460915
20
0.610732
11
0.461086
21
0.610691
0
LINE
8
BLACK
6
CONTINUOUS
10
0.461086
20
0.610691
11
0.461252
21
0.610752
0
LINE
8
BLACK
6
CONTINUOUS
10
0.461252
20
0.610752
11
0.470626
21
0.610752
0
LINE
8
BLACK
6
CONTINUOUS
10
0.470626
20
0.610752
11
0.471636
21
0.610574
0
LINE
8
BLACK
6
CONTINUOUS
10
1.55583
20
0.738661
11
1.55771
21
0.736786
0
LINE
8
BLACK
6
CONTINUOUS
10
1.55771
20
0.736786
11
1.5583
21
0.735946
0
LINE
8
BLACK
6
CONTINUOUS
10
1.5583
20
0.735946
11
1.55831
21
0.73577
0
LINE
8
BLACK
6
CONTINUOUS
10
1.55831
20
0.73577
11
1.55842
21
0.735632
0
LINE
8
BLACK
6
CONTINUOUS
10
1.55842
20
0.735632
11
1.5603
21
0.730008
0
LINE
8
BLACK
6
CONTINUOUS
10
1.5603
20
0.730008
11
1.56043
21
0.729134
0
LINE
8
BLACK
6
CONTINUOUS
10
1.56043
20
0.729134
11
1.56045
21
0.729074
0
LINE
8
BLACK
6
CONTINUOUS
10
1.56045
20
0.729074
11
1.56045
21
0.725324
0
LINE
8
BLACK
6
CONTINUOUS
10
1.56045
20
0.725324
11
1.56029
21
0.724455
0
LINE
8
BLACK
6
CONTINUOUS
10
1.56029
20
0.724455
11
1.5603
21
0.724391
0
LINE
8
BLACK
6
CONTINUOUS
10
1.5603
20
0.724391
11
1.55842
21
0.718766
0
LINE
8
BLACK
6
CONTINUOUS
10
1.55842
20
0.718766
11
1.55793
21
0.717864
0
LINE
8
BLACK
6
CONTINUOUS
10
1.55793
20
0.717864
11
1.55778
21
0.717772
0
LINE
8
BLACK
6
CONTINUOUS
10
1.55778
20
0.717772
11
1.55771
21
0.717612
0
LINE
8
BLACK
6
CONTINUOUS
10
1.55771
20
0.717612
11
1.55396
21
0.713863
0
LINE
8
BLACK
6
CONTINUOUS
10
1.55396
20
0.713863
11
1.55324
21
0.713356
0
LINE
8
BLACK
6
CONTINUOUS
10
1.55324
20
0.713356
11
1.55319
21
0.713309
0
LINE
8
BLACK
6
CONTINUOUS
10
1.55319
20
0.713309
11
1.54944
21
0.711435
0
LINE
8
BLACK
6
CONTINUOUS
10
1.54944
20
0.711435
11
1.54895
21
0.711289
0
LINE
8
BLACK
6
CONTINUOUS
10
1.54895
20
0.711289
11
1.54884
21
0.711211
0
LINE
8
BLACK
6
CONTINUOUS
10
1.54884
20
0.711211
11
1.54134
21
0.709336
0
LINE
8
BLACK
6
CONTINUOUS
10
1.54134
20
0.709336
11
1.54075
21
0.709295
0
LINE
8
BLACK
6
CONTINUOUS
10
1.54075
20
0.709295
11
1.54062
21
0.709248
0
LINE
8
BLACK
6
CONTINUOUS
10
1.54062
20
0.709248
11
1.535
21
0.709248
0
LINE
8
BLACK
6
CONTINUOUS
10
1.535
20
0.709248
11
1.53442
21
0.709351
0
LINE
8
BLACK
6
CONTINUOUS
10
1.53442
20
0.709351
11
1.53428
21
0.709336
0
LINE
8
BLACK
6
CONTINUOUS
10
1.53428
20
0.709336
11
1.52678
21
0.711211
0
LINE
8
BLACK
6
CONTINUOUS
10
1.52678
20
0.711211
11
1.52632
21
0.711419
0
LINE
8
BLACK
6
CONTINUOUS
10
1.52632
20
0.711419
11
1.52618
21
0.711435
0
LINE
8
BLACK
6
CONTINUOUS
10
1.52618
20
0.711435
11
1.52243
21
0.713309
0
LINE
8
BLACK
6
CONTINUOUS
10
1.52243
20
0.713309
11
1.52172
21
0.713835
0
LINE
8
BLACK
6
CONTINUOUS
10
1.52172
20
0.713835
11
1.52166
21
0.713863
0
LINE
8
BLACK
6
CONTINUOUS
10
1.52166
20
0.713863
11
1.51791
21
0.717612
0
LINE
8
BLACK
6
CONTINUOUS
10
1.51791
20
0.717612
11
1.51732
21
0.718452
0
LINE
8
BLACK
6
CONTINUOUS
10
1.51732
20
0.718452
11
1.51731
21
0.718628
0
LINE
8
BLACK
6
CONTINUOUS
10
1.51731
20
0.718628
11
1.5172
21
0.718766
0
LINE
8
BLACK
6
CONTINUOUS
10
1.5172
20
0.718766
11
1.51532
21
0.724391
0
LINE
8
BLACK
6
CONTINUOUS
10
1.51532
20
0.724391
11
1.51519
21
0.725264
0
LINE
8
BLACK
6
CONTINUOUS
10
1.51519
20
0.725264
11
1.51517
21
0.725324
0
LINE
8
BLACK
6
CONTINUOUS
10
1.51517
20
0.725324
11
1.51517
21
0.729074
0
LINE
8
BLACK
6
CONTINUOUS
10
1.51517
20
0.729074
11
1.51533
21
0.729943
0
LINE
8
BLACK
6
CONTINUOUS
10
1.51533
20
0.729943
11
1.51532
21
0.730008
0
LINE
8
BLACK
6
CONTINUOUS
10
1.51532
20
0.730008
11
1.5172
21
0.735632
0
LINE
8
BLACK
6
CONTINUOUS
10
1.5172
20
0.735632
11
1.51769
21
0.736534
0
LINE
8
BLACK
6
CONTINUOUS
10
1.51769
20
0.736534
11
1.51784
21
0.736626
0
LINE
8
BLACK
6
CONTINUOUS
10
1.51784
20
0.736626
11
1.51791
21
0.736786
0
LINE
8
BLACK
6
CONTINUOUS
10
1.51791
20
0.736786
11
1.51979
21
0.738661
0
LINE
8
BLACK
6
CONTINUOUS
10
1.51979
20
0.738661
11
1.52063
21
0.739249
0
LINE
8
BLACK
6
CONTINUOUS
10
1.52063
20
0.739249
11
1.52264
21
0.739425
0
LINE
8
BLACK
6
CONTINUOUS
10
1.52264
20
0.739425
11
1.52429
21
0.738267
0
LINE
8
BLACK
6
CONTINUOUS
10
1.52429
20
0.738267
11
1.52482
21
0.736316
0
LINE
8
BLACK
6
CONTINUOUS
10
1.52482
20
0.736316
11
1.52396
21
0.734485
0
LINE
8
BLACK
6
CONTINUOUS
10
1.52396
20
0.734485
11
1.52258
21
0.733103
0
LINE
8
BLACK
6
CONTINUOUS
10
1.52258
20
0.733103
11
1.52108
21
0.728595
0
LINE
8
BLACK
6
CONTINUOUS
10
1.52108
20
0.728595
11
1.52108
21
0.725803
0
LINE
8
BLACK
6
CONTINUOUS
10
1.52108
20
0.725803
11
1.52258
21
0.721295
0
LINE
8
BLACK
6
CONTINUOUS
10
1.52258
20
0.721295
11
1.5255
21
0.718377
0
LINE
8
BLACK
6
CONTINUOUS
10
1.5255
20
0.718377
11
1.52853
21
0.716862
0
LINE
8
BLACK
6
CONTINUOUS
10
1.52853
20
0.716862
11
1.53536
21
0.715154
0
LINE
8
BLACK
6
CONTINUOUS
10
1.53536
20
0.715154
11
1.54026
21
0.715154
0
LINE
8
BLACK
6
CONTINUOUS
10
1.54026
20
0.715154
11
1.54709
21
0.716862
0
LINE
8
BLACK
6
CONTINUOUS
10
1.54709
20
0.716862
11
1.55012
21
0.718377
0
LINE
8
BLACK
6
CONTINUOUS
10
1.55012
20
0.718377
11
1.55304
21
0.721295
0
LINE
8
BLACK
6
CONTINUOUS
10
1.55304
20
0.721295
11
1.55454
21
0.725803
0
LINE
8
BLACK
6
CONTINUOUS
10
1.55454
20
0.725803
11
1.55454
21
0.728595
0
LINE
8
BLACK
6
CONTINUOUS
10
1.55454
20
0.728595
11
1.55304
21
0.733103
0
LINE
8
BLACK
6
CONTINUOUS
10
1.55304
20
0.733103
11
1.55166
21
0.734485
0
LINE
8
BLACK
6
CONTINUOUS
10
1.55166
20
0.734485
11
1.55107
21
0.735325
0
LINE
8
BLACK
6
CONTINUOUS
10
1.55107
20
0.735325
11
1.55089
21
0.737337
0
LINE
8
BLACK
6
CONTINUOUS
10
1.55089
20
0.737337
11
1.55205
21
0.738992
0
LINE
8
BLACK
6
CONTINUOUS
10
1.55205
20
0.738992
11
1.554
21
0.739514
0
LINE
8
BLACK
6
CONTINUOUS
10
1.554
20
0.739514
11
1.55583
21
0.738661
0
LINE
8
BLACK
6
CONTINUOUS
10
0.476464
20
0.738661
11
0.478338
21
0.736786
0
LINE
8
BLACK
6
CONTINUOUS
10
0.478338
20
0.736786
11
0.478927
21
0.735946
0
LINE
8
BLACK
6
CONTINUOUS
10
0.478927
20
0.735946
11
0.478942
21
0.73577
0
LINE
8
BLACK
6
CONTINUOUS
10
0.478942
20
0.73577
11
0.479052
21
0.735632
0
LINE
8
BLACK
6
CONTINUOUS
10
0.479052
20
0.735632
11
0.480926
21
0.730008
0
LINE
8
BLACK
6
CONTINUOUS
10
0.480926
20
0.730008
11
0.481056
21
0.729134
0
LINE
8
BLACK
6
CONTINUOUS
10
0.481056
20
0.729134
11
0.481078
21
0.729074
0
LINE
8
BLACK
6
CONTINUOUS
10
0.481078
20
0.729074
11
0.481078
21
0.725324
0
LINE
8
BLACK
6
CONTINUOUS
10
0.481078
20
0.725324
11
0.480925
21
0.724455
0
LINE
8
BLACK
6
CONTINUOUS
10
0.480925
20
0.724455
11
0.480926
21
0.724391
0
LINE
8
BLACK
6
CONTINUOUS
10
0.480926
20
0.724391
11
0.479052
21
0.718766
0
LINE
8
BLACK
6
CONTINUOUS
10
0.479052
20
0.718766
11
0.478563
21
0.717864
0
LINE
8
BLACK
6
CONTINUOUS
10
0.478563
20
0.717864
11
0.478413
21
0.717772
0
LINE
8
BLACK
6
CONTINUOUS
10
0.478413
20
0.717772
11
0.478338
21
0.717612
0
LINE
8
BLACK
6
CONTINUOUS
10
0.478338
20
0.717612
11
0.474589
21
0.713863
0
LINE
8
BLACK
6
CONTINUOUS
10
0.474589
20
0.713863
11
0.473866
21
0.713356
0
LINE
8
BLACK
6
CONTINUOUS
10
0.473866
20
0.713356
11
0.473821
21
0.713309
0
LINE
8
BLACK
6
CONTINUOUS
10
0.473821
20
0.713309
11
0.470072
21
0.711435
0
LINE
8
BLACK
6
CONTINUOUS
10
0.470072
20
0.711435
11
0.469583
21
0.711289
0
LINE
8
BLACK
6
CONTINUOUS
10
0.469583
20
0.711289
11
0.469468
21
0.711211
0
LINE
8
BLACK
6
CONTINUOUS
10
0.469468
20
0.711211
11
0.461968
21
0.709336
0
LINE
8
BLACK
6
CONTINUOUS
10
0.461968
20
0.709336
11
0.461381
21
0.709295
0
LINE
8
BLACK
6
CONTINUOUS
10
0.461381
20
0.709295
11
0.461252
21
0.709248
0
LINE
8
BLACK
6
CONTINUOUS
10
0.461252
20
0.709248
11
0.455628
21
0.709248
0
LINE
8
BLACK
6
CONTINUOUS
10
0.455628
20
0.709248
11
0.455048
21
0.709351
0
LINE
8
BLACK
6
CONTINUOUS
10
0.455048
20
0.709351
11
0.454912
21
0.709336
0
LINE
8
BLACK
6
CONTINUOUS
10
0.454912
20
0.709336
11
0.447413
21
0.711211
0
LINE
8
BLACK
6
CONTINUOUS
10
0.447413
20
0.711211
11
0.446947
21
0.711419
0
LINE
8
BLACK
6
CONTINUOUS
10
0.446947
20
0.711419
11
0.446808
21
0.711435
0
LINE
8
BLACK
6
CONTINUOUS
10
0.446808
20
0.711435
11
0.443059
21
0.713309
0
LINE
8
BLACK
6
CONTINUOUS
10
0.443059
20
0.713309
11
0.44235
21
0.713835
0
LINE
8
BLACK
6
CONTINUOUS
10
0.44235
20
0.713835
11
0.442292
21
0.713863
0
LINE
8
BLACK
6
CONTINUOUS
10
0.442292
20
0.713863
11
0.438542
21
0.717612
0
LINE
8
BLACK
6
CONTINUOUS
10
0.438542
20
0.717612
11
0.437954
21
0.718452
0
LINE
8
BLACK
6
CONTINUOUS
10
0.437954
20
0.718452
11
0.437938
21
0.718628
0
LINE
8
BLACK
6
CONTINUOUS
10
0.437938
20
0.718628
11
0.437829
21
0.718766
0
LINE
8
BLACK
6
CONTINUOUS
10
0.437829
20
0.718766
11
0.435954
21
0.724391
0
LINE
8
BLACK
6
CONTINUOUS
10
0.435954
20
0.724391
11
0.435824
21
0.725264
0
LINE
8
BLACK
6
CONTINUOUS
10
0.435824
20
0.725264
11
0.435802
21
0.725324
0
LINE
8
BLACK
6
CONTINUOUS
10
0.435802
20
0.725324
11
0.435802
21
0.729074
0
LINE
8
BLACK
6
CONTINUOUS
10
0.435802
20
0.729074
11
0.435956
21
0.729943
0
LINE
8
BLACK
6
CONTINUOUS
10
0.435956
20
0.729943
11
0.435954
21
0.730008
0
LINE
8
BLACK
6
CONTINUOUS
10
0.435954
20
0.730008
11
0.437829
21
0.735632
0
LINE
8
BLACK
6
CONTINUOUS
10
0.437829
20
0.735632
11
0.438317
21
0.736534
0
LINE
8
BLACK
6
CONTINUOUS
10
0.438317
20
0.736534
11
0.438467
21
0.736626
0
LINE
8
BLACK
6
CONTINUOUS
10
0.438467
20
0.736626
11
0.438542
21
0.736786
0
LINE
8
BLACK
6
CONTINUOUS
10
0.438542
20
0.736786
11
0.440417
21
0.738661
0
LINE
8
BLACK
6
CONTINUOUS
10
0.440417
20
0.738661
11
0.441257
21
0.739249
0
LINE
8
BLACK
6
CONTINUOUS
10
0.441257
20
0.739249
11
0.443269
21
0.739425
0
LINE
8
BLACK
6
CONTINUOUS
10
0.443269
20
0.739425
11
0.444923
21
0.738267
0
LINE
8
BLACK
6
CONTINUOUS
10
0.444923
20
0.738267
11
0.445446
21
0.736316
0
LINE
8
BLACK
6
CONTINUOUS
10
0.445446
20
0.736316
11
0.444593
21
0.734485
0
LINE
8
BLACK
6
CONTINUOUS
10
0.444593
20
0.734485
11
0.443211
21
0.733103
0
LINE
8
BLACK
6
CONTINUOUS
10
0.443211
20
0.733103
11
0.441708
21
0.728595
0
LINE
8
BLACK
6
CONTINUOUS
10
0.441708
20
0.728595
11
0.441708
21
0.725803
0
LINE
8
BLACK
6
CONTINUOUS
10
0.441708
20
0.725803
11
0.443211
21
0.721295
0
LINE
8
BLACK
6
CONTINUOUS
10
0.443211
20
0.721295
11
0.446129
21
0.718377
0
LINE
8
BLACK
6
CONTINUOUS
10
0.446129
20
0.718377
11
0.44916
21
0.716862
0
LINE
8
BLACK
6
CONTINUOUS
10
0.44916
20
0.716862
11
0.455992
21
0.715154
0
LINE
8
BLACK
6
CONTINUOUS
10
0.455992
20
0.715154
11
0.460889
21
0.715154
0
LINE
8
BLACK
6
CONTINUOUS
10
0.460889
20
0.715154
11
0.467721
21
0.716862
0
LINE
8
BLACK
6
CONTINUOUS
10
0.467721
20
0.716862
11
0.470752
21
0.718377
0
LINE
8
BLACK
6
CONTINUOUS
10
0.470752
20
0.718377
11
0.47367
21
0.721295
0
LINE
8
BLACK
6
CONTINUOUS
10
0.47367
20
0.721295
11
0.475172
21
0.725803
0
LINE
8
BLACK
6
CONTINUOUS
10
0.475172
20
0.725803
11
0.475172
21
0.728595
0
LINE
8
BLACK
6
CONTINUOUS
10
0.475172
20
0.728595
11
0.47367
21
0.733103
0
LINE
8
BLACK
6
CONTINUOUS
10
0.47367
20
0.733103
11
0.472288
21
0.734485
0
LINE
8
BLACK
6
CONTINUOUS
10
0.472288
20
0.734485
11
0.4717
21
0.735325
0
LINE
8
BLACK
6
CONTINUOUS
10
0.4717
20
0.735325
11
0.471524
21
0.737337
0
LINE
8
BLACK
6
CONTINUOUS
10
0.471524
20
0.737337
11
0.472682
21
0.738992
0
LINE
8
BLACK
6
CONTINUOUS
10
0.472682
20
0.738992
11
0.474633
21
0.739514
0
LINE
8
BLACK
6
CONTINUOUS
10
0.474633
20
0.739514
11
0.476464
21
0.738661
0
LINE
8
BLACK
6
CONTINUOUS
10
0.465582
20
0.780668
11
0.465718
21
0.780682
0
LINE
8
BLACK
6
CONTINUOUS
10
0.465718
20
0.780682
11
0.473217
21
0.778808
0
LINE
8
BLACK
6
CONTINUOUS
10
0.473217
20
0.778808
11
0.474154
21
0.77839
0
LINE
8
BLACK
6
CONTINUOUS
10
0.474154
20
0.77839
11
0.474325
21
0.778154
0
LINE
8
BLACK
6
CONTINUOUS
10
0.474325
20
0.778154
11
0.474589
21
0.778031
0
LINE
8
BLACK
6
CONTINUOUS
10
0.474589
20
0.778031
11
0.478338
21
0.774281
0
LINE
8
BLACK
6
CONTINUOUS
10
0.478338
20
0.774281
11
0.478845
21
0.773558
0
LINE
8
BLACK
6
CONTINUOUS
10
0.478845
20
0.773558
11
0.478891
21
0.773514
0
LINE
8
BLACK
6
CONTINUOUS
10
0.478891
20
0.773514
11
0.480766
21
0.769764
0
LINE
8
BLACK
6
CONTINUOUS
10
0.480766
20
0.769764
11
0.481059
21
0.768782
0
LINE
8
BLACK
6
CONTINUOUS
10
0.481059
20
0.768782
11
0.481018
21
0.76861
0
LINE
8
BLACK
6
CONTINUOUS
10
0.481018
20
0.76861
11
0.481078
21
0.768444
0
LINE
8
BLACK
6
CONTINUOUS
10
0.481078
20
0.768444
11
0.481078
21
0.760945
0
LINE
8
BLACK
6
CONTINUOUS
10
0.481078
20
0.760945
11
0.4809
21
0.759935
0
LINE
8
BLACK
6
CONTINUOUS
10
0.4809
20
0.759935
11
0.480786
21
0.7598
0
LINE
8
BLACK
6
CONTINUOUS
10
0.480786
20
0.7598
11
0.480766
21
0.759624
0
LINE
8
BLACK
6
CONTINUOUS
10
0.480766
20
0.759624
11
0.478891
21
0.755875
0
LINE
8
BLACK
6
CONTINUOUS
10
0.478891
20
0.755875
11
0.478366
21
0.755166
0
LINE
8
BLACK
6
CONTINUOUS
10
0.478366
20
0.755166
11
0.478338
21
0.755107
0
LINE
8
BLACK
6
CONTINUOUS
10
0.478338
20
0.755107
11
0.474589
21
0.751358
0
LINE
8
BLACK
6
CONTINUOUS
10
0.474589
20
0.751358
11
0.473749
21
0.75077
0
LINE
8
BLACK
6
CONTINUOUS
10
0.473749
20
0.75077
11
0.473459
21
0.750744
0
LINE
8
BLACK
6
CONTINUOUS
10
0.473459
20
0.750744
11
0.473217
21
0.750581
0
LINE
8
BLACK
6
CONTINUOUS
10
0.473217
20
0.750581
11
0.465718
21
0.748706
0
LINE
8
BLACK
6
CONTINUOUS
10
0.465718
20
0.748706
11
0.46513
21
0.748665
0
LINE
8
BLACK
6
CONTINUOUS
10
0.46513
20
0.748665
11
0.465002
21
0.748618
0
LINE
8
BLACK
6
CONTINUOUS
10
0.465002
20
0.748618
11
0.451879
21
0.748618
0
LINE
8
BLACK
6
CONTINUOUS
10
0.451879
20
0.748618
11
0.451298
21
0.748721
0
LINE
8
BLACK
6
CONTINUOUS
10
0.451298
20
0.748721
11
0.451162
21
0.748706
0
LINE
8
BLACK
6
CONTINUOUS
10
0.451162
20
0.748706
11
0.443663
21
0.750581
0
LINE
8
BLACK
6
CONTINUOUS
10
0.443663
20
0.750581
11
0.442727
21
0.750999
0
LINE
8
BLACK
6
CONTINUOUS
10
0.442727
20
0.750999
11
0.442556
21
0.751235
0
LINE
8
BLACK
6
CONTINUOUS
10
0.442556
20
0.751235
11
0.442292
21
0.751358
0
LINE
8
BLACK
6
CONTINUOUS
10
0.442292
20
0.751358
11
0.438542
21
0.755107
0
LINE
8
BLACK
6
CONTINUOUS
10
0.438542
20
0.755107
11
0.438036
21
0.75583
0
LINE
8
BLACK
6
CONTINUOUS
10
0.438036
20
0.75583
11
0.437989
21
0.755875
0
LINE
8
BLACK
6
CONTINUOUS
10
0.437989
20
0.755875
11
0.436114
21
0.759624
0
LINE
8
BLACK
6
CONTINUOUS
10
0.436114
20
0.759624
11
0.435822
21
0.760607
0
LINE
8
BLACK
6
CONTINUOUS
10
0.435822
20
0.760607
11
0.435863
21
0.760779
0
LINE
8
BLACK
6
CONTINUOUS
10
0.435863
20
0.760779
11
0.435802
21
0.760945
0
LINE
8
BLACK
6
CONTINUOUS
10
0.435802
20
0.760945
11
0.435802
21
0.768444
0
LINE
8
BLACK
6
CONTINUOUS
10
0.435802
20
0.768444
11
0.43598
21
0.769454
0
LINE
8
BLACK
6
CONTINUOUS
10
0.43598
20
0.769454
11
0.436094
21
0.769589
0
LINE
8
BLACK
6
CONTINUOUS
10
0.436094
20
0.769589
11
0.436114
21
0.769764
0
LINE
8
BLACK
6
CONTINUOUS
10
0.436114
20
0.769764
11
0.437989
21
0.773514
0
LINE
8
BLACK
6
CONTINUOUS
10
0.437989
20
0.773514
11
0.438515
21
0.774223
0
LINE
8
BLACK
6
CONTINUOUS
10
0.438515
20
0.774223
11
0.438542
21
0.774281
0
LINE
8
BLACK
6
CONTINUOUS
10
0.438542
20
0.774281
11
0.442292
21
0.778031
0
LINE
8
BLACK
6
CONTINUOUS
10
0.442292
20
0.778031
11
0.443132
21
0.778619
0
LINE
8
BLACK
6
CONTINUOUS
10
0.443132
20
0.778619
11
0.443422
21
0.778645
0
LINE
8
BLACK
6
CONTINUOUS
10
0.443422
20
0.778645
11
0.443663
21
0.778808
0
LINE
8
BLACK
6
CONTINUOUS
10
0.443663
20
0.778808
11
0.451162
21
0.780682
0
LINE
8
BLACK
6
CONTINUOUS
10
0.451162
20
0.780682
11
0.45175
21
0.780724
0
LINE
8
BLACK
6
CONTINUOUS
10
0.45175
20
0.780724
11
0.451879
21
0.780771
0
LINE
8
BLACK
6
CONTINUOUS
10
0.451879
20
0.780771
11
0.465002
21
0.780771
0
LINE
8
BLACK
6
CONTINUOUS
10
0.465002
20
0.780771
11
0.465582
21
0.780668
0
LINE
8
BLACK
6
CONTINUOUS
10
0.452242
20
0.774865
11
0.445889
21
0.773277
0
LINE
8
BLACK
6
CONTINUOUS
10
0.445889
20
0.773277
11
0.443057
21
0.770444
0
LINE
8
BLACK
6
CONTINUOUS
10
0.443057
20
0.770444
11
0.441708
21
0.767747
0
LINE
8
BLACK
6
CONTINUOUS
10
0.441708
20
0.767747
11
0.441708
21
0.761642
0
LINE
8
BLACK
6
CONTINUOUS
10
0.441708
20
0.761642
11
0.443057
21
0.758944
0
LINE
8
BLACK
6
CONTINUOUS
10
0.443057
20
0.758944
11
0.445889
21
0.756112
0
LINE
8
BLACK
6
CONTINUOUS
10
0.445889
20
0.756112
11
0.452242
21
0.754524
0
LINE
8
BLACK
6
CONTINUOUS
10
0.452242
20
0.754524
11
0.464638
21
0.754524
0
LINE
8
BLACK
6
CONTINUOUS
10
0.464638
20
0.754524
11
0.470991
21
0.756112
0
LINE
8
BLACK
6
CONTINUOUS
10
0.470991
20
0.756112
11
0.473824
21
0.758944
0
LINE
8
BLACK
6
CONTINUOUS
10
0.473824
20
0.758944
11
0.475172
21
0.761642
0
LINE
8
BLACK
6
CONTINUOUS
10
0.475172
20
0.761642
11
0.475172
21
0.767747
0
LINE
8
BLACK
6
CONTINUOUS
10
0.475172
20
0.767747
11
0.473824
21
0.770444
0
LINE
8
BLACK
6
CONTINUOUS
10
0.473824
20
0.770444
11
0.470991
21
0.773277
0
LINE
8
BLACK
6
CONTINUOUS
10
0.470991
20
0.773277
11
0.464638
21
0.774865
0
LINE
8
BLACK
6
CONTINUOUS
10
0.464638
20
0.774865
11
0.452242
21
0.774865
0
LINE
8
BLACK
6
CONTINUOUS
10
1.54495
20
0.780668
11
1.54509
21
0.780682
0
LINE
8
BLACK
6
CONTINUOUS
10
1.54509
20
0.780682
11
1.55259
21
0.778808
0
LINE
8
BLACK
6
CONTINUOUS
10
1.55259
20
0.778808
11
1.55352
21
0.77839
0
LINE
8
BLACK
6
CONTINUOUS
10
1.55352
20
0.77839
11
1.55369
21
0.778154
0
LINE
8
BLACK
6
CONTINUOUS
10
1.55369
20
0.778154
11
1.55396
21
0.778031
0
LINE
8
BLACK
6
CONTINUOUS
10
1.55396
20
0.778031
11
1.55771
21
0.774281
0
LINE
8
BLACK
6
CONTINUOUS
10
1.55771
20
0.774281
11
1.55821
21
0.773558
0
LINE
8
BLACK
6
CONTINUOUS
10
1.55821
20
0.773558
11
1.55826
21
0.773514
0
LINE
8
BLACK
6
CONTINUOUS
10
1.55826
20
0.773514
11
1.56014
21
0.769764
0
LINE
8
BLACK
6
CONTINUOUS
10
1.56014
20
0.769764
11
1.56043
21
0.768782
0
LINE
8
BLACK
6
CONTINUOUS
10
1.56043
20
0.768782
11
1.56039
21
0.76861
0
LINE
8
BLACK
6
CONTINUOUS
10
1.56039
20
0.76861
11
1.56045
21
0.768444
0
LINE
8
BLACK
6
CONTINUOUS
10
1.56045
20
0.768444
11
1.56045
21
0.760945
0
LINE
8
BLACK
6
CONTINUOUS
10
1.56045
20
0.760945
11
1.56027
21
0.759935
0
LINE
8
BLACK
6
CONTINUOUS
10
1.56027
20
0.759935
11
1.56016
21
0.7598
0
LINE
8
BLACK
6
CONTINUOUS
10
1.56016
20
0.7598
11
1.56014
21
0.759624
0
LINE
8
BLACK
6
CONTINUOUS
10
1.56014
20
0.759624
11
1.55826
21
0.755875
0
LINE
8
BLACK
6
CONTINUOUS
10
1.55826
20
0.755875
11
1.55774
21
0.755166
0
LINE
8
BLACK
6
CONTINUOUS
10
1.55774
20
0.755166
11
1.55771
21
0.755107
0
LINE
8
BLACK
6
CONTINUOUS
10
1.55771
20
0.755107
11
1.55396
21
0.751358
0
LINE
8
BLACK
6
CONTINUOUS
10
1.55396
20
0.751358
11
1.55312
21
0.75077
0
LINE
8
BLACK
6
CONTINUOUS
10
1.55312
20
0.75077
11
1.55283
21
0.750744
0
LINE
8
BLACK
6
CONTINUOUS
10
1.55283
20
0.750744
11
1.55259
21
0.750581
0
LINE
8
BLACK
6
CONTINUOUS
10
1.55259
20
0.750581
11
1.54509
21
0.748706
0
LINE
8
BLACK
6
CONTINUOUS
10
1.54509
20
0.748706
11
1.5445
21
0.748665
0
LINE
8
BLACK
6
CONTINUOUS
10
1.5445
20
0.748665
11
1.54437
21
0.748618
0
LINE
8
BLACK
6
CONTINUOUS
10
1.54437
20
0.748618
11
1.53125
21
0.748618
0
LINE
8
BLACK
6
CONTINUOUS
10
1.53125
20
0.748618
11
1.53067
21
0.748721
0
LINE
8
BLACK
6
CONTINUOUS
10
1.53067
20
0.748721
11
1.53053
21
0.748706
0
LINE
8
BLACK
6
CONTINUOUS
10
1.53053
20
0.748706
11
1.52303
21
0.750581
0
LINE
8
BLACK
6
CONTINUOUS
10
1.52303
20
0.750581
11
1.5221
21
0.750999
0
LINE
8
BLACK
6
CONTINUOUS
10
1.5221
20
0.750999
11
1.52193
21
0.751235
0
LINE
8
BLACK
6
CONTINUOUS
10
1.52193
20
0.751235
11
1.52166
21
0.751358
0
LINE
8
BLACK
6
CONTINUOUS
10
1.52166
20
0.751358
11
1.51791
21
0.755107
0
LINE
8
BLACK
6
CONTINUOUS
10
1.51791
20
0.755107
11
1.51741
21
0.75583
0
LINE
8
BLACK
6
CONTINUOUS
10
1.51741
20
0.75583
11
1.51736
21
0.755875
0
LINE
8
BLACK
6
CONTINUOUS
10
1.51736
20
0.755875
11
1.51548
21
0.759624
0
LINE
8
BLACK
6
CONTINUOUS
10
1.51548
20
0.759624
11
1.51519
21
0.760607
0
LINE
8
BLACK
6
CONTINUOUS
10
1.51519
20
0.760607
11
1.51523
21
0.760779
0
LINE
8
BLACK
6
CONTINUOUS
10
1.51523
20
0.760779
11
1.51517
21
0.760945
0
LINE
8
BLACK
6
CONTINUOUS
10
1.51517
20
0.760945
11
1.51517
21
0.768444
0
LINE
8
BLACK
6
CONTINUOUS
10
1.51517
20
0.768444
11
1.51535
21
0.769454
0
LINE
8
BLACK
6
CONTINUOUS
10
1.51535
20
0.769454
11
1.51546
21
0.769589
0
LINE
8
BLACK
6
CONTINUOUS
10
1.51546
20
0.769589
11
1.51548
21
0.769764
0
LINE
8
BLACK
6
CONTINUOUS
10
1.51548
20
0.769764
11
1.51736
21
0.773514
0
LINE
8
BLACK
6
CONTINUOUS
10
1.51736
20
0.773514
11
1.51788
21
0.774223
0
LINE
8
BLACK
6
CONTINUOUS
10
1.51788
20
0.774223
11
1.51791
21
0.774281
0
LINE
8
BLACK
6
CONTINUOUS
10
1.51791
20
0.774281
11
1.52166
21
0.778031
0
LINE
8
BLACK
6
CONTINUOUS
10
1.52166
20
0.778031
11
1.5225
21
0.778619
0
LINE
8
BLACK
6
CONTINUOUS
10
1.5225
20
0.778619
11
1.52279
21
0.778645
0
LINE
8
BLACK
6
CONTINUOUS
10
1.52279
20
0.778645
11
1.52303
21
0.778808
0
LINE
8
BLACK
6
CONTINUOUS
10
1.52303
20
0.778808
11
1.53053
21
0.780682
0
LINE
8
BLACK
6
CONTINUOUS
10
1.53053
20
0.780682
11
1.53112
21
0.780724
0
LINE
8
BLACK
6
CONTINUOUS
10
1.53112
20
0.780724
11
1.53125
21
0.780771
0
LINE
8
BLACK
6
CONTINUOUS
10
1.53125
20
0.780771
11
1.54437
21
0.780771
0
LINE
8
BLACK
6
CONTINUOUS
10
1.54437
20
0.780771
11
1.54495
21
0.780668
0
LINE
8
BLACK
6
CONTINUOUS
10
1.53161
20
0.774865
11
1.52526
21
0.773277
0
LINE
8
BLACK
6
CONTINUOUS
10
1.52526
20
0.773277
11
1.52243
21
0.770444
0
LINE
8
BLACK
6
CONTINUOUS
10
1.52243
20
0.770444
11
1.52108
21
0.767747
0
LINE
8
BLACK
6
CONTINUOUS
10
1.52108
20
0.767747
11
1.52108
21
0.761642
0
LINE
8
BLACK
6
CONTINUOUS
10
1.52108
20
0.761642
11
1.52243
21
0.758944
0
LINE
8
BLACK
6
CONTINUOUS
10
1.52243
20
0.758944
11
1.52526
21
0.756112
0
LINE
8
BLACK
6
CONTINUOUS
10
1.52526
20
0.756112
11
1.53161
21
0.754524
0
LINE
8
BLACK
6
CONTINUOUS
10
1.53161
20
0.754524
11
1.54401
21
0.754524
0
LINE
8
BLACK
6
CONTINUOUS
10
1.54401
20
0.754524
11
1.55036
21
0.756112
0
LINE
8
BLACK
6
CONTINUOUS
10
1.55036
20
0.756112
11
1.55319
21
0.758944
0
LINE
8
BLACK
6
CONTINUOUS
10
1.55319
20
0.758944
11
1.55454
21
0.761642
0
LINE
8
BLACK
6
CONTINUOUS
10
1.55454
20
0.761642
11
1.55454
21
0.767747
0
LINE
8
BLACK
6
CONTINUOUS
10
1.55454
20
0.767747
11
1.55319
21
0.770444
0
LINE
8
BLACK
6
CONTINUOUS
10
1.55319
20
0.770444
11
1.55036
21
0.773277
0
LINE
8
BLACK
6
CONTINUOUS
10
1.55036
20
0.773277
11
1.54401
21
0.774865
0
LINE
8
BLACK
6
CONTINUOUS
10
1.54401
20
0.774865
11
1.53161
21
0.774865
0
LINE
8
BLACK
6
CONTINUOUS
10
1.55851
20
0.819963
11
1.55871
21
0.819787
0
LINE
8
BLACK
6
CONTINUOUS
10
1.55871
20
0.819787
11
1.55898
21
0.819738
0
LINE
8
BLACK
6
CONTINUOUS
10
1.55898
20
0.819738
11
1.55947
21
0.819153
0
LINE
8
BLACK
6
CONTINUOUS
10
1.55947
20
0.819153
11
1.56005
21
0.818664
0
LINE
8
BLACK
6
CONTINUOUS
10
1.56005
20
0.818664
11
1.5601
21
0.818395
0
LINE
8
BLACK
6
CONTINUOUS
10
1.5601
20
0.818395
11
1.56027
21
0.818185
0
LINE
8
BLACK
6
CONTINUOUS
10
1.56027
20
0.818185
11
1.56027
21
0.817424
0
LINE
8
BLACK
6
CONTINUOUS
10
1.56027
20
0.817424
11
1.5604
21
0.816675
0
LINE
8
BLACK
6
CONTINUOUS
10
1.5604
20
0.816675
11
1.56027
21
0.816439
0
LINE
8
BLACK
6
CONTINUOUS
10
1.56027
20
0.816439
11
1.56027
21
0.816166
0
LINE
8
BLACK
6
CONTINUOUS
10
1.56027
20
0.816166
11
1.55977
21
0.815585
0
LINE
8
BLACK
6
CONTINUOUS
10
1.55977
20
0.815585
11
1.55939
21
0.814926
0
LINE
8
BLACK
6
CONTINUOUS
10
1.55939
20
0.814926
11
1.55914
21
0.814833
0
LINE
8
BLACK
6
CONTINUOUS
10
1.55914
20
0.814833
11
1.55896
21
0.814624
0
LINE
8
BLACK
6
CONTINUOUS
10
1.55896
20
0.814624
11
1.52924
21
0.797643
0
LINE
8
BLACK
6
CONTINUOUS
10
1.52924
20
0.797643
11
1.5575
21
0.797643
0
LINE
8
BLACK
6
CONTINUOUS
10
1.5575
20
0.797643
11
1.55851
21
0.797465
0
LINE
8
BLACK
6
CONTINUOUS
10
1.55851
20
0.797465
11
1.56005
21
0.796167
0
LINE
8
BLACK
6
CONTINUOUS
10
1.56005
20
0.796167
11
1.5604
21
0.794178
0
LINE
8
BLACK
6
CONTINUOUS
10
1.5604
20
0.794178
11
1.55939
21
0.792429
0
LINE
8
BLACK
6
CONTINUOUS
10
1.55939
20
0.792429
11
1.5575
21
0.791738
0
LINE
8
BLACK
6
CONTINUOUS
10
1.5575
20
0.791738
11
1.51813
21
0.791738
0
LINE
8
BLACK
6
CONTINUOUS
10
1.51813
20
0.791738
11
1.51712
21
0.791916
0
LINE
8
BLACK
6
CONTINUOUS
10
1.51712
20
0.791916
11
1.51691
21
0.792091
0
LINE
8
BLACK
6
CONTINUOUS
10
1.51691
20
0.792091
11
1.51664
21
0.79214
0
LINE
8
BLACK
6
CONTINUOUS
10
1.51664
20
0.79214
11
1.51615
21
0.792725
0
LINE
8
BLACK
6
CONTINUOUS
10
1.51615
20
0.792725
11
1.51557
21
0.793214
0
LINE
8
BLACK
6
CONTINUOUS
10
1.51557
20
0.793214
11
1.51552
21
0.793483
0
LINE
8
BLACK
6
CONTINUOUS
10
1.51552
20
0.793483
11
1.51535
21
0.793693
0
LINE
8
BLACK
6
CONTINUOUS
10
1.51535
20
0.793693
11
1.51535
21
0.794454
0
LINE
8
BLACK
6
CONTINUOUS
10
1.51535
20
0.794454
11
1.51522
21
0.795203
0
LINE
8
BLACK
6
CONTINUOUS
10
1.51522
20
0.795203
11
1.51535
21
0.79544
0
LINE
8
BLACK
6
CONTINUOUS
10
1.51535
20
0.79544
11
1.51536
21
0.795713
0
LINE
8
BLACK
6
CONTINUOUS
10
1.51536
20
0.795713
11
1.51585
21
0.796294
0
LINE
8
BLACK
6
CONTINUOUS
10
1.51585
20
0.796294
11
1.51623
21
0.796953
0
LINE
8
BLACK
6
CONTINUOUS
10
1.51623
20
0.796953
11
1.51648
21
0.797046
0
LINE
8
BLACK
6
CONTINUOUS
10
1.51648
20
0.797046
11
1.51666
21
0.797254
0
LINE
8
BLACK
6
CONTINUOUS
10
1.51666
20
0.797254
11
1.54638
21
0.814235
0
LINE
8
BLACK
6
CONTINUOUS
10
1.54638
20
0.814235
11
1.51813
21
0.814235
0
LINE
8
BLACK
6
CONTINUOUS
10
1.51813
20
0.814235
11
1.51712
21
0.814413
0
LINE
8
BLACK
6
CONTINUOUS
10
1.51712
20
0.814413
11
1.51557
21
0.815711
0
LINE
8
BLACK
6
CONTINUOUS
10
1.51557
20
0.815711
11
1.51522
21
0.817701
0
LINE
8
BLACK
6
CONTINUOUS
10
1.51522
20
0.817701
11
1.51623
21
0.81945
0
LINE
8
BLACK
6
CONTINUOUS
10
1.51623
20
0.81945
11
1.51813
21
0.820141
0
LINE
8
BLACK
6
CONTINUOUS
10
1.51813
20
0.820141
11
1.5575
21
0.820141
0
LINE
8
BLACK
6
CONTINUOUS
10
1.5575
20
0.820141
11
1.55851
21
0.819963
0
LINE
8
BLACK
6
CONTINUOUS
10
0.479135
20
0.819963
11
0.479344
21
0.819787
0
LINE
8
BLACK
6
CONTINUOUS
10
0.479344
20
0.819787
11
0.479613
21
0.819738
0
LINE
8
BLACK
6
CONTINUOUS
10
0.479613
20
0.819738
11
0.480099
21
0.819153
0
LINE
8
BLACK
6
CONTINUOUS
10
0.480099
20
0.819153
11
0.480682
21
0.818664
0
LINE
8
BLACK
6
CONTINUOUS
10
0.480682
20
0.818664
11
0.48073
21
0.818395
0
LINE
8
BLACK
6
CONTINUOUS
10
0.48073
20
0.818395
11
0.480904
21
0.818185
0
LINE
8
BLACK
6
CONTINUOUS
10
0.480904
20
0.818185
11
0.480901
21
0.817424
0
LINE
8
BLACK
6
CONTINUOUS
10
0.480901
20
0.817424
11
0.481033
21
0.816675
0
LINE
8
BLACK
6
CONTINUOUS
10
0.481033
20
0.816675
11
0.480897
21
0.816439
0
LINE
8
BLACK
6
CONTINUOUS
10
0.480897
20
0.816439
11
0.480895
21
0.816166
0
LINE
8
BLACK
6
CONTINUOUS
10
0.480895
20
0.816166
11
0.480404
21
0.815585
0
LINE
8
BLACK
6
CONTINUOUS
10
0.480404
20
0.815585
11
0.480023
21
0.814926
0
LINE
8
BLACK
6
CONTINUOUS
10
0.480023
20
0.814926
11
0.479767
21
0.814833
0
LINE
8
BLACK
6
CONTINUOUS
10
0.479767
20
0.814833
11
0.47959
21
0.814624
0
LINE
8
BLACK
6
CONTINUOUS
10
0.47959
20
0.814624
11
0.449874
21
0.797643
0
LINE
8
BLACK
6
CONTINUOUS
10
0.449874
20
0.797643
11
0.478125
21
0.797643
0
LINE
8
BLACK
6
CONTINUOUS
10
0.478125
20
0.797643
11
0.479135
21
0.797465
0
LINE
8
BLACK
6
CONTINUOUS
10
0.479135
20
0.797465
11
0.480682
21
0.796167
0
LINE
8
BLACK
6
CONTINUOUS
10
0.480682
20
0.796167
11
0.481033
21
0.794178
0
LINE
8
BLACK
6
CONTINUOUS
10
0.481033
20
0.794178
11
0.480023
21
0.792429
0
LINE
8
BLACK
6
CONTINUOUS
10
0.480023
20
0.792429
11
0.478125
21
0.791738
0
LINE
8
BLACK
6
CONTINUOUS
10
0.478125
20
0.791738
11
0.438755
21
0.791738
0
LINE
8
BLACK
6
CONTINUOUS
10
0.438755
20
0.791738
11
0.437745
21
0.791916
0
LINE
8
BLACK
6
CONTINUOUS
10
0.437745
20
0.791916
11
0.437536
21
0.792091
0
LINE
8
BLACK
6
CONTINUOUS
10
0.437536
20
0.792091
11
0.437267
21
0.79214
0
LINE
8
BLACK
6
CONTINUOUS
10
0.437267
20
0.79214
11
0.436781
21
0.792725
0
LINE
8
BLACK
6
CONTINUOUS
10
0.436781
20
0.792725
11
0.436198
21
0.793214
0
LINE
8
BLACK
6
CONTINUOUS
10
0.436198
20
0.793214
11
0.436151
21
0.793483
0
LINE
8
BLACK
6
CONTINUOUS
10
0.436151
20
0.793483
11
0.435976
21
0.793693
0
LINE
8
BLACK
6
CONTINUOUS
10
0.435976
20
0.793693
11
0.435979
21
0.794454
0
LINE
8
BLACK
6
CONTINUOUS
10
0.435979
20
0.794454
11
0.435847
21
0.795203
0
LINE
8
BLACK
6
CONTINUOUS
10
0.435847
20
0.795203
11
0.435984
21
0.79544
0
LINE
8
BLACK
6
CONTINUOUS
10
0.435984
20
0.79544
11
0.435985
21
0.795713
0
LINE
8
BLACK
6
CONTINUOUS
10
0.435985
20
0.795713
11
0.436477
21
0.796294
0
LINE
8
BLACK
6
CONTINUOUS
10
0.436477
20
0.796294
11
0.436857
21
0.796953
0
LINE
8
BLACK
6
CONTINUOUS
10
0.436857
20
0.796953
11
0.437114
21
0.797046
0
LINE
8
BLACK
6
CONTINUOUS
10
0.437114
20
0.797046
11
0.43729
21
0.797254
0
LINE
8
BLACK
6
CONTINUOUS
10
0.43729
20
0.797254
11
0.467006
21
0.814235
0
LINE
8
BLACK
6
CONTINUOUS
10
0.467006
20
0.814235
11
0.438755
21
0.814235
0
LINE
8
BLACK
6
CONTINUOUS
10
0.438755
20
0.814235
11
0.437745
21
0.814413
0
LINE
8
BLACK
6
CONTINUOUS
10
0.437745
20
0.814413
11
0.436198
21
0.815711
0
LINE
8
BLACK
6
CONTINUOUS
10
0.436198
20
0.815711
11
0.435847
21
0.817701
0
LINE
8
BLACK
6
CONTINUOUS
10
0.435847
20
0.817701
11
0.436857
21
0.81945
0
LINE
8
BLACK
6
CONTINUOUS
10
0.436857
20
0.81945
11
0.438755
21
0.820141
0
LINE
8
BLACK
6
CONTINUOUS
10
0.438755
20
0.820141
11
0.478125
21
0.820141
0
LINE
8
BLACK
6
CONTINUOUS
10
0.478125
20
0.820141
11
0.479135
21
0.819963
0
LINE
8
BLACK
6
CONTINUOUS
10
0.479135
20
0.861207
11
0.479344
21
0.861032
0
LINE
8
BLACK
6
CONTINUOUS
10
0.479344
20
0.861032
11
0.479613
21
0.860983
0
LINE
8
BLACK
6
CONTINUOUS
10
0.479613
20
0.860983
11
0.480099
21
0.860398
0
LINE
8
BLACK
6
CONTINUOUS
10
0.480099
20
0.860398
11
0.480682
21
0.859909
0
LINE
8
BLACK
6
CONTINUOUS
10
0.480682
20
0.859909
11
0.48073
21
0.85964
0
LINE
8
BLACK
6
CONTINUOUS
10
0.48073
20
0.85964
11
0.480904
21
0.85943
0
LINE
8
BLACK
6
CONTINUOUS
10
0.480904
20
0.85943
11
0.480901
21
0.858669
0
LINE
8
BLACK
6
CONTINUOUS
10
0.480901
20
0.858669
11
0.481033
21
0.85792
0
LINE
8
BLACK
6
CONTINUOUS
10
0.481033
20
0.85792
11
0.480897
21
0.857683
0
LINE
8
BLACK
6
CONTINUOUS
10
0.480897
20
0.857683
11
0.480895
21
0.85741
0
LINE
8
BLACK
6
CONTINUOUS
10
0.480895
20
0.85741
11
0.480404
21
0.85683
0
LINE
8
BLACK
6
CONTINUOUS
10
0.480404
20
0.85683
11
0.480023
21
0.856171
0
LINE
8
BLACK
6
CONTINUOUS
10
0.480023
20
0.856171
11
0.479767
21
0.856077
0
LINE
8
BLACK
6
CONTINUOUS
10
0.479767
20
0.856077
11
0.47959
21
0.855869
0
LINE
8
BLACK
6
CONTINUOUS
10
0.47959
20
0.855869
11
0.449874
21
0.838888
0
LINE
8
BLACK
6
CONTINUOUS
10
0.449874
20
0.838888
11
0.478125
21
0.838888
0
LINE
8
BLACK
6
CONTINUOUS
10
0.478125
20
0.838888
11
0.479135
21
0.83871
0
LINE
8
BLACK
6
CONTINUOUS
10
0.479135
20
0.83871
11
0.480682
21
0.837412
0
LINE
8
BLACK
6
CONTINUOUS
10
0.480682
20
0.837412
11
0.481033
21
0.835423
0
LINE
8
BLACK
6
CONTINUOUS
10
0.481033
20
0.835423
11
0.480023
21
0.833674
0
LINE
8
BLACK
6
CONTINUOUS
10
0.480023
20
0.833674
11
0.478125
21
0.832983
0
LINE
8
BLACK
6
CONTINUOUS
10
0.478125
20
0.832983
11
0.438755
21
0.832983
0
LINE
8
BLACK
6
CONTINUOUS
10
0.438755
20
0.832983
11
0.437745
21
0.833161
0
LINE
8
BLACK
6
CONTINUOUS
10
0.437745
20
0.833161
11
0.437536
21
0.833336
0
LINE
8
BLACK
6
CONTINUOUS
10
0.437536
20
0.833336
11
0.437267
21
0.833385
0
LINE
8
BLACK
6
CONTINUOUS
10
0.437267
20
0.833385
11
0.436781
21
0.83397
0
LINE
8
BLACK
6
CONTINUOUS
10
0.436781
20
0.83397
11
0.436198
21
0.834459
0
LINE
8
BLACK
6
CONTINUOUS
10
0.436198
20
0.834459
11
0.436151
21
0.834728
0
LINE
8
BLACK
6
CONTINUOUS
10
0.436151
20
0.834728
11
0.435976
21
0.834938
0
LINE
8
BLACK
6
CONTINUOUS
10
0.435976
20
0.834938
11
0.435979
21
0.835699
0
LINE
8
BLACK
6
CONTINUOUS
10
0.435979
20
0.835699
11
0.435847
21
0.836448
0
LINE
8
BLACK
6
CONTINUOUS
10
0.435847
20
0.836448
11
0.435984
21
0.836685
0
LINE
8
BLACK
6
CONTINUOUS
10
0.435984
20
0.836685
11
0.435985
21
0.836958
0
LINE
8
BLACK
6
CONTINUOUS
10
0.435985
20
0.836958
11
0.436477
21
0.837538
0
LINE
8
BLACK
6
CONTINUOUS
10
0.436477
20
0.837538
11
0.436857
21
0.838197
0
LINE
8
BLACK
6
CONTINUOUS
10
0.436857
20
0.838197
11
0.437114
21
0.838291
0
LINE
8
BLACK
6
CONTINUOUS
10
0.437114
20
0.838291
11
0.43729
21
0.838499
0
LINE
8
BLACK
6
CONTINUOUS
10
0.43729
20
0.838499
11
0.467006
21
0.85548
0
LINE
8
BLACK
6
CONTINUOUS
10
0.467006
20
0.85548
11
0.438755
21
0.85548
0
LINE
8
BLACK
6
CONTINUOUS
10
0.438755
20
0.85548
11
0.437745
21
0.855658
0
LINE
8
BLACK
6
CONTINUOUS
10
0.437745
20
0.855658
11
0.436198
21
0.856956
0
LINE
8
BLACK
6
CONTINUOUS
10
0.436198
20
0.856956
11
0.435847
21
0.858945
0
LINE
8
BLACK
6
CONTINUOUS
10
0.435847
20
0.858945
11
0.436857
21
0.860695
0
LINE
8
BLACK
6
CONTINUOUS
10
0.436857
20
0.860695
11
0.438755
21
0.861385
0
LINE
8
BLACK
6
CONTINUOUS
10
0.438755
20
0.861385
11
0.478125
21
0.861385
0
LINE
8
BLACK
6
CONTINUOUS
10
0.478125
20
0.861385
11
0.479135
21
0.861207
0
LINE
8
BLACK
6
CONTINUOUS
10
1.55851
20
0.861207
11
1.55871
21
0.861032
0
LINE
8
BLACK
6
CONTINUOUS
10
1.55871
20
0.861032
11
1.55898
21
0.860983
0
LINE
8
BLACK
6
CONTINUOUS
10
1.55898
20
0.860983
11
1.55947
21
0.860398
0
LINE
8
BLACK
6
CONTINUOUS
10
1.55947
20
0.860398
11
1.56005
21
0.859909
0
LINE
8
BLACK
6
CONTINUOUS
10
1.56005
20
0.859909
11
1.5601
21
0.85964
0
LINE
8
BLACK
6
CONTINUOUS
10
1.5601
20
0.85964
11
1.56027
21
0.85943
0
LINE
8
BLACK
6
CONTINUOUS
10
1.56027
20
0.85943
11
1.56027
21
0.858669
0
LINE
8
BLACK
6
CONTINUOUS
10
1.56027
20
0.858669
11
1.5604
21
0.85792
0
LINE
8
BLACK
6
CONTINUOUS
10
1.5604
20
0.85792
11
1.56027
21
0.857683
0
LINE
8
BLACK
6
CONTINUOUS
10
1.56027
20
0.857683
11
1.56027
21
0.85741
0
LINE
8
BLACK
6
CONTINUOUS
10
1.56027
20
0.85741
11
1.55977
21
0.85683
0
LINE
8
BLACK
6
CONTINUOUS
10
1.55977
20
0.85683
11
1.55939
21
0.856171
0
LINE
8
BLACK
6
CONTINUOUS
10
1.55939
20
0.856171
11
1.55914
21
0.856077
0
LINE
8
BLACK
6
CONTINUOUS
10
1.55914
20
0.856077
11
1.55896
21
0.855869
0
LINE
8
BLACK
6
CONTINUOUS
10
1.55896
20
0.855869
11
1.52924
21
0.838888
0
LINE
8
BLACK
6
CONTINUOUS
10
1.52924
20
0.838888
11
1.5575
21
0.838888
0
LINE
8
BLACK
6
CONTINUOUS
10
1.5575
20
0.838888
11
1.55851
21
0.83871
0
LINE
8
BLACK
6
CONTINUOUS
10
1.55851
20
0.83871
11
1.56005
21
0.837412
0
LINE
8
BLACK
6
CONTINUOUS
10
1.56005
20
0.837412
11
1.5604
21
0.835423
0
LINE
8
BLACK
6
CONTINUOUS
10
1.5604
20
0.835423
11
1.55939
21
0.833674
0
LINE
8
BLACK
6
CONTINUOUS
10
1.55939
20
0.833674
11
1.5575
21
0.832983
0
LINE
8
BLACK
6
CONTINUOUS
10
1.5575
20
0.832983
11
1.51813
21
0.832983
0
LINE
8
BLACK
6
CONTINUOUS
10
1.51813
20
0.832983
11
1.51712
21
0.833161
0
LINE
8
BLACK
6
CONTINUOUS
10
1.51712
20
0.833161
11
1.51691
21
0.833336
0
LINE
8
BLACK
6
CONTINUOUS
10
1.51691
20
0.833336
11
1.51664
21
0.833385
0
LINE
8
BLACK
6
CONTINUOUS
10
1.51664
20
0.833385
11
1.51615
21
0.83397
0
LINE
8
BLACK
6
CONTINUOUS
10
1.51615
20
0.83397
11
1.51557
21
0.834459
0
LINE
8
BLACK
6
CONTINUOUS
10
1.51557
20
0.834459
11
1.51552
21
0.834728
0
LINE
8
BLACK
6
CONTINUOUS
10
1.51552
20
0.834728
11
1.51535
21
0.834938
0
LINE
8
BLACK
6
CONTINUOUS
10
1.51535
20
0.834938
11
1.51535
21
0.835699
0
LINE
8
BLACK
6
CONTINUOUS
10
1.51535
20
0.835699
11
1.51522
21
0.836448
0
LINE
8
BLACK
6
CONTINUOUS
10
1.51522
20
0.836448
11
1.51535
21
0.836685
0
LINE
8
BLACK
6
CONTINUOUS
10
1.51535
20
0.836685
11
1.51536
21
0.836958
0
LINE
8
BLACK
6
CONTINUOUS
10
1.51536
20
0.836958
11
1.51585
21
0.837538
0
LINE
8
BLACK
6
CONTINUOUS
10
1.51585
20
0.837538
11
1.51623
21
0.838197
0
LINE
8
BLACK
6
CONTINUOUS
10
1.51623
20
0.838197
11
1.51648
21
0.838291
0
LINE
8
BLACK
6
CONTINUOUS
10
1.51648
20
0.838291
11
1.51666
21
0.838499
0
LINE
8
BLACK
6
CONTINUOUS
10
1.51666
20
0.838499
11
1.54638
21
0.85548
0
LINE
8
BLACK
6
CONTINUOUS
10
1.54638
20
0.85548
11
1.51813
21
0.85548
0
LINE
8
BLACK
6
CONTINUOUS
10
1.51813
20
0.85548
11
1.51712
21
0.855658
0
LINE
8
BLACK
6
CONTINUOUS
10
1.51712
20
0.855658
11
1.51557
21
0.856956
0
LINE
8
BLACK
6
CONTINUOUS
10
1.51557
20
0.856956
11
1.51522
21
0.858945
0
LINE
8
BLACK
6
CONTINUOUS
10
1.51522
20
0.858945
11
1.51623
21
0.860695
0
LINE
8
BLACK
6
CONTINUOUS
10
1.51623
20
0.860695
11
1.51813
21
0.861385
0
LINE
8
BLACK
6
CONTINUOUS
10
1.51813
20
0.861385
11
1.5575
21
0.861385
0
LINE
8
BLACK
6
CONTINUOUS
10
1.5575
20
0.861385
11
1.55851
21
0.861207
0
LINE
8
BLACK
6
CONTINUOUS
10
1.56351
20
0.899701
11
1.5642
21
0.897803
0
LINE
8
BLACK
6
CONTINUOUS
10
1.5642
20
0.897803
11
1.5642
21
0.867806
0
LINE
8
BLACK
6
CONTINUOUS
10
1.5642
20
0.867806
11
1.56402
21
0.866797
0
LINE
8
BLACK
6
CONTINUOUS
10
1.56402
20
0.866797
11
1.56272
21
0.865249
0
LINE
8
BLACK
6
CONTINUOUS
10
1.56272
20
0.865249
11
1.56073
21
0.864899
0
LINE
8
BLACK
6
CONTINUOUS
10
1.56073
20
0.864899
11
1.55898
21
0.865909
0
LINE
8
BLACK
6
CONTINUOUS
10
1.55898
20
0.865909
11
1.55829
21
0.867806
0
LINE
8
BLACK
6
CONTINUOUS
10
1.55829
20
0.867806
11
1.55829
21
0.897803
0
LINE
8
BLACK
6
CONTINUOUS
10
1.55829
20
0.897803
11
1.55847
21
0.898813
0
LINE
8
BLACK
6
CONTINUOUS
10
1.55847
20
0.898813
11
1.55977
21
0.90036
0
LINE
8
BLACK
6
CONTINUOUS
10
1.55977
20
0.90036
11
1.56176
21
0.900711
0
LINE
8
BLACK
6
CONTINUOUS
10
1.56176
20
0.900711
11
1.56351
21
0.899701
0
LINE
8
BLACK
6
CONTINUOUS
10
0.484137
20
0.899701
11
0.484828
21
0.897803
0
LINE
8
BLACK
6
CONTINUOUS
10
0.484828
20
0.897803
11
0.484828
21
0.867806
0
LINE
8
BLACK
6
CONTINUOUS
10
0.484828
20
0.867806
11
0.484649
21
0.866797
0
LINE
8
BLACK
6
CONTINUOUS
10
0.484649
20
0.866797
11
0.483351
21
0.865249
0
LINE
8
BLACK
6
CONTINUOUS
10
0.483351
20
0.865249
11
0.481362
21
0.864899
0
LINE
8
BLACK
6
CONTINUOUS
10
0.481362
20
0.864899
11
0.479613
21
0.865909
0
LINE
8
BLACK
6
CONTINUOUS
10
0.479613
20
0.865909
11
0.478922
21
0.867806
0
LINE
8
BLACK
6
CONTINUOUS
10
0.478922
20
0.867806
11
0.478922
21
0.897803
0
LINE
8
BLACK
6
CONTINUOUS
10
0.478922
20
0.897803
11
0.4791
21
0.898813
0
LINE
8
BLACK
6
CONTINUOUS
10
0.4791
20
0.898813
11
0.480398
21
0.90036
0
LINE
8
BLACK
6
CONTINUOUS
10
0.480398
20
0.90036
11
0.482388
21
0.900711
0
LINE
8
BLACK
6
CONTINUOUS
10
0.482388
20
0.900711
11
0.484137
21
0.899701
0
LINE
8
BLACK
6
CONTINUOUS
10
0.471636
20
0.930574
11
0.471771
21
0.93046
0
LINE
8
BLACK
6
CONTINUOUS
10
0.471771
20
0.93046
11
0.471947
21
0.93044
0
LINE
8
BLACK
6
CONTINUOUS
10
0.471947
20
0.93044
11
0.475696
21
0.928565
0
LINE
8
BLACK
6
CONTINUOUS
10
0.475696
20
0.928565
11
0.476405
21
0.928039
0
LINE
8
BLACK
6
CONTINUOUS
10
0.476405
20
0.928039
11
0.476464
21
0.928012
0
LINE
8
BLACK
6
CONTINUOUS
10
0.476464
20
0.928012
11
0.478338
21
0.926137
0
LINE
8
BLACK
6
CONTINUOUS
10
0.478338
20
0.926137
11
0.478845
21
0.925414
0
LINE
8
BLACK
6
CONTINUOUS
10
0.478845
20
0.925414
11
0.478891
21
0.92537
0
LINE
8
BLACK
6
CONTINUOUS
10
0.478891
20
0.92537
11
0.480766
21
0.92162
0
LINE
8
BLACK
6
CONTINUOUS
10
0.480766
20
0.92162
11
0.481059
21
0.920638
0
LINE
8
BLACK
6
CONTINUOUS
10
0.481059
20
0.920638
11
0.481018
21
0.920466
0
LINE
8
BLACK
6
CONTINUOUS
10
0.481018
20
0.920466
11
0.481078
21
0.9203
0
LINE
8
BLACK
6
CONTINUOUS
10
0.481078
20
0.9203
11
0.481078
21
0.909051
0
LINE
8
BLACK
6
CONTINUOUS
10
0.481078
20
0.909051
11
0.4809
21
0.908041
0
LINE
8
BLACK
6
CONTINUOUS
10
0.4809
20
0.908041
11
0.480786
21
0.907906
0
LINE
8
BLACK
6
CONTINUOUS
10
0.480786
20
0.907906
11
0.480766
21
0.907731
0
LINE
8
BLACK
6
CONTINUOUS
10
0.480766
20
0.907731
11
0.478891
21
0.903981
0
LINE
8
BLACK
6
CONTINUOUS
10
0.478891
20
0.903981
11
0.478366
21
0.903272
0
LINE
8
BLACK
6
CONTINUOUS
10
0.478366
20
0.903272
11
0.478338
21
0.903214
0
LINE
8
BLACK
6
CONTINUOUS
10
0.478338
20
0.903214
11
0.476464
21
0.901339
0
LINE
8
BLACK
6
CONTINUOUS
10
0.476464
20
0.901339
11
0.475624
21
0.900751
0
LINE
8
BLACK
6
CONTINUOUS
10
0.475624
20
0.900751
11
0.473611
21
0.900575
0
LINE
8
BLACK
6
CONTINUOUS
10
0.473611
20
0.900575
11
0.471957
21
0.901733
0
LINE
8
BLACK
6
CONTINUOUS
10
0.471957
20
0.901733
11
0.471434
21
0.903684
0
LINE
8
BLACK
6
CONTINUOUS
10
0.471434
20
0.903684
11
0.472288
21
0.905515
0
LINE
8
BLACK
6
CONTINUOUS
10
0.472288
20
0.905515
11
0.473824
21
0.907051
0
LINE
8
BLACK
6
CONTINUOUS
10
0.473824
20
0.907051
11
0.475172
21
0.909748
0
LINE
8
BLACK
6
CONTINUOUS
10
0.475172
20
0.909748
11
0.475172
21
0.919603
0
LINE
8
BLACK
6
CONTINUOUS
10
0.475172
20
0.919603
11
0.473824
21
0.9223
0
LINE
8
BLACK
6
CONTINUOUS
10
0.473824
20
0.9223
11
0.472627
21
0.923498
0
LINE
8
BLACK
6
CONTINUOUS
10
0.472627
20
0.923498
11
0.469929
21
0.924846
0
LINE
8
BLACK
6
CONTINUOUS
10
0.469929
20
0.924846
11
0.461949
21
0.924846
0
LINE
8
BLACK
6
CONTINUOUS
10
0.461949
20
0.924846
11
0.459252
21
0.923498
0
LINE
8
BLACK
6
CONTINUOUS
10
0.459252
20
0.923498
11
0.458055
21
0.9223
0
LINE
8
BLACK
6
CONTINUOUS
10
0.458055
20
0.9223
11
0.456706
21
0.919603
0
LINE
8
BLACK
6
CONTINUOUS
10
0.456706
20
0.919603
11
0.456706
21
0.914676
0
LINE
8
BLACK
6
CONTINUOUS
10
0.456706
20
0.914676
11
0.456629
21
0.914238
0
LINE
8
BLACK
6
CONTINUOUS
10
0.456629
20
0.914238
11
0.45665
21
0.914103
0
LINE
8
BLACK
6
CONTINUOUS
10
0.45665
20
0.914103
11
0.456587
21
0.913998
0
LINE
8
BLACK
6
CONTINUOUS
10
0.456587
20
0.913998
11
0.456528
21
0.913666
0
LINE
8
BLACK
6
CONTINUOUS
10
0.456528
20
0.913666
11
0.456016
21
0.913056
0
LINE
8
BLACK
6
CONTINUOUS
10
0.456016
20
0.913056
11
0.455604
21
0.912375
0
LINE
8
BLACK
6
CONTINUOUS
10
0.455604
20
0.912375
11
0.455381
21
0.912299
0
LINE
8
BLACK
6
CONTINUOUS
10
0.455381
20
0.912299
11
0.45523
21
0.912118
0
LINE
8
BLACK
6
CONTINUOUS
10
0.45523
20
0.912118
11
0.454446
21
0.91198
0
LINE
8
BLACK
6
CONTINUOUS
10
0.454446
20
0.91198
11
0.453692
21
0.911724
0
LINE
8
BLACK
6
CONTINUOUS
10
0.453692
20
0.911724
11
0.453473
21
0.911809
0
LINE
8
BLACK
6
CONTINUOUS
10
0.453473
20
0.911809
11
0.453241
21
0.911768
0
LINE
8
BLACK
6
CONTINUOUS
10
0.453241
20
0.911768
11
0.452551
21
0.912166
0
LINE
8
BLACK
6
CONTINUOUS
10
0.452551
20
0.912166
11
0.451809
21
0.912453
0
LINE
8
BLACK
6
CONTINUOUS
10
0.451809
20
0.912453
11
0.441708
21
0.921292
0
LINE
8
BLACK
6
CONTINUOUS
10
0.441708
20
0.921292
11
0.441708
21
0.903427
0
LINE
8
BLACK
6
CONTINUOUS
10
0.441708
20
0.903427
11
0.44153
21
0.902417
0
LINE
8
BLACK
6
CONTINUOUS
10
0.44153
20
0.902417
11
0.440231
21
0.90087
0
LINE
8
BLACK
6
CONTINUOUS
10
0.440231
20
0.90087
11
0.438242
21
0.900519
0
LINE
8
BLACK
6
CONTINUOUS
10
0.438242
20
0.900519
11
0.436493
21
0.901529
0
LINE
8
BLACK
6
CONTINUOUS
10
0.436493
20
0.901529
11
0.435802
21
0.903427
0
LINE
8
BLACK
6
CONTINUOUS
10
0.435802
20
0.903427
11
0.435802
21
0.927799
0
LINE
8
BLACK
6
CONTINUOUS
10
0.435802
20
0.927799
11
0.435879
21
0.928236
0
LINE
8
BLACK
6
CONTINUOUS
10
0.435879
20
0.928236
11
0.435858
21
0.928372
0
LINE
8
BLACK
6
CONTINUOUS
10
0.435858
20
0.928372
11
0.435922
21
0.928477
0
LINE
8
BLACK
6
CONTINUOUS
10
0.435922
20
0.928477
11
0.43598
21
0.928809
0
LINE
8
BLACK
6
CONTINUOUS
10
0.43598
20
0.928809
11
0.436492
21
0.929419
0
LINE
8
BLACK
6
CONTINUOUS
10
0.436492
20
0.929419
11
0.436904
21
0.9301
0
LINE
8
BLACK
6
CONTINUOUS
10
0.436904
20
0.9301
11
0.437127
21
0.930176
0
LINE
8
BLACK
6
CONTINUOUS
10
0.437127
20
0.930176
11
0.437279
21
0.930356
0
LINE
8
BLACK
6
CONTINUOUS
10
0.437279
20
0.930356
11
0.438063
21
0.930494
0
LINE
8
BLACK
6
CONTINUOUS
10
0.438063
20
0.930494
11
0.438816
21
0.930751
0
LINE
8
BLACK
6
CONTINUOUS
10
0.438816
20
0.930751
11
0.439036
21
0.930666
0
LINE
8
BLACK
6
CONTINUOUS
10
0.439036
20
0.930666
11
0.439268
21
0.930707
0
LINE
8
BLACK
6
CONTINUOUS
10
0.439268
20
0.930707
11
0.439957
21
0.930309
0
LINE
8
BLACK
6
CONTINUOUS
10
0.439957
20
0.930309
11
0.4407
21
0.930021
0
LINE
8
BLACK
6
CONTINUOUS
10
0.4407
20
0.930021
11
0.450935
21
0.921065
0
LINE
8
BLACK
6
CONTINUOUS
10
0.450935
20
0.921065
11
0.450979
21
0.92131
0
LINE
8
BLACK
6
CONTINUOUS
10
0.450979
20
0.92131
11
0.451092
21
0.921445
0
LINE
8
BLACK
6
CONTINUOUS
10
0.451092
20
0.921445
11
0.451112
21
0.92162
0
LINE
8
BLACK
6
CONTINUOUS
10
0.451112
20
0.92162
11
0.452987
21
0.92537
0
LINE
8
BLACK
6
CONTINUOUS
10
0.452987
20
0.92537
11
0.453513
21
0.926079
0
LINE
8
BLACK
6
CONTINUOUS
10
0.453513
20
0.926079
11
0.45354
21
0.926137
0
LINE
8
BLACK
6
CONTINUOUS
10
0.45354
20
0.926137
11
0.455415
21
0.928012
0
LINE
8
BLACK
6
CONTINUOUS
10
0.455415
20
0.928012
11
0.456138
21
0.928518
0
LINE
8
BLACK
6
CONTINUOUS
10
0.456138
20
0.928518
11
0.456182
21
0.928565
0
LINE
8
BLACK
6
CONTINUOUS
10
0.456182
20
0.928565
11
0.459932
21
0.93044
0
LINE
8
BLACK
6
CONTINUOUS
10
0.459932
20
0.93044
11
0.460915
21
0.930732
0
LINE
8
BLACK
6
CONTINUOUS
10
0.460915
20
0.930732
11
0.461086
21
0.930691
0
LINE
8
BLACK
6
CONTINUOUS
10
0.461086
20
0.930691
11
0.461252
21
0.930752
0
LINE
8
BLACK
6
CONTINUOUS
10
0.461252
20
0.930752
11
0.470626
21
0.930752
0
LINE
8
BLACK
6
CONTINUOUS
10
0.470626
20
0.930752
11
0.471636
21
0.930574
0
LINE
8
BLACK
6
CONTINUOUS
10
1.55101
20
0.930574
11
1.55114
21
0.93046
0
LINE
8
BLACK
6
CONTINUOUS
10
1.55114
20
0.93046
11
1.55132
21
0.93044
0
LINE
8
BLACK
6
CONTINUOUS
10
1.55132
20
0.93044
11
1.55507
21
0.928565
0
LINE
8
BLACK
6
CONTINUOUS
10
1.55507
20
0.928565
11
1.55578
21
0.928039
0
LINE
8
BLACK
6
CONTINUOUS
10
1.55578
20
0.928039
11
1.55583
21
0.928012
0
LINE
8
BLACK
6
CONTINUOUS
10
1.55583
20
0.928012
11
1.55771
21
0.926137
0
LINE
8
BLACK
6
CONTINUOUS
10
1.55771
20
0.926137
11
1.55821
21
0.925414
0
LINE
8
BLACK
6
CONTINUOUS
10
1.55821
20
0.925414
11
1.55826
21
0.92537
0
LINE
8
BLACK
6
CONTINUOUS
10
1.55826
20
0.92537
11
1.56014
21
0.92162
0
LINE
8
BLACK
6
CONTINUOUS
10
1.56014
20
0.92162
11
1.56043
21
0.920638
0
LINE
8
BLACK
6
CONTINUOUS
10
1.56043
20
0.920638
11
1.56039
21
0.920466
0
LINE
8
BLACK
6
CONTINUOUS
10
1.56039
20
0.920466
11
1.56045
21
0.9203
0
LINE
8
BLACK
6
CONTINUOUS
10
1.56045
20
0.9203
11
1.56045
21
0.909051
0
LINE
8
BLACK
6
CONTINUOUS
10
1.56045
20
0.909051
11
1.56027
21
0.908041
0
LINE
8
BLACK
6
CONTINUOUS
10
1.56027
20
0.908041
11
1.56016
21
0.907906
0
LINE
8
BLACK
6
CONTINUOUS
10
1.56016
20
0.907906
11
1.56014
21
0.907731
0
LINE
8
BLACK
6
CONTINUOUS
10
1.56014
20
0.907731
11
1.55826
21
0.903981
0
LINE
8
BLACK
6
CONTINUOUS
10
1.55826
20
0.903981
11
1.55774
21
0.903272
0
LINE
8
BLACK
6
CONTINUOUS
10
1.55774
20
0.903272
11
1.55771
21
0.903214
0
LINE
8
BLACK
6
CONTINUOUS
10
1.55771
20
0.903214
11
1.55583
21
0.901339
0
LINE
8
BLACK
6
CONTINUOUS
10
1.55583
20
0.901339
11
1.55499
21
0.900751
0
LINE
8
BLACK
6
CONTINUOUS
10
1.55499
20
0.900751
11
1.55298
21
0.900575
0
LINE
8
BLACK
6
CONTINUOUS
10
1.55298
20
0.900575
11
1.55133
21
0.901733
0
LINE
8
BLACK
6
CONTINUOUS
10
1.55133
20
0.901733
11
1.5508
21
0.903684
0
LINE
8
BLACK
6
CONTINUOUS
10
1.5508
20
0.903684
11
1.55166
21
0.905515
0
LINE
8
BLACK
6
CONTINUOUS
10
1.55166
20
0.905515
11
1.55319
21
0.907051
0
LINE
8
BLACK
6
CONTINUOUS
10
1.55319
20
0.907051
11
1.55454
21
0.909748
0
LINE
8
BLACK
6
CONTINUOUS
10
1.55454
20
0.909748
11
1.55454
21
0.919603
0
LINE
8
BLACK
6
CONTINUOUS
10
1.55454
20
0.919603
11
1.55319
21
0.9223
0
LINE
8
BLACK
6
CONTINUOUS
10
1.55319
20
0.9223
11
1.552
21
0.923498
0
LINE
8
BLACK
6
CONTINUOUS
10
1.552
20
0.923498
11
1.5493
21
0.924846
0
LINE
8
BLACK
6
CONTINUOUS
10
1.5493
20
0.924846
11
1.54132
21
0.924846
0
LINE
8
BLACK
6
CONTINUOUS
10
1.54132
20
0.924846
11
1.53862
21
0.923498
0
LINE
8
BLACK
6
CONTINUOUS
10
1.53862
20
0.923498
11
1.53742
21
0.9223
0
LINE
8
BLACK
6
CONTINUOUS
10
1.53742
20
0.9223
11
1.53608
21
0.919603
0
LINE
8
BLACK
6
CONTINUOUS
10
1.53608
20
0.919603
11
1.53608
21
0.914676
0
LINE
8
BLACK
6
CONTINUOUS
10
1.53608
20
0.914676
11
1.536
21
0.914238
0
LINE
8
BLACK
6
CONTINUOUS
10
1.536
20
0.914238
11
1.53602
21
0.914103
0
LINE
8
BLACK
6
CONTINUOUS
10
1.53602
20
0.914103
11
1.53596
21
0.913998
0
LINE
8
BLACK
6
CONTINUOUS
10
1.53596
20
0.913998
11
1.5359
21
0.913666
0
LINE
8
BLACK
6
CONTINUOUS
10
1.5359
20
0.913666
11
1.53539
21
0.913056
0
LINE
8
BLACK
6
CONTINUOUS
10
1.53539
20
0.913056
11
1.53497
21
0.912375
0
LINE
8
BLACK
6
CONTINUOUS
10
1.53497
20
0.912375
11
1.53475
21
0.912299
0
LINE
8
BLACK
6
CONTINUOUS
10
1.53475
20
0.912299
11
1.5346
21
0.912118
0
LINE
8
BLACK
6
CONTINUOUS
10
1.5346
20
0.912118
11
1.53382
21
0.91198
0
LINE
8
BLACK
6
CONTINUOUS
10
1.53382
20
0.91198
11
1.53306
21
0.911724
0
LINE
8
BLACK
6
CONTINUOUS
10
1.53306
20
0.911724
11
1.53284
21
0.911809
0
LINE
8
BLACK
6
CONTINUOUS
10
1.53284
20
0.911809
11
1.53261
21
0.911768
0
LINE
8
BLACK
6
CONTINUOUS
10
1.53261
20
0.911768
11
1.53192
21
0.912166
0
LINE
8
BLACK
6
CONTINUOUS
10
1.53192
20
0.912166
11
1.53118
21
0.912453
0
LINE
8
BLACK
6
CONTINUOUS
10
1.53118
20
0.912453
11
1.52108
21
0.921292
0
LINE
8
BLACK
6
CONTINUOUS
10
1.52108
20
0.921292
11
1.52108
21
0.903427
0
LINE
8
BLACK
6
CONTINUOUS
10
1.52108
20
0.903427
11
1.5209
21
0.902417
0
LINE
8
BLACK
6
CONTINUOUS
10
1.5209
20
0.902417
11
1.5196
21
0.90087
0
LINE
8
BLACK
6
CONTINUOUS
10
1.5196
20
0.90087
11
1.51761
21
0.900519
0
LINE
8
BLACK
6
CONTINUOUS
10
1.51761
20
0.900519
11
1.51586
21
0.901529
0
LINE
8
BLACK
6
CONTINUOUS
10
1.51586
20
0.901529
11
1.51517
21
0.903427
0
LINE
8
BLACK
6
CONTINUOUS
10
1.51517
20
0.903427
11
1.51517
21
0.927799
0
LINE
8
BLACK
6
CONTINUOUS
10
1.51517
20
0.927799
11
1.51525
21
0.928236
0
LINE
8
BLACK
6
CONTINUOUS
10
1.51525
20
0.928236
11
1.51523
21
0.928372
0
LINE
8
BLACK
6
CONTINUOUS
10
1.51523
20
0.928372
11
1.51529
21
0.928477
0
LINE
8
BLACK
6
CONTINUOUS
10
1.51529
20
0.928477
11
1.51535
21
0.928809
0
LINE
8
BLACK
6
CONTINUOUS
10
1.51535
20
0.928809
11
1.51586
21
0.929419
0
LINE
8
BLACK
6
CONTINUOUS
10
1.51586
20
0.929419
11
1.51627
21
0.9301
0
LINE
8
BLACK
6
CONTINUOUS
10
1.51627
20
0.9301
11
1.5165
21
0.930176
0
LINE
8
BLACK
6
CONTINUOUS
10
1.5165
20
0.930176
11
1.51665
21
0.930356
0
LINE
8
BLACK
6
CONTINUOUS
10
1.51665
20
0.930356
11
1.51743
21
0.930494
0
LINE
8
BLACK
6
CONTINUOUS
10
1.51743
20
0.930494
11
1.51819
21
0.930751
0
LINE
8
BLACK
6
CONTINUOUS
10
1.51819
20
0.930751
11
1.51841
21
0.930666
0
LINE
8
BLACK
6
CONTINUOUS
10
1.51841
20
0.930666
11
1.51864
21
0.930707
0
LINE
8
BLACK
6
CONTINUOUS
10
1.51864
20
0.930707
11
1.51933
21
0.930309
0
LINE
8
BLACK
6
CONTINUOUS
10
1.51933
20
0.930309
11
1.52007
21
0.930021
0
LINE
8
BLACK
6
CONTINUOUS
10
1.52007
20
0.930021
11
1.53031
21
0.921065
0
LINE
8
BLACK
6
CONTINUOUS
10
1.53031
20
0.921065
11
1.53035
21
0.92131
0
LINE
8
BLACK
6
CONTINUOUS
10
1.53035
20
0.92131
11
1.53046
21
0.921445
0
LINE
8
BLACK
6
CONTINUOUS
10
1.53046
20
0.921445
11
1.53048
21
0.92162
0
LINE
8
BLACK
6
CONTINUOUS
10
1.53048
20
0.92162
11
1.53236
21
0.92537
0
LINE
8
BLACK
6
CONTINUOUS
10
1.53236
20
0.92537
11
1.53288
21
0.926079
0
LINE
8
BLACK
6
CONTINUOUS
10
1.53288
20
0.926079
11
1.53291
21
0.926137
0
LINE
8
BLACK
6
CONTINUOUS
10
1.53291
20
0.926137
11
1.53478
21
0.928012
0
LINE
8
BLACK
6
CONTINUOUS
10
1.53478
20
0.928012
11
1.53551
21
0.928518
0
LINE
8
BLACK
6
CONTINUOUS
10
1.53551
20
0.928518
11
1.53555
21
0.928565
0
LINE
8
BLACK
6
CONTINUOUS
10
1.53555
20
0.928565
11
1.5393
21
0.93044
0
LINE
8
BLACK
6
CONTINUOUS
10
1.5393
20
0.93044
11
1.54028
21
0.930732
0
LINE
8
BLACK
6
CONTINUOUS
10
1.54028
20
0.930732
11
1.54046
21
0.930691
0
LINE
8
BLACK
6
CONTINUOUS
10
1.54046
20
0.930691
11
1.54062
21
0.930752
0
LINE
8
BLACK
6
CONTINUOUS
10
1.54062
20
0.930752
11
1.55
21
0.930752
0
LINE
8
BLACK
6
CONTINUOUS
10
1.55
20
0.930752
11
1.55101
21
0.930574
0
LINE
8
BLACK
6
CONTINUOUS
10
0.515834
20
1.05866
11
0.517708
21
1.05679
0
LINE
8
BLACK
6
CONTINUOUS
10
0.517708
20
1.05679
11
0.518297
21
1.05595
0
LINE
8
BLACK
6
CONTINUOUS
10
0.518297
20
1.05595
11
0.518312
21
1.05577
0
LINE
8
BLACK
6
CONTINUOUS
10
0.518312
20
1.05577
11
0.518422
21
1.05563
0
LINE
8
BLACK
6
CONTINUOUS
10
0.518422
20
1.05563
11
0.520296
21
1.05001
0
LINE
8
BLACK
6
CONTINUOUS
10
0.520296
20
1.05001
11
0.520426
21
1.04913
0
LINE
8
BLACK
6
CONTINUOUS
10
0.520426
20
1.04913
11
0.520448
21
1.04907
0
LINE
8
BLACK
6
CONTINUOUS
10
0.520448
20
1.04907
11
0.520448
21
1.04532
0
LINE
8
BLACK
6
CONTINUOUS
10
0.520448
20
1.04532
11
0.520295
21
1.04445
0
LINE
8
BLACK
6
CONTINUOUS
10
0.520295
20
1.04445
11
0.520296
21
1.04439
0
LINE
8
BLACK
6
CONTINUOUS
10
0.520296
20
1.04439
11
0.518422
21
1.03877
0
LINE
8
BLACK
6
CONTINUOUS
10
0.518422
20
1.03877
11
0.517933
21
1.03786
0
LINE
8
BLACK
6
CONTINUOUS
10
0.517933
20
1.03786
11
0.517783
21
1.03777
0
LINE
8
BLACK
6
CONTINUOUS
10
0.517783
20
1.03777
11
0.517708
21
1.03761
0
LINE
8
BLACK
6
CONTINUOUS
10
0.517708
20
1.03761
11
0.513959
21
1.03386
0
LINE
8
BLACK
6
CONTINUOUS
10
0.513959
20
1.03386
11
0.513236
21
1.03336
0
LINE
8
BLACK
6
CONTINUOUS
10
0.513236
20
1.03336
11
0.513191
21
1.03331
0
LINE
8
BLACK
6
CONTINUOUS
10
0.513191
20
1.03331
11
0.509442
21
1.03143
0
LINE
8
BLACK
6
CONTINUOUS
10
0.509442
20
1.03143
11
0.508954
21
1.03129
0
LINE
8
BLACK
6
CONTINUOUS
10
0.508954
20
1.03129
11
0.508838
21
1.03121
0
LINE
8
BLACK
6
CONTINUOUS
10
0.508838
20
1.03121
11
0.501339
21
1.02934
0
LINE
8
BLACK
6
CONTINUOUS
10
0.501339
20
1.02934
11
0.500751
21
1.02929
0
LINE
8
BLACK
6
CONTINUOUS
10
0.500751
20
1.02929
11
0.500622
21
1.02925
0
LINE
8
BLACK
6
CONTINUOUS
10
0.500622
20
1.02925
11
0.494998
21
1.02925
0
LINE
8
BLACK
6
CONTINUOUS
10
0.494998
20
1.02925
11
0.494418
21
1.02935
0
LINE
8
BLACK
6
CONTINUOUS
10
0.494418
20
1.02935
11
0.494282
21
1.02934
0
LINE
8
BLACK
6
CONTINUOUS
10
0.494282
20
1.02934
11
0.486783
21
1.03121
0
LINE
8
BLACK
6
CONTINUOUS
10
0.486783
20
1.03121
11
0.486317
21
1.03142
0
LINE
8
BLACK
6
CONTINUOUS
10
0.486317
20
1.03142
11
0.486179
21
1.03143
0
LINE
8
BLACK
6
CONTINUOUS
10
0.486179
20
1.03143
11
0.482429
21
1.03331
0
LINE
8
BLACK
6
CONTINUOUS
10
0.482429
20
1.03331
11
0.48172
21
1.03384
0
LINE
8
BLACK
6
CONTINUOUS
10
0.48172
20
1.03384
11
0.481662
21
1.03386
0
LINE
8
BLACK
6
CONTINUOUS
10
0.481662
20
1.03386
11
0.477912
21
1.03761
0
LINE
8
BLACK
6
CONTINUOUS
10
0.477912
20
1.03761
11
0.477324
21
1.03845
0
LINE
8
BLACK
6
CONTINUOUS
10
0.477324
20
1.03845
11
0.477309
21
1.03863
0
LINE
8
BLACK
6
CONTINUOUS
10
0.477309
20
1.03863
11
0.477199
21
1.03877
0
LINE
8
BLACK
6
CONTINUOUS
10
0.477199
20
1.03877
11
0.475324
21
1.04439
0
LINE
8
BLACK
6
CONTINUOUS
10
0.475324
20
1.04439
11
0.475194
21
1.04526
0
LINE
8
BLACK
6
CONTINUOUS
10
0.475194
20
1.04526
11
0.475172
21
1.04532
0
LINE
8
BLACK
6
CONTINUOUS
10
0.475172
20
1.04532
11
0.475172
21
1.04907
0
LINE
8
BLACK
6
CONTINUOUS
10
0.475172
20
1.04907
11
0.475326
21
1.04994
0
LINE
8
BLACK
6
CONTINUOUS
10
0.475326
20
1.04994
11
0.475324
21
1.05001
0
LINE
8
BLACK
6
CONTINUOUS
10
0.475324
20
1.05001
11
0.477199
21
1.05563
0
LINE
8
BLACK
6
CONTINUOUS
10
0.477199
20
1.05563
11
0.477687
21
1.05653
0
LINE
8
BLACK
6
CONTINUOUS
10
0.477687
20
1.05653
11
0.477838
21
1.05663
0
LINE
8
BLACK
6
CONTINUOUS
10
0.477838
20
1.05663
11
0.477912
21
1.05679
0
LINE
8
BLACK
6
CONTINUOUS
10
0.477912
20
1.05679
11
0.479787
21
1.05866
0
LINE
8
BLACK
6
CONTINUOUS
10
0.479787
20
1.05866
11
0.480627
21
1.05925
0
LINE
8
BLACK
6
CONTINUOUS
10
0.480627
20
1.05925
11
0.482639
21
1.05943
0
LINE
8
BLACK
6
CONTINUOUS
10
0.482639
20
1.05943
11
0.484294
21
1.05827
0
LINE
8
BLACK
6
CONTINUOUS
10
0.484294
20
1.05827
11
0.484816
21
1.05632
0
LINE
8
BLACK
6
CONTINUOUS
10
0.484816
20
1.05632
11
0.483963
21
1.05448
0
LINE
8
BLACK
6
CONTINUOUS
10
0.483963
20
1.05448
11
0.482581
21
1.0531
0
LINE
8
BLACK
6
CONTINUOUS
10
0.482581
20
1.0531
11
0.481078
21
1.04859
0
LINE
8
BLACK
6
CONTINUOUS
10
0.481078
20
1.04859
11
0.481078
21
1.0458
0
LINE
8
BLACK
6
CONTINUOUS
10
0.481078
20
1.0458
11
0.482581
21
1.0413
0
LINE
8
BLACK
6
CONTINUOUS
10
0.482581
20
1.0413
11
0.485499
21
1.03838
0
LINE
8
BLACK
6
CONTINUOUS
10
0.485499
20
1.03838
11
0.48853
21
1.03686
0
LINE
8
BLACK
6
CONTINUOUS
10
0.48853
20
1.03686
11
0.495362
21
1.03515
0
LINE
8
BLACK
6
CONTINUOUS
10
0.495362
20
1.03515
11
0.500259
21
1.03515
0
LINE
8
BLACK
6
CONTINUOUS
10
0.500259
20
1.03515
11
0.507091
21
1.03686
0
LINE
8
BLACK
6
CONTINUOUS
10
0.507091
20
1.03686
11
0.510122
21
1.03838
0
LINE
8
BLACK
6
CONTINUOUS
10
0.510122
20
1.03838
11
0.51304
21
1.0413
0
LINE
8
BLACK
6
CONTINUOUS
10
0.51304
20
1.0413
11
0.514543
21
1.0458
0
LINE
8
BLACK
6
CONTINUOUS
10
0.514543
20
1.0458
11
0.514543
21
1.04859
0
LINE
8
BLACK
6
CONTINUOUS
10
0.514543
20
1.04859
11
0.51304
21
1.0531
0
LINE
8
BLACK
6
CONTINUOUS
10
0.51304
20
1.0531
11
0.511658
21
1.05448
0
LINE
8
BLACK
6
CONTINUOUS
10
0.511658
20
1.05448
11
0.51107
21
1.05533
0
LINE
8
BLACK
6
CONTINUOUS
10
0.51107
20
1.05533
11
0.510894
21
1.05734
0
LINE
8
BLACK
6
CONTINUOUS
10
0.510894
20
1.05734
11
0.512052
21
1.05899
0
LINE
8
BLACK
6
CONTINUOUS
10
0.512052
20
1.05899
11
0.514003
21
1.05951
0
LINE
8
BLACK
6
CONTINUOUS
10
0.514003
20
1.05951
11
0.515834
21
1.05866
0
LINE
8
BLACK
6
CONTINUOUS
10
1.55583
20
1.05866
11
1.55771
21
1.05679
0
LINE
8
BLACK
6
CONTINUOUS
10
1.55771
20
1.05679
11
1.5583
21
1.05595
0
LINE
8
BLACK
6
CONTINUOUS
10
1.5583
20
1.05595
11
1.55831
21
1.05577
0
LINE
8
BLACK
6
CONTINUOUS
10
1.55831
20
1.05577
11
1.55842
21
1.05563
0
LINE
8
BLACK
6
CONTINUOUS
10
1.55842
20
1.05563
11
1.5603
21
1.05001
0
LINE
8
BLACK
6
CONTINUOUS
10
1.5603
20
1.05001
11
1.56043
21
1.04913
0
LINE
8
BLACK
6
CONTINUOUS
10
1.56043
20
1.04913
11
1.56045
21
1.04907
0
LINE
8
BLACK
6
CONTINUOUS
10
1.56045
20
1.04907
11
1.56045
21
1.04532
0
LINE
8
BLACK
6
CONTINUOUS
10
1.56045
20
1.04532
11
1.56029
21
1.04445
0
LINE
8
BLACK
6
CONTINUOUS
10
1.56029
20
1.04445
11
1.5603
21
1.04439
0
LINE
8
BLACK
6
CONTINUOUS
10
1.5603
20
1.04439
11
1.55842
21
1.03877
0
LINE
8
BLACK
6
CONTINUOUS
10
1.55842
20
1.03877
11
1.55793
21
1.03786
0
LINE
8
BLACK
6
CONTINUOUS
10
1.55793
20
1.03786
11
1.55778
21
1.03777
0
LINE
8
BLACK
6
CONTINUOUS
10
1.55778
20
1.03777
11
1.55771
21
1.03761
0
LINE
8
BLACK
6
CONTINUOUS
10
1.55771
20
1.03761
11
1.55396
21
1.03386
0
LINE
8
BLACK
6
CONTINUOUS
10
1.55396
20
1.03386
11
1.55324
21
1.03336
0
LINE
8
BLACK
6
CONTINUOUS
10
1.55324
20
1.03336
11
1.55319
21
1.03331
0
LINE
8
BLACK
6
CONTINUOUS
10
1.55319
20
1.03331
11
1.54944
21
1.03143
0
LINE
8
BLACK
6
CONTINUOUS
10
1.54944
20
1.03143
11
1.54895
21
1.03129
0
LINE
8
BLACK
6
CONTINUOUS
10
1.54895
20
1.03129
11
1.54884
21
1.03121
0
LINE
8
BLACK
6
CONTINUOUS
10
1.54884
20
1.03121
11
1.54134
21
1.02934
0
LINE
8
BLACK
6
CONTINUOUS
10
1.54134
20
1.02934
11
1.54075
21
1.02929
0
LINE
8
BLACK
6
CONTINUOUS
10
1.54075
20
1.02929
11
1.54062
21
1.02925
0
LINE
8
BLACK
6
CONTINUOUS
10
1.54062
20
1.02925
11
1.535
21
1.02925
0
LINE
8
BLACK
6
CONTINUOUS
10
1.535
20
1.02925
11
1.53442
21
1.02935
0
LINE
8
BLACK
6
CONTINUOUS
10
1.53442
20
1.02935
11
1.53428
21
1.02934
0
LINE
8
BLACK
6
CONTINUOUS
10
1.53428
20
1.02934
11
1.52678
21
1.03121
0
LINE
8
BLACK
6
CONTINUOUS
10
1.52678
20
1.03121
11
1.52632
21
1.03142
0
LINE
8
BLACK
6
CONTINUOUS
10
1.52632
20
1.03142
11
1.52618
21
1.03143
0
LINE
8
BLACK
6
CONTINUOUS
10
1.52618
20
1.03143
11
1.52243
21
1.03331
0
LINE
8
BLACK
6
CONTINUOUS
10
1.52243
20
1.03331
11
1.52172
21
1.03384
0
LINE
8
BLACK
6
CONTINUOUS
10
1.52172
20
1.03384
11
1.52166
21
1.03386
0
LINE
8
BLACK
6
CONTINUOUS
10
1.52166
20
1.03386
11
1.51791
21
1.03761
0
LINE
8
BLACK
6
CONTINUOUS
10
1.51791
20
1.03761
11
1.51732
21
1.03845
0
LINE
8
BLACK
6
CONTINUOUS
10
1.51732
20
1.03845
11
1.51731
21
1.03863
0
LINE
8
BLACK
6
CONTINUOUS
10
1.51731
20
1.03863
11
1.5172
21
1.03877
0
LINE
8
BLACK
6
CONTINUOUS
10
1.5172
20
1.03877
11
1.51532
21
1.04439
0
LINE
8
BLACK
6
CONTINUOUS
10
1.51532
20
1.04439
11
1.51519
21
1.04526
0
LINE
8
BLACK
6
CONTINUOUS
10
1.51519
20
1.04526
11
1.51517
21
1.04532
0
LINE
8
BLACK
6
CONTINUOUS
10
1.51517
20
1.04532
11
1.51517
21
1.04907
0
LINE
8
BLACK
6
CONTINUOUS
10
1.51517
20
1.04907
11
1.51533
21
1.04994
0
LINE
8
BLACK
6
CONTINUOUS
10
1.51533
20
1.04994
11
1.51532
21
1.05001
0
LINE
8
BLACK
6
CONTINUOUS
10
1.51532
20
1.05001
11
1.5172
21
1.05563
0
LINE
8
BLACK
6
CONTINUOUS
10
1.5172
20
1.05563
11
1.51769
21
1.05653
0
LINE
8
BLACK
6
CONTINUOUS
10
1.51769
20
1.05653
11
1.51784
21
1.05663
0
LINE
8
BLACK
6
CONTINUOUS
10
1.51784
20
1.05663
11
1.51791
21
1.05679
0
LINE
8
BLACK
6
CONTINUOUS
10
1.51791
20
1.05679
11
1.51979
21
1.05866
0
LINE
8
BLACK
6
CONTINUOUS
10
1.51979
20
1.05866
11
1.52063
21
1.05925
0
LINE
8
BLACK
6
CONTINUOUS
10
1.52063
20
1.05925
11
1.52264
21
1.05943
0
LINE
8
BLACK
6
CONTINUOUS
10
1.52264
20
1.05943
11
1.52429
21
1.05827
0
LINE
8
BLACK
6
CONTINUOUS
10
1.52429
20
1.05827
11
1.52482
21
1.05632
0
LINE
8
BLACK
6
CONTINUOUS
10
1.52482
20
1.05632
11
1.52396
21
1.05448
0
LINE
8
BLACK
6
CONTINUOUS
10
1.52396
20
1.05448
11
1.52258
21
1.0531
0
LINE
8
BLACK
6
CONTINUOUS
10
1.52258
20
1.0531
11
1.52108
21
1.04859
0
LINE
8
BLACK
6
CONTINUOUS
10
1.52108
20
1.04859
11
1.52108
21
1.0458
0
LINE
8
BLACK
6
CONTINUOUS
10
1.52108
20
1.0458
11
1.52258
21
1.0413
0
LINE
8
BLACK
6
CONTINUOUS
10
1.52258
20
1.0413
11
1.5255
21
1.03838
0
LINE
8
BLACK
6
CONTINUOUS
10
1.5255
20
1.03838
11
1.52853
21
1.03686
0
LINE
8
BLACK
6
CONTINUOUS
10
1.52853
20
1.03686
11
1.53536
21
1.03515
0
LINE
8
BLACK
6
CONTINUOUS
10
1.53536
20
1.03515
11
1.54026
21
1.03515
0
LINE
8
BLACK
6
CONTINUOUS
10
1.54026
20
1.03515
11
1.54709
21
1.03686
0
LINE
8
BLACK
6
CONTINUOUS
10
1.54709
20
1.03686
11
1.55012
21
1.03838
0
LINE
8
BLACK
6
CONTINUOUS
10
1.55012
20
1.03838
11
1.55304
21
1.0413
0
LINE
8
BLACK
6
CONTINUOUS
10
1.55304
20
1.0413
11
1.55454
21
1.0458
0
LINE
8
BLACK
6
CONTINUOUS
10
1.55454
20
1.0458
11
1.55454
21
1.04859
0
LINE
8
BLACK
6
CONTINUOUS
10
1.55454
20
1.04859
11
1.55304
21
1.0531
0
LINE
8
BLACK
6
CONTINUOUS
10
1.55304
20
1.0531
11
1.55166
21
1.05448
0
LINE
8
BLACK
6
CONTINUOUS
10
1.55166
20
1.05448
11
1.55107
21
1.05533
0
LINE
8
BLACK
6
CONTINUOUS
10
1.55107
20
1.05533
11
1.55089
21
1.05734
0
LINE
8
BLACK
6
CONTINUOUS
10
1.55089
20
1.05734
11
1.55205
21
1.05899
0
LINE
8
BLACK
6
CONTINUOUS
10
1.55205
20
1.05899
11
1.554
21
1.05951
0
LINE
8
BLACK
6
CONTINUOUS
10
1.554
20
1.05951
11
1.55583
21
1.05866
0
LINE
8
BLACK
6
CONTINUOUS
10
1.54495
20
1.10067
11
1.54509
21
1.10068
0
LINE
8
BLACK
6
CONTINUOUS
10
1.54509
20
1.10068
11
1.55259
21
1.09881
0
LINE
8
BLACK
6
CONTINUOUS
10
1.55259
20
1.09881
11
1.55352
21
1.09839
0
LINE
8
BLACK
6
CONTINUOUS
10
1.55352
20
1.09839
11
1.55369
21
1.09815
0
LINE
8
BLACK
6
CONTINUOUS
10
1.55369
20
1.09815
11
1.55396
21
1.09803
0
LINE
8
BLACK
6
CONTINUOUS
10
1.55396
20
1.09803
11
1.55771
21
1.09428
0
LINE
8
BLACK
6
CONTINUOUS
10
1.55771
20
1.09428
11
1.55821
21
1.09356
0
LINE
8
BLACK
6
CONTINUOUS
10
1.55821
20
1.09356
11
1.55826
21
1.09351
0
LINE
8
BLACK
6
CONTINUOUS
10
1.55826
20
1.09351
11
1.56014
21
1.08976
0
LINE
8
BLACK
6
CONTINUOUS
10
1.56014
20
1.08976
11
1.56043
21
1.08878
0
LINE
8
BLACK
6
CONTINUOUS
10
1.56043
20
1.08878
11
1.56039
21
1.08861
0
LINE
8
BLACK
6
CONTINUOUS
10
1.56039
20
1.08861
11
1.56045
21
1.08844
0
LINE
8
BLACK
6
CONTINUOUS
10
1.56045
20
1.08844
11
1.56045
21
1.08094
0
LINE
8
BLACK
6
CONTINUOUS
10
1.56045
20
1.08094
11
1.56027
21
1.07993
0
LINE
8
BLACK
6
CONTINUOUS
10
1.56027
20
1.07993
11
1.56016
21
1.0798
0
LINE
8
BLACK
6
CONTINUOUS
10
1.56016
20
1.0798
11
1.56014
21
1.07962
0
LINE
8
BLACK
6
CONTINUOUS
10
1.56014
20
1.07962
11
1.55826
21
1.07587
0
LINE
8
BLACK
6
CONTINUOUS
10
1.55826
20
1.07587
11
1.55774
21
1.07517
0
LINE
8
BLACK
6
CONTINUOUS
10
1.55774
20
1.07517
11
1.55771
21
1.07511
0
LINE
8
BLACK
6
CONTINUOUS
10
1.55771
20
1.07511
11
1.55396
21
1.07136
0
LINE
8
BLACK
6
CONTINUOUS
10
1.55396
20
1.07136
11
1.55312
21
1.07077
0
LINE
8
BLACK
6
CONTINUOUS
10
1.55312
20
1.07077
11
1.55283
21
1.07074
0
LINE
8
BLACK
6
CONTINUOUS
10
1.55283
20
1.07074
11
1.55259
21
1.07058
0
LINE
8
BLACK
6
CONTINUOUS
10
1.55259
20
1.07058
11
1.54509
21
1.06871
0
LINE
8
BLACK
6
CONTINUOUS
10
1.54509
20
1.06871
11
1.5445
21
1.06866
0
LINE
8
BLACK
6
CONTINUOUS
10
1.5445
20
1.06866
11
1.54437
21
1.06862
0
LINE
8
BLACK
6
CONTINUOUS
10
1.54437
20
1.06862
11
1.53125
21
1.06862
0
LINE
8
BLACK
6
CONTINUOUS
10
1.53125
20
1.06862
11
1.53067
21
1.06872
0
LINE
8
BLACK
6
CONTINUOUS
10
1.53067
20
1.06872
11
1.53053
21
1.06871
0
LINE
8
BLACK
6
CONTINUOUS
10
1.53053
20
1.06871
11
1.52303
21
1.07058
0
LINE
8
BLACK
6
CONTINUOUS
10
1.52303
20
1.07058
11
1.5221
21
1.071
0
LINE
8
BLACK
6
CONTINUOUS
10
1.5221
20
1.071
11
1.52193
21
1.07123
0
LINE
8
BLACK
6
CONTINUOUS
10
1.52193
20
1.07123
11
1.52166
21
1.07136
0
LINE
8
BLACK
6
CONTINUOUS
10
1.52166
20
1.07136
11
1.51791
21
1.07511
0
LINE
8
BLACK
6
CONTINUOUS
10
1.51791
20
1.07511
11
1.51741
21
1.07583
0
LINE
8
BLACK
6
CONTINUOUS
10
1.51741
20
1.07583
11
1.51736
21
1.07587
0
LINE
8
BLACK
6
CONTINUOUS
10
1.51736
20
1.07587
11
1.51548
21
1.07962
0
LINE
8
BLACK
6
CONTINUOUS
10
1.51548
20
1.07962
11
1.51519
21
1.08061
0
LINE
8
BLACK
6
CONTINUOUS
10
1.51519
20
1.08061
11
1.51523
21
1.08078
0
LINE
8
BLACK
6
CONTINUOUS
10
1.51523
20
1.08078
11
1.51517
21
1.08094
0
LINE
8
BLACK
6
CONTINUOUS
10
1.51517
20
1.08094
11
1.51517
21
1.08844
0
LINE
8
BLACK
6
CONTINUOUS
10
1.51517
20
1.08844
11
1.51535
21
1.08945
0
LINE
8
BLACK
6
CONTINUOUS
10
1.51535
20
1.08945
11
1.51546
21
1.08959
0
LINE
8
BLACK
6
CONTINUOUS
10
1.51546
20
1.08959
11
1.51548
21
1.08976
0
LINE
8
BLACK
6
CONTINUOUS
10
1.51548
20
1.08976
11
1.51736
21
1.09351
0
LINE
8
BLACK
6
CONTINUOUS
10
1.51736
20
1.09351
11
1.51788
21
1.09422
0
LINE
8
BLACK
6
CONTINUOUS
10
1.51788
20
1.09422
11
1.51791
21
1.09428
0
LINE
8
BLACK
6
CONTINUOUS
10
1.51791
20
1.09428
11
1.52166
21
1.09803
0
LINE
8
BLACK
6
CONTINUOUS
10
1.52166
20
1.09803
11
1.5225
21
1.09862
0
LINE
8
BLACK
6
CONTINUOUS
10
1.5225
20
1.09862
11
1.52279
21
1.09864
0
LINE
8
BLACK
6
CONTINUOUS
10
1.52279
20
1.09864
11
1.52303
21
1.09881
0
LINE
8
BLACK
6
CONTINUOUS
10
1.52303
20
1.09881
11
1.53053
21
1.10068
0
LINE
8
BLACK
6
CONTINUOUS
10
1.53053
20
1.10068
11
1.53112
21
1.10072
0
LINE
8
BLACK
6
CONTINUOUS
10
1.53112
20
1.10072
11
1.53125
21
1.10077
0
LINE
8
BLACK
6
CONTINUOUS
10
1.53125
20
1.10077
11
1.54437
21
1.10077
0
LINE
8
BLACK
6
CONTINUOUS
10
1.54437
20
1.10077
11
1.54495
21
1.10067
0
LINE
8
BLACK
6
CONTINUOUS
10
1.53161
20
1.09486
11
1.52526
21
1.09328
0
LINE
8
BLACK
6
CONTINUOUS
10
1.52526
20
1.09328
11
1.52243
21
1.09044
0
LINE
8
BLACK
6
CONTINUOUS
10
1.52243
20
1.09044
11
1.52108
21
1.08775
0
LINE
8
BLACK
6
CONTINUOUS
10
1.52108
20
1.08775
11
1.52108
21
1.08164
0
LINE
8
BLACK
6
CONTINUOUS
10
1.52108
20
1.08164
11
1.52243
21
1.07894
0
LINE
8
BLACK
6
CONTINUOUS
10
1.52243
20
1.07894
11
1.52526
21
1.07611
0
LINE
8
BLACK
6
CONTINUOUS
10
1.52526
20
1.07611
11
1.53161
21
1.07452
0
LINE
8
BLACK
6
CONTINUOUS
10
1.53161
20
1.07452
11
1.54401
21
1.07452
0
LINE
8
BLACK
6
CONTINUOUS
10
1.54401
20
1.07452
11
1.55036
21
1.07611
0
LINE
8
BLACK
6
CONTINUOUS
10
1.55036
20
1.07611
11
1.55319
21
1.07894
0
LINE
8
BLACK
6
CONTINUOUS
10
1.55319
20
1.07894
11
1.55454
21
1.08164
0
LINE
8
BLACK
6
CONTINUOUS
10
1.55454
20
1.08164
11
1.55454
21
1.08775
0
LINE
8
BLACK
6
CONTINUOUS
10
1.55454
20
1.08775
11
1.55319
21
1.09044
0
LINE
8
BLACK
6
CONTINUOUS
10
1.55319
20
1.09044
11
1.55036
21
1.09328
0
LINE
8
BLACK
6
CONTINUOUS
10
1.55036
20
1.09328
11
1.54401
21
1.09486
0
LINE
8
BLACK
6
CONTINUOUS
10
1.54401
20
1.09486
11
1.53161
21
1.09486
0
LINE
8
BLACK
6
CONTINUOUS
10
0.504952
20
1.10067
11
0.505088
21
1.10068
0
LINE
8
BLACK
6
CONTINUOUS
10
0.505088
20
1.10068
11
0.512587
21
1.09881
0
LINE
8
BLACK
6
CONTINUOUS
10
0.512587
20
1.09881
11
0.513524
21
1.09839
0
LINE
8
BLACK
6
CONTINUOUS
10
0.513524
20
1.09839
11
0.513695
21
1.09815
0
LINE
8
BLACK
6
CONTINUOUS
10
0.513695
20
1.09815
11
0.513959
21
1.09803
0
LINE
8
BLACK
6
CONTINUOUS
10
0.513959
20
1.09803
11
0.517708
21
1.09428
0
LINE
8
BLACK
6
CONTINUOUS
10
0.517708
20
1.09428
11
0.518215
21
1.09356
0
LINE
8
BLACK
6
CONTINUOUS
10
0.518215
20
1.09356
11
0.518262
21
1.09351
0
LINE
8
BLACK
6
CONTINUOUS
10
0.518262
20
1.09351
11
0.520136
21
1.08976
0
LINE
8
BLACK
6
CONTINUOUS
10
0.520136
20
1.08976
11
0.520429
21
1.08878
0
LINE
8
BLACK
6
CONTINUOUS
10
0.520429
20
1.08878
11
0.520388
21
1.08861
0
LINE
8
BLACK
6
CONTINUOUS
10
0.520388
20
1.08861
11
0.520448
21
1.08844
0
LINE
8
BLACK
6
CONTINUOUS
10
0.520448
20
1.08844
11
0.520448
21
1.08094
0
LINE
8
BLACK
6
CONTINUOUS
10
0.520448
20
1.08094
11
0.52027
21
1.07993
0
LINE
8
BLACK
6
CONTINUOUS
10
0.52027
20
1.07993
11
0.520156
21
1.0798
0
LINE
8
BLACK
6
CONTINUOUS
10
0.520156
20
1.0798
11
0.520136
21
1.07962
0
LINE
8
BLACK
6
CONTINUOUS
10
0.520136
20
1.07962
11
0.518262
21
1.07587
0
LINE
8
BLACK
6
CONTINUOUS
10
0.518262
20
1.07587
11
0.517736
21
1.07517
0
LINE
8
BLACK
6
CONTINUOUS
10
0.517736
20
1.07517
11
0.517708
21
1.07511
0
LINE
8
BLACK
6
CONTINUOUS
10
0.517708
20
1.07511
11
0.513959
21
1.07136
0
LINE
8
BLACK
6
CONTINUOUS
10
0.513959
20
1.07136
11
0.513119
21
1.07077
0
LINE
8
BLACK
6
CONTINUOUS
10
0.513119
20
1.07077
11
0.512829
21
1.07074
0
LINE
8
BLACK
6
CONTINUOUS
10
0.512829
20
1.07074
11
0.512587
21
1.07058
0
LINE
8
BLACK
6
CONTINUOUS
10
0.512587
20
1.07058
11
0.505088
21
1.06871
0
LINE
8
BLACK
6
CONTINUOUS
10
0.505088
20
1.06871
11
0.5045
21
1.06866
0
LINE
8
BLACK
6
CONTINUOUS
10
0.5045
20
1.06866
11
0.504372
21
1.06862
0
LINE
8
BLACK
6
CONTINUOUS
10
0.504372
20
1.06862
11
0.491249
21
1.06862
0
LINE
8
BLACK
6
CONTINUOUS
10
0.491249
20
1.06862
11
0.490668
21
1.06872
0
LINE
8
BLACK
6
CONTINUOUS
10
0.490668
20
1.06872
11
0.490532
21
1.06871
0
LINE
8
BLACK
6
CONTINUOUS
10
0.490532
20
1.06871
11
0.483033
21
1.07058
0
LINE
8
BLACK
6
CONTINUOUS
10
0.483033
20
1.07058
11
0.482097
21
1.071
0
LINE
8
BLACK
6
CONTINUOUS
10
0.482097
20
1.071
11
0.481926
21
1.07123
0
LINE
8
BLACK
6
CONTINUOUS
10
0.481926
20
1.07123
11
0.481662
21
1.07136
0
LINE
8
BLACK
6
CONTINUOUS
10
0.481662
20
1.07136
11
0.477912
21
1.07511
0
LINE
8
BLACK
6
CONTINUOUS
10
0.477912
20
1.07511
11
0.477406
21
1.07583
0
LINE
8
BLACK
6
CONTINUOUS
10
0.477406
20
1.07583
11
0.477359
21
1.07587
0
LINE
8
BLACK
6
CONTINUOUS
10
0.477359
20
1.07587
11
0.475484
21
1.07962
0
LINE
8
BLACK
6
CONTINUOUS
10
0.475484
20
1.07962
11
0.475192
21
1.08061
0
LINE
8
BLACK
6
CONTINUOUS
10
0.475192
20
1.08061
11
0.475233
21
1.08078
0
LINE
8
BLACK
6
CONTINUOUS
10
0.475233
20
1.08078
11
0.475172
21
1.08094
0
LINE
8
BLACK
6
CONTINUOUS
10
0.475172
20
1.08094
11
0.475172
21
1.08844
0
LINE
8
BLACK
6
CONTINUOUS
10
0.475172
20
1.08844
11
0.475351
21
1.08945
0
LINE
8
BLACK
6
CONTINUOUS
10
0.475351
20
1.08945
11
0.475464
21
1.08959
0
LINE
8
BLACK
6
CONTINUOUS
10
0.475464
20
1.08959
11
0.475484
21
1.08976
0
LINE
8
BLACK
6
CONTINUOUS
10
0.475484
20
1.08976
11
0.477359
21
1.09351
0
LINE
8
BLACK
6
CONTINUOUS
10
0.477359
20
1.09351
11
0.477885
21
1.09422
0
LINE
8
BLACK
6
CONTINUOUS
10
0.477885
20
1.09422
11
0.477912
21
1.09428
0
LINE
8
BLACK
6
CONTINUOUS
10
0.477912
20
1.09428
11
0.481662
21
1.09803
0
LINE
8
BLACK
6
CONTINUOUS
10
0.481662
20
1.09803
11
0.482502
21
1.09862
0
LINE
8
BLACK
6
CONTINUOUS
10
0.482502
20
1.09862
11
0.482792
21
1.09864
0
LINE
8
BLACK
6
CONTINUOUS
10
0.482792
20
1.09864
11
0.483033
21
1.09881
0
LINE
8
BLACK
6
CONTINUOUS
10
0.483033
20
1.09881
11
0.490532
21
1.10068
0
LINE
8
BLACK
6
CONTINUOUS
10
0.490532
20
1.10068
11
0.49112
21
1.10072
0
LINE
8
BLACK
6
CONTINUOUS
10
0.49112
20
1.10072
11
0.491249
21
1.10077
0
LINE
8
BLACK
6
CONTINUOUS
10
0.491249
20
1.10077
11
0.504372
21
1.10077
0
LINE
8
BLACK
6
CONTINUOUS
10
0.504372
20
1.10077
11
0.504952
21
1.10067
0
LINE
8
BLACK
6
CONTINUOUS
10
0.491612
20
1.09486
11
0.485259
21
1.09328
0
LINE
8
BLACK
6
CONTINUOUS
10
0.485259
20
1.09328
11
0.482427
21
1.09044
0
LINE
8
BLACK
6
CONTINUOUS
10
0.482427
20
1.09044
11
0.481078
21
1.08775
0
LINE
8
BLACK
6
CONTINUOUS
10
0.481078
20
1.08775
11
0.481078
21
1.08164
0
LINE
8
BLACK
6
CONTINUOUS
10
0.481078
20
1.08164
11
0.482427
21
1.07894
0
LINE
8
BLACK
6
CONTINUOUS
10
0.482427
20
1.07894
11
0.485259
21
1.07611
0
LINE
8
BLACK
6
CONTINUOUS
10
0.485259
20
1.07611
11
0.491612
21
1.07452
0
LINE
8
BLACK
6
CONTINUOUS
10
0.491612
20
1.07452
11
0.504008
21
1.07452
0
LINE
8
BLACK
6
CONTINUOUS
10
0.504008
20
1.07452
11
0.510361
21
1.07611
0
LINE
8
BLACK
6
CONTINUOUS
10
0.510361
20
1.07611
11
0.513194
21
1.07894
0
LINE
8
BLACK
6
CONTINUOUS
10
0.513194
20
1.07894
11
0.514543
21
1.08164
0
LINE
8
BLACK
6
CONTINUOUS
10
0.514543
20
1.08164
11
0.514543
21
1.08775
0
LINE
8
BLACK
6
CONTINUOUS
10
0.514543
20
1.08775
11
0.513194
21
1.09044
0
LINE
8
BLACK
6
CONTINUOUS
10
0.513194
20
1.09044
11
0.510361
21
1.09328
0
LINE
8
BLACK
6
CONTINUOUS
10
0.510361
20
1.09328
11
0.504008
21
1.09486
0
LINE
8
BLACK
6
CONTINUOUS
10
0.504008
20
1.09486
11
0.491612
21
1.09486
0
LINE
8
BLACK
6
CONTINUOUS
10
1.55851
20
1.13996
11
1.55871
21
1.13979
0
LINE
8
BLACK
6
CONTINUOUS
10
1.55871
20
1.13979
11
1.55898
21
1.13974
0
LINE
8
BLACK
6
CONTINUOUS
10
1.55898
20
1.13974
11
1.55947
21
1.13915
0
LINE
8
BLACK
6
CONTINUOUS
10
1.55947
20
1.13915
11
1.56005
21
1.13866
0
LINE
8
BLACK
6
CONTINUOUS
10
1.56005
20
1.13866
11
1.5601
21
1.1384
0
LINE
8
BLACK
6
CONTINUOUS
10
1.5601
20
1.1384
11
1.56027
21
1.13819
0
LINE
8
BLACK
6
CONTINUOUS
10
1.56027
20
1.13819
11
1.56027
21
1.13742
0
LINE
8
BLACK
6
CONTINUOUS
10
1.56027
20
1.13742
11
1.5604
21
1.13668
0
LINE
8
BLACK
6
CONTINUOUS
10
1.5604
20
1.13668
11
1.56027
21
1.13644
0
LINE
8
BLACK
6
CONTINUOUS
10
1.56027
20
1.13644
11
1.56027
21
1.13617
0
LINE
8
BLACK
6
CONTINUOUS
10
1.56027
20
1.13617
11
1.55977
21
1.13558
0
LINE
8
BLACK
6
CONTINUOUS
10
1.55977
20
1.13558
11
1.55939
21
1.13493
0
LINE
8
BLACK
6
CONTINUOUS
10
1.55939
20
1.13493
11
1.55914
21
1.13483
0
LINE
8
BLACK
6
CONTINUOUS
10
1.55914
20
1.13483
11
1.55896
21
1.13462
0
LINE
8
BLACK
6
CONTINUOUS
10
1.55896
20
1.13462
11
1.52924
21
1.11764
0
LINE
8
BLACK
6
CONTINUOUS
10
1.52924
20
1.11764
11
1.5575
21
1.11764
0
LINE
8
BLACK
6
CONTINUOUS
10
1.5575
20
1.11764
11
1.55851
21
1.11747
0
LINE
8
BLACK
6
CONTINUOUS
10
1.55851
20
1.11747
11
1.56005
21
1.11617
0
LINE
8
BLACK
6
CONTINUOUS
10
1.56005
20
1.11617
11
1.5604
21
1.11418
0
LINE
8
BLACK
6
CONTINUOUS
10
1.5604
20
1.11418
11
1.55939
21
1.11243
0
LINE
8
BLACK
6
CONTINUOUS
10
1.55939
20
1.11243
11
1.5575
21
1.11174
0
LINE
8
BLACK
6
CONTINUOUS
10
1.5575
20
1.11174
11
1.51813
21
1.11174
0
LINE
8
BLACK
6
CONTINUOUS
10
1.51813
20
1.11174
11
1.51712
21
1.11192
0
LINE
8
BLACK
6
CONTINUOUS
10
1.51712
20
1.11192
11
1.51691
21
1.11209
0
LINE
8
BLACK
6
CONTINUOUS
10
1.51691
20
1.11209
11
1.51664
21
1.11214
0
LINE
8
BLACK
6
CONTINUOUS
10
1.51664
20
1.11214
11
1.51615
21
1.11273
0
LINE
8
BLACK
6
CONTINUOUS
10
1.51615
20
1.11273
11
1.51557
21
1.11321
0
LINE
8
BLACK
6
CONTINUOUS
10
1.51557
20
1.11321
11
1.51552
21
1.11348
0
LINE
8
BLACK
6
CONTINUOUS
10
1.51552
20
1.11348
11
1.51535
21
1.11369
0
LINE
8
BLACK
6
CONTINUOUS
10
1.51535
20
1.11369
11
1.51535
21
1.11445
0
LINE
8
BLACK
6
CONTINUOUS
10
1.51535
20
1.11445
11
1.51522
21
1.1152
0
LINE
8
BLACK
6
CONTINUOUS
10
1.51522
20
1.1152
11
1.51535
21
1.11544
0
LINE
8
BLACK
6
CONTINUOUS
10
1.51535
20
1.11544
11
1.51536
21
1.11571
0
LINE
8
BLACK
6
CONTINUOUS
10
1.51536
20
1.11571
11
1.51585
21
1.11629
0
LINE
8
BLACK
6
CONTINUOUS
10
1.51585
20
1.11629
11
1.51623
21
1.11695
0
LINE
8
BLACK
6
CONTINUOUS
10
1.51623
20
1.11695
11
1.51648
21
1.11705
0
LINE
8
BLACK
6
CONTINUOUS
10
1.51648
20
1.11705
11
1.51666
21
1.11725
0
LINE
8
BLACK
6
CONTINUOUS
10
1.51666
20
1.11725
11
1.54638
21
1.13424
0
LINE
8
BLACK
6
CONTINUOUS
10
1.54638
20
1.13424
11
1.51813
21
1.13424
0
LINE
8
BLACK
6
CONTINUOUS
10
1.51813
20
1.13424
11
1.51712
21
1.13441
0
LINE
8
BLACK
6
CONTINUOUS
10
1.51712
20
1.13441
11
1.51557
21
1.13571
0
LINE
8
BLACK
6
CONTINUOUS
10
1.51557
20
1.13571
11
1.51522
21
1.1377
0
LINE
8
BLACK
6
CONTINUOUS
10
1.51522
20
1.1377
11
1.51623
21
1.13945
0
LINE
8
BLACK
6
CONTINUOUS
10
1.51623
20
1.13945
11
1.51813
21
1.14014
0
LINE
8
BLACK
6
CONTINUOUS
10
1.51813
20
1.14014
11
1.5575
21
1.14014
0
LINE
8
BLACK
6
CONTINUOUS
10
1.5575
20
1.14014
11
1.55851
21
1.13996
0
LINE
8
BLACK
6
CONTINUOUS
10
0.518505
20
1.13996
11
0.518714
21
1.13979
0
LINE
8
BLACK
6
CONTINUOUS
10
0.518714
20
1.13979
11
0.518983
21
1.13974
0
LINE
8
BLACK
6
CONTINUOUS
10
0.518983
20
1.13974
11
0.51947
21
1.13915
0
LINE
8
BLACK
6
CONTINUOUS
10
0.51947
20
1.13915
11
0.520052
21
1.13866
0
LINE
8
BLACK
6
CONTINUOUS
10
0.520052
20
1.13866
11
0.5201
21
1.1384
0
LINE
8
BLACK
6
CONTINUOUS
10
0.5201
20
1.1384
11
0.520274
21
1.13819
0
LINE
8
BLACK
6
CONTINUOUS
10
0.520274
20
1.13819
11
0.520271
21
1.13742
0
LINE
8
BLACK
6
CONTINUOUS
10
0.520271
20
1.13742
11
0.520403
21
1.13668
0
LINE
8
BLACK
6
CONTINUOUS
10
0.520403
20
1.13668
11
0.520267
21
1.13644
0
LINE
8
BLACK
6
CONTINUOUS
10
0.520267
20
1.13644
11
0.520265
21
1.13617
0
LINE
8
BLACK
6
CONTINUOUS
10
0.520265
20
1.13617
11
0.519774
21
1.13558
0
LINE
8
BLACK
6
CONTINUOUS
10
0.519774
20
1.13558
11
0.519393
21
1.13493
0
LINE
8
BLACK
6
CONTINUOUS
10
0.519393
20
1.13493
11
0.519137
21
1.13483
0
LINE
8
BLACK
6
CONTINUOUS
10
0.519137
20
1.13483
11
0.51896
21
1.13462
0
LINE
8
BLACK
6
CONTINUOUS
10
0.51896
20
1.13462
11
0.489244
21
1.11764
0
LINE
8
BLACK
6
CONTINUOUS
10
0.489244
20
1.11764
11
0.517495
21
1.11764
0
LINE
8
BLACK
6
CONTINUOUS
10
0.517495
20
1.11764
11
0.518505
21
1.11747
0
LINE
8
BLACK
6
CONTINUOUS
10
0.518505
20
1.11747
11
0.520052
21
1.11617
0
LINE
8
BLACK
6
CONTINUOUS
10
0.520052
20
1.11617
11
0.520403
21
1.11418
0
LINE
8
BLACK
6
CONTINUOUS
10
0.520403
20
1.11418
11
0.519393
21
1.11243
0
LINE
8
BLACK
6
CONTINUOUS
10
0.519393
20
1.11243
11
0.517495
21
1.11174
0
LINE
8
BLACK
6
CONTINUOUS
10
0.517495
20
1.11174
11
0.478125
21
1.11174
0
LINE
8
BLACK
6
CONTINUOUS
10
0.478125
20
1.11174
11
0.477115
21
1.11192
0
LINE
8
BLACK
6
CONTINUOUS
10
0.477115
20
1.11192
11
0.476906
21
1.11209
0
LINE
8
BLACK
6
CONTINUOUS
10
0.476906
20
1.11209
11
0.476637
21
1.11214
0
LINE
8
BLACK
6
CONTINUOUS
10
0.476637
20
1.11214
11
0.476151
21
1.11273
0
LINE
8
BLACK
6
CONTINUOUS
10
0.476151
20
1.11273
11
0.475568
21
1.11321
0
LINE
8
BLACK
6
CONTINUOUS
10
0.475568
20
1.11321
11
0.475521
21
1.11348
0
LINE
8
BLACK
6
CONTINUOUS
10
0.475521
20
1.11348
11
0.475346
21
1.11369
0
LINE
8
BLACK
6
CONTINUOUS
10
0.475346
20
1.11369
11
0.475349
21
1.11445
0
LINE
8
BLACK
6
CONTINUOUS
10
0.475349
20
1.11445
11
0.475217
21
1.1152
0
LINE
8
BLACK
6
CONTINUOUS
10
0.475217
20
1.1152
11
0.475354
21
1.11544
0
LINE
8
BLACK
6
CONTINUOUS
10
0.475354
20
1.11544
11
0.475355
21
1.11571
0
LINE
8
BLACK
6
CONTINUOUS
10
0.475355
20
1.11571
11
0.475847
21
1.11629
0
LINE
8
BLACK
6
CONTINUOUS
10
0.475847
20
1.11629
11
0.476227
21
1.11695
0
LINE
8
BLACK
6
CONTINUOUS
10
0.476227
20
1.11695
11
0.476484
21
1.11705
0
LINE
8
BLACK
6
CONTINUOUS
10
0.476484
20
1.11705
11
0.47666
21
1.11725
0
LINE
8
BLACK
6
CONTINUOUS
10
0.47666
20
1.11725
11
0.506376
21
1.13424
0
LINE
8
BLACK
6
CONTINUOUS
10
0.506376
20
1.13424
11
0.478125
21
1.13424
0
LINE
8
BLACK
6
CONTINUOUS
10
0.478125
20
1.13424
11
0.477115
21
1.13441
0
LINE
8
BLACK
6
CONTINUOUS
10
0.477115
20
1.13441
11
0.475568
21
1.13571
0
LINE
8
BLACK
6
CONTINUOUS
10
0.475568
20
1.13571
11
0.475217
21
1.1377
0
LINE
8
BLACK
6
CONTINUOUS
10
0.475217
20
1.1377
11
0.476227
21
1.13945
0
LINE
8
BLACK
6
CONTINUOUS
10
0.476227
20
1.13945
11
0.478125
21
1.14014
0
LINE
8
BLACK
6
CONTINUOUS
10
0.478125
20
1.14014
11
0.517495
21
1.14014
0
LINE
8
BLACK
6
CONTINUOUS
10
0.517495
20
1.14014
11
0.518505
21
1.13996
0
LINE
8
BLACK
6
CONTINUOUS
10
1.55851
20
1.18121
11
1.55871
21
1.18103
0
LINE
8
BLACK
6
CONTINUOUS
10
1.55871
20
1.18103
11
1.55898
21
1.18098
0
LINE
8
BLACK
6
CONTINUOUS
10
1.55898
20
1.18098
11
1.55947
21
1.1804
0
LINE
8
BLACK
6
CONTINUOUS
10
1.55947
20
1.1804
11
1.56005
21
1.17991
0
LINE
8
BLACK
6
CONTINUOUS
10
1.56005
20
1.17991
11
1.5601
21
1.17964
0
LINE
8
BLACK
6
CONTINUOUS
10
1.5601
20
1.17964
11
1.56027
21
1.17943
0
LINE
8
BLACK
6
CONTINUOUS
10
1.56027
20
1.17943
11
1.56027
21
1.17867
0
LINE
8
BLACK
6
CONTINUOUS
10
1.56027
20
1.17867
11
1.5604
21
1.17792
0
LINE
8
BLACK
6
CONTINUOUS
10
1.5604
20
1.17792
11
1.56027
21
1.17768
0
LINE
8
BLACK
6
CONTINUOUS
10
1.56027
20
1.17768
11
1.56027
21
1.17741
0
LINE
8
BLACK
6
CONTINUOUS
10
1.56027
20
1.17741
11
1.55977
21
1.17683
0
LINE
8
BLACK
6
CONTINUOUS
10
1.55977
20
1.17683
11
1.55939
21
1.17617
0
LINE
8
BLACK
6
CONTINUOUS
10
1.55939
20
1.17617
11
1.55914
21
1.17608
0
LINE
8
BLACK
6
CONTINUOUS
10
1.55914
20
1.17608
11
1.55896
21
1.17587
0
LINE
8
BLACK
6
CONTINUOUS
10
1.55896
20
1.17587
11
1.52924
21
1.15889
0
LINE
8
BLACK
6
CONTINUOUS
10
1.52924
20
1.15889
11
1.5575
21
1.15889
0
LINE
8
BLACK
6
CONTINUOUS
10
1.5575
20
1.15889
11
1.55851
21
1.15871
0
LINE
8
BLACK
6
CONTINUOUS
10
1.55851
20
1.15871
11
1.56005
21
1.15741
0
LINE
8
BLACK
6
CONTINUOUS
10
1.56005
20
1.15741
11
1.5604
21
1.15542
0
LINE
8
BLACK
6
CONTINUOUS
10
1.5604
20
1.15542
11
1.55939
21
1.15367
0
LINE
8
BLACK
6
CONTINUOUS
10
1.55939
20
1.15367
11
1.5575
21
1.15298
0
LINE
8
BLACK
6
CONTINUOUS
10
1.5575
20
1.15298
11
1.51813
21
1.15298
0
LINE
8
BLACK
6
CONTINUOUS
10
1.51813
20
1.15298
11
1.51712
21
1.15316
0
LINE
8
BLACK
6
CONTINUOUS
10
1.51712
20
1.15316
11
1.51691
21
1.15334
0
LINE
8
BLACK
6
CONTINUOUS
10
1.51691
20
1.15334
11
1.51664
21
1.15338
0
LINE
8
BLACK
6
CONTINUOUS
10
1.51664
20
1.15338
11
1.51615
21
1.15397
0
LINE
8
BLACK
6
CONTINUOUS
10
1.51615
20
1.15397
11
1.51557
21
1.15446
0
LINE
8
BLACK
6
CONTINUOUS
10
1.51557
20
1.15446
11
1.51552
21
1.15473
0
LINE
8
BLACK
6
CONTINUOUS
10
1.51552
20
1.15473
11
1.51535
21
1.15494
0
LINE
8
BLACK
6
CONTINUOUS
10
1.51535
20
1.15494
11
1.51535
21
1.1557
0
LINE
8
BLACK
6
CONTINUOUS
10
1.51535
20
1.1557
11
1.51522
21
1.15645
0
LINE
8
BLACK
6
CONTINUOUS
10
1.51522
20
1.15645
11
1.51535
21
1.15668
0
LINE
8
BLACK
6
CONTINUOUS
10
1.51535
20
1.15668
11
1.51536
21
1.15696
0
LINE
8
BLACK
6
CONTINUOUS
10
1.51536
20
1.15696
11
1.51585
21
1.15754
0
LINE
8
BLACK
6
CONTINUOUS
10
1.51585
20
1.15754
11
1.51623
21
1.1582
0
LINE
8
BLACK
6
CONTINUOUS
10
1.51623
20
1.1582
11
1.51648
21
1.15829
0
LINE
8
BLACK
6
CONTINUOUS
10
1.51648
20
1.15829
11
1.51666
21
1.1585
0
LINE
8
BLACK
6
CONTINUOUS
10
1.51666
20
1.1585
11
1.54638
21
1.17548
0
LINE
8
BLACK
6
CONTINUOUS
10
1.54638
20
1.17548
11
1.51813
21
1.17548
0
LINE
8
BLACK
6
CONTINUOUS
10
1.51813
20
1.17548
11
1.51712
21
1.17566
0
LINE
8
BLACK
6
CONTINUOUS
10
1.51712
20
1.17566
11
1.51557
21
1.17696
0
LINE
8
BLACK
6
CONTINUOUS
10
1.51557
20
1.17696
11
1.51522
21
1.17895
0
LINE
8
BLACK
6
CONTINUOUS
10
1.51522
20
1.17895
11
1.51623
21
1.18069
0
LINE
8
BLACK
6
CONTINUOUS
10
1.51623
20
1.18069
11
1.51813
21
1.18139
0
LINE
8
BLACK
6
CONTINUOUS
10
1.51813
20
1.18139
11
1.5575
21
1.18139
0
LINE
8
BLACK
6
CONTINUOUS
10
1.5575
20
1.18139
11
1.55851
21
1.18121
0
LINE
8
BLACK
6
CONTINUOUS
10
0.518505
20
1.18121
11
0.518714
21
1.18103
0
LINE
8
BLACK
6
CONTINUOUS
10
0.518714
20
1.18103
11
0.518983
21
1.18098
0
LINE
8
BLACK
6
CONTINUOUS
10
0.518983
20
1.18098
11
0.51947
21
1.1804
0
LINE
8
BLACK
6
CONTINUOUS
10
0.51947
20
1.1804
11
0.520052
21
1.17991
0
LINE
8
BLACK
6
CONTINUOUS
10
0.520052
20
1.17991
11
0.5201
21
1.17964
0
LINE
8
BLACK
6
CONTINUOUS
10
0.5201
20
1.17964
11
0.520274
21
1.17943
0
LINE
8
BLACK
6
CONTINUOUS
10
0.520274
20
1.17943
11
0.520271
21
1.17867
0
LINE
8
BLACK
6
CONTINUOUS
10
0.520271
20
1.17867
11
0.520403
21
1.17792
0
LINE
8
BLACK
6
CONTINUOUS
10
0.520403
20
1.17792
11
0.520267
21
1.17768
0
LINE
8
BLACK
6
CONTINUOUS
10
0.520267
20
1.17768
11
0.520265
21
1.17741
0
LINE
8
BLACK
6
CONTINUOUS
10
0.520265
20
1.17741
11
0.519774
21
1.17683
0
LINE
8
BLACK
6
CONTINUOUS
10
0.519774
20
1.17683
11
0.519393
21
1.17617
0
LINE
8
BLACK
6
CONTINUOUS
10
0.519393
20
1.17617
11
0.519137
21
1.17608
0
LINE
8
BLACK
6
CONTINUOUS
10
0.519137
20
1.17608
11
0.51896
21
1.17587
0
LINE
8
BLACK
6
CONTINUOUS
10
0.51896
20
1.17587
11
0.489244
21
1.15889
0
LINE
8
BLACK
6
CONTINUOUS
10
0.489244
20
1.15889
11
0.517495
21
1.15889
0
LINE
8
BLACK
6
CONTINUOUS
10
0.517495
20
1.15889
11
0.518505
21
1.15871
0
LINE
8
BLACK
6
CONTINUOUS
10
0.518505
20
1.15871
11
0.520052
21
1.15741
0
LINE
8
BLACK
6
CONTINUOUS
10
0.520052
20
1.15741
11
0.520403
21
1.15542
0
LINE
8
BLACK
6
CONTINUOUS
10
0.520403
20
1.15542
11
0.519393
21
1.15367
0
LINE
8
BLACK
6
CONTINUOUS
10
0.519393
20
1.15367
11
0.517495
21
1.15298
0
LINE
8
BLACK
6
CONTINUOUS
10
0.517495
20
1.15298
11
0.478125
21
1.15298
0
LINE
8
BLACK
6
CONTINUOUS
10
0.478125
20
1.15298
11
0.477115
21
1.15316
0
LINE
8
BLACK
6
CONTINUOUS
10
0.477115
20
1.15316
11
0.476906
21
1.15334
0
LINE
8
BLACK
6
CONTINUOUS
10
0.476906
20
1.15334
11
0.476637
21
1.15338
0
LINE
8
BLACK
6
CONTINUOUS
10
0.476637
20
1.15338
11
0.476151
21
1.15397
0
LINE
8
BLACK
6
CONTINUOUS
10
0.476151
20
1.15397
11
0.475568
21
1.15446
0
LINE
8
BLACK
6
CONTINUOUS
10
0.475568
20
1.15446
11
0.475521
21
1.15473
0
LINE
8
BLACK
6
CONTINUOUS
10
0.475521
20
1.15473
11
0.475346
21
1.15494
0
LINE
8
BLACK
6
CONTINUOUS
10
0.475346
20
1.15494
11
0.475349
21
1.1557
0
LINE
8
BLACK
6
CONTINUOUS
10
0.475349
20
1.1557
11
0.475217
21
1.15645
0
LINE
8
BLACK
6
CONTINUOUS
10
0.475217
20
1.15645
11
0.475354
21
1.15668
0
LINE
8
BLACK
6
CONTINUOUS
10
0.475354
20
1.15668
11
0.475355
21
1.15696
0
LINE
8
BLACK
6
CONTINUOUS
10
0.475355
20
1.15696
11
0.475847
21
1.15754
0
LINE
8
BLACK
6
CONTINUOUS
10
0.475847
20
1.15754
11
0.476227
21
1.1582
0
LINE
8
BLACK
6
CONTINUOUS
10
0.476227
20
1.1582
11
0.476484
21
1.15829
0
LINE
8
BLACK
6
CONTINUOUS
10
0.476484
20
1.15829
11
0.47666
21
1.1585
0
LINE
8
BLACK
6
CONTINUOUS
10
0.47666
20
1.1585
11
0.506376
21
1.17548
0
LINE
8
BLACK
6
CONTINUOUS
10
0.506376
20
1.17548
11
0.478125
21
1.17548
0
LINE
8
BLACK
6
CONTINUOUS
10
0.478125
20
1.17548
11
0.477115
21
1.17566
0
LINE
8
BLACK
6
CONTINUOUS
10
0.477115
20
1.17566
11
0.475568
21
1.17696
0
LINE
8
BLACK
6
CONTINUOUS
10
0.475568
20
1.17696
11
0.475217
21
1.17895
0
LINE
8
BLACK
6
CONTINUOUS
10
0.475217
20
1.17895
11
0.476227
21
1.18069
0
LINE
8
BLACK
6
CONTINUOUS
10
0.476227
20
1.18069
11
0.478125
21
1.18139
0
LINE
8
BLACK
6
CONTINUOUS
10
0.478125
20
1.18139
11
0.517495
21
1.18139
0
LINE
8
BLACK
6
CONTINUOUS
10
0.517495
20
1.18139
11
0.518505
21
1.18121
0
LINE
8
BLACK
6
CONTINUOUS
10
1.56351
20
1.2197
11
1.5642
21
1.2178
0
LINE
8
BLACK
6
CONTINUOUS
10
1.5642
20
1.2178
11
1.5642
21
1.18781
0
LINE
8
BLACK
6
CONTINUOUS
10
1.5642
20
1.18781
11
1.56402
21
1.1868
0
LINE
8
BLACK
6
CONTINUOUS
10
1.56402
20
1.1868
11
1.56272
21
1.18525
0
LINE
8
BLACK
6
CONTINUOUS
10
1.56272
20
1.18525
11
1.56073
21
1.1849
0
LINE
8
BLACK
6
CONTINUOUS
10
1.56073
20
1.1849
11
1.55898
21
1.18591
0
LINE
8
BLACK
6
CONTINUOUS
10
1.55898
20
1.18591
11
1.55829
21
1.18781
0
LINE
8
BLACK
6
CONTINUOUS
10
1.55829
20
1.18781
11
1.55829
21
1.2178
0
LINE
8
BLACK
6
CONTINUOUS
10
1.55829
20
1.2178
11
1.55847
21
1.21881
0
LINE
8
BLACK
6
CONTINUOUS
10
1.55847
20
1.21881
11
1.55977
21
1.22036
0
LINE
8
BLACK
6
CONTINUOUS
10
1.55977
20
1.22036
11
1.56176
21
1.22071
0
LINE
8
BLACK
6
CONTINUOUS
10
1.56176
20
1.22071
11
1.56351
21
1.2197
0
LINE
8
BLACK
6
CONTINUOUS
10
0.523507
20
1.2197
11
0.524198
21
1.2178
0
LINE
8
BLACK
6
CONTINUOUS
10
0.524198
20
1.2178
11
0.524198
21
1.18781
0
LINE
8
BLACK
6
CONTINUOUS
10
0.524198
20
1.18781
11
0.52402
21
1.1868
0
LINE
8
BLACK
6
CONTINUOUS
10
0.52402
20
1.1868
11
0.522721
21
1.18525
0
LINE
8
BLACK
6
CONTINUOUS
10
0.522721
20
1.18525
11
0.520732
21
1.1849
0
LINE
8
BLACK
6
CONTINUOUS
10
0.520732
20
1.1849
11
0.518983
21
1.18591
0
LINE
8
BLACK
6
CONTINUOUS
10
0.518983
20
1.18591
11
0.518292
21
1.18781
0
LINE
8
BLACK
6
CONTINUOUS
10
0.518292
20
1.18781
11
0.518292
21
1.2178
0
LINE
8
BLACK
6
CONTINUOUS
10
0.518292
20
1.2178
11
0.51847
21
1.21881
0
LINE
8
BLACK
6
CONTINUOUS
10
0.51847
20
1.21881
11
0.519768
21
1.22036
0
LINE
8
BLACK
6
CONTINUOUS
10
0.519768
20
1.22036
11
0.521758
21
1.22071
0
LINE
8
BLACK
6
CONTINUOUS
10
0.521758
20
1.22071
11
0.523507
21
1.2197
0
LINE
8
BLACK
6
CONTINUOUS
10
1.55101
20
1.25057
11
1.55114
21
1.25046
0
LINE
8
BLACK
6
CONTINUOUS
10
1.55114
20
1.25046
11
1.55132
21
1.25044
0
LINE
8
BLACK
6
CONTINUOUS
10
1.55132
20
1.25044
11
1.55507
21
1.24857
0
LINE
8
BLACK
6
CONTINUOUS
10
1.55507
20
1.24857
11
1.55578
21
1.24804
0
LINE
8
BLACK
6
CONTINUOUS
10
1.55578
20
1.24804
11
1.55583
21
1.24801
0
LINE
8
BLACK
6
CONTINUOUS
10
1.55583
20
1.24801
11
1.55771
21
1.24614
0
LINE
8
BLACK
6
CONTINUOUS
10
1.55771
20
1.24614
11
1.55821
21
1.24541
0
LINE
8
BLACK
6
CONTINUOUS
10
1.55821
20
1.24541
11
1.55826
21
1.24537
0
LINE
8
BLACK
6
CONTINUOUS
10
1.55826
20
1.24537
11
1.56014
21
1.24162
0
LINE
8
BLACK
6
CONTINUOUS
10
1.56014
20
1.24162
11
1.56043
21
1.24064
0
LINE
8
BLACK
6
CONTINUOUS
10
1.56043
20
1.24064
11
1.56039
21
1.24047
0
LINE
8
BLACK
6
CONTINUOUS
10
1.56039
20
1.24047
11
1.56045
21
1.2403
0
LINE
8
BLACK
6
CONTINUOUS
10
1.56045
20
1.2403
11
1.56045
21
1.22905
0
LINE
8
BLACK
6
CONTINUOUS
10
1.56045
20
1.22905
11
1.56027
21
1.22804
0
LINE
8
BLACK
6
CONTINUOUS
10
1.56027
20
1.22804
11
1.56016
21
1.22791
0
LINE
8
BLACK
6
CONTINUOUS
10
1.56016
20
1.22791
11
1.56014
21
1.22773
0
LINE
8
BLACK
6
CONTINUOUS
10
1.56014
20
1.22773
11
1.55826
21
1.22398
0
LINE
8
BLACK
6
CONTINUOUS
10
1.55826
20
1.22398
11
1.55774
21
1.22327
0
LINE
8
BLACK
6
CONTINUOUS
10
1.55774
20
1.22327
11
1.55771
21
1.22321
0
LINE
8
BLACK
6
CONTINUOUS
10
1.55771
20
1.22321
11
1.55583
21
1.22134
0
LINE
8
BLACK
6
CONTINUOUS
10
1.55583
20
1.22134
11
1.55499
21
1.22075
0
LINE
8
BLACK
6
CONTINUOUS
10
1.55499
20
1.22075
11
1.55298
21
1.22057
0
LINE
8
BLACK
6
CONTINUOUS
10
1.55298
20
1.22057
11
1.55133
21
1.22173
0
LINE
8
BLACK
6
CONTINUOUS
10
1.55133
20
1.22173
11
1.5508
21
1.22368
0
LINE
8
BLACK
6
CONTINUOUS
10
1.5508
20
1.22368
11
1.55166
21
1.22551
0
LINE
8
BLACK
6
CONTINUOUS
10
1.55166
20
1.22551
11
1.55319
21
1.22705
0
LINE
8
BLACK
6
CONTINUOUS
10
1.55319
20
1.22705
11
1.55454
21
1.22975
0
LINE
8
BLACK
6
CONTINUOUS
10
1.55454
20
1.22975
11
1.55454
21
1.2396
0
LINE
8
BLACK
6
CONTINUOUS
10
1.55454
20
1.2396
11
1.55319
21
1.2423
0
LINE
8
BLACK
6
CONTINUOUS
10
1.55319
20
1.2423
11
1.552
21
1.2435
0
LINE
8
BLACK
6
CONTINUOUS
10
1.552
20
1.2435
11
1.5493
21
1.24485
0
LINE
8
BLACK
6
CONTINUOUS
10
1.5493
20
1.24485
11
1.54132
21
1.24485
0
LINE
8
BLACK
6
CONTINUOUS
10
1.54132
20
1.24485
11
1.53862
21
1.2435
0
LINE
8
BLACK
6
CONTINUOUS
10
1.53862
20
1.2435
11
1.53742
21
1.2423
0
LINE
8
BLACK
6
CONTINUOUS
10
1.53742
20
1.2423
11
1.53608
21
1.2396
0
LINE
8
BLACK
6
CONTINUOUS
10
1.53608
20
1.2396
11
1.53608
21
1.23468
0
LINE
8
BLACK
6
CONTINUOUS
10
1.53608
20
1.23468
11
1.536
21
1.23424
0
LINE
8
BLACK
6
CONTINUOUS
10
1.536
20
1.23424
11
1.53602
21
1.2341
0
LINE
8
BLACK
6
CONTINUOUS
10
1.53602
20
1.2341
11
1.53596
21
1.234
0
LINE
8
BLACK
6
CONTINUOUS
10
1.53596
20
1.234
11
1.5359
21
1.23367
0
LINE
8
BLACK
6
CONTINUOUS
10
1.5359
20
1.23367
11
1.53539
21
1.23306
0
LINE
8
BLACK
6
CONTINUOUS
10
1.53539
20
1.23306
11
1.53497
21
1.23237
0
LINE
8
BLACK
6
CONTINUOUS
10
1.53497
20
1.23237
11
1.53475
21
1.2323
0
LINE
8
BLACK
6
CONTINUOUS
10
1.53475
20
1.2323
11
1.5346
21
1.23212
0
LINE
8
BLACK
6
CONTINUOUS
10
1.5346
20
1.23212
11
1.53382
21
1.23198
0
LINE
8
BLACK
6
CONTINUOUS
10
1.53382
20
1.23198
11
1.53306
21
1.23172
0
LINE
8
BLACK
6
CONTINUOUS
10
1.53306
20
1.23172
11
1.53284
21
1.23181
0
LINE
8
BLACK
6
CONTINUOUS
10
1.53284
20
1.23181
11
1.53261
21
1.23177
0
LINE
8
BLACK
6
CONTINUOUS
10
1.53261
20
1.23177
11
1.53192
21
1.23217
0
LINE
8
BLACK
6
CONTINUOUS
10
1.53192
20
1.23217
11
1.53118
21
1.23245
0
LINE
8
BLACK
6
CONTINUOUS
10
1.53118
20
1.23245
11
1.52108
21
1.24129
0
LINE
8
BLACK
6
CONTINUOUS
10
1.52108
20
1.24129
11
1.52108
21
1.22343
0
LINE
8
BLACK
6
CONTINUOUS
10
1.52108
20
1.22343
11
1.5209
21
1.22242
0
LINE
8
BLACK
6
CONTINUOUS
10
1.5209
20
1.22242
11
1.5196
21
1.22087
0
LINE
8
BLACK
6
CONTINUOUS
10
1.5196
20
1.22087
11
1.51761
21
1.22052
0
LINE
8
BLACK
6
CONTINUOUS
10
1.51761
20
1.22052
11
1.51586
21
1.22153
0
LINE
8
BLACK
6
CONTINUOUS
10
1.51586
20
1.22153
11
1.51517
21
1.22343
0
LINE
8
BLACK
6
CONTINUOUS
10
1.51517
20
1.22343
11
1.51517
21
1.2478
0
LINE
8
BLACK
6
CONTINUOUS
10
1.51517
20
1.2478
11
1.51525
21
1.24824
0
LINE
8
BLACK
6
CONTINUOUS
10
1.51525
20
1.24824
11
1.51523
21
1.24837
0
LINE
8
BLACK
6
CONTINUOUS
10
1.51523
20
1.24837
11
1.51529
21
1.24848
0
LINE
8
BLACK
6
CONTINUOUS
10
1.51529
20
1.24848
11
1.51535
21
1.24881
0
LINE
8
BLACK
6
CONTINUOUS
10
1.51535
20
1.24881
11
1.51586
21
1.24942
0
LINE
8
BLACK
6
CONTINUOUS
10
1.51586
20
1.24942
11
1.51627
21
1.2501
0
LINE
8
BLACK
6
CONTINUOUS
10
1.51627
20
1.2501
11
1.5165
21
1.25018
0
LINE
8
BLACK
6
CONTINUOUS
10
1.5165
20
1.25018
11
1.51665
21
1.25036
0
LINE
8
BLACK
6
CONTINUOUS
10
1.51665
20
1.25036
11
1.51743
21
1.25049
0
LINE
8
BLACK
6
CONTINUOUS
10
1.51743
20
1.25049
11
1.51819
21
1.25075
0
LINE
8
BLACK
6
CONTINUOUS
10
1.51819
20
1.25075
11
1.51841
21
1.25067
0
LINE
8
BLACK
6
CONTINUOUS
10
1.51841
20
1.25067
11
1.51864
21
1.25071
0
LINE
8
BLACK
6
CONTINUOUS
10
1.51864
20
1.25071
11
1.51933
21
1.25031
0
LINE
8
BLACK
6
CONTINUOUS
10
1.51933
20
1.25031
11
1.52007
21
1.25002
0
LINE
8
BLACK
6
CONTINUOUS
10
1.52007
20
1.25002
11
1.53031
21
1.24106
0
LINE
8
BLACK
6
CONTINUOUS
10
1.53031
20
1.24106
11
1.53035
21
1.24131
0
LINE
8
BLACK
6
CONTINUOUS
10
1.53035
20
1.24131
11
1.53046
21
1.24145
0
LINE
8
BLACK
6
CONTINUOUS
10
1.53046
20
1.24145
11
1.53048
21
1.24162
0
LINE
8
BLACK
6
CONTINUOUS
10
1.53048
20
1.24162
11
1.53236
21
1.24537
0
LINE
8
BLACK
6
CONTINUOUS
10
1.53236
20
1.24537
11
1.53288
21
1.24608
0
LINE
8
BLACK
6
CONTINUOUS
10
1.53288
20
1.24608
11
1.53291
21
1.24614
0
LINE
8
BLACK
6
CONTINUOUS
10
1.53291
20
1.24614
11
1.53478
21
1.24801
0
LINE
8
BLACK
6
CONTINUOUS
10
1.53478
20
1.24801
11
1.53551
21
1.24852
0
LINE
8
BLACK
6
CONTINUOUS
10
1.53551
20
1.24852
11
1.53555
21
1.24857
0
LINE
8
BLACK
6
CONTINUOUS
10
1.53555
20
1.24857
11
1.5393
21
1.25044
0
LINE
8
BLACK
6
CONTINUOUS
10
1.5393
20
1.25044
11
1.54028
21
1.25073
0
LINE
8
BLACK
6
CONTINUOUS
10
1.54028
20
1.25073
11
1.54046
21
1.25069
0
LINE
8
BLACK
6
CONTINUOUS
10
1.54046
20
1.25069
11
1.54062
21
1.25075
0
LINE
8
BLACK
6
CONTINUOUS
10
1.54062
20
1.25075
11
1.55
21
1.25075
0
LINE
8
BLACK
6
CONTINUOUS
10
1.55
20
1.25075
11
1.55101
21
1.25057
0
LINE
8
BLACK
6
CONTINUOUS
10
0.511006
20
1.25057
11
0.511141
21
1.25046
0
LINE
8
BLACK
6
CONTINUOUS
10
0.511141
20
1.25046
11
0.511317
21
1.25044
0
LINE
8
BLACK
6
CONTINUOUS
10
0.511317
20
1.25044
11
0.515066
21
1.24857
0
LINE
8
BLACK
6
CONTINUOUS
10
0.515066
20
1.24857
11
0.515775
21
1.24804
0
LINE
8
BLACK
6
CONTINUOUS
10
0.515775
20
1.24804
11
0.515834
21
1.24801
0
LINE
8
BLACK
6
CONTINUOUS
10
0.515834
20
1.24801
11
0.517708
21
1.24614
0
LINE
8
BLACK
6
CONTINUOUS
10
0.517708
20
1.24614
11
0.518215
21
1.24541
0
LINE
8
BLACK
6
CONTINUOUS
10
0.518215
20
1.24541
11
0.518262
21
1.24537
0
LINE
8
BLACK
6
CONTINUOUS
10
0.518262
20
1.24537
11
0.520136
21
1.24162
0
LINE
8
BLACK
6
CONTINUOUS
10
0.520136
20
1.24162
11
0.520429
21
1.24064
0
LINE
8
BLACK
6
CONTINUOUS
10
0.520429
20
1.24064
11
0.520388
21
1.24047
0
LINE
8
BLACK
6
CONTINUOUS
10
0.520388
20
1.24047
11
0.520448
21
1.2403
0
LINE
8
BLACK
6
CONTINUOUS
10
0.520448
20
1.2403
11
0.520448
21
1.22905
0
LINE
8
BLACK
6
CONTINUOUS
10
0.520448
20
1.22905
11
0.52027
21
1.22804
0
LINE
8
BLACK
6
CONTINUOUS
10
0.52027
20
1.22804
11
0.520156
21
1.22791
0
LINE
8
BLACK
6
CONTINUOUS
10
0.520156
20
1.22791
11
0.520136
21
1.22773
0
LINE
8
BLACK
6
CONTINUOUS
10
0.520136
20
1.22773
11
0.518262
21
1.22398
0
LINE
8
BLACK
6
CONTINUOUS
10
0.518262
20
1.22398
11
0.517736
21
1.22327
0
LINE
8
BLACK
6
CONTINUOUS
10
0.517736
20
1.22327
11
0.517708
21
1.22321
0
LINE
8
BLACK
6
CONTINUOUS
10
0.517708
20
1.22321
11
0.515834
21
1.22134
0
LINE
8
BLACK
6
CONTINUOUS
10
0.515834
20
1.22134
11
0.514994
21
1.22075
0
LINE
8
BLACK
6
CONTINUOUS
10
0.514994
20
1.22075
11
0.512982
21
1.22057
0
LINE
8
BLACK
6
CONTINUOUS
10
0.512982
20
1.22057
11
0.511327
21
1.22173
0
LINE
8
BLACK
6
CONTINUOUS
10
0.511327
20
1.22173
11
0.510804
21
1.22368
0
LINE
8
BLACK
6
CONTINUOUS
10
0.510804
20
1.22368
11
0.511658
21
1.22551
0
LINE
8
BLACK
6
CONTINUOUS
10
0.511658
20
1.22551
11
0.513194
21
1.22705
0
LINE
8
BLACK
6
CONTINUOUS
10
0.513194
20
1.22705
11
0.514543
21
1.22975
0
LINE
8
BLACK
6
CONTINUOUS
10
0.514543
20
1.22975
11
0.514543
21
1.2396
0
LINE
8
BLACK
6
CONTINUOUS
10
0.514543
20
1.2396
11
0.513194
21
1.2423
0
LINE
8
BLACK
6
CONTINUOUS
10
0.513194
20
1.2423
11
0.511997
21
1.2435
0
LINE
8
BLACK
6
CONTINUOUS
10
0.511997
20
1.2435
11
0.509299
21
1.24485
0
LINE
8
BLACK
6
CONTINUOUS
10
0.509299
20
1.24485
11
0.501319
21
1.24485
0
LINE
8
BLACK
6
CONTINUOUS
10
0.501319
20
1.24485
11
0.498622
21
1.2435
0
LINE
8
BLACK
6
CONTINUOUS
10
0.498622
20
1.2435
11
0.497425
21
1.2423
0
LINE
8
BLACK
6
CONTINUOUS
10
0.497425
20
1.2423
11
0.496076
21
1.2396
0
LINE
8
BLACK
6
CONTINUOUS
10
0.496076
20
1.2396
11
0.496076
21
1.23468
0
LINE
8
BLACK
6
CONTINUOUS
10
0.496076
20
1.23468
11
0.495999
21
1.23424
0
LINE
8
BLACK
6
CONTINUOUS
10
0.495999
20
1.23424
11
0.49602
21
1.2341
0
LINE
8
BLACK
6
CONTINUOUS
10
0.49602
20
1.2341
11
0.495957
21
1.234
0
LINE
8
BLACK
6
CONTINUOUS
10
0.495957
20
1.234
11
0.495898
21
1.23367
0
LINE
8
BLACK
6
CONTINUOUS
10
0.495898
20
1.23367
11
0.495386
21
1.23306
0
LINE
8
BLACK
6
CONTINUOUS
10
0.495386
20
1.23306
11
0.494974
21
1.23237
0
LINE
8
BLACK
6
CONTINUOUS
10
0.494974
20
1.23237
11
0.494751
21
1.2323
0
LINE
8
BLACK
6
CONTINUOUS
10
0.494751
20
1.2323
11
0.4946
21
1.23212
0
LINE
8
BLACK
6
CONTINUOUS
10
0.4946
20
1.23212
11
0.493816
21
1.23198
0
LINE
8
BLACK
6
CONTINUOUS
10
0.493816
20
1.23198
11
0.493062
21
1.23172
0
LINE
8
BLACK
6
CONTINUOUS
10
0.493062
20
1.23172
11
0.492843
21
1.23181
0
LINE
8
BLACK
6
CONTINUOUS
10
0.492843
20
1.23181
11
0.492611
21
1.23177
0
LINE
8
BLACK
6
CONTINUOUS
10
0.492611
20
1.23177
11
0.491921
21
1.23217
0
LINE
8
BLACK
6
CONTINUOUS
10
0.491921
20
1.23217
11
0.491179
21
1.23245
0
LINE
8
BLACK
6
CONTINUOUS
10
0.491179
20
1.23245
11
0.481078
21
1.24129
0
LINE
8
BLACK
6
CONTINUOUS
10
0.481078
20
1.24129
11
0.481078
21
1.22343
0
LINE
8
BLACK
6
CONTINUOUS
10
0.481078
20
1.22343
11
0.4809
21
1.22242
0
LINE
8
BLACK
6
CONTINUOUS
10
0.4809
20
1.22242
11
0.479602
21
1.22087
0
LINE
8
BLACK
6
CONTINUOUS
10
0.479602
20
1.22087
11
0.477612
21
1.22052
0
LINE
8
BLACK
6
CONTINUOUS
10
0.477612
20
1.22052
11
0.475863
21
1.22153
0
LINE
8
BLACK
6
CONTINUOUS
10
0.475863
20
1.22153
11
0.475172
21
1.22343
0
LINE
8
BLACK
6
CONTINUOUS
10
0.475172
20
1.22343
11
0.475172
21
1.2478
0
LINE
8
BLACK
6
CONTINUOUS
10
0.475172
20
1.2478
11
0.47525
21
1.24824
0
LINE
8
BLACK
6
CONTINUOUS
10
0.47525
20
1.24824
11
0.475229
21
1.24837
0
LINE
8
BLACK
6
CONTINUOUS
10
0.475229
20
1.24837
11
0.475292
21
1.24848
0
LINE
8
BLACK
6
CONTINUOUS
10
0.475292
20
1.24848
11
0.475351
21
1.24881
0
LINE
8
BLACK
6
CONTINUOUS
10
0.475351
20
1.24881
11
0.475862
21
1.24942
0
LINE
8
BLACK
6
CONTINUOUS
10
0.475862
20
1.24942
11
0.476274
21
1.2501
0
LINE
8
BLACK
6
CONTINUOUS
10
0.476274
20
1.2501
11
0.476497
21
1.25018
0
LINE
8
BLACK
6
CONTINUOUS
10
0.476497
20
1.25018
11
0.476649
21
1.25036
0
LINE
8
BLACK
6
CONTINUOUS
10
0.476649
20
1.25036
11
0.477433
21
1.25049
0
LINE
8
BLACK
6
CONTINUOUS
10
0.477433
20
1.25049
11
0.478186
21
1.25075
0
LINE
8
BLACK
6
CONTINUOUS
10
0.478186
20
1.25075
11
0.478406
21
1.25067
0
LINE
8
BLACK
6
CONTINUOUS
10
0.478406
20
1.25067
11
0.478638
21
1.25071
0
LINE
8
BLACK
6
CONTINUOUS
10
0.478638
20
1.25071
11
0.479327
21
1.25031
0
LINE
8
BLACK
6
CONTINUOUS
10
0.479327
20
1.25031
11
0.48007
21
1.25002
0
LINE
8
BLACK
6
CONTINUOUS
10
0.48007
20
1.25002
11
0.490305
21
1.24106
0
LINE
8
BLACK
6
CONTINUOUS
10
0.490305
20
1.24106
11
0.490349
21
1.24131
0
LINE
8
BLACK
6
CONTINUOUS
10
0.490349
20
1.24131
11
0.490462
21
1.24145
0
LINE
8
BLACK
6
CONTINUOUS
10
0.490462
20
1.24145
11
0.490482
21
1.24162
0
LINE
8
BLACK
6
CONTINUOUS
10
0.490482
20
1.24162
11
0.492357
21
1.24537
0
LINE
8
BLACK
6
CONTINUOUS
10
0.492357
20
1.24537
11
0.492883
21
1.24608
0
LINE
8
BLACK
6
CONTINUOUS
10
0.492883
20
1.24608
11
0.49291
21
1.24614
0
LINE
8
BLACK
6
CONTINUOUS
10
0.49291
20
1.24614
11
0.494785
21
1.24801
0
LINE
8
BLACK
6
CONTINUOUS
10
0.494785
20
1.24801
11
0.495508
21
1.24852
0
LINE
8
BLACK
6
CONTINUOUS
10
0.495508
20
1.24852
11
0.495552
21
1.24857
0
LINE
8
BLACK
6
CONTINUOUS
10
0.495552
20
1.24857
11
0.499302
21
1.25044
0
LINE
8
BLACK
6
CONTINUOUS
10
0.499302
20
1.25044
11
0.500285
21
1.25073
0
LINE
8
BLACK
6
CONTINUOUS
10
0.500285
20
1.25073
11
0.500456
21
1.25069
0
LINE
8
BLACK
6
CONTINUOUS
10
0.500456
20
1.25069
11
0.500622
21
1.25075
0
LINE
8
BLACK
6
CONTINUOUS
10
0.500622
20
1.25075
11
0.509996
21
1.25075
0
LINE
8
BLACK
6
CONTINUOUS
10
0.509996
20
1.25075
11
0.511006
21
1.25057
  0
ENDSEC
  0
EOF
