  0
SECTION
  2
HEADER
  9
$ANGBASE
  50
0.0
  9
$ANGDIR
  70
1
  9
$MEASUREMENT
  70
0
  0
ENDSEC
  0
SECTION
  2
TABLES
  0
TABLE
  2
LTYPE
  70
4
  0
LTYPE
  5
40F
  2
CONTINUOUS
  70
0
  3
Solid line
  72
65
  73
0
  40
0.0
  0
LTYPE
  5
410
  2
DASHDOT
 70
0
  3
Dash Dot ____ _ ____ _
 72
65
 73
4
 40
2.0
 49
1.25
 49
-0.25
 49
0.25
 49
-0.25
  0
LTYPE
  5
411
  2
DASHED
 70
0
  3
Dashed __ __ __ __ __
 72
65
 73
2
 40
0.75
 49
0.5
 49
-0.25
  0
LTYPE
  5
43B
  2
DOTTED
 70
0
  3
Dotted .  .  .  .
 72
65
 73
2
 40
0.2
 49
0.0
 49
-0.2
  0
ENDTAB
  0
TABLE
  2
STYLE
  70
4
  0
STYLE
  2
KICAD
  70
0
  40
0
  41
1
  42
1
  50
0
  71
0
  3
isocp.shx
  0
STYLE
  2
KICADB
  70
0
  40
0
  41
1
  42
1
  50
0
  71
0
  3
isocp.shx
  0
STYLE
  2
KICADI
  70
0
  40
0
  41
1
  42
1
  50
15
  71
0
  3
isocp.shx
  0
STYLE
  2
KICADBI
  70
0
  40
0
  41
1
  42
1
  50
15
  71
0
  3
isocp.shx
  0
ENDTAB
  0
TABLE
  2
LAYER
  70
1
  0
LAYER
  2
BLACK
  70
0
  62
7
  6
CONTINUOUS
  0
ENDTAB
  0
ENDSEC
  0
SECTION
  2
ENTITIES
0
CIRCLE
8
BLACK
10
1.08
20
1.355
40
0.0570866
0
CIRCLE
8
BLACK
10
1.18
20
1.255
40
0.0610236
0
CIRCLE
8
BLACK
10
0.98
20
1.255
40
0.0610236
0
CIRCLE
8
BLACK
10
0.98
20
1.455
40
0.0610236
0
CIRCLE
8
BLACK
10
1.18
20
1.455
40
0.0610236
0
LINE
8
BLACK
6
CONTINUOUS
10
0.48
20
1.30713
11
0.476987
21
1.30773
0
LINE
8
BLACK
6
CONTINUOUS
10
0.476987
20
1.30773
11
0.474432
21
1.30943
0
LINE
8
BLACK
6
CONTINUOUS
10
0.474432
20
1.30943
11
0.472725
21
1.31199
0
LINE
8
BLACK
6
CONTINUOUS
10
0.472725
20
1.31199
11
0.472126
21
1.315
0
LINE
8
BLACK
6
CONTINUOUS
10
0.472126
20
1.315
11
0.472126
21
1.375
0
LINE
8
BLACK
6
CONTINUOUS
10
0.472126
20
1.375
11
0.472725
21
1.37801
0
LINE
8
BLACK
6
CONTINUOUS
10
0.472725
20
1.37801
11
0.474432
21
1.38057
0
LINE
8
BLACK
6
CONTINUOUS
10
0.474432
20
1.38057
11
0.476987
21
1.38227
0
LINE
8
BLACK
6
CONTINUOUS
10
0.476987
20
1.38227
11
0.48
21
1.38287
0
LINE
8
BLACK
6
CONTINUOUS
10
0.48
20
1.38287
11
0.54
21
1.38287
0
LINE
8
BLACK
6
CONTINUOUS
10
0.54
20
1.38287
11
0.543013
21
1.38227
0
LINE
8
BLACK
6
CONTINUOUS
10
0.543013
20
1.38227
11
0.545568
21
1.38057
0
LINE
8
BLACK
6
CONTINUOUS
10
0.545568
20
1.38057
11
0.547275
21
1.37801
0
LINE
8
BLACK
6
CONTINUOUS
10
0.547275
20
1.37801
11
0.547874
21
1.375
0
LINE
8
BLACK
6
CONTINUOUS
10
0.547874
20
1.375
11
0.547874
21
1.315
0
LINE
8
BLACK
6
CONTINUOUS
10
0.547874
20
1.315
11
0.547275
21
1.31199
0
LINE
8
BLACK
6
CONTINUOUS
10
0.547275
20
1.31199
11
0.545568
21
1.30943
0
LINE
8
BLACK
6
CONTINUOUS
10
0.545568
20
1.30943
11
0.543013
21
1.30773
0
LINE
8
BLACK
6
CONTINUOUS
10
0.543013
20
1.30773
11
0.54
21
1.30713
0
LINE
8
BLACK
6
CONTINUOUS
10
0.54
20
1.30713
11
0.48
21
1.30713
0
LINE
8
BLACK
6
CONTINUOUS
10
0.48
20
1.40713
11
0.476987
21
1.40773
0
LINE
8
BLACK
6
CONTINUOUS
10
0.476987
20
1.40773
11
0.474432
21
1.40943
0
LINE
8
BLACK
6
CONTINUOUS
10
0.474432
20
1.40943
11
0.472725
21
1.41199
0
LINE
8
BLACK
6
CONTINUOUS
10
0.472725
20
1.41199
11
0.472126
21
1.415
0
LINE
8
BLACK
6
CONTINUOUS
10
0.472126
20
1.415
11
0.472126
21
1.475
0
LINE
8
BLACK
6
CONTINUOUS
10
0.472126
20
1.475
11
0.472725
21
1.47801
0
LINE
8
BLACK
6
CONTINUOUS
10
0.472725
20
1.47801
11
0.474432
21
1.48057
0
LINE
8
BLACK
6
CONTINUOUS
10
0.474432
20
1.48057
11
0.476987
21
1.48227
0
LINE
8
BLACK
6
CONTINUOUS
10
0.476987
20
1.48227
11
0.48
21
1.48287
0
LINE
8
BLACK
6
CONTINUOUS
10
0.48
20
1.48287
11
0.54
21
1.48287
0
LINE
8
BLACK
6
CONTINUOUS
10
0.54
20
1.48287
11
0.543013
21
1.48227
0
LINE
8
BLACK
6
CONTINUOUS
10
0.543013
20
1.48227
11
0.545568
21
1.48057
0
LINE
8
BLACK
6
CONTINUOUS
10
0.545568
20
1.48057
11
0.547275
21
1.47801
0
LINE
8
BLACK
6
CONTINUOUS
10
0.547275
20
1.47801
11
0.547874
21
1.475
0
LINE
8
BLACK
6
CONTINUOUS
10
0.547874
20
1.475
11
0.547874
21
1.415
0
LINE
8
BLACK
6
CONTINUOUS
10
0.547874
20
1.415
11
0.547275
21
1.41199
0
LINE
8
BLACK
6
CONTINUOUS
10
0.547275
20
1.41199
11
0.545568
21
1.40943
0
LINE
8
BLACK
6
CONTINUOUS
10
0.545568
20
1.40943
11
0.543013
21
1.40773
0
LINE
8
BLACK
6
CONTINUOUS
10
0.543013
20
1.40773
11
0.54
21
1.40713
0
LINE
8
BLACK
6
CONTINUOUS
10
0.54
20
1.40713
11
0.48
21
1.40713
0
LINE
8
BLACK
6
CONTINUOUS
10
0.58
20
1.30713
11
0.576987
21
1.30773
0
LINE
8
BLACK
6
CONTINUOUS
10
0.576987
20
1.30773
11
0.574432
21
1.30943
0
LINE
8
BLACK
6
CONTINUOUS
10
0.574432
20
1.30943
11
0.572725
21
1.31199
0
LINE
8
BLACK
6
CONTINUOUS
10
0.572725
20
1.31199
11
0.572126
21
1.315
0
LINE
8
BLACK
6
CONTINUOUS
10
0.572126
20
1.315
11
0.572126
21
1.375
0
LINE
8
BLACK
6
CONTINUOUS
10
0.572126
20
1.375
11
0.572725
21
1.37801
0
LINE
8
BLACK
6
CONTINUOUS
10
0.572725
20
1.37801
11
0.574432
21
1.38057
0
LINE
8
BLACK
6
CONTINUOUS
10
0.574432
20
1.38057
11
0.576987
21
1.38227
0
LINE
8
BLACK
6
CONTINUOUS
10
0.576987
20
1.38227
11
0.58
21
1.38287
0
LINE
8
BLACK
6
CONTINUOUS
10
0.58
20
1.38287
11
0.64
21
1.38287
0
LINE
8
BLACK
6
CONTINUOUS
10
0.64
20
1.38287
11
0.643013
21
1.38227
0
LINE
8
BLACK
6
CONTINUOUS
10
0.643013
20
1.38227
11
0.645568
21
1.38057
0
LINE
8
BLACK
6
CONTINUOUS
10
0.645568
20
1.38057
11
0.647275
21
1.37801
0
LINE
8
BLACK
6
CONTINUOUS
10
0.647275
20
1.37801
11
0.647874
21
1.375
0
LINE
8
BLACK
6
CONTINUOUS
10
0.647874
20
1.375
11
0.647874
21
1.315
0
LINE
8
BLACK
6
CONTINUOUS
10
0.647874
20
1.315
11
0.647275
21
1.31199
0
LINE
8
BLACK
6
CONTINUOUS
10
0.647275
20
1.31199
11
0.645568
21
1.30943
0
LINE
8
BLACK
6
CONTINUOUS
10
0.645568
20
1.30943
11
0.643013
21
1.30773
0
LINE
8
BLACK
6
CONTINUOUS
10
0.643013
20
1.30773
11
0.64
21
1.30713
0
LINE
8
BLACK
6
CONTINUOUS
10
0.64
20
1.30713
11
0.58
21
1.30713
0
LINE
8
BLACK
6
CONTINUOUS
10
0.58
20
1.40713
11
0.576987
21
1.40773
0
LINE
8
BLACK
6
CONTINUOUS
10
0.576987
20
1.40773
11
0.574432
21
1.40943
0
LINE
8
BLACK
6
CONTINUOUS
10
0.574432
20
1.40943
11
0.572725
21
1.41199
0
LINE
8
BLACK
6
CONTINUOUS
10
0.572725
20
1.41199
11
0.572126
21
1.415
0
LINE
8
BLACK
6
CONTINUOUS
10
0.572126
20
1.415
11
0.572126
21
1.475
0
LINE
8
BLACK
6
CONTINUOUS
10
0.572126
20
1.475
11
0.572725
21
1.47801
0
LINE
8
BLACK
6
CONTINUOUS
10
0.572725
20
1.47801
11
0.574432
21
1.48057
0
LINE
8
BLACK
6
CONTINUOUS
10
0.574432
20
1.48057
11
0.576987
21
1.48227
0
LINE
8
BLACK
6
CONTINUOUS
10
0.576987
20
1.48227
11
0.58
21
1.48287
0
LINE
8
BLACK
6
CONTINUOUS
10
0.58
20
1.48287
11
0.64
21
1.48287
0
LINE
8
BLACK
6
CONTINUOUS
10
0.64
20
1.48287
11
0.643013
21
1.48227
0
LINE
8
BLACK
6
CONTINUOUS
10
0.643013
20
1.48227
11
0.645568
21
1.48057
0
LINE
8
BLACK
6
CONTINUOUS
10
0.645568
20
1.48057
11
0.647275
21
1.47801
0
LINE
8
BLACK
6
CONTINUOUS
10
0.647275
20
1.47801
11
0.647874
21
1.475
0
LINE
8
BLACK
6
CONTINUOUS
10
0.647874
20
1.475
11
0.647874
21
1.415
0
LINE
8
BLACK
6
CONTINUOUS
10
0.647874
20
1.415
11
0.647275
21
1.41199
0
LINE
8
BLACK
6
CONTINUOUS
10
0.647275
20
1.41199
11
0.645568
21
1.40943
0
LINE
8
BLACK
6
CONTINUOUS
10
0.645568
20
1.40943
11
0.643013
21
1.40773
0
LINE
8
BLACK
6
CONTINUOUS
10
0.643013
20
1.40773
11
0.64
21
1.40713
0
LINE
8
BLACK
6
CONTINUOUS
10
0.64
20
1.40713
11
0.58
21
1.40713
0
LINE
8
BLACK
6
CONTINUOUS
10
0.68
20
1.30713
11
0.676987
21
1.30773
0
LINE
8
BLACK
6
CONTINUOUS
10
0.676987
20
1.30773
11
0.674432
21
1.30943
0
LINE
8
BLACK
6
CONTINUOUS
10
0.674432
20
1.30943
11
0.672725
21
1.31199
0
LINE
8
BLACK
6
CONTINUOUS
10
0.672725
20
1.31199
11
0.672126
21
1.315
0
LINE
8
BLACK
6
CONTINUOUS
10
0.672126
20
1.315
11
0.672126
21
1.375
0
LINE
8
BLACK
6
CONTINUOUS
10
0.672126
20
1.375
11
0.672725
21
1.37801
0
LINE
8
BLACK
6
CONTINUOUS
10
0.672725
20
1.37801
11
0.674432
21
1.38057
0
LINE
8
BLACK
6
CONTINUOUS
10
0.674432
20
1.38057
11
0.676987
21
1.38227
0
LINE
8
BLACK
6
CONTINUOUS
10
0.676987
20
1.38227
11
0.68
21
1.38287
0
LINE
8
BLACK
6
CONTINUOUS
10
0.68
20
1.38287
11
0.74
21
1.38287
0
LINE
8
BLACK
6
CONTINUOUS
10
0.74
20
1.38287
11
0.743013
21
1.38227
0
LINE
8
BLACK
6
CONTINUOUS
10
0.743013
20
1.38227
11
0.745568
21
1.38057
0
LINE
8
BLACK
6
CONTINUOUS
10
0.745568
20
1.38057
11
0.747275
21
1.37801
0
LINE
8
BLACK
6
CONTINUOUS
10
0.747275
20
1.37801
11
0.747874
21
1.375
0
LINE
8
BLACK
6
CONTINUOUS
10
0.747874
20
1.375
11
0.747874
21
1.315
0
LINE
8
BLACK
6
CONTINUOUS
10
0.747874
20
1.315
11
0.747275
21
1.31199
0
LINE
8
BLACK
6
CONTINUOUS
10
0.747275
20
1.31199
11
0.745568
21
1.30943
0
LINE
8
BLACK
6
CONTINUOUS
10
0.745568
20
1.30943
11
0.743013
21
1.30773
0
LINE
8
BLACK
6
CONTINUOUS
10
0.743013
20
1.30773
11
0.74
21
1.30713
0
LINE
8
BLACK
6
CONTINUOUS
10
0.74
20
1.30713
11
0.68
21
1.30713
0
LINE
8
BLACK
6
CONTINUOUS
10
0.68
20
1.40713
11
0.676987
21
1.40773
0
LINE
8
BLACK
6
CONTINUOUS
10
0.676987
20
1.40773
11
0.674432
21
1.40943
0
LINE
8
BLACK
6
CONTINUOUS
10
0.674432
20
1.40943
11
0.672725
21
1.41199
0
LINE
8
BLACK
6
CONTINUOUS
10
0.672725
20
1.41199
11
0.672126
21
1.415
0
LINE
8
BLACK
6
CONTINUOUS
10
0.672126
20
1.415
11
0.672126
21
1.475
0
LINE
8
BLACK
6
CONTINUOUS
10
0.672126
20
1.475
11
0.672725
21
1.47801
0
LINE
8
BLACK
6
CONTINUOUS
10
0.672725
20
1.47801
11
0.674432
21
1.48057
0
LINE
8
BLACK
6
CONTINUOUS
10
0.674432
20
1.48057
11
0.676987
21
1.48227
0
LINE
8
BLACK
6
CONTINUOUS
10
0.676987
20
1.48227
11
0.68
21
1.48287
0
LINE
8
BLACK
6
CONTINUOUS
10
0.68
20
1.48287
11
0.74
21
1.48287
0
LINE
8
BLACK
6
CONTINUOUS
10
0.74
20
1.48287
11
0.743013
21
1.48227
0
LINE
8
BLACK
6
CONTINUOUS
10
0.743013
20
1.48227
11
0.745568
21
1.48057
0
LINE
8
BLACK
6
CONTINUOUS
10
0.745568
20
1.48057
11
0.747275
21
1.47801
0
LINE
8
BLACK
6
CONTINUOUS
10
0.747275
20
1.47801
11
0.747874
21
1.475
0
LINE
8
BLACK
6
CONTINUOUS
10
0.747874
20
1.475
11
0.747874
21
1.415
0
LINE
8
BLACK
6
CONTINUOUS
10
0.747874
20
1.415
11
0.747275
21
1.41199
0
LINE
8
BLACK
6
CONTINUOUS
10
0.747275
20
1.41199
11
0.745568
21
1.40943
0
LINE
8
BLACK
6
CONTINUOUS
10
0.745568
20
1.40943
11
0.743013
21
1.40773
0
LINE
8
BLACK
6
CONTINUOUS
10
0.743013
20
1.40773
11
0.74
21
1.40713
0
LINE
8
BLACK
6
CONTINUOUS
10
0.74
20
1.40713
11
0.68
21
1.40713
0
CIRCLE
8
BLACK
10
1.8
20
1.4
40
0.125984
0
CIRCLE
8
BLACK
10
1.8
20
0.2
40
0.125984
0
CIRCLE
8
BLACK
10
0.2
20
1.4
40
0.125984
0
CIRCLE
8
BLACK
10
0.2
20
0.2
40
0.125984
0
CIRCLE
8
BLACK
10
1.765
20
0.555
40
0.0728346
0
CIRCLE
8
BLACK
10
1.765
20
1.055
40
0.0728346
0
CIRCLE
8
BLACK
10
1.62996
20
1.12508
40
0.0531496
0
CIRCLE
8
BLACK
10
1.62996
20
0.484921
40
0.0531496
0
CIRCLE
8
BLACK
10
1.665
20
0.705
40
0.0334646
0
CIRCLE
8
BLACK
10
1.665
20
0.784921
40
0.0334646
0
CIRCLE
8
BLACK
10
1.665
20
0.864843
40
0.0334646
0
CIRCLE
8
BLACK
10
1.665
20
0.944764
40
0.0334646
0
CIRCLE
8
BLACK
10
1.59492
20
0.664843
40
0.0334646
0
CIRCLE
8
BLACK
10
1.59492
20
0.744764
40
0.0334646
0
CIRCLE
8
BLACK
10
1.59492
20
0.824685
40
0.0334646
0
CIRCLE
8
BLACK
10
1.59492
20
0.904606
40
0.0334646
0
CIRCLE
8
BLACK
10
1.40516
20
1.07508
40
0.0374016
0
CIRCLE
8
BLACK
10
1.40516
20
0.984921
40
0.0374016
0
CIRCLE
8
BLACK
10
1.40516
20
0.625079
40
0.0374016
0
CIRCLE
8
BLACK
10
1.40516
20
0.534921
40
0.0374016
0
CIRCLE
8
BLACK
10
0.589843
20
1.08508
40
0.0374016
0
CIRCLE
8
BLACK
10
0.589843
20
0.994921
40
0.0374016
0
CIRCLE
8
BLACK
10
0.589843
20
0.635079
40
0.0374016
0
CIRCLE
8
BLACK
10
0.589843
20
0.544921
40
0.0374016
0
CIRCLE
8
BLACK
10
0.400079
20
0.715394
40
0.0334646
0
CIRCLE
8
BLACK
10
0.400079
20
0.795315
40
0.0334646
0
CIRCLE
8
BLACK
10
0.400079
20
0.875236
40
0.0334646
0
CIRCLE
8
BLACK
10
0.400079
20
0.955157
40
0.0334646
0
CIRCLE
8
BLACK
10
0.33
20
0.675236
40
0.0334646
0
CIRCLE
8
BLACK
10
0.33
20
0.755157
40
0.0334646
0
CIRCLE
8
BLACK
10
0.33
20
0.835079
40
0.0334646
0
CIRCLE
8
BLACK
10
0.33
20
0.915
40
0.0334646
0
CIRCLE
8
BLACK
10
0.365039
20
1.13508
40
0.0531496
0
CIRCLE
8
BLACK
10
0.365039
20
0.494921
40
0.0531496
0
CIRCLE
8
BLACK
10
0.23
20
0.565
40
0.0728346
0
CIRCLE
8
BLACK
10
0.23
20
1.065
40
0.0728346
0
CIRCLE
8
BLACK
10
0.735
20
0.23
40
0.0728346
0
CIRCLE
8
BLACK
10
1.235
20
0.23
40
0.0728346
0
CIRCLE
8
BLACK
10
1.30508
20
0.365039
40
0.0531496
0
CIRCLE
8
BLACK
10
0.664921
20
0.365039
40
0.0531496
0
CIRCLE
8
BLACK
10
0.885
20
0.33
40
0.0334646
0
CIRCLE
8
BLACK
10
0.964921
20
0.33
40
0.0334646
0
CIRCLE
8
BLACK
10
1.04484
20
0.33
40
0.0334646
0
CIRCLE
8
BLACK
10
1.12476
20
0.33
40
0.0334646
0
CIRCLE
8
BLACK
10
0.844843
20
0.400079
40
0.0334646
0
CIRCLE
8
BLACK
10
0.924764
20
0.400079
40
0.0334646
0
CIRCLE
8
BLACK
10
1.00469
20
0.400079
40
0.0334646
0
CIRCLE
8
BLACK
10
1.08461
20
0.400079
40
0.0334646
0
CIRCLE
8
BLACK
10
1.25508
20
0.589843
40
0.0374016
0
CIRCLE
8
BLACK
10
1.16492
20
0.589843
40
0.0374016
0
CIRCLE
8
BLACK
10
0.805079
20
0.589843
40
0.0374016
0
CIRCLE
8
BLACK
10
0.714921
20
0.589843
40
0.0374016
  0
ENDSEC
  0
EOF
