  0
SECTION
  2
HEADER
  9
$ANGBASE
  50
0.0
  9
$ANGDIR
  70
1
  9
$MEASUREMENT
  70
0
  0
ENDSEC
  0
SECTION
  2
TABLES
  0
TABLE
  2
LTYPE
  70
4
  0
LTYPE
  5
40F
  2
CONTINUOUS
  70
0
  3
Solid line
  72
65
  73
0
  40
0.0
  0
LTYPE
  5
410
  2
DASHDOT
 70
0
  3
Dash Dot ____ _ ____ _
 72
65
 73
4
 40
2.0
 49
1.25
 49
-0.25
 49
0.25
 49
-0.25
  0
LTYPE
  5
411
  2
DASHED
 70
0
  3
Dashed __ __ __ __ __
 72
65
 73
2
 40
0.75
 49
0.5
 49
-0.25
  0
LTYPE
  5
43B
  2
DOTTED
 70
0
  3
Dotted .  .  .  .
 72
65
 73
2
 40
0.2
 49
0.0
 49
-0.2
  0
ENDTAB
  0
TABLE
  2
STYLE
  70
4
  0
STYLE
  2
KICAD
  70
0
  40
0
  41
1
  42
1
  50
0
  71
0
  3
isocp.shx
  0
STYLE
  2
KICADB
  70
0
  40
0
  41
1
  42
1
  50
0
  71
0
  3
isocp.shx
  0
STYLE
  2
KICADI
  70
0
  40
0
  41
1
  42
1
  50
15
  71
0
  3
isocp.shx
  0
STYLE
  2
KICADBI
  70
0
  40
0
  41
1
  42
1
  50
15
  71
0
  3
isocp.shx
  0
ENDTAB
  0
TABLE
  2
LAYER
  70
1
  0
LAYER
  2
BLACK
  70
0
  62
7
  6
CONTINUOUS
  0
ENDTAB
  0
ENDSEC
  0
SECTION
  2
ENTITIES
0
CIRCLE
8
BLACK
10
0.72
20
0.22
40
0.0570866
0
CIRCLE
8
BLACK
10
0.82
20
0.12
40
0.0610236
0
CIRCLE
8
BLACK
10
0.82
20
0.32
40
0.0610236
0
CIRCLE
8
BLACK
10
0.62
20
0.32
40
0.0610236
0
CIRCLE
8
BLACK
10
0.62
20
0.12
40
0.0610236
0
LINE
8
BLACK
6
CONTINUOUS
10
0.65
20
1.35213
11
0.646987
21
1.35273
0
LINE
8
BLACK
6
CONTINUOUS
10
0.646987
20
1.35273
11
0.644432
21
1.35443
0
LINE
8
BLACK
6
CONTINUOUS
10
0.644432
20
1.35443
11
0.642725
21
1.35699
0
LINE
8
BLACK
6
CONTINUOUS
10
0.642725
20
1.35699
11
0.642126
21
1.36
0
LINE
8
BLACK
6
CONTINUOUS
10
0.642126
20
1.36
11
0.642126
21
1.42
0
LINE
8
BLACK
6
CONTINUOUS
10
0.642126
20
1.42
11
0.642725
21
1.42301
0
LINE
8
BLACK
6
CONTINUOUS
10
0.642725
20
1.42301
11
0.644432
21
1.42557
0
LINE
8
BLACK
6
CONTINUOUS
10
0.644432
20
1.42557
11
0.646987
21
1.42727
0
LINE
8
BLACK
6
CONTINUOUS
10
0.646987
20
1.42727
11
0.65
21
1.42787
0
LINE
8
BLACK
6
CONTINUOUS
10
0.65
20
1.42787
11
0.71
21
1.42787
0
LINE
8
BLACK
6
CONTINUOUS
10
0.71
20
1.42787
11
0.713013
21
1.42727
0
LINE
8
BLACK
6
CONTINUOUS
10
0.713013
20
1.42727
11
0.715568
21
1.42557
0
LINE
8
BLACK
6
CONTINUOUS
10
0.715568
20
1.42557
11
0.717275
21
1.42301
0
LINE
8
BLACK
6
CONTINUOUS
10
0.717275
20
1.42301
11
0.717874
21
1.42
0
LINE
8
BLACK
6
CONTINUOUS
10
0.717874
20
1.42
11
0.717874
21
1.36
0
LINE
8
BLACK
6
CONTINUOUS
10
0.717874
20
1.36
11
0.717275
21
1.35699
0
LINE
8
BLACK
6
CONTINUOUS
10
0.717275
20
1.35699
11
0.715568
21
1.35443
0
LINE
8
BLACK
6
CONTINUOUS
10
0.715568
20
1.35443
11
0.713013
21
1.35273
0
LINE
8
BLACK
6
CONTINUOUS
10
0.713013
20
1.35273
11
0.71
21
1.35213
0
LINE
8
BLACK
6
CONTINUOUS
10
0.71
20
1.35213
11
0.65
21
1.35213
0
LINE
8
BLACK
6
CONTINUOUS
10
0.65
20
1.45213
11
0.646987
21
1.45273
0
LINE
8
BLACK
6
CONTINUOUS
10
0.646987
20
1.45273
11
0.644432
21
1.45443
0
LINE
8
BLACK
6
CONTINUOUS
10
0.644432
20
1.45443
11
0.642725
21
1.45699
0
LINE
8
BLACK
6
CONTINUOUS
10
0.642725
20
1.45699
11
0.642126
21
1.46
0
LINE
8
BLACK
6
CONTINUOUS
10
0.642126
20
1.46
11
0.642126
21
1.52
0
LINE
8
BLACK
6
CONTINUOUS
10
0.642126
20
1.52
11
0.642725
21
1.52301
0
LINE
8
BLACK
6
CONTINUOUS
10
0.642725
20
1.52301
11
0.644432
21
1.52557
0
LINE
8
BLACK
6
CONTINUOUS
10
0.644432
20
1.52557
11
0.646987
21
1.52727
0
LINE
8
BLACK
6
CONTINUOUS
10
0.646987
20
1.52727
11
0.65
21
1.52787
0
LINE
8
BLACK
6
CONTINUOUS
10
0.65
20
1.52787
11
0.71
21
1.52787
0
LINE
8
BLACK
6
CONTINUOUS
10
0.71
20
1.52787
11
0.713013
21
1.52727
0
LINE
8
BLACK
6
CONTINUOUS
10
0.713013
20
1.52727
11
0.715568
21
1.52557
0
LINE
8
BLACK
6
CONTINUOUS
10
0.715568
20
1.52557
11
0.717275
21
1.52301
0
LINE
8
BLACK
6
CONTINUOUS
10
0.717275
20
1.52301
11
0.717874
21
1.52
0
LINE
8
BLACK
6
CONTINUOUS
10
0.717874
20
1.52
11
0.717874
21
1.46
0
LINE
8
BLACK
6
CONTINUOUS
10
0.717874
20
1.46
11
0.717275
21
1.45699
0
LINE
8
BLACK
6
CONTINUOUS
10
0.717275
20
1.45699
11
0.715568
21
1.45443
0
LINE
8
BLACK
6
CONTINUOUS
10
0.715568
20
1.45443
11
0.713013
21
1.45273
0
LINE
8
BLACK
6
CONTINUOUS
10
0.713013
20
1.45273
11
0.71
21
1.45213
0
LINE
8
BLACK
6
CONTINUOUS
10
0.71
20
1.45213
11
0.65
21
1.45213
0
LINE
8
BLACK
6
CONTINUOUS
10
0.75
20
1.35213
11
0.746987
21
1.35273
0
LINE
8
BLACK
6
CONTINUOUS
10
0.746987
20
1.35273
11
0.744432
21
1.35443
0
LINE
8
BLACK
6
CONTINUOUS
10
0.744432
20
1.35443
11
0.742725
21
1.35699
0
LINE
8
BLACK
6
CONTINUOUS
10
0.742725
20
1.35699
11
0.742126
21
1.36
0
LINE
8
BLACK
6
CONTINUOUS
10
0.742126
20
1.36
11
0.742126
21
1.42
0
LINE
8
BLACK
6
CONTINUOUS
10
0.742126
20
1.42
11
0.742725
21
1.42301
0
LINE
8
BLACK
6
CONTINUOUS
10
0.742725
20
1.42301
11
0.744432
21
1.42557
0
LINE
8
BLACK
6
CONTINUOUS
10
0.744432
20
1.42557
11
0.746987
21
1.42727
0
LINE
8
BLACK
6
CONTINUOUS
10
0.746987
20
1.42727
11
0.75
21
1.42787
0
LINE
8
BLACK
6
CONTINUOUS
10
0.75
20
1.42787
11
0.81
21
1.42787
0
LINE
8
BLACK
6
CONTINUOUS
10
0.81
20
1.42787
11
0.813013
21
1.42727
0
LINE
8
BLACK
6
CONTINUOUS
10
0.813013
20
1.42727
11
0.815568
21
1.42557
0
LINE
8
BLACK
6
CONTINUOUS
10
0.815568
20
1.42557
11
0.817275
21
1.42301
0
LINE
8
BLACK
6
CONTINUOUS
10
0.817275
20
1.42301
11
0.817874
21
1.42
0
LINE
8
BLACK
6
CONTINUOUS
10
0.817874
20
1.42
11
0.817874
21
1.36
0
LINE
8
BLACK
6
CONTINUOUS
10
0.817874
20
1.36
11
0.817275
21
1.35699
0
LINE
8
BLACK
6
CONTINUOUS
10
0.817275
20
1.35699
11
0.815568
21
1.35443
0
LINE
8
BLACK
6
CONTINUOUS
10
0.815568
20
1.35443
11
0.813013
21
1.35273
0
LINE
8
BLACK
6
CONTINUOUS
10
0.813013
20
1.35273
11
0.81
21
1.35213
0
LINE
8
BLACK
6
CONTINUOUS
10
0.81
20
1.35213
11
0.75
21
1.35213
0
LINE
8
BLACK
6
CONTINUOUS
10
0.75
20
1.45213
11
0.746987
21
1.45273
0
LINE
8
BLACK
6
CONTINUOUS
10
0.746987
20
1.45273
11
0.744432
21
1.45443
0
LINE
8
BLACK
6
CONTINUOUS
10
0.744432
20
1.45443
11
0.742725
21
1.45699
0
LINE
8
BLACK
6
CONTINUOUS
10
0.742725
20
1.45699
11
0.742126
21
1.46
0
LINE
8
BLACK
6
CONTINUOUS
10
0.742126
20
1.46
11
0.742126
21
1.52
0
LINE
8
BLACK
6
CONTINUOUS
10
0.742126
20
1.52
11
0.742725
21
1.52301
0
LINE
8
BLACK
6
CONTINUOUS
10
0.742725
20
1.52301
11
0.744432
21
1.52557
0
LINE
8
BLACK
6
CONTINUOUS
10
0.744432
20
1.52557
11
0.746987
21
1.52727
0
LINE
8
BLACK
6
CONTINUOUS
10
0.746987
20
1.52727
11
0.75
21
1.52787
0
LINE
8
BLACK
6
CONTINUOUS
10
0.75
20
1.52787
11
0.81
21
1.52787
0
LINE
8
BLACK
6
CONTINUOUS
10
0.81
20
1.52787
11
0.813013
21
1.52727
0
LINE
8
BLACK
6
CONTINUOUS
10
0.813013
20
1.52727
11
0.815568
21
1.52557
0
LINE
8
BLACK
6
CONTINUOUS
10
0.815568
20
1.52557
11
0.817275
21
1.52301
0
LINE
8
BLACK
6
CONTINUOUS
10
0.817275
20
1.52301
11
0.817874
21
1.52
0
LINE
8
BLACK
6
CONTINUOUS
10
0.817874
20
1.52
11
0.817874
21
1.46
0
LINE
8
BLACK
6
CONTINUOUS
10
0.817874
20
1.46
11
0.817275
21
1.45699
0
LINE
8
BLACK
6
CONTINUOUS
10
0.817275
20
1.45699
11
0.815568
21
1.45443
0
LINE
8
BLACK
6
CONTINUOUS
10
0.815568
20
1.45443
11
0.813013
21
1.45273
0
LINE
8
BLACK
6
CONTINUOUS
10
0.813013
20
1.45273
11
0.81
21
1.45213
0
LINE
8
BLACK
6
CONTINUOUS
10
0.81
20
1.45213
11
0.75
21
1.45213
0
LINE
8
BLACK
6
CONTINUOUS
10
0.85
20
1.35213
11
0.846987
21
1.35273
0
LINE
8
BLACK
6
CONTINUOUS
10
0.846987
20
1.35273
11
0.844432
21
1.35443
0
LINE
8
BLACK
6
CONTINUOUS
10
0.844432
20
1.35443
11
0.842725
21
1.35699
0
LINE
8
BLACK
6
CONTINUOUS
10
0.842725
20
1.35699
11
0.842126
21
1.36
0
LINE
8
BLACK
6
CONTINUOUS
10
0.842126
20
1.36
11
0.842126
21
1.42
0
LINE
8
BLACK
6
CONTINUOUS
10
0.842126
20
1.42
11
0.842725
21
1.42301
0
LINE
8
BLACK
6
CONTINUOUS
10
0.842725
20
1.42301
11
0.844432
21
1.42557
0
LINE
8
BLACK
6
CONTINUOUS
10
0.844432
20
1.42557
11
0.846987
21
1.42727
0
LINE
8
BLACK
6
CONTINUOUS
10
0.846987
20
1.42727
11
0.85
21
1.42787
0
LINE
8
BLACK
6
CONTINUOUS
10
0.85
20
1.42787
11
0.91
21
1.42787
0
LINE
8
BLACK
6
CONTINUOUS
10
0.91
20
1.42787
11
0.913013
21
1.42727
0
LINE
8
BLACK
6
CONTINUOUS
10
0.913013
20
1.42727
11
0.915568
21
1.42557
0
LINE
8
BLACK
6
CONTINUOUS
10
0.915568
20
1.42557
11
0.917275
21
1.42301
0
LINE
8
BLACK
6
CONTINUOUS
10
0.917275
20
1.42301
11
0.917874
21
1.42
0
LINE
8
BLACK
6
CONTINUOUS
10
0.917874
20
1.42
11
0.917874
21
1.36
0
LINE
8
BLACK
6
CONTINUOUS
10
0.917874
20
1.36
11
0.917275
21
1.35699
0
LINE
8
BLACK
6
CONTINUOUS
10
0.917275
20
1.35699
11
0.915568
21
1.35443
0
LINE
8
BLACK
6
CONTINUOUS
10
0.915568
20
1.35443
11
0.913013
21
1.35273
0
LINE
8
BLACK
6
CONTINUOUS
10
0.913013
20
1.35273
11
0.91
21
1.35213
0
LINE
8
BLACK
6
CONTINUOUS
10
0.91
20
1.35213
11
0.85
21
1.35213
0
LINE
8
BLACK
6
CONTINUOUS
10
0.85
20
1.45213
11
0.846987
21
1.45273
0
LINE
8
BLACK
6
CONTINUOUS
10
0.846987
20
1.45273
11
0.844432
21
1.45443
0
LINE
8
BLACK
6
CONTINUOUS
10
0.844432
20
1.45443
11
0.842725
21
1.45699
0
LINE
8
BLACK
6
CONTINUOUS
10
0.842725
20
1.45699
11
0.842126
21
1.46
0
LINE
8
BLACK
6
CONTINUOUS
10
0.842126
20
1.46
11
0.842126
21
1.52
0
LINE
8
BLACK
6
CONTINUOUS
10
0.842126
20
1.52
11
0.842725
21
1.52301
0
LINE
8
BLACK
6
CONTINUOUS
10
0.842725
20
1.52301
11
0.844432
21
1.52557
0
LINE
8
BLACK
6
CONTINUOUS
10
0.844432
20
1.52557
11
0.846987
21
1.52727
0
LINE
8
BLACK
6
CONTINUOUS
10
0.846987
20
1.52727
11
0.85
21
1.52787
0
LINE
8
BLACK
6
CONTINUOUS
10
0.85
20
1.52787
11
0.91
21
1.52787
0
LINE
8
BLACK
6
CONTINUOUS
10
0.91
20
1.52787
11
0.913013
21
1.52727
0
LINE
8
BLACK
6
CONTINUOUS
10
0.913013
20
1.52727
11
0.915568
21
1.52557
0
LINE
8
BLACK
6
CONTINUOUS
10
0.915568
20
1.52557
11
0.917275
21
1.52301
0
LINE
8
BLACK
6
CONTINUOUS
10
0.917275
20
1.52301
11
0.917874
21
1.52
0
LINE
8
BLACK
6
CONTINUOUS
10
0.917874
20
1.52
11
0.917874
21
1.46
0
LINE
8
BLACK
6
CONTINUOUS
10
0.917874
20
1.46
11
0.917275
21
1.45699
0
LINE
8
BLACK
6
CONTINUOUS
10
0.917275
20
1.45699
11
0.915568
21
1.45443
0
LINE
8
BLACK
6
CONTINUOUS
10
0.915568
20
1.45443
11
0.913013
21
1.45273
0
LINE
8
BLACK
6
CONTINUOUS
10
0.913013
20
1.45273
11
0.91
21
1.45213
0
LINE
8
BLACK
6
CONTINUOUS
10
0.91
20
1.45213
11
0.85
21
1.45213
0
CIRCLE
8
BLACK
10
1.8
20
1.4
40
0.125984
0
CIRCLE
8
BLACK
10
1.8
20
0.2
40
0.125984
0
CIRCLE
8
BLACK
10
0.2
20
1.4
40
0.125984
0
CIRCLE
8
BLACK
10
0.2
20
0.2
40
0.125984
0
CIRCLE
8
BLACK
10
1.8
20
1.02
40
0.125984
0
CIRCLE
8
BLACK
10
1.8
20
0.62
40
0.125984
0
CIRCLE
8
BLACK
10
0.2
20
1.02
40
0.125984
0
CIRCLE
8
BLACK
10
0.2
20
0.62
40
0.125984
0
CIRCLE
8
BLACK
10
1.42
20
0.14
40
0.125984
0
CIRCLE
8
BLACK
10
1.06
20
0.14
40
0.125984
  0
ENDSEC
  0
EOF
